<svg width="972" height="146" viewBox="0 0 972 146" fill="none" xmlns="http://www.w3.org/2000/svg">
<rect x="0.5" y="0.5" width="311" height="145" rx="23.5" fill="white"/>
<rect x="0.5" y="0.5" width="311" height="145" rx="23.5" stroke="#EDEDF0"/>
<path d="M25.1186 42V31.8182H28.7479C29.54 31.8182 30.1963 31.9624 30.7166 32.2507C31.237 32.5391 31.6264 32.9335 31.8849 33.4339C32.1435 33.9311 32.2727 34.4912 32.2727 35.1143C32.2727 35.7408 32.1418 36.3042 31.88 36.8047C31.6214 37.3018 31.2304 37.6963 30.7067 37.9879C30.1863 38.2763 29.5317 38.4205 28.7429 38.4205H26.2472V37.1179H28.6037C29.1042 37.1179 29.5102 37.0317 29.8217 36.8594C30.1333 36.6837 30.362 36.4451 30.5078 36.1435C30.6536 35.8419 30.7266 35.4988 30.7266 35.1143C30.7266 34.7299 30.6536 34.3885 30.5078 34.0902C30.362 33.7919 30.1316 33.5582 29.8168 33.3892C29.5052 33.2202 29.0942 33.1357 28.5838 33.1357H26.6548V42H25.1186ZM35.5809 31.8182V42H34.0944V31.8182H35.5809ZM39.943 42.169C39.4591 42.169 39.0216 42.0795 38.6305 41.9006C38.2394 41.7183 37.9295 41.4548 37.7008 41.1101C37.4754 40.7654 37.3627 40.3428 37.3627 39.8423C37.3627 39.4115 37.4456 39.0568 37.6113 38.7784C37.777 38.5 38.0008 38.2796 38.2825 38.1172C38.5642 37.9548 38.8791 37.8321 39.2271 37.7493C39.5751 37.6664 39.9297 37.6035 40.291 37.5604C40.7484 37.5073 41.1196 37.4643 41.4046 37.4311C41.6897 37.3946 41.8968 37.3366 42.0261 37.2571C42.1554 37.1776 42.22 37.0483 42.22 36.8693V36.8345C42.22 36.4003 42.0974 36.0639 41.8521 35.8253C41.6101 35.5866 41.2489 35.4673 40.7683 35.4673C40.2678 35.4673 39.8734 35.5784 39.585 35.8004C39.3 36.0192 39.1028 36.2628 38.9934 36.5312L37.5964 36.2131C37.7621 35.7491 38.0041 35.3745 38.3223 35.0895C38.6438 34.8011 39.0133 34.5923 39.4309 34.4631C39.8485 34.3305 40.2877 34.2642 40.7484 34.2642C41.0533 34.2642 41.3765 34.3007 41.7179 34.3736C42.0626 34.4432 42.384 34.5724 42.6823 34.7614C42.984 34.9503 43.2309 35.2204 43.4231 35.5717C43.6153 35.9197 43.7115 36.3722 43.7115 36.929V42H42.2598V40.956H42.2001C42.104 41.1482 41.9598 41.3371 41.7676 41.5227C41.5753 41.7083 41.3284 41.8625 41.0268 41.9851C40.7252 42.1077 40.3639 42.169 39.943 42.169ZM40.2662 40.9759C40.6771 40.9759 41.0285 40.8946 41.3201 40.7322C41.6151 40.5698 41.8388 40.3577 41.9913 40.0959C42.1471 39.8307 42.225 39.5473 42.225 39.2457V38.2614C42.1719 38.3144 42.0692 38.3641 41.9167 38.4105C41.7676 38.4536 41.5969 38.4917 41.4046 38.5249C41.2124 38.5547 41.0251 38.5829 40.8429 38.6094C40.6606 38.6326 40.5081 38.6525 40.3855 38.669C40.0971 38.7055 39.8336 38.7668 39.595 38.853C39.3597 38.9392 39.1707 39.0634 39.0282 39.2259C38.889 39.3849 38.8194 39.5971 38.8194 39.8622C38.8194 40.2301 38.9553 40.5085 39.2271 40.6974C39.4989 40.883 39.8452 40.9759 40.2662 40.9759ZM47.3179 37.4659V42H45.8314V34.3636H47.2582V35.6065H47.3527C47.5284 35.2022 47.8035 34.8774 48.178 34.6321C48.5558 34.3868 49.0314 34.2642 49.6048 34.2642C50.1252 34.2642 50.5809 34.3736 50.972 34.5923C51.3631 34.8078 51.6664 35.1293 51.8818 35.5568C52.0973 35.9844 52.205 36.513 52.205 37.1428V42H50.7185V37.3217C50.7185 36.7682 50.5743 36.3357 50.2859 36.0241C49.9976 35.7093 49.6015 35.5518 49.0977 35.5518C48.753 35.5518 48.4465 35.6264 48.178 35.7756C47.9128 35.9247 47.7024 36.1435 47.5466 36.4318C47.3941 36.7169 47.3179 37.0616 47.3179 37.4659Z" fill="#AEAEB2"/>
<path d="M28.5256 72H24.571L30.5966 54.5455H35.3523L41.3693 72H37.4148L33.0426 58.5341H32.9062L28.5256 72ZM28.2784 65.1392H37.6193V68.0199H28.2784V65.1392ZM47.6165 72.2131C46.6222 72.2131 45.7216 71.9574 44.9148 71.446C44.1136 70.929 43.4773 70.1705 43.0057 69.1705C42.5398 68.1648 42.3068 66.9318 42.3068 65.4716C42.3068 63.9716 42.5483 62.7244 43.0312 61.7301C43.5142 60.7301 44.1563 59.983 44.9574 59.4886C45.7642 58.9886 46.6477 58.7386 47.608 58.7386C48.3409 58.7386 48.9517 58.8636 49.4403 59.1136C49.9347 59.358 50.3324 59.6648 50.6335 60.0341C50.9403 60.3977 51.1733 60.7557 51.3324 61.108H51.4432V54.5455H55.0653V72H51.4858V69.9034H51.3324C51.1619 70.267 50.9205 70.6278 50.608 70.9858C50.3011 71.3381 49.9006 71.6307 49.4062 71.8636C48.9176 72.0966 48.321 72.2131 47.6165 72.2131ZM48.767 69.3239C49.3523 69.3239 49.8466 69.1648 50.25 68.8466C50.6591 68.5227 50.9716 68.071 51.1875 67.4915C51.4091 66.9119 51.5199 66.233 51.5199 65.4545C51.5199 64.6761 51.4119 64 51.196 63.4261C50.9801 62.8523 50.6676 62.4091 50.2585 62.0966C49.8494 61.7841 49.3523 61.6278 48.767 61.6278C48.1705 61.6278 47.6676 61.7898 47.2585 62.1136C46.8494 62.4375 46.5398 62.8864 46.3295 63.4602C46.1193 64.0341 46.0142 64.6989 46.0142 65.4545C46.0142 66.2159 46.1193 66.8892 46.3295 67.4744C46.5455 68.054 46.8551 68.5085 47.2585 68.8381C47.6676 69.1619 48.1705 69.3239 48.767 69.3239ZM70.255 58.9091L65.6783 72H61.5874L57.0107 58.9091H60.8459L63.5646 68.2756H63.701L66.4112 58.9091H70.255ZM75.4943 72.2472C74.6591 72.2472 73.9148 72.1023 73.2614 71.8125C72.608 71.517 72.0909 71.0824 71.7102 70.5085C71.3352 69.929 71.1477 69.2074 71.1477 68.3438C71.1477 67.6165 71.2813 67.0057 71.5483 66.5114C71.8153 66.017 72.179 65.6193 72.6392 65.3182C73.0994 65.017 73.6222 64.7898 74.2074 64.6364C74.7983 64.483 75.4176 64.375 76.0653 64.3125C76.8267 64.233 77.4403 64.1591 77.9062 64.0909C78.3722 64.017 78.7102 63.9091 78.9205 63.767C79.1307 63.625 79.2358 63.4148 79.2358 63.1364V63.0852C79.2358 62.5455 79.0653 62.1278 78.7244 61.8324C78.3892 61.5369 77.9119 61.3892 77.2926 61.3892C76.6392 61.3892 76.1193 61.5341 75.733 61.8239C75.3466 62.108 75.0909 62.4659 74.9659 62.8977L71.608 62.625C71.7784 61.8295 72.1136 61.142 72.6136 60.5625C73.1136 59.9773 73.7585 59.5284 74.5483 59.2159C75.3438 58.8977 76.2642 58.7386 77.3097 58.7386C78.0369 58.7386 78.733 58.8239 79.3977 58.9943C80.0682 59.1648 80.6619 59.429 81.179 59.7869C81.7017 60.1449 82.1136 60.6051 82.4148 61.1676C82.7159 61.7244 82.8665 62.392 82.8665 63.1705V72H79.4233V70.1847H79.321C79.1108 70.5938 78.8295 70.9545 78.4773 71.267C78.125 71.5739 77.7017 71.8153 77.2074 71.9915C76.7131 72.1619 76.142 72.2472 75.4943 72.2472ZM76.5341 69.7415C77.0682 69.7415 77.5398 69.6364 77.9489 69.4261C78.358 69.2102 78.679 68.9205 78.9119 68.5568C79.1449 68.1932 79.2614 67.7812 79.2614 67.321V65.9318C79.1477 66.0057 78.9915 66.0739 78.7926 66.1364C78.5994 66.1932 78.3807 66.2472 78.1364 66.2983C77.892 66.3437 77.6477 66.3864 77.4034 66.4261C77.1591 66.4602 76.9375 66.4915 76.7386 66.5199C76.3125 66.5824 75.9403 66.6818 75.6222 66.8182C75.304 66.9545 75.0568 67.1392 74.8807 67.3722C74.7045 67.5994 74.6165 67.8835 74.6165 68.2244C74.6165 68.7188 74.7955 69.0966 75.1534 69.358C75.517 69.6136 75.9773 69.7415 76.5341 69.7415ZM89.3139 64.4318V72H85.6832V58.9091H89.1435V61.2188H89.2969C89.5866 60.4574 90.0724 59.8551 90.7543 59.4119C91.4361 58.9631 92.2628 58.7386 93.2344 58.7386C94.1435 58.7386 94.9361 58.9375 95.6122 59.3352C96.2884 59.733 96.8139 60.3011 97.1889 61.0398C97.5639 61.7727 97.7514 62.6477 97.7514 63.6648V72H94.1207V64.3125C94.1264 63.5114 93.9219 62.8864 93.5071 62.4375C93.0923 61.983 92.5213 61.7557 91.794 61.7557C91.3054 61.7557 90.8736 61.8608 90.4986 62.071C90.1293 62.2812 89.8395 62.5881 89.6293 62.9915C89.4247 63.3892 89.3196 63.8693 89.3139 64.4318ZM106.528 72.2557C105.187 72.2557 104.033 71.9716 103.067 71.4034C102.107 70.8295 101.369 70.0341 100.852 69.017C100.34 68 100.085 66.8295 100.085 65.5057C100.085 64.1648 100.343 62.9886 100.86 61.9773C101.383 60.9602 102.124 60.1676 103.085 59.5994C104.045 59.0256 105.187 58.7386 106.511 58.7386C107.653 58.7386 108.653 58.946 109.511 59.3608C110.369 59.7756 111.048 60.358 111.548 61.108C112.048 61.858 112.323 62.7386 112.374 63.75H108.948C108.852 63.0966 108.596 62.571 108.181 62.1733C107.772 61.7699 107.235 61.5682 106.57 61.5682C106.008 61.5682 105.516 61.7216 105.096 62.0284C104.681 62.3295 104.357 62.7699 104.124 63.3494C103.891 63.929 103.775 64.6307 103.775 65.4545C103.775 66.2898 103.888 67 104.116 67.5852C104.349 68.1705 104.675 68.6165 105.096 68.9233C105.516 69.2301 106.008 69.3835 106.57 69.3835C106.985 69.3835 107.357 69.2983 107.687 69.1278C108.022 68.9574 108.298 68.7102 108.513 68.3864C108.735 68.0568 108.88 67.6619 108.948 67.2017H112.374C112.317 68.2017 112.045 69.0824 111.556 69.8438C111.073 70.5994 110.406 71.1903 109.553 71.6165C108.701 72.0426 107.692 72.2557 106.528 72.2557ZM120.665 72.2557C119.318 72.2557 118.159 71.983 117.188 71.4375C116.222 70.8864 115.477 70.108 114.955 69.1023C114.432 68.0909 114.17 66.8949 114.17 65.5142C114.17 64.1676 114.432 62.9858 114.955 61.9688C115.477 60.9517 116.213 60.1591 117.162 59.5909C118.116 59.0227 119.236 58.7386 120.52 58.7386C121.384 58.7386 122.188 58.8778 122.932 59.1562C123.682 59.429 124.335 59.8409 124.892 60.392C125.455 60.9432 125.892 61.6364 126.205 62.4716C126.517 63.3011 126.673 64.2727 126.673 65.3864V66.3835H115.619V64.1335H123.256C123.256 63.6108 123.142 63.1477 122.915 62.7443C122.688 62.3409 122.372 62.0256 121.969 61.7983C121.571 61.5653 121.108 61.4489 120.58 61.4489C120.028 61.4489 119.54 61.5767 119.114 61.8324C118.693 62.0824 118.364 62.4205 118.125 62.8466C117.886 63.267 117.764 63.7358 117.759 64.2528V66.392C117.759 67.0398 117.878 67.5994 118.116 68.071C118.361 68.5426 118.705 68.9062 119.148 69.1619C119.591 69.4176 120.116 69.5455 120.724 69.5455C121.128 69.5455 121.497 69.4886 121.832 69.375C122.168 69.2614 122.455 69.0909 122.693 68.8636C122.932 68.6364 123.114 68.358 123.239 68.0284L126.597 68.25C126.426 69.0568 126.077 69.7614 125.548 70.3636C125.026 70.9602 124.349 71.4261 123.52 71.7614C122.696 72.0909 121.744 72.2557 120.665 72.2557ZM133.866 72.2131C132.872 72.2131 131.972 71.9574 131.165 71.446C130.364 70.929 129.727 70.1705 129.256 69.1705C128.79 68.1648 128.557 66.9318 128.557 65.4716C128.557 63.9716 128.798 62.7244 129.281 61.7301C129.764 60.7301 130.406 59.983 131.207 59.4886C132.014 58.9886 132.898 58.7386 133.858 58.7386C134.591 58.7386 135.202 58.8636 135.69 59.1136C136.185 59.358 136.582 59.6648 136.884 60.0341C137.19 60.3977 137.423 60.7557 137.582 61.108H137.693V54.5455H141.315V72H137.736V69.9034H137.582C137.412 70.267 137.17 70.6278 136.858 70.9858C136.551 71.3381 136.151 71.6307 135.656 71.8636C135.168 72.0966 134.571 72.2131 133.866 72.2131ZM135.017 69.3239C135.602 69.3239 136.097 69.1648 136.5 68.8466C136.909 68.5227 137.222 68.071 137.438 67.4915C137.659 66.9119 137.77 66.233 137.77 65.4545C137.77 64.6761 137.662 64 137.446 63.4261C137.23 62.8523 136.918 62.4091 136.509 62.0966C136.099 61.7841 135.602 61.6278 135.017 61.6278C134.42 61.6278 133.918 61.7898 133.509 62.1136C133.099 62.4375 132.79 62.8864 132.58 63.4602C132.369 64.0341 132.264 64.6989 132.264 65.4545C132.264 66.2159 132.369 66.8892 132.58 67.4744C132.795 68.054 133.105 68.5085 133.509 68.8381C133.918 69.1619 134.42 69.3239 135.017 69.3239Z" fill="#1E1E1F"/>
<rect x="24" y="95" width="69" height="24" rx="12" fill="#EDEEF0"/>
<path d="M32.72 111V110.136C33.288 109.704 33.824 109.268 34.328 108.828C34.84 108.388 35.296 107.952 35.696 107.52C36.096 107.08 36.408 106.652 36.632 106.236C36.864 105.812 36.98 105.408 36.98 105.024C36.98 104.752 36.928 104.5 36.824 104.268C36.728 104.036 36.572 103.848 36.356 103.704C36.148 103.552 35.864 103.476 35.504 103.476C35.152 103.476 34.86 103.552 34.628 103.704C34.396 103.856 34.22 104.06 34.1 104.316C33.988 104.564 33.932 104.84 33.932 105.144H32.768C32.776 104.568 32.9 104.08 33.14 103.68C33.38 103.28 33.708 102.976 34.124 102.768C34.54 102.56 35.008 102.456 35.528 102.456C36.064 102.456 36.528 102.556 36.92 102.756C37.312 102.948 37.62 103.232 37.844 103.608C38.068 103.984 38.18 104.436 38.18 104.964C38.18 105.348 38.1 105.732 37.94 106.116C37.788 106.492 37.58 106.86 37.316 107.22C37.052 107.58 36.756 107.928 36.428 108.264C36.108 108.592 35.776 108.904 35.432 109.2C35.088 109.496 34.76 109.764 34.448 110.004H38.432V111H32.72ZM39.8244 111V110.136C40.3924 109.704 40.9284 109.268 41.4324 108.828C41.9444 108.388 42.4004 107.952 42.8004 107.52C43.2004 107.08 43.5124 106.652 43.7364 106.236C43.9684 105.812 44.0844 105.408 44.0844 105.024C44.0844 104.752 44.0324 104.5 43.9284 104.268C43.8324 104.036 43.6764 103.848 43.4604 103.704C43.2524 103.552 42.9684 103.476 42.6084 103.476C42.2564 103.476 41.9644 103.552 41.7324 103.704C41.5004 103.856 41.3244 104.06 41.2044 104.316C41.0924 104.564 41.0364 104.84 41.0364 105.144H39.8724C39.8804 104.568 40.0044 104.08 40.2444 103.68C40.4844 103.28 40.8124 102.976 41.2284 102.768C41.6444 102.56 42.1124 102.456 42.6324 102.456C43.1684 102.456 43.6324 102.556 44.0244 102.756C44.4164 102.948 44.7244 103.232 44.9484 103.608C45.1724 103.984 45.2844 104.436 45.2844 104.964C45.2844 105.348 45.2044 105.732 45.0444 106.116C44.8924 106.492 44.6844 106.86 44.4204 107.22C44.1564 107.58 43.8604 107.928 43.5324 108.264C43.2124 108.592 42.8804 108.904 42.5364 109.2C42.1924 109.496 41.8644 109.764 41.5524 110.004H45.5364V111H39.8244ZM50.195 111.144C49.467 111.144 48.839 110.964 48.311 110.604C47.791 110.236 47.391 109.728 47.111 109.08C46.831 108.424 46.691 107.664 46.691 106.8C46.691 105.936 46.831 105.18 47.111 104.532C47.391 103.876 47.791 103.368 48.311 103.008C48.839 102.64 49.467 102.456 50.195 102.456C50.931 102.456 51.555 102.64 52.067 103.008C52.587 103.368 52.987 103.876 53.267 104.532C53.555 105.18 53.699 105.936 53.699 106.8C53.699 107.664 53.555 108.424 53.267 109.08C52.987 109.728 52.587 110.236 52.067 110.604C51.555 110.964 50.931 111.144 50.195 111.144ZM50.195 110.076C50.635 110.076 51.023 109.944 51.359 109.68C51.703 109.416 51.971 109.04 52.163 108.552C52.363 108.064 52.463 107.48 52.463 106.8C52.463 106.112 52.363 105.528 52.163 105.048C51.971 104.56 51.703 104.188 51.359 103.932C51.023 103.668 50.635 103.536 50.195 103.536C49.755 103.536 49.363 103.668 49.019 103.932C48.675 104.188 48.403 104.56 48.203 105.048C48.011 105.528 47.915 106.112 47.915 106.8C47.915 107.48 48.011 108.064 48.203 108.552C48.403 109.04 48.675 109.416 49.019 109.68C49.363 109.944 49.755 110.076 50.195 110.076ZM55.2675 111V102.6H56.6835L59.4795 108.288L62.2635 102.6H63.6795V111H62.4795V104.712L59.9355 109.848H59.0115L56.4675 104.736V111H55.2675ZM72.4446 111.144C71.6286 111.144 70.9246 110.964 70.3326 110.604C69.7406 110.236 69.2846 109.728 68.9646 109.08C68.6446 108.424 68.4846 107.664 68.4846 106.8C68.4846 105.944 68.6446 105.188 68.9646 104.532C69.2846 103.876 69.7406 103.368 70.3326 103.008C70.9246 102.64 71.6286 102.456 72.4446 102.456C73.4206 102.456 74.2126 102.692 74.8206 103.164C75.4286 103.636 75.8166 104.3 75.9846 105.156H74.6766C74.5486 104.66 74.3006 104.264 73.9326 103.968C73.5646 103.672 73.0646 103.524 72.4326 103.524C71.8806 103.524 71.3966 103.656 70.9806 103.92C70.5726 104.184 70.2566 104.56 70.0326 105.048C69.8166 105.536 69.7086 106.12 69.7086 106.8C69.7086 107.48 69.8166 108.068 70.0326 108.564C70.2566 109.052 70.5726 109.428 70.9806 109.692C71.3966 109.948 71.8806 110.076 72.4326 110.076C73.0646 110.076 73.5646 109.936 73.9326 109.656C74.3006 109.368 74.5486 108.98 74.6766 108.492H75.9846C75.8166 109.324 75.4286 109.976 74.8206 110.448C74.2126 110.912 73.4206 111.144 72.4446 111.144ZM80.649 111.144C80.057 111.144 79.521 111.028 79.041 110.796C78.561 110.556 78.177 110.196 77.889 109.716C77.609 109.228 77.469 108.608 77.469 107.856V102.6H78.669V107.868C78.669 108.372 78.753 108.788 78.921 109.116C79.089 109.436 79.321 109.676 79.617 109.836C79.921 109.988 80.273 110.064 80.673 110.064C81.081 110.064 81.429 109.988 81.717 109.836C82.013 109.676 82.241 109.436 82.401 109.116C82.569 108.788 82.653 108.372 82.653 107.868V102.6H83.853V107.856C83.853 108.608 83.709 109.228 83.421 109.716C83.133 110.196 82.745 110.556 82.257 110.796C81.777 111.028 81.241 111.144 80.649 111.144Z" fill="#1E1E1F"/>
<rect x="100" y="95" width="65" height="24" rx="12" fill="#EDEEF0"/>
<path d="M111.564 111.144C111.028 111.144 110.536 111.048 110.088 110.856C109.648 110.656 109.296 110.36 109.032 109.968C108.776 109.568 108.64 109.068 108.624 108.468H109.824C109.832 108.772 109.904 109.048 110.04 109.296C110.176 109.544 110.372 109.744 110.628 109.896C110.892 110.04 111.204 110.112 111.564 110.112C111.924 110.112 112.224 110.044 112.464 109.908C112.712 109.772 112.896 109.588 113.016 109.356C113.144 109.124 113.208 108.864 113.208 108.576C113.208 108.224 113.12 107.936 112.944 107.712C112.776 107.488 112.544 107.32 112.248 107.208C111.96 107.096 111.636 107.04 111.276 107.04H110.652V106.044H111.276C111.788 106.044 112.196 105.928 112.5 105.696C112.804 105.456 112.956 105.124 112.956 104.7C112.956 104.348 112.836 104.06 112.596 103.836C112.364 103.604 112.02 103.488 111.564 103.488C111.108 103.488 110.748 103.616 110.484 103.872C110.22 104.128 110.072 104.452 110.04 104.844H108.84C108.864 104.372 108.992 103.956 109.224 103.596C109.456 103.228 109.772 102.948 110.172 102.756C110.572 102.556 111.036 102.456 111.564 102.456C112.132 102.456 112.604 102.556 112.98 102.756C113.364 102.948 113.656 103.208 113.856 103.536C114.056 103.864 114.156 104.224 114.156 104.616C114.156 104.912 114.096 105.192 113.976 105.456C113.864 105.712 113.704 105.932 113.496 106.116C113.288 106.3 113.032 106.432 112.728 106.512C113.048 106.568 113.332 106.692 113.58 106.884C113.836 107.068 114.036 107.304 114.18 107.592C114.332 107.88 114.408 108.212 114.408 108.588C114.408 109.044 114.3 109.468 114.084 109.86C113.868 110.244 113.548 110.556 113.124 110.796C112.708 111.028 112.188 111.144 111.564 111.144ZM119.372 111.144C118.644 111.144 118.016 110.964 117.488 110.604C116.968 110.236 116.568 109.728 116.288 109.08C116.008 108.424 115.868 107.664 115.868 106.8C115.868 105.936 116.008 105.18 116.288 104.532C116.568 103.876 116.968 103.368 117.488 103.008C118.016 102.64 118.644 102.456 119.372 102.456C120.108 102.456 120.732 102.64 121.244 103.008C121.764 103.368 122.164 103.876 122.444 104.532C122.732 105.18 122.876 105.936 122.876 106.8C122.876 107.664 122.732 108.424 122.444 109.08C122.164 109.728 121.764 110.236 121.244 110.604C120.732 110.964 120.108 111.144 119.372 111.144ZM119.372 110.076C119.812 110.076 120.2 109.944 120.536 109.68C120.88 109.416 121.148 109.04 121.34 108.552C121.54 108.064 121.64 107.48 121.64 106.8C121.64 106.112 121.54 105.528 121.34 105.048C121.148 104.56 120.88 104.188 120.536 103.932C120.2 103.668 119.812 103.536 119.372 103.536C118.932 103.536 118.54 103.668 118.196 103.932C117.852 104.188 117.58 104.56 117.38 105.048C117.188 105.528 117.092 106.112 117.092 106.8C117.092 107.48 117.188 108.064 117.38 108.552C117.58 109.04 117.852 109.416 118.196 109.68C118.54 109.944 118.932 110.076 119.372 110.076ZM127.636 111.144C126.908 111.144 126.28 110.964 125.752 110.604C125.232 110.236 124.832 109.728 124.552 109.08C124.272 108.424 124.132 107.664 124.132 106.8C124.132 105.936 124.272 105.18 124.552 104.532C124.832 103.876 125.232 103.368 125.752 103.008C126.28 102.64 126.908 102.456 127.636 102.456C128.372 102.456 128.996 102.64 129.508 103.008C130.028 103.368 130.428 103.876 130.708 104.532C130.996 105.18 131.14 105.936 131.14 106.8C131.14 107.664 130.996 108.424 130.708 109.08C130.428 109.728 130.028 110.236 129.508 110.604C128.996 110.964 128.372 111.144 127.636 111.144ZM127.636 110.076C128.076 110.076 128.464 109.944 128.8 109.68C129.144 109.416 129.412 109.04 129.604 108.552C129.804 108.064 129.904 107.48 129.904 106.8C129.904 106.112 129.804 105.528 129.604 105.048C129.412 104.56 129.144 104.188 128.8 103.932C128.464 103.668 128.076 103.536 127.636 103.536C127.196 103.536 126.804 103.668 126.46 103.932C126.116 104.188 125.844 104.56 125.644 105.048C125.452 105.528 125.356 106.112 125.356 106.8C125.356 107.48 125.452 108.064 125.644 108.552C125.844 109.04 126.116 109.416 126.46 109.68C126.804 109.944 127.196 110.076 127.636 110.076ZM135.923 111V102.6H138.767C139.431 102.6 139.975 102.712 140.399 102.936C140.823 103.16 141.135 103.46 141.335 103.836C141.543 104.204 141.647 104.624 141.647 105.096C141.647 105.544 141.543 105.96 141.335 106.344C141.135 106.72 140.819 107.024 140.387 107.256C139.955 107.48 139.403 107.592 138.731 107.592H137.123V111H135.923ZM140.339 111L138.527 107.268H139.847L141.731 111H140.339ZM137.123 106.68H138.695C139.287 106.68 139.719 106.536 139.991 106.248C140.271 105.952 140.411 105.576 140.411 105.12C140.411 104.656 140.275 104.288 140.003 104.016C139.731 103.744 139.291 103.608 138.683 103.608H137.123V106.68ZM143.343 111V102.6H146.199C146.871 102.6 147.423 102.712 147.855 102.936C148.295 103.16 148.619 103.464 148.827 103.848C149.035 104.224 149.139 104.656 149.139 105.144C149.139 105.608 149.035 106.032 148.827 106.416C148.619 106.8 148.299 107.108 147.867 107.34C147.435 107.564 146.879 107.676 146.199 107.676H144.543V111H143.343ZM144.543 106.68H146.151C146.791 106.68 147.243 106.54 147.507 106.26C147.779 105.98 147.915 105.608 147.915 105.144C147.915 104.656 147.779 104.276 147.507 104.004C147.243 103.732 146.791 103.596 146.151 103.596H144.543V106.68ZM153.325 111.144C152.717 111.144 152.181 111.036 151.717 110.82C151.253 110.596 150.893 110.284 150.637 109.884C150.381 109.484 150.249 109.016 150.241 108.48H151.513C151.513 108.784 151.581 109.064 151.717 109.32C151.861 109.568 152.065 109.768 152.329 109.92C152.601 110.064 152.933 110.136 153.325 110.136C153.661 110.136 153.949 110.08 154.189 109.968C154.437 109.856 154.625 109.704 154.753 109.512C154.881 109.312 154.945 109.084 154.945 108.828C154.945 108.54 154.881 108.304 154.753 108.12C154.625 107.928 154.445 107.768 154.213 107.64C153.989 107.512 153.729 107.4 153.433 107.304C153.145 107.208 152.833 107.104 152.497 106.992C151.817 106.768 151.313 106.484 150.985 106.14C150.665 105.796 150.505 105.348 150.505 104.796C150.505 104.324 150.613 103.916 150.829 103.572C151.053 103.22 151.369 102.948 151.777 102.756C152.185 102.556 152.661 102.456 153.205 102.456C153.757 102.456 154.233 102.556 154.633 102.756C155.041 102.956 155.361 103.232 155.593 103.584C155.825 103.936 155.945 104.348 155.953 104.82H154.681C154.681 104.604 154.621 104.392 154.501 104.184C154.389 103.976 154.221 103.808 153.997 103.68C153.781 103.544 153.509 103.476 153.181 103.476C152.901 103.468 152.653 103.512 152.437 103.608C152.221 103.704 152.053 103.844 151.933 104.028C151.813 104.212 151.753 104.432 151.753 104.688C151.753 104.944 151.809 105.152 151.921 105.312C152.033 105.464 152.189 105.596 152.389 105.708C152.597 105.82 152.841 105.924 153.121 106.02C153.401 106.108 153.709 106.208 154.045 106.32C154.453 106.456 154.821 106.624 155.149 106.824C155.477 107.016 155.733 107.268 155.917 107.58C156.109 107.884 156.205 108.276 156.205 108.756C156.205 109.172 156.097 109.56 155.881 109.92C155.665 110.28 155.345 110.576 154.921 110.808C154.497 111.032 153.965 111.144 153.325 111.144Z" fill="#1E1E1F"/>
<path d="M212.423 101.818H214.267V108.47C214.267 109.199 214.095 109.841 213.75 110.394C213.409 110.948 212.928 111.38 212.308 111.692C211.688 112 210.964 112.154 210.136 112.154C209.304 112.154 208.578 112 207.958 111.692C207.338 111.38 206.858 110.948 206.516 110.394C206.175 109.841 206.004 109.199 206.004 108.47V101.818H207.849V108.316C207.849 108.74 207.942 109.118 208.127 109.45C208.316 109.781 208.581 110.041 208.923 110.23C209.264 110.416 209.668 110.509 210.136 110.509C210.603 110.509 211.007 110.416 211.349 110.23C211.693 110.041 211.959 109.781 212.144 109.45C212.33 109.118 212.423 108.74 212.423 108.316V101.818ZM218.132 107.526V112H216.332V104.364H218.052V105.661H218.142C218.318 105.234 218.598 104.894 218.982 104.642C219.37 104.39 219.849 104.264 220.419 104.264C220.946 104.264 221.405 104.377 221.796 104.602C222.19 104.828 222.495 105.154 222.711 105.582C222.93 106.009 223.037 106.528 223.034 107.138V112H221.234V107.416C221.234 106.906 221.102 106.506 220.837 106.218C220.575 105.93 220.212 105.786 219.748 105.786C219.433 105.786 219.153 105.855 218.908 105.994C218.666 106.13 218.475 106.327 218.336 106.586C218.2 106.844 218.132 107.158 218.132 107.526ZM228.817 104.364V105.756H224.427V104.364H228.817ZM225.511 102.534H227.31V109.703C227.31 109.945 227.347 110.131 227.42 110.26C227.496 110.386 227.595 110.472 227.718 110.518C227.841 110.565 227.977 110.588 228.126 110.588C228.238 110.588 228.341 110.58 228.434 110.563C228.53 110.547 228.603 110.532 228.653 110.518L228.956 111.925C228.86 111.959 228.722 111.995 228.543 112.035C228.368 112.075 228.152 112.098 227.897 112.104C227.446 112.118 227.04 112.05 226.679 111.901C226.318 111.748 226.031 111.513 225.819 111.195C225.61 110.876 225.507 110.479 225.511 110.001V102.534ZM230.462 112V104.364H232.262V112H230.462ZM231.367 103.28C231.082 103.28 230.836 103.185 230.631 102.996C230.425 102.804 230.323 102.574 230.323 102.305C230.323 102.034 230.425 101.803 230.631 101.614C230.836 101.422 231.082 101.326 231.367 101.326C231.655 101.326 231.9 101.422 232.103 101.614C232.308 101.803 232.411 102.034 232.411 102.305C232.411 102.574 232.308 102.804 232.103 102.996C231.9 103.185 231.655 103.28 231.367 103.28ZM236.052 101.818V112H234.252V101.818H236.052ZM250.102 101.818V112H248.461L243.664 105.065H243.579V112H241.735V101.818H243.385L248.178 108.759H248.268V101.818H250.102ZM255.503 112.149C254.758 112.149 254.111 111.985 253.564 111.657C253.017 111.329 252.593 110.87 252.292 110.28C251.993 109.69 251.844 109 251.844 108.212C251.844 107.423 251.993 106.732 252.292 106.138C252.593 105.545 253.017 105.085 253.564 104.756C254.111 104.428 254.758 104.264 255.503 104.264C256.249 104.264 256.895 104.428 257.442 104.756C257.989 105.085 258.412 105.545 258.71 106.138C259.012 106.732 259.162 107.423 259.162 108.212C259.162 109 259.012 109.69 258.71 110.28C258.412 110.87 257.989 111.329 257.442 111.657C256.895 111.985 256.249 112.149 255.503 112.149ZM255.513 110.707C255.918 110.707 256.256 110.596 256.527 110.374C256.799 110.149 257.001 109.847 257.134 109.469C257.27 109.092 257.338 108.671 257.338 108.207C257.338 107.739 257.27 107.317 257.134 106.939C257.001 106.558 256.799 106.254 256.527 106.029C256.256 105.804 255.918 105.691 255.513 105.691C255.099 105.691 254.754 105.804 254.479 106.029C254.207 106.254 254.003 106.558 253.868 106.939C253.735 107.317 253.669 107.739 253.669 108.207C253.669 108.671 253.735 109.092 253.868 109.469C254.003 109.847 254.207 110.149 254.479 110.374C254.754 110.596 255.099 110.707 255.513 110.707ZM267.391 104.364L264.672 112H262.683L259.964 104.364H261.883L263.638 110.036H263.717L265.477 104.364H267.391ZM276.511 101.818V112H274.666V103.613H274.607L272.225 105.134V103.444L274.756 101.818H276.511ZM282.999 112.194C282.181 112.194 281.478 111.987 280.891 111.572C280.308 111.155 279.859 110.553 279.544 109.768C279.233 108.979 279.077 108.029 279.077 106.919C279.08 105.809 279.238 104.864 279.549 104.085C279.864 103.303 280.313 102.706 280.896 102.295C281.483 101.884 282.184 101.679 282.999 101.679C283.815 101.679 284.516 101.884 285.102 102.295C285.689 102.706 286.138 103.303 286.45 104.085C286.764 104.867 286.922 105.812 286.922 106.919C286.922 108.033 286.764 108.984 286.45 109.773C286.138 110.558 285.689 111.158 285.102 111.572C284.519 111.987 283.818 112.194 282.999 112.194ZM282.999 110.638C283.636 110.638 284.138 110.325 284.506 109.698C284.877 109.068 285.063 108.142 285.063 106.919C285.063 106.11 284.978 105.431 284.809 104.881C284.64 104.33 284.401 103.916 284.093 103.638C283.785 103.356 283.42 103.215 282.999 103.215C282.366 103.215 281.866 103.53 281.498 104.16C281.13 104.786 280.944 105.706 280.941 106.919C280.938 107.731 281.019 108.414 281.185 108.967C281.354 109.521 281.592 109.938 281.901 110.22C282.209 110.499 282.575 110.638 282.999 110.638Z" fill="#0B57D0"/>
<rect x="328.5" y="0.5" width="315" height="145" rx="23.5" fill="white"/>
<rect x="328.5" y="0.5" width="315" height="145" rx="23.5" stroke="#EDEDF0"/>
<path d="M361.575 32.1293H360.024C359.964 31.7978 359.853 31.5062 359.691 31.2543C359.529 31.0024 359.33 30.7886 359.094 30.6129C358.859 30.4373 358.596 30.3047 358.304 30.2152C358.016 30.1257 357.709 30.081 357.384 30.081C356.798 30.081 356.272 30.2285 355.808 30.5234C355.348 30.8184 354.983 31.2509 354.714 31.821C354.449 32.3911 354.317 33.0871 354.317 33.9091C354.317 34.7377 354.449 35.437 354.714 36.0071C354.983 36.5772 355.349 37.008 355.813 37.2997C356.277 37.5914 356.799 37.7372 357.379 37.7372C357.701 37.7372 358.006 37.6941 358.294 37.608C358.586 37.5185 358.849 37.3875 359.085 37.2152C359.32 37.0429 359.519 36.8324 359.681 36.5838C359.847 36.3319 359.961 36.0436 360.024 35.7188L361.575 35.7237C361.492 36.2242 361.332 36.6849 361.093 37.1058C360.858 37.5234 360.554 37.8847 360.183 38.1896C359.815 38.4912 359.394 38.7249 358.92 38.8906C358.446 39.0563 357.929 39.1392 357.369 39.1392C356.488 39.1392 355.702 38.9304 355.013 38.5128C354.323 38.0919 353.78 37.4903 353.382 36.7081C352.988 35.9259 352.79 34.9929 352.79 33.9091C352.79 32.822 352.989 31.889 353.387 31.1101C353.785 30.3279 354.328 29.728 355.018 29.3104C355.707 28.8894 356.491 28.679 357.369 28.679C357.91 28.679 358.413 28.7569 358.881 28.9126C359.351 29.0651 359.774 29.2905 360.148 29.5888C360.523 29.8838 360.833 30.245 361.078 30.6726C361.323 31.0968 361.489 31.5824 361.575 32.1293ZM370.101 28.8182H371.642V35.5149C371.642 36.2275 371.475 36.8589 371.14 37.4091C370.805 37.956 370.335 38.3868 369.728 38.7017C369.122 39.0133 368.411 39.169 367.595 39.169C366.783 39.169 366.074 39.0133 365.468 38.7017C364.861 38.3868 364.39 37.956 364.056 37.4091C363.721 36.8589 363.554 36.2275 363.554 35.5149V28.8182H365.09V35.3906C365.09 35.8513 365.191 36.2607 365.393 36.6186C365.599 36.9766 365.889 37.2583 366.263 37.4638C366.638 37.666 367.082 37.767 367.595 37.767C368.112 37.767 368.558 37.666 368.933 37.4638C369.311 37.2583 369.599 36.9766 369.798 36.6186C370 36.2607 370.101 35.8513 370.101 35.3906V28.8182ZM377.861 39V28.8182H379.347V32.6016H379.437C379.523 32.4425 379.647 32.2585 379.81 32.0497C379.972 31.8409 380.198 31.6586 380.486 31.5028C380.774 31.3438 381.155 31.2642 381.629 31.2642C382.246 31.2642 382.796 31.42 383.28 31.7315C383.764 32.0431 384.143 32.4922 384.418 33.0788C384.697 33.6655 384.836 34.3714 384.836 35.1967C384.836 36.022 384.698 36.7296 384.423 37.3196C384.148 37.9062 383.77 38.3587 383.29 38.6768C382.809 38.9917 382.261 39.1491 381.644 39.1491C381.18 39.1491 380.801 39.0713 380.506 38.9155C380.214 38.7597 379.985 38.5774 379.82 38.3686C379.654 38.1598 379.526 37.9742 379.437 37.8118H379.313V39H377.861ZM379.318 35.1818C379.318 35.7187 379.395 36.1894 379.551 36.5938C379.707 36.9981 379.932 37.3146 380.227 37.5433C380.522 37.7687 380.884 37.8814 381.311 37.8814C381.755 37.8814 382.126 37.7637 382.425 37.5284C382.723 37.2898 382.948 36.9666 383.101 36.5589C383.257 36.1513 383.335 35.6922 383.335 35.1818C383.335 34.678 383.258 34.2256 383.106 33.8246C382.957 33.4235 382.731 33.107 382.43 32.875C382.131 32.643 381.759 32.527 381.311 32.527C380.88 32.527 380.516 32.638 380.217 32.8601C379.922 33.0821 379.699 33.392 379.546 33.7898C379.394 34.1875 379.318 34.6515 379.318 35.1818ZM388.868 39.169C388.384 39.169 387.946 39.0795 387.555 38.9006C387.164 38.7183 386.854 38.4548 386.625 38.1101C386.4 37.7654 386.287 37.3428 386.287 36.8423C386.287 36.4115 386.37 36.0568 386.536 35.7784C386.702 35.5 386.925 35.2796 387.207 35.1172C387.489 34.9548 387.804 34.8321 388.152 34.7493C388.5 34.6664 388.854 34.6035 389.216 34.5604C389.673 34.5073 390.044 34.4643 390.329 34.4311C390.614 34.3946 390.821 34.3366 390.951 34.2571C391.08 34.1776 391.145 34.0483 391.145 33.8693V33.8345C391.145 33.4003 391.022 33.0639 390.777 32.8253C390.535 32.5866 390.173 32.4673 389.693 32.4673C389.192 32.4673 388.798 32.5784 388.51 32.8004C388.225 33.0192 388.027 33.2628 387.918 33.5312L386.521 33.2131C386.687 32.7491 386.929 32.3745 387.247 32.0895C387.568 31.8011 387.938 31.5923 388.355 31.4631C388.773 31.3305 389.212 31.2642 389.673 31.2642C389.978 31.2642 390.301 31.3007 390.642 31.3736C390.987 31.4432 391.309 31.5724 391.607 31.7614C391.908 31.9503 392.155 32.2204 392.348 32.5717C392.54 32.9197 392.636 33.3722 392.636 33.929V39H391.184V37.956H391.125C391.029 38.1482 390.884 38.3371 390.692 38.5227C390.5 38.7083 390.253 38.8625 389.951 38.9851C389.65 39.1077 389.288 39.169 388.868 39.169ZM389.191 37.9759C389.602 37.9759 389.953 37.8946 390.245 37.7322C390.54 37.5698 390.763 37.3577 390.916 37.0959C391.072 36.8307 391.149 36.5473 391.149 36.2457V35.2614C391.096 35.3144 390.994 35.3641 390.841 35.4105C390.692 35.4536 390.521 35.4917 390.329 35.5249C390.137 35.5547 389.95 35.5829 389.767 35.6094C389.585 35.6326 389.433 35.6525 389.31 35.669C389.022 35.7055 388.758 35.7668 388.52 35.853C388.284 35.9392 388.095 36.0634 387.953 36.2259C387.814 36.3849 387.744 36.5971 387.744 36.8622C387.744 37.2301 387.88 37.5085 388.152 37.6974C388.423 37.883 388.77 37.9759 389.191 37.9759ZM396.242 28.8182V39H394.756V28.8182H396.242ZM400.605 39.169C400.121 39.169 399.683 39.0795 399.292 38.9006C398.901 38.7183 398.591 38.4548 398.362 38.1101C398.137 37.7654 398.024 37.3428 398.024 36.8423C398.024 36.4115 398.107 36.0568 398.273 35.7784C398.439 35.5 398.662 35.2796 398.944 35.1172C399.226 34.9548 399.541 34.8321 399.889 34.7493C400.237 34.6664 400.591 34.6035 400.953 34.5604C401.41 34.5073 401.781 34.4643 402.066 34.4311C402.351 34.3946 402.558 34.3366 402.688 34.2571C402.817 34.1776 402.882 34.0483 402.882 33.8693V33.8345C402.882 33.4003 402.759 33.0639 402.514 32.8253C402.272 32.5866 401.91 32.4673 401.43 32.4673C400.929 32.4673 400.535 32.5784 400.247 32.8004C399.962 33.0192 399.764 33.2628 399.655 33.5312L398.258 33.2131C398.424 32.7491 398.666 32.3745 398.984 32.0895C399.305 31.8011 399.675 31.5923 400.092 31.4631C400.51 31.3305 400.949 31.2642 401.41 31.2642C401.715 31.2642 402.038 31.3007 402.379 31.3736C402.724 31.4432 403.046 31.5724 403.344 31.7614C403.646 31.9503 403.892 32.2204 404.085 32.5717C404.277 32.9197 404.373 33.3722 404.373 33.929V39H402.921V37.956H402.862C402.766 38.1482 402.621 38.3371 402.429 38.5227C402.237 38.7083 401.99 38.8625 401.688 38.9851C401.387 39.1077 401.025 39.169 400.605 39.169ZM400.928 37.9759C401.339 37.9759 401.69 37.8946 401.982 37.7322C402.277 37.5698 402.5 37.3577 402.653 37.0959C402.809 36.8307 402.887 36.5473 402.887 36.2457V35.2614C402.833 35.3144 402.731 35.3641 402.578 35.4105C402.429 35.4536 402.258 35.4917 402.066 35.5249C401.874 35.5547 401.687 35.5829 401.504 35.6094C401.322 35.6326 401.17 35.6525 401.047 35.669C400.759 35.7055 400.495 35.7668 400.257 35.853C400.021 35.9392 399.832 36.0634 399.69 36.2259C399.551 36.3849 399.481 36.5971 399.481 36.8622C399.481 37.2301 399.617 37.5085 399.889 37.6974C400.16 37.883 400.507 37.9759 400.928 37.9759ZM407.979 34.4659V39H406.493V31.3636H407.92V32.6065H408.014C408.19 32.2022 408.465 31.8774 408.84 31.6321C409.217 31.3868 409.693 31.2642 410.266 31.2642C410.787 31.2642 411.242 31.3736 411.634 31.5923C412.025 31.8078 412.328 32.1293 412.543 32.5568C412.759 32.9844 412.867 33.513 412.867 34.1428V39H411.38V34.3217C411.38 33.7682 411.236 33.3357 410.948 33.0241C410.659 32.7093 410.263 32.5518 409.759 32.5518C409.415 32.5518 409.108 32.6264 408.84 32.7756C408.574 32.9247 408.364 33.1435 408.208 33.4318C408.056 33.7169 407.979 34.0616 407.979 34.4659ZM418.217 39.1541C417.478 39.1541 416.841 38.9867 416.308 38.652C415.777 38.3139 415.37 37.8482 415.085 37.255C414.8 36.6617 414.657 35.9822 414.657 35.2166C414.657 34.4411 414.803 33.7566 415.095 33.1634C415.386 32.5668 415.797 32.1011 416.328 31.7663C416.858 31.4316 417.483 31.2642 418.202 31.2642C418.782 31.2642 419.299 31.3719 419.753 31.5874C420.207 31.7995 420.573 32.0978 420.852 32.4822C421.133 32.8667 421.301 33.3158 421.354 33.8295H419.907C419.828 33.4716 419.645 33.1634 419.36 32.9048C419.079 32.6463 418.701 32.517 418.227 32.517C417.812 32.517 417.449 32.6264 417.138 32.8452C416.83 33.0606 416.589 33.3688 416.417 33.7699C416.245 34.1676 416.159 34.6383 416.159 35.1818C416.159 35.7386 416.243 36.2192 416.412 36.6236C416.581 37.0279 416.82 37.3411 417.128 37.5632C417.44 37.7853 417.806 37.8963 418.227 37.8963C418.508 37.8963 418.764 37.8449 418.992 37.7422C419.224 37.6361 419.418 37.4853 419.574 37.2898C419.733 37.0942 419.844 36.8589 419.907 36.5838H421.354C421.301 37.0777 421.14 37.5185 420.872 37.9062C420.603 38.294 420.244 38.599 419.793 38.821C419.345 39.0431 418.82 39.1541 418.217 39.1541ZM426.375 39.1541C425.622 39.1541 424.974 38.9934 424.431 38.6719C423.891 38.3471 423.473 37.8913 423.178 37.3047C422.886 36.7147 422.74 36.0237 422.74 35.2315C422.74 34.4493 422.886 33.7599 423.178 33.1634C423.473 32.5668 423.884 32.1011 424.411 31.7663C424.941 31.4316 425.561 31.2642 426.27 31.2642C426.701 31.2642 427.119 31.3355 427.523 31.478C427.927 31.6205 428.29 31.8442 428.612 32.1491C428.933 32.4541 429.187 32.8501 429.373 33.3374C429.558 33.8213 429.651 34.4096 429.651 35.1023V35.6293H423.581V34.5156H428.194C428.194 34.1245 428.115 33.7782 427.956 33.4766C427.797 33.1716 427.573 32.9313 427.285 32.7557C426.999 32.58 426.665 32.4922 426.28 32.4922C425.863 32.4922 425.498 32.5949 425.186 32.8004C424.878 33.0026 424.64 33.2678 424.471 33.5959C424.305 33.9207 424.222 34.2737 424.222 34.6548V35.5249C424.222 36.0353 424.311 36.4695 424.49 36.8274C424.673 37.1854 424.926 37.4588 425.251 37.6477C425.576 37.8333 425.955 37.9261 426.39 37.9261C426.671 37.9261 426.928 37.8864 427.16 37.8068C427.392 37.724 427.593 37.6013 427.762 37.4389C427.931 37.2765 428.06 37.076 428.15 36.8374L429.557 37.0909C429.444 37.5052 429.242 37.8681 428.95 38.1797C428.662 38.4879 428.299 38.7282 427.861 38.9006C427.427 39.0696 426.932 39.1541 426.375 39.1541Z" fill="#AEAEB2"/>
<path d="M360.651 51.5455V69H357.489V54.6222H357.386L353.304 57.2301V54.3324L357.642 51.5455H360.651ZM372.182 51.5455V69H369.02V54.6222H368.918L364.835 57.2301V54.3324L369.173 51.5455H372.182ZM382.682 69.2386C381.545 69.2386 380.528 69.0256 379.631 68.5994C378.733 68.1676 378.02 67.5767 377.491 66.8267C376.969 66.0767 376.69 65.2187 376.656 64.2528H379.724C379.781 64.9687 380.091 65.554 380.653 66.0085C381.216 66.4574 381.892 66.6818 382.682 66.6818C383.301 66.6818 383.852 66.5398 384.335 66.2557C384.818 65.9716 385.199 65.5767 385.477 65.071C385.756 64.5653 385.892 63.9886 385.886 63.3409C385.892 62.6818 385.753 62.0966 385.469 61.5852C385.185 61.0739 384.795 60.6733 384.301 60.3835C383.807 60.0881 383.239 59.9403 382.597 59.9403C382.074 59.9347 381.56 60.0312 381.054 60.2301C380.548 60.429 380.148 60.6903 379.852 61.0142L376.997 60.5455L377.909 51.5455H388.034V54.1875H380.526L380.023 58.8153H380.125C380.449 58.4347 380.906 58.1193 381.497 57.8693C382.088 57.6136 382.736 57.4858 383.44 57.4858C384.497 57.4858 385.44 57.7358 386.27 58.2358C387.099 58.7301 387.753 59.4119 388.23 60.2812C388.707 61.1506 388.946 62.1449 388.946 63.2642C388.946 64.4176 388.679 65.446 388.145 66.3494C387.616 67.2472 386.881 67.9545 385.938 68.4716C385 68.983 383.915 69.2386 382.682 69.2386ZM397.439 65.7614V63.2472L404.845 51.5455H406.942V55.125H405.663L400.678 63.0256V63.1619H411.016V65.7614H397.439ZM405.766 69V64.9943L405.8 63.8693V51.5455H408.783V69H405.766ZM419.807 69.2386C418.67 69.2386 417.653 69.0256 416.756 68.5994C415.858 68.1676 415.145 67.5767 414.616 66.8267C414.094 66.0767 413.815 65.2187 413.781 64.2528H416.849C416.906 64.9687 417.216 65.554 417.778 66.0085C418.341 66.4574 419.017 66.6818 419.807 66.6818C420.426 66.6818 420.977 66.5398 421.46 66.2557C421.943 65.9716 422.324 65.5767 422.602 65.071C422.881 64.5653 423.017 63.9886 423.011 63.3409C423.017 62.6818 422.878 62.0966 422.594 61.5852C422.31 61.0739 421.92 60.6733 421.426 60.3835C420.932 60.0881 420.364 59.9403 419.722 59.9403C419.199 59.9347 418.685 60.0312 418.179 60.2301C417.673 60.429 417.273 60.6903 416.977 61.0142L414.122 60.5455L415.034 51.5455H425.159V54.1875H417.651L417.148 58.8153H417.25C417.574 58.4347 418.031 58.1193 418.622 57.8693C419.213 57.6136 419.861 57.4858 420.565 57.4858C421.622 57.4858 422.565 57.7358 423.395 58.2358C424.224 58.7301 424.878 59.4119 425.355 60.2812C425.832 61.1506 426.071 62.1449 426.071 63.2642C426.071 64.4176 425.804 65.446 425.27 66.3494C424.741 67.2472 424.006 67.9545 423.062 68.4716C422.125 68.983 421.04 69.2386 419.807 69.2386ZM429.565 69L436.989 54.3068V54.1875H428.372V51.5455H440.261V54.2472L432.847 69H429.565ZM448.965 69V66.7159L455.025 60.7756C455.604 60.1903 456.087 59.6705 456.474 59.2159C456.86 58.7614 457.15 58.321 457.343 57.8949C457.536 57.4687 457.633 57.0142 457.633 56.5312C457.633 55.9801 457.508 55.5085 457.258 55.1165C457.008 54.7188 456.664 54.4119 456.227 54.196C455.789 53.9801 455.292 53.8722 454.735 53.8722C454.161 53.8722 453.658 53.9915 453.227 54.2301C452.795 54.4631 452.46 54.7955 452.221 55.2273C451.988 55.6591 451.871 56.1733 451.871 56.7699H448.863C448.863 55.6619 449.116 54.6989 449.621 53.8807C450.127 53.0625 450.823 52.429 451.71 51.9801C452.602 51.5312 453.624 51.3068 454.778 51.3068C455.948 51.3068 456.977 51.5256 457.863 51.9631C458.749 52.4006 459.437 53 459.925 53.7614C460.42 54.5227 460.667 55.392 460.667 56.3693C460.667 57.0227 460.542 57.6648 460.292 58.2955C460.042 58.9261 459.602 59.625 458.971 60.392C458.346 61.1591 457.468 62.0881 456.337 63.179L453.329 66.2386V66.358H460.931V69H448.965ZM470.076 69.2386C468.809 69.2386 467.684 69.0256 466.701 68.5994C465.724 68.1733 464.957 67.5909 464.4 66.8523C463.849 66.108 463.576 65.2642 463.582 64.321C463.576 63.5881 463.735 62.9148 464.059 62.3011C464.383 61.6875 464.82 61.1761 465.371 60.767C465.928 60.3523 466.548 60.0881 467.229 59.9744V59.8551C466.332 59.6562 465.604 59.1989 465.048 58.483C464.496 57.7614 464.224 56.929 464.229 55.9858C464.224 55.0881 464.474 54.2869 464.979 53.5824C465.485 52.8778 466.178 52.3239 467.059 51.9205C467.94 51.5114 468.945 51.3068 470.076 51.3068C471.195 51.3068 472.192 51.5114 473.067 51.9205C473.948 52.3239 474.641 52.8778 475.147 53.5824C475.658 54.2869 475.914 55.0881 475.914 55.9858C475.914 56.929 475.633 57.7614 475.07 58.483C474.513 59.1989 473.795 59.6562 472.914 59.8551V59.9744C473.596 60.0881 474.21 60.3523 474.755 60.767C475.306 61.1761 475.744 61.6875 476.067 62.3011C476.397 62.9148 476.562 63.5881 476.562 64.321C476.562 65.2642 476.283 66.108 475.727 66.8523C475.17 67.5909 474.403 68.1733 473.425 68.5994C472.454 69.0256 471.337 69.2386 470.076 69.2386ZM470.076 66.8011C470.729 66.8011 471.298 66.6903 471.781 66.4688C472.263 66.2415 472.638 65.9233 472.906 65.5142C473.173 65.1051 473.309 64.6335 473.315 64.0994C473.309 63.5426 473.164 63.0511 472.88 62.625C472.602 62.1932 472.218 61.8551 471.729 61.6108C471.246 61.3665 470.695 61.2443 470.076 61.2443C469.451 61.2443 468.894 61.3665 468.406 61.6108C467.917 61.8551 467.531 62.1932 467.246 62.625C466.968 63.0511 466.832 63.5426 466.837 64.0994C466.832 64.6335 466.962 65.1051 467.229 65.5142C467.496 65.9176 467.871 66.233 468.354 66.4602C468.843 66.6875 469.417 66.8011 470.076 66.8011ZM470.076 58.8494C470.61 58.8494 471.082 58.7415 471.491 58.5256C471.906 58.3097 472.232 58.0085 472.471 57.6222C472.71 57.2358 472.832 56.7898 472.837 56.2841C472.832 55.7841 472.712 55.3466 472.479 54.9716C472.246 54.5909 471.923 54.2983 471.508 54.0938C471.093 53.8835 470.616 53.7784 470.076 53.7784C469.525 53.7784 469.039 53.8835 468.619 54.0938C468.204 54.2983 467.88 54.5909 467.647 54.9716C467.42 55.3466 467.309 55.7841 467.315 56.2841C467.309 56.7898 467.423 57.2358 467.656 57.6222C467.894 58.0028 468.221 58.304 468.636 58.5256C469.056 58.7415 469.536 58.8494 470.076 58.8494ZM485.423 51.3068C486.259 51.3125 487.071 51.4602 487.861 51.75C488.656 52.0341 489.372 52.5 490.009 53.1477C490.645 53.7898 491.151 54.6506 491.526 55.7301C491.901 56.8097 492.088 58.1449 492.088 59.7358C492.094 61.2358 491.935 62.5767 491.611 63.7585C491.293 64.9347 490.835 65.929 490.239 66.7415C489.642 67.554 488.923 68.1733 488.082 68.5994C487.241 69.0256 486.295 69.2386 485.244 69.2386C484.142 69.2386 483.165 69.0227 482.312 68.5909C481.466 68.1591 480.781 67.5682 480.259 66.8182C479.736 66.0682 479.415 65.2102 479.295 64.2443H482.406C482.565 64.9375 482.889 65.4886 483.378 65.8977C483.872 66.3011 484.494 66.5028 485.244 66.5028C486.455 66.5028 487.386 65.9773 488.04 64.9261C488.693 63.875 489.02 62.4148 489.02 60.5455H488.901C488.622 61.0455 488.261 61.4773 487.818 61.8409C487.375 62.1989 486.872 62.4744 486.31 62.6676C485.753 62.8608 485.162 62.9574 484.537 62.9574C483.514 62.9574 482.594 62.7131 481.776 62.2244C480.963 61.7358 480.318 61.0653 479.841 60.2131C479.369 59.3608 479.131 58.3864 479.125 57.2898C479.125 56.1534 479.386 55.1335 479.909 54.2301C480.438 53.321 481.173 52.6051 482.116 52.0824C483.06 51.554 484.162 51.2955 485.423 51.3068ZM485.432 53.8636C484.818 53.8636 484.264 54.0142 483.77 54.3153C483.281 54.6108 482.895 55.0142 482.611 55.5256C482.332 56.0312 482.193 56.5966 482.193 57.2216C482.199 57.8409 482.338 58.4034 482.611 58.9091C482.889 59.4148 483.267 59.8153 483.744 60.1108C484.227 60.4062 484.778 60.554 485.398 60.554C485.858 60.554 486.287 60.4659 486.685 60.2898C487.082 60.1136 487.429 59.8693 487.724 59.5568C488.026 59.2386 488.259 58.8778 488.423 58.4744C488.594 58.071 488.676 57.6449 488.67 57.196C488.67 56.5994 488.528 56.0483 488.244 55.5426C487.966 55.0369 487.582 54.6307 487.094 54.3239C486.611 54.017 486.057 53.8636 485.432 53.8636Z" fill="#1E1E1F"/>
<rect x="550" y="24" width="70" height="36" rx="12" fill="#EBF3FF"/>
<path d="M565.304 47V38.348H562.406V37.2H569.616V38.348H566.704V47H565.304ZM572.926 47.168C572.263 47.168 571.666 47.014 571.134 46.706C570.611 46.398 570.196 45.9687 569.888 45.418C569.589 44.858 569.44 44.214 569.44 43.486C569.44 42.7393 569.594 42.0907 569.902 41.54C570.21 40.98 570.63 40.546 571.162 40.238C571.694 39.93 572.291 39.776 572.954 39.776C573.626 39.776 574.223 39.93 574.746 40.238C575.269 40.546 575.679 40.9753 575.978 41.526C576.286 42.0767 576.44 42.7253 576.44 43.472C576.44 44.2187 576.286 44.8673 575.978 45.418C575.679 45.9687 575.264 46.398 574.732 46.706C574.2 47.014 573.598 47.168 572.926 47.168ZM572.926 45.964C573.309 45.964 573.654 45.8707 573.962 45.684C574.279 45.4973 574.531 45.222 574.718 44.858C574.914 44.4847 575.012 44.0227 575.012 43.472C575.012 42.9213 574.919 42.464 574.732 42.1C574.545 41.7267 574.293 41.4467 573.976 41.26C573.668 41.0733 573.327 40.98 572.954 40.98C572.581 40.98 572.235 41.0733 571.918 41.26C571.601 41.4467 571.344 41.7267 571.148 42.1C570.961 42.464 570.868 42.9213 570.868 43.472C570.868 44.0227 570.961 44.4847 571.148 44.858C571.344 45.222 571.596 45.4973 571.904 45.684C572.221 45.8707 572.562 45.964 572.926 45.964ZM578.087 50.08V39.944H579.347L579.487 41.036C579.636 40.8213 579.823 40.6207 580.047 40.434C580.271 40.238 580.537 40.0793 580.845 39.958C581.162 39.8367 581.531 39.776 581.951 39.776C582.623 39.776 583.211 39.9393 583.715 40.266C584.228 40.5927 584.625 41.036 584.905 41.596C585.194 42.1467 585.339 42.7767 585.339 43.486C585.339 44.1953 585.194 44.83 584.905 45.39C584.615 45.9407 584.214 46.3747 583.701 46.692C583.197 47.0093 582.609 47.168 581.937 47.168C581.386 47.168 580.901 47.0607 580.481 46.846C580.061 46.622 579.729 46.314 579.487 45.922V50.08H578.087ZM581.713 45.95C582.142 45.95 582.52 45.8473 582.847 45.642C583.183 45.4367 583.444 45.1473 583.631 44.774C583.827 44.4007 583.925 43.9667 583.925 43.472C583.925 42.9773 583.827 42.548 583.631 42.184C583.444 41.8107 583.183 41.5213 582.847 41.316C582.52 41.1013 582.142 40.994 581.713 40.994C581.274 40.994 580.887 41.1013 580.551 41.316C580.224 41.5213 579.967 41.8107 579.781 42.184C579.594 42.548 579.501 42.9773 579.501 43.472C579.501 43.9667 579.594 44.4007 579.781 44.774C579.967 45.1473 580.224 45.4367 580.551 45.642C580.887 45.8473 581.274 45.95 581.713 45.95ZM594.238 47.168C593.547 47.168 592.922 47.0327 592.362 46.762C591.802 46.482 591.354 46.062 591.018 45.502C590.691 44.9327 590.528 44.2093 590.528 43.332V37.2H591.928V43.346C591.928 43.934 592.026 44.4193 592.222 44.802C592.418 45.1753 592.688 45.4553 593.034 45.642C593.388 45.8193 593.799 45.908 594.266 45.908C594.742 45.908 595.152 45.8193 595.498 45.642C595.843 45.4553 596.109 45.1753 596.296 44.802C596.492 44.4193 596.59 43.934 596.59 43.346V37.2H597.99V43.332C597.99 44.2093 597.822 44.9327 597.486 45.502C597.15 46.062 596.697 46.482 596.128 46.762C595.558 47.0327 594.928 47.168 594.238 47.168ZM599.866 50.08V39.944H601.126L601.266 41.036C601.415 40.8213 601.602 40.6207 601.826 40.434C602.05 40.238 602.316 40.0793 602.624 39.958C602.941 39.8367 603.31 39.776 603.73 39.776C604.402 39.776 604.99 39.9393 605.494 40.266C606.007 40.5927 606.404 41.036 606.684 41.596C606.973 42.1467 607.118 42.7767 607.118 43.486C607.118 44.1953 606.973 44.83 606.684 45.39C606.395 45.9407 605.993 46.3747 605.48 46.692C604.976 47.0093 604.388 47.168 603.716 47.168C603.165 47.168 602.68 47.0607 602.26 46.846C601.84 46.622 601.509 46.314 601.266 45.922V50.08H599.866ZM603.492 45.95C603.921 45.95 604.299 45.8473 604.626 45.642C604.962 45.4367 605.223 45.1473 605.41 44.774C605.606 44.4007 605.704 43.9667 605.704 43.472C605.704 42.9773 605.606 42.548 605.41 42.184C605.223 41.8107 604.962 41.5213 604.626 41.316C604.299 41.1013 603.921 40.994 603.492 40.994C603.053 40.994 602.666 41.1013 602.33 41.316C602.003 41.5213 601.747 41.8107 601.56 42.184C601.373 42.548 601.28 42.9773 601.28 43.472C601.28 43.9667 601.373 44.4007 601.56 44.774C601.747 45.1473 602.003 45.4367 602.33 45.642C602.666 45.8473 603.053 45.95 603.492 45.95Z" fill="#0B57D0"/>
<path d="M355.878 105.145C355.205 105.142 354.629 104.964 354.152 104.612C353.675 104.26 353.31 103.747 353.057 103.074C352.804 102.401 352.678 101.589 352.678 100.641C352.678 99.6946 352.804 98.8864 353.057 98.2159C353.313 97.5455 353.679 97.0341 354.156 96.6818C354.636 96.3295 355.21 96.1534 355.878 96.1534C356.545 96.1534 357.118 96.331 357.595 96.6861C358.072 97.0384 358.438 97.5497 358.69 98.2202C358.946 98.8878 359.074 99.6946 359.074 100.641C359.074 101.592 358.947 102.405 358.695 103.078C358.442 103.749 358.077 104.261 357.599 104.616C357.122 104.969 356.548 105.145 355.878 105.145ZM355.878 104.007C356.469 104.007 356.93 103.719 357.263 103.142C357.598 102.565 357.766 101.732 357.766 100.641C357.766 99.9162 357.689 99.304 357.536 98.804C357.385 98.3011 357.168 97.9205 356.884 97.6619C356.602 97.4006 356.267 97.2699 355.878 97.2699C355.29 97.2699 354.828 97.5597 354.493 98.1392C354.158 98.7187 353.989 99.5526 353.986 100.641C353.986 101.368 354.061 101.983 354.212 102.486C354.365 102.986 354.582 103.365 354.864 103.624C355.145 103.879 355.483 104.007 355.878 104.007Z" fill="#2772F5"/>
<path d="M499.839 105V104.045L502.793 100.986C503.108 100.653 503.368 100.362 503.572 100.112C503.78 99.8594 503.935 99.6193 504.037 99.392C504.139 99.1648 504.19 98.9233 504.19 98.6676C504.19 98.3778 504.122 98.1278 503.986 97.9176C503.849 97.7045 503.663 97.5412 503.428 97.4276C503.192 97.3111 502.926 97.2528 502.631 97.2528C502.318 97.2528 502.045 97.3168 501.812 97.4446C501.58 97.5724 501.401 97.7528 501.276 97.9858C501.151 98.2187 501.088 98.4915 501.088 98.804H499.831C499.831 98.2727 499.953 97.8082 500.197 97.4105C500.442 97.0128 500.777 96.7045 501.203 96.4858C501.629 96.2642 502.114 96.1534 502.656 96.1534C503.205 96.1534 503.688 96.2628 504.105 96.4815C504.526 96.6974 504.854 96.9929 505.089 97.3679C505.325 97.7401 505.443 98.1605 505.443 98.6293C505.443 98.9531 505.382 99.2699 505.26 99.5795C505.141 99.8892 504.932 100.234 504.634 100.615C504.335 100.993 503.92 101.452 503.389 101.991L501.655 103.807V103.871H505.584V105H499.839ZM507.319 105V104.045L510.272 100.986C510.587 100.653 510.847 100.362 511.052 100.112C511.259 99.8594 511.414 99.6193 511.516 99.392C511.619 99.1648 511.67 98.9233 511.67 98.6676C511.67 98.3778 511.602 98.1278 511.465 97.9176C511.329 97.7045 511.143 97.5412 510.907 97.4276C510.671 97.3111 510.406 97.2528 510.11 97.2528C509.798 97.2528 509.525 97.3168 509.292 97.4446C509.059 97.5724 508.88 97.7528 508.755 97.9858C508.63 98.2187 508.567 98.4915 508.567 98.804H507.31C507.31 98.2727 507.432 97.8082 507.677 97.4105C507.921 97.0128 508.256 96.7045 508.682 96.4858C509.109 96.2642 509.593 96.1534 510.136 96.1534C510.684 96.1534 511.167 96.2628 511.584 96.4815C512.005 96.6974 512.333 96.9929 512.569 97.3679C512.805 97.7401 512.923 98.1605 512.923 98.6293C512.923 98.9531 512.861 99.2699 512.739 99.5795C512.62 99.8892 512.411 100.234 512.113 100.615C511.815 100.993 511.4 101.452 510.869 101.991L509.134 103.807V103.871H513.063V105H507.319ZM517.837 105.145C517.163 105.142 516.588 104.964 516.111 104.612C515.633 104.26 515.268 103.747 515.016 103.074C514.763 102.401 514.636 101.589 514.636 100.641C514.636 99.6946 514.763 98.8864 515.016 98.2159C515.271 97.5455 515.638 97.0341 516.115 96.6818C516.595 96.3295 517.169 96.1534 517.837 96.1534C518.504 96.1534 519.077 96.331 519.554 96.6861C520.031 97.0384 520.396 97.5497 520.649 98.2202C520.905 98.8878 521.033 99.6946 521.033 100.641C521.033 101.592 520.906 102.405 520.653 103.078C520.401 103.749 520.035 104.261 519.558 104.616C519.081 104.969 518.507 105.145 517.837 105.145ZM517.837 104.007C518.427 104.007 518.889 103.719 519.222 103.142C519.557 102.565 519.724 101.732 519.724 100.641C519.724 99.9162 519.648 99.304 519.494 98.804C519.344 98.3011 519.126 97.9205 518.842 97.6619C518.561 97.4006 518.226 97.2699 517.837 97.2699C517.249 97.2699 516.787 97.5597 516.452 98.1392C516.116 98.7187 515.947 99.5526 515.945 100.641C515.945 101.368 516.02 101.983 516.17 102.486C516.324 102.986 516.541 103.365 516.822 103.624C517.104 103.879 517.442 104.007 517.837 104.007ZM522.784 96.2727H524.382L527.16 103.057H527.262L530.041 96.2727H531.639V105H530.386V98.6847H530.305L527.731 104.987H526.691L524.117 98.6804H524.036V105H522.784V96.2727Z" fill="#85B4FF"/>
<rect x="352" y="114" width="181" height="8" rx="4" fill="#D6E6FF"/>
<rect x="352" y="114" width="114.531" height="8" rx="4" fill="#2772F5"/>
<path d="M566.045 112.744C565.813 114.919 564.581 116.957 562.542 118.134C559.154 120.09 554.822 118.929 552.866 115.541L552.657 115.18M551.955 111.256C552.187 109.081 553.419 107.043 555.458 105.865C558.846 103.909 563.178 105.07 565.134 108.458L565.343 108.819M551.911 117.055L552.521 114.778L554.798 115.388M563.202 108.611L565.479 109.221L566.089 106.945M559 108.25V112L561.083 113.25" stroke="#2772F5" stroke-width="1.6" stroke-linecap="round" stroke-linejoin="round"/>
<path d="M582.371 106.818V117H580.731L575.933 110.065H575.849V117H574.004V106.818H575.655L580.447 113.759H580.537V106.818H582.371ZM587.773 117.149C587.027 117.149 586.381 116.985 585.834 116.657C585.287 116.329 584.863 115.87 584.561 115.28C584.263 114.69 584.114 114 584.114 113.212C584.114 112.423 584.263 111.732 584.561 111.138C584.863 110.545 585.287 110.085 585.834 109.756C586.381 109.428 587.027 109.264 587.773 109.264C588.518 109.264 589.165 109.428 589.712 109.756C590.258 110.085 590.681 110.545 590.979 111.138C591.281 111.732 591.432 112.423 591.432 113.212C591.432 114 591.281 114.69 590.979 115.28C590.681 115.87 590.258 116.329 589.712 116.657C589.165 116.985 588.518 117.149 587.773 117.149ZM587.783 115.707C588.187 115.707 588.525 115.596 588.797 115.374C589.069 115.149 589.271 114.847 589.403 114.469C589.539 114.092 589.607 113.671 589.607 113.207C589.607 112.739 589.539 112.317 589.403 111.939C589.271 111.558 589.069 111.254 588.797 111.029C588.525 110.804 588.187 110.691 587.783 110.691C587.368 110.691 587.024 110.804 586.748 111.029C586.477 111.254 586.273 111.558 586.137 111.939C586.004 112.317 585.938 112.739 585.938 113.207C585.938 113.671 586.004 114.092 586.137 114.469C586.273 114.847 586.477 115.149 586.748 115.374C587.024 115.596 587.368 115.707 587.783 115.707ZM599.661 109.364L596.941 117H594.952L592.233 109.364H594.152L595.907 115.036H595.986L597.746 109.364H599.661ZM608.78 106.818V117H606.936V108.613H606.876L604.494 110.134V108.444L607.025 106.818H608.78ZM615.269 117.194C614.45 117.194 613.747 116.987 613.161 116.572C612.577 116.155 612.128 115.553 611.813 114.768C611.502 113.979 611.346 113.029 611.346 111.919C611.349 110.809 611.507 109.864 611.818 109.085C612.133 108.303 612.582 107.706 613.166 107.295C613.752 106.884 614.453 106.679 615.269 106.679C616.084 106.679 616.785 106.884 617.372 107.295C617.958 107.706 618.407 108.303 618.719 109.085C619.034 109.867 619.191 110.812 619.191 111.919C619.191 113.033 619.034 113.984 618.719 114.773C618.407 115.558 617.958 116.158 617.372 116.572C616.788 116.987 616.087 117.194 615.269 117.194ZM615.269 115.638C615.905 115.638 616.407 115.325 616.775 114.698C617.146 114.068 617.332 113.142 617.332 111.919C617.332 111.11 617.247 110.431 617.078 109.881C616.909 109.33 616.671 108.916 616.362 108.638C616.054 108.356 615.69 108.215 615.269 108.215C614.636 108.215 614.135 108.53 613.767 109.16C613.399 109.786 613.214 110.706 613.21 111.919C613.207 112.731 613.288 113.414 613.454 113.967C613.623 114.521 613.862 114.938 614.17 115.22C614.478 115.499 614.844 115.638 615.269 115.638Z" fill="#0B57D0"/>
<rect x="660.5" y="0.5" width="311" height="145" rx="23.5" fill="white"/>
<rect x="660.5" y="0.5" width="311" height="145" rx="23.5" stroke="#EDEDF0"/>
<path d="M685.119 39V28.8182H688.748C689.537 28.8182 690.191 28.9541 690.712 29.2259C691.235 29.4976 691.626 29.8738 691.885 30.3544C692.143 30.8317 692.273 31.3835 692.273 32.0099C692.273 32.633 692.142 33.1816 691.88 33.6555C691.621 34.1262 691.23 34.4924 690.707 34.7543C690.186 35.0161 689.532 35.147 688.743 35.147H685.994V33.8246H688.604C689.101 33.8246 689.505 33.7533 689.817 33.6108C690.132 33.4683 690.362 33.2611 690.508 32.9893C690.654 32.7176 690.727 32.3911 690.727 32.0099C690.727 31.6255 690.652 31.2924 690.503 31.0107C690.357 30.7289 690.127 30.5135 689.812 30.3643C689.5 30.2119 689.091 30.1357 688.584 30.1357H686.655V39H685.119ZM690.145 34.4062L692.661 39H690.911L688.445 34.4062H690.145ZM696.385 39.169C695.901 39.169 695.464 39.0795 695.073 38.9006C694.681 38.7183 694.372 38.4548 694.143 38.1101C693.917 37.7654 693.805 37.3428 693.805 36.8423C693.805 36.4115 693.888 36.0568 694.053 35.7784C694.219 35.5 694.443 35.2796 694.725 35.1172C695.006 34.9548 695.321 34.8321 695.669 34.7493C696.017 34.6664 696.372 34.6035 696.733 34.5604C697.19 34.5073 697.562 34.4643 697.847 34.4311C698.132 34.3946 698.339 34.3366 698.468 34.2571C698.597 34.1776 698.662 34.0483 698.662 33.8693V33.8345C698.662 33.4003 698.539 33.0639 698.294 32.8253C698.052 32.5866 697.691 32.4673 697.21 32.4673C696.71 32.4673 696.315 32.5784 696.027 32.8004C695.742 33.0192 695.545 33.2628 695.435 33.5312L694.038 33.2131C694.204 32.7491 694.446 32.3745 694.764 32.0895C695.086 31.8011 695.455 31.5923 695.873 31.4631C696.291 31.3305 696.73 31.2642 697.19 31.2642C697.495 31.2642 697.819 31.3007 698.16 31.3736C698.505 31.4432 698.826 31.5724 699.124 31.7614C699.426 31.9503 699.673 32.2204 699.865 32.5717C700.057 32.9197 700.153 33.3722 700.153 33.929V39H698.702V37.956H698.642C698.546 38.1482 698.402 38.3371 698.21 38.5227C698.017 38.7083 697.77 38.8625 697.469 38.9851C697.167 39.1077 696.806 39.169 696.385 39.169ZM696.708 37.9759C697.119 37.9759 697.47 37.8946 697.762 37.7322C698.057 37.5698 698.281 37.3577 698.433 37.0959C698.589 36.8307 698.667 36.5473 698.667 36.2457V35.2614C698.614 35.3144 698.511 35.3641 698.359 35.4105C698.21 35.4536 698.039 35.4917 697.847 35.5249C697.654 35.5547 697.467 35.5829 697.285 35.6094C697.103 35.6326 696.95 35.6525 696.828 35.669C696.539 35.7055 696.276 35.7668 696.037 35.853C695.802 35.9392 695.613 36.0634 695.47 36.2259C695.331 36.3849 695.261 36.5971 695.261 36.8622C695.261 37.2301 695.397 37.5085 695.669 37.6974C695.941 37.883 696.287 37.9759 696.708 37.9759ZM705.838 31.3636V32.5568H701.667V31.3636H705.838ZM702.786 29.5341H704.272V36.7578C704.272 37.0462 704.315 37.2633 704.401 37.4091C704.487 37.5516 704.598 37.6494 704.734 37.7024C704.874 37.7521 705.024 37.777 705.187 37.777C705.306 37.777 705.411 37.7687 705.5 37.7521C705.589 37.7356 705.659 37.7223 705.709 37.7124L705.977 38.9403C705.891 38.9735 705.768 39.0066 705.609 39.0398C705.45 39.0762 705.251 39.0961 705.013 39.0994C704.622 39.1061 704.257 39.0365 703.919 38.8906C703.581 38.7448 703.308 38.5194 703.099 38.2145C702.89 37.9096 702.786 37.5268 702.786 37.0661V29.5341ZM710.832 39.1541C710.079 39.1541 709.431 38.9934 708.888 38.6719C708.347 38.3471 707.93 37.8913 707.635 37.3047C707.343 36.7147 707.197 36.0237 707.197 35.2315C707.197 34.4493 707.343 33.7599 707.635 33.1634C707.93 32.5668 708.341 32.1011 708.868 31.7663C709.398 31.4316 710.018 31.2642 710.727 31.2642C711.158 31.2642 711.576 31.3355 711.98 31.478C712.384 31.6205 712.747 31.8442 713.069 32.1491C713.39 32.4541 713.644 32.8501 713.829 33.3374C714.015 33.8213 714.108 34.4096 714.108 35.1023V35.6293H708.038V34.5156H712.651C712.651 34.1245 712.572 33.7782 712.413 33.4766C712.253 33.1716 712.03 32.9313 711.741 32.7557C711.456 32.58 711.122 32.4922 710.737 32.4922C710.32 32.4922 709.955 32.5949 709.643 32.8004C709.335 33.0026 709.096 33.2678 708.927 33.5959C708.762 33.9207 708.679 34.2737 708.679 34.6548V35.5249C708.679 36.0353 708.768 36.4695 708.947 36.8274C709.13 37.1854 709.383 37.4588 709.708 37.6477C710.033 37.8333 710.412 37.9261 710.846 37.9261C711.128 37.9261 711.385 37.8864 711.617 37.8068C711.849 37.724 712.05 37.6013 712.219 37.4389C712.388 37.2765 712.517 37.076 712.606 36.8374L714.013 37.0909C713.901 37.5052 713.699 37.8681 713.407 38.1797C713.119 38.4879 712.756 38.7282 712.318 38.9006C711.884 39.0696 711.388 39.1541 710.832 39.1541ZM721.229 28.8182V39H719.742V28.8182H721.229ZM723.369 39V31.3636H724.855V39H723.369ZM724.119 30.1854C723.861 30.1854 723.639 30.0992 723.453 29.9268C723.271 29.7512 723.18 29.5424 723.18 29.3004C723.18 29.0552 723.271 28.8464 723.453 28.674C723.639 28.4983 723.861 28.4105 724.119 28.4105C724.378 28.4105 724.598 28.4983 724.781 28.674C724.966 28.8464 725.059 29.0552 725.059 29.3004C725.059 29.5424 724.966 29.7512 724.781 29.9268C724.598 30.0992 724.378 30.1854 724.119 30.1854ZM726.995 39V31.3636H728.422V32.6065H728.516C728.675 32.1856 728.935 31.8575 729.297 31.6222C729.658 31.3835 730.091 31.2642 730.594 31.2642C731.105 31.2642 731.532 31.3835 731.877 31.6222C732.225 31.8608 732.482 32.1889 732.648 32.6065H732.727C732.909 32.1989 733.199 31.8741 733.597 31.6321C733.995 31.3868 734.469 31.2642 735.019 31.2642C735.712 31.2642 736.277 31.4813 736.714 31.9155C737.155 32.3497 737.376 33.0043 737.376 33.8793V39H735.889V34.0185C735.889 33.5014 735.748 33.1269 735.467 32.8949C735.185 32.6629 734.848 32.5469 734.457 32.5469C733.973 32.5469 733.597 32.696 733.329 32.9943C733.06 33.2893 732.926 33.6688 732.926 34.1328V39H731.444V33.924C731.444 33.5097 731.315 33.1766 731.057 32.9247C730.798 32.6728 730.462 32.5469 730.047 32.5469C729.766 32.5469 729.506 32.6214 729.267 32.7706C729.032 32.9164 728.841 33.1203 728.695 33.3821C728.553 33.6439 728.481 33.9472 728.481 34.2919V39H726.995ZM739.508 39V31.3636H740.994V39H739.508ZM740.259 30.1854C740 30.1854 739.778 30.0992 739.592 29.9268C739.41 29.7512 739.319 29.5424 739.319 29.3004C739.319 29.0552 739.41 28.8464 739.592 28.674C739.778 28.4983 740 28.4105 740.259 28.4105C740.517 28.4105 740.738 28.4983 740.92 28.674C741.105 28.8464 741.198 29.0552 741.198 29.3004C741.198 29.5424 741.105 29.7512 740.92 29.9268C740.738 30.0992 740.517 30.1854 740.259 30.1854ZM746.699 31.3636V32.5568H742.528V31.3636H746.699ZM743.646 29.5341H745.133V36.7578C745.133 37.0462 745.176 37.2633 745.262 37.4091C745.348 37.5516 745.459 37.6494 745.595 37.7024C745.734 37.7521 745.885 37.777 746.048 37.777C746.167 37.777 746.271 37.7687 746.361 37.7521C746.45 37.7356 746.52 37.7223 746.57 37.7124L746.838 38.9403C746.752 38.9735 746.629 39.0066 746.47 39.0398C746.311 39.0762 746.112 39.0961 745.874 39.0994C745.483 39.1061 745.118 39.0365 744.78 38.8906C744.442 38.7448 744.168 38.5194 743.96 38.2145C743.751 37.9096 743.646 37.5268 743.646 37.0661V29.5341Z" fill="#AEAEB2"/>
<path d="M691.815 69.2386C690.588 69.2386 689.497 69.0284 688.543 68.608C687.594 68.1875 686.844 67.6023 686.293 66.8523C685.741 66.1023 685.449 65.2358 685.415 64.2528H688.619C688.648 64.7244 688.804 65.1364 689.088 65.4886C689.372 65.8352 689.75 66.1051 690.222 66.2983C690.693 66.4915 691.222 66.5881 691.807 66.5881C692.432 66.5881 692.986 66.4801 693.469 66.2642C693.952 66.0426 694.33 65.7358 694.602 65.3438C694.875 64.9517 695.009 64.5 695.003 63.9886C695.009 63.4602 694.872 62.9943 694.594 62.5909C694.315 62.1875 693.912 61.8722 693.384 61.6449C692.861 61.4176 692.23 61.304 691.491 61.304H689.949V58.8665H691.491C692.099 58.8665 692.631 58.7614 693.085 58.5511C693.545 58.3409 693.906 58.0455 694.168 57.6648C694.429 57.2784 694.557 56.8324 694.551 56.3267C694.557 55.8324 694.446 55.4034 694.219 55.0398C693.997 54.6705 693.682 54.3835 693.273 54.179C692.869 53.9744 692.395 53.8722 691.849 53.8722C691.315 53.8722 690.821 53.9687 690.366 54.1619C689.912 54.3551 689.545 54.6307 689.267 54.9886C688.989 55.3409 688.841 55.7614 688.824 56.25H685.781C685.804 55.2727 686.085 54.4148 686.625 53.6761C687.17 52.9318 687.898 52.3523 688.807 51.9375C689.716 51.517 690.736 51.3068 691.866 51.3068C693.031 51.3068 694.043 51.5256 694.901 51.9631C695.764 52.3949 696.432 52.9773 696.903 53.7102C697.375 54.4432 697.611 55.2528 697.611 56.1392C697.616 57.1222 697.327 57.946 696.741 58.6108C696.162 59.2756 695.401 59.7102 694.457 59.9148V60.0511C695.685 60.2216 696.625 60.6761 697.278 61.4148C697.938 62.1477 698.264 63.0597 698.259 64.1506C698.259 65.1278 697.98 66.0028 697.423 66.7756C696.872 67.5426 696.111 68.1449 695.139 68.5824C694.173 69.0199 693.065 69.2386 691.815 69.2386ZM707.636 69.3324C706.232 69.3324 705.028 68.9773 704.022 68.267C703.022 67.5511 702.252 66.5199 701.712 65.1733C701.178 63.821 700.911 62.1932 700.911 60.2898C700.917 58.3864 701.187 56.767 701.721 55.4318C702.261 54.0909 703.031 53.0682 704.031 52.3636C705.036 51.6591 706.238 51.3068 707.636 51.3068C709.033 51.3068 710.235 51.6591 711.241 52.3636C712.246 53.0682 713.016 54.0909 713.55 55.4318C714.09 56.7727 714.36 58.392 714.36 60.2898C714.36 62.1989 714.09 63.8295 713.55 65.1818C713.016 66.5284 712.246 67.5568 711.241 68.267C710.241 68.9773 709.039 69.3324 707.636 69.3324ZM707.636 66.6648C708.727 66.6648 709.587 66.1278 710.218 65.054C710.854 63.9744 711.173 62.3864 711.173 60.2898C711.173 58.9034 711.028 57.7386 710.738 56.7955C710.448 55.8523 710.039 55.142 709.511 54.6648C708.982 54.1818 708.357 53.9403 707.636 53.9403C706.55 53.9403 705.692 54.4801 705.062 55.5597C704.431 56.6335 704.113 58.2102 704.107 60.2898C704.102 61.6818 704.241 62.8523 704.525 63.8011C704.815 64.75 705.224 65.4659 705.752 65.9489C706.281 66.4261 706.908 66.6648 707.636 66.6648ZM723.643 69.3324C722.24 69.3324 721.036 68.9773 720.03 68.267C719.03 67.5511 718.26 66.5199 717.72 65.1733C717.186 63.821 716.919 62.1932 716.919 60.2898C716.925 58.3864 717.195 56.767 717.729 55.4318C718.268 54.0909 719.038 53.0682 720.038 52.3636C721.044 51.6591 722.246 51.3068 723.643 51.3068C725.041 51.3068 726.243 51.6591 727.249 52.3636C728.254 53.0682 729.024 54.0909 729.558 55.4318C730.098 56.7727 730.368 58.392 730.368 60.2898C730.368 62.1989 730.098 63.8295 729.558 65.1818C729.024 66.5284 728.254 67.5568 727.249 68.267C726.249 68.9773 725.047 69.3324 723.643 69.3324ZM723.643 66.6648C724.734 66.6648 725.595 66.1278 726.226 65.054C726.862 63.9744 727.18 62.3864 727.18 60.2898C727.18 58.9034 727.036 57.7386 726.746 56.7955C726.456 55.8523 726.047 55.142 725.518 54.6648C724.99 54.1818 724.365 53.9403 723.643 53.9403C722.558 53.9403 721.7 54.4801 721.07 55.5597C720.439 56.6335 720.121 58.2102 720.115 60.2898C720.109 61.6818 720.249 62.8523 720.533 63.8011C720.822 64.75 721.232 65.4659 721.76 65.9489C722.288 66.4261 722.916 66.6648 723.643 66.6648ZM738.749 69V57.3636H743.113C744.007 57.3636 744.757 57.5189 745.363 57.8295C745.973 58.1402 746.433 58.5758 746.744 59.1364C747.058 59.6932 747.215 60.3428 747.215 61.0852C747.215 61.8314 747.056 62.4792 746.738 63.0284C746.424 63.5739 745.96 63.9962 745.346 64.2955C744.732 64.5909 743.978 64.7386 743.085 64.7386H739.977V62.9886H742.8C743.323 62.9886 743.751 62.9167 744.085 62.7727C744.418 62.625 744.664 62.411 744.823 62.1307C744.986 61.8466 745.067 61.4981 745.067 61.0852C745.067 60.6723 744.986 60.3201 744.823 60.0284C744.66 59.733 744.412 59.5095 744.079 59.358C743.746 59.2027 743.316 59.125 742.789 59.125H740.857V69H738.749ZM744.761 63.7273L747.641 69H745.289L742.46 63.7273H744.761ZM749.156 69V57.3636H753.519C754.413 57.3636 755.163 57.5303 755.769 57.8636C756.379 58.197 756.839 58.6553 757.15 59.2386C757.464 59.8182 757.621 60.4773 757.621 61.2159C757.621 61.9621 757.464 62.625 757.15 63.2045C756.835 63.7841 756.371 64.2405 755.758 64.5739C755.144 64.9034 754.388 65.0682 753.491 65.0682H750.599V63.3352H753.207C753.729 63.3352 754.157 63.2443 754.491 63.0625C754.824 62.8807 755.07 62.6307 755.229 62.3125C755.392 61.9943 755.474 61.6288 755.474 61.2159C755.474 60.803 755.392 60.4394 755.229 60.125C755.07 59.8106 754.822 59.5663 754.485 59.392C754.152 59.214 753.722 59.125 753.195 59.125H751.263V69H749.156ZM765.776 60.5625C765.723 60.0663 765.5 59.6799 765.106 59.4034C764.716 59.1269 764.208 58.9886 763.583 58.9886C763.144 58.9886 762.767 59.0549 762.452 59.1875C762.138 59.3201 761.897 59.5 761.731 59.7273C761.564 59.9545 761.479 60.214 761.475 60.5057C761.475 60.7481 761.53 60.9583 761.64 61.1364C761.754 61.3144 761.907 61.4659 762.1 61.5909C762.293 61.7121 762.507 61.8144 762.742 61.8977C762.977 61.9811 763.214 62.0511 763.452 62.108L764.543 62.3807C764.983 62.483 765.405 62.6212 765.81 62.7955C766.219 62.9697 766.585 63.1894 766.907 63.4545C767.233 63.7197 767.49 64.0398 767.68 64.4148C767.869 64.7898 767.964 65.2292 767.964 65.733C767.964 66.4148 767.79 67.0152 767.441 67.5341C767.093 68.0492 766.589 68.4527 765.93 68.7443C765.274 69.0322 764.481 69.1761 763.549 69.1761C762.644 69.1761 761.858 69.036 761.191 68.7557C760.528 68.4754 760.009 68.0663 759.634 67.5284C759.263 66.9905 759.062 66.3352 759.032 65.5625H761.106C761.136 65.9678 761.261 66.3049 761.481 66.5739C761.701 66.8428 761.987 67.0436 762.339 67.1761C762.695 67.3087 763.093 67.375 763.532 67.375C763.99 67.375 764.392 67.3068 764.737 67.1705C765.085 67.0303 765.358 66.8371 765.555 66.5909C765.752 66.3409 765.852 66.0492 765.856 65.7159C765.852 65.4129 765.763 65.1629 765.589 64.9659C765.415 64.7652 765.17 64.5985 764.856 64.4659C764.545 64.3295 764.182 64.2083 763.765 64.1023L762.441 63.7614C761.483 63.5152 760.725 63.142 760.168 62.642C759.615 62.1383 759.339 61.4697 759.339 60.6364C759.339 59.9508 759.524 59.3504 759.896 58.8352C760.271 58.3201 760.78 57.9205 761.424 57.6364C762.068 57.3485 762.797 57.2045 763.612 57.2045C764.437 57.2045 765.161 57.3485 765.782 57.6364C766.407 57.9205 766.897 58.3163 767.254 58.8239C767.61 59.3277 767.793 59.9072 767.805 60.5625H765.776Z" fill="#1E1E1F"/>
<line x1="684" y1="105.5" x2="944" y2="105.5" stroke="#C2DAFF" stroke-dasharray="2 2"/>
<path d="M684 109C684 106.791 685.791 105 688 105C690.209 105 692 106.791 692 109V118C692 120.209 690.209 122 688 122C685.791 122 684 120.209 684 118V109Z" fill="url(#paint0_linear_638_7822)"/>
<path d="M696 102C696 99.7909 697.791 98 700 98C702.209 98 704 99.7909 704 102V118C704 120.209 702.209 122 700 122C697.791 122 696 120.209 696 118V102Z" fill="url(#paint1_linear_638_7822)"/>
<path d="M708 102C708 99.7909 709.791 98 712 98C714.209 98 716 99.7909 716 102V118C716 120.209 714.209 122 712 122C709.791 122 708 120.209 708 118V102Z" fill="url(#paint2_linear_638_7822)"/>
<path d="M720 109C720 106.791 721.791 105 724 105C726.209 105 728 106.791 728 109V118C728 120.209 726.209 122 724 122C721.791 122 720 120.209 720 118V109Z" fill="url(#paint3_linear_638_7822)"/>
<path d="M732 109C732 106.791 733.791 105 736 105C738.209 105 740 106.791 740 109V118C740 120.209 738.209 122 736 122C733.791 122 732 120.209 732 118V109Z" fill="url(#paint4_linear_638_7822)"/>
<path d="M744 105C744 102.791 745.791 101 748 101C750.209 101 752 102.791 752 105V118C752 120.209 750.209 122 748 122C745.791 122 744 120.209 744 118V105Z" fill="url(#paint5_linear_638_7822)"/>
<path d="M756 96C756 93.7909 757.791 92 760 92C762.209 92 764 93.7909 764 96V118C764 120.209 762.209 122 760 122C757.791 122 756 120.209 756 118V96Z" fill="url(#paint6_linear_638_7822)"/>
<path d="M768 98C768 95.7909 769.791 94 772 94C774.209 94 776 95.7909 776 98V118C776 120.209 774.209 122 772 122C769.791 122 768 120.209 768 118V98Z" fill="url(#paint7_linear_638_7822)"/>
<path d="M780 105C780 102.791 781.791 101 784 101C786.209 101 788 102.791 788 105V118C788 120.209 786.209 122 784 122C781.791 122 780 120.209 780 118V105Z" fill="url(#paint8_linear_638_7822)"/>
<path d="M792 109C792 106.791 793.791 105 796 105C798.209 105 800 106.791 800 109V118C800 120.209 798.209 122 796 122C793.791 122 792 120.209 792 118V109Z" fill="url(#paint9_linear_638_7822)"/>
<path d="M804 109C804 106.791 805.791 105 808 105C810.209 105 812 106.791 812 109V118C812 120.209 810.209 122 808 122C805.791 122 804 120.209 804 118V109Z" fill="url(#paint10_linear_638_7822)"/>
<path d="M816 105C816 102.791 817.791 101 820 101C822.209 101 824 102.791 824 105V118C824 120.209 822.209 122 820 122C817.791 122 816 120.209 816 118V105Z" fill="url(#paint11_linear_638_7822)"/>
<path d="M828 98C828 95.7909 829.791 94 832 94C834.209 94 836 95.7909 836 98V118C836 120.209 834.209 122 832 122C829.791 122 828 120.209 828 118V98Z" fill="url(#paint12_linear_638_7822)"/>
<path d="M840 105C840 102.791 841.791 101 844 101C846.209 101 848 102.791 848 105V118C848 120.209 846.209 122 844 122C841.791 122 840 120.209 840 118V105Z" fill="url(#paint13_linear_638_7822)"/>
<path d="M852 102C852 99.7909 853.791 98 856 98C858.209 98 860 99.7909 860 102V118C860 120.209 858.209 122 856 122C853.791 122 852 120.209 852 118V102Z" fill="url(#paint14_linear_638_7822)"/>
<path d="M864 109C864 106.791 865.791 105 868 105C870.209 105 872 106.791 872 109V118C872 120.209 870.209 122 868 122C865.791 122 864 120.209 864 118V109Z" fill="url(#paint15_linear_638_7822)"/>
<path d="M876 108C876 105.791 877.791 104 880 104C882.209 104 884 105.791 884 108V118C884 120.209 882.209 122 880 122C877.791 122 876 120.209 876 118V108Z" fill="url(#paint16_linear_638_7822)"/>
<path d="M888 109C888 106.791 889.791 105 892 105C894.209 105 896 106.791 896 109V118C896 120.209 894.209 122 892 122C889.791 122 888 120.209 888 118V109Z" fill="url(#paint17_linear_638_7822)"/>
<path d="M900 105C900 102.791 901.791 101 904 101C906.209 101 908 102.791 908 105V118C908 120.209 906.209 122 904 122C901.791 122 900 120.209 900 118V105Z" fill="url(#paint18_linear_638_7822)"/>
<path d="M912 98C912 95.7909 913.791 94 916 94C918.209 94 920 95.7909 920 98V118C920 120.209 918.209 122 916 122C913.791 122 912 120.209 912 118V98Z" fill="url(#paint19_linear_638_7822)"/>
<path d="M924 98C924 95.7909 925.791 94 928 94C930.209 94 932 95.7909 932 98V118C932 120.209 930.209 122 928 122C925.791 122 924 120.209 924 118V98Z" fill="url(#paint20_linear_638_7822)"/>
<path d="M936 109C936 106.791 937.791 105 940 105C942.209 105 944 106.791 944 109V118C944 120.209 942.209 122 940 122C937.791 122 936 120.209 936 118V109Z" fill="url(#paint21_linear_638_7822)"/>
<defs>
<linearGradient id="paint0_linear_638_7822" x1="814" y1="88.5" x2="814" y2="122" gradientUnits="userSpaceOnUse">
<stop offset="0.489483" stop-color="#FF6753"/>
<stop offset="0.489583" stop-color="#2772F5"/>
</linearGradient>
<linearGradient id="paint1_linear_638_7822" x1="814" y1="88.5" x2="814" y2="122" gradientUnits="userSpaceOnUse">
<stop offset="0.489483" stop-color="#FF6753"/>
<stop offset="0.489583" stop-color="#2772F5"/>
</linearGradient>
<linearGradient id="paint2_linear_638_7822" x1="814" y1="88.5" x2="814" y2="122" gradientUnits="userSpaceOnUse">
<stop offset="0.489483" stop-color="#FF6753"/>
<stop offset="0.489583" stop-color="#2772F5"/>
</linearGradient>
<linearGradient id="paint3_linear_638_7822" x1="814" y1="88.5" x2="814" y2="122" gradientUnits="userSpaceOnUse">
<stop offset="0.489483" stop-color="#FF6753"/>
<stop offset="0.489583" stop-color="#2772F5"/>
</linearGradient>
<linearGradient id="paint4_linear_638_7822" x1="814" y1="88.5" x2="814" y2="122" gradientUnits="userSpaceOnUse">
<stop offset="0.489483" stop-color="#FF6753"/>
<stop offset="0.489583" stop-color="#2772F5"/>
</linearGradient>
<linearGradient id="paint5_linear_638_7822" x1="814" y1="88.5" x2="814" y2="122" gradientUnits="userSpaceOnUse">
<stop offset="0.489483" stop-color="#FF6753"/>
<stop offset="0.489583" stop-color="#2772F5"/>
</linearGradient>
<linearGradient id="paint6_linear_638_7822" x1="814" y1="88.5" x2="814" y2="122" gradientUnits="userSpaceOnUse">
<stop offset="0.489483" stop-color="#FF6753"/>
<stop offset="0.489583" stop-color="#2772F5"/>
</linearGradient>
<linearGradient id="paint7_linear_638_7822" x1="814" y1="88.5" x2="814" y2="122" gradientUnits="userSpaceOnUse">
<stop offset="0.489483" stop-color="#FF6753"/>
<stop offset="0.489583" stop-color="#2772F5"/>
</linearGradient>
<linearGradient id="paint8_linear_638_7822" x1="814" y1="88.5" x2="814" y2="122" gradientUnits="userSpaceOnUse">
<stop offset="0.489483" stop-color="#FF6753"/>
<stop offset="0.489583" stop-color="#2772F5"/>
</linearGradient>
<linearGradient id="paint9_linear_638_7822" x1="814" y1="88.5" x2="814" y2="122" gradientUnits="userSpaceOnUse">
<stop offset="0.489483" stop-color="#FF6753"/>
<stop offset="0.489583" stop-color="#2772F5"/>
</linearGradient>
<linearGradient id="paint10_linear_638_7822" x1="814" y1="88.5" x2="814" y2="122" gradientUnits="userSpaceOnUse">
<stop offset="0.489483" stop-color="#FF6753"/>
<stop offset="0.489583" stop-color="#2772F5"/>
</linearGradient>
<linearGradient id="paint11_linear_638_7822" x1="814" y1="88.5" x2="814" y2="122" gradientUnits="userSpaceOnUse">
<stop offset="0.489483" stop-color="#FF6753"/>
<stop offset="0.489583" stop-color="#2772F5"/>
</linearGradient>
<linearGradient id="paint12_linear_638_7822" x1="814" y1="88.5" x2="814" y2="122" gradientUnits="userSpaceOnUse">
<stop offset="0.489483" stop-color="#FF6753"/>
<stop offset="0.489583" stop-color="#2772F5"/>
</linearGradient>
<linearGradient id="paint13_linear_638_7822" x1="814" y1="88.5" x2="814" y2="122" gradientUnits="userSpaceOnUse">
<stop offset="0.489483" stop-color="#FF6753"/>
<stop offset="0.489583" stop-color="#2772F5"/>
</linearGradient>
<linearGradient id="paint14_linear_638_7822" x1="814" y1="88.5" x2="814" y2="122" gradientUnits="userSpaceOnUse">
<stop offset="0.489483" stop-color="#FF6753"/>
<stop offset="0.489583" stop-color="#2772F5"/>
</linearGradient>
<linearGradient id="paint15_linear_638_7822" x1="814" y1="88.5" x2="814" y2="122" gradientUnits="userSpaceOnUse">
<stop offset="0.489483" stop-color="#FF6753"/>
<stop offset="0.489583" stop-color="#2772F5"/>
</linearGradient>
<linearGradient id="paint16_linear_638_7822" x1="814" y1="88.5" x2="814" y2="122" gradientUnits="userSpaceOnUse">
<stop offset="0.489483" stop-color="#FF6753"/>
<stop offset="0.489583" stop-color="#2772F5"/>
</linearGradient>
<linearGradient id="paint17_linear_638_7822" x1="814" y1="88.5" x2="814" y2="122" gradientUnits="userSpaceOnUse">
<stop offset="0.489483" stop-color="#FF6753"/>
<stop offset="0.489583" stop-color="#2772F5"/>
</linearGradient>
<linearGradient id="paint18_linear_638_7822" x1="814" y1="88.5" x2="814" y2="122" gradientUnits="userSpaceOnUse">
<stop offset="0.489483" stop-color="#FF6753"/>
<stop offset="0.489583" stop-color="#2772F5"/>
</linearGradient>
<linearGradient id="paint19_linear_638_7822" x1="814" y1="88.5" x2="814" y2="122" gradientUnits="userSpaceOnUse">
<stop offset="0.489483" stop-color="#FF6753"/>
<stop offset="0.489583" stop-color="#2772F5"/>
</linearGradient>
<linearGradient id="paint20_linear_638_7822" x1="814" y1="88.5" x2="814" y2="122" gradientUnits="userSpaceOnUse">
<stop offset="0.489483" stop-color="#FF6753"/>
<stop offset="0.489583" stop-color="#2772F5"/>
</linearGradient>
<linearGradient id="paint21_linear_638_7822" x1="814" y1="88.5" x2="814" y2="122" gradientUnits="userSpaceOnUse">
<stop offset="0.489483" stop-color="#FF6753"/>
<stop offset="0.489583" stop-color="#2772F5"/>
</linearGradient>
</defs>
</svg>
