<svg width="187" height="187" viewBox="0 0 187 187" fill="none" xmlns="http://www.w3.org/2000/svg">
<rect width="187" height="187" rx="93.5" fill="white"/>
<rect x="1" y="1" width="185" height="185" rx="92.5" stroke="#1E1E1F" stroke-opacity="0.08" stroke-width="2"/>
<mask id="mask0_4598_1415" style="mask-type:luminance" maskUnits="userSpaceOnUse" x="40" y="33" width="107" height="121">
<path d="M146.555 33.6495H40.4451V153.351H146.555V33.6495Z" fill="white"/>
</mask>
<g mask="url(#mask0_4598_1415)">
<path d="M44.4707 70.0498V117.005C44.4707 119.984 46.0592 122.765 48.6684 124.239L89.298 147.702C91.8814 149.204 95.0871 149.204 97.6676 147.702L138.323 124.239C140.906 122.736 142.521 119.984 142.521 117.005V70.0498C142.521 67.0707 140.932 64.2894 138.323 62.7869L97.6676 39.3239C95.0871 37.8214 91.8814 37.8214 89.298 39.3239L48.6426 62.7869C46.0879 64.2894 44.4707 67.042 44.4707 70.0498Z" fill="#05163D"/>
<path d="M102.379 102.619L96.5608 118.507C96.3917 118.931 96.3917 119.442 96.5608 119.869L106.519 147.22L118.066 140.554L104.219 102.594C103.907 101.742 102.688 101.742 102.376 102.622L102.379 102.619Z" fill="#12AAFF"/>
<path d="M113.983 75.8647C113.67 74.9844 112.451 74.9844 112.11 75.8647L106.295 91.7523C106.126 92.2054 106.126 92.6871 106.295 93.1143L122.639 137.913L134.186 131.246L113.985 75.8647H113.983Z" fill="#12AAFF"/>
<path d="M93.4986 41.0529C93.7825 41.0529 94.0664 41.1389 94.3216 41.2794L138.297 66.6722C138.808 66.956 139.12 67.4951 139.12 68.0915V118.877C139.12 119.473 138.808 120.012 138.297 120.296L94.3216 145.718C94.0664 145.858 93.7825 145.944 93.4986 145.944C93.2148 145.944 92.9309 145.858 92.6757 145.718L48.7 120.325C48.1896 120.041 47.8771 119.502 47.8771 118.906V68.0915C47.8771 67.4951 48.1896 66.956 48.7 66.6722L92.6757 41.2794C92.9309 41.1389 93.2148 41.0529 93.4986 41.0529ZM93.4986 33.6495C91.9388 33.6495 90.3503 34.0739 88.9597 34.8681L44.984 60.2609C42.2027 61.8781 40.4451 64.8572 40.4451 68.0915V118.877C40.4451 122.111 42.1769 125.119 44.984 126.736L88.9597 152.129C90.3503 152.952 91.9102 153.348 93.4986 153.348C95.0871 153.348 96.6469 152.923 98.0376 152.129L142.013 126.736C144.823 125.119 146.552 122.14 146.552 118.877V68.0915C146.552 64.8572 144.82 61.8494 142.013 60.2322L98.0376 34.8681C96.6183 34.0739 95.0584 33.6495 93.4986 33.6495Z" fill="#9DCCED"/>
<path d="M64.4156 137.97L68.4729 126.905L76.5873 133.658L69.0119 140.608L64.4156 137.97Z" fill="#05163D"/>
<path d="M89.7827 64.4872H78.6318C77.8089 64.4872 77.0433 64.9976 76.7594 65.7919L52.8691 131.33L64.4157 137.996L90.7461 65.8177C90.9726 65.1639 90.4909 64.4844 89.7798 64.4844L89.7827 64.4872Z" fill="white"/>
<path d="M109.3 64.4873H98.1494C97.3265 64.4873 96.5609 64.9977 96.2771 65.7919L69.012 140.608L80.5586 147.275L110.235 65.8206C110.49 65.1669 109.98 64.4873 109.297 64.4873H109.3Z" fill="white"/>
</g>
</svg>
