<svg width="352" height="44" viewBox="0 0 352 44" fill="none" xmlns="http://www.w3.org/2000/svg">
<rect x="1" y="1" width="350" height="42" rx="11" fill="white"/>
<rect x="1" y="1" width="350" height="42" rx="11" stroke="#EDEDF0" stroke-width="2"/>
<rect x="18" y="10" width="24" height="24" rx="12" fill="#F3F3F3"/>
<path d="M29.9998 15.7656L29.9141 16.0498V24.2961L29.9998 24.3796L33.9243 22.117L29.9998 15.7656Z" fill="#343434"/>
<path d="M29.9987 15.7656L26.0742 22.117L29.9987 24.3796V20.3771V15.7656Z" fill="#8C8C8C"/>
<path d="M29.9995 25.1052L29.9512 25.1627V28.1002L29.9995 28.2378L33.9263 22.8438L29.9995 25.1052Z" fill="#3C3C3B"/>
<path d="M29.9987 28.2378V25.1052L26.0742 22.8438L29.9987 28.2378Z" fill="#8C8C8C"/>
<path d="M29.998 24.3775L33.9225 22.1149L29.998 20.375V24.3775Z" fill="#141414"/>
<path d="M26.0742 22.1149L29.9987 24.3775V20.375L26.0742 22.1149Z" fill="#393939"/>
<path d="M55.168 27V15.8H62.224V17.112H56.768V20.696H61.744V21.976H56.768V25.688H62.224V27H55.168ZM67.5406 27C67.0393 27 66.5966 26.92 66.2126 26.76C65.8393 26.6 65.5513 26.3333 65.3486 25.96C65.1566 25.5867 65.0606 25.08 65.0606 24.44V20.312H63.6686V18.968H65.0606L65.2526 16.952H66.6606V18.968H68.9326V20.312H66.6606V24.456C66.6606 24.9147 66.7513 25.2293 66.9326 25.4C67.1246 25.56 67.4553 25.64 67.9246 25.64H68.8526V27H67.5406ZM70.6974 27V15.48H72.2974V20.28C72.564 19.8107 72.932 19.4427 73.4014 19.176C73.8814 18.9093 74.4094 18.776 74.9854 18.776C75.6254 18.776 76.1747 18.904 76.6334 19.16C77.092 19.416 77.444 19.8053 77.6894 20.328C77.9347 20.8507 78.0574 21.5013 78.0574 22.28V27H76.4734V22.456C76.4734 21.688 76.3134 21.112 75.9934 20.728C75.6734 20.3333 75.1987 20.136 74.5694 20.136C74.1427 20.136 73.7534 20.2427 73.4014 20.456C73.06 20.6587 72.788 20.952 72.5854 21.336C72.3934 21.72 72.2974 22.1947 72.2974 22.76V27H70.6974ZM83.752 27.192C82.9733 27.192 82.2853 27.0213 81.688 26.68C81.0907 26.328 80.6213 25.8373 80.28 25.208C79.9493 24.5787 79.784 23.8427 79.784 23C79.784 22.1573 79.9493 21.4213 80.28 20.792C80.6213 20.1627 81.0907 19.672 81.688 19.32C82.2853 18.9573 82.9787 18.776 83.768 18.776C84.5573 18.776 85.2347 18.952 85.8 19.304C86.3653 19.6453 86.8027 20.1093 87.112 20.696C87.4213 21.272 87.576 21.912 87.576 22.616C87.576 22.7227 87.576 22.84 87.576 22.968C87.576 23.0853 87.5653 23.2133 87.544 23.352H80.952V22.232H85.976C85.944 21.5707 85.72 21.0533 85.304 20.68C84.888 20.296 84.3707 20.104 83.752 20.104C83.3253 20.104 82.9253 20.2 82.552 20.392C82.1893 20.584 81.896 20.872 81.672 21.256C81.4587 21.6293 81.352 22.104 81.352 22.68V23.128C81.352 23.7253 81.4587 24.2267 81.672 24.632C81.896 25.0373 82.1893 25.3467 82.552 25.56C82.9147 25.7627 83.3093 25.864 83.736 25.864C84.248 25.864 84.6693 25.752 85 25.528C85.3413 25.2933 85.592 24.984 85.752 24.6H87.352C87.2027 25.1013 86.9627 25.5493 86.632 25.944C86.312 26.328 85.9067 26.632 85.416 26.856C84.936 27.08 84.3813 27.192 83.752 27.192ZM89.3536 27V18.968H90.7936L90.9376 20.488C91.119 20.1253 91.3483 19.8213 91.6256 19.576C91.9136 19.32 92.2496 19.1227 92.6336 18.984C93.0283 18.8453 93.471 18.776 93.9616 18.776V20.456H93.4336C93.0923 20.456 92.7723 20.4987 92.4736 20.584C92.175 20.6693 91.9083 20.808 91.6736 21C91.4496 21.192 91.2736 21.4533 91.1456 21.784C91.0176 22.1147 90.9536 22.5253 90.9536 23.016V27H89.3536ZM98.877 27.192C98.0983 27.192 97.4103 27.0213 96.813 26.68C96.2157 26.328 95.7463 25.8373 95.405 25.208C95.0743 24.5787 94.909 23.8427 94.909 23C94.909 22.1573 95.0743 21.4213 95.405 20.792C95.7463 20.1627 96.2157 19.672 96.813 19.32C97.4103 18.9573 98.1037 18.776 98.893 18.776C99.6823 18.776 100.36 18.952 100.925 19.304C101.49 19.6453 101.928 20.1093 102.237 20.696C102.546 21.272 102.701 21.912 102.701 22.616C102.701 22.7227 102.701 22.84 102.701 22.968C102.701 23.0853 102.69 23.2133 102.669 23.352H96.077V22.232H101.101C101.069 21.5707 100.845 21.0533 100.429 20.68C100.013 20.296 99.4957 20.104 98.877 20.104C98.4503 20.104 98.0503 20.2 97.677 20.392C97.3143 20.584 97.021 20.872 96.797 21.256C96.5837 21.6293 96.477 22.104 96.477 22.68V23.128C96.477 23.7253 96.5837 24.2267 96.797 24.632C97.021 25.0373 97.3143 25.3467 97.677 25.56C98.0397 25.7627 98.4343 25.864 98.861 25.864C99.373 25.864 99.7943 25.752 100.125 25.528C100.466 25.2933 100.717 24.984 100.877 24.6H102.477C102.328 25.1013 102.088 25.5493 101.757 25.944C101.437 26.328 101.032 26.632 100.541 26.856C100.061 27.08 99.5063 27.192 98.877 27.192ZM107.423 27.192C106.793 27.192 106.249 27.064 105.791 26.808C105.332 26.552 104.975 26.168 104.719 25.656C104.473 25.1333 104.351 24.4827 104.351 23.704V18.968H105.951V23.544C105.951 24.3013 106.111 24.872 106.431 25.256C106.761 25.64 107.236 25.832 107.855 25.832C108.281 25.832 108.66 25.7307 108.991 25.528C109.332 25.3253 109.599 25.032 109.791 24.648C109.983 24.264 110.079 23.7947 110.079 23.24V18.968H111.679V27H110.255L110.143 25.624C109.897 26.104 109.535 26.488 109.055 26.776C108.585 27.0533 108.041 27.192 107.423 27.192ZM113.854 27V18.968H115.294L115.406 20.088C115.662 19.6827 116.003 19.3627 116.43 19.128C116.856 18.8933 117.336 18.776 117.87 18.776C118.275 18.776 118.643 18.8293 118.974 18.936C119.315 19.0427 119.614 19.208 119.87 19.432C120.126 19.656 120.334 19.9387 120.494 20.28C120.771 19.8 121.15 19.432 121.63 19.176C122.12 18.9093 122.643 18.776 123.198 18.776C123.848 18.776 124.408 18.904 124.878 19.16C125.347 19.416 125.704 19.8053 125.95 20.328C126.195 20.8507 126.318 21.5013 126.318 22.28V27H124.734V22.44C124.734 21.6827 124.579 21.112 124.27 20.728C123.971 20.3333 123.528 20.136 122.942 20.136C122.547 20.136 122.195 20.2373 121.886 20.44C121.576 20.6427 121.331 20.9413 121.15 21.336C120.979 21.72 120.894 22.1893 120.894 22.744V27H119.294V22.44C119.294 21.6827 119.139 21.112 118.83 20.728C118.52 20.3333 118.078 20.136 117.502 20.136C117.118 20.136 116.771 20.2373 116.462 20.44C116.152 20.6427 115.907 20.9413 115.726 21.336C115.544 21.72 115.454 22.1893 115.454 22.744V27H113.854Z" fill="#1E1E1F"/>
<rect x="249" y="11" width="22" height="22" rx="7" stroke="#3385FF" stroke-width="2"/>
<path d="M267.133 23L265.8 21.6667L264.467 23M266 22C266 25.3137 263.314 28 260 28C256.686 28 254 25.3137 254 22C254 18.6863 256.686 16 260 16C262.201 16 264.126 17.1854 265.17 18.9527M260 18.6667V22L262 23.3333" stroke="#AEAEB2" stroke-width="1.6" stroke-linecap="round" stroke-linejoin="round"/>
<g clip-path="url(#clip0_596_10013)">
<path d="M283.334 21.9987H296.667M283.334 21.9987C283.334 25.6806 286.319 28.6654 290.001 28.6654M283.334 21.9987C283.334 18.3168 286.319 15.332 290.001 15.332M296.667 21.9987C296.667 25.6806 293.683 28.6654 290.001 28.6654M296.667 21.9987C296.667 18.3168 293.683 15.332 290.001 15.332M290.001 15.332C291.668 17.1576 292.616 19.5267 292.667 21.9987C292.616 24.4707 291.668 26.8398 290.001 28.6654M290.001 15.332C288.333 17.1576 287.385 19.5267 287.334 21.9987C287.385 24.4707 288.333 26.8398 290.001 28.6654" stroke="#AEAEB2" stroke-width="1.6" stroke-linecap="round" stroke-linejoin="round"/>
</g>
<path d="M319 19.5L324 24.5L329 19.5" stroke="#AEAEB2" stroke-width="2" stroke-linecap="round" stroke-linejoin="round"/>
<defs>
<clipPath id="clip0_596_10013">
<rect width="16" height="16" fill="white" transform="translate(282 14)"/>
</clipPath>
</defs>
</svg>
