<svg width="187" height="187" viewBox="0 0 187 187" fill="none" xmlns="http://www.w3.org/2000/svg">
<rect width="187" height="187" rx="93.5" fill="white"/>
<rect x="1" y="1" width="185" height="185" rx="92.5" stroke="#1E1E1F" stroke-opacity="0.08" stroke-width="2"/>
<path d="M47.2507 54.1364C47.2507 51.6061 47.2507 50.3417 47.7277 49.368C48.1843 48.4359 48.9374 47.6828 49.8694 47.2263C50.8424 46.75 52.1068 46.75 54.6372 46.75H133.364C135.893 46.75 137.159 46.75 138.132 47.227C139.063 47.6835 139.816 48.4366 140.274 49.3687C140.75 50.3417 140.75 51.6068 140.75 54.1372V132.864C140.75 135.393 140.75 136.659 140.274 137.632C139.816 138.563 139.063 139.316 138.132 139.774C137.159 140.25 135.893 140.25 133.364 140.25H54.6372C52.1068 140.25 50.8424 140.25 49.8687 139.774C48.9366 139.316 48.1835 138.563 47.727 137.632C47.25 136.659 47.25 135.393 47.25 132.864V54.1364H47.2507Z" fill="#0000FF"/>
</svg>
