<svg width="187" height="187" viewBox="0 0 187 187" fill="none" xmlns="http://www.w3.org/2000/svg">
<rect width="187" height="187" rx="93.5" fill="#FF9720"/>
<rect x="1" y="1" width="185" height="185" rx="92.5" stroke="#1E1E1F" stroke-opacity="0.08" stroke-width="2"/>
<path d="M130.832 82.1888C132.391 71.7506 124.444 66.1389 113.575 62.3957L117.105 48.2566L108.495 46.112L105.056 59.8793C102.795 59.3161 100.472 58.7811 98.1627 58.2571L101.614 44.3989L93.013 42.2543L89.4933 56.3879L72.1327 52.0877L69.8422 61.2818C69.8422 61.2818 76.2289 62.7455 76.094 62.8365C79.5799 63.7072 80.2121 66.0134 80.1055 67.8427L70.4462 106.577C70.0195 107.636 68.9385 109.224 66.5021 108.617C66.5884 108.742 60.2457 107.048 60.2457 107.048L55.9722 116.915L73.3077 121.292L69.7449 135.596L78.3421 137.74L81.872 123.59C84.2252 124.227 86.5 124.815 88.7293 125.369L85.2136 139.453L93.8217 141.598L97.3845 127.322C112.063 130.099 123.102 128.978 127.741 115.712C131.485 105.025 127.558 98.8592 119.834 94.8367C125.459 93.5346 129.695 89.8369 130.825 82.1943L130.832 82.1888ZM111.159 109.768C108.492 120.456 90.5013 114.68 84.6637 113.229L89.3906 94.2814C95.2251 95.7372 113.934 98.6207 111.162 109.766L111.159 109.768ZM113.829 82.0374C111.402 91.7642 96.4221 86.8224 91.5603 85.6097L95.84 68.42C100.703 69.6343 116.353 71.8949 113.823 82.0366" fill="white"/>
</svg>
