<svg width="64" height="24" viewBox="0 0 64 24" fill="none" xmlns="http://www.w3.org/2000/svg">
<rect width="64" height="24" rx="12" fill="#FFF4E6" style="fill:#FFF4E6;fill:color(display-p3 1.0000 0.9569 0.9020);fill-opacity:1;"/>
<path d="M8.852 16V7.6H11.792C12.448 7.6 12.992 7.712 13.424 7.936C13.856 8.152 14.176 8.452 14.384 8.836C14.6 9.212 14.708 9.64 14.708 10.12C14.708 10.576 14.604 10.996 14.396 11.38C14.196 11.756 13.88 12.056 13.448 12.28C13.016 12.504 12.464 12.616 11.792 12.616H10.124V16H8.852ZM10.124 11.572H11.732C12.332 11.572 12.76 11.444 13.016 11.188C13.28 10.924 13.412 10.568 13.412 10.12C13.412 9.656 13.28 9.296 13.016 9.04C12.76 8.776 12.332 8.644 11.732 8.644H10.124V11.572ZM18.4932 16.144C17.9092 16.144 17.3892 16.016 16.9332 15.76C16.4852 15.496 16.1332 15.132 15.8772 14.668C15.6212 14.204 15.4932 13.664 15.4932 13.048C15.4932 12.424 15.6172 11.876 15.8652 11.404C16.1212 10.932 16.4732 10.564 16.9212 10.3C17.3772 10.036 17.9052 9.904 18.5052 9.904C19.0892 9.904 19.5972 10.036 20.0292 10.3C20.4612 10.556 20.7972 10.9 21.0372 11.332C21.2772 11.764 21.3972 12.24 21.3972 12.76C21.3972 12.84 21.3932 12.928 21.3852 13.024C21.3852 13.112 21.3812 13.212 21.3732 13.324H16.7412C16.7812 13.9 16.9692 14.34 17.3052 14.644C17.6492 14.94 18.0452 15.088 18.4932 15.088C18.8532 15.088 19.1532 15.008 19.3932 14.848C19.6412 14.68 19.8252 14.456 19.9452 14.176H21.2172C21.0572 14.736 20.7372 15.204 20.2572 15.58C19.7852 15.956 19.1972 16.144 18.4932 16.144ZM18.4932 10.948C18.0692 10.948 17.6932 11.076 17.3652 11.332C17.0372 11.58 16.8372 11.956 16.7652 12.46H20.1252C20.1012 11.996 19.9372 11.628 19.6332 11.356C19.3292 11.084 18.9492 10.948 18.4932 10.948ZM22.837 16V10.048H23.965L24.061 11.092C24.245 10.724 24.513 10.436 24.865 10.228C25.225 10.012 25.637 9.904 26.101 9.904C26.821 9.904 27.385 10.128 27.793 10.576C28.209 11.024 28.417 11.692 28.417 12.58V16H27.157V12.712C27.157 11.56 26.685 10.984 25.741 10.984C25.269 10.984 24.877 11.152 24.565 11.488C24.261 11.824 24.109 12.304 24.109 12.928V16H22.837ZM32.7471 16.144C32.1711 16.144 31.6631 16.008 31.2231 15.736C30.7831 15.464 30.4391 15.092 30.1911 14.62C29.9431 14.148 29.8191 13.612 29.8191 13.012C29.8191 12.412 29.9431 11.88 30.1911 11.416C30.4391 10.944 30.7831 10.576 31.2231 10.312C31.6711 10.04 32.1831 9.904 32.7591 9.904C33.2311 9.904 33.6431 9.996 33.9951 10.18C34.3551 10.364 34.6351 10.624 34.8351 10.96V7.36H36.1071V16H34.9671L34.8351 15.076C34.6431 15.356 34.3791 15.604 34.0431 15.82C33.7071 16.036 33.2751 16.144 32.7471 16.144ZM32.9751 15.04C33.5191 15.04 33.9631 14.852 34.3071 14.476C34.6591 14.1 34.8351 13.616 34.8351 13.024C34.8351 12.424 34.6591 11.94 34.3071 11.572C33.9631 11.196 33.5191 11.008 32.9751 11.008C32.4311 11.008 31.9831 11.196 31.6311 11.572C31.2791 11.94 31.1031 12.424 31.1031 13.024C31.1031 13.416 31.1831 13.764 31.3431 14.068C31.5031 14.372 31.7231 14.612 32.0031 14.788C32.2911 14.956 32.6151 15.04 32.9751 15.04ZM38.5509 8.92C38.3109 8.92 38.1109 8.848 37.9509 8.704C37.7989 8.552 37.7229 8.364 37.7229 8.14C37.7229 7.916 37.7989 7.732 37.9509 7.588C38.1109 7.436 38.3109 7.36 38.5509 7.36C38.7909 7.36 38.9869 7.436 39.1389 7.588C39.2989 7.732 39.3789 7.916 39.3789 8.14C39.3789 8.364 39.2989 8.552 39.1389 8.704C38.9869 8.848 38.7909 8.92 38.5509 8.92ZM37.9149 16V10.048H39.1869V16H37.9149ZM40.986 16V10.048H42.114L42.21 11.092C42.394 10.724 42.662 10.436 43.014 10.228C43.374 10.012 43.786 9.904 44.25 9.904C44.97 9.904 45.534 10.128 45.942 10.576C46.358 11.024 46.566 11.692 46.566 12.58V16H45.306V12.712C45.306 11.56 44.834 10.984 43.89 10.984C43.418 10.984 43.026 11.152 42.714 11.488C42.41 11.824 42.258 12.304 42.258 12.928V16H40.986ZM51.2802 18.784C50.7682 18.784 50.2882 18.696 49.8402 18.52C49.4002 18.352 49.0282 18.092 48.7242 17.74C48.4202 17.396 48.2282 16.964 48.1482 16.444H49.4082C49.5122 16.82 49.7282 17.12 50.0562 17.344C50.3922 17.568 50.7962 17.68 51.2682 17.68C51.7802 17.68 52.2202 17.512 52.5882 17.176C52.9562 16.848 53.1402 16.352 53.1402 15.688V14.884C52.9562 15.196 52.6802 15.472 52.3122 15.712C51.9522 15.952 51.5002 16.072 50.9562 16.072C50.3962 16.072 49.8882 15.94 49.4322 15.676C48.9842 15.404 48.6282 15.036 48.3642 14.572C48.1002 14.1 47.9682 13.572 47.9682 12.988C47.9682 12.396 48.1002 11.868 48.3642 11.404C48.6282 10.94 48.9842 10.576 49.4322 10.312C49.8882 10.04 50.4002 9.904 50.9682 9.904C51.4562 9.904 51.8882 10.012 52.2642 10.228C52.6402 10.436 52.9322 10.696 53.1402 11.008L53.2602 10.048H54.4122V15.64C54.4122 16.312 54.2722 16.88 53.9922 17.344C53.7202 17.816 53.3482 18.172 52.8762 18.412C52.4042 18.66 51.8722 18.784 51.2802 18.784ZM51.1842 14.98C51.5602 14.98 51.8922 14.896 52.1802 14.728C52.4682 14.552 52.6962 14.316 52.8642 14.02C53.0322 13.716 53.1162 13.372 53.1162 12.988C53.1162 12.596 53.0322 12.252 52.8642 11.956C52.6962 11.66 52.4682 11.428 52.1802 11.26C51.8922 11.092 51.5602 11.008 51.1842 11.008C50.8162 11.008 50.4882 11.092 50.2002 11.26C49.9122 11.428 49.6842 11.66 49.5162 11.956C49.3482 12.252 49.2642 12.596 49.2642 12.988C49.2642 13.372 49.3482 13.716 49.5162 14.02C49.6842 14.316 49.9122 14.552 50.2002 14.728C50.4882 14.896 50.8162 14.98 51.1842 14.98Z" fill="#FF8800" style="fill:#FF8800;fill:color(display-p3 1.0000 0.5333 0.0000);fill-opacity:1;"/>
</svg>
