<svg width="53" height="24" viewBox="0 0 53 24" fill="none" xmlns="http://www.w3.org/2000/svg">
<rect width="53" height="24" rx="12" fill="#E6FAF0" style="fill:#E6FAF0;fill:color(display-p3 0.9020 0.9804 0.9412);fill-opacity:1;"/>
<path d="M8.312 16L11.408 7.6H12.8L15.872 16H14.528L13.808 13.948H10.376L9.656 16H8.312ZM10.736 12.94H13.448L12.092 9.112L10.736 12.94ZM19.6307 16.144C19.0467 16.144 18.5227 16.012 18.0587 15.748C17.6027 15.484 17.2427 15.12 16.9787 14.656C16.7227 14.184 16.5947 13.64 16.5947 13.024C16.5947 12.408 16.7227 11.868 16.9787 11.404C17.2427 10.932 17.6027 10.564 18.0587 10.3C18.5227 10.036 19.0467 9.904 19.6307 9.904C20.3667 9.904 20.9827 10.096 21.4787 10.48C21.9827 10.864 22.3067 11.384 22.4507 12.04H21.1187C21.0387 11.712 20.8627 11.456 20.5907 11.272C20.3187 11.088 19.9987 10.996 19.6307 10.996C19.3187 10.996 19.0307 11.076 18.7667 11.236C18.5027 11.388 18.2907 11.616 18.1307 11.92C17.9707 12.216 17.8907 12.584 17.8907 13.024C17.8907 13.464 17.9707 13.836 18.1307 14.14C18.2907 14.436 18.5027 14.664 18.7667 14.824C19.0307 14.984 19.3187 15.064 19.6307 15.064C19.9987 15.064 20.3187 14.972 20.5907 14.788C20.8627 14.604 21.0387 14.344 21.1187 14.008H22.4507C22.3147 14.648 21.9947 15.164 21.4907 15.556C20.9867 15.948 20.3667 16.144 19.6307 16.144ZM26.3291 16C25.7451 16 25.2811 15.86 24.9371 15.58C24.5931 15.292 24.4211 14.784 24.4211 14.056V11.116H23.4011V10.048H24.4211L24.5771 8.536H25.6931V10.048H27.3731V11.116H25.6931V14.056C25.6931 14.384 25.7611 14.612 25.8971 14.74C26.0411 14.86 26.2851 14.92 26.6291 14.92H27.3131V16H26.3291ZM29.5246 8.92C29.2846 8.92 29.0846 8.848 28.9246 8.704C28.7726 8.552 28.6966 8.364 28.6966 8.14C28.6966 7.916 28.7726 7.732 28.9246 7.588C29.0846 7.436 29.2846 7.36 29.5246 7.36C29.7646 7.36 29.9606 7.436 30.1126 7.588C30.2726 7.732 30.3526 7.916 30.3526 8.14C30.3526 8.364 30.2726 8.552 30.1126 8.704C29.9606 8.848 29.7646 8.92 29.5246 8.92ZM28.8886 16V10.048H30.1606V16H28.8886ZM33.6278 16L31.3958 10.048H32.7278L34.3838 14.788L36.0398 10.048H37.3598L35.1398 16H33.6278ZM41.0044 16.144C40.4204 16.144 39.9004 16.016 39.4444 15.76C38.9964 15.496 38.6444 15.132 38.3884 14.668C38.1324 14.204 38.0044 13.664 38.0044 13.048C38.0044 12.424 38.1284 11.876 38.3764 11.404C38.6324 10.932 38.9844 10.564 39.4324 10.3C39.8884 10.036 40.4164 9.904 41.0164 9.904C41.6004 9.904 42.1084 10.036 42.5404 10.3C42.9724 10.556 43.3084 10.9 43.5484 11.332C43.7884 11.764 43.9084 12.24 43.9084 12.76C43.9084 12.84 43.9044 12.928 43.8964 13.024C43.8964 13.112 43.8924 13.212 43.8844 13.324H39.2524C39.2924 13.9 39.4804 14.34 39.8164 14.644C40.1604 14.94 40.5564 15.088 41.0044 15.088C41.3644 15.088 41.6644 15.008 41.9044 14.848C42.1524 14.68 42.3364 14.456 42.4564 14.176H43.7284C43.5684 14.736 43.2484 15.204 42.7684 15.58C42.2964 15.956 41.7084 16.144 41.0044 16.144ZM41.0044 10.948C40.5804 10.948 40.2044 11.076 39.8764 11.332C39.5484 11.58 39.3484 11.956 39.2764 12.46H42.6364C42.6124 11.996 42.4484 11.628 42.1444 11.356C41.8404 11.084 41.4604 10.948 41.0044 10.948Z" fill="#0BB867" style="fill:#0BB867;fill:color(display-p3 0.0432 0.7200 0.4042);fill-opacity:1;"/>
</svg>
