<svg width="400" height="564" viewBox="0 0 400 564" fill="none" xmlns="http://www.w3.org/2000/svg">
<rect width="400" height="564" rx="24" fill="white"/>
<path d="M133.362 47.168C132.382 47.168 131.537 46.958 130.828 46.538C130.128 46.1087 129.587 45.516 129.204 44.76C128.831 43.9947 128.644 43.1127 128.644 42.114C128.644 41.1153 128.831 40.2333 129.204 39.468C129.587 38.7027 130.128 38.1053 130.828 37.676C131.537 37.2467 132.382 37.032 133.362 37.032C134.547 37.032 135.518 37.326 136.274 37.914C137.03 38.502 137.501 39.3327 137.688 40.406H135.63C135.509 39.8833 135.252 39.4773 134.86 39.188C134.477 38.8893 133.973 38.74 133.348 38.74C132.769 38.74 132.27 38.88 131.85 39.16C131.439 39.4307 131.122 39.818 130.898 40.322C130.674 40.8167 130.562 41.414 130.562 42.114C130.562 42.8047 130.674 43.402 130.898 43.906C131.122 44.41 131.439 44.7973 131.85 45.068C132.27 45.3387 132.769 45.474 133.348 45.474C133.973 45.474 134.477 45.3387 134.86 45.068C135.243 44.788 135.495 44.4007 135.616 43.906H137.688C137.501 44.9233 137.03 45.7213 136.274 46.3C135.518 46.8787 134.547 47.168 133.362 47.168ZM139.26 47V39.944H140.94L141.122 41.246C141.29 40.938 141.5 40.6767 141.752 40.462C142.013 40.2473 142.307 40.0793 142.634 39.958C142.97 39.8367 143.339 39.776 143.74 39.776V41.778H143.096C142.816 41.778 142.555 41.8107 142.312 41.876C142.079 41.9413 141.873 42.0487 141.696 42.198C141.519 42.338 141.383 42.534 141.29 42.786C141.197 43.038 141.15 43.3553 141.15 43.738V47H139.26ZM148.267 47.168C147.558 47.168 146.928 47.0187 146.377 46.72C145.836 46.412 145.411 45.9873 145.103 45.446C144.804 44.8953 144.655 44.2607 144.655 43.542C144.655 42.8047 144.804 42.156 145.103 41.596C145.411 41.0267 145.836 40.5833 146.377 40.266C146.918 39.9393 147.548 39.776 148.267 39.776C148.967 39.776 149.578 39.93 150.101 40.238C150.624 40.546 151.03 40.9613 151.319 41.484C151.608 42.0067 151.753 42.5993 151.753 43.262C151.753 43.3553 151.753 43.4627 151.753 43.584C151.753 43.696 151.744 43.8127 151.725 43.934H145.999V42.786H149.849C149.821 42.3287 149.658 41.9693 149.359 41.708C149.07 41.4467 148.706 41.316 148.267 41.316C147.95 41.316 147.656 41.3907 147.385 41.54C147.114 41.68 146.9 41.8993 146.741 42.198C146.592 42.4967 146.517 42.8747 146.517 43.332V43.738C146.517 44.1207 146.587 44.4567 146.727 44.746C146.876 45.026 147.082 45.2453 147.343 45.404C147.604 45.5533 147.908 45.628 148.253 45.628C148.598 45.628 148.883 45.5533 149.107 45.404C149.34 45.2547 149.513 45.0633 149.625 44.83H151.557C151.426 45.2687 151.207 45.6653 150.899 46.02C150.591 46.3747 150.213 46.6547 149.765 46.86C149.317 47.0653 148.818 47.168 148.267 47.168ZM155.681 47.168C155.093 47.168 154.608 47.0747 154.225 46.888C153.842 46.692 153.558 46.4353 153.371 46.118C153.194 45.7913 153.105 45.432 153.105 45.04C153.105 44.6107 153.212 44.2327 153.427 43.906C153.651 43.5793 153.982 43.3227 154.421 43.136C154.869 42.9493 155.429 42.856 156.101 42.856H157.851C157.851 42.5107 157.804 42.226 157.711 42.002C157.618 41.7687 157.473 41.596 157.277 41.484C157.081 41.372 156.82 41.316 156.493 41.316C156.138 41.316 155.835 41.3953 155.583 41.554C155.34 41.7033 155.191 41.9367 155.135 42.254H153.301C153.348 41.75 153.511 41.316 153.791 40.952C154.08 40.5787 154.458 40.2893 154.925 40.084C155.401 39.8787 155.928 39.776 156.507 39.776C157.17 39.776 157.744 39.888 158.229 40.112C158.714 40.336 159.088 40.658 159.349 41.078C159.61 41.498 159.741 42.016 159.741 42.632V47H158.145L157.935 45.922C157.832 46.1087 157.711 46.2767 157.571 46.426C157.431 46.5753 157.268 46.706 157.081 46.818C156.894 46.93 156.684 47.014 156.451 47.07C156.218 47.1353 155.961 47.168 155.681 47.168ZM156.129 45.712C156.372 45.712 156.586 45.67 156.773 45.586C156.969 45.4927 157.137 45.3713 157.277 45.222C157.417 45.0633 157.524 44.886 157.599 44.69C157.683 44.4847 157.739 44.2653 157.767 44.032V44.018H156.325C156.036 44.018 155.798 44.0553 155.611 44.13C155.434 44.1953 155.303 44.2933 155.219 44.424C155.135 44.5547 155.093 44.704 155.093 44.872C155.093 45.0587 155.135 45.2127 155.219 45.334C155.303 45.4553 155.424 45.5487 155.583 45.614C155.742 45.6793 155.924 45.712 156.129 45.712ZM164.6 47C164.105 47 163.671 46.9253 163.298 46.776C162.934 46.6173 162.649 46.3607 162.444 46.006C162.239 45.642 162.136 45.1473 162.136 44.522V41.526H160.932V39.944H162.136L162.346 38.026H164.026V39.944H165.888V41.526H164.026V44.55C164.026 44.8673 164.096 45.0867 164.236 45.208C164.376 45.3293 164.614 45.39 164.95 45.39H165.874V47H164.6ZM170.689 47.168C169.98 47.168 169.35 47.0187 168.799 46.72C168.258 46.412 167.833 45.9873 167.525 45.446C167.226 44.8953 167.077 44.2607 167.077 43.542C167.077 42.8047 167.226 42.156 167.525 41.596C167.833 41.0267 168.258 40.5833 168.799 40.266C169.34 39.9393 169.97 39.776 170.689 39.776C171.389 39.776 172 39.93 172.523 40.238C173.046 40.546 173.452 40.9613 173.741 41.484C174.03 42.0067 174.175 42.5993 174.175 43.262C174.175 43.3553 174.175 43.4627 174.175 43.584C174.175 43.696 174.166 43.8127 174.147 43.934H168.421V42.786H172.271C172.243 42.3287 172.08 41.9693 171.781 41.708C171.492 41.4467 171.128 41.316 170.689 41.316C170.372 41.316 170.078 41.3907 169.807 41.54C169.536 41.68 169.322 41.8993 169.163 42.198C169.014 42.4967 168.939 42.8747 168.939 43.332V43.738C168.939 44.1207 169.009 44.4567 169.149 44.746C169.298 45.026 169.504 45.2453 169.765 45.404C170.026 45.5533 170.33 45.628 170.675 45.628C171.02 45.628 171.305 45.5533 171.529 45.404C171.762 45.2547 171.935 45.0633 172.047 44.83H173.979C173.848 45.2687 173.629 45.6653 173.321 46.02C173.013 46.3747 172.635 46.6547 172.187 46.86C171.739 47.0653 171.24 47.168 170.689 47.168ZM178.402 47L181.986 37.2H184.128L187.698 47H185.696L183.05 39.356L180.39 47H178.402ZM179.984 44.774L180.488 43.304H185.472L185.962 44.774H179.984ZM192.031 47.168C191.322 47.168 190.692 47.0093 190.141 46.692C189.591 46.3747 189.161 45.9407 188.853 45.39C188.545 44.8393 188.391 44.2093 188.391 43.5C188.391 42.772 188.545 42.1327 188.853 41.582C189.161 41.022 189.591 40.5833 190.141 40.266C190.692 39.9393 191.322 39.776 192.031 39.776C192.937 39.776 193.697 40.014 194.313 40.49C194.929 40.966 195.321 41.6193 195.489 42.45H193.487C193.403 42.1233 193.226 41.8667 192.955 41.68C192.694 41.4933 192.381 41.4 192.017 41.4C191.691 41.4 191.397 41.484 191.135 41.652C190.883 41.8107 190.683 42.0487 190.533 42.366C190.393 42.674 190.323 43.0427 190.323 43.472C190.323 43.7987 190.365 44.0927 190.449 44.354C190.533 44.606 190.65 44.8253 190.799 45.012C190.949 45.1893 191.126 45.3247 191.331 45.418C191.546 45.5113 191.775 45.558 192.017 45.558C192.26 45.558 192.479 45.516 192.675 45.432C192.881 45.348 193.053 45.2313 193.193 45.082C193.333 44.9233 193.431 44.732 193.487 44.508H195.489C195.321 45.32 194.925 45.9687 194.299 46.454C193.683 46.93 192.927 47.168 192.031 47.168ZM200.535 47.168C199.826 47.168 199.196 47.0093 198.645 46.692C198.095 46.3747 197.665 45.9407 197.357 45.39C197.049 44.8393 196.895 44.2093 196.895 43.5C196.895 42.772 197.049 42.1327 197.357 41.582C197.665 41.022 198.095 40.5833 198.645 40.266C199.196 39.9393 199.826 39.776 200.535 39.776C201.441 39.776 202.201 40.014 202.817 40.49C203.433 40.966 203.825 41.6193 203.993 42.45H201.991C201.907 42.1233 201.73 41.8667 201.459 41.68C201.198 41.4933 200.885 41.4 200.521 41.4C200.195 41.4 199.901 41.484 199.639 41.652C199.387 41.8107 199.187 42.0487 199.037 42.366C198.897 42.674 198.827 43.0427 198.827 43.472C198.827 43.7987 198.869 44.0927 198.953 44.354C199.037 44.606 199.154 44.8253 199.303 45.012C199.453 45.1893 199.63 45.3247 199.835 45.418C200.05 45.5113 200.279 45.558 200.521 45.558C200.764 45.558 200.983 45.516 201.179 45.432C201.385 45.348 201.557 45.2313 201.697 45.082C201.837 44.9233 201.935 44.732 201.991 44.508H203.993C203.825 45.32 203.429 45.9687 202.803 46.454C202.187 46.93 201.431 47.168 200.535 47.168ZM209.011 47.168C208.302 47.168 207.672 47.0187 207.121 46.72C206.58 46.412 206.155 45.9873 205.847 45.446C205.549 44.8953 205.399 44.2607 205.399 43.542C205.399 42.8047 205.549 42.156 205.847 41.596C206.155 41.0267 206.58 40.5833 207.121 40.266C207.663 39.9393 208.293 39.776 209.011 39.776C209.711 39.776 210.323 39.93 210.845 40.238C211.368 40.546 211.774 40.9613 212.063 41.484C212.353 42.0067 212.497 42.5993 212.497 43.262C212.497 43.3553 212.497 43.4627 212.497 43.584C212.497 43.696 212.488 43.8127 212.469 43.934H206.743V42.786H210.593C210.565 42.3287 210.402 41.9693 210.103 41.708C209.814 41.4467 209.45 41.316 209.011 41.316C208.694 41.316 208.4 41.3907 208.129 41.54C207.859 41.68 207.644 41.8993 207.485 42.198C207.336 42.4967 207.261 42.8747 207.261 43.332V43.738C207.261 44.1207 207.331 44.4567 207.471 44.746C207.621 45.026 207.826 45.2453 208.087 45.404C208.349 45.5533 208.652 45.628 208.997 45.628C209.343 45.628 209.627 45.5533 209.851 45.404C210.085 45.2547 210.257 45.0633 210.369 44.83H212.301C212.171 45.2687 211.951 45.6653 211.643 46.02C211.335 46.3747 210.957 46.6547 210.509 46.86C210.061 47.0653 209.562 47.168 209.011 47.168ZM216.929 47.168C216.285 47.168 215.725 47.0653 215.249 46.86C214.773 46.6547 214.4 46.37 214.129 46.006C213.858 45.642 213.704 45.2313 213.667 44.774H215.543C215.59 44.9513 215.669 45.1147 215.781 45.264C215.893 45.404 216.042 45.516 216.229 45.6C216.416 45.684 216.64 45.726 216.901 45.726C217.153 45.726 217.358 45.6933 217.517 45.628C217.676 45.5533 217.792 45.4553 217.867 45.334C217.951 45.2127 217.993 45.0867 217.993 44.956C217.993 44.76 217.937 44.6107 217.825 44.508C217.713 44.396 217.55 44.3073 217.335 44.242C217.12 44.1767 216.859 44.1113 216.551 44.046C216.215 43.9807 215.884 43.9013 215.557 43.808C215.24 43.7053 214.955 43.5793 214.703 43.43C214.451 43.2807 214.25 43.0893 214.101 42.856C213.952 42.6227 213.877 42.3333 213.877 41.988C213.877 41.568 213.989 41.1947 214.213 40.868C214.437 40.532 214.764 40.266 215.193 40.07C215.622 39.874 216.14 39.776 216.747 39.776C217.596 39.776 218.268 39.9673 218.763 40.35C219.258 40.7327 219.552 41.26 219.645 41.932H217.867C217.811 41.7173 217.685 41.5493 217.489 41.428C217.302 41.2973 217.05 41.232 216.733 41.232C216.397 41.232 216.14 41.2927 215.963 41.414C215.786 41.5353 215.697 41.694 215.697 41.89C215.697 42.0207 215.753 42.1373 215.865 42.24C215.986 42.3427 216.154 42.4313 216.369 42.506C216.584 42.5713 216.845 42.6367 217.153 42.702C217.694 42.814 218.17 42.9447 218.581 43.094C218.992 43.234 219.314 43.4393 219.547 43.71C219.78 43.9713 219.897 44.354 219.897 44.858C219.897 45.306 219.776 45.7073 219.533 46.062C219.29 46.4073 218.945 46.678 218.497 46.874C218.058 47.07 217.536 47.168 216.929 47.168ZM224.38 47.168C223.736 47.168 223.176 47.0653 222.7 46.86C222.224 46.6547 221.851 46.37 221.58 46.006C221.31 45.642 221.156 45.2313 221.118 44.774H222.994C223.041 44.9513 223.12 45.1147 223.232 45.264C223.344 45.404 223.494 45.516 223.68 45.6C223.867 45.684 224.091 45.726 224.352 45.726C224.604 45.726 224.81 45.6933 224.968 45.628C225.127 45.5533 225.244 45.4553 225.318 45.334C225.402 45.2127 225.444 45.0867 225.444 44.956C225.444 44.76 225.388 44.6107 225.276 44.508C225.164 44.396 225.001 44.3073 224.786 44.242C224.572 44.1767 224.31 44.1113 224.002 44.046C223.666 43.9807 223.335 43.9013 223.008 43.808C222.691 43.7053 222.406 43.5793 222.154 43.43C221.902 43.2807 221.702 43.0893 221.552 42.856C221.403 42.6227 221.328 42.3333 221.328 41.988C221.328 41.568 221.44 41.1947 221.664 40.868C221.888 40.532 222.215 40.266 222.644 40.07C223.074 39.874 223.592 39.776 224.198 39.776C225.048 39.776 225.72 39.9673 226.214 40.35C226.709 40.7327 227.003 41.26 227.096 41.932H225.318C225.262 41.7173 225.136 41.5493 224.94 41.428C224.754 41.2973 224.502 41.232 224.184 41.232C223.848 41.232 223.592 41.2927 223.414 41.414C223.237 41.5353 223.148 41.694 223.148 41.89C223.148 42.0207 223.204 42.1373 223.316 42.24C223.438 42.3427 223.606 42.4313 223.82 42.506C224.035 42.5713 224.296 42.6367 224.604 42.702C225.146 42.814 225.622 42.9447 226.032 43.094C226.443 43.234 226.765 43.4393 226.998 43.71C227.232 43.9713 227.348 44.354 227.348 44.858C227.348 45.306 227.227 45.7073 226.984 46.062C226.742 46.4073 226.396 46.678 225.948 46.874C225.51 47.07 224.987 47.168 224.38 47.168ZM234.566 47V38.726H231.696V37.2H239.298V38.726H236.442V47H234.566ZM242.67 47.168C241.998 47.168 241.391 47.014 240.85 46.706C240.318 46.3887 239.893 45.9547 239.576 45.404C239.268 44.844 239.114 44.2047 239.114 43.486C239.114 42.7487 239.268 42.1047 239.576 41.554C239.893 40.994 240.323 40.56 240.864 40.252C241.405 39.9347 242.012 39.776 242.684 39.776C243.365 39.776 243.972 39.9347 244.504 40.252C245.045 40.56 245.47 40.994 245.778 41.554C246.095 42.1047 246.254 42.744 246.254 43.472C246.254 44.2 246.095 44.844 245.778 45.404C245.47 45.9547 245.045 46.3887 244.504 46.706C243.963 47.014 243.351 47.168 242.67 47.168ZM242.67 45.53C242.987 45.53 243.267 45.4553 243.51 45.306C243.762 45.1567 243.958 44.928 244.098 44.62C244.247 44.312 244.322 43.9293 244.322 43.472C244.322 43.0147 244.247 42.6367 244.098 42.338C243.958 42.03 243.762 41.8013 243.51 41.652C243.267 41.4933 242.992 41.414 242.684 41.414C242.385 41.414 242.11 41.4933 241.858 41.652C241.606 41.8013 241.405 42.03 241.256 42.338C241.116 42.6367 241.046 43.0147 241.046 43.472C241.046 43.9293 241.116 44.312 241.256 44.62C241.405 44.928 241.601 45.1567 241.844 45.306C242.096 45.4553 242.371 45.53 242.67 45.53ZM252.503 47L249.493 43.136L252.195 39.944H254.421L250.935 43.934V42.436L254.855 47H252.503ZM247.883 47V36.92H249.773V47H247.883ZM258.777 47.168C258.068 47.168 257.438 47.0187 256.887 46.72C256.346 46.412 255.921 45.9873 255.613 45.446C255.314 44.8953 255.165 44.2607 255.165 43.542C255.165 42.8047 255.314 42.156 255.613 41.596C255.921 41.0267 256.346 40.5833 256.887 40.266C257.428 39.9393 258.058 39.776 258.777 39.776C259.477 39.776 260.088 39.93 260.611 40.238C261.134 40.546 261.54 40.9613 261.829 41.484C262.118 42.0067 262.263 42.5993 262.263 43.262C262.263 43.3553 262.263 43.4627 262.263 43.584C262.263 43.696 262.254 43.8127 262.235 43.934H256.509V42.786H260.359C260.331 42.3287 260.168 41.9693 259.869 41.708C259.58 41.4467 259.216 41.316 258.777 41.316C258.46 41.316 258.166 41.3907 257.895 41.54C257.624 41.68 257.41 41.8993 257.251 42.198C257.102 42.4967 257.027 42.8747 257.027 43.332V43.738C257.027 44.1207 257.097 44.4567 257.237 44.746C257.386 45.026 257.592 45.2453 257.853 45.404C258.114 45.5533 258.418 45.628 258.763 45.628C259.108 45.628 259.393 45.5533 259.617 45.404C259.85 45.2547 260.023 45.0633 260.135 44.83H262.067C261.936 45.2687 261.717 45.6653 261.409 46.02C261.101 46.3747 260.723 46.6547 260.275 46.86C259.827 47.0653 259.328 47.168 258.777 47.168ZM263.811 47V39.944H265.477L265.617 41.092C265.831 40.7 266.135 40.3827 266.527 40.14C266.928 39.8973 267.404 39.776 267.955 39.776C268.543 39.776 269.037 39.8973 269.439 40.14C269.84 40.3827 270.143 40.7373 270.349 41.204C270.563 41.6707 270.671 42.2447 270.671 42.926V47H268.795V43.108C268.795 42.548 268.673 42.1187 268.431 41.82C268.197 41.5213 267.833 41.372 267.339 41.372C267.021 41.372 266.737 41.4467 266.485 41.596C266.242 41.7453 266.051 41.96 265.911 42.24C265.771 42.5107 265.701 42.842 265.701 43.234V47H263.811Z" fill="#1E1E1F"/>
<rect x="340" y="24" width="36" height="36" rx="12" fill="#F5F6F7"/>
<path d="M363 37L353 47M353 37L363 47" stroke="#1E1E1F" stroke-width="2" stroke-linecap="round" stroke-linejoin="round"/>
<path d="M24.852 409V400.6H27.996C28.668 400.6 29.224 400.716 29.664 400.948C30.104 401.18 30.432 401.492 30.648 401.884C30.872 402.268 30.984 402.696 30.984 403.168C30.984 403.616 30.876 404.036 30.66 404.428C30.452 404.812 30.124 405.124 29.676 405.364C29.236 405.596 28.668 405.712 27.972 405.712H26.472V409H24.852ZM29.208 409L27.48 405.304H29.232L31.056 409H29.208ZM26.472 404.536H27.888C28.384 404.536 28.748 404.416 28.98 404.176C29.212 403.936 29.328 403.62 29.328 403.228C29.328 402.836 29.212 402.528 28.98 402.304C28.748 402.072 28.384 401.956 27.888 401.956H26.472V404.536ZM32.9375 409V400.6H38.4575V401.908H34.5575V404.104H38.0975V405.364H34.5575V407.692H38.4575V409H32.9375ZM44.1207 409.144C43.3287 409.144 42.6327 408.968 42.0327 408.616C41.4407 408.256 40.9807 407.756 40.6527 407.116C40.3247 406.468 40.1607 405.716 40.1607 404.86C40.1607 403.996 40.3287 403.236 40.6647 402.58C41.0007 401.916 41.4847 401.396 42.1167 401.02C42.7567 400.644 43.5127 400.456 44.3847 400.456C45.3767 400.456 46.1967 400.692 46.8447 401.164C47.5007 401.636 47.9207 402.292 48.1047 403.132H46.3047C46.1847 402.764 45.9607 402.476 45.6327 402.268C45.3047 402.052 44.8847 401.944 44.3727 401.944C43.8287 401.944 43.3647 402.064 42.9807 402.304C42.5967 402.544 42.3047 402.88 42.1047 403.312C41.9047 403.744 41.8047 404.26 41.8047 404.86C41.8047 405.468 41.9047 405.984 42.1047 406.408C42.3047 406.832 42.5887 407.156 42.9567 407.38C43.3327 407.596 43.7727 407.704 44.2767 407.704C45.0127 407.704 45.5687 407.508 45.9447 407.116C46.3287 406.716 46.5567 406.2 46.6287 405.568H44.5647V404.356H48.2607V409H46.7727L46.6407 407.932C46.4647 408.196 46.2567 408.42 46.0167 408.604C45.7847 408.78 45.5127 408.912 45.2007 409C44.8887 409.096 44.5287 409.144 44.1207 409.144ZM50.3037 409V400.6H51.9237V409H50.3037ZM57.9038 409.144C57.0958 409.144 56.3838 408.96 55.7678 408.592C55.1598 408.224 54.6838 407.716 54.3398 407.068C53.9958 406.412 53.8238 405.656 53.8238 404.8C53.8238 403.944 53.9958 403.192 54.3398 402.544C54.6838 401.888 55.1598 401.376 55.7678 401.008C56.3838 400.64 57.0958 400.456 57.9038 400.456C58.7118 400.456 59.4198 400.64 60.0278 401.008C60.6438 401.376 61.1238 401.888 61.4678 402.544C61.8118 403.192 61.9838 403.944 61.9838 404.8C61.9838 405.656 61.8118 406.412 61.4678 407.068C61.1238 407.716 60.6438 408.224 60.0278 408.592C59.4198 408.96 58.7118 409.144 57.9038 409.144ZM57.9038 407.692C58.3998 407.692 58.8278 407.576 59.1878 407.344C59.5558 407.104 59.8358 406.768 60.0278 406.336C60.2278 405.904 60.3278 405.392 60.3278 404.8C60.3278 404.2 60.2278 403.688 60.0278 403.264C59.8358 402.832 59.5558 402.5 59.1878 402.268C58.8278 402.036 58.3998 401.92 57.9038 401.92C57.4158 401.92 56.9878 402.036 56.6198 402.268C56.2518 402.5 55.9678 402.832 55.7678 403.264C55.5678 403.688 55.4678 404.2 55.4678 404.8C55.4678 405.392 55.5678 405.904 55.7678 406.336C55.9678 406.768 56.2518 407.104 56.6198 407.344C56.9878 407.576 57.4158 407.692 57.9038 407.692ZM63.8848 409V400.6H65.5048L69.3688 406.396V400.6H70.9888V409H69.3688L65.5048 403.216V409H63.8848ZM76.0693 409.144C75.4613 409.144 74.9173 409.04 74.4373 408.832C73.9653 408.624 73.5893 408.32 73.3093 407.92C73.0373 407.52 72.8973 407.036 72.8893 406.468H74.6053C74.6133 406.716 74.6773 406.94 74.7973 407.14C74.9173 407.34 75.0813 407.5 75.2893 407.62C75.5053 407.732 75.7613 407.788 76.0573 407.788C76.3133 407.788 76.5333 407.748 76.7173 407.668C76.9093 407.58 77.0573 407.46 77.1613 407.308C77.2653 407.156 77.3173 406.976 77.3173 406.768C77.3173 406.544 77.2613 406.352 77.1493 406.192C77.0373 406.032 76.8813 405.896 76.6813 405.784C76.4813 405.664 76.2493 405.556 75.9853 405.46C75.7293 405.364 75.4533 405.268 75.1573 405.172C74.4693 404.956 73.9493 404.668 73.5973 404.308C73.2453 403.94 73.0693 403.46 73.0693 402.868C73.0693 402.364 73.1893 401.932 73.4293 401.572C73.6773 401.212 74.0173 400.936 74.4493 400.744C74.8813 400.552 75.3733 400.456 75.9253 400.456C76.4933 400.456 76.9893 400.556 77.4133 400.756C77.8453 400.948 78.1853 401.228 78.4333 401.596C78.6893 401.964 78.8253 402.396 78.8413 402.892H77.1013C77.0933 402.708 77.0373 402.536 76.9333 402.376C76.8373 402.208 76.7013 402.076 76.5253 401.98C76.3493 401.876 76.1413 401.824 75.9013 401.824C75.6933 401.816 75.5013 401.848 75.3253 401.92C75.1573 401.992 75.0253 402.1 74.9293 402.244C74.8333 402.38 74.7853 402.552 74.7853 402.76C74.7853 402.96 74.8333 403.128 74.9293 403.264C75.0253 403.4 75.1613 403.52 75.3373 403.624C75.5133 403.72 75.7213 403.812 75.9613 403.9C76.2013 403.98 76.4613 404.064 76.7413 404.152C77.1573 404.296 77.5413 404.468 77.8933 404.668C78.2453 404.86 78.5253 405.112 78.7333 405.424C78.9413 405.736 79.0453 406.148 79.0453 406.66C79.0453 407.1 78.9293 407.508 78.6973 407.884C78.4733 408.26 78.1413 408.564 77.7013 408.796C77.2613 409.028 76.7173 409.144 76.0693 409.144ZM90.4778 409L86.0018 404.5C85.6338 404.132 85.3778 403.796 85.2338 403.492C85.0898 403.188 85.0178 402.872 85.0178 402.544C85.0178 402.152 85.1138 401.8 85.3058 401.488C85.4978 401.168 85.7818 400.916 86.1578 400.732C86.5338 400.548 86.9898 400.456 87.5258 400.456C88.0618 400.456 88.5098 400.552 88.8698 400.744C89.2298 400.936 89.5018 401.192 89.6858 401.512C89.8778 401.824 89.9738 402.176 89.9738 402.568H88.4258C88.4178 402.28 88.3258 402.064 88.1498 401.92C87.9738 401.768 87.7578 401.692 87.5018 401.692C87.2058 401.692 86.9738 401.772 86.8058 401.932C86.6378 402.084 86.5538 402.284 86.5538 402.532C86.5538 402.724 86.6098 402.924 86.7218 403.132C86.8418 403.34 87.0258 403.572 87.2738 403.828L92.4098 409H90.4778ZM86.9138 409.132C86.3138 409.132 85.7898 409.028 85.3418 408.82C84.9018 408.604 84.5618 408.304 84.3218 407.92C84.0818 407.536 83.9618 407.084 83.9618 406.564C83.9618 406.156 84.0418 405.784 84.2018 405.448C84.3618 405.104 84.6058 404.8 84.9338 404.536C85.2698 404.272 85.6858 404.06 86.1818 403.9L86.7458 403.708L87.4658 404.716L86.9498 404.884C86.4698 405.036 86.1138 405.248 85.8818 405.52C85.6498 405.792 85.5338 406.104 85.5338 406.456C85.5338 406.712 85.5938 406.944 85.7138 407.152C85.8338 407.352 86.0058 407.512 86.2298 407.632C86.4538 407.744 86.7218 407.8 87.0338 407.8C87.4578 407.8 87.8338 407.708 88.1618 407.524C88.4978 407.332 88.8178 407.024 89.1218 406.6C89.2658 406.408 89.4058 406.196 89.5418 405.964C89.6778 405.724 89.8178 405.456 89.9618 405.16L90.2138 404.632H91.8578L91.4378 405.508C91.2458 405.9 91.0498 406.264 90.8498 406.6C90.6578 406.936 90.4538 407.232 90.2378 407.488C89.7898 408.056 89.2938 408.472 88.7498 408.736C88.2138 409 87.6018 409.132 86.9138 409.132ZM96.9393 409L100.011 400.6H101.847L104.907 409H103.191L100.923 402.448L98.6433 409H96.9393ZM98.2953 407.092L98.7273 405.832H102.999L103.419 407.092H98.2953ZM107.872 409L104.812 400.6H106.54L108.868 407.344L111.208 400.6H112.912L109.864 409H107.872ZM112.817 409L115.889 400.6H117.725L120.785 409H119.069L116.801 402.448L114.521 409H112.817ZM114.173 407.092L114.605 405.832H118.877L119.297 407.092H114.173ZM122.393 409V400.6H124.013V409H122.393ZM126.201 409V400.6H127.821V407.74H131.505V409H126.201ZM132.843 409L135.915 400.6H137.751L140.811 409H139.095L136.827 402.448L134.547 409H132.843ZM134.199 407.092L134.631 405.832H138.903L139.323 407.092H134.199ZM142.419 409V400.6H145.863C146.447 400.6 146.939 400.692 147.339 400.876C147.739 401.06 148.039 401.316 148.239 401.644C148.447 401.964 148.551 402.336 148.551 402.76C148.551 403.184 148.459 403.54 148.275 403.828C148.091 404.116 147.847 404.34 147.543 404.5C147.247 404.652 146.919 404.74 146.559 404.764L146.751 404.632C147.135 404.648 147.475 404.752 147.771 404.944C148.075 405.128 148.311 405.376 148.479 405.688C148.655 406 148.743 406.34 148.743 406.708C148.743 407.156 148.635 407.552 148.419 407.896C148.203 408.24 147.891 408.512 147.483 408.712C147.075 408.904 146.575 409 145.983 409H142.419ZM144.039 407.68H145.719C146.159 407.68 146.499 407.58 146.739 407.38C146.979 407.18 147.099 406.892 147.099 406.516C147.099 406.14 146.975 405.848 146.727 405.64C146.479 405.424 146.135 405.316 145.695 405.316H144.039V407.68ZM144.039 404.104H145.599C146.023 404.104 146.347 404.008 146.571 403.816C146.795 403.624 146.907 403.352 146.907 403C146.907 402.656 146.795 402.388 146.571 402.196C146.347 401.996 146.019 401.896 145.587 401.896H144.039V404.104ZM150.586 409V400.6H152.206V409H150.586ZM154.394 409V400.6H156.014V407.74H159.698V409H154.394ZM161.613 409V400.6H163.233V409H161.613ZM167.365 409V401.908H164.905V400.6H171.421V401.908H168.973V409H167.365ZM175.256 409V406.048L172.424 400.6H174.26L176.18 404.62H175.976L177.884 400.6H179.708L176.876 406.048V409H175.256ZM184.292 409V407.752L188.228 401.944H184.316V400.6H190.1V401.848L186.14 407.656H190.112V409H184.292ZM195.602 409.144C194.794 409.144 194.082 408.96 193.466 408.592C192.858 408.224 192.382 407.716 192.038 407.068C191.694 406.412 191.522 405.656 191.522 404.8C191.522 403.944 191.694 403.192 192.038 402.544C192.382 401.888 192.858 401.376 193.466 401.008C194.082 400.64 194.794 400.456 195.602 400.456C196.41 400.456 197.118 400.64 197.726 401.008C198.342 401.376 198.822 401.888 199.166 402.544C199.51 403.192 199.682 403.944 199.682 404.8C199.682 405.656 199.51 406.412 199.166 407.068C198.822 407.716 198.342 408.224 197.726 408.592C197.118 408.96 196.41 409.144 195.602 409.144ZM195.602 407.692C196.098 407.692 196.526 407.576 196.886 407.344C197.254 407.104 197.534 406.768 197.726 406.336C197.926 405.904 198.026 405.392 198.026 404.8C198.026 404.2 197.926 403.688 197.726 403.264C197.534 402.832 197.254 402.5 196.886 402.268C196.526 402.036 196.098 401.92 195.602 401.92C195.114 401.92 194.686 402.036 194.318 402.268C193.95 402.5 193.666 402.832 193.466 403.264C193.266 403.688 193.166 404.2 193.166 404.8C193.166 405.392 193.266 405.904 193.466 406.336C193.666 406.768 193.95 407.104 194.318 407.344C194.686 407.576 195.114 407.692 195.602 407.692ZM201.582 409V400.6H203.202L207.066 406.396V400.6H208.686V409H207.066L203.202 403.216V409H201.582ZM210.875 409V400.6H216.395V401.908H212.495V404.104H216.035V405.364H212.495V407.692H216.395V409H210.875ZM221.278 409.144C220.67 409.144 220.126 409.04 219.646 408.832C219.174 408.624 218.798 408.32 218.518 407.92C218.246 407.52 218.106 407.036 218.098 406.468H219.814C219.822 406.716 219.886 406.94 220.006 407.14C220.126 407.34 220.29 407.5 220.498 407.62C220.714 407.732 220.97 407.788 221.266 407.788C221.522 407.788 221.742 407.748 221.926 407.668C222.118 407.58 222.266 407.46 222.37 407.308C222.474 407.156 222.526 406.976 222.526 406.768C222.526 406.544 222.47 406.352 222.358 406.192C222.246 406.032 222.09 405.896 221.89 405.784C221.69 405.664 221.458 405.556 221.194 405.46C220.938 405.364 220.662 405.268 220.366 405.172C219.678 404.956 219.158 404.668 218.806 404.308C218.454 403.94 218.278 403.46 218.278 402.868C218.278 402.364 218.398 401.932 218.638 401.572C218.886 401.212 219.226 400.936 219.658 400.744C220.09 400.552 220.582 400.456 221.134 400.456C221.702 400.456 222.198 400.556 222.622 400.756C223.054 400.948 223.394 401.228 223.642 401.596C223.898 401.964 224.034 402.396 224.05 402.892H222.31C222.302 402.708 222.246 402.536 222.142 402.376C222.046 402.208 221.91 402.076 221.734 401.98C221.558 401.876 221.35 401.824 221.11 401.824C220.902 401.816 220.71 401.848 220.534 401.92C220.366 401.992 220.234 402.1 220.138 402.244C220.042 402.38 219.994 402.552 219.994 402.76C219.994 402.96 220.042 403.128 220.138 403.264C220.234 403.4 220.37 403.52 220.546 403.624C220.722 403.72 220.93 403.812 221.17 403.9C221.41 403.98 221.67 404.064 221.95 404.152C222.366 404.296 222.75 404.468 223.102 404.668C223.454 404.86 223.734 405.112 223.942 405.424C224.15 405.736 224.254 406.148 224.254 406.66C224.254 407.1 224.138 407.508 223.906 407.884C223.682 408.26 223.35 408.564 222.91 408.796C222.47 409.028 221.926 409.144 221.278 409.144Z" fill="#8E8E93"/>
<rect x="25" y="421" width="350" height="42" rx="11" fill="white"/>
<rect x="25" y="421" width="350" height="42" rx="11" stroke="#EDEDF0" stroke-width="2"/>
<g clip-path="url(#clip0_618_7615)">
<rect x="38.834" y="435.332" width="18.3333" height="13.0952" rx="3" fill="white"/>
<path fill-rule="evenodd" clip-rule="evenodd" d="M38.834 435.332H46.6911V441.443H38.834V435.332Z" fill="#1A47B8"/>
<path fill-rule="evenodd" clip-rule="evenodd" d="M46.6911 435.332V436.205H57.1673V435.332H46.6911ZM46.6911 437.078V437.951H57.1673V437.078H46.6911ZM46.6911 438.824V439.697H57.1673V438.824H46.6911ZM46.6911 440.57V441.443H57.1673V440.57H46.6911ZM38.834 442.316V443.189H57.1673V442.316H38.834ZM38.834 444.062V444.935H57.1673V444.062H38.834ZM38.834 445.808V446.681H57.1673V445.808H38.834ZM38.834 447.554V448.427H57.1673V447.554H38.834Z" fill="#F93939"/>
<path fill-rule="evenodd" clip-rule="evenodd" d="M39.707 436.203V437.076H40.58V436.203H39.707ZM41.4531 436.203V437.076H42.3261V436.203H41.4531ZM43.1991 436.203V437.076H44.0721V436.203H43.1991ZM44.9451 436.203V437.076H45.8181V436.203H44.9451ZM44.0721 437.076V437.949H44.9451V437.076H44.0721ZM42.3261 437.076V437.949H43.1991V437.076H42.3261ZM40.58 437.076V437.949H41.4531V437.076H40.58ZM39.707 437.949V438.822H40.58V437.949H39.707ZM41.4531 437.949V438.822H42.3261V437.949H41.4531ZM43.1991 437.949V438.822H44.0721V437.949H43.1991ZM44.9451 437.949V438.822H45.8181V437.949H44.9451ZM39.707 439.695V440.568H40.58V439.695H39.707ZM41.4531 439.695V440.568H42.3261V439.695H41.4531ZM43.1991 439.695V440.568H44.0721V439.695H43.1991ZM44.9451 439.695V440.568H45.8181V439.695H44.9451ZM44.0721 438.822V439.695H44.9451V438.822H44.0721ZM42.3261 438.822V439.695H43.1991V438.822H42.3261ZM40.58 438.822V439.695H41.4531V438.822H40.58Z" fill="white"/>
</g>
<path d="M75.296 447.192C74.5067 447.192 73.792 447.037 73.152 446.728C72.512 446.408 72 445.928 71.616 445.288C71.2427 444.637 71.056 443.811 71.056 442.808V435.8H72.656V442.824C72.656 443.496 72.768 444.051 72.992 444.488C73.216 444.915 73.5253 445.235 73.92 445.448C74.3253 445.651 74.7947 445.752 75.328 445.752C75.872 445.752 76.3413 445.651 76.736 445.448C77.1307 445.235 77.4347 444.915 77.648 444.488C77.872 444.051 77.984 443.496 77.984 442.824V435.8H79.584V442.808C79.584 443.811 79.392 444.637 79.008 445.288C78.624 445.928 78.1067 446.408 77.456 446.728C76.8053 447.037 76.0853 447.192 75.296 447.192ZM85.4566 447.192C84.646 447.192 83.9313 447.048 83.3126 446.76C82.694 446.461 82.214 446.045 81.8726 445.512C81.5313 444.979 81.3606 444.355 81.3606 443.64H83.0406C83.0406 444.045 83.1366 444.419 83.3286 444.76C83.5206 445.091 83.7926 445.357 84.1446 445.56C84.5073 445.752 84.9446 445.848 85.4566 445.848C85.9153 445.848 86.3046 445.773 86.6246 445.624C86.9446 445.475 87.19 445.272 87.3606 445.016C87.542 444.749 87.6326 444.445 87.6326 444.104C87.6326 443.709 87.542 443.384 87.3606 443.128C87.1793 442.872 86.934 442.664 86.6246 442.504C86.3153 442.333 85.9633 442.184 85.5686 442.056C85.174 441.928 84.7526 441.789 84.3046 441.64C83.43 441.341 82.774 440.968 82.3366 440.52C81.91 440.061 81.6966 439.464 81.6966 438.728C81.6966 438.099 81.8406 437.555 82.1286 437.096C82.4273 436.627 82.8486 436.264 83.3926 436.008C83.9366 435.741 84.5766 435.608 85.3126 435.608C86.038 435.608 86.6673 435.741 87.2006 436.008C87.7446 436.275 88.1713 436.643 88.4806 437.112C88.79 437.581 88.95 438.131 88.9606 438.76H87.2646C87.2646 438.472 87.19 438.189 87.0406 437.912C86.8913 437.635 86.6673 437.411 86.3686 437.24C86.07 437.059 85.702 436.968 85.2646 436.968C84.902 436.957 84.5766 437.016 84.2886 437.144C84.0006 437.272 83.7713 437.459 83.6006 437.704C83.4406 437.949 83.3606 438.243 83.3606 438.584C83.3606 438.925 83.4353 439.203 83.5846 439.416C83.734 439.619 83.9473 439.795 84.2246 439.944C84.502 440.093 84.822 440.232 85.1846 440.36C85.558 440.477 85.9686 440.611 86.4166 440.76C86.9606 440.941 87.4513 441.165 87.8886 441.432C88.326 441.688 88.6673 442.024 88.9126 442.44C89.1686 442.845 89.2966 443.368 89.2966 444.008C89.2966 444.563 89.1526 445.08 88.8646 445.56C88.5766 446.04 88.15 446.435 87.5846 446.744C87.0193 447.043 86.31 447.192 85.4566 447.192ZM90.4793 447L94.5913 435.8H96.3353L100.431 447H98.7353L95.4553 437.72L92.1432 447H90.4793ZM92.3353 444.232L92.7833 442.952H98.0473L98.4953 444.232H92.3353ZM101.019 448.968L101.947 445.272H103.547L102.107 448.968H101.019ZM109.356 447V435.8H110.956L116.668 444.392V435.8H118.268V447H116.668L110.956 438.424V447H109.356ZM124.174 447.192C123.395 447.192 122.707 447.021 122.11 446.68C121.513 446.328 121.043 445.837 120.702 445.208C120.371 444.579 120.206 443.843 120.206 443C120.206 442.157 120.371 441.421 120.702 440.792C121.043 440.163 121.513 439.672 122.11 439.32C122.707 438.957 123.401 438.776 124.19 438.776C124.979 438.776 125.657 438.952 126.222 439.304C126.787 439.645 127.225 440.109 127.534 440.696C127.843 441.272 127.998 441.912 127.998 442.616C127.998 442.723 127.998 442.84 127.998 442.968C127.998 443.085 127.987 443.213 127.966 443.352H121.374V442.232H126.398C126.366 441.571 126.142 441.053 125.726 440.68C125.31 440.296 124.793 440.104 124.174 440.104C123.747 440.104 123.347 440.2 122.974 440.392C122.611 440.584 122.318 440.872 122.094 441.256C121.881 441.629 121.774 442.104 121.774 442.68V443.128C121.774 443.725 121.881 444.227 122.094 444.632C122.318 445.037 122.611 445.347 122.974 445.56C123.337 445.763 123.731 445.864 124.158 445.864C124.67 445.864 125.091 445.752 125.422 445.528C125.763 445.293 126.014 444.984 126.174 444.6H127.774C127.625 445.101 127.385 445.549 127.054 445.944C126.734 446.328 126.329 446.632 125.838 446.856C125.358 447.08 124.803 447.192 124.174 447.192ZM131.079 447L128.727 438.968H130.311L132.071 445.704L131.751 445.688L133.703 438.968H135.495L137.463 445.688H137.127L138.887 438.968H140.487L138.135 447H136.487L134.439 440.008H134.775L132.727 447H131.079ZM148.922 447V442.84L145.226 435.8H147.034L149.946 441.72H149.514L152.394 435.8H154.186L150.522 442.84V447H148.922ZM157.846 447.192C157.089 447.192 156.406 447.021 155.798 446.68C155.201 446.328 154.726 445.837 154.374 445.208C154.033 444.568 153.862 443.827 153.862 442.984C153.862 442.141 154.038 441.405 154.39 440.776C154.742 440.136 155.222 439.645 155.83 439.304C156.438 438.952 157.115 438.776 157.862 438.776C158.63 438.776 159.313 438.952 159.91 439.304C160.518 439.645 160.993 440.131 161.334 440.76C161.686 441.389 161.862 442.131 161.862 442.984C161.862 443.827 161.686 444.568 161.334 445.208C160.982 445.837 160.502 446.328 159.894 446.68C159.297 447.021 158.614 447.192 157.846 447.192ZM157.846 445.816C158.283 445.816 158.678 445.715 159.03 445.512C159.393 445.299 159.681 444.979 159.894 444.552C160.118 444.125 160.23 443.603 160.23 442.984C160.23 442.355 160.123 441.832 159.91 441.416C159.697 440.989 159.409 440.675 159.046 440.472C158.694 440.259 158.305 440.152 157.878 440.152C157.462 440.152 157.067 440.259 156.694 440.472C156.331 440.675 156.038 440.989 155.814 441.416C155.601 441.832 155.494 442.355 155.494 442.984C155.494 443.603 155.601 444.125 155.814 444.552C156.038 444.979 156.326 445.299 156.678 445.512C157.041 445.715 157.43 445.816 157.846 445.816ZM163.729 447V438.968H165.169L165.313 440.488C165.494 440.125 165.723 439.821 166.001 439.576C166.289 439.32 166.625 439.123 167.009 438.984C167.403 438.845 167.846 438.776 168.337 438.776V440.456H167.809C167.467 440.456 167.147 440.499 166.849 440.584C166.55 440.669 166.283 440.808 166.049 441C165.825 441.192 165.649 441.453 165.521 441.784C165.393 442.115 165.329 442.525 165.329 443.016V447H163.729ZM174.894 447L171.166 442.6L174.542 438.968H176.478L172.462 443.208L172.478 442.008L176.91 447H174.894ZM169.822 447V435.48H171.422V447H169.822Z" fill="#1E1E1F"/>
<path d="M347 439.5L352 444.5L357 439.5" stroke="#AEAEB2" stroke-width="2" stroke-linecap="round" stroke-linejoin="round"/>
<path d="M24.276 327L27.348 318.6H29.184L32.244 327H30.528L28.26 320.448L25.98 327H24.276ZM25.632 325.092L26.064 323.832H30.336L30.756 325.092H25.632ZM33.8515 327V318.6H36.9835C37.6635 318.6 38.2275 318.716 38.6755 318.948C39.1235 319.18 39.4555 319.496 39.6715 319.896C39.8955 320.296 40.0075 320.748 40.0075 321.252C40.0075 321.716 39.8995 322.148 39.6835 322.548C39.4755 322.948 39.1475 323.272 38.6995 323.52C38.2595 323.76 37.6875 323.88 36.9835 323.88H35.4715V327H33.8515ZM35.4715 322.572H36.8755C37.4115 322.572 37.7915 322.452 38.0155 322.212C38.2475 321.972 38.3635 321.652 38.3635 321.252C38.3635 320.836 38.2475 320.512 38.0155 320.28C37.7915 320.04 37.4115 319.92 36.8755 319.92H35.4715V322.572ZM41.7495 327V318.6H43.3695V327H41.7495ZM48.8853 327V318.6H50.5053V327H48.8853ZM52.6934 327V318.6H54.3134L58.1774 324.396V318.6H59.7974V327H58.1774L54.3134 321.216V327H52.6934ZM63.9299 327V319.908H61.4699V318.6H67.9859V319.908H65.5379V327H63.9299ZM69.6612 327V318.6H75.1812V319.908H71.2812V322.104H74.8212V323.364H71.2812V325.692H75.1812V327H69.6612ZM77.1725 327V318.6H80.3165C80.9885 318.6 81.5445 318.716 81.9845 318.948C82.4245 319.18 82.7525 319.492 82.9685 319.884C83.1925 320.268 83.3045 320.696 83.3045 321.168C83.3045 321.616 83.1965 322.036 82.9805 322.428C82.7725 322.812 82.4445 323.124 81.9965 323.364C81.5565 323.596 80.9885 323.712 80.2925 323.712H78.7925V327H77.1725ZM81.5285 327L79.8005 323.304H81.5525L83.3765 327H81.5285ZM78.7925 322.536H80.2085C80.7045 322.536 81.0685 322.416 81.3005 322.176C81.5325 321.936 81.6485 321.62 81.6485 321.228C81.6485 320.836 81.5325 320.528 81.3005 320.304C81.0685 320.072 80.7045 319.956 80.2085 319.956H78.7925V322.536ZM85.2579 327V318.6H90.7299V319.908H86.8779V322.152H89.9619V323.424H86.8779V327H85.2579ZM90.9627 327L94.0347 318.6H95.8707L98.9307 327H97.2147L94.9467 320.448L92.6667 327H90.9627ZM92.3187 325.092L92.7507 323.832H97.0227L97.4427 325.092H92.3187ZM103.778 327.144C102.946 327.144 102.23 326.964 101.63 326.604C101.03 326.236 100.57 325.728 100.25 325.08C99.9298 324.424 99.7698 323.668 99.7698 322.812C99.7698 321.956 99.9298 321.2 100.25 320.544C100.57 319.888 101.03 319.376 101.63 319.008C102.23 318.64 102.946 318.456 103.778 318.456C104.794 318.456 105.622 318.708 106.262 319.212C106.91 319.716 107.314 320.428 107.474 321.348H105.71C105.606 320.9 105.39 320.552 105.062 320.304C104.734 320.048 104.302 319.92 103.766 319.92C103.278 319.92 102.858 320.04 102.506 320.28C102.154 320.512 101.882 320.844 101.69 321.276C101.506 321.7 101.414 322.212 101.414 322.812C101.414 323.404 101.506 323.916 101.69 324.348C101.882 324.78 102.154 325.112 102.506 325.344C102.858 325.576 103.278 325.692 103.766 325.692C104.302 325.692 104.73 325.576 105.05 325.344C105.378 325.104 105.598 324.772 105.71 324.348H107.474C107.314 325.22 106.91 325.904 106.262 326.4C105.622 326.896 104.794 327.144 103.778 327.144ZM109.362 327V318.6H114.882V319.908H110.982V322.104H114.522V323.364H110.982V325.692H114.882V327H109.362Z" fill="#8E8E93"/>
<rect x="25" y="339" width="350" height="42" rx="11" fill="white"/>
<rect x="25" y="339" width="350" height="42" rx="11" stroke="#EDEDF0" stroke-width="2"/>
<path d="M41.824 365.192C41.1307 365.192 40.528 365.064 40.016 364.808C39.5147 364.541 39.1253 364.157 38.848 363.656C38.5813 363.155 38.448 362.557 38.448 361.864H40.064C40.064 362.227 40.1227 362.552 40.24 362.84C40.3573 363.128 40.5387 363.357 40.784 363.528C41.04 363.688 41.376 363.768 41.792 363.768C42.1973 363.768 42.5227 363.688 42.768 363.528C43.0133 363.368 43.184 363.155 43.28 362.888C43.3867 362.611 43.44 362.296 43.44 361.944V353.8H45.04V361.944C45.04 362.979 44.752 363.779 44.176 364.344C43.6107 364.909 42.8267 365.192 41.824 365.192ZM51.0191 365.192C50.2085 365.192 49.4938 365.048 48.8751 364.76C48.2565 364.461 47.7765 364.045 47.4351 363.512C47.0938 362.979 46.9231 362.355 46.9231 361.64H48.6031C48.6031 362.045 48.6991 362.419 48.8911 362.76C49.0831 363.091 49.3551 363.357 49.7071 363.56C50.0698 363.752 50.5071 363.848 51.0191 363.848C51.4778 363.848 51.8671 363.773 52.1871 363.624C52.5071 363.475 52.7525 363.272 52.9231 363.016C53.1045 362.749 53.1951 362.445 53.1951 362.104C53.1951 361.709 53.1045 361.384 52.9231 361.128C52.7418 360.872 52.4965 360.664 52.1871 360.504C51.8778 360.333 51.5258 360.184 51.1311 360.056C50.7365 359.928 50.3151 359.789 49.8671 359.64C48.9925 359.341 48.3365 358.968 47.8991 358.52C47.4725 358.061 47.2591 357.464 47.2591 356.728C47.2591 356.099 47.4031 355.555 47.6911 355.096C47.9898 354.627 48.4111 354.264 48.9551 354.008C49.4991 353.741 50.1391 353.608 50.8751 353.608C51.6005 353.608 52.2298 353.741 52.7631 354.008C53.3071 354.275 53.7338 354.643 54.0431 355.112C54.3525 355.581 54.5125 356.131 54.5231 356.76H52.8271C52.8271 356.472 52.7525 356.189 52.6031 355.912C52.4538 355.635 52.2298 355.411 51.9311 355.24C51.6325 355.059 51.2645 354.968 50.8271 354.968C50.4645 354.957 50.1391 355.016 49.8511 355.144C49.5631 355.272 49.3338 355.459 49.1631 355.704C49.0031 355.949 48.9231 356.243 48.9231 356.584C48.9231 356.925 48.9978 357.203 49.1471 357.416C49.2965 357.619 49.5098 357.795 49.7871 357.944C50.0645 358.093 50.3845 358.232 50.7471 358.36C51.1205 358.477 51.5311 358.611 51.9791 358.76C52.5231 358.941 53.0138 359.165 53.4511 359.432C53.8885 359.688 54.2298 360.024 54.4751 360.44C54.7311 360.845 54.8591 361.368 54.8591 362.008C54.8591 362.563 54.7151 363.08 54.4271 363.56C54.1391 364.04 53.7125 364.435 53.1471 364.744C52.5818 365.043 51.8725 365.192 51.0191 365.192ZM61.8178 365.192C60.7404 365.192 59.7911 364.952 58.9698 364.472C58.1484 363.981 57.5031 363.304 57.0338 362.44C56.5751 361.565 56.3458 360.552 56.3458 359.4C56.3458 358.259 56.5751 357.256 57.0338 356.392C57.5031 355.517 58.1484 354.835 58.9698 354.344C59.7911 353.853 60.7404 353.608 61.8178 353.608C62.9164 353.608 63.8764 353.853 64.6978 354.344C65.5298 354.835 66.1698 355.517 66.6178 356.392C67.0764 357.256 67.3058 358.259 67.3058 359.4C67.3058 360.552 67.0764 361.565 66.6178 362.44C66.1698 363.304 65.5298 363.981 64.6978 364.472C63.8764 364.952 62.9164 365.192 61.8178 365.192ZM61.8338 363.768C62.6018 363.768 63.2738 363.592 63.8498 363.24C64.4364 362.888 64.8844 362.387 65.1938 361.736C65.5138 361.085 65.6738 360.307 65.6738 359.4C65.6738 358.493 65.5138 357.715 65.1938 357.064C64.8844 356.413 64.4364 355.917 63.8498 355.576C63.2738 355.224 62.6018 355.048 61.8338 355.048C61.0658 355.048 60.3884 355.224 59.8018 355.576C59.2258 355.917 58.7778 356.413 58.4578 357.064C58.1378 357.715 57.9778 358.493 57.9778 359.4C57.9778 360.307 58.1378 361.085 58.4578 361.736C58.7778 362.387 59.2258 362.888 59.8018 363.24C60.3884 363.592 61.0658 363.768 61.8338 363.768ZM69.2305 365V353.8H70.8305L76.5425 362.392V353.8H78.1425V365H76.5425L70.8305 356.424V365H69.2305ZM80.4809 360.968V359.624H86.9449V360.968H80.4809ZM89.293 365V353.8H93.085C93.9703 353.8 94.6957 353.949 95.261 354.248C95.8263 354.547 96.2423 354.947 96.509 355.448C96.7863 355.939 96.925 356.499 96.925 357.128C96.925 357.725 96.7863 358.28 96.509 358.792C96.2317 359.293 95.805 359.699 95.229 360.008C94.6637 360.307 93.933 360.456 93.037 360.456H90.893V365H89.293ZM95.165 365L92.765 360.024H94.525L97.037 365H95.165ZM90.893 359.24H92.973C93.7623 359.24 94.3437 359.048 94.717 358.664C95.0903 358.269 95.277 357.768 95.277 357.16C95.277 356.541 95.0957 356.051 94.733 355.688C94.3703 355.325 93.7783 355.144 92.957 355.144H90.893V359.24ZM98.9805 365V353.8H102.805C103.69 353.8 104.421 353.949 104.997 354.248C105.573 354.536 105.999 354.936 106.277 355.448C106.565 355.949 106.709 356.515 106.709 357.144C106.709 357.763 106.57 358.328 106.293 358.84C106.026 359.341 105.605 359.747 105.029 360.056C104.453 360.355 103.711 360.504 102.805 360.504H100.581V365H98.9805ZM100.581 359.176H102.741C103.573 359.176 104.165 358.995 104.517 358.632C104.879 358.259 105.061 357.763 105.061 357.144C105.061 356.504 104.879 356.008 104.517 355.656C104.165 355.304 103.573 355.128 102.741 355.128H100.581V359.176ZM113.362 365.192C112.263 365.192 111.314 364.952 110.514 364.472C109.714 363.981 109.095 363.304 108.658 362.44C108.231 361.565 108.018 360.552 108.018 359.4C108.018 358.259 108.231 357.251 108.658 356.376C109.095 355.501 109.714 354.824 110.514 354.344C111.314 353.853 112.263 353.608 113.362 353.608C114.663 353.608 115.724 353.923 116.546 354.552C117.367 355.181 117.884 356.067 118.098 357.208H116.354C116.183 356.547 115.847 356.019 115.346 355.624C114.855 355.229 114.188 355.032 113.346 355.032C112.599 355.032 111.943 355.208 111.378 355.56C110.823 355.912 110.396 356.413 110.098 357.064C109.799 357.715 109.65 358.493 109.65 359.4C109.65 360.307 109.799 361.091 110.098 361.752C110.396 362.403 110.823 362.904 111.378 363.256C111.943 363.597 112.599 363.768 113.346 363.768C114.188 363.768 114.855 363.581 115.346 363.208C115.847 362.824 116.178 362.307 116.338 361.656H118.098C117.884 362.765 117.367 363.635 116.546 364.264C115.724 364.883 114.663 365.192 113.362 365.192Z" fill="#1E1E1F"/>
<path d="M347 357.5L352 362.5L357 357.5" stroke="#AEAEB2" stroke-width="2" stroke-linecap="round" stroke-linejoin="round"/>
<path d="M46.7 279.5L44.7005 277.5L42.7 279.5M45 278C45 282.971 40.9706 287 36 287C31.0294 287 27 282.971 27 278C27 273.029 31.0294 269 36 269C39.3019 269 42.1885 270.778 43.7545 273.429M36 273V278L39 280" stroke="#1E1E1F" stroke-width="1.6" stroke-linecap="round" stroke-linejoin="round"/>
<path d="M56.448 283L60.56 271.8H62.304L66.4 283H64.704L61.424 273.72L58.112 283H56.448ZM58.304 280.232L58.752 278.952H64.016L64.464 280.232H58.304ZM67.9318 283V274.968H69.3718L69.5158 276.488C69.6971 276.125 69.9264 275.821 70.2038 275.576C70.4918 275.32 70.8278 275.123 71.2118 274.984C71.6064 274.845 72.0491 274.776 72.5398 274.776V276.456H72.0118C71.6704 276.456 71.3504 276.499 71.0518 276.584C70.7531 276.669 70.4864 276.808 70.2518 277C70.0278 277.192 69.8518 277.453 69.7238 277.784C69.5958 278.115 69.5318 278.525 69.5318 279.016V283H67.9318ZM77.5191 283.192C76.7405 283.192 76.0471 283.016 75.4391 282.664C74.8311 282.312 74.3511 281.821 73.9991 281.192C73.6578 280.552 73.4871 279.821 73.4871 279C73.4871 278.157 73.6578 277.421 73.9991 276.792C74.3511 276.163 74.8311 275.672 75.4391 275.32C76.0471 274.957 76.7405 274.776 77.5191 274.776C78.5005 274.776 79.3218 275.032 79.9831 275.544C80.6445 276.045 81.0605 276.733 81.2311 277.608H79.5671C79.4711 277.149 79.2311 276.792 78.8471 276.536C78.4631 276.28 78.0151 276.152 77.5031 276.152C77.0765 276.152 76.6818 276.259 76.3191 276.472C75.9565 276.685 75.6631 277.005 75.4391 277.432C75.2258 277.848 75.1191 278.365 75.1191 278.984C75.1191 279.443 75.1831 279.853 75.3111 280.216C75.4391 280.568 75.6098 280.867 75.8231 281.112C76.0471 281.347 76.3031 281.528 76.5911 281.656C76.8791 281.773 77.1831 281.832 77.5031 281.832C77.8551 281.832 78.1698 281.779 78.4471 281.672C78.7351 281.555 78.9751 281.384 79.1671 281.16C79.3698 280.936 79.5031 280.669 79.5671 280.36H81.2311C81.0605 281.213 80.6445 281.901 79.9831 282.424C79.3218 282.936 78.5005 283.192 77.5191 283.192ZM83.1036 283V271.48H84.7036V276.28C84.9703 275.811 85.3383 275.443 85.8076 275.176C86.2876 274.909 86.8156 274.776 87.3916 274.776C88.0316 274.776 88.581 274.904 89.0396 275.16C89.4983 275.416 89.8503 275.805 90.0956 276.328C90.341 276.851 90.4636 277.501 90.4636 278.28V283H88.8796V278.456C88.8796 277.688 88.7196 277.112 88.3996 276.728C88.0796 276.333 87.605 276.136 86.9756 276.136C86.549 276.136 86.1596 276.243 85.8076 276.456C85.4663 276.659 85.1943 276.952 84.9916 277.336C84.7996 277.72 84.7036 278.195 84.7036 278.76V283H83.1036ZM92.6063 283V274.968H94.2063V283H92.6063ZM93.4062 273.432C93.1076 273.432 92.8569 273.336 92.6543 273.144C92.4623 272.952 92.3663 272.707 92.3663 272.408C92.3663 272.12 92.4623 271.885 92.6543 271.704C92.8569 271.512 93.1076 271.416 93.4062 271.416C93.7156 271.416 93.9716 271.512 94.1743 271.704C94.3769 271.885 94.4783 272.12 94.4783 272.408C94.4783 272.707 94.3769 272.952 94.1743 273.144C93.9716 273.336 93.7156 273.432 93.4062 273.432ZM98.7663 283L95.7583 274.968H97.4383L99.7103 281.464L102.014 274.968H103.662L100.654 283H98.7663ZM108.377 283.192C107.598 283.192 106.91 283.021 106.313 282.68C105.716 282.328 105.246 281.837 104.905 281.208C104.574 280.579 104.409 279.843 104.409 279C104.409 278.157 104.574 277.421 104.905 276.792C105.246 276.163 105.716 275.672 106.313 275.32C106.91 274.957 107.604 274.776 108.393 274.776C109.182 274.776 109.86 274.952 110.425 275.304C110.99 275.645 111.428 276.109 111.737 276.696C112.046 277.272 112.201 277.912 112.201 278.616C112.201 278.723 112.201 278.84 112.201 278.968C112.201 279.085 112.19 279.213 112.169 279.352H105.577V278.232H110.601C110.569 277.571 110.345 277.053 109.929 276.68C109.513 276.296 108.996 276.104 108.377 276.104C107.95 276.104 107.55 276.2 107.177 276.392C106.814 276.584 106.521 276.872 106.297 277.256C106.084 277.629 105.977 278.104 105.977 278.68V279.128C105.977 279.725 106.084 280.227 106.297 280.632C106.521 281.037 106.814 281.347 107.177 281.56C107.54 281.763 107.934 281.864 108.361 281.864C108.873 281.864 109.294 281.752 109.625 281.528C109.966 281.293 110.217 280.984 110.377 280.6H111.977C111.828 281.101 111.588 281.549 111.257 281.944C110.937 282.328 110.532 282.632 110.041 282.856C109.561 283.08 109.006 283.192 108.377 283.192ZM118.072 283V274.968H119.512L119.624 276.088C119.88 275.683 120.222 275.363 120.648 275.128C121.075 274.893 121.555 274.776 122.088 274.776C122.494 274.776 122.862 274.829 123.192 274.936C123.534 275.043 123.832 275.208 124.088 275.432C124.344 275.656 124.552 275.939 124.712 276.28C124.99 275.8 125.368 275.432 125.848 275.176C126.339 274.909 126.862 274.776 127.416 274.776C128.067 274.776 128.627 274.904 129.096 275.16C129.566 275.416 129.923 275.805 130.168 276.328C130.414 276.851 130.536 277.501 130.536 278.28V283H128.952V278.44C128.952 277.683 128.798 277.112 128.488 276.728C128.19 276.333 127.747 276.136 127.16 276.136C126.766 276.136 126.414 276.237 126.104 276.44C125.795 276.643 125.55 276.941 125.368 277.336C125.198 277.72 125.112 278.189 125.112 278.744V283H123.512V278.44C123.512 277.683 123.358 277.112 123.048 276.728C122.739 276.333 122.296 276.136 121.72 276.136C121.336 276.136 120.99 276.237 120.68 276.44C120.371 276.643 120.126 276.941 119.944 277.336C119.763 277.72 119.672 278.189 119.672 278.744V283H118.072ZM136.268 283.192C135.511 283.192 134.828 283.021 134.22 282.68C133.623 282.328 133.148 281.837 132.796 281.208C132.455 280.568 132.284 279.827 132.284 278.984C132.284 278.141 132.46 277.405 132.812 276.776C133.164 276.136 133.644 275.645 134.252 275.304C134.86 274.952 135.537 274.776 136.284 274.776C137.052 274.776 137.735 274.952 138.332 275.304C138.94 275.645 139.415 276.131 139.756 276.76C140.108 277.389 140.284 278.131 140.284 278.984C140.284 279.827 140.108 280.568 139.756 281.208C139.404 281.837 138.924 282.328 138.316 282.68C137.719 283.021 137.036 283.192 136.268 283.192ZM136.268 281.816C136.705 281.816 137.1 281.715 137.452 281.512C137.815 281.299 138.103 280.979 138.316 280.552C138.54 280.125 138.652 279.603 138.652 278.984C138.652 278.355 138.545 277.832 138.332 277.416C138.119 276.989 137.831 276.675 137.468 276.472C137.116 276.259 136.727 276.152 136.3 276.152C135.884 276.152 135.489 276.259 135.116 276.472C134.753 276.675 134.46 276.989 134.236 277.416C134.023 277.832 133.916 278.355 133.916 278.984C133.916 279.603 134.023 280.125 134.236 280.552C134.46 280.979 134.748 281.299 135.1 281.512C135.463 281.715 135.852 281.816 136.268 281.816ZM145.735 283.192C144.967 283.192 144.289 283.011 143.703 282.648C143.116 282.275 142.657 281.773 142.327 281.144C142.007 280.504 141.847 279.779 141.847 278.968C141.847 278.157 142.007 277.437 142.327 276.808C142.657 276.179 143.116 275.683 143.703 275.32C144.3 274.957 144.988 274.776 145.766 274.776C146.396 274.776 146.951 274.904 147.431 275.16C147.911 275.405 148.284 275.752 148.551 276.2V271.48H150.151V283H148.711L148.551 281.752C148.38 281.997 148.167 282.232 147.911 282.456C147.655 282.669 147.345 282.845 146.983 282.984C146.631 283.123 146.215 283.192 145.735 283.192ZM146.007 281.8C146.497 281.8 146.935 281.683 147.319 281.448C147.703 281.213 148.001 280.888 148.215 280.472C148.428 280.045 148.535 279.549 148.535 278.984C148.535 278.419 148.428 277.928 148.215 277.512C148.001 277.085 147.703 276.755 147.319 276.52C146.935 276.285 146.492 276.168 145.991 276.168C145.511 276.168 145.079 276.285 144.695 276.52C144.311 276.755 144.012 277.085 143.799 277.512C143.585 277.928 143.479 278.419 143.479 278.984C143.479 279.539 143.585 280.029 143.799 280.456C144.012 280.883 144.311 281.213 144.695 281.448C145.079 281.683 145.516 281.8 146.007 281.8ZM155.986 283.192C155.208 283.192 154.52 283.021 153.922 282.68C153.325 282.328 152.856 281.837 152.514 281.208C152.184 280.579 152.018 279.843 152.018 279C152.018 278.157 152.184 277.421 152.514 276.792C152.856 276.163 153.325 275.672 153.922 275.32C154.52 274.957 155.213 274.776 156.002 274.776C156.792 274.776 157.469 274.952 158.034 275.304C158.6 275.645 159.037 276.109 159.346 276.696C159.656 277.272 159.81 277.912 159.81 278.616C159.81 278.723 159.81 278.84 159.81 278.968C159.81 279.085 159.8 279.213 159.778 279.352H153.186V278.232H158.21C158.178 277.571 157.954 277.053 157.538 276.68C157.122 276.296 156.605 276.104 155.986 276.104C155.56 276.104 155.16 276.2 154.786 276.392C154.424 276.584 154.13 276.872 153.906 277.256C153.693 277.629 153.586 278.104 153.586 278.68V279.128C153.586 279.725 153.693 280.227 153.906 280.632C154.13 281.037 154.424 281.347 154.786 281.56C155.149 281.763 155.544 281.864 155.97 281.864C156.482 281.864 156.904 281.752 157.234 281.528C157.576 281.293 157.826 280.984 157.986 280.6H159.586C159.437 281.101 159.197 281.549 158.866 281.944C158.546 282.328 158.141 282.632 157.65 282.856C157.17 283.08 156.616 283.192 155.986 283.192Z" fill="#1E1E1F"/>
<path fill-rule="evenodd" clip-rule="evenodd" d="M171 278C171 274.686 173.686 272 177 272C180.314 272 183 274.686 183 278C183 281.314 180.314 284 177 284C173.686 284 171 281.314 171 278ZM176.333 275.333C176.333 274.965 176.632 274.667 177 274.667H177.007C177.375 274.667 177.673 274.965 177.673 275.333C177.673 275.702 177.375 276 177.007 276H177C176.632 276 176.333 275.702 176.333 275.333ZM177 277.333C177.368 277.333 177.667 277.632 177.667 278V280.667C177.667 281.035 177.368 281.333 177 281.333C176.632 281.333 176.333 281.035 176.333 280.667V278C176.333 277.632 176.632 277.333 177 277.333Z" fill="#C7C7CC"/>
<path fill-rule="evenodd" clip-rule="evenodd" d="M177 272C173.686 272 171 274.686 171 278C171 281.314 173.686 284 177 284C180.314 284 183 281.314 183 278C183 274.686 180.314 272 177 272ZM177.667 278C177.667 277.632 177.368 277.333 177 277.333C176.632 277.333 176.333 277.632 176.333 278V280.667C176.333 281.035 176.632 281.333 177 281.333C177.368 281.333 177.667 281.035 177.667 280.667V278ZM176.333 275.333C176.333 274.965 176.632 274.667 177 274.667H177.007C177.375 274.667 177.673 274.965 177.673 275.333C177.673 275.702 177.375 276 177.007 276H177C176.632 276 176.333 275.702 176.333 275.333Z" fill="#C7C7CC"/>
<rect x="336" y="266" width="40" height="24" rx="12" fill="#EDEEF0"/>
<g filter="url(#filter0_d_618_7615)">
<circle cx="348" cy="278" r="8" fill="white"/>
</g>
<path d="M24.852 185V176.6H26.472L30.336 182.396V176.6H31.956V185H30.336L26.472 179.216V185H24.852ZM34.1445 185V176.6H39.6645V177.908H35.7645V180.104H39.3045V181.364H35.7645V183.692H39.6645V185H34.1445ZM43.5997 185V177.908H41.1397V176.6H47.6557V177.908H45.2077V185H43.5997ZM51.0111 185L48.8031 176.6H50.5311L51.9951 183.164L53.7231 176.6H55.5111L57.1911 183.164L58.6671 176.6H60.4071L58.1511 185H56.2071L54.5991 178.88L52.9311 185H51.0111ZM65.4742 185.144C64.6662 185.144 63.9542 184.96 63.3382 184.592C62.7302 184.224 62.2542 183.716 61.9102 183.068C61.5662 182.412 61.3942 181.656 61.3942 180.8C61.3942 179.944 61.5662 179.192 61.9102 178.544C62.2542 177.888 62.7302 177.376 63.3382 177.008C63.9542 176.64 64.6662 176.456 65.4742 176.456C66.2822 176.456 66.9902 176.64 67.5982 177.008C68.2142 177.376 68.6942 177.888 69.0382 178.544C69.3822 179.192 69.5542 179.944 69.5542 180.8C69.5542 181.656 69.3822 182.412 69.0382 183.068C68.6942 183.716 68.2142 184.224 67.5982 184.592C66.9902 184.96 66.2822 185.144 65.4742 185.144ZM65.4742 183.692C65.9702 183.692 66.3982 183.576 66.7582 183.344C67.1262 183.104 67.4062 182.768 67.5982 182.336C67.7982 181.904 67.8982 181.392 67.8982 180.8C67.8982 180.2 67.7982 179.688 67.5982 179.264C67.4062 178.832 67.1262 178.5 66.7582 178.268C66.3982 178.036 65.9702 177.92 65.4742 177.92C64.9862 177.92 64.5582 178.036 64.1902 178.268C63.8222 178.5 63.5382 178.832 63.3382 179.264C63.1382 179.688 63.0382 180.2 63.0382 180.8C63.0382 181.392 63.1382 181.904 63.3382 182.336C63.5382 182.768 63.8222 183.104 64.1902 183.344C64.5582 183.576 64.9862 183.692 65.4742 183.692ZM71.4551 185V176.6H74.5991C75.2711 176.6 75.8271 176.716 76.2671 176.948C76.7071 177.18 77.0351 177.492 77.2511 177.884C77.4751 178.268 77.5871 178.696 77.5871 179.168C77.5871 179.616 77.4791 180.036 77.2631 180.428C77.0551 180.812 76.7271 181.124 76.2791 181.364C75.8391 181.596 75.2711 181.712 74.5751 181.712H73.0751V185H71.4551ZM75.8111 185L74.0831 181.304H75.8351L77.6591 185H75.8111ZM73.0751 180.536H74.4911C74.9871 180.536 75.3511 180.416 75.5831 180.176C75.8151 179.936 75.9311 179.62 75.9311 179.228C75.9311 178.836 75.8151 178.528 75.5831 178.304C75.3511 178.072 74.9871 177.956 74.4911 177.956H73.0751V180.536ZM79.5406 185V176.6H81.1606V179.924L84.1966 176.6H86.2006L83.1046 179.924L86.2846 185H84.3046L81.9526 181.184L81.1606 182.024V185H79.5406Z" fill="#8E8E93"/>
<rect x="25" y="197" width="350" height="42" rx="11" fill="white"/>
<rect x="25" y="197" width="350" height="42" rx="11" stroke="#EDEDF0" stroke-width="2"/>
<path d="M39.168 223V211.8H41.056L44.848 219.368L48.64 211.8H50.544V223H48.944V214.6L45.472 221.432H44.24L40.768 214.616V223H39.168ZM55.4631 223.192C54.8018 223.192 54.2525 223.08 53.8151 222.856C53.3778 222.632 53.0525 222.333 52.8391 221.96C52.6258 221.587 52.5191 221.176 52.5191 220.728C52.5191 220.205 52.6525 219.757 52.9191 219.384C53.1965 219 53.5911 218.707 54.1031 218.504C54.6258 218.301 55.2445 218.2 55.9591 218.2H58.0551C58.0551 217.731 57.9858 217.341 57.8471 217.032C57.7085 216.723 57.5005 216.493 57.2231 216.344C56.9565 216.184 56.6151 216.104 56.1991 216.104C55.7191 216.104 55.3031 216.221 54.9511 216.456C54.6098 216.691 54.4018 217.032 54.3271 217.48H52.7111C52.7751 216.904 52.9671 216.419 53.2871 216.024C53.6178 215.619 54.0391 215.309 54.5511 215.096C55.0631 214.883 55.6125 214.776 56.1991 214.776C56.9458 214.776 57.5751 214.909 58.0871 215.176C58.6098 215.443 58.9991 215.821 59.2551 216.312C59.5218 216.792 59.6551 217.363 59.6551 218.024V223H58.2631L58.1351 221.64C58.0178 221.853 57.8791 222.056 57.7191 222.248C57.5591 222.44 57.3671 222.605 57.1431 222.744C56.9298 222.883 56.6791 222.989 56.3911 223.064C56.1138 223.149 55.8045 223.192 55.4631 223.192ZM55.7671 221.896C56.1085 221.896 56.4178 221.827 56.6951 221.688C56.9725 221.549 57.2071 221.363 57.3991 221.128C57.6018 220.883 57.7511 220.611 57.8471 220.312C57.9538 220.013 58.0125 219.699 58.0231 219.368V219.336H56.1191C55.6605 219.336 55.2871 219.395 54.9991 219.512C54.7218 219.619 54.5191 219.768 54.3911 219.96C54.2631 220.152 54.1991 220.376 54.1991 220.632C54.1991 220.888 54.2578 221.112 54.3751 221.304C54.5031 221.485 54.6845 221.629 54.9191 221.736C55.1538 221.843 55.4365 221.896 55.7671 221.896ZM61.8094 223V214.968H63.4094V223H61.8094ZM62.6094 213.432C62.3107 213.432 62.06 213.336 61.8574 213.144C61.6654 212.952 61.5694 212.707 61.5694 212.408C61.5694 212.12 61.6654 211.885 61.8574 211.704C62.06 211.512 62.3107 211.416 62.6094 211.416C62.9187 211.416 63.1747 211.512 63.3774 211.704C63.58 211.885 63.6814 212.12 63.6814 212.408C63.6814 212.707 63.58 212.952 63.3774 213.144C63.1747 213.336 62.9187 213.432 62.6094 213.432ZM65.6974 223V214.968H67.1374L67.2334 216.344C67.4894 215.864 67.852 215.485 68.3214 215.208C68.7907 214.92 69.3347 214.776 69.9534 214.776C70.5827 214.776 71.1267 214.904 71.5854 215.16C72.044 215.416 72.4014 215.805 72.6574 216.328C72.9134 216.84 73.0414 217.485 73.0414 218.264V223H71.4414V218.424C71.4414 217.677 71.276 217.112 70.9454 216.728C70.6147 216.333 70.14 216.136 69.5214 216.136C69.0947 216.136 68.7107 216.237 68.3694 216.44C68.0387 216.643 67.7774 216.936 67.5854 217.32C67.3934 217.704 67.2974 218.179 67.2974 218.744V223H65.6974ZM75.088 223V214.968H76.528L76.624 216.344C76.88 215.864 77.2427 215.485 77.712 215.208C78.1813 214.92 78.7253 214.776 79.344 214.776C79.9733 214.776 80.5173 214.904 80.976 215.16C81.4347 215.416 81.792 215.805 82.048 216.328C82.304 216.84 82.432 217.485 82.432 218.264V223H80.832V218.424C80.832 217.677 80.6667 217.112 80.336 216.728C80.0053 216.333 79.5307 216.136 78.912 216.136C78.4853 216.136 78.1013 216.237 77.76 216.44C77.4293 216.643 77.168 216.936 76.976 217.32C76.784 217.704 76.688 218.179 76.688 218.744V223H75.088ZM88.1426 223.192C87.364 223.192 86.676 223.021 86.0786 222.68C85.4813 222.328 85.012 221.837 84.6706 221.208C84.34 220.579 84.1746 219.843 84.1746 219C84.1746 218.157 84.34 217.421 84.6706 216.792C85.012 216.163 85.4813 215.672 86.0786 215.32C86.676 214.957 87.3693 214.776 88.1586 214.776C88.948 214.776 89.6253 214.952 90.1906 215.304C90.756 215.645 91.1933 216.109 91.5026 216.696C91.812 217.272 91.9666 217.912 91.9666 218.616C91.9666 218.723 91.9666 218.84 91.9666 218.968C91.9666 219.085 91.956 219.213 91.9346 219.352H85.3426V218.232H90.3666C90.3346 217.571 90.1106 217.053 89.6946 216.68C89.2786 216.296 88.7613 216.104 88.1426 216.104C87.716 216.104 87.316 216.2 86.9426 216.392C86.58 216.584 86.2866 216.872 86.0626 217.256C85.8493 217.629 85.7426 218.104 85.7426 218.68V219.128C85.7426 219.725 85.8493 220.227 86.0626 220.632C86.2866 221.037 86.58 221.347 86.9426 221.56C87.3053 221.763 87.7 221.864 88.1266 221.864C88.6386 221.864 89.06 221.752 89.3906 221.528C89.732 221.293 89.9826 220.984 90.1426 220.6H91.7426C91.5933 221.101 91.3533 221.549 91.0226 221.944C90.7026 222.328 90.2973 222.632 89.8066 222.856C89.3266 223.08 88.772 223.192 88.1426 223.192ZM96.8375 223C96.3362 223 95.8935 222.92 95.5095 222.76C95.1362 222.6 94.8482 222.333 94.6455 221.96C94.4535 221.587 94.3575 221.08 94.3575 220.44V216.312H92.9655V214.968H94.3575L94.5495 212.952H95.9575V214.968H98.2295V216.312H95.9575V220.456C95.9575 220.915 96.0482 221.229 96.2295 221.4C96.4215 221.56 96.7522 221.64 97.2215 221.64H98.1495V223H96.8375Z" fill="#1E1E1F"/>
<path d="M347 215.5L352 220.5L357 215.5" stroke="#AEAEB2" stroke-width="2" stroke-linecap="round" stroke-linejoin="round"/>
<path d="M24.852 103V94.6H27.984C28.664 94.6 29.228 94.716 29.676 94.948C30.124 95.18 30.456 95.496 30.672 95.896C30.896 96.296 31.008 96.748 31.008 97.252C31.008 97.716 30.9 98.148 30.684 98.548C30.476 98.948 30.148 99.272 29.7 99.52C29.26 99.76 28.688 99.88 27.984 99.88H26.472V103H24.852ZM26.472 98.572H27.876C28.412 98.572 28.792 98.452 29.016 98.212C29.248 97.972 29.364 97.652 29.364 97.252C29.364 96.836 29.248 96.512 29.016 96.28C28.792 96.04 28.412 95.92 27.876 95.92H26.472V98.572ZM32.75 103V94.6H35.894C36.566 94.6 37.122 94.716 37.562 94.948C38.002 95.18 38.33 95.492 38.546 95.884C38.77 96.268 38.882 96.696 38.882 97.168C38.882 97.616 38.774 98.036 38.558 98.428C38.35 98.812 38.022 99.124 37.574 99.364C37.134 99.596 36.566 99.712 35.87 99.712H34.37V103H32.75ZM37.106 103L35.378 99.304H37.13L38.954 103H37.106ZM34.37 98.536H35.786C36.282 98.536 36.646 98.416 36.878 98.176C37.11 97.936 37.226 97.62 37.226 97.228C37.226 96.836 37.11 96.528 36.878 96.304C36.646 96.072 36.282 95.956 35.786 95.956H34.37V98.536ZM44.6274 103.144C43.8194 103.144 43.1074 102.96 42.4914 102.592C41.8834 102.224 41.4074 101.716 41.0634 101.068C40.7194 100.412 40.5474 99.656 40.5474 98.8C40.5474 97.944 40.7194 97.192 41.0634 96.544C41.4074 95.888 41.8834 95.376 42.4914 95.008C43.1074 94.64 43.8194 94.456 44.6274 94.456C45.4354 94.456 46.1434 94.64 46.7514 95.008C47.3674 95.376 47.8474 95.888 48.1914 96.544C48.5354 97.192 48.7074 97.944 48.7074 98.8C48.7074 99.656 48.5354 100.412 48.1914 101.068C47.8474 101.716 47.3674 102.224 46.7514 102.592C46.1434 102.96 45.4354 103.144 44.6274 103.144ZM44.6274 101.692C45.1234 101.692 45.5514 101.576 45.9114 101.344C46.2794 101.104 46.5594 100.768 46.7514 100.336C46.9514 99.904 47.0514 99.392 47.0514 98.8C47.0514 98.2 46.9514 97.688 46.7514 97.264C46.5594 96.832 46.2794 96.5 45.9114 96.268C45.5514 96.036 45.1234 95.92 44.6274 95.92C44.1394 95.92 43.7114 96.036 43.3434 96.268C42.9754 96.5 42.6914 96.832 42.4914 97.264C42.2914 97.688 42.1914 98.2 42.1914 98.8C42.1914 99.392 42.2914 99.904 42.4914 100.336C42.6914 100.768 42.9754 101.104 43.3434 101.344C43.7114 101.576 44.1394 101.692 44.6274 101.692ZM52.2712 103V95.908H49.8112V94.6H56.3272V95.908H53.8792V103H52.2712ZM61.5132 103.144C60.7052 103.144 59.9932 102.96 59.3772 102.592C58.7692 102.224 58.2932 101.716 57.9492 101.068C57.6052 100.412 57.4332 99.656 57.4332 98.8C57.4332 97.944 57.6052 97.192 57.9492 96.544C58.2932 95.888 58.7692 95.376 59.3772 95.008C59.9932 94.64 60.7052 94.456 61.5132 94.456C62.3212 94.456 63.0292 94.64 63.6372 95.008C64.2532 95.376 64.7332 95.888 65.0772 96.544C65.4212 97.192 65.5932 97.944 65.5932 98.8C65.5932 99.656 65.4212 100.412 65.0772 101.068C64.7332 101.716 64.2532 102.224 63.6372 102.592C63.0292 102.96 62.3212 103.144 61.5132 103.144ZM61.5132 101.692C62.0092 101.692 62.4372 101.576 62.7972 101.344C63.1652 101.104 63.4452 100.768 63.6372 100.336C63.8372 99.904 63.9372 99.392 63.9372 98.8C63.9372 98.2 63.8372 97.688 63.6372 97.264C63.4452 96.832 63.1652 96.5 62.7972 96.268C62.4372 96.036 62.0092 95.92 61.5132 95.92C61.0252 95.92 60.5972 96.036 60.2292 96.268C59.8612 96.5 59.5772 96.832 59.3772 97.264C59.1772 97.688 59.0772 98.2 59.0772 98.8C59.0772 99.392 59.1772 99.904 59.3772 100.336C59.5772 100.768 59.8612 101.104 60.2292 101.344C60.5972 101.576 61.0252 101.692 61.5132 101.692ZM71.2142 103.144C70.3822 103.144 69.6662 102.964 69.0662 102.604C68.4662 102.236 68.0062 101.728 67.6862 101.08C67.3662 100.424 67.2062 99.668 67.2062 98.812C67.2062 97.956 67.3662 97.2 67.6862 96.544C68.0062 95.888 68.4662 95.376 69.0662 95.008C69.6662 94.64 70.3822 94.456 71.2142 94.456C72.2302 94.456 73.0582 94.708 73.6982 95.212C74.3462 95.716 74.7502 96.428 74.9102 97.348H73.1462C73.0422 96.9 72.8262 96.552 72.4982 96.304C72.1702 96.048 71.7382 95.92 71.2022 95.92C70.7142 95.92 70.2942 96.04 69.9422 96.28C69.5902 96.512 69.3182 96.844 69.1262 97.276C68.9422 97.7 68.8502 98.212 68.8502 98.812C68.8502 99.404 68.9422 99.916 69.1262 100.348C69.3182 100.78 69.5902 101.112 69.9422 101.344C70.2942 101.576 70.7142 101.692 71.2022 101.692C71.7382 101.692 72.1662 101.576 72.4862 101.344C72.8142 101.104 73.0342 100.772 73.1462 100.348H74.9102C74.7502 101.22 74.3462 101.904 73.6982 102.4C73.0582 102.896 72.2302 103.144 71.2142 103.144ZM80.5904 103.144C79.7824 103.144 79.0704 102.96 78.4544 102.592C77.8464 102.224 77.3704 101.716 77.0264 101.068C76.6824 100.412 76.5104 99.656 76.5104 98.8C76.5104 97.944 76.6824 97.192 77.0264 96.544C77.3704 95.888 77.8464 95.376 78.4544 95.008C79.0704 94.64 79.7824 94.456 80.5904 94.456C81.3984 94.456 82.1064 94.64 82.7144 95.008C83.3304 95.376 83.8104 95.888 84.1544 96.544C84.4984 97.192 84.6704 97.944 84.6704 98.8C84.6704 99.656 84.4984 100.412 84.1544 101.068C83.8104 101.716 83.3304 102.224 82.7144 102.592C82.1064 102.96 81.3984 103.144 80.5904 103.144ZM80.5904 101.692C81.0864 101.692 81.5144 101.576 81.8744 101.344C82.2424 101.104 82.5224 100.768 82.7144 100.336C82.9144 99.904 83.0144 99.392 83.0144 98.8C83.0144 98.2 82.9144 97.688 82.7144 97.264C82.5224 96.832 82.2424 96.5 81.8744 96.268C81.5144 96.036 81.0864 95.92 80.5904 95.92C80.1024 95.92 79.6744 96.036 79.3064 96.268C78.9384 96.5 78.6544 96.832 78.4544 97.264C78.2544 97.688 78.1544 98.2 78.1544 98.8C78.1544 99.392 78.2544 99.904 78.4544 100.336C78.6544 100.768 78.9384 101.104 79.3064 101.344C79.6744 101.576 80.1024 101.692 80.5904 101.692ZM86.5714 103V94.6H88.1914V101.74H91.8754V103H86.5714Z" fill="#8E8E93"/>
<rect x="25" y="115" width="350" height="42" rx="11" fill="white"/>
<rect x="25" y="115" width="350" height="42" rx="11" stroke="#EDEDF0" stroke-width="2"/>
<rect x="38" y="124" width="24" height="24" rx="12" fill="#F3F3F3"/>
<path d="M49.9998 129.766L49.9141 130.05V138.296L49.9998 138.38L53.9243 136.117L49.9998 129.766Z" fill="#343434"/>
<path d="M49.9987 129.766L46.0742 136.117L49.9987 138.38V134.377V129.766Z" fill="#8C8C8C"/>
<path d="M49.9995 139.105L49.9512 139.163V142.1L49.9995 142.238L53.9263 136.844L49.9995 139.105Z" fill="#3C3C3B"/>
<path d="M49.9987 142.238V139.105L46.0742 136.844L49.9987 142.238Z" fill="#8C8C8C"/>
<path d="M49.998 138.378L53.9225 136.115L49.998 134.375V138.378Z" fill="#141414"/>
<path d="M46.0742 136.115L49.9987 138.378V134.375L46.0742 136.115Z" fill="#393939"/>
<path d="M75.168 141V129.8H82.224V131.112H76.768V134.696H81.744V135.976H76.768V139.688H82.224V141H75.168ZM87.5406 141C87.0393 141 86.5966 140.92 86.2126 140.76C85.8393 140.6 85.5513 140.333 85.3486 139.96C85.1566 139.587 85.0606 139.08 85.0606 138.44V134.312H83.6686V132.968H85.0606L85.2526 130.952H86.6606V132.968H88.9326V134.312H86.6606V138.456C86.6606 138.915 86.7513 139.229 86.9326 139.4C87.1246 139.56 87.4553 139.64 87.9246 139.64H88.8526V141H87.5406ZM90.6974 141V129.48H92.2974V134.28C92.564 133.811 92.932 133.443 93.4014 133.176C93.8814 132.909 94.4094 132.776 94.9854 132.776C95.6254 132.776 96.1747 132.904 96.6334 133.16C97.092 133.416 97.444 133.805 97.6894 134.328C97.9347 134.851 98.0574 135.501 98.0574 136.28V141H96.4734V136.456C96.4734 135.688 96.3134 135.112 95.9934 134.728C95.6734 134.333 95.1987 134.136 94.5694 134.136C94.1427 134.136 93.7534 134.243 93.4014 134.456C93.06 134.659 92.788 134.952 92.5854 135.336C92.3934 135.72 92.2974 136.195 92.2974 136.76V141H90.6974ZM103.752 141.192C102.973 141.192 102.285 141.021 101.688 140.68C101.091 140.328 100.621 139.837 100.28 139.208C99.9493 138.579 99.784 137.843 99.784 137C99.784 136.157 99.9493 135.421 100.28 134.792C100.621 134.163 101.091 133.672 101.688 133.32C102.285 132.957 102.979 132.776 103.768 132.776C104.557 132.776 105.235 132.952 105.8 133.304C106.365 133.645 106.803 134.109 107.112 134.696C107.421 135.272 107.576 135.912 107.576 136.616C107.576 136.723 107.576 136.84 107.576 136.968C107.576 137.085 107.565 137.213 107.544 137.352H100.952V136.232H105.976C105.944 135.571 105.72 135.053 105.304 134.68C104.888 134.296 104.371 134.104 103.752 134.104C103.325 134.104 102.925 134.2 102.552 134.392C102.189 134.584 101.896 134.872 101.672 135.256C101.459 135.629 101.352 136.104 101.352 136.68V137.128C101.352 137.725 101.459 138.227 101.672 138.632C101.896 139.037 102.189 139.347 102.552 139.56C102.915 139.763 103.309 139.864 103.736 139.864C104.248 139.864 104.669 139.752 105 139.528C105.341 139.293 105.592 138.984 105.752 138.6H107.352C107.203 139.101 106.963 139.549 106.632 139.944C106.312 140.328 105.907 140.632 105.416 140.856C104.936 141.08 104.381 141.192 103.752 141.192ZM109.354 141V132.968H110.794L110.938 134.488C111.119 134.125 111.348 133.821 111.626 133.576C111.914 133.32 112.25 133.123 112.634 132.984C113.028 132.845 113.471 132.776 113.962 132.776V134.456H113.434C113.092 134.456 112.772 134.499 112.474 134.584C112.175 134.669 111.908 134.808 111.674 135C111.45 135.192 111.274 135.453 111.146 135.784C111.018 136.115 110.954 136.525 110.954 137.016V141H109.354ZM118.877 141.192C118.098 141.192 117.41 141.021 116.813 140.68C116.216 140.328 115.746 139.837 115.405 139.208C115.074 138.579 114.909 137.843 114.909 137C114.909 136.157 115.074 135.421 115.405 134.792C115.746 134.163 116.216 133.672 116.813 133.32C117.41 132.957 118.104 132.776 118.893 132.776C119.682 132.776 120.36 132.952 120.925 133.304C121.49 133.645 121.928 134.109 122.237 134.696C122.546 135.272 122.701 135.912 122.701 136.616C122.701 136.723 122.701 136.84 122.701 136.968C122.701 137.085 122.69 137.213 122.669 137.352H116.077V136.232H121.101C121.069 135.571 120.845 135.053 120.429 134.68C120.013 134.296 119.496 134.104 118.877 134.104C118.45 134.104 118.05 134.2 117.677 134.392C117.314 134.584 117.021 134.872 116.797 135.256C116.584 135.629 116.477 136.104 116.477 136.68V137.128C116.477 137.725 116.584 138.227 116.797 138.632C117.021 139.037 117.314 139.347 117.677 139.56C118.04 139.763 118.434 139.864 118.861 139.864C119.373 139.864 119.794 139.752 120.125 139.528C120.466 139.293 120.717 138.984 120.877 138.6H122.477C122.328 139.101 122.088 139.549 121.757 139.944C121.437 140.328 121.032 140.632 120.541 140.856C120.061 141.08 119.506 141.192 118.877 141.192ZM127.423 141.192C126.793 141.192 126.249 141.064 125.791 140.808C125.332 140.552 124.975 140.168 124.719 139.656C124.473 139.133 124.351 138.483 124.351 137.704V132.968H125.951V137.544C125.951 138.301 126.111 138.872 126.431 139.256C126.761 139.64 127.236 139.832 127.855 139.832C128.281 139.832 128.66 139.731 128.991 139.528C129.332 139.325 129.599 139.032 129.791 138.648C129.983 138.264 130.079 137.795 130.079 137.24V132.968H131.679V141H130.255L130.143 139.624C129.897 140.104 129.535 140.488 129.055 140.776C128.585 141.053 128.041 141.192 127.423 141.192ZM133.854 141V132.968H135.294L135.406 134.088C135.662 133.683 136.003 133.363 136.43 133.128C136.856 132.893 137.336 132.776 137.87 132.776C138.275 132.776 138.643 132.829 138.974 132.936C139.315 133.043 139.614 133.208 139.87 133.432C140.126 133.656 140.334 133.939 140.494 134.28C140.771 133.8 141.15 133.432 141.63 133.176C142.12 132.909 142.643 132.776 143.198 132.776C143.848 132.776 144.408 132.904 144.878 133.16C145.347 133.416 145.704 133.805 145.95 134.328C146.195 134.851 146.318 135.501 146.318 136.28V141H144.734V136.44C144.734 135.683 144.579 135.112 144.27 134.728C143.971 134.333 143.528 134.136 142.942 134.136C142.547 134.136 142.195 134.237 141.886 134.44C141.576 134.643 141.331 134.941 141.15 135.336C140.979 135.72 140.894 136.189 140.894 136.744V141H139.294V136.44C139.294 135.683 139.139 135.112 138.83 134.728C138.52 134.333 138.078 134.136 137.502 134.136C137.118 134.136 136.771 134.237 136.462 134.44C136.152 134.643 135.907 134.941 135.726 135.336C135.544 135.72 135.454 136.189 135.454 136.744V141H133.854Z" fill="#1E1E1F"/>
<path d="M295.133 137L293.8 135.667L292.467 137M294 136C294 139.314 291.314 142 288 142C284.686 142 282 139.314 282 136C282 132.686 284.686 130 288 130C290.201 130 292.126 131.185 293.17 132.953M288 132.667V136L290 137.333" stroke="#AEAEB2" stroke-width="1.6" stroke-linecap="round" stroke-linejoin="round"/>
<g clip-path="url(#clip1_618_7615)">
<path d="M311.334 135.999H324.667M311.334 135.999C311.334 139.681 314.319 142.665 318.001 142.665M311.334 135.999C311.334 132.317 314.319 129.332 318.001 129.332M324.667 135.999C324.667 139.681 321.683 142.665 318.001 142.665M324.667 135.999C324.667 132.317 321.683 129.332 318.001 129.332M318.001 129.332C319.668 131.158 320.616 133.527 320.667 135.999C320.616 138.471 319.668 140.84 318.001 142.665M318.001 129.332C316.333 131.158 315.385 133.527 315.334 135.999C315.385 138.471 316.333 140.84 318.001 142.665" stroke="#AEAEB2" stroke-width="1.6" stroke-linecap="round" stroke-linejoin="round"/>
</g>
<path d="M347 133.5L352 138.5L357 133.5" stroke="#AEAEB2" stroke-width="2" stroke-linecap="round" stroke-linejoin="round"/>
<rect x="24" y="496" width="352" height="44" rx="12" fill="#2772F5"/>
<path d="M191.5 523.192C190.455 523.192 189.537 522.952 188.748 522.472C187.959 521.992 187.345 521.32 186.908 520.456C186.471 519.592 186.252 518.584 186.252 517.432C186.252 516.291 186.471 515.283 186.908 514.408C187.356 513.533 187.991 512.851 188.812 512.36C189.644 511.859 190.625 511.608 191.756 511.608C193.025 511.608 194.087 511.917 194.94 512.536C195.793 513.144 196.337 513.992 196.572 515.08H194.764C194.604 514.461 194.263 513.976 193.74 513.624C193.228 513.261 192.561 513.08 191.74 513.08C190.951 513.08 190.263 513.256 189.676 513.608C189.1 513.96 188.657 514.461 188.348 515.112C188.039 515.763 187.884 516.536 187.884 517.432C187.884 518.339 188.039 519.117 188.348 519.768C188.657 520.419 189.089 520.915 189.644 521.256C190.209 521.597 190.865 521.768 191.612 521.768C192.732 521.768 193.58 521.443 194.156 520.792C194.732 520.141 195.068 519.272 195.164 518.184H192.076V516.952H196.78V523H195.308L195.18 521.288C194.924 521.704 194.625 522.056 194.284 522.344C193.953 522.621 193.559 522.835 193.1 522.984C192.652 523.123 192.119 523.192 191.5 523.192ZM202.631 523.192C201.852 523.192 201.164 523.021 200.567 522.68C199.969 522.328 199.5 521.837 199.159 521.208C198.828 520.579 198.663 519.843 198.663 519C198.663 518.157 198.828 517.421 199.159 516.792C199.5 516.163 199.969 515.672 200.567 515.32C201.164 514.957 201.857 514.776 202.647 514.776C203.436 514.776 204.113 514.952 204.679 515.304C205.244 515.645 205.681 516.109 205.991 516.696C206.3 517.272 206.455 517.912 206.455 518.616C206.455 518.723 206.455 518.84 206.455 518.968C206.455 519.085 206.444 519.213 206.423 519.352H199.831V518.232H204.855C204.823 517.571 204.599 517.053 204.183 516.68C203.767 516.296 203.249 516.104 202.631 516.104C202.204 516.104 201.804 516.2 201.431 516.392C201.068 516.584 200.775 516.872 200.551 517.256C200.337 517.629 200.231 518.104 200.231 518.68V519.128C200.231 519.725 200.337 520.227 200.551 520.632C200.775 521.037 201.068 521.347 201.431 521.56C201.793 521.763 202.188 521.864 202.615 521.864C203.127 521.864 203.548 521.752 203.879 521.528C204.22 521.293 204.471 520.984 204.631 520.6H206.231C206.081 521.101 205.841 521.549 205.511 521.944C205.191 522.328 204.785 522.632 204.295 522.856C203.815 523.08 203.26 523.192 202.631 523.192ZM211.486 523C210.984 523 210.542 522.92 210.158 522.76C209.784 522.6 209.496 522.333 209.294 521.96C209.102 521.587 209.006 521.08 209.006 520.44V516.312H207.614V514.968H209.006L209.198 512.952H210.606V514.968H212.878V516.312H210.606V520.456C210.606 520.915 210.696 521.229 210.878 521.4C211.07 521.56 211.4 521.64 211.87 521.64H212.798V523H211.486Z" fill="white"/>
<defs>
<filter id="filter0_d_618_7615" x="332" y="262" width="32" height="32" filterUnits="userSpaceOnUse" color-interpolation-filters="sRGB">
<feFlood flood-opacity="0" result="BackgroundImageFix"/>
<feColorMatrix in="SourceAlpha" type="matrix" values="0 0 0 0 0 0 0 0 0 0 0 0 0 0 0 0 0 0 127 0" result="hardAlpha"/>
<feOffset/>
<feGaussianBlur stdDeviation="4"/>
<feComposite in2="hardAlpha" operator="out"/>
<feColorMatrix type="matrix" values="0 0 0 0 0.0223581 0 0 0 0 0.0684716 0 0 0 0 0.16 0 0 0 0.06 0"/>
<feBlend mode="normal" in2="BackgroundImageFix" result="effect1_dropShadow_618_7615"/>
<feBlend mode="normal" in="SourceGraphic" in2="effect1_dropShadow_618_7615" result="shape"/>
</filter>
<clipPath id="clip0_618_7615">
<rect x="38.834" y="435.332" width="18.3333" height="13.0952" rx="3" fill="white"/>
</clipPath>
<clipPath id="clip1_618_7615">
<rect width="16" height="16" fill="white" transform="translate(310 128)"/>
</clipPath>
</defs>
</svg>
