<svg width="972" height="148" viewBox="0 0 972 148" fill="none" xmlns="http://www.w3.org/2000/svg">
<rect x="0.5" y="0.5" width="315" height="145" rx="23.5" fill="white"/>
<rect x="0.5" y="0.5" width="315" height="145" rx="23.5" stroke="#EDEDF0"/>
<path d="M33.5753 32.1293H32.0241C31.9645 31.7978 31.8535 31.5062 31.6911 31.2543C31.5286 31.0024 31.3298 30.7886 31.0945 30.6129C30.8591 30.4373 30.5956 30.3047 30.304 30.2152C30.0156 30.1257 29.709 30.081 29.3842 30.081C28.7976 30.081 28.2723 30.2285 27.8082 30.5234C27.3475 30.8184 26.983 31.2509 26.7145 31.821C26.4493 32.3911 26.3168 33.0871 26.3168 33.9091C26.3168 34.7377 26.4493 35.437 26.7145 36.0071C26.983 36.5772 27.3492 37.008 27.8132 37.2997C28.2772 37.5914 28.7992 37.7372 29.3793 37.7372C29.7008 37.7372 30.0057 37.6941 30.294 37.608C30.5857 37.5185 30.8492 37.3875 31.0845 37.2152C31.3198 37.0429 31.5187 36.8324 31.6811 36.5838C31.8468 36.3319 31.9612 36.0436 32.0241 35.7188L33.5753 35.7237C33.4924 36.2242 33.3317 36.6849 33.093 37.1058C32.8577 37.5234 32.5545 37.8847 32.1832 38.1896C31.8153 38.4912 31.3944 38.7249 30.9205 38.8906C30.4465 39.0563 29.9295 39.1392 29.3693 39.1392C28.4877 39.1392 27.7022 38.9304 27.0128 38.5128C26.3234 38.0919 25.7798 37.4903 25.3821 36.7081C24.9877 35.9259 24.7905 34.9929 24.7905 33.9091C24.7905 32.822 24.9893 31.889 25.3871 31.1101C25.7848 30.3279 26.3284 29.728 27.0178 29.3104C27.7071 28.8894 28.491 28.679 29.3693 28.679C29.9096 28.679 30.4134 28.7569 30.8807 28.9126C31.3513 29.0651 31.7739 29.2905 32.1484 29.5888C32.523 29.8838 32.8329 30.245 33.0781 30.6726C33.3234 31.0968 33.4891 31.5824 33.5753 32.1293ZM42.1011 28.8182H43.6423V35.5149C43.6423 36.2275 43.4749 36.8589 43.1402 37.4091C42.8054 37.956 42.3348 38.3868 41.7282 38.7017C41.1217 39.0133 40.4108 39.169 39.5954 39.169C38.7834 39.169 38.0741 39.0133 37.4676 38.7017C36.8611 38.3868 36.3904 37.956 36.0557 37.4091C35.7209 36.8589 35.5535 36.2275 35.5535 35.5149V28.8182H37.0898V35.3906C37.0898 35.8513 37.1908 36.2607 37.393 36.6186C37.5985 36.9766 37.8885 37.2583 38.263 37.4638C38.6376 37.666 39.0817 37.767 39.5954 37.767C40.1125 37.767 40.5583 37.666 40.9328 37.4638C41.3106 37.2583 41.599 36.9766 41.7978 36.6186C42 36.2607 42.1011 35.8513 42.1011 35.3906V28.8182ZM49.8609 39V28.8182H51.3474V32.6016H51.4369C51.523 32.4425 51.6473 32.2585 51.8097 32.0497C51.9721 31.8409 52.1975 31.6586 52.4859 31.5028C52.7742 31.3438 53.1554 31.2642 53.6293 31.2642C54.2458 31.2642 54.796 31.42 55.2799 31.7315C55.7638 32.0431 56.1433 32.4922 56.4184 33.0788C56.6968 33.6655 56.836 34.3714 56.836 35.1967C56.836 36.022 56.6985 36.7296 56.4234 37.3196C56.1483 37.9062 55.7704 38.3587 55.2899 38.6768C54.8093 38.9917 54.2607 39.1491 53.6443 39.1491C53.1802 39.1491 52.8007 39.0713 52.5058 38.9155C52.2141 38.7597 51.9854 38.5774 51.8197 38.3686C51.654 38.1598 51.5264 37.9742 51.4369 37.8118H51.3126V39H49.8609ZM51.3175 35.1818C51.3175 35.7187 51.3954 36.1894 51.5512 36.5938C51.707 36.9981 51.9324 37.3146 52.2274 37.5433C52.5223 37.7687 52.8836 37.8814 53.3112 37.8814C53.7553 37.8814 54.1265 37.7637 54.4248 37.5284C54.7231 37.2898 54.9485 36.9666 55.1009 36.5589C55.2567 36.1513 55.3346 35.6922 55.3346 35.1818C55.3346 34.678 55.2584 34.2256 55.1059 33.8246C54.9568 33.4235 54.7314 33.107 54.4298 32.875C54.1315 32.643 53.7586 32.527 53.3112 32.527C52.8803 32.527 52.5157 32.638 52.2174 32.8601C51.9224 33.0821 51.6987 33.392 51.5462 33.7898C51.3938 34.1875 51.3175 34.6515 51.3175 35.1818ZM60.8675 39.169C60.3836 39.169 59.9461 39.0795 59.555 38.9006C59.1639 38.7183 58.854 38.4548 58.6253 38.1101C58.4 37.7654 58.2873 37.3428 58.2873 36.8423C58.2873 36.4115 58.3701 36.0568 58.5359 35.7784C58.7016 35.5 58.9253 35.2796 59.207 35.1172C59.4887 34.9548 59.8036 34.8321 60.1516 34.7493C60.4996 34.6664 60.8543 34.6035 61.2155 34.5604C61.6729 34.5073 62.0441 34.4643 62.3292 34.4311C62.6142 34.3946 62.8214 34.3366 62.9506 34.2571C63.0799 34.1776 63.1445 34.0483 63.1445 33.8693V33.8345C63.1445 33.4003 63.0219 33.0639 62.7766 32.8253C62.5347 32.5866 62.1734 32.4673 61.6928 32.4673C61.1923 32.4673 60.7979 32.5784 60.5096 32.8004C60.2245 33.0192 60.0273 33.2628 59.918 33.5312L58.5209 33.2131C58.6867 32.7491 58.9286 32.3745 59.2468 32.0895C59.5683 31.8011 59.9378 31.5923 60.3555 31.4631C60.7731 31.3305 61.2122 31.2642 61.6729 31.2642C61.9779 31.2642 62.301 31.3007 62.6424 31.3736C62.9871 31.4432 63.3086 31.5724 63.6069 31.7614C63.9085 31.9503 64.1554 32.2204 64.3476 32.5717C64.5399 32.9197 64.636 33.3722 64.636 33.929V39H63.1843V37.956H63.1246C63.0285 38.1482 62.8843 38.3371 62.6921 38.5227C62.4999 38.7083 62.2529 38.8625 61.9513 38.9851C61.6497 39.1077 61.2885 39.169 60.8675 39.169ZM61.1907 37.9759C61.6017 37.9759 61.953 37.8946 62.2447 37.7322C62.5396 37.5698 62.7634 37.3577 62.9158 37.0959C63.0716 36.8307 63.1495 36.5473 63.1495 36.2457V35.2614C63.0965 35.3144 62.9937 35.3641 62.8413 35.4105C62.6921 35.4536 62.5214 35.4917 62.3292 35.5249C62.1369 35.5547 61.9497 35.5829 61.7674 35.6094C61.5851 35.6326 61.4326 35.6525 61.31 35.669C61.0216 35.7055 60.7582 35.7668 60.5195 35.853C60.2842 35.9392 60.0953 36.0634 59.9528 36.2259C59.8136 36.3849 59.744 36.5971 59.744 36.8622C59.744 37.2301 59.8798 37.5085 60.1516 37.6974C60.4234 37.883 60.7698 37.9759 61.1907 37.9759ZM68.2424 28.8182V39H66.7559V28.8182H68.2424ZM72.6046 39.169C72.1207 39.169 71.6832 39.0795 71.2921 38.9006C70.901 38.7183 70.5911 38.4548 70.3624 38.1101C70.137 37.7654 70.0243 37.3428 70.0243 36.8423C70.0243 36.4115 70.1072 36.0568 70.2729 35.7784C70.4386 35.5 70.6623 35.2796 70.944 35.1172C71.2258 34.9548 71.5406 34.8321 71.8887 34.7493C72.2367 34.6664 72.5913 34.6035 72.9526 34.5604C73.41 34.5073 73.7812 34.4643 74.0662 34.4311C74.3512 34.3946 74.5584 34.3366 74.6877 34.2571C74.8169 34.1776 74.8815 34.0483 74.8815 33.8693V33.8345C74.8815 33.4003 74.7589 33.0639 74.5137 32.8253C74.2717 32.5866 73.9104 32.4673 73.4298 32.4673C72.9294 32.4673 72.535 32.5784 72.2466 32.8004C71.9616 33.0192 71.7644 33.2628 71.655 33.5312L70.258 33.2131C70.4237 32.7491 70.6656 32.3745 70.9838 32.0895C71.3053 31.8011 71.6749 31.5923 72.0925 31.4631C72.5101 31.3305 72.9493 31.2642 73.41 31.2642C73.7149 31.2642 74.038 31.3007 74.3794 31.3736C74.7241 31.4432 75.0456 31.5724 75.3439 31.7614C75.6455 31.9503 75.8924 32.2204 76.0847 32.5717C76.2769 32.9197 76.373 33.3722 76.373 33.929V39H74.9213V37.956H74.8617C74.7655 38.1482 74.6214 38.3371 74.4291 38.5227C74.2369 38.7083 73.99 38.8625 73.6884 38.9851C73.3868 39.1077 73.0255 39.169 72.6046 39.169ZM72.9277 37.9759C73.3387 37.9759 73.69 37.8946 73.9817 37.7322C74.2767 37.5698 74.5004 37.3577 74.6529 37.0959C74.8086 36.8307 74.8865 36.5473 74.8865 36.2457V35.2614C74.8335 35.3144 74.7307 35.3641 74.5783 35.4105C74.4291 35.4536 74.2584 35.4917 74.0662 35.5249C73.874 35.5547 73.6867 35.5829 73.5044 35.6094C73.3221 35.6326 73.1697 35.6525 73.047 35.669C72.7587 35.7055 72.4952 35.7668 72.2565 35.853C72.0212 35.9392 71.8323 36.0634 71.6898 36.2259C71.5506 36.3849 71.481 36.5971 71.481 36.8622C71.481 37.2301 71.6169 37.5085 71.8887 37.6974C72.1604 37.883 72.5068 37.9759 72.9277 37.9759ZM79.9795 34.4659V39H78.493V31.3636H79.9198V32.6065H80.0143C80.1899 32.2022 80.465 31.8774 80.8396 31.6321C81.2174 31.3868 81.693 31.2642 82.2664 31.2642C82.7868 31.2642 83.2425 31.3736 83.6336 31.5923C84.0247 31.8078 84.328 32.1293 84.5434 32.5568C84.7588 32.9844 84.8665 33.513 84.8665 34.1428V39H83.38V34.3217C83.38 33.7682 83.2359 33.3357 82.9475 33.0241C82.6592 32.7093 82.2631 32.5518 81.7593 32.5518C81.4146 32.5518 81.108 32.6264 80.8396 32.7756C80.5744 32.9247 80.3639 33.1435 80.2082 33.4318C80.0557 33.7169 79.9795 34.0616 79.9795 34.4659ZM90.2168 39.1541C89.4777 39.1541 88.8413 38.9867 88.3077 38.652C87.7774 38.3139 87.3697 37.8482 87.0847 37.255C86.7996 36.6617 86.6571 35.9822 86.6571 35.2166C86.6571 34.4411 86.8029 33.7566 87.0946 33.1634C87.3863 32.5668 87.7973 32.1011 88.3276 31.7663C88.8579 31.4316 89.4826 31.2642 90.2019 31.2642C90.7819 31.2642 91.2989 31.3719 91.753 31.5874C92.2071 31.7995 92.5733 32.0978 92.8517 32.4822C93.1334 32.8667 93.3008 33.3158 93.3538 33.8295H91.9071C91.8276 33.4716 91.6453 33.1634 91.3602 32.9048C91.0785 32.6463 90.7007 32.517 90.2267 32.517C89.8124 32.517 89.4495 32.6264 89.1379 32.8452C88.8297 33.0606 88.5894 33.3688 88.4171 33.7699C88.2447 34.1676 88.1585 34.6383 88.1585 35.1818C88.1585 35.7386 88.243 36.2192 88.4121 36.6236C88.5811 37.0279 88.8198 37.3411 89.128 37.5632C89.4395 37.7853 89.8058 37.8963 90.2267 37.8963C90.5084 37.8963 90.7636 37.8449 90.9923 37.7422C91.2243 37.6361 91.4182 37.4853 91.574 37.2898C91.7331 37.0942 91.8441 36.8589 91.9071 36.5838H93.3538C93.3008 37.0777 93.1401 37.5185 92.8716 37.9062C92.6031 38.294 92.2435 38.599 91.7928 38.821C91.3453 39.0431 90.82 39.1541 90.2168 39.1541ZM98.3747 39.1541C97.6223 39.1541 96.9744 38.9934 96.4308 38.6719C95.8906 38.3471 95.473 37.8913 95.178 37.3047C94.8863 36.7147 94.7405 36.0237 94.7405 35.2315C94.7405 34.4493 94.8863 33.7599 95.178 33.1634C95.473 32.5668 95.8839 32.1011 96.4109 31.7663C96.9412 31.4316 97.561 31.2642 98.2703 31.2642C98.7012 31.2642 99.1188 31.3355 99.5231 31.478C99.9275 31.6205 100.29 31.8442 100.612 32.1491C100.933 32.4541 101.187 32.8501 101.373 33.3374C101.558 33.8213 101.651 34.4096 101.651 35.1023V35.6293H95.5807V34.5156H100.194C100.194 34.1245 100.115 33.7782 99.9557 33.4766C99.7966 33.1716 99.5729 32.9313 99.2845 32.7557C98.9995 32.58 98.6647 32.4922 98.2802 32.4922C97.8626 32.4922 97.498 32.5949 97.1865 32.8004C96.8783 33.0026 96.6396 33.2678 96.4706 33.5959C96.3049 33.9207 96.222 34.2737 96.222 34.6548V35.5249C96.222 36.0353 96.3115 36.4695 96.4905 36.8274C96.6728 37.1854 96.9263 37.4588 97.2511 37.6477C97.5759 37.8333 97.9554 37.9261 98.3896 37.9261C98.6713 37.9261 98.9282 37.8864 99.1602 37.8068C99.3922 37.724 99.5927 37.6013 99.7618 37.4389C99.9308 37.2765 100.06 37.076 100.15 36.8374L101.557 37.0909C101.444 37.5052 101.242 37.8681 100.95 38.1797C100.662 38.4879 100.299 38.7282 99.8612 38.9006C99.427 39.0696 98.9315 39.1541 98.3747 39.1541Z" fill="#AEAEB2"/>
<path d="M31.6193 69.2386C30.483 69.2386 29.4659 69.0256 28.5682 68.5994C27.6705 68.1676 26.9574 67.5767 26.429 66.8267C25.9063 66.0767 25.6278 65.2187 25.5938 64.2528H28.6619C28.7188 64.9687 29.0284 65.554 29.5909 66.0085C30.1534 66.4574 30.8295 66.6818 31.6193 66.6818C32.2386 66.6818 32.7898 66.5398 33.2727 66.2557C33.7557 65.9716 34.1364 65.5767 34.4148 65.071C34.6932 64.5653 34.8295 63.9886 34.8239 63.3409C34.8295 62.6818 34.6903 62.0966 34.4062 61.5852C34.1222 61.0739 33.733 60.6733 33.2386 60.3835C32.7443 60.0881 32.1761 59.9403 31.5341 59.9403C31.0114 59.9347 30.4972 60.0312 29.9915 60.2301C29.4858 60.429 29.0852 60.6903 28.7898 61.0142L25.9347 60.5455L26.8466 51.5455H36.9716V54.1875H29.4631L28.9602 58.8153H29.0625C29.3864 58.4347 29.8438 58.1193 30.4347 57.8693C31.0256 57.6136 31.6733 57.4858 32.3778 57.4858C33.4347 57.4858 34.3778 57.7358 35.2074 58.2358C36.0369 58.7301 36.6903 59.4119 37.1676 60.2812C37.6449 61.1506 37.8835 62.1449 37.8835 63.2642C37.8835 64.4176 37.6165 65.446 37.0824 66.3494C36.554 67.2472 35.8182 67.9545 34.875 68.4716C33.9375 68.983 32.8523 69.2386 31.6193 69.2386ZM40.4233 65.7614V63.2472L47.8295 51.5455H49.9261V55.125H48.6477L43.6619 63.0256V63.1619H54V65.7614H40.4233ZM48.75 69V64.9943L48.7841 63.8693V51.5455H51.767V69H48.75ZM62.7827 51.3068C63.6179 51.3125 64.4304 51.4602 65.2202 51.75C66.0156 52.0341 66.7315 52.5 67.3679 53.1477C68.0043 53.7898 68.5099 54.6506 68.8849 55.7301C69.2599 56.8097 69.4474 58.1449 69.4474 59.7358C69.4531 61.2358 69.294 62.5767 68.9702 63.7585C68.652 64.9347 68.1946 65.929 67.598 66.7415C67.0014 67.554 66.2827 68.1733 65.4418 68.5994C64.6009 69.0256 63.6548 69.2386 62.6037 69.2386C61.5014 69.2386 60.5241 69.0227 59.6719 68.5909C58.8253 68.1591 58.1406 67.5682 57.6179 66.8182C57.0952 66.0682 56.7741 65.2102 56.6548 64.2443H59.7656C59.9247 64.9375 60.2486 65.4886 60.7372 65.8977C61.2315 66.3011 61.8537 66.5028 62.6037 66.5028C63.8139 66.5028 64.7457 65.9773 65.3991 64.9261C66.0526 63.875 66.3793 62.4148 66.3793 60.5455H66.2599C65.9815 61.0455 65.6207 61.4773 65.1776 61.8409C64.7344 62.1989 64.2315 62.4744 63.669 62.6676C63.1122 62.8608 62.5213 62.9574 61.8963 62.9574C60.8736 62.9574 59.9531 62.7131 59.1349 62.2244C58.3224 61.7358 57.6776 61.0653 57.2003 60.2131C56.7287 59.3608 56.4901 58.3864 56.4844 57.2898C56.4844 56.1534 56.7457 55.1335 57.2685 54.2301C57.7969 53.321 58.5327 52.6051 59.4759 52.0824C60.419 51.554 61.5213 51.2955 62.7827 51.3068ZM62.7912 53.8636C62.1776 53.8636 61.6236 54.0142 61.1293 54.3153C60.6406 54.6108 60.2543 55.0142 59.9702 55.5256C59.6918 56.0312 59.5526 56.5966 59.5526 57.2216C59.5582 57.8409 59.6974 58.4034 59.9702 58.9091C60.2486 59.4148 60.6264 59.8153 61.1037 60.1108C61.5866 60.4062 62.1378 60.554 62.7571 60.554C63.2173 60.554 63.6463 60.4659 64.044 60.2898C64.4418 60.1136 64.7884 59.8693 65.0838 59.5568C65.3849 59.2386 65.6179 58.8778 65.7827 58.4744C65.9531 58.071 66.0355 57.6449 66.0298 57.196C66.0298 56.5994 65.8878 56.0483 65.6037 55.5426C65.3253 55.0369 64.9418 54.6307 64.4531 54.3239C63.9702 54.017 63.4162 53.8636 62.7912 53.8636ZM77.9233 65.7614V63.2472L85.3295 51.5455H87.4261V55.125H86.1477L81.1619 63.0256V63.1619H91.5V65.7614H77.9233ZM86.25 69V64.9943L86.2841 63.8693V51.5455H89.267V69H86.25ZM100.291 69.2386C99.1548 69.2386 98.1378 69.0256 97.2401 68.5994C96.3423 68.1676 95.6293 67.5767 95.1009 66.8267C94.5781 66.0767 94.2997 65.2187 94.2656 64.2528H97.3338C97.3906 64.9687 97.7003 65.554 98.2628 66.0085C98.8253 66.4574 99.5014 66.6818 100.291 66.6818C100.911 66.6818 101.462 66.5398 101.945 66.2557C102.428 65.9716 102.808 65.5767 103.087 65.071C103.365 64.5653 103.501 63.9886 103.496 63.3409C103.501 62.6818 103.362 62.0966 103.078 61.5852C102.794 61.0739 102.405 60.6733 101.911 60.3835C101.416 60.0881 100.848 59.9403 100.206 59.9403C99.6832 59.9347 99.169 60.0312 98.6634 60.2301C98.1577 60.429 97.7571 60.6903 97.4616 61.0142L94.6065 60.5455L95.5185 51.5455H105.643V54.1875H98.1349L97.6321 58.8153H97.7344C98.0582 58.4347 98.5156 58.1193 99.1065 57.8693C99.6974 57.6136 100.345 57.4858 101.05 57.4858C102.107 57.4858 103.05 57.7358 103.879 58.2358C104.709 58.7301 105.362 59.4119 105.839 60.2812C106.317 61.1506 106.555 62.1449 106.555 63.2642C106.555 64.4176 106.288 65.446 105.754 66.3494C105.226 67.2472 104.49 67.9545 103.547 68.4716C102.609 68.983 101.524 69.2386 100.291 69.2386ZM115.803 69.2386C114.967 69.233 114.152 69.0881 113.357 68.804C112.561 68.5142 111.845 68.0455 111.209 67.3977C110.572 66.7443 110.067 65.8778 109.692 64.7983C109.317 63.7131 109.132 62.3693 109.138 60.767C109.138 59.2727 109.297 57.9403 109.615 56.7699C109.933 55.5994 110.391 54.6108 110.987 53.804C111.584 52.9915 112.303 52.3722 113.143 51.946C113.99 51.5199 114.936 51.3068 115.982 51.3068C117.078 51.3068 118.05 51.5227 118.896 51.9545C119.749 52.3864 120.436 52.9773 120.959 53.7273C121.482 54.4716 121.805 55.3125 121.93 56.25H118.82C118.661 55.5795 118.334 55.0455 117.839 54.6477C117.351 54.2443 116.732 54.0426 115.982 54.0426C114.771 54.0426 113.839 54.5682 113.186 55.6193C112.538 56.6705 112.212 58.1136 112.206 59.9489H112.325C112.604 59.4489 112.964 59.0199 113.408 58.6619C113.851 58.304 114.351 58.0284 114.908 57.8352C115.47 57.6364 116.064 57.5369 116.689 57.5369C117.712 57.5369 118.629 57.7812 119.442 58.2699C120.26 58.7585 120.908 59.4318 121.385 60.2898C121.862 61.142 122.098 62.1193 122.092 63.2216C122.098 64.3693 121.837 65.4006 121.308 66.3153C120.78 67.2244 120.044 67.9403 119.101 68.4631C118.158 68.9858 117.058 69.2443 115.803 69.2386ZM115.786 66.6818C116.405 66.6818 116.959 66.5312 117.447 66.2301C117.936 65.929 118.322 65.5227 118.607 65.0114C118.891 64.5 119.03 63.9261 119.024 63.2898C119.03 62.6648 118.893 62.0994 118.615 61.5938C118.342 61.0881 117.964 60.6875 117.482 60.392C116.999 60.0966 116.447 59.9489 115.828 59.9489C115.368 59.9489 114.939 60.0369 114.541 60.2131C114.143 60.3892 113.797 60.6335 113.501 60.946C113.206 61.2528 112.973 61.6108 112.803 62.0199C112.638 62.4233 112.553 62.8551 112.547 63.3153C112.553 63.9233 112.695 64.483 112.973 64.9943C113.251 65.5057 113.635 65.9148 114.124 66.2216C114.612 66.5284 115.166 66.6818 115.786 66.6818ZM137.318 69.2386C136.483 69.233 135.668 69.0881 134.872 68.804C134.077 68.5142 133.361 68.0455 132.724 67.3977C132.088 66.7443 131.582 65.8778 131.207 64.7983C130.832 63.7131 130.648 62.3693 130.653 60.767C130.653 59.2727 130.813 57.9403 131.131 56.7699C131.449 55.5994 131.906 54.6108 132.503 53.804C133.099 52.9915 133.818 52.3722 134.659 51.946C135.506 51.5199 136.452 51.3068 137.497 51.3068C138.594 51.3068 139.565 51.5227 140.412 51.9545C141.264 52.3864 141.952 52.9773 142.474 53.7273C142.997 54.4716 143.321 55.3125 143.446 56.25H140.335C140.176 55.5795 139.849 55.0455 139.355 54.6477C138.866 54.2443 138.247 54.0426 137.497 54.0426C136.287 54.0426 135.355 54.5682 134.702 55.6193C134.054 56.6705 133.727 58.1136 133.722 59.9489H133.841C134.119 59.4489 134.48 59.0199 134.923 58.6619C135.366 58.304 135.866 58.0284 136.423 57.8352C136.986 57.6364 137.58 57.5369 138.205 57.5369C139.227 57.5369 140.145 57.7812 140.957 58.2699C141.776 58.7585 142.423 59.4318 142.901 60.2898C143.378 61.142 143.614 62.1193 143.608 63.2216C143.614 64.3693 143.352 65.4006 142.824 66.3153C142.295 67.2244 141.56 67.9403 140.616 68.4631C139.673 68.9858 138.574 69.2443 137.318 69.2386ZM137.301 66.6818C137.92 66.6818 138.474 66.5312 138.963 66.2301C139.452 65.929 139.838 65.5227 140.122 65.0114C140.406 64.5 140.545 63.9261 140.54 63.2898C140.545 62.6648 140.409 62.0994 140.131 61.5938C139.858 61.0881 139.48 60.6875 138.997 60.392C138.514 60.0966 137.963 59.9489 137.344 59.9489C136.884 59.9489 136.455 60.0369 136.057 60.2131C135.659 60.3892 135.313 60.6335 135.017 60.946C134.722 61.2528 134.489 61.6108 134.318 62.0199C134.153 62.4233 134.068 62.8551 134.062 63.3153C134.068 63.9233 134.21 64.483 134.489 64.9943C134.767 65.5057 135.151 65.9148 135.639 66.2216C136.128 66.5284 136.682 66.6818 137.301 66.6818ZM152.557 69.2386C151.42 69.2386 150.403 69.0256 149.506 68.5994C148.608 68.1676 147.895 67.5767 147.366 66.8267C146.844 66.0767 146.565 65.2187 146.531 64.2528H149.599C149.656 64.9687 149.966 65.554 150.528 66.0085C151.091 66.4574 151.767 66.6818 152.557 66.6818C153.176 66.6818 153.727 66.5398 154.21 66.2557C154.693 65.9716 155.074 65.5767 155.352 65.071C155.631 64.5653 155.767 63.9886 155.761 63.3409C155.767 62.6818 155.628 62.0966 155.344 61.5852C155.06 61.0739 154.67 60.6733 154.176 60.3835C153.682 60.0881 153.114 59.9403 152.472 59.9403C151.949 59.9347 151.435 60.0312 150.929 60.2301C150.423 60.429 150.023 60.6903 149.727 61.0142L146.872 60.5455L147.784 51.5455H157.909V54.1875H150.401L149.898 58.8153H150C150.324 58.4347 150.781 58.1193 151.372 57.8693C151.963 57.6136 152.611 57.4858 153.315 57.4858C154.372 57.4858 155.315 57.7358 156.145 58.2358C156.974 58.7301 157.628 59.4119 158.105 60.2812C158.582 61.1506 158.821 62.1449 158.821 63.2642C158.821 64.4176 158.554 65.446 158.02 66.3494C157.491 67.2472 156.756 67.9545 155.812 68.4716C154.875 68.983 153.79 69.2386 152.557 69.2386ZM162.315 69L169.739 54.3068V54.1875H161.122V51.5455H173.011V54.2472L165.597 69H162.315Z" fill="#1E1E1F"/>
<rect x="222" y="24" width="70" height="36" rx="12" fill="#EBF3FF"/>
<path d="M237.304 47V38.348H234.406V37.2H241.616V38.348H238.704V47H237.304ZM244.926 47.168C244.263 47.168 243.666 47.014 243.134 46.706C242.611 46.398 242.196 45.9687 241.888 45.418C241.589 44.858 241.44 44.214 241.44 43.486C241.44 42.7393 241.594 42.0907 241.902 41.54C242.21 40.98 242.63 40.546 243.162 40.238C243.694 39.93 244.291 39.776 244.954 39.776C245.626 39.776 246.223 39.93 246.746 40.238C247.269 40.546 247.679 40.9753 247.978 41.526C248.286 42.0767 248.44 42.7253 248.44 43.472C248.44 44.2187 248.286 44.8673 247.978 45.418C247.679 45.9687 247.264 46.398 246.732 46.706C246.2 47.014 245.598 47.168 244.926 47.168ZM244.926 45.964C245.309 45.964 245.654 45.8707 245.962 45.684C246.279 45.4973 246.531 45.222 246.718 44.858C246.914 44.4847 247.012 44.0227 247.012 43.472C247.012 42.9213 246.919 42.464 246.732 42.1C246.545 41.7267 246.293 41.4467 245.976 41.26C245.668 41.0733 245.327 40.98 244.954 40.98C244.581 40.98 244.235 41.0733 243.918 41.26C243.601 41.4467 243.344 41.7267 243.148 42.1C242.961 42.464 242.868 42.9213 242.868 43.472C242.868 44.0227 242.961 44.4847 243.148 44.858C243.344 45.222 243.596 45.4973 243.904 45.684C244.221 45.8707 244.562 45.964 244.926 45.964ZM250.087 50.08V39.944H251.347L251.487 41.036C251.636 40.8213 251.823 40.6207 252.047 40.434C252.271 40.238 252.537 40.0793 252.845 39.958C253.162 39.8367 253.531 39.776 253.951 39.776C254.623 39.776 255.211 39.9393 255.715 40.266C256.228 40.5927 256.625 41.036 256.905 41.596C257.194 42.1467 257.339 42.7767 257.339 43.486C257.339 44.1953 257.194 44.83 256.905 45.39C256.615 45.9407 256.214 46.3747 255.701 46.692C255.197 47.0093 254.609 47.168 253.937 47.168C253.386 47.168 252.901 47.0607 252.481 46.846C252.061 46.622 251.729 46.314 251.487 45.922V50.08H250.087ZM253.713 45.95C254.142 45.95 254.52 45.8473 254.847 45.642C255.183 45.4367 255.444 45.1473 255.631 44.774C255.827 44.4007 255.925 43.9667 255.925 43.472C255.925 42.9773 255.827 42.548 255.631 42.184C255.444 41.8107 255.183 41.5213 254.847 41.316C254.52 41.1013 254.142 40.994 253.713 40.994C253.274 40.994 252.887 41.1013 252.551 41.316C252.224 41.5213 251.967 41.8107 251.781 42.184C251.594 42.548 251.501 42.9773 251.501 43.472C251.501 43.9667 251.594 44.4007 251.781 44.774C251.967 45.1473 252.224 45.4367 252.551 45.642C252.887 45.8473 253.274 45.95 253.713 45.95ZM266.238 47.168C265.547 47.168 264.922 47.0327 264.362 46.762C263.802 46.482 263.354 46.062 263.018 45.502C262.691 44.9327 262.528 44.2093 262.528 43.332V37.2H263.928V43.346C263.928 43.934 264.026 44.4193 264.222 44.802C264.418 45.1753 264.688 45.4553 265.034 45.642C265.388 45.8193 265.799 45.908 266.266 45.908C266.742 45.908 267.152 45.8193 267.498 45.642C267.843 45.4553 268.109 45.1753 268.296 44.802C268.492 44.4193 268.59 43.934 268.59 43.346V37.2H269.99V43.332C269.99 44.2093 269.822 44.9327 269.486 45.502C269.15 46.062 268.697 46.482 268.128 46.762C267.558 47.0327 266.928 47.168 266.238 47.168ZM271.866 50.08V39.944H273.126L273.266 41.036C273.415 40.8213 273.602 40.6207 273.826 40.434C274.05 40.238 274.316 40.0793 274.624 39.958C274.941 39.8367 275.31 39.776 275.73 39.776C276.402 39.776 276.99 39.9393 277.494 40.266C278.007 40.5927 278.404 41.036 278.684 41.596C278.973 42.1467 279.118 42.7767 279.118 43.486C279.118 44.1953 278.973 44.83 278.684 45.39C278.395 45.9407 277.993 46.3747 277.48 46.692C276.976 47.0093 276.388 47.168 275.716 47.168C275.165 47.168 274.68 47.0607 274.26 46.846C273.84 46.622 273.509 46.314 273.266 45.922V50.08H271.866ZM275.492 45.95C275.921 45.95 276.299 45.8473 276.626 45.642C276.962 45.4367 277.223 45.1473 277.41 44.774C277.606 44.4007 277.704 43.9667 277.704 43.472C277.704 42.9773 277.606 42.548 277.41 42.184C277.223 41.8107 276.962 41.5213 276.626 41.316C276.299 41.1013 275.921 40.994 275.492 40.994C275.053 40.994 274.666 41.1013 274.33 41.316C274.003 41.5213 273.747 41.8107 273.56 42.184C273.373 42.548 273.28 42.9773 273.28 43.472C273.28 43.9667 273.373 44.4007 273.56 44.774C273.747 45.1473 274.003 45.4367 274.33 45.642C274.666 45.8473 275.053 45.95 275.492 45.95Z" fill="#0B57D0"/>
<path d="M27.8778 105.145C27.2045 105.142 26.6293 104.964 26.152 104.612C25.6747 104.26 25.3097 103.747 25.0568 103.074C24.804 102.401 24.6776 101.589 24.6776 100.641C24.6776 99.6946 24.804 98.8864 25.0568 98.2159C25.3125 97.5455 25.679 97.0341 26.1562 96.6818C26.6364 96.3295 27.2102 96.1534 27.8778 96.1534C28.5455 96.1534 29.1179 96.331 29.5952 96.6861C30.0724 97.0384 30.4375 97.5497 30.6903 98.2202C30.946 98.8878 31.0739 99.6946 31.0739 100.641C31.0739 101.592 30.9474 102.405 30.6946 103.078C30.4418 103.749 30.0767 104.261 29.5994 104.616C29.1222 104.969 28.5483 105.145 27.8778 105.145ZM27.8778 104.007C28.4688 104.007 28.9304 103.719 29.2628 103.142C29.598 102.565 29.7656 101.732 29.7656 100.641C29.7656 99.9162 29.6889 99.304 29.5355 98.804C29.3849 98.3011 29.1676 97.9205 28.8835 97.6619C28.6023 97.4006 28.267 97.2699 27.8778 97.2699C27.2898 97.2699 26.8281 97.5597 26.4929 98.1392C26.1577 98.7187 25.9886 99.5526 25.9858 100.641C25.9858 101.368 26.0611 101.983 26.2116 102.486C26.3651 102.986 26.5824 103.365 26.8636 103.624C27.1449 103.879 27.483 104.007 27.8778 104.007Z" fill="#2772F5"/>
<path d="M173.886 105.119C173.497 105.114 173.114 105.043 172.736 104.906C172.361 104.77 172.02 104.543 171.713 104.224C171.406 103.906 171.161 103.479 170.976 102.942C170.794 102.405 170.703 101.734 170.703 100.93C170.703 100.169 170.778 99.4929 170.929 98.902C171.082 98.3111 171.303 97.8125 171.589 97.4062C171.876 96.9972 172.223 96.6861 172.629 96.473C173.036 96.2599 173.491 96.1534 173.997 96.1534C174.517 96.1534 174.979 96.2557 175.382 96.4602C175.786 96.6648 176.112 96.9474 176.362 97.3082C176.615 97.669 176.776 98.0795 176.844 98.5398H175.544C175.456 98.1761 175.281 97.8793 175.02 97.6491C174.759 97.419 174.418 97.304 173.997 97.304C173.358 97.304 172.859 97.5824 172.501 98.1392C172.146 98.696 171.967 99.4702 171.964 100.462H172.028C172.179 100.214 172.364 100.004 172.582 99.831C172.804 99.6548 173.051 99.5199 173.324 99.4261C173.599 99.3295 173.889 99.2812 174.193 99.2812C174.699 99.2812 175.156 99.4048 175.565 99.652C175.977 99.8963 176.305 100.234 176.55 100.666C176.794 101.098 176.916 101.592 176.916 102.149C176.916 102.706 176.79 103.21 176.537 103.662C176.287 104.114 175.935 104.472 175.48 104.736C175.026 104.997 174.494 105.125 173.886 105.119ZM173.882 104.011C174.217 104.011 174.517 103.929 174.781 103.764C175.045 103.599 175.254 103.378 175.408 103.099C175.561 102.821 175.638 102.51 175.638 102.166C175.638 101.831 175.563 101.526 175.412 101.25C175.264 100.974 175.06 100.756 174.798 100.594C174.54 100.432 174.244 100.351 173.912 100.351C173.659 100.351 173.425 100.399 173.209 100.496C172.996 100.592 172.808 100.726 172.646 100.896C172.484 101.067 172.357 101.263 172.263 101.484C172.172 101.703 172.126 101.935 172.126 102.179C172.126 102.506 172.202 102.808 172.352 103.087C172.506 103.365 172.714 103.589 172.979 103.76C173.246 103.928 173.547 104.011 173.882 104.011ZM181.627 105.145C180.953 105.142 180.378 104.964 179.901 104.612C179.424 104.26 179.059 103.747 178.806 103.074C178.553 102.401 178.426 101.589 178.426 100.641C178.426 99.6946 178.553 98.8864 178.806 98.2159C179.061 97.5455 179.428 97.0341 179.905 96.6818C180.385 96.3295 180.959 96.1534 181.627 96.1534C182.294 96.1534 182.867 96.331 183.344 96.6861C183.821 97.0384 184.186 97.5497 184.439 98.2202C184.695 98.8878 184.823 99.6946 184.823 100.641C184.823 101.592 184.696 102.405 184.444 103.078C184.191 103.749 183.826 104.261 183.348 104.616C182.871 104.969 182.297 105.145 181.627 105.145ZM181.627 104.007C182.218 104.007 182.679 103.719 183.012 103.142C183.347 102.565 183.515 101.732 183.515 100.641C183.515 99.9162 183.438 99.304 183.284 98.804C183.134 98.3011 182.917 97.9205 182.632 97.6619C182.351 97.4006 182.016 97.2699 181.627 97.2699C181.039 97.2699 180.577 97.5597 180.242 98.1392C179.907 98.7187 179.738 99.5526 179.735 100.641C179.735 101.368 179.81 101.983 179.961 102.486C180.114 102.986 180.331 103.365 180.613 103.624C180.894 103.879 181.232 104.007 181.627 104.007ZM189.493 105.145C188.82 105.142 188.244 104.964 187.767 104.612C187.29 104.26 186.925 103.747 186.672 103.074C186.419 102.401 186.293 101.589 186.293 100.641C186.293 99.6946 186.419 98.8864 186.672 98.2159C186.927 97.5455 187.294 97.0341 187.771 96.6818C188.251 96.3295 188.825 96.1534 189.493 96.1534C190.16 96.1534 190.733 96.331 191.21 96.6861C191.687 97.0384 192.053 97.5497 192.305 98.2202C192.561 98.8878 192.689 99.6946 192.689 100.641C192.689 101.592 192.562 102.405 192.31 103.078C192.057 103.749 191.692 104.261 191.214 104.616C190.737 104.969 190.163 105.145 189.493 105.145ZM189.493 104.007C190.084 104.007 190.545 103.719 190.878 103.142C191.213 102.565 191.381 101.732 191.381 100.641C191.381 99.9162 191.304 99.304 191.151 98.804C191 98.3011 190.783 97.9205 190.499 97.6619C190.217 97.4006 189.882 97.2699 189.493 97.2699C188.905 97.2699 188.443 97.5597 188.108 98.1392C187.773 98.7187 187.604 99.5526 187.601 100.641C187.601 101.368 187.676 101.983 187.827 102.486C187.98 102.986 188.197 103.365 188.479 103.624C188.76 103.879 189.098 104.007 189.493 104.007ZM194.44 96.2727H196.038L198.816 103.057H198.919L201.697 96.2727H203.295V105H202.042V98.6847H201.961L199.387 104.987H198.348L195.774 98.6804H195.693V105H194.44V96.2727Z" fill="#85B4FF"/>
<rect x="24" y="114" width="181" height="8" rx="4" fill="#D6E6FF"/>
<rect x="24" y="114" width="114.531" height="8" rx="4" fill="#2772F5"/>
<path d="M238.044 112.744C237.813 114.919 236.581 116.957 234.541 118.134C231.153 120.09 226.821 118.929 224.865 115.541L224.657 115.18M223.955 111.256C224.187 109.081 225.419 107.043 227.458 105.865C230.846 103.909 235.178 105.07 237.134 108.458L237.342 108.819M223.911 117.055L224.521 114.778L226.798 115.388M235.202 108.611L237.479 109.221L238.089 106.945M231 108.25V112L233.083 113.25" stroke="#2772F5" stroke-width="1.6" stroke-linecap="round" stroke-linejoin="round"/>
<path d="M254.371 106.818V117H252.731L247.933 110.065H247.849V117H246.004V106.818H247.655L252.447 113.759H252.537V106.818H254.371ZM259.773 117.149C259.027 117.149 258.381 116.985 257.834 116.657C257.287 116.329 256.863 115.87 256.561 115.28C256.263 114.69 256.114 114 256.114 113.212C256.114 112.423 256.263 111.732 256.561 111.138C256.863 110.545 257.287 110.085 257.834 109.756C258.381 109.428 259.027 109.264 259.773 109.264C260.518 109.264 261.165 109.428 261.712 109.756C262.258 110.085 262.681 110.545 262.979 111.138C263.281 111.732 263.432 112.423 263.432 113.212C263.432 114 263.281 114.69 262.979 115.28C262.681 115.87 262.258 116.329 261.712 116.657C261.165 116.985 260.518 117.149 259.773 117.149ZM259.783 115.707C260.187 115.707 260.525 115.596 260.797 115.374C261.069 115.149 261.271 114.847 261.403 114.469C261.539 114.092 261.607 113.671 261.607 113.207C261.607 112.739 261.539 112.317 261.403 111.939C261.271 111.558 261.069 111.254 260.797 111.029C260.525 110.804 260.187 110.691 259.783 110.691C259.368 110.691 259.024 110.804 258.748 111.029C258.477 111.254 258.273 111.558 258.137 111.939C258.004 112.317 257.938 112.739 257.938 113.207C257.938 113.671 258.004 114.092 258.137 114.469C258.273 114.847 258.477 115.149 258.748 115.374C259.024 115.596 259.368 115.707 259.783 115.707ZM271.661 109.364L268.941 117H266.952L264.233 109.364H266.152L267.907 115.036H267.986L269.746 109.364H271.661ZM280.78 106.818V117H278.936V108.613H278.876L276.494 110.134V108.444L279.025 106.818H280.78ZM287.269 117.194C286.45 117.194 285.747 116.987 285.161 116.572C284.577 116.155 284.128 115.553 283.813 114.768C283.502 113.979 283.346 113.029 283.346 111.919C283.349 110.809 283.507 109.864 283.818 109.085C284.133 108.303 284.582 107.706 285.166 107.295C285.752 106.884 286.453 106.679 287.269 106.679C288.084 106.679 288.785 106.884 289.372 107.295C289.958 107.706 290.407 108.303 290.719 109.085C291.034 109.867 291.191 110.812 291.191 111.919C291.191 113.033 291.034 113.984 290.719 114.773C290.407 115.558 289.958 116.158 289.372 116.572C288.788 116.987 288.087 117.194 287.269 117.194ZM287.269 115.638C287.905 115.638 288.407 115.325 288.775 114.698C289.146 114.068 289.332 113.142 289.332 111.919C289.332 111.11 289.247 110.431 289.078 109.881C288.909 109.33 288.671 108.916 288.362 108.638C288.054 108.356 287.69 108.215 287.269 108.215C286.636 108.215 286.135 108.53 285.767 109.16C285.399 109.786 285.214 110.706 285.21 111.919C285.207 112.731 285.288 113.414 285.454 113.967C285.623 114.521 285.862 114.938 286.17 115.22C286.478 115.499 286.844 115.638 287.269 115.638Z" fill="#0B57D0"/>
<rect x="332.5" y="0.5" width="311" height="145" rx="23.5" fill="white"/>
<rect x="332.5" y="0.5" width="311" height="145" rx="23.5" stroke="#EDEDF0"/>
<path d="M357.119 39V28.8182H360.748C361.537 28.8182 362.191 28.9541 362.712 29.2259C363.235 29.4976 363.626 29.8738 363.885 30.3544C364.143 30.8317 364.273 31.3835 364.273 32.0099C364.273 32.633 364.142 33.1816 363.88 33.6555C363.621 34.1262 363.23 34.4924 362.707 34.7543C362.186 35.0161 361.532 35.147 360.743 35.147H357.994V33.8246H360.604C361.101 33.8246 361.505 33.7533 361.817 33.6108C362.132 33.4683 362.362 33.2611 362.508 32.9893C362.654 32.7176 362.727 32.3911 362.727 32.0099C362.727 31.6255 362.652 31.2924 362.503 31.0107C362.357 30.7289 362.127 30.5135 361.812 30.3643C361.5 30.2119 361.091 30.1357 360.584 30.1357H358.655V39H357.119ZM362.145 34.4062L364.661 39H362.911L360.445 34.4062H362.145ZM368.385 39.169C367.901 39.169 367.464 39.0795 367.073 38.9006C366.681 38.7183 366.372 38.4548 366.143 38.1101C365.917 37.7654 365.805 37.3428 365.805 36.8423C365.805 36.4115 365.888 36.0568 366.053 35.7784C366.219 35.5 366.443 35.2796 366.725 35.1172C367.006 34.9548 367.321 34.8321 367.669 34.7493C368.017 34.6664 368.372 34.6035 368.733 34.5604C369.19 34.5073 369.562 34.4643 369.847 34.4311C370.132 34.3946 370.339 34.3366 370.468 34.2571C370.597 34.1776 370.662 34.0483 370.662 33.8693V33.8345C370.662 33.4003 370.539 33.0639 370.294 32.8253C370.052 32.5866 369.691 32.4673 369.21 32.4673C368.71 32.4673 368.315 32.5784 368.027 32.8004C367.742 33.0192 367.545 33.2628 367.435 33.5312L366.038 33.2131C366.204 32.7491 366.446 32.3745 366.764 32.0895C367.086 31.8011 367.455 31.5923 367.873 31.4631C368.291 31.3305 368.73 31.2642 369.19 31.2642C369.495 31.2642 369.819 31.3007 370.16 31.3736C370.505 31.4432 370.826 31.5724 371.124 31.7614C371.426 31.9503 371.673 32.2204 371.865 32.5717C372.057 32.9197 372.153 33.3722 372.153 33.929V39H370.702V37.956H370.642C370.546 38.1482 370.402 38.3371 370.21 38.5227C370.017 38.7083 369.77 38.8625 369.469 38.9851C369.167 39.1077 368.806 39.169 368.385 39.169ZM368.708 37.9759C369.119 37.9759 369.47 37.8946 369.762 37.7322C370.057 37.5698 370.281 37.3577 370.433 37.0959C370.589 36.8307 370.667 36.5473 370.667 36.2457V35.2614C370.614 35.3144 370.511 35.3641 370.359 35.4105C370.21 35.4536 370.039 35.4917 369.847 35.5249C369.654 35.5547 369.467 35.5829 369.285 35.6094C369.103 35.6326 368.95 35.6525 368.828 35.669C368.539 35.7055 368.276 35.7668 368.037 35.853C367.802 35.9392 367.613 36.0634 367.47 36.2259C367.331 36.3849 367.261 36.5971 367.261 36.8622C367.261 37.2301 367.397 37.5085 367.669 37.6974C367.941 37.883 368.287 37.9759 368.708 37.9759ZM377.838 31.3636V32.5568H373.667V31.3636H377.838ZM374.786 29.5341H376.272V36.7578C376.272 37.0462 376.315 37.2633 376.401 37.4091C376.487 37.5516 376.598 37.6494 376.734 37.7024C376.874 37.7521 377.024 37.777 377.187 37.777C377.306 37.777 377.411 37.7687 377.5 37.7521C377.589 37.7356 377.659 37.7223 377.709 37.7124L377.977 38.9403C377.891 38.9735 377.768 39.0066 377.609 39.0398C377.45 39.0762 377.251 39.0961 377.013 39.0994C376.622 39.1061 376.257 39.0365 375.919 38.8906C375.581 38.7448 375.308 38.5194 375.099 38.2145C374.89 37.9096 374.786 37.5268 374.786 37.0661V29.5341ZM382.832 39.1541C382.079 39.1541 381.431 38.9934 380.888 38.6719C380.347 38.3471 379.93 37.8913 379.635 37.3047C379.343 36.7147 379.197 36.0237 379.197 35.2315C379.197 34.4493 379.343 33.7599 379.635 33.1634C379.93 32.5668 380.341 32.1011 380.868 31.7663C381.398 31.4316 382.018 31.2642 382.727 31.2642C383.158 31.2642 383.576 31.3355 383.98 31.478C384.384 31.6205 384.747 31.8442 385.069 32.1491C385.39 32.4541 385.644 32.8501 385.829 33.3374C386.015 33.8213 386.108 34.4096 386.108 35.1023V35.6293H380.038V34.5156H384.651C384.651 34.1245 384.572 33.7782 384.413 33.4766C384.253 33.1716 384.03 32.9313 383.741 32.7557C383.456 32.58 383.122 32.4922 382.737 32.4922C382.32 32.4922 381.955 32.5949 381.643 32.8004C381.335 33.0026 381.096 33.2678 380.927 33.5959C380.762 33.9207 380.679 34.2737 380.679 34.6548V35.5249C380.679 36.0353 380.768 36.4695 380.947 36.8274C381.13 37.1854 381.383 37.4588 381.708 37.6477C382.033 37.8333 382.412 37.9261 382.846 37.9261C383.128 37.9261 383.385 37.8864 383.617 37.8068C383.849 37.724 384.05 37.6013 384.219 37.4389C384.388 37.2765 384.517 37.076 384.606 36.8374L386.013 37.0909C385.901 37.5052 385.699 37.8681 385.407 38.1797C385.119 38.4879 384.756 38.7282 384.318 38.9006C383.884 39.0696 383.388 39.1541 382.832 39.1541ZM393.229 28.8182V39H391.742V28.8182H393.229ZM395.369 39V31.3636H396.855V39H395.369ZM396.119 30.1854C395.861 30.1854 395.639 30.0992 395.453 29.9268C395.271 29.7512 395.18 29.5424 395.18 29.3004C395.18 29.0552 395.271 28.8464 395.453 28.674C395.639 28.4983 395.861 28.4105 396.119 28.4105C396.378 28.4105 396.598 28.4983 396.781 28.674C396.966 28.8464 397.059 29.0552 397.059 29.3004C397.059 29.5424 396.966 29.7512 396.781 29.9268C396.598 30.0992 396.378 30.1854 396.119 30.1854ZM398.995 39V31.3636H400.422V32.6065H400.516C400.675 32.1856 400.935 31.8575 401.297 31.6222C401.658 31.3835 402.091 31.2642 402.594 31.2642C403.105 31.2642 403.532 31.3835 403.877 31.6222C404.225 31.8608 404.482 32.1889 404.648 32.6065H404.727C404.909 32.1989 405.199 31.8741 405.597 31.6321C405.995 31.3868 406.469 31.2642 407.019 31.2642C407.712 31.2642 408.277 31.4813 408.714 31.9155C409.155 32.3497 409.376 33.0043 409.376 33.8793V39H407.889V34.0185C407.889 33.5014 407.748 33.1269 407.467 32.8949C407.185 32.6629 406.848 32.5469 406.457 32.5469C405.973 32.5469 405.597 32.696 405.329 32.9943C405.06 33.2893 404.926 33.6688 404.926 34.1328V39H403.444V33.924C403.444 33.5097 403.315 33.1766 403.057 32.9247C402.798 32.6728 402.462 32.5469 402.047 32.5469C401.766 32.5469 401.506 32.6214 401.267 32.7706C401.032 32.9164 400.841 33.1203 400.695 33.3821C400.553 33.6439 400.481 33.9472 400.481 34.2919V39H398.995ZM411.508 39V31.3636H412.994V39H411.508ZM412.259 30.1854C412 30.1854 411.778 30.0992 411.592 29.9268C411.41 29.7512 411.319 29.5424 411.319 29.3004C411.319 29.0552 411.41 28.8464 411.592 28.674C411.778 28.4983 412 28.4105 412.259 28.4105C412.517 28.4105 412.738 28.4983 412.92 28.674C413.105 28.8464 413.198 29.0552 413.198 29.3004C413.198 29.5424 413.105 29.7512 412.92 29.9268C412.738 30.0992 412.517 30.1854 412.259 30.1854ZM418.699 31.3636V32.5568H414.528V31.3636H418.699ZM415.646 29.5341H417.133V36.7578C417.133 37.0462 417.176 37.2633 417.262 37.4091C417.348 37.5516 417.459 37.6494 417.595 37.7024C417.734 37.7521 417.885 37.777 418.048 37.777C418.167 37.777 418.271 37.7687 418.361 37.7521C418.45 37.7356 418.52 37.7223 418.57 37.7124L418.838 38.9403C418.752 38.9735 418.629 39.0066 418.47 39.0398C418.311 39.0762 418.112 39.0961 417.874 39.0994C417.483 39.1061 417.118 39.0365 416.78 38.8906C416.442 38.7448 416.168 38.5194 415.96 38.2145C415.751 37.9096 415.646 37.5268 415.646 37.0661V29.5341Z" fill="#AEAEB2"/>
<path d="M357.551 69V66.7159L363.611 60.7756C364.19 60.1903 364.673 59.6705 365.06 59.2159C365.446 58.7614 365.736 58.321 365.929 57.8949C366.122 57.4687 366.219 57.0142 366.219 56.5312C366.219 55.9801 366.094 55.5085 365.844 55.1165C365.594 54.7188 365.25 54.4119 364.812 54.196C364.375 53.9801 363.878 53.8722 363.321 53.8722C362.747 53.8722 362.244 53.9915 361.812 54.2301C361.381 54.4631 361.045 54.7955 360.807 55.2273C360.574 55.6591 360.457 56.1733 360.457 56.7699H357.449C357.449 55.6619 357.702 54.6989 358.207 53.8807C358.713 53.0625 359.409 52.429 360.295 51.9801C361.188 51.5312 362.21 51.3068 363.364 51.3068C364.534 51.3068 365.563 51.5256 366.449 51.9631C367.335 52.4006 368.023 53 368.511 53.7614C369.006 54.5227 369.253 55.392 369.253 56.3693C369.253 57.0227 369.128 57.6648 368.878 58.2955C368.628 58.9261 368.188 59.625 367.557 60.392C366.932 61.1591 366.054 62.0881 364.923 63.179L361.915 66.2386V66.358H369.517V69H357.551ZM378.909 69.3324C377.506 69.3324 376.301 68.9773 375.295 68.267C374.295 67.5511 373.526 66.5199 372.986 65.1733C372.452 63.821 372.185 62.1932 372.185 60.2898C372.19 58.3864 372.46 56.767 372.994 55.4318C373.534 54.0909 374.304 53.0682 375.304 52.3636C376.31 51.6591 377.511 51.3068 378.909 51.3068C380.307 51.3068 381.509 51.6591 382.514 52.3636C383.52 53.0682 384.29 54.0909 384.824 55.4318C385.364 56.7727 385.634 58.392 385.634 60.2898C385.634 62.1989 385.364 63.8295 384.824 65.1818C384.29 66.5284 383.52 67.5568 382.514 68.267C381.514 68.9773 380.313 69.3324 378.909 69.3324ZM378.909 66.6648C380 66.6648 380.861 66.1278 381.491 65.054C382.128 63.9744 382.446 62.3864 382.446 60.2898C382.446 58.9034 382.301 57.7386 382.011 56.7955C381.722 55.8523 381.313 55.142 380.784 54.6648C380.256 54.1818 379.631 53.9403 378.909 53.9403C377.824 53.9403 376.966 54.4801 376.335 55.5597C375.705 56.6335 375.386 58.2102 375.381 60.2898C375.375 61.6818 375.514 62.8523 375.798 63.8011C376.088 64.75 376.497 65.4659 377.026 65.9489C377.554 66.4261 378.182 66.6648 378.909 66.6648ZM394.917 69.3324C393.513 69.3324 392.309 68.9773 391.303 68.267C390.303 67.5511 389.533 66.5199 388.994 65.1733C388.46 63.821 388.192 62.1932 388.192 60.2898C388.198 58.3864 388.468 56.767 389.002 55.4318C389.542 54.0909 390.312 53.0682 391.312 52.3636C392.317 51.6591 393.519 51.3068 394.917 51.3068C396.315 51.3068 397.516 51.6591 398.522 52.3636C399.528 53.0682 400.298 54.0909 400.832 55.4318C401.371 56.7727 401.641 58.392 401.641 60.2898C401.641 62.1989 401.371 63.8295 400.832 65.1818C400.298 66.5284 399.528 67.5568 398.522 68.267C397.522 68.9773 396.32 69.3324 394.917 69.3324ZM394.917 66.6648C396.008 66.6648 396.869 66.1278 397.499 65.054C398.136 63.9744 398.454 62.3864 398.454 60.2898C398.454 58.9034 398.309 57.7386 398.019 56.7955C397.729 55.8523 397.32 55.142 396.792 54.6648C396.263 54.1818 395.638 53.9403 394.917 53.9403C393.832 53.9403 392.974 54.4801 392.343 55.5597C391.712 56.6335 391.394 58.2102 391.388 60.2898C391.383 61.6818 391.522 62.8523 391.806 63.8011C392.096 64.75 392.505 65.4659 393.033 65.9489C393.562 66.4261 394.19 66.6648 394.917 66.6648ZM410.023 69V57.3636H414.386C415.28 57.3636 416.03 57.5189 416.636 57.8295C417.246 58.1402 417.706 58.5758 418.017 59.1364C418.331 59.6932 418.489 60.3428 418.489 61.0852C418.489 61.8314 418.33 62.4792 418.011 63.0284C417.697 63.5739 417.233 63.9962 416.619 64.2955C416.006 64.5909 415.252 64.7386 414.358 64.7386H411.25V62.9886H414.074C414.597 62.9886 415.025 62.9167 415.358 62.7727C415.691 62.625 415.938 62.411 416.097 62.1307C416.259 61.8466 416.341 61.4981 416.341 61.0852C416.341 60.6723 416.259 60.3201 416.097 60.0284C415.934 59.733 415.686 59.5095 415.352 59.358C415.019 59.2027 414.589 59.125 414.062 59.125H412.131V69H410.023ZM416.034 63.7273L418.915 69H416.562L413.733 63.7273H416.034ZM420.429 69V57.3636H424.793C425.687 57.3636 426.437 57.5303 427.043 57.8636C427.652 58.197 428.113 58.6553 428.423 59.2386C428.738 59.8182 428.895 60.4773 428.895 61.2159C428.895 61.9621 428.738 62.625 428.423 63.2045C428.109 63.7841 427.645 64.2405 427.031 64.5739C426.418 64.9034 425.662 65.0682 424.764 65.0682H421.872V63.3352H424.48C425.003 63.3352 425.431 63.2443 425.764 63.0625C426.098 62.8807 426.344 62.6307 426.503 62.3125C426.666 61.9943 426.747 61.6288 426.747 61.2159C426.747 60.803 426.666 60.4394 426.503 60.125C426.344 59.8106 426.096 59.5663 425.759 59.392C425.425 59.214 424.995 59.125 424.469 59.125H422.537V69H420.429ZM437.05 60.5625C436.997 60.0663 436.773 59.6799 436.379 59.4034C435.989 59.1269 435.482 58.9886 434.857 58.9886C434.417 58.9886 434.04 59.0549 433.726 59.1875C433.411 59.3201 433.171 59.5 433.004 59.7273C432.838 59.9545 432.752 60.214 432.749 60.5057C432.749 60.7481 432.804 60.9583 432.913 61.1364C433.027 61.3144 433.18 61.4659 433.374 61.5909C433.567 61.7121 433.781 61.8144 434.016 61.8977C434.25 61.9811 434.487 62.0511 434.726 62.108L435.817 62.3807C436.256 62.483 436.679 62.6212 437.084 62.7955C437.493 62.9697 437.858 63.1894 438.18 63.4545C438.506 63.7197 438.764 64.0398 438.953 64.4148C439.143 64.7898 439.237 65.2292 439.237 65.733C439.237 66.4148 439.063 67.0152 438.714 67.5341C438.366 68.0492 437.862 68.4527 437.203 68.7443C436.548 69.0322 435.754 69.1761 434.822 69.1761C433.917 69.1761 433.131 69.036 432.464 68.7557C431.802 68.4754 431.283 68.0663 430.908 67.5284C430.536 66.9905 430.336 66.3352 430.305 65.5625H432.379C432.41 65.9678 432.535 66.3049 432.754 66.5739C432.974 66.8428 433.26 67.0436 433.612 67.1761C433.968 67.3087 434.366 67.375 434.805 67.375C435.264 67.375 435.665 67.3068 436.01 67.1705C436.358 67.0303 436.631 66.8371 436.828 66.5909C437.025 66.3409 437.125 66.0492 437.129 65.7159C437.125 65.4129 437.036 65.1629 436.862 64.9659C436.688 64.7652 436.444 64.5985 436.129 64.4659C435.819 64.3295 435.455 64.2083 435.038 64.1023L433.714 63.7614C432.756 63.5152 431.999 63.142 431.442 62.642C430.889 62.1383 430.612 61.4697 430.612 60.6364C430.612 59.9508 430.798 59.3504 431.169 58.8352C431.544 58.3201 432.054 57.9205 432.697 57.6364C433.341 57.3485 434.071 57.2045 434.885 57.2045C435.711 57.2045 436.434 57.3485 437.055 57.6364C437.68 57.9205 438.171 58.3163 438.527 58.8239C438.883 59.3277 439.067 59.9072 439.078 60.5625H437.05Z" fill="#1E1E1F"/>
<line x1="356" y1="105.5" x2="616" y2="105.5" stroke="#C2DAFF" stroke-dasharray="2 2"/>
<path d="M356 109C356 106.791 357.791 105 360 105C362.209 105 364 106.791 364 109V118C364 120.209 362.209 122 360 122C357.791 122 356 120.209 356 118V109Z" fill="url(#paint0_linear_301_2186)"/>
<path d="M368 102C368 99.7909 369.791 98 372 98C374.209 98 376 99.7909 376 102V118C376 120.209 374.209 122 372 122C369.791 122 368 120.209 368 118V102Z" fill="url(#paint1_linear_301_2186)"/>
<path d="M380 102C380 99.7909 381.791 98 384 98C386.209 98 388 99.7909 388 102V118C388 120.209 386.209 122 384 122C381.791 122 380 120.209 380 118V102Z" fill="url(#paint2_linear_301_2186)"/>
<path d="M392 109C392 106.791 393.791 105 396 105C398.209 105 400 106.791 400 109V118C400 120.209 398.209 122 396 122C393.791 122 392 120.209 392 118V109Z" fill="url(#paint3_linear_301_2186)"/>
<path d="M404 109C404 106.791 405.791 105 408 105C410.209 105 412 106.791 412 109V118C412 120.209 410.209 122 408 122C405.791 122 404 120.209 404 118V109Z" fill="url(#paint4_linear_301_2186)"/>
<path d="M416 105C416 102.791 417.791 101 420 101C422.209 101 424 102.791 424 105V118C424 120.209 422.209 122 420 122C417.791 122 416 120.209 416 118V105Z" fill="url(#paint5_linear_301_2186)"/>
<path d="M428 96C428 93.7909 429.791 92 432 92C434.209 92 436 93.7909 436 96V118C436 120.209 434.209 122 432 122C429.791 122 428 120.209 428 118V96Z" fill="url(#paint6_linear_301_2186)"/>
<path d="M440 98C440 95.7909 441.791 94 444 94C446.209 94 448 95.7909 448 98V118C448 120.209 446.209 122 444 122C441.791 122 440 120.209 440 118V98Z" fill="url(#paint7_linear_301_2186)"/>
<path d="M452 105C452 102.791 453.791 101 456 101C458.209 101 460 102.791 460 105V118C460 120.209 458.209 122 456 122C453.791 122 452 120.209 452 118V105Z" fill="url(#paint8_linear_301_2186)"/>
<path d="M464 109C464 106.791 465.791 105 468 105C470.209 105 472 106.791 472 109V118C472 120.209 470.209 122 468 122C465.791 122 464 120.209 464 118V109Z" fill="url(#paint9_linear_301_2186)"/>
<path d="M476 109C476 106.791 477.791 105 480 105C482.209 105 484 106.791 484 109V118C484 120.209 482.209 122 480 122C477.791 122 476 120.209 476 118V109Z" fill="url(#paint10_linear_301_2186)"/>
<path d="M488 105C488 102.791 489.791 101 492 101C494.209 101 496 102.791 496 105V118C496 120.209 494.209 122 492 122C489.791 122 488 120.209 488 118V105Z" fill="url(#paint11_linear_301_2186)"/>
<path d="M500 98C500 95.7909 501.791 94 504 94C506.209 94 508 95.7909 508 98V118C508 120.209 506.209 122 504 122C501.791 122 500 120.209 500 118V98Z" fill="url(#paint12_linear_301_2186)"/>
<path d="M512 105C512 102.791 513.791 101 516 101C518.209 101 520 102.791 520 105V118C520 120.209 518.209 122 516 122C513.791 122 512 120.209 512 118V105Z" fill="url(#paint13_linear_301_2186)"/>
<path d="M524 102C524 99.7909 525.791 98 528 98C530.209 98 532 99.7909 532 102V118C532 120.209 530.209 122 528 122C525.791 122 524 120.209 524 118V102Z" fill="url(#paint14_linear_301_2186)"/>
<path d="M536 109C536 106.791 537.791 105 540 105C542.209 105 544 106.791 544 109V118C544 120.209 542.209 122 540 122C537.791 122 536 120.209 536 118V109Z" fill="url(#paint15_linear_301_2186)"/>
<path d="M548 108C548 105.791 549.791 104 552 104C554.209 104 556 105.791 556 108V118C556 120.209 554.209 122 552 122C549.791 122 548 120.209 548 118V108Z" fill="url(#paint16_linear_301_2186)"/>
<path d="M560 109C560 106.791 561.791 105 564 105C566.209 105 568 106.791 568 109V118C568 120.209 566.209 122 564 122C561.791 122 560 120.209 560 118V109Z" fill="url(#paint17_linear_301_2186)"/>
<path d="M572 105C572 102.791 573.791 101 576 101C578.209 101 580 102.791 580 105V118C580 120.209 578.209 122 576 122C573.791 122 572 120.209 572 118V105Z" fill="url(#paint18_linear_301_2186)"/>
<path d="M584 98C584 95.7909 585.791 94 588 94C590.209 94 592 95.7909 592 98V118C592 120.209 590.209 122 588 122C585.791 122 584 120.209 584 118V98Z" fill="url(#paint19_linear_301_2186)"/>
<path d="M596 98C596 95.7909 597.791 94 600 94C602.209 94 604 95.7909 604 98V118C604 120.209 602.209 122 600 122C597.791 122 596 120.209 596 118V98Z" fill="url(#paint20_linear_301_2186)"/>
<path d="M608 109C608 106.791 609.791 105 612 105C614.209 105 616 106.791 616 109V118C616 120.209 614.209 122 612 122C609.791 122 608 120.209 608 118V109Z" fill="url(#paint21_linear_301_2186)"/>
<rect x="660.5" y="0.5" width="311" height="147" rx="23.5" fill="white"/>
<rect x="660.5" y="0.5" width="311" height="147" rx="23.5" stroke="#EDEDF0"/>
<path d="M684.616 30.1406V28.8182H692.496V30.1406H689.32V39H687.788V30.1406H684.616ZM696.368 39.1541C695.652 39.1541 695.027 38.9901 694.493 38.6619C693.96 38.3338 693.545 37.8748 693.25 37.2848C692.955 36.6948 692.808 36.0054 692.808 35.2166C692.808 34.4245 692.955 33.7318 693.25 33.1385C693.545 32.5452 693.96 32.0845 694.493 31.7564C695.027 31.4283 695.652 31.2642 696.368 31.2642C697.084 31.2642 697.708 31.4283 698.242 31.7564C698.776 32.0845 699.19 32.5452 699.485 33.1385C699.78 33.7318 699.927 34.4245 699.927 35.2166C699.927 36.0054 699.78 36.6948 699.485 37.2848C699.19 37.8748 698.776 38.3338 698.242 38.6619C697.708 38.9901 697.084 39.1541 696.368 39.1541ZM696.373 37.9062C696.837 37.9062 697.221 37.7836 697.526 37.5384C697.831 37.2931 698.056 36.9666 698.202 36.5589C698.351 36.1513 698.426 35.7022 698.426 35.2116C698.426 34.7244 698.351 34.277 698.202 33.8693C698.056 33.4583 697.831 33.1286 697.526 32.88C697.221 32.6314 696.837 32.5071 696.373 32.5071C695.905 32.5071 695.517 32.6314 695.209 32.88C694.904 33.1286 694.677 33.4583 694.528 33.8693C694.382 34.277 694.309 34.7244 694.309 35.2116C694.309 35.7022 694.382 36.1513 694.528 36.5589C694.677 36.9666 694.904 37.2931 695.209 37.5384C695.517 37.7836 695.905 37.9062 696.373 37.9062ZM705.291 31.3636V32.5568H701.12V31.3636H705.291ZM702.239 29.5341H703.725V36.7578C703.725 37.0462 703.768 37.2633 703.854 37.4091C703.941 37.5516 704.052 37.6494 704.187 37.7024C704.327 37.7521 704.478 37.777 704.64 37.777C704.759 37.777 704.864 37.7687 704.953 37.7521C705.043 37.7356 705.112 37.7223 705.162 37.7124L705.43 38.9403C705.344 38.9735 705.222 39.0066 705.062 39.0398C704.903 39.0762 704.705 39.0961 704.466 39.0994C704.075 39.1061 703.71 39.0365 703.372 38.8906C703.034 38.7448 702.761 38.5194 702.552 38.2145C702.343 37.9096 702.239 37.5268 702.239 37.0661V29.5341ZM709.298 39.169C708.814 39.169 708.376 39.0795 707.985 38.9006C707.594 38.7183 707.284 38.4548 707.056 38.1101C706.83 37.7654 706.718 37.3428 706.718 36.8423C706.718 36.4115 706.8 36.0568 706.966 35.7784C707.132 35.5 707.356 35.2796 707.637 35.1172C707.919 34.9548 708.234 34.8321 708.582 34.7493C708.93 34.6664 709.285 34.6035 709.646 34.5604C710.103 34.5073 710.474 34.4643 710.759 34.4311C711.045 34.3946 711.252 34.3366 711.381 34.2571C711.51 34.1776 711.575 34.0483 711.575 33.8693V33.8345C711.575 33.4003 711.452 33.0639 711.207 32.8253C710.965 32.5866 710.604 32.4673 710.123 32.4673C709.623 32.4673 709.228 32.5784 708.94 32.8004C708.655 33.0192 708.458 33.2628 708.348 33.5312L706.951 33.2131C707.117 32.7491 707.359 32.3745 707.677 32.0895C707.999 31.8011 708.368 31.5923 708.786 31.4631C709.203 31.3305 709.643 31.2642 710.103 31.2642C710.408 31.2642 710.731 31.3007 711.073 31.3736C711.417 31.4432 711.739 31.5724 712.037 31.7614C712.339 31.9503 712.586 32.2204 712.778 32.5717C712.97 32.9197 713.066 33.3722 713.066 33.929V39H711.615V37.956H711.555C711.459 38.1482 711.315 38.3371 711.122 38.5227C710.93 38.7083 710.683 38.8625 710.382 38.9851C710.08 39.1077 709.719 39.169 709.298 39.169ZM709.621 37.9759C710.032 37.9759 710.383 37.8946 710.675 37.7322C710.97 37.5698 711.194 37.3577 711.346 37.0959C711.502 36.8307 711.58 36.5473 711.58 36.2457V35.2614C711.527 35.3144 711.424 35.3641 711.272 35.4105C711.122 35.4536 710.952 35.4917 710.759 35.5249C710.567 35.5547 710.38 35.5829 710.198 35.6094C710.015 35.6326 709.863 35.6525 709.74 35.669C709.452 35.7055 709.188 35.7668 708.95 35.853C708.715 35.9392 708.526 36.0634 708.383 36.2259C708.244 36.3849 708.174 36.5971 708.174 36.8622C708.174 37.2301 708.31 37.5085 708.582 37.6974C708.854 37.883 709.2 37.9759 709.621 37.9759ZM716.673 28.8182V39H715.186V28.8182H716.673ZM722.777 39V28.8182H726.406C727.195 28.8182 727.85 28.9541 728.37 29.2259C728.894 29.4976 729.285 29.8738 729.543 30.3544C729.802 30.8317 729.931 31.3835 729.931 32.0099C729.931 32.633 729.8 33.1816 729.538 33.6555C729.28 34.1262 728.889 34.4924 728.365 34.7543C727.845 35.0161 727.19 35.147 726.401 35.147H723.652V33.8246H726.262C726.759 33.8246 727.164 33.7533 727.475 33.6108C727.79 33.4683 728.02 33.2611 728.166 32.9893C728.312 32.7176 728.385 32.3911 728.385 32.0099C728.385 31.6255 728.31 31.2924 728.161 31.0107C728.015 30.7289 727.785 30.5135 727.47 30.3643C727.159 30.2119 726.749 30.1357 726.242 30.1357H724.313V39H722.777ZM727.803 34.4062L730.319 39H728.569L726.103 34.4062H727.803ZM735.017 39.1541C734.264 39.1541 733.616 38.9934 733.073 38.6719C732.532 38.3471 732.115 37.8913 731.82 37.3047C731.528 36.7147 731.382 36.0237 731.382 35.2315C731.382 34.4493 731.528 33.7599 731.82 33.1634C732.115 32.5668 732.526 32.1011 733.053 31.7663C733.583 31.4316 734.203 31.2642 734.912 31.2642C735.343 31.2642 735.761 31.3355 736.165 31.478C736.569 31.6205 736.932 31.8442 737.254 32.1491C737.575 32.4541 737.829 32.8501 738.014 33.3374C738.2 33.8213 738.293 34.4096 738.293 35.1023V35.6293H732.223V34.5156H736.836C736.836 34.1245 736.757 33.7782 736.598 33.4766C736.438 33.1716 736.215 32.9313 735.926 32.7557C735.641 32.58 735.307 32.4922 734.922 32.4922C734.505 32.4922 734.14 32.5949 733.828 32.8004C733.52 33.0026 733.281 33.2678 733.112 33.5959C732.947 33.9207 732.864 34.2737 732.864 34.6548V35.5249C732.864 36.0353 732.953 36.4695 733.132 36.8274C733.315 37.1854 733.568 37.4588 733.893 37.6477C734.218 37.8333 734.597 37.9261 735.031 37.9261C735.313 37.9261 735.57 37.8864 735.802 37.8068C736.034 37.724 736.235 37.6013 736.404 37.4389C736.573 37.2765 736.702 37.076 736.791 36.8374L738.198 37.0909C738.086 37.5052 737.884 37.8681 737.592 38.1797C737.304 38.4879 736.941 38.7282 736.503 38.9006C736.069 39.0696 735.573 39.1541 735.017 39.1541ZM745.238 41.8636V37.8118H745.148C745.059 37.9742 744.929 38.1598 744.76 38.3686C744.595 38.5774 744.366 38.7597 744.074 38.9155C743.783 39.0713 743.405 39.1491 742.941 39.1491C742.324 39.1491 741.774 38.9917 741.29 38.6768C740.81 38.3587 740.432 37.9062 740.157 37.3196C739.885 36.7296 739.749 36.022 739.749 35.1967C739.749 34.3714 739.887 33.6655 740.162 33.0788C740.44 32.4922 740.821 32.0431 741.305 31.7315C741.789 31.42 742.338 31.2642 742.951 31.2642C743.425 31.2642 743.806 31.3438 744.094 31.5028C744.386 31.6586 744.611 31.8409 744.77 32.0497C744.933 32.2585 745.059 32.4425 745.148 32.6016H745.273V31.3636H746.724V41.8636H745.238ZM743.269 37.8814C743.697 37.8814 744.058 37.7687 744.353 37.5433C744.651 37.3146 744.876 36.9981 745.029 36.5938C745.185 36.1894 745.263 35.7187 745.263 35.1818C745.263 34.6515 745.186 34.1875 745.034 33.7898C744.881 33.392 744.658 33.0821 744.363 32.8601C744.068 32.638 743.703 32.527 743.269 32.527C742.822 32.527 742.449 32.643 742.15 32.875C741.852 33.107 741.627 33.4235 741.474 33.8246C741.325 34.2256 741.251 34.678 741.251 35.1818C741.251 35.6922 741.327 36.1513 741.479 36.5589C741.632 36.9666 741.857 37.2898 742.155 37.5284C742.457 37.7637 742.828 37.8814 743.269 37.8814ZM753.7 35.8331V31.3636H755.192V39H753.73V37.6776H753.65C753.475 38.0852 753.193 38.425 752.805 38.6967C752.421 38.9652 751.942 39.0994 751.368 39.0994C750.878 39.0994 750.444 38.9917 750.066 38.7763C749.691 38.5575 749.396 38.2344 749.181 37.8068C748.969 37.3793 748.863 36.8506 748.863 36.2209V31.3636H750.349V36.0419C750.349 36.5623 750.493 36.9766 750.782 37.2848C751.07 37.593 751.445 37.7472 751.905 37.7472C752.184 37.7472 752.461 37.6776 752.736 37.5384C753.014 37.3991 753.244 37.1887 753.427 36.907C753.612 36.6252 753.703 36.2673 753.7 35.8331ZM760.62 39.1541C759.868 39.1541 759.22 38.9934 758.676 38.6719C758.136 38.3471 757.718 37.8913 757.423 37.3047C757.132 36.7147 756.986 36.0237 756.986 35.2315C756.986 34.4493 757.132 33.7599 757.423 33.1634C757.718 32.5668 758.129 32.1011 758.656 31.7663C759.187 31.4316 759.806 31.2642 760.516 31.2642C760.947 31.2642 761.364 31.3355 761.769 31.478C762.173 31.6205 762.536 31.8442 762.857 32.1491C763.179 32.4541 763.432 32.8501 763.618 33.3374C763.804 33.8213 763.896 34.4096 763.896 35.1023V35.6293H757.826V34.5156H762.44C762.44 34.1245 762.36 33.7782 762.201 33.4766C762.042 33.1716 761.818 32.9313 761.53 32.7557C761.245 32.58 760.91 32.4922 760.526 32.4922C760.108 32.4922 759.744 32.5949 759.432 32.8004C759.124 33.0026 758.885 33.2678 758.716 33.5959C758.55 33.9207 758.467 34.2737 758.467 34.6548V35.5249C758.467 36.0353 758.557 36.4695 758.736 36.8274C758.918 37.1854 759.172 37.4588 759.497 37.6477C759.821 37.8333 760.201 37.9261 760.635 37.9261C760.917 37.9261 761.174 37.8864 761.406 37.8068C761.638 37.724 761.838 37.6013 762.007 37.4389C762.176 37.2765 762.306 37.076 762.395 36.8374L763.802 37.0909C763.689 37.5052 763.487 37.8681 763.195 38.1797C762.907 38.4879 762.544 38.7282 762.107 38.9006C761.672 39.0696 761.177 39.1541 760.62 39.1541ZM771.408 33.228L770.061 33.4666C770.004 33.2943 769.915 33.1302 769.792 32.9744C769.673 32.8187 769.511 32.6911 769.305 32.5916C769.1 32.4922 768.843 32.4425 768.534 32.4425C768.114 32.4425 767.762 32.5369 767.481 32.7259C767.199 32.9115 767.058 33.1518 767.058 33.4467C767.058 33.7019 767.152 33.9074 767.341 34.0632C767.53 34.219 767.835 34.3466 768.256 34.446L769.469 34.7244C770.172 34.8868 770.695 35.1371 771.04 35.4751C771.385 35.8132 771.557 36.2524 771.557 36.7926C771.557 37.25 771.425 37.6577 771.159 38.0156C770.898 38.3703 770.531 38.6487 770.061 38.8509C769.593 39.053 769.052 39.1541 768.435 39.1541C767.58 39.1541 766.882 38.9718 766.342 38.6072C765.802 38.2393 765.47 37.7173 765.348 37.0412L766.784 36.8224C766.874 37.197 767.058 37.4804 767.336 37.6726C767.615 37.8615 767.978 37.956 768.425 37.956C768.912 37.956 769.302 37.8549 769.593 37.6527C769.885 37.4472 770.031 37.197 770.031 36.902C770.031 36.6634 769.941 36.4628 769.762 36.3004C769.587 36.138 769.317 36.0154 768.952 35.9325L767.659 35.6491C766.947 35.4867 766.42 35.2282 766.079 34.8736C765.74 34.5189 765.571 34.0698 765.571 33.5263C765.571 33.0755 765.697 32.6811 765.949 32.343C766.201 32.005 766.549 31.7415 766.993 31.5526C767.437 31.3603 767.946 31.2642 768.52 31.2642C769.345 31.2642 769.994 31.4432 770.468 31.8011C770.942 32.1558 771.256 32.6314 771.408 33.228ZM776.896 31.3636V32.5568H772.725V31.3636H776.896ZM773.844 29.5341H775.33V36.7578C775.33 37.0462 775.373 37.2633 775.459 37.4091C775.546 37.5516 775.657 37.6494 775.793 37.7024C775.932 37.7521 776.083 37.777 776.245 37.777C776.364 37.777 776.469 37.7687 776.558 37.7521C776.648 37.7356 776.717 37.7223 776.767 37.7124L777.035 38.9403C776.949 38.9735 776.827 39.0066 776.668 39.0398C776.508 39.0762 776.31 39.0961 776.071 39.0994C775.68 39.1061 775.315 39.0365 774.977 38.8906C774.639 38.7448 774.366 38.5194 774.157 38.2145C773.948 37.9096 773.844 37.5268 773.844 37.0661V29.5341ZM784.28 33.228L782.933 33.4666C782.876 33.2943 782.787 33.1302 782.664 32.9744C782.545 32.8187 782.382 32.6911 782.177 32.5916C781.971 32.4922 781.715 32.4425 781.406 32.4425C780.985 32.4425 780.634 32.5369 780.352 32.7259C780.071 32.9115 779.93 33.1518 779.93 33.4467C779.93 33.7019 780.024 33.9074 780.213 34.0632C780.402 34.219 780.707 34.3466 781.128 34.446L782.341 34.7244C783.044 34.8868 783.567 35.1371 783.912 35.4751C784.257 35.8132 784.429 36.2524 784.429 36.7926C784.429 37.25 784.296 37.6577 784.031 38.0156C783.769 38.3703 783.403 38.6487 782.933 38.8509C782.465 39.053 781.923 39.1541 781.307 39.1541C780.452 39.1541 779.754 38.9718 779.214 38.6072C778.674 38.2393 778.342 37.7173 778.22 37.0412L779.656 36.8224C779.746 37.197 779.93 37.4804 780.208 37.6726C780.487 37.8615 780.849 37.956 781.297 37.956C781.784 37.956 782.174 37.8549 782.465 37.6527C782.757 37.4472 782.903 37.197 782.903 36.902C782.903 36.6634 782.813 36.4628 782.634 36.3004C782.459 36.138 782.188 36.0154 781.824 35.9325L780.531 35.6491C779.819 35.4867 779.292 35.2282 778.95 34.8736C778.612 34.5189 778.443 34.0698 778.443 33.5263C778.443 33.0755 778.569 32.6811 778.821 32.343C779.073 32.005 779.421 31.7415 779.865 31.5526C780.309 31.3603 780.818 31.2642 781.391 31.2642C782.217 31.2642 782.866 31.4432 783.34 31.8011C783.814 32.1558 784.127 32.6314 784.28 33.228ZM790.029 39V37.8864L793.474 34.3168C793.842 33.929 794.145 33.5893 794.384 33.2976C794.626 33.0026 794.806 32.7225 794.926 32.4574C795.045 32.1922 795.105 31.9105 795.105 31.6122C795.105 31.2741 795.025 30.9825 794.866 30.7372C794.707 30.4886 794.49 30.2981 794.215 30.1655C793.94 30.0296 793.63 29.9616 793.285 29.9616C792.92 29.9616 792.602 30.0362 792.33 30.1854C792.059 30.3345 791.85 30.545 791.704 30.8168C791.558 31.0885 791.485 31.4067 791.485 31.7713H790.019C790.019 31.1515 790.161 30.6096 790.446 30.1456C790.731 29.6816 791.122 29.322 791.62 29.0668C792.117 28.8082 792.682 28.679 793.315 28.679C793.955 28.679 794.518 28.8066 795.005 29.0618C795.496 29.3137 795.879 29.6584 796.154 30.0959C796.429 30.5301 796.566 31.0206 796.566 31.5675C796.566 31.9453 796.495 32.3149 796.352 32.6761C796.213 33.0374 795.97 33.4401 795.622 33.8842C795.274 34.325 794.79 34.8603 794.17 35.4901L792.147 37.608V37.6825H796.73V39H790.029ZM798.322 37.0114V35.7685L802.722 28.8182H803.701V30.6477H803.08L799.933 35.6293V35.7088H805.963V37.0114H798.322ZM803.149 39V36.6335L803.159 36.0668V28.8182H804.616V39H803.149ZM809.342 34.4659V39H807.856V28.8182H809.322V32.6065H809.417C809.596 32.1955 809.869 31.8691 810.237 31.6271C810.605 31.3852 811.086 31.2642 811.679 31.2642C812.203 31.2642 812.66 31.3719 813.051 31.5874C813.446 31.8028 813.75 32.1243 813.966 32.5518C814.185 32.9761 814.294 33.5064 814.294 34.1428V39H812.808V34.3217C812.808 33.7616 812.663 33.3274 812.375 33.0192C812.087 32.7076 811.686 32.5518 811.172 32.5518C810.821 32.5518 810.506 32.6264 810.227 32.7756C809.952 32.9247 809.735 33.1435 809.576 33.4318C809.42 33.7169 809.342 34.0616 809.342 34.4659Z" fill="#AEAEB2"/>
<path d="M691.815 69.2386C690.588 69.2386 689.497 69.0284 688.543 68.608C687.594 68.1875 686.844 67.6023 686.293 66.8523C685.741 66.1023 685.449 65.2358 685.415 64.2528H688.619C688.648 64.7244 688.804 65.1364 689.088 65.4886C689.372 65.8352 689.75 66.1051 690.222 66.2983C690.693 66.4915 691.222 66.5881 691.807 66.5881C692.432 66.5881 692.986 66.4801 693.469 66.2642C693.952 66.0426 694.33 65.7358 694.602 65.3438C694.875 64.9517 695.009 64.5 695.003 63.9886C695.009 63.4602 694.872 62.9943 694.594 62.5909C694.315 62.1875 693.912 61.8722 693.384 61.6449C692.861 61.4176 692.23 61.304 691.491 61.304H689.949V58.8665H691.491C692.099 58.8665 692.631 58.7614 693.085 58.5511C693.545 58.3409 693.906 58.0455 694.168 57.6648C694.429 57.2784 694.557 56.8324 694.551 56.3267C694.557 55.8324 694.446 55.4034 694.219 55.0398C693.997 54.6705 693.682 54.3835 693.273 54.179C692.869 53.9744 692.395 53.8722 691.849 53.8722C691.315 53.8722 690.821 53.9687 690.366 54.1619C689.912 54.3551 689.545 54.6307 689.267 54.9886C688.989 55.3409 688.841 55.7614 688.824 56.25H685.781C685.804 55.2727 686.085 54.4148 686.625 53.6761C687.17 52.9318 687.898 52.3523 688.807 51.9375C689.716 51.517 690.736 51.3068 691.866 51.3068C693.031 51.3068 694.043 51.5256 694.901 51.9631C695.764 52.3949 696.432 52.9773 696.903 53.7102C697.375 54.4432 697.611 55.2528 697.611 56.1392C697.616 57.1222 697.327 57.946 696.741 58.6108C696.162 59.2756 695.401 59.7102 694.457 59.9148V60.0511C695.685 60.2216 696.625 60.6761 697.278 61.4148C697.938 62.1477 698.264 63.0597 698.259 64.1506C698.259 65.1278 697.98 66.0028 697.423 66.7756C696.872 67.5426 696.111 68.1449 695.139 68.5824C694.173 69.0199 693.065 69.2386 691.815 69.2386ZM707.252 69.2386C706.116 69.2386 705.099 69.0256 704.201 68.5994C703.303 68.1676 702.59 67.5767 702.062 66.8267C701.539 66.0767 701.261 65.2187 701.227 64.2528H704.295C704.352 64.9687 704.661 65.554 705.224 66.0085C705.786 66.4574 706.462 66.6818 707.252 66.6818C707.871 66.6818 708.423 66.5398 708.906 66.2557C709.388 65.9716 709.769 65.5767 710.048 65.071C710.326 64.5653 710.462 63.9886 710.457 63.3409C710.462 62.6818 710.323 62.0966 710.039 61.5852C709.755 61.0739 709.366 60.6733 708.871 60.3835C708.377 60.0881 707.809 59.9403 707.167 59.9403C706.644 59.9347 706.13 60.0312 705.624 60.2301C705.119 60.429 704.718 60.6903 704.423 61.0142L701.567 60.5455L702.479 51.5455H712.604V54.1875H705.096L704.593 58.8153H704.695C705.019 58.4347 705.477 58.1193 706.067 57.8693C706.658 57.6136 707.306 57.4858 708.011 57.4858C709.067 57.4858 710.011 57.7358 710.84 58.2358C711.67 58.7301 712.323 59.4119 712.8 60.2812C713.278 61.1506 713.516 62.1449 713.516 63.2642C713.516 64.4176 713.249 65.446 712.715 66.3494C712.187 67.2472 711.451 67.9545 710.508 68.4716C709.57 68.983 708.485 69.2386 707.252 69.2386ZM722.009 65.7614V63.2472L729.415 51.5455H731.512V55.125H730.234L725.248 63.0256V63.1619H735.586V65.7614H722.009ZM730.336 69V64.9943L730.37 63.8693V51.5455H733.353V69H730.336ZM737.994 65.7614V63.2472L745.4 51.5455H747.496V55.125H746.218L741.232 63.0256V63.1619H751.57V65.7614H737.994ZM746.32 69V64.9943L746.354 63.8693V51.5455H749.337V69H746.32ZM760.685 69.2386C759.85 69.233 759.035 69.0881 758.239 68.804C757.444 68.5142 756.728 68.0455 756.092 67.3977C755.455 66.7443 754.95 65.8778 754.575 64.7983C754.2 63.7131 754.015 62.3693 754.021 60.767C754.021 59.2727 754.18 57.9403 754.498 56.7699C754.816 55.5994 755.273 54.6108 755.87 53.804C756.467 52.9915 757.185 52.3722 758.026 51.946C758.873 51.5199 759.819 51.3068 760.864 51.3068C761.961 51.3068 762.933 51.5227 763.779 51.9545C764.631 52.3864 765.319 52.9773 765.842 53.7273C766.364 54.4716 766.688 55.3125 766.813 56.25H763.702C763.543 55.5795 763.217 55.0455 762.722 54.6477C762.234 54.2443 761.614 54.0426 760.864 54.0426C759.654 54.0426 758.722 54.5682 758.069 55.6193C757.421 56.6705 757.094 58.1136 757.089 59.9489H757.208C757.487 59.4489 757.847 59.0199 758.29 58.6619C758.734 58.304 759.234 58.0284 759.79 57.8352C760.353 57.6364 760.947 57.5369 761.572 57.5369C762.594 57.5369 763.512 57.7812 764.325 58.2699C765.143 58.7585 765.79 59.4318 766.268 60.2898C766.745 61.142 766.981 62.1193 766.975 63.2216C766.981 64.3693 766.719 65.4006 766.191 66.3153C765.663 67.2244 764.927 67.9403 763.984 68.4631C763.04 68.9858 761.941 69.2443 760.685 69.2386ZM760.668 66.6818C761.288 66.6818 761.842 66.5312 762.33 66.2301C762.819 65.929 763.205 65.5227 763.489 65.0114C763.773 64.5 763.913 63.9261 763.907 63.2898C763.913 62.6648 763.776 62.0994 763.498 61.5938C763.225 61.0881 762.847 60.6875 762.364 60.392C761.881 60.0966 761.33 59.9489 760.711 59.9489C760.251 59.9489 759.822 60.0369 759.424 60.2131C759.026 60.3892 758.68 60.6335 758.384 60.946C758.089 61.2528 757.856 61.6108 757.685 62.0199C757.521 62.4233 757.435 62.8551 757.43 63.3153C757.435 63.9233 757.577 64.483 757.856 64.9943C758.134 65.5057 758.518 65.9148 759.006 66.2216C759.495 66.5284 760.049 66.6818 760.668 66.6818Z" fill="#1E1E1F"/>
<rect x="861" y="24" width="87" height="36" rx="12" fill="#EBF3FF"/>
<path d="M877.228 47.168C876.509 47.168 875.879 47.042 875.338 46.79C874.797 46.5287 874.377 46.1647 874.078 45.698C873.779 45.2313 873.63 44.6853 873.63 44.06H875.1C875.109 44.4147 875.193 44.7413 875.352 45.04C875.52 45.3293 875.758 45.5627 876.066 45.74C876.383 45.908 876.771 45.992 877.228 45.992C877.62 45.992 877.956 45.9267 878.236 45.796C878.525 45.6653 878.745 45.488 878.894 45.264C879.043 45.0307 879.118 44.7647 879.118 44.466C879.118 44.1207 879.039 43.836 878.88 43.612C878.721 43.388 878.507 43.206 878.236 43.066C877.975 42.9167 877.667 42.786 877.312 42.674C876.967 42.562 876.603 42.4407 876.22 42.31C875.445 42.058 874.867 41.7313 874.484 41.33C874.111 40.9287 873.924 40.406 873.924 39.762C873.924 39.2113 874.055 38.7353 874.316 38.334C874.577 37.9233 874.941 37.606 875.408 37.382C875.884 37.1487 876.444 37.032 877.088 37.032C877.723 37.032 878.278 37.1487 878.754 37.382C879.23 37.6153 879.603 37.9373 879.874 38.348C880.145 38.7587 880.28 39.2393 880.28 39.79H878.796C878.796 39.538 878.731 39.2907 878.6 39.048C878.469 38.8053 878.273 38.6093 878.012 38.46C877.751 38.3013 877.429 38.222 877.046 38.222C876.729 38.2127 876.444 38.264 876.192 38.376C875.94 38.488 875.744 38.6513 875.604 38.866C875.464 39.0807 875.394 39.3373 875.394 39.636C875.394 39.9347 875.455 40.1773 875.576 40.364C875.707 40.5413 875.893 40.6953 876.136 40.826C876.379 40.9567 876.659 41.078 876.976 41.19C877.303 41.2927 877.662 41.4093 878.054 41.54C878.539 41.6987 878.969 41.8947 879.342 42.128C879.725 42.352 880.023 42.646 880.238 43.01C880.462 43.3647 880.574 43.822 880.574 44.382C880.574 44.8673 880.448 45.32 880.196 45.74C879.944 46.16 879.571 46.5053 879.076 46.776C878.581 47.0373 877.965 47.168 877.228 47.168ZM885.081 47C884.633 47 884.245 46.93 883.919 46.79C883.592 46.65 883.34 46.4167 883.163 46.09C882.985 45.7633 882.897 45.32 882.897 44.76V41.134H881.679V39.944H882.897L883.065 38.18H884.297V39.944H886.299V41.134H884.297V44.774C884.297 45.1753 884.381 45.4507 884.549 45.6C884.717 45.74 885.006 45.81 885.417 45.81H886.229V47H885.081ZM890.181 47.168C889.602 47.168 889.121 47.07 888.739 46.874C888.356 46.678 888.071 46.4167 887.885 46.09C887.698 45.754 887.605 45.3947 887.605 45.012C887.605 44.5453 887.726 44.1487 887.969 43.822C888.211 43.486 888.557 43.2293 889.005 43.052C889.453 42.8747 889.989 42.786 890.615 42.786H892.449C892.449 42.3753 892.388 42.0347 892.267 41.764C892.145 41.4933 891.963 41.2927 891.721 41.162C891.487 41.022 891.189 40.952 890.825 40.952C890.405 40.952 890.045 41.0547 889.747 41.26C889.448 41.456 889.261 41.75 889.187 42.142H887.787C887.843 41.6473 888.011 41.2273 888.291 40.882C888.58 40.5273 888.949 40.2567 889.397 40.07C889.845 39.874 890.321 39.776 890.825 39.776C891.487 39.776 892.043 39.8927 892.491 40.126C892.939 40.3593 893.275 40.6907 893.499 41.12C893.732 41.54 893.849 42.044 893.849 42.632V47H892.631L892.519 45.81C892.416 45.9967 892.295 46.174 892.155 46.342C892.015 46.51 891.847 46.6547 891.651 46.776C891.464 46.8973 891.245 46.9907 890.993 47.056C890.75 47.1307 890.479 47.168 890.181 47.168ZM890.447 46.034C890.745 46.034 891.016 45.9733 891.259 45.852C891.501 45.7307 891.707 45.5673 891.875 45.362C892.052 45.1473 892.183 44.9093 892.267 44.648C892.36 44.3773 892.411 44.102 892.421 43.822V43.78H890.755C890.353 43.78 890.027 43.8313 889.775 43.934C889.532 44.0273 889.355 44.158 889.243 44.326C889.131 44.494 889.075 44.69 889.075 44.914C889.075 45.1473 889.126 45.348 889.229 45.516C889.341 45.6747 889.499 45.8007 889.705 45.894C889.91 45.9873 890.157 46.034 890.447 46.034ZM898.397 47C897.949 47 897.562 46.93 897.235 46.79C896.909 46.65 896.657 46.4167 896.479 46.09C896.302 45.7633 896.213 45.32 896.213 44.76V41.134H894.995V39.944H896.213L896.381 38.18H897.613V39.944H899.615V41.134H897.613V44.774C897.613 45.1753 897.697 45.4507 897.865 45.6C898.033 45.74 898.323 45.81 898.733 45.81H899.545V47H898.397ZM901.257 47V39.944H902.657V47H901.257ZM901.971 38.614C901.7 38.614 901.476 38.53 901.299 38.362C901.131 38.194 901.047 37.9793 901.047 37.718C901.047 37.466 901.131 37.2607 901.299 37.102C901.476 36.934 901.7 36.85 901.971 36.85C902.232 36.85 902.452 36.934 902.629 37.102C902.806 37.2607 902.895 37.466 902.895 37.718C902.895 37.9793 902.806 38.194 902.629 38.362C902.452 38.53 902.232 38.614 901.971 38.614ZM907.389 47.168C906.792 47.168 906.269 47.07 905.821 46.874C905.373 46.678 905.018 46.4027 904.757 46.048C904.496 45.6933 904.337 45.278 904.281 44.802H905.709C905.756 45.026 905.844 45.2313 905.975 45.418C906.115 45.6047 906.302 45.754 906.535 45.866C906.778 45.978 907.062 46.034 907.389 46.034C907.697 46.034 907.949 45.992 908.145 45.908C908.35 45.8147 908.5 45.6933 908.593 45.544C908.686 45.3853 908.733 45.2173 908.733 45.04C908.733 44.7787 908.668 44.5827 908.537 44.452C908.416 44.312 908.229 44.2047 907.977 44.13C907.734 44.046 907.44 43.9713 907.095 43.906C906.768 43.85 906.451 43.7753 906.143 43.682C905.844 43.5793 905.574 43.4533 905.331 43.304C905.098 43.1547 904.911 42.968 904.771 42.744C904.631 42.5107 904.561 42.226 904.561 41.89C904.561 41.4887 904.668 41.1293 904.883 40.812C905.098 40.4853 905.401 40.2333 905.793 40.056C906.194 39.8693 906.666 39.776 907.207 39.776C907.991 39.776 908.621 39.9627 909.097 40.336C909.573 40.7093 909.853 41.2367 909.937 41.918H908.579C908.542 41.6007 908.402 41.358 908.159 41.19C907.916 41.0127 907.594 40.924 907.193 40.924C906.792 40.924 906.484 41.0033 906.269 41.162C906.054 41.3207 905.947 41.5307 905.947 41.792C905.947 41.96 906.008 42.1093 906.129 42.24C906.25 42.3707 906.428 42.4827 906.661 42.576C906.904 42.66 907.198 42.7393 907.543 42.814C908.038 42.9073 908.481 43.024 908.873 43.164C909.265 43.304 909.578 43.5093 909.811 43.78C910.044 44.0507 910.161 44.438 910.161 44.942C910.17 45.3807 910.058 45.768 909.825 46.104C909.601 46.44 909.279 46.7013 908.859 46.888C908.448 47.0747 907.958 47.168 907.389 47.168ZM914.434 47C913.986 47 913.599 46.93 913.272 46.79C912.946 46.65 912.694 46.4167 912.516 46.09C912.339 45.7633 912.25 45.32 912.25 44.76V41.134H911.032V39.944H912.25L912.418 38.18H913.65V39.944H915.652V41.134H913.65V44.774C913.65 45.1753 913.734 45.4507 913.902 45.6C914.07 45.74 914.36 45.81 914.77 45.81H915.582V47H914.434ZM917.294 47V39.944H918.694V47H917.294ZM918.008 38.614C917.737 38.614 917.513 38.53 917.336 38.362C917.168 38.194 917.084 37.9793 917.084 37.718C917.084 37.466 917.168 37.2607 917.336 37.102C917.513 36.934 917.737 36.85 918.008 36.85C918.269 36.85 918.489 36.934 918.666 37.102C918.843 37.2607 918.932 37.466 918.932 37.718C918.932 37.9793 918.843 38.194 918.666 38.362C918.489 38.53 918.269 38.614 918.008 38.614ZM923.958 47.168C923.277 47.168 922.67 47.014 922.138 46.706C921.606 46.3887 921.186 45.9547 920.878 45.404C920.579 44.8533 920.43 44.214 920.43 43.486C920.43 42.7487 920.579 42.1047 920.878 41.554C921.186 40.994 921.606 40.56 922.138 40.252C922.67 39.9347 923.277 39.776 923.958 39.776C924.817 39.776 925.535 40 926.114 40.448C926.693 40.896 927.061 41.5027 927.22 42.268H925.764C925.671 41.8573 925.456 41.54 925.12 41.316C924.793 41.092 924.401 40.98 923.944 40.98C923.571 40.98 923.225 41.078 922.908 41.274C922.591 41.4607 922.334 41.7407 922.138 42.114C921.951 42.478 921.858 42.9307 921.858 43.472C921.858 43.8733 921.914 44.2327 922.026 44.55C922.138 44.858 922.287 45.1193 922.474 45.334C922.67 45.5487 922.894 45.712 923.146 45.824C923.398 45.9267 923.664 45.978 923.944 45.978C924.252 45.978 924.527 45.9313 924.77 45.838C925.022 45.7353 925.232 45.586 925.4 45.39C925.577 45.194 925.699 44.9607 925.764 44.69H927.22C927.061 45.4367 926.693 46.0387 926.114 46.496C925.535 46.944 924.817 47.168 923.958 47.168ZM931.588 47.168C930.991 47.168 930.468 47.07 930.02 46.874C929.572 46.678 929.218 46.4027 928.956 46.048C928.695 45.6933 928.536 45.278 928.48 44.802H929.908C929.955 45.026 930.044 45.2313 930.174 45.418C930.314 45.6047 930.501 45.754 930.734 45.866C930.977 45.978 931.262 46.034 931.588 46.034C931.896 46.034 932.148 45.992 932.344 45.908C932.55 45.8147 932.699 45.6933 932.792 45.544C932.886 45.3853 932.932 45.2173 932.932 45.04C932.932 44.7787 932.867 44.5827 932.736 44.452C932.615 44.312 932.428 44.2047 932.176 44.13C931.934 44.046 931.64 43.9713 931.294 43.906C930.968 43.85 930.65 43.7753 930.342 43.682C930.044 43.5793 929.773 43.4533 929.53 43.304C929.297 43.1547 929.11 42.968 928.97 42.744C928.83 42.5107 928.76 42.226 928.76 41.89C928.76 41.4887 928.868 41.1293 929.082 40.812C929.297 40.4853 929.6 40.2333 929.992 40.056C930.394 39.8693 930.865 39.776 931.406 39.776C932.19 39.776 932.82 39.9627 933.296 40.336C933.772 40.7093 934.052 41.2367 934.136 41.918H932.778C932.741 41.6007 932.601 41.358 932.358 41.19C932.116 41.0127 931.794 40.924 931.392 40.924C930.991 40.924 930.683 41.0033 930.468 41.162C930.254 41.3207 930.146 41.5307 930.146 41.792C930.146 41.96 930.207 42.1093 930.328 42.24C930.45 42.3707 930.627 42.4827 930.86 42.576C931.103 42.66 931.397 42.7393 931.742 42.814C932.237 42.9073 932.68 43.024 933.072 43.164C933.464 43.304 933.777 43.5093 934.01 43.78C934.244 44.0507 934.36 44.438 934.36 44.942C934.37 45.3807 934.258 45.768 934.024 46.104C933.8 46.44 933.478 46.7013 933.058 46.888C932.648 47.0747 932.158 47.168 931.588 47.168Z" fill="#0B57D0"/>
<rect x="684" y="92" width="8" height="32" rx="4" fill="#C2DAFF"/>
<rect x="684" y="116" width="8" height="8" rx="4" fill="#2772F5"/>
<rect x="696" y="92" width="8" height="32" rx="4" fill="#C2DAFF"/>
<rect x="696" y="104" width="8" height="20" rx="4" fill="#2772F5"/>
<rect x="708" y="92" width="8" height="32" rx="4" fill="#C2DAFF"/>
<rect x="708" y="112" width="8" height="12" rx="4" fill="#2772F5"/>
<rect x="720" y="92" width="8" height="32" rx="4" fill="#C2DAFF"/>
<rect x="720" y="103" width="8" height="21" rx="4" fill="#2772F5"/>
<rect x="732" y="92" width="8" height="32" rx="4" fill="#C2DAFF"/>
<rect x="732" y="102" width="8" height="22" rx="4" fill="#2772F5"/>
<rect x="744" y="92" width="8" height="32" rx="4" fill="#C2DAFF"/>
<rect x="744" y="104" width="8" height="20" rx="4" fill="#2772F5"/>
<rect x="756" y="92" width="8" height="32" rx="4" fill="#C2DAFF"/>
<rect x="756" y="112" width="8" height="12" rx="4" fill="#2772F5"/>
<rect x="768" y="92" width="8" height="32" rx="4" fill="#C2DAFF"/>
<rect x="768" y="116" width="8" height="8" rx="4" fill="#2772F5"/>
<rect x="780" y="92" width="8" height="32" rx="4" fill="#C2DAFF"/>
<rect x="780" y="104" width="8" height="20" rx="4" fill="#2772F5"/>
<rect x="792" y="92" width="8" height="32" rx="4" fill="#C2DAFF"/>
<rect x="792" y="112" width="8" height="12" rx="4" fill="#2772F5"/>
<rect x="804" y="92" width="8" height="32" rx="4" fill="#C2DAFF"/>
<rect x="804" y="104" width="8" height="20" rx="4" fill="#2772F5"/>
<rect x="816" y="92" width="8" height="32" rx="4" fill="#C2DAFF"/>
<rect x="816" y="112" width="8" height="12" rx="4" fill="#2772F5"/>
<rect x="828" y="92" width="8" height="32" rx="4" fill="#C2DAFF"/>
<rect x="828" y="116" width="8" height="8" rx="4" fill="#2772F5"/>
<rect x="840" y="92" width="8" height="32" rx="4" fill="#C2DAFF"/>
<rect x="840" y="102" width="8" height="22" rx="4" fill="#2772F5"/>
<rect x="852" y="92" width="8" height="32" rx="4" fill="#C2DAFF"/>
<rect x="852" y="112" width="8" height="12" rx="4" fill="#2772F5"/>
<rect x="864" y="92" width="8" height="32" rx="4" fill="#C2DAFF"/>
<rect x="864" y="116" width="8" height="8" rx="4" fill="#2772F5"/>
<rect x="876" y="92" width="8" height="32" rx="4" fill="#C2DAFF"/>
<rect x="876" y="104" width="8" height="20" rx="4" fill="#2772F5"/>
<rect x="888" y="92" width="8" height="32" rx="4" fill="#C2DAFF"/>
<rect x="888" y="112" width="8" height="12" rx="4" fill="#2772F5"/>
<rect x="900" y="92" width="8" height="32" rx="4" fill="#C2DAFF"/>
<rect x="900" y="104" width="8" height="20" rx="4" fill="#2772F5"/>
<rect x="912" y="92" width="8" height="32" rx="4" fill="#C2DAFF"/>
<rect x="912" y="112" width="8" height="12" rx="4" fill="#2772F5"/>
<rect x="924" y="92" width="8" height="32" rx="4" fill="#C2DAFF"/>
<rect x="924" y="116" width="8" height="8" rx="4" fill="#2772F5"/>
<rect x="936" y="92" width="8" height="32" rx="4" fill="#C2DAFF"/>
<rect x="936" y="102" width="8" height="22" rx="4" fill="#2772F5"/>
<defs>
<linearGradient id="paint0_linear_301_2186" x1="486" y1="88.5" x2="486" y2="122" gradientUnits="userSpaceOnUse">
<stop offset="0.489483" stop-color="#FF6753"/>
<stop offset="0.489583" stop-color="#2772F5"/>
</linearGradient>
<linearGradient id="paint1_linear_301_2186" x1="486" y1="88.5" x2="486" y2="122" gradientUnits="userSpaceOnUse">
<stop offset="0.489483" stop-color="#FF6753"/>
<stop offset="0.489583" stop-color="#2772F5"/>
</linearGradient>
<linearGradient id="paint2_linear_301_2186" x1="486" y1="88.5" x2="486" y2="122" gradientUnits="userSpaceOnUse">
<stop offset="0.489483" stop-color="#FF6753"/>
<stop offset="0.489583" stop-color="#2772F5"/>
</linearGradient>
<linearGradient id="paint3_linear_301_2186" x1="486" y1="88.5" x2="486" y2="122" gradientUnits="userSpaceOnUse">
<stop offset="0.489483" stop-color="#FF6753"/>
<stop offset="0.489583" stop-color="#2772F5"/>
</linearGradient>
<linearGradient id="paint4_linear_301_2186" x1="486" y1="88.5" x2="486" y2="122" gradientUnits="userSpaceOnUse">
<stop offset="0.489483" stop-color="#FF6753"/>
<stop offset="0.489583" stop-color="#2772F5"/>
</linearGradient>
<linearGradient id="paint5_linear_301_2186" x1="486" y1="88.5" x2="486" y2="122" gradientUnits="userSpaceOnUse">
<stop offset="0.489483" stop-color="#FF6753"/>
<stop offset="0.489583" stop-color="#2772F5"/>
</linearGradient>
<linearGradient id="paint6_linear_301_2186" x1="486" y1="88.5" x2="486" y2="122" gradientUnits="userSpaceOnUse">
<stop offset="0.489483" stop-color="#FF6753"/>
<stop offset="0.489583" stop-color="#2772F5"/>
</linearGradient>
<linearGradient id="paint7_linear_301_2186" x1="486" y1="88.5" x2="486" y2="122" gradientUnits="userSpaceOnUse">
<stop offset="0.489483" stop-color="#FF6753"/>
<stop offset="0.489583" stop-color="#2772F5"/>
</linearGradient>
<linearGradient id="paint8_linear_301_2186" x1="486" y1="88.5" x2="486" y2="122" gradientUnits="userSpaceOnUse">
<stop offset="0.489483" stop-color="#FF6753"/>
<stop offset="0.489583" stop-color="#2772F5"/>
</linearGradient>
<linearGradient id="paint9_linear_301_2186" x1="486" y1="88.5" x2="486" y2="122" gradientUnits="userSpaceOnUse">
<stop offset="0.489483" stop-color="#FF6753"/>
<stop offset="0.489583" stop-color="#2772F5"/>
</linearGradient>
<linearGradient id="paint10_linear_301_2186" x1="486" y1="88.5" x2="486" y2="122" gradientUnits="userSpaceOnUse">
<stop offset="0.489483" stop-color="#FF6753"/>
<stop offset="0.489583" stop-color="#2772F5"/>
</linearGradient>
<linearGradient id="paint11_linear_301_2186" x1="486" y1="88.5" x2="486" y2="122" gradientUnits="userSpaceOnUse">
<stop offset="0.489483" stop-color="#FF6753"/>
<stop offset="0.489583" stop-color="#2772F5"/>
</linearGradient>
<linearGradient id="paint12_linear_301_2186" x1="486" y1="88.5" x2="486" y2="122" gradientUnits="userSpaceOnUse">
<stop offset="0.489483" stop-color="#FF6753"/>
<stop offset="0.489583" stop-color="#2772F5"/>
</linearGradient>
<linearGradient id="paint13_linear_301_2186" x1="486" y1="88.5" x2="486" y2="122" gradientUnits="userSpaceOnUse">
<stop offset="0.489483" stop-color="#FF6753"/>
<stop offset="0.489583" stop-color="#2772F5"/>
</linearGradient>
<linearGradient id="paint14_linear_301_2186" x1="486" y1="88.5" x2="486" y2="122" gradientUnits="userSpaceOnUse">
<stop offset="0.489483" stop-color="#FF6753"/>
<stop offset="0.489583" stop-color="#2772F5"/>
</linearGradient>
<linearGradient id="paint15_linear_301_2186" x1="486" y1="88.5" x2="486" y2="122" gradientUnits="userSpaceOnUse">
<stop offset="0.489483" stop-color="#FF6753"/>
<stop offset="0.489583" stop-color="#2772F5"/>
</linearGradient>
<linearGradient id="paint16_linear_301_2186" x1="486" y1="88.5" x2="486" y2="122" gradientUnits="userSpaceOnUse">
<stop offset="0.489483" stop-color="#FF6753"/>
<stop offset="0.489583" stop-color="#2772F5"/>
</linearGradient>
<linearGradient id="paint17_linear_301_2186" x1="486" y1="88.5" x2="486" y2="122" gradientUnits="userSpaceOnUse">
<stop offset="0.489483" stop-color="#FF6753"/>
<stop offset="0.489583" stop-color="#2772F5"/>
</linearGradient>
<linearGradient id="paint18_linear_301_2186" x1="486" y1="88.5" x2="486" y2="122" gradientUnits="userSpaceOnUse">
<stop offset="0.489483" stop-color="#FF6753"/>
<stop offset="0.489583" stop-color="#2772F5"/>
</linearGradient>
<linearGradient id="paint19_linear_301_2186" x1="486" y1="88.5" x2="486" y2="122" gradientUnits="userSpaceOnUse">
<stop offset="0.489483" stop-color="#FF6753"/>
<stop offset="0.489583" stop-color="#2772F5"/>
</linearGradient>
<linearGradient id="paint20_linear_301_2186" x1="486" y1="88.5" x2="486" y2="122" gradientUnits="userSpaceOnUse">
<stop offset="0.489483" stop-color="#FF6753"/>
<stop offset="0.489583" stop-color="#2772F5"/>
</linearGradient>
<linearGradient id="paint21_linear_301_2186" x1="486" y1="88.5" x2="486" y2="122" gradientUnits="userSpaceOnUse">
<stop offset="0.489483" stop-color="#FF6753"/>
<stop offset="0.489583" stop-color="#2772F5"/>
</linearGradient>
</defs>
</svg>
