<svg width="316" height="146" viewBox="0 0 316 146" fill="none" xmlns="http://www.w3.org/2000/svg">
<rect x="0.5" y="0.5" width="315" height="145" rx="23.5" fill="white"/>
<rect x="0.5" y="0.5" width="315" height="145" rx="23.5" stroke="#EDEDF0"/>
<path d="M33.5753 32.1293H32.0241C31.9645 31.7978 31.8535 31.5062 31.6911 31.2543C31.5286 31.0024 31.3298 30.7886 31.0945 30.6129C30.8591 30.4373 30.5956 30.3047 30.304 30.2152C30.0156 30.1257 29.709 30.081 29.3842 30.081C28.7976 30.081 28.2723 30.2285 27.8082 30.5234C27.3475 30.8184 26.983 31.2509 26.7145 31.821C26.4493 32.3911 26.3168 33.0871 26.3168 33.9091C26.3168 34.7377 26.4493 35.437 26.7145 36.0071C26.983 36.5772 27.3492 37.008 27.8132 37.2997C28.2772 37.5914 28.7992 37.7372 29.3793 37.7372C29.7008 37.7372 30.0057 37.6941 30.294 37.608C30.5857 37.5185 30.8492 37.3875 31.0845 37.2152C31.3198 37.0429 31.5187 36.8324 31.6811 36.5838C31.8468 36.3319 31.9612 36.0436 32.0241 35.7188L33.5753 35.7237C33.4924 36.2242 33.3317 36.6849 33.093 37.1058C32.8577 37.5234 32.5545 37.8847 32.1832 38.1896C31.8153 38.4912 31.3944 38.7249 30.9205 38.8906C30.4465 39.0563 29.9295 39.1392 29.3693 39.1392C28.4877 39.1392 27.7022 38.9304 27.0128 38.5128C26.3234 38.0919 25.7798 37.4903 25.3821 36.7081C24.9877 35.9259 24.7905 34.9929 24.7905 33.9091C24.7905 32.822 24.9893 31.889 25.3871 31.1101C25.7848 30.3279 26.3284 29.728 27.0178 29.3104C27.7071 28.8894 28.491 28.679 29.3693 28.679C29.9096 28.679 30.4134 28.7569 30.8807 28.9126C31.3513 29.0651 31.7739 29.2905 32.1484 29.5888C32.523 29.8838 32.8329 30.245 33.0781 30.6726C33.3234 31.0968 33.4891 31.5824 33.5753 32.1293ZM42.1011 28.8182H43.6423V35.5149C43.6423 36.2275 43.4749 36.8589 43.1402 37.4091C42.8054 37.956 42.3348 38.3868 41.7282 38.7017C41.1217 39.0133 40.4108 39.169 39.5954 39.169C38.7834 39.169 38.0741 39.0133 37.4676 38.7017C36.8611 38.3868 36.3904 37.956 36.0557 37.4091C35.7209 36.8589 35.5535 36.2275 35.5535 35.5149V28.8182H37.0898V35.3906C37.0898 35.8513 37.1908 36.2607 37.393 36.6186C37.5985 36.9766 37.8885 37.2583 38.263 37.4638C38.6376 37.666 39.0817 37.767 39.5954 37.767C40.1125 37.767 40.5583 37.666 40.9328 37.4638C41.3106 37.2583 41.599 36.9766 41.7978 36.6186C42 36.2607 42.1011 35.8513 42.1011 35.3906V28.8182ZM49.8609 39V28.8182H51.3474V32.6016H51.4369C51.523 32.4425 51.6473 32.2585 51.8097 32.0497C51.9721 31.8409 52.1975 31.6586 52.4859 31.5028C52.7742 31.3438 53.1554 31.2642 53.6293 31.2642C54.2458 31.2642 54.796 31.42 55.2799 31.7315C55.7638 32.0431 56.1433 32.4922 56.4184 33.0788C56.6968 33.6655 56.836 34.3714 56.836 35.1967C56.836 36.022 56.6985 36.7296 56.4234 37.3196C56.1483 37.9062 55.7704 38.3587 55.2899 38.6768C54.8093 38.9917 54.2607 39.1491 53.6443 39.1491C53.1802 39.1491 52.8007 39.0713 52.5058 38.9155C52.2141 38.7597 51.9854 38.5774 51.8197 38.3686C51.654 38.1598 51.5264 37.9742 51.4369 37.8118H51.3126V39H49.8609ZM51.3175 35.1818C51.3175 35.7187 51.3954 36.1894 51.5512 36.5938C51.707 36.9981 51.9324 37.3146 52.2274 37.5433C52.5223 37.7687 52.8836 37.8814 53.3112 37.8814C53.7553 37.8814 54.1265 37.7637 54.4248 37.5284C54.7231 37.2898 54.9485 36.9666 55.1009 36.5589C55.2567 36.1513 55.3346 35.6922 55.3346 35.1818C55.3346 34.678 55.2584 34.2256 55.1059 33.8246C54.9568 33.4235 54.7314 33.107 54.4298 32.875C54.1315 32.643 53.7586 32.527 53.3112 32.527C52.8803 32.527 52.5157 32.638 52.2174 32.8601C51.9224 33.0821 51.6987 33.392 51.5462 33.7898C51.3938 34.1875 51.3175 34.6515 51.3175 35.1818ZM60.8675 39.169C60.3836 39.169 59.9461 39.0795 59.555 38.9006C59.1639 38.7183 58.854 38.4548 58.6253 38.1101C58.4 37.7654 58.2873 37.3428 58.2873 36.8423C58.2873 36.4115 58.3701 36.0568 58.5359 35.7784C58.7016 35.5 58.9253 35.2796 59.207 35.1172C59.4887 34.9548 59.8036 34.8321 60.1516 34.7493C60.4996 34.6664 60.8543 34.6035 61.2155 34.5604C61.6729 34.5073 62.0441 34.4643 62.3292 34.4311C62.6142 34.3946 62.8214 34.3366 62.9506 34.2571C63.0799 34.1776 63.1445 34.0483 63.1445 33.8693V33.8345C63.1445 33.4003 63.0219 33.0639 62.7766 32.8253C62.5347 32.5866 62.1734 32.4673 61.6928 32.4673C61.1923 32.4673 60.7979 32.5784 60.5096 32.8004C60.2245 33.0192 60.0273 33.2628 59.918 33.5312L58.5209 33.2131C58.6867 32.7491 58.9286 32.3745 59.2468 32.0895C59.5683 31.8011 59.9378 31.5923 60.3555 31.4631C60.7731 31.3305 61.2122 31.2642 61.6729 31.2642C61.9779 31.2642 62.301 31.3007 62.6424 31.3736C62.9871 31.4432 63.3086 31.5724 63.6069 31.7614C63.9085 31.9503 64.1554 32.2204 64.3476 32.5717C64.5399 32.9197 64.636 33.3722 64.636 33.929V39H63.1843V37.956H63.1246C63.0285 38.1482 62.8843 38.3371 62.6921 38.5227C62.4999 38.7083 62.2529 38.8625 61.9513 38.9851C61.6497 39.1077 61.2885 39.169 60.8675 39.169ZM61.1907 37.9759C61.6017 37.9759 61.953 37.8946 62.2447 37.7322C62.5396 37.5698 62.7634 37.3577 62.9158 37.0959C63.0716 36.8307 63.1495 36.5473 63.1495 36.2457V35.2614C63.0965 35.3144 62.9937 35.3641 62.8413 35.4105C62.6921 35.4536 62.5214 35.4917 62.3292 35.5249C62.1369 35.5547 61.9497 35.5829 61.7674 35.6094C61.5851 35.6326 61.4326 35.6525 61.31 35.669C61.0216 35.7055 60.7582 35.7668 60.5195 35.853C60.2842 35.9392 60.0953 36.0634 59.9528 36.2259C59.8136 36.3849 59.744 36.5971 59.744 36.8622C59.744 37.2301 59.8798 37.5085 60.1516 37.6974C60.4234 37.883 60.7698 37.9759 61.1907 37.9759ZM68.2424 28.8182V39H66.7559V28.8182H68.2424ZM72.6046 39.169C72.1207 39.169 71.6832 39.0795 71.2921 38.9006C70.901 38.7183 70.5911 38.4548 70.3624 38.1101C70.137 37.7654 70.0243 37.3428 70.0243 36.8423C70.0243 36.4115 70.1072 36.0568 70.2729 35.7784C70.4386 35.5 70.6623 35.2796 70.944 35.1172C71.2258 34.9548 71.5406 34.8321 71.8887 34.7493C72.2367 34.6664 72.5913 34.6035 72.9526 34.5604C73.41 34.5073 73.7812 34.4643 74.0662 34.4311C74.3512 34.3946 74.5584 34.3366 74.6877 34.2571C74.8169 34.1776 74.8815 34.0483 74.8815 33.8693V33.8345C74.8815 33.4003 74.7589 33.0639 74.5137 32.8253C74.2717 32.5866 73.9104 32.4673 73.4298 32.4673C72.9294 32.4673 72.535 32.5784 72.2466 32.8004C71.9616 33.0192 71.7644 33.2628 71.655 33.5312L70.258 33.2131C70.4237 32.7491 70.6656 32.3745 70.9838 32.0895C71.3053 31.8011 71.6749 31.5923 72.0925 31.4631C72.5101 31.3305 72.9493 31.2642 73.41 31.2642C73.7149 31.2642 74.038 31.3007 74.3794 31.3736C74.7241 31.4432 75.0456 31.5724 75.3439 31.7614C75.6455 31.9503 75.8924 32.2204 76.0847 32.5717C76.2769 32.9197 76.373 33.3722 76.373 33.929V39H74.9213V37.956H74.8617C74.7655 38.1482 74.6214 38.3371 74.4291 38.5227C74.2369 38.7083 73.99 38.8625 73.6884 38.9851C73.3868 39.1077 73.0255 39.169 72.6046 39.169ZM72.9277 37.9759C73.3387 37.9759 73.69 37.8946 73.9817 37.7322C74.2767 37.5698 74.5004 37.3577 74.6529 37.0959C74.8086 36.8307 74.8865 36.5473 74.8865 36.2457V35.2614C74.8335 35.3144 74.7307 35.3641 74.5783 35.4105C74.4291 35.4536 74.2584 35.4917 74.0662 35.5249C73.874 35.5547 73.6867 35.5829 73.5044 35.6094C73.3221 35.6326 73.1697 35.6525 73.047 35.669C72.7587 35.7055 72.4952 35.7668 72.2565 35.853C72.0212 35.9392 71.8323 36.0634 71.6898 36.2259C71.5506 36.3849 71.481 36.5971 71.481 36.8622C71.481 37.2301 71.6169 37.5085 71.8887 37.6974C72.1604 37.883 72.5068 37.9759 72.9277 37.9759ZM79.9795 34.4659V39H78.493V31.3636H79.9198V32.6065H80.0143C80.1899 32.2022 80.465 31.8774 80.8396 31.6321C81.2174 31.3868 81.693 31.2642 82.2664 31.2642C82.7868 31.2642 83.2425 31.3736 83.6336 31.5923C84.0247 31.8078 84.328 32.1293 84.5434 32.5568C84.7588 32.9844 84.8665 33.513 84.8665 34.1428V39H83.38V34.3217C83.38 33.7682 83.2359 33.3357 82.9475 33.0241C82.6592 32.7093 82.2631 32.5518 81.7593 32.5518C81.4146 32.5518 81.108 32.6264 80.8396 32.7756C80.5744 32.9247 80.3639 33.1435 80.2082 33.4318C80.0557 33.7169 79.9795 34.0616 79.9795 34.4659ZM90.2168 39.1541C89.4777 39.1541 88.8413 38.9867 88.3077 38.652C87.7774 38.3139 87.3697 37.8482 87.0847 37.255C86.7996 36.6617 86.6571 35.9822 86.6571 35.2166C86.6571 34.4411 86.8029 33.7566 87.0946 33.1634C87.3863 32.5668 87.7973 32.1011 88.3276 31.7663C88.8579 31.4316 89.4826 31.2642 90.2019 31.2642C90.7819 31.2642 91.2989 31.3719 91.753 31.5874C92.2071 31.7995 92.5733 32.0978 92.8517 32.4822C93.1334 32.8667 93.3008 33.3158 93.3538 33.8295H91.9071C91.8276 33.4716 91.6453 33.1634 91.3602 32.9048C91.0785 32.6463 90.7007 32.517 90.2267 32.517C89.8124 32.517 89.4495 32.6264 89.1379 32.8452C88.8297 33.0606 88.5894 33.3688 88.4171 33.7699C88.2447 34.1676 88.1585 34.6383 88.1585 35.1818C88.1585 35.7386 88.243 36.2192 88.4121 36.6236C88.5811 37.0279 88.8198 37.3411 89.128 37.5632C89.4395 37.7853 89.8058 37.8963 90.2267 37.8963C90.5084 37.8963 90.7636 37.8449 90.9923 37.7422C91.2243 37.6361 91.4182 37.4853 91.574 37.2898C91.7331 37.0942 91.8441 36.8589 91.9071 36.5838H93.3538C93.3008 37.0777 93.1401 37.5185 92.8716 37.9062C92.6031 38.294 92.2435 38.599 91.7928 38.821C91.3453 39.0431 90.82 39.1541 90.2168 39.1541ZM98.3747 39.1541C97.6223 39.1541 96.9744 38.9934 96.4308 38.6719C95.8906 38.3471 95.473 37.8913 95.178 37.3047C94.8863 36.7147 94.7405 36.0237 94.7405 35.2315C94.7405 34.4493 94.8863 33.7599 95.178 33.1634C95.473 32.5668 95.8839 32.1011 96.4109 31.7663C96.9412 31.4316 97.561 31.2642 98.2703 31.2642C98.7012 31.2642 99.1188 31.3355 99.5231 31.478C99.9275 31.6205 100.29 31.8442 100.612 32.1491C100.933 32.4541 101.187 32.8501 101.373 33.3374C101.558 33.8213 101.651 34.4096 101.651 35.1023V35.6293H95.5807V34.5156H100.194C100.194 34.1245 100.115 33.7782 99.9557 33.4766C99.7966 33.1716 99.5729 32.9313 99.2845 32.7557C98.9995 32.58 98.6647 32.4922 98.2802 32.4922C97.8626 32.4922 97.498 32.5949 97.1865 32.8004C96.8783 33.0026 96.6396 33.2678 96.4706 33.5959C96.3049 33.9207 96.222 34.2737 96.222 34.6548V35.5249C96.222 36.0353 96.3115 36.4695 96.4905 36.8274C96.6728 37.1854 96.9263 37.4588 97.2511 37.6477C97.5759 37.8333 97.9554 37.9261 98.3896 37.9261C98.6713 37.9261 98.9282 37.8864 99.1602 37.8068C99.3922 37.724 99.5927 37.6013 99.7618 37.4389C99.9308 37.2765 100.06 37.076 100.15 36.8374L101.557 37.0909C101.444 37.5052 101.242 37.8681 100.95 38.1797C100.662 38.4879 100.299 38.7282 99.8612 38.9006C99.427 39.0696 98.9315 39.1541 98.3747 39.1541Z" fill="#AEAEB2"/>
<path d="M31.6193 69.2386C30.483 69.2386 29.4659 69.0256 28.5682 68.5994C27.6705 68.1676 26.9574 67.5767 26.429 66.8267C25.9063 66.0767 25.6278 65.2187 25.5938 64.2528H28.6619C28.7188 64.9687 29.0284 65.554 29.5909 66.0085C30.1534 66.4574 30.8295 66.6818 31.6193 66.6818C32.2386 66.6818 32.7898 66.5398 33.2727 66.2557C33.7557 65.9716 34.1364 65.5767 34.4148 65.071C34.6932 64.5653 34.8295 63.9886 34.8239 63.3409C34.8295 62.6818 34.6903 62.0966 34.4062 61.5852C34.1222 61.0739 33.733 60.6733 33.2386 60.3835C32.7443 60.0881 32.1761 59.9403 31.5341 59.9403C31.0114 59.9347 30.4972 60.0312 29.9915 60.2301C29.4858 60.429 29.0852 60.6903 28.7898 61.0142L25.9347 60.5455L26.8466 51.5455H36.9716V54.1875H29.4631L28.9602 58.8153H29.0625C29.3864 58.4347 29.8438 58.1193 30.4347 57.8693C31.0256 57.6136 31.6733 57.4858 32.3778 57.4858C33.4347 57.4858 34.3778 57.7358 35.2074 58.2358C36.0369 58.7301 36.6903 59.4119 37.1676 60.2812C37.6449 61.1506 37.8835 62.1449 37.8835 63.2642C37.8835 64.4176 37.6165 65.446 37.0824 66.3494C36.554 67.2472 35.8182 67.9545 34.875 68.4716C33.9375 68.983 32.8523 69.2386 31.6193 69.2386ZM40.4233 65.7614V63.2472L47.8295 51.5455H49.9261V55.125H48.6477L43.6619 63.0256V63.1619H54V65.7614H40.4233ZM48.75 69V64.9943L48.7841 63.8693V51.5455H51.767V69H48.75ZM62.7827 51.3068C63.6179 51.3125 64.4304 51.4602 65.2202 51.75C66.0156 52.0341 66.7315 52.5 67.3679 53.1477C68.0043 53.7898 68.5099 54.6506 68.8849 55.7301C69.2599 56.8097 69.4474 58.1449 69.4474 59.7358C69.4531 61.2358 69.294 62.5767 68.9702 63.7585C68.652 64.9347 68.1946 65.929 67.598 66.7415C67.0014 67.554 66.2827 68.1733 65.4418 68.5994C64.6009 69.0256 63.6548 69.2386 62.6037 69.2386C61.5014 69.2386 60.5241 69.0227 59.6719 68.5909C58.8253 68.1591 58.1406 67.5682 57.6179 66.8182C57.0952 66.0682 56.7741 65.2102 56.6548 64.2443H59.7656C59.9247 64.9375 60.2486 65.4886 60.7372 65.8977C61.2315 66.3011 61.8537 66.5028 62.6037 66.5028C63.8139 66.5028 64.7457 65.9773 65.3991 64.9261C66.0526 63.875 66.3793 62.4148 66.3793 60.5455H66.2599C65.9815 61.0455 65.6207 61.4773 65.1776 61.8409C64.7344 62.1989 64.2315 62.4744 63.669 62.6676C63.1122 62.8608 62.5213 62.9574 61.8963 62.9574C60.8736 62.9574 59.9531 62.7131 59.1349 62.2244C58.3224 61.7358 57.6776 61.0653 57.2003 60.2131C56.7287 59.3608 56.4901 58.3864 56.4844 57.2898C56.4844 56.1534 56.7457 55.1335 57.2685 54.2301C57.7969 53.321 58.5327 52.6051 59.4759 52.0824C60.419 51.554 61.5213 51.2955 62.7827 51.3068ZM62.7912 53.8636C62.1776 53.8636 61.6236 54.0142 61.1293 54.3153C60.6406 54.6108 60.2543 55.0142 59.9702 55.5256C59.6918 56.0312 59.5526 56.5966 59.5526 57.2216C59.5582 57.8409 59.6974 58.4034 59.9702 58.9091C60.2486 59.4148 60.6264 59.8153 61.1037 60.1108C61.5866 60.4062 62.1378 60.554 62.7571 60.554C63.2173 60.554 63.6463 60.4659 64.044 60.2898C64.4418 60.1136 64.7884 59.8693 65.0838 59.5568C65.3849 59.2386 65.6179 58.8778 65.7827 58.4744C65.9531 58.071 66.0355 57.6449 66.0298 57.196C66.0298 56.5994 65.8878 56.0483 65.6037 55.5426C65.3253 55.0369 64.9418 54.6307 64.4531 54.3239C63.9702 54.017 63.4162 53.8636 62.7912 53.8636ZM77.9233 65.7614V63.2472L85.3295 51.5455H87.4261V55.125H86.1477L81.1619 63.0256V63.1619H91.5V65.7614H77.9233ZM86.25 69V64.9943L86.2841 63.8693V51.5455H89.267V69H86.25ZM100.291 69.2386C99.1548 69.2386 98.1378 69.0256 97.2401 68.5994C96.3423 68.1676 95.6293 67.5767 95.1009 66.8267C94.5781 66.0767 94.2997 65.2187 94.2656 64.2528H97.3338C97.3906 64.9687 97.7003 65.554 98.2628 66.0085C98.8253 66.4574 99.5014 66.6818 100.291 66.6818C100.911 66.6818 101.462 66.5398 101.945 66.2557C102.428 65.9716 102.808 65.5767 103.087 65.071C103.365 64.5653 103.501 63.9886 103.496 63.3409C103.501 62.6818 103.362 62.0966 103.078 61.5852C102.794 61.0739 102.405 60.6733 101.911 60.3835C101.416 60.0881 100.848 59.9403 100.206 59.9403C99.6832 59.9347 99.169 60.0312 98.6634 60.2301C98.1577 60.429 97.7571 60.6903 97.4616 61.0142L94.6065 60.5455L95.5185 51.5455H105.643V54.1875H98.1349L97.6321 58.8153H97.7344C98.0582 58.4347 98.5156 58.1193 99.1065 57.8693C99.6974 57.6136 100.345 57.4858 101.05 57.4858C102.107 57.4858 103.05 57.7358 103.879 58.2358C104.709 58.7301 105.362 59.4119 105.839 60.2812C106.317 61.1506 106.555 62.1449 106.555 63.2642C106.555 64.4176 106.288 65.446 105.754 66.3494C105.226 67.2472 104.49 67.9545 103.547 68.4716C102.609 68.983 101.524 69.2386 100.291 69.2386ZM115.803 69.2386C114.967 69.233 114.152 69.0881 113.357 68.804C112.561 68.5142 111.845 68.0455 111.209 67.3977C110.572 66.7443 110.067 65.8778 109.692 64.7983C109.317 63.7131 109.132 62.3693 109.138 60.767C109.138 59.2727 109.297 57.9403 109.615 56.7699C109.933 55.5994 110.391 54.6108 110.987 53.804C111.584 52.9915 112.303 52.3722 113.143 51.946C113.99 51.5199 114.936 51.3068 115.982 51.3068C117.078 51.3068 118.05 51.5227 118.896 51.9545C119.749 52.3864 120.436 52.9773 120.959 53.7273C121.482 54.4716 121.805 55.3125 121.93 56.25H118.82C118.661 55.5795 118.334 55.0455 117.839 54.6477C117.351 54.2443 116.732 54.0426 115.982 54.0426C114.771 54.0426 113.839 54.5682 113.186 55.6193C112.538 56.6705 112.212 58.1136 112.206 59.9489H112.325C112.604 59.4489 112.964 59.0199 113.408 58.6619C113.851 58.304 114.351 58.0284 114.908 57.8352C115.47 57.6364 116.064 57.5369 116.689 57.5369C117.712 57.5369 118.629 57.7812 119.442 58.2699C120.26 58.7585 120.908 59.4318 121.385 60.2898C121.862 61.142 122.098 62.1193 122.092 63.2216C122.098 64.3693 121.837 65.4006 121.308 66.3153C120.78 67.2244 120.044 67.9403 119.101 68.4631C118.158 68.9858 117.058 69.2443 115.803 69.2386ZM115.786 66.6818C116.405 66.6818 116.959 66.5312 117.447 66.2301C117.936 65.929 118.322 65.5227 118.607 65.0114C118.891 64.5 119.03 63.9261 119.024 63.2898C119.03 62.6648 118.893 62.0994 118.615 61.5938C118.342 61.0881 117.964 60.6875 117.482 60.392C116.999 60.0966 116.447 59.9489 115.828 59.9489C115.368 59.9489 114.939 60.0369 114.541 60.2131C114.143 60.3892 113.797 60.6335 113.501 60.946C113.206 61.2528 112.973 61.6108 112.803 62.0199C112.638 62.4233 112.553 62.8551 112.547 63.3153C112.553 63.9233 112.695 64.483 112.973 64.9943C113.251 65.5057 113.635 65.9148 114.124 66.2216C114.612 66.5284 115.166 66.6818 115.786 66.6818ZM137.318 69.2386C136.483 69.233 135.668 69.0881 134.872 68.804C134.077 68.5142 133.361 68.0455 132.724 67.3977C132.088 66.7443 131.582 65.8778 131.207 64.7983C130.832 63.7131 130.648 62.3693 130.653 60.767C130.653 59.2727 130.813 57.9403 131.131 56.7699C131.449 55.5994 131.906 54.6108 132.503 53.804C133.099 52.9915 133.818 52.3722 134.659 51.946C135.506 51.5199 136.452 51.3068 137.497 51.3068C138.594 51.3068 139.565 51.5227 140.412 51.9545C141.264 52.3864 141.952 52.9773 142.474 53.7273C142.997 54.4716 143.321 55.3125 143.446 56.25H140.335C140.176 55.5795 139.849 55.0455 139.355 54.6477C138.866 54.2443 138.247 54.0426 137.497 54.0426C136.287 54.0426 135.355 54.5682 134.702 55.6193C134.054 56.6705 133.727 58.1136 133.722 59.9489H133.841C134.119 59.4489 134.48 59.0199 134.923 58.6619C135.366 58.304 135.866 58.0284 136.423 57.8352C136.986 57.6364 137.58 57.5369 138.205 57.5369C139.227 57.5369 140.145 57.7812 140.957 58.2699C141.776 58.7585 142.423 59.4318 142.901 60.2898C143.378 61.142 143.614 62.1193 143.608 63.2216C143.614 64.3693 143.352 65.4006 142.824 66.3153C142.295 67.2244 141.56 67.9403 140.616 68.4631C139.673 68.9858 138.574 69.2443 137.318 69.2386ZM137.301 66.6818C137.92 66.6818 138.474 66.5312 138.963 66.2301C139.452 65.929 139.838 65.5227 140.122 65.0114C140.406 64.5 140.545 63.9261 140.54 63.2898C140.545 62.6648 140.409 62.0994 140.131 61.5938C139.858 61.0881 139.48 60.6875 138.997 60.392C138.514 60.0966 137.963 59.9489 137.344 59.9489C136.884 59.9489 136.455 60.0369 136.057 60.2131C135.659 60.3892 135.313 60.6335 135.017 60.946C134.722 61.2528 134.489 61.6108 134.318 62.0199C134.153 62.4233 134.068 62.8551 134.062 63.3153C134.068 63.9233 134.21 64.483 134.489 64.9943C134.767 65.5057 135.151 65.9148 135.639 66.2216C136.128 66.5284 136.682 66.6818 137.301 66.6818ZM152.557 69.2386C151.42 69.2386 150.403 69.0256 149.506 68.5994C148.608 68.1676 147.895 67.5767 147.366 66.8267C146.844 66.0767 146.565 65.2187 146.531 64.2528H149.599C149.656 64.9687 149.966 65.554 150.528 66.0085C151.091 66.4574 151.767 66.6818 152.557 66.6818C153.176 66.6818 153.727 66.5398 154.21 66.2557C154.693 65.9716 155.074 65.5767 155.352 65.071C155.631 64.5653 155.767 63.9886 155.761 63.3409C155.767 62.6818 155.628 62.0966 155.344 61.5852C155.06 61.0739 154.67 60.6733 154.176 60.3835C153.682 60.0881 153.114 59.9403 152.472 59.9403C151.949 59.9347 151.435 60.0312 150.929 60.2301C150.423 60.429 150.023 60.6903 149.727 61.0142L146.872 60.5455L147.784 51.5455H157.909V54.1875H150.401L149.898 58.8153H150C150.324 58.4347 150.781 58.1193 151.372 57.8693C151.963 57.6136 152.611 57.4858 153.315 57.4858C154.372 57.4858 155.315 57.7358 156.145 58.2358C156.974 58.7301 157.628 59.4119 158.105 60.2812C158.582 61.1506 158.821 62.1449 158.821 63.2642C158.821 64.4176 158.554 65.446 158.02 66.3494C157.491 67.2472 156.756 67.9545 155.812 68.4716C154.875 68.983 153.79 69.2386 152.557 69.2386ZM162.315 69L169.739 54.3068V54.1875H161.122V51.5455H173.011V54.2472L165.597 69H162.315Z" fill="#1E1E1F"/>
<rect x="222" y="24" width="70" height="36" rx="12" fill="#EBF3FF"/>
<path d="M237.304 47V38.348H234.406V37.2H241.616V38.348H238.704V47H237.304ZM244.926 47.168C244.263 47.168 243.666 47.014 243.134 46.706C242.611 46.398 242.196 45.9687 241.888 45.418C241.589 44.858 241.44 44.214 241.44 43.486C241.44 42.7393 241.594 42.0907 241.902 41.54C242.21 40.98 242.63 40.546 243.162 40.238C243.694 39.93 244.291 39.776 244.954 39.776C245.626 39.776 246.223 39.93 246.746 40.238C247.269 40.546 247.679 40.9753 247.978 41.526C248.286 42.0767 248.44 42.7253 248.44 43.472C248.44 44.2187 248.286 44.8673 247.978 45.418C247.679 45.9687 247.264 46.398 246.732 46.706C246.2 47.014 245.598 47.168 244.926 47.168ZM244.926 45.964C245.309 45.964 245.654 45.8707 245.962 45.684C246.279 45.4973 246.531 45.222 246.718 44.858C246.914 44.4847 247.012 44.0227 247.012 43.472C247.012 42.9213 246.919 42.464 246.732 42.1C246.545 41.7267 246.293 41.4467 245.976 41.26C245.668 41.0733 245.327 40.98 244.954 40.98C244.581 40.98 244.235 41.0733 243.918 41.26C243.601 41.4467 243.344 41.7267 243.148 42.1C242.961 42.464 242.868 42.9213 242.868 43.472C242.868 44.0227 242.961 44.4847 243.148 44.858C243.344 45.222 243.596 45.4973 243.904 45.684C244.221 45.8707 244.562 45.964 244.926 45.964ZM250.087 50.08V39.944H251.347L251.487 41.036C251.636 40.8213 251.823 40.6207 252.047 40.434C252.271 40.238 252.537 40.0793 252.845 39.958C253.162 39.8367 253.531 39.776 253.951 39.776C254.623 39.776 255.211 39.9393 255.715 40.266C256.228 40.5927 256.625 41.036 256.905 41.596C257.194 42.1467 257.339 42.7767 257.339 43.486C257.339 44.1953 257.194 44.83 256.905 45.39C256.615 45.9407 256.214 46.3747 255.701 46.692C255.197 47.0093 254.609 47.168 253.937 47.168C253.386 47.168 252.901 47.0607 252.481 46.846C252.061 46.622 251.729 46.314 251.487 45.922V50.08H250.087ZM253.713 45.95C254.142 45.95 254.52 45.8473 254.847 45.642C255.183 45.4367 255.444 45.1473 255.631 44.774C255.827 44.4007 255.925 43.9667 255.925 43.472C255.925 42.9773 255.827 42.548 255.631 42.184C255.444 41.8107 255.183 41.5213 254.847 41.316C254.52 41.1013 254.142 40.994 253.713 40.994C253.274 40.994 252.887 41.1013 252.551 41.316C252.224 41.5213 251.967 41.8107 251.781 42.184C251.594 42.548 251.501 42.9773 251.501 43.472C251.501 43.9667 251.594 44.4007 251.781 44.774C251.967 45.1473 252.224 45.4367 252.551 45.642C252.887 45.8473 253.274 45.95 253.713 45.95ZM266.238 47.168C265.547 47.168 264.922 47.0327 264.362 46.762C263.802 46.482 263.354 46.062 263.018 45.502C262.691 44.9327 262.528 44.2093 262.528 43.332V37.2H263.928V43.346C263.928 43.934 264.026 44.4193 264.222 44.802C264.418 45.1753 264.688 45.4553 265.034 45.642C265.388 45.8193 265.799 45.908 266.266 45.908C266.742 45.908 267.152 45.8193 267.498 45.642C267.843 45.4553 268.109 45.1753 268.296 44.802C268.492 44.4193 268.59 43.934 268.59 43.346V37.2H269.99V43.332C269.99 44.2093 269.822 44.9327 269.486 45.502C269.15 46.062 268.697 46.482 268.128 46.762C267.558 47.0327 266.928 47.168 266.238 47.168ZM271.866 50.08V39.944H273.126L273.266 41.036C273.415 40.8213 273.602 40.6207 273.826 40.434C274.05 40.238 274.316 40.0793 274.624 39.958C274.941 39.8367 275.31 39.776 275.73 39.776C276.402 39.776 276.99 39.9393 277.494 40.266C278.007 40.5927 278.404 41.036 278.684 41.596C278.973 42.1467 279.118 42.7767 279.118 43.486C279.118 44.1953 278.973 44.83 278.684 45.39C278.395 45.9407 277.993 46.3747 277.48 46.692C276.976 47.0093 276.388 47.168 275.716 47.168C275.165 47.168 274.68 47.0607 274.26 46.846C273.84 46.622 273.509 46.314 273.266 45.922V50.08H271.866ZM275.492 45.95C275.921 45.95 276.299 45.8473 276.626 45.642C276.962 45.4367 277.223 45.1473 277.41 44.774C277.606 44.4007 277.704 43.9667 277.704 43.472C277.704 42.9773 277.606 42.548 277.41 42.184C277.223 41.8107 276.962 41.5213 276.626 41.316C276.299 41.1013 275.921 40.994 275.492 40.994C275.053 40.994 274.666 41.1013 274.33 41.316C274.003 41.5213 273.747 41.8107 273.56 42.184C273.373 42.548 273.28 42.9773 273.28 43.472C273.28 43.9667 273.373 44.4007 273.56 44.774C273.747 45.1473 274.003 45.4367 274.33 45.642C274.666 45.8473 275.053 45.95 275.492 45.95Z" fill="#0B57D0"/>
<path d="M27.8778 105.145C27.2045 105.142 26.6293 104.964 26.152 104.612C25.6747 104.26 25.3097 103.747 25.0568 103.074C24.804 102.401 24.6776 101.589 24.6776 100.641C24.6776 99.6946 24.804 98.8864 25.0568 98.2159C25.3125 97.5455 25.679 97.0341 26.1562 96.6818C26.6364 96.3295 27.2102 96.1534 27.8778 96.1534C28.5455 96.1534 29.1179 96.331 29.5952 96.6861C30.0724 97.0384 30.4375 97.5497 30.6903 98.2202C30.946 98.8878 31.0739 99.6946 31.0739 100.641C31.0739 101.592 30.9474 102.405 30.6946 103.078C30.4418 103.749 30.0767 104.261 29.5994 104.616C29.1222 104.969 28.5483 105.145 27.8778 105.145ZM27.8778 104.007C28.4688 104.007 28.9304 103.719 29.2628 103.142C29.598 102.565 29.7656 101.732 29.7656 100.641C29.7656 99.9162 29.6889 99.304 29.5355 98.804C29.3849 98.3011 29.1676 97.9205 28.8835 97.6619C28.6023 97.4006 28.267 97.2699 27.8778 97.2699C27.2898 97.2699 26.8281 97.5597 26.4929 98.1392C26.1577 98.7187 25.9886 99.5526 25.9858 100.641C25.9858 101.368 26.0611 101.983 26.2116 102.486C26.3651 102.986 26.5824 103.365 26.8636 103.624C27.1449 103.879 27.483 104.007 27.8778 104.007Z" fill="#2772F5"/>
<path d="M173.886 105.119C173.497 105.114 173.114 105.043 172.736 104.906C172.361 104.77 172.02 104.543 171.713 104.224C171.406 103.906 171.161 103.479 170.976 102.942C170.794 102.405 170.703 101.734 170.703 100.93C170.703 100.169 170.778 99.4929 170.929 98.902C171.082 98.3111 171.303 97.8125 171.589 97.4062C171.876 96.9972 172.223 96.6861 172.629 96.473C173.036 96.2599 173.491 96.1534 173.997 96.1534C174.517 96.1534 174.979 96.2557 175.382 96.4602C175.786 96.6648 176.112 96.9474 176.362 97.3082C176.615 97.669 176.776 98.0795 176.844 98.5398H175.544C175.456 98.1761 175.281 97.8793 175.02 97.6491C174.759 97.419 174.418 97.304 173.997 97.304C173.358 97.304 172.859 97.5824 172.501 98.1392C172.146 98.696 171.967 99.4702 171.964 100.462H172.028C172.179 100.214 172.364 100.004 172.582 99.831C172.804 99.6548 173.051 99.5199 173.324 99.4261C173.599 99.3295 173.889 99.2812 174.193 99.2812C174.699 99.2812 175.156 99.4048 175.565 99.652C175.977 99.8963 176.305 100.234 176.55 100.666C176.794 101.098 176.916 101.592 176.916 102.149C176.916 102.706 176.79 103.21 176.537 103.662C176.287 104.114 175.935 104.472 175.48 104.736C175.026 104.997 174.494 105.125 173.886 105.119ZM173.882 104.011C174.217 104.011 174.517 103.929 174.781 103.764C175.045 103.599 175.254 103.378 175.408 103.099C175.561 102.821 175.638 102.51 175.638 102.166C175.638 101.831 175.563 101.526 175.412 101.25C175.264 100.974 175.06 100.756 174.798 100.594C174.54 100.432 174.244 100.351 173.912 100.351C173.659 100.351 173.425 100.399 173.209 100.496C172.996 100.592 172.808 100.726 172.646 100.896C172.484 101.067 172.357 101.263 172.263 101.484C172.172 101.703 172.126 101.935 172.126 102.179C172.126 102.506 172.202 102.808 172.352 103.087C172.506 103.365 172.714 103.589 172.979 103.76C173.246 103.928 173.547 104.011 173.882 104.011ZM181.627 105.145C180.953 105.142 180.378 104.964 179.901 104.612C179.424 104.26 179.059 103.747 178.806 103.074C178.553 102.401 178.426 101.589 178.426 100.641C178.426 99.6946 178.553 98.8864 178.806 98.2159C179.061 97.5455 179.428 97.0341 179.905 96.6818C180.385 96.3295 180.959 96.1534 181.627 96.1534C182.294 96.1534 182.867 96.331 183.344 96.6861C183.821 97.0384 184.186 97.5497 184.439 98.2202C184.695 98.8878 184.823 99.6946 184.823 100.641C184.823 101.592 184.696 102.405 184.444 103.078C184.191 103.749 183.826 104.261 183.348 104.616C182.871 104.969 182.297 105.145 181.627 105.145ZM181.627 104.007C182.218 104.007 182.679 103.719 183.012 103.142C183.347 102.565 183.515 101.732 183.515 100.641C183.515 99.9162 183.438 99.304 183.284 98.804C183.134 98.3011 182.917 97.9205 182.632 97.6619C182.351 97.4006 182.016 97.2699 181.627 97.2699C181.039 97.2699 180.577 97.5597 180.242 98.1392C179.907 98.7187 179.738 99.5526 179.735 100.641C179.735 101.368 179.81 101.983 179.961 102.486C180.114 102.986 180.331 103.365 180.613 103.624C180.894 103.879 181.232 104.007 181.627 104.007ZM189.493 105.145C188.82 105.142 188.244 104.964 187.767 104.612C187.29 104.26 186.925 103.747 186.672 103.074C186.419 102.401 186.293 101.589 186.293 100.641C186.293 99.6946 186.419 98.8864 186.672 98.2159C186.927 97.5455 187.294 97.0341 187.771 96.6818C188.251 96.3295 188.825 96.1534 189.493 96.1534C190.16 96.1534 190.733 96.331 191.21 96.6861C191.687 97.0384 192.053 97.5497 192.305 98.2202C192.561 98.8878 192.689 99.6946 192.689 100.641C192.689 101.592 192.562 102.405 192.31 103.078C192.057 103.749 191.692 104.261 191.214 104.616C190.737 104.969 190.163 105.145 189.493 105.145ZM189.493 104.007C190.084 104.007 190.545 103.719 190.878 103.142C191.213 102.565 191.381 101.732 191.381 100.641C191.381 99.9162 191.304 99.304 191.151 98.804C191 98.3011 190.783 97.9205 190.499 97.6619C190.217 97.4006 189.882 97.2699 189.493 97.2699C188.905 97.2699 188.443 97.5597 188.108 98.1392C187.773 98.7187 187.604 99.5526 187.601 100.641C187.601 101.368 187.676 101.983 187.827 102.486C187.98 102.986 188.197 103.365 188.479 103.624C188.76 103.879 189.098 104.007 189.493 104.007ZM194.44 96.2727H196.038L198.816 103.057H198.919L201.697 96.2727H203.295V105H202.042V98.6847H201.961L199.387 104.987H198.348L195.774 98.6804H195.693V105H194.44V96.2727Z" fill="#85B4FF"/>
<rect x="24" y="114" width="181" height="8" rx="4" fill="#D6E6FF"/>
<rect x="24" y="114" width="114.531" height="8" rx="4" fill="#2772F5"/>
<path d="M238.044 112.744C237.813 114.919 236.581 116.957 234.541 118.134C231.154 120.09 226.821 118.929 224.865 115.541L224.657 115.18M223.955 111.256C224.187 109.081 225.419 107.043 227.458 105.865C230.846 103.909 235.178 105.07 237.134 108.458L237.343 108.819M223.911 117.055L224.521 114.778L226.798 115.388M235.202 108.611L237.479 109.221L238.089 106.945M231 108.25V112L233.083 113.25" stroke="#2772F5" stroke-width="1.6" stroke-linecap="round" stroke-linejoin="round"/>
<path d="M254.371 106.818V117H252.731L247.933 110.065H247.849V117H246.004V106.818H247.655L252.447 113.759H252.537V106.818H254.371ZM259.773 117.149C259.027 117.149 258.381 116.985 257.834 116.657C257.287 116.329 256.863 115.87 256.561 115.28C256.263 114.69 256.114 114 256.114 113.212C256.114 112.423 256.263 111.732 256.561 111.138C256.863 110.545 257.287 110.085 257.834 109.756C258.381 109.428 259.027 109.264 259.773 109.264C260.518 109.264 261.165 109.428 261.712 109.756C262.258 110.085 262.681 110.545 262.979 111.138C263.281 111.732 263.432 112.423 263.432 113.212C263.432 114 263.281 114.69 262.979 115.28C262.681 115.87 262.258 116.329 261.712 116.657C261.165 116.985 260.518 117.149 259.773 117.149ZM259.783 115.707C260.187 115.707 260.525 115.596 260.797 115.374C261.069 115.149 261.271 114.847 261.403 114.469C261.539 114.092 261.607 113.671 261.607 113.207C261.607 112.739 261.539 112.317 261.403 111.939C261.271 111.558 261.069 111.254 260.797 111.029C260.525 110.804 260.187 110.691 259.783 110.691C259.368 110.691 259.024 110.804 258.748 111.029C258.477 111.254 258.273 111.558 258.137 111.939C258.004 112.317 257.938 112.739 257.938 113.207C257.938 113.671 258.004 114.092 258.137 114.469C258.273 114.847 258.477 115.149 258.748 115.374C259.024 115.596 259.368 115.707 259.783 115.707ZM271.661 109.364L268.941 117H266.952L264.233 109.364H266.152L267.907 115.036H267.986L269.746 109.364H271.661ZM280.78 106.818V117H278.936V108.613H278.876L276.494 110.134V108.444L279.025 106.818H280.78ZM287.269 117.194C286.45 117.194 285.747 116.987 285.161 116.572C284.577 116.155 284.128 115.553 283.813 114.768C283.502 113.979 283.346 113.029 283.346 111.919C283.349 110.809 283.507 109.864 283.818 109.085C284.133 108.303 284.582 107.706 285.166 107.295C285.752 106.884 286.453 106.679 287.269 106.679C288.084 106.679 288.785 106.884 289.372 107.295C289.958 107.706 290.407 108.303 290.719 109.085C291.034 109.867 291.191 110.812 291.191 111.919C291.191 113.033 291.034 113.984 290.719 114.773C290.407 115.558 289.958 116.158 289.372 116.572C288.788 116.987 288.087 117.194 287.269 117.194ZM287.269 115.638C287.905 115.638 288.407 115.325 288.775 114.698C289.146 114.068 289.332 113.142 289.332 111.919C289.332 111.11 289.247 110.431 289.078 109.881C288.909 109.33 288.671 108.916 288.362 108.638C288.054 108.356 287.69 108.215 287.269 108.215C286.636 108.215 286.135 108.53 285.767 109.16C285.399 109.786 285.214 110.706 285.21 111.919C285.207 112.731 285.288 113.414 285.454 113.967C285.623 114.521 285.862 114.938 286.17 115.22C286.478 115.499 286.844 115.638 287.269 115.638Z" fill="#0B57D0"/>
</svg>
