<svg width="972" height="146" viewBox="0 0 972 146" fill="none" xmlns="http://www.w3.org/2000/svg">
<g clip-path="url(#clip0_308_2786)">
<rect x="0.5" y="0.5" width="311" height="145" rx="23.5" fill="white"/>
<rect x="0.5" y="0.5" width="311" height="145" rx="23.5" stroke="#EDEDF0"/>
<path d="M118.23 54.3068C119.128 54.3068 119.991 54.4574 120.821 54.7585C121.656 55.0597 122.401 55.5398 123.054 56.1989C123.713 56.858 124.233 57.733 124.614 58.8239C125 59.9091 125.196 61.2415 125.202 62.821C125.202 64.304 125.034 65.6278 124.699 66.7926C124.369 67.9517 123.895 68.9375 123.276 69.75C122.656 70.5625 121.909 71.1818 121.034 71.608C120.159 72.0284 119.182 72.2386 118.102 72.2386C116.938 72.2386 115.909 72.0142 115.017 71.5653C114.125 71.1108 113.406 70.4943 112.861 69.7159C112.321 68.9318 111.994 68.0511 111.881 67.0739H115.52C115.662 67.7102 115.96 68.2045 116.415 68.5568C116.869 68.9034 117.432 69.0767 118.102 69.0767C119.239 69.0767 120.102 68.5824 120.693 67.5938C121.284 66.5994 121.582 65.2386 121.588 63.5114H121.469C121.207 64.0227 120.855 64.4631 120.412 64.8324C119.969 65.196 119.46 65.4773 118.886 65.6761C118.318 65.875 117.713 65.9744 117.071 65.9744C116.043 65.9744 115.125 65.733 114.318 65.25C113.511 64.767 112.875 64.1023 112.409 63.2557C111.943 62.4091 111.71 61.4432 111.71 60.358C111.705 59.1875 111.974 58.1449 112.52 57.2301C113.065 56.3153 113.827 55.5994 114.804 55.0824C115.787 54.5597 116.929 54.3011 118.23 54.3068ZM118.256 57.2045C117.682 57.2045 117.17 57.3409 116.722 57.6136C116.278 57.8864 115.926 58.2528 115.665 58.7131C115.409 59.1733 115.284 59.6875 115.29 60.2557C115.29 60.8295 115.415 61.3466 115.665 61.8068C115.92 62.2614 116.267 62.625 116.705 62.8977C117.148 63.1648 117.653 63.2983 118.222 63.2983C118.648 63.2983 119.043 63.2187 119.406 63.0597C119.77 62.9006 120.085 62.6818 120.352 62.4034C120.625 62.1193 120.838 61.7926 120.991 61.4233C121.145 61.054 121.222 60.6619 121.222 60.2472C121.216 59.696 121.085 59.1903 120.83 58.7301C120.574 58.2699 120.222 57.9006 119.773 57.6222C119.324 57.3437 118.818 57.2045 118.256 57.2045ZM134.074 54.3068C134.972 54.3068 135.835 54.4574 136.665 54.7585C137.5 55.0597 138.244 55.5398 138.898 56.1989C139.557 56.858 140.077 57.733 140.457 58.8239C140.844 59.9091 141.04 61.2415 141.045 62.821C141.045 64.304 140.878 65.6278 140.543 66.7926C140.213 67.9517 139.739 68.9375 139.119 69.75C138.5 70.5625 137.753 71.1818 136.878 71.608C136.003 72.0284 135.026 72.2386 133.946 72.2386C132.781 72.2386 131.753 72.0142 130.861 71.5653C129.969 71.1108 129.25 70.4943 128.705 69.7159C128.165 68.9318 127.838 68.0511 127.724 67.0739H131.364C131.506 67.7102 131.804 68.2045 132.259 68.5568C132.713 68.9034 133.276 69.0767 133.946 69.0767C135.082 69.0767 135.946 68.5824 136.537 67.5938C137.128 66.5994 137.426 65.2386 137.432 63.5114H137.312C137.051 64.0227 136.699 64.4631 136.256 64.8324C135.813 65.196 135.304 65.4773 134.73 65.6761C134.162 65.875 133.557 65.9744 132.915 65.9744C131.886 65.9744 130.969 65.733 130.162 65.25C129.355 64.767 128.719 64.1023 128.253 63.2557C127.787 62.4091 127.554 61.4432 127.554 60.358C127.548 59.1875 127.818 58.1449 128.364 57.2301C128.909 56.3153 129.67 55.5994 130.648 55.0824C131.631 54.5597 132.773 54.3011 134.074 54.3068ZM134.099 57.2045C133.526 57.2045 133.014 57.3409 132.565 57.6136C132.122 57.8864 131.77 58.2528 131.509 58.7131C131.253 59.1733 131.128 59.6875 131.134 60.2557C131.134 60.8295 131.259 61.3466 131.509 61.8068C131.764 62.2614 132.111 62.625 132.548 62.8977C132.991 63.1648 133.497 63.2983 134.065 63.2983C134.491 63.2983 134.886 63.2187 135.25 63.0597C135.614 62.9006 135.929 62.6818 136.196 62.4034C136.469 62.1193 136.682 61.7926 136.835 61.4233C136.989 61.054 137.065 60.6619 137.065 60.2472C137.06 59.696 136.929 59.1903 136.673 58.7301C136.418 58.2699 136.065 57.9006 135.616 57.6222C135.168 57.3437 134.662 57.2045 134.099 57.2045ZM145.055 72.2216C144.493 72.2216 144.01 72.0227 143.607 71.625C143.209 71.2216 143.01 70.7386 143.01 70.1761C143.01 69.6193 143.209 69.142 143.607 68.7443C144.01 68.3466 144.493 68.1477 145.055 68.1477C145.601 68.1477 146.078 68.3466 146.487 68.7443C146.896 69.142 147.101 69.6193 147.101 70.1761C147.101 70.5511 147.004 70.8949 146.811 71.2074C146.624 71.5142 146.376 71.7614 146.07 71.9489C145.763 72.1307 145.425 72.2216 145.055 72.2216ZM156.035 54.3068C156.933 54.3068 157.796 54.4574 158.626 54.7585C159.461 55.0597 160.205 55.5398 160.859 56.1989C161.518 56.858 162.038 57.733 162.418 58.8239C162.805 59.9091 163.001 61.2415 163.006 62.821C163.006 64.304 162.839 65.6278 162.504 66.7926C162.174 67.9517 161.7 68.9375 161.08 69.75C160.461 70.5625 159.714 71.1818 158.839 71.608C157.964 72.0284 156.987 72.2386 155.907 72.2386C154.742 72.2386 153.714 72.0142 152.822 71.5653C151.93 71.1108 151.211 70.4943 150.665 69.7159C150.126 68.9318 149.799 68.0511 149.685 67.0739H153.325C153.467 67.7102 153.765 68.2045 154.219 68.5568C154.674 68.9034 155.237 69.0767 155.907 69.0767C157.043 69.0767 157.907 68.5824 158.498 67.5938C159.089 66.5994 159.387 65.2386 159.393 63.5114H159.273C159.012 64.0227 158.66 64.4631 158.217 64.8324C157.773 65.196 157.265 65.4773 156.691 65.6761C156.123 65.875 155.518 65.9744 154.876 65.9744C153.847 65.9744 152.93 65.733 152.123 65.25C151.316 64.767 150.68 64.1023 150.214 63.2557C149.748 62.4091 149.515 61.4432 149.515 60.358C149.509 59.1875 149.779 58.1449 150.325 57.2301C150.87 56.3153 151.631 55.5994 152.609 55.0824C153.592 54.5597 154.734 54.3011 156.035 54.3068ZM156.06 57.2045C155.487 57.2045 154.975 57.3409 154.526 57.6136C154.083 57.8864 153.731 58.2528 153.469 58.7131C153.214 59.1733 153.089 59.6875 153.094 60.2557C153.094 60.8295 153.219 61.3466 153.469 61.8068C153.725 62.2614 154.072 62.625 154.509 62.8977C154.952 63.1648 155.458 63.2983 156.026 63.2983C156.452 63.2983 156.847 63.2187 157.211 63.0597C157.575 62.9006 157.89 62.6818 158.157 62.4034C158.43 62.1193 158.643 61.7926 158.796 61.4233C158.95 61.054 159.026 60.6619 159.026 60.2472C159.021 59.696 158.89 59.1903 158.634 58.7301C158.379 58.2699 158.026 57.9006 157.577 57.6222C157.129 57.3437 156.623 57.2045 156.06 57.2045ZM175.117 68.7273V67.8068C175.117 67.108 175.265 66.4659 175.56 65.8807C175.862 65.2898 176.296 64.8182 176.864 64.4659C177.438 64.108 178.137 63.929 178.961 63.929C179.796 63.929 180.498 64.1051 181.066 64.4574C181.64 64.8097 182.072 65.2812 182.362 65.8722C182.657 66.4574 182.805 67.1023 182.805 67.8068V68.7273C182.805 69.4261 182.657 70.071 182.362 70.6619C182.066 71.2472 181.631 71.7159 181.058 72.0682C180.484 72.4261 179.785 72.6051 178.961 72.6051C178.126 72.6051 177.424 72.4261 176.856 72.0682C176.288 71.7159 175.856 71.2472 175.56 70.6619C175.265 70.071 175.117 69.4261 175.117 68.7273ZM177.597 67.8068V68.7273C177.597 69.1307 177.694 69.5114 177.887 69.8693C178.086 70.2273 178.444 70.4062 178.961 70.4062C179.478 70.4062 179.83 70.2301 180.018 69.8778C180.211 69.5256 180.308 69.142 180.308 68.7273V67.8068C180.308 67.392 180.217 67.0057 180.035 66.6477C179.853 66.2898 179.495 66.1108 178.961 66.1108C178.45 66.1108 178.094 66.2898 177.896 66.6477C177.697 67.0057 177.597 67.392 177.597 67.8068ZM166.16 58.7386V57.8182C166.16 57.1136 166.31 56.4687 166.612 55.8835C166.913 55.2926 167.347 54.821 167.915 54.4688C168.489 54.1165 169.183 53.9403 169.995 53.9403C170.836 53.9403 171.54 54.1165 172.109 54.4688C172.677 54.821 173.109 55.2926 173.404 55.8835C173.7 56.4687 173.847 57.1136 173.847 57.8182V58.7386C173.847 59.4432 173.697 60.0881 173.396 60.6733C173.1 61.2585 172.665 61.7273 172.092 62.0795C171.523 62.4261 170.825 62.5994 169.995 62.5994C169.165 62.5994 168.464 62.4233 167.89 62.071C167.322 61.7131 166.89 61.2443 166.594 60.6648C166.305 60.0795 166.16 59.4375 166.16 58.7386ZM168.657 57.8182V58.7386C168.657 59.1534 168.754 59.5369 168.947 59.8892C169.146 60.2415 169.495 60.4176 169.995 60.4176C170.518 60.4176 170.873 60.2415 171.06 59.8892C171.254 59.5369 171.35 59.1534 171.35 58.7386V57.8182C171.35 57.4034 171.259 57.017 171.077 56.6591C170.896 56.3011 170.535 56.1222 169.995 56.1222C169.489 56.1222 169.14 56.304 168.947 56.6676C168.754 57.0312 168.657 57.4148 168.657 57.8182ZM167.285 72L179.285 54.5455H181.518L169.518 72H167.285ZM191.404 69.3409V57.2727H194.455V69.3409H191.404ZM186.896 64.8324V61.7812H198.964V64.8324H186.896Z" fill="#1E1E1F"/>
<path d="M103.619 83.8182H105.483L108.724 91.733H108.844L112.085 83.8182H113.95V94H112.488V86.6321H112.393L109.391 93.9851H108.178L105.175 86.6271H105.08V94H103.619V83.8182ZM119.42 94.1541C118.704 94.1541 118.08 93.9901 117.546 93.6619C117.012 93.3338 116.598 92.8748 116.303 92.2848C116.008 91.6948 115.861 91.0054 115.861 90.2166C115.861 89.4245 116.008 88.7318 116.303 88.1385C116.598 87.5452 117.012 87.0845 117.546 86.7564C118.08 86.4283 118.704 86.2642 119.42 86.2642C120.136 86.2642 120.761 86.4283 121.295 86.7564C121.828 87.0845 122.243 87.5452 122.538 88.1385C122.833 88.7318 122.98 89.4245 122.98 90.2166C122.98 91.0054 122.833 91.6948 122.538 92.2848C122.243 92.8748 121.828 93.3338 121.295 93.6619C120.761 93.9901 120.136 94.1541 119.42 94.1541ZM119.425 92.9062C119.889 92.9062 120.274 92.7836 120.579 92.5384C120.884 92.2931 121.109 91.9666 121.255 91.5589C121.404 91.1513 121.479 90.7022 121.479 90.2116C121.479 89.7244 121.404 89.277 121.255 88.8693C121.109 88.4583 120.884 88.1286 120.579 87.88C120.274 87.6314 119.889 87.5071 119.425 87.5071C118.958 87.5071 118.57 87.6314 118.262 87.88C117.957 88.1286 117.73 88.4583 117.581 88.8693C117.435 89.277 117.362 89.7244 117.362 90.2116C117.362 90.7022 117.435 91.1513 117.581 91.5589C117.73 91.9666 117.957 92.2931 118.262 92.5384C118.57 92.7836 118.958 92.9062 119.425 92.9062ZM126.266 89.4659V94H124.779V86.3636H126.206V87.6065H126.301C126.476 87.2022 126.751 86.8774 127.126 86.6321C127.504 86.3868 127.979 86.2642 128.553 86.2642C129.073 86.2642 129.529 86.3736 129.92 86.5923C130.311 86.8078 130.614 87.1293 130.83 87.5568C131.045 87.9844 131.153 88.513 131.153 89.1428V94H129.666V89.3217C129.666 88.7682 129.522 88.3357 129.234 88.0241C128.945 87.7093 128.549 87.5518 128.046 87.5518C127.701 87.5518 127.394 87.6264 127.126 87.7756C126.861 87.9247 126.65 88.1435 126.494 88.4318C126.342 88.7169 126.266 89.0616 126.266 89.4659ZM136.851 86.3636V87.5568H132.68V86.3636H136.851ZM133.799 84.5341H135.285V91.7578C135.285 92.0462 135.328 92.2633 135.414 92.4091C135.5 92.5516 135.612 92.6494 135.747 92.7024C135.887 92.7521 136.037 92.777 136.2 92.777C136.319 92.777 136.424 92.7687 136.513 92.7521C136.603 92.7356 136.672 92.7223 136.722 92.7124L136.99 93.9403C136.904 93.9735 136.782 94.0066 136.622 94.0398C136.463 94.0762 136.264 94.0961 136.026 94.0994C135.635 94.1061 135.27 94.0365 134.932 93.8906C134.594 93.7448 134.321 93.5194 134.112 93.2145C133.903 92.9096 133.799 92.5268 133.799 92.0661V84.5341ZM140.286 89.4659V94H138.8V83.8182H140.266V87.6065H140.361C140.54 87.1955 140.813 86.8691 141.181 86.6271C141.549 86.3852 142.029 86.2642 142.623 86.2642C143.146 86.2642 143.604 86.3719 143.995 86.5874C144.389 86.8028 144.694 87.1243 144.91 87.5518C145.128 87.9761 145.238 88.5064 145.238 89.1428V94H143.751V89.3217C143.751 88.7616 143.607 88.3274 143.319 88.0192C143.03 87.7076 142.629 87.5518 142.116 87.5518C141.764 87.5518 141.449 87.6264 141.171 87.7756C140.896 87.9247 140.679 88.1435 140.52 88.4318C140.364 88.7169 140.286 89.0616 140.286 89.4659ZM148.848 83.8182V94H147.361V83.8182H148.848ZM151.927 96.8636C151.705 96.8636 151.503 96.8454 151.321 96.8089C151.139 96.7758 151.003 96.7393 150.913 96.6996L151.271 95.4815C151.543 95.5545 151.785 95.5859 151.997 95.576C152.209 95.5661 152.396 95.4865 152.559 95.3374C152.724 95.1882 152.87 94.9446 152.996 94.6065L153.18 94.0994L150.386 86.3636H151.977L153.911 92.2898H153.991L155.925 86.3636H157.52L154.373 95.0192C154.228 95.4169 154.042 95.7533 153.817 96.0284C153.591 96.3068 153.323 96.5156 153.011 96.6548C152.7 96.794 152.338 96.8636 151.927 96.8636ZM167.74 90.8331V86.3636H169.231V94H167.77V92.6776H167.69C167.514 93.0852 167.233 93.425 166.845 93.6967C166.46 93.9652 165.982 94.0994 165.408 94.0994C164.918 94.0994 164.483 93.9917 164.106 93.7763C163.731 93.5575 163.436 93.2344 163.221 92.8068C163.009 92.3793 162.902 91.8506 162.902 91.2209V86.3636H164.389V91.0419C164.389 91.5623 164.533 91.9766 164.822 92.2848C165.11 92.593 165.484 92.7472 165.945 92.7472C166.224 92.7472 166.5 92.6776 166.775 92.5384C167.054 92.3991 167.284 92.1887 167.466 91.907C167.652 91.6252 167.743 91.2673 167.74 90.8331ZM171.369 96.8636V86.3636H172.82V87.6016H172.945C173.031 87.4425 173.155 87.2585 173.318 87.0497C173.48 86.8409 173.705 86.6586 173.994 86.5028C174.282 86.3438 174.663 86.2642 175.137 86.2642C175.754 86.2642 176.304 86.42 176.788 86.7315C177.272 87.0431 177.651 87.4922 177.926 88.0788C178.205 88.6655 178.344 89.3714 178.344 90.1967C178.344 91.022 178.206 91.7296 177.931 92.3196C177.656 92.9062 177.278 93.3587 176.798 93.6768C176.317 93.9917 175.769 94.1491 175.152 94.1491C174.688 94.1491 174.309 94.0713 174.014 93.9155C173.722 93.7597 173.493 93.5774 173.327 93.3686C173.162 93.1598 173.034 92.9742 172.945 92.8118H172.855V96.8636H171.369ZM172.825 90.1818C172.825 90.7187 172.903 91.1894 173.059 91.5938C173.215 91.9981 173.44 92.3146 173.735 92.5433C174.03 92.7687 174.391 92.8814 174.819 92.8814C175.263 92.8814 175.634 92.7637 175.933 92.5284C176.231 92.2898 176.456 91.9666 176.609 91.5589C176.765 91.1513 176.842 90.6922 176.842 90.1818C176.842 89.678 176.766 89.2256 176.614 88.8246C176.465 88.4235 176.239 88.107 175.938 87.875C175.639 87.643 175.266 87.527 174.819 87.527C174.388 87.527 174.023 87.638 173.725 87.8601C173.43 88.0821 173.206 88.392 173.054 88.7898C172.902 89.1875 172.825 89.6515 172.825 90.1818ZM183.714 86.3636V87.5568H179.543V86.3636H183.714ZM180.661 84.5341H182.148V91.7578C182.148 92.0462 182.191 92.2633 182.277 92.4091C182.363 92.5516 182.474 92.6494 182.61 92.7024C182.749 92.7521 182.9 92.777 183.063 92.777C183.182 92.777 183.286 92.7687 183.376 92.7521C183.465 92.7356 183.535 92.7223 183.585 92.7124L183.853 93.9403C183.767 93.9735 183.644 94.0066 183.485 94.0398C183.326 94.0762 183.127 94.0961 182.889 94.0994C182.498 94.1061 182.133 94.0365 181.795 93.8906C181.457 93.7448 181.183 93.5194 180.975 93.2145C180.766 92.9096 180.661 92.5268 180.661 92.0661V84.5341ZM185.498 94V86.3636H186.985V94H185.498ZM186.249 85.1854C185.99 85.1854 185.768 85.0992 185.583 84.9268C185.401 84.7512 185.309 84.5424 185.309 84.3004C185.309 84.0552 185.401 83.8464 185.583 83.674C185.768 83.4983 185.99 83.4105 186.249 83.4105C186.508 83.4105 186.728 83.4983 186.91 83.674C187.096 83.8464 187.189 84.0552 187.189 84.3004C187.189 84.5424 187.096 84.7512 186.91 84.9268C186.728 85.0992 186.508 85.1854 186.249 85.1854ZM189.125 94V86.3636H190.551V87.6065H190.646C190.805 87.1856 191.065 86.8575 191.426 86.6222C191.788 86.3835 192.22 86.2642 192.724 86.2642C193.234 86.2642 193.662 86.3835 194.007 86.6222C194.355 86.8608 194.612 87.1889 194.777 87.6065H194.857C195.039 87.1989 195.329 86.8741 195.727 86.6321C196.125 86.3868 196.599 86.2642 197.149 86.2642C197.841 86.2642 198.407 86.4813 198.844 86.9155C199.285 87.3497 199.505 88.0043 199.505 88.8793V94H198.019V89.0185C198.019 88.5014 197.878 88.1269 197.596 87.8949C197.314 87.6629 196.978 87.5469 196.587 87.5469C196.103 87.5469 195.727 87.696 195.458 87.9943C195.19 88.2893 195.056 88.6688 195.056 89.1328V94H193.574V88.924C193.574 88.5097 193.445 88.1766 193.186 87.9247C192.928 87.6728 192.591 87.5469 192.177 87.5469C191.895 87.5469 191.635 87.6214 191.397 87.7706C191.161 87.9164 190.971 88.1203 190.825 88.3821C190.682 88.6439 190.611 88.9472 190.611 89.2919V94H189.125ZM204.929 94.1541C204.176 94.1541 203.529 93.9934 202.985 93.6719C202.445 93.3471 202.027 92.8913 201.732 92.3047C201.44 91.7147 201.295 91.0237 201.295 90.2315C201.295 89.4493 201.44 88.7599 201.732 88.1634C202.027 87.5668 202.438 87.1011 202.965 86.7663C203.495 86.4316 204.115 86.2642 204.824 86.2642C205.255 86.2642 205.673 86.3355 206.077 86.478C206.482 86.6205 206.845 86.8442 207.166 87.1491C207.488 87.4541 207.741 87.8501 207.927 88.3374C208.112 88.8213 208.205 89.4096 208.205 90.1023V90.6293H202.135V89.5156H206.748C206.748 89.1245 206.669 88.7782 206.51 88.4766C206.351 88.1716 206.127 87.9313 205.839 87.7557C205.554 87.58 205.219 87.4922 204.834 87.4922C204.417 87.4922 204.052 87.5949 203.741 87.8004C203.432 88.0026 203.194 88.2678 203.025 88.5959C202.859 88.9207 202.776 89.2737 202.776 89.6548V90.5249C202.776 91.0353 202.866 91.4695 203.045 91.8274C203.227 92.1854 203.48 92.4588 203.805 92.6477C204.13 92.8333 204.51 92.9261 204.944 92.9261C205.225 92.9261 205.482 92.8864 205.714 92.8068C205.946 92.724 206.147 92.6013 206.316 92.4389C206.485 92.2765 206.614 92.076 206.704 91.8374L208.111 92.0909C207.998 92.5052 207.796 92.8681 207.504 93.1797C207.216 93.4879 206.853 93.7282 206.415 93.9006C205.981 94.0696 205.486 94.1541 204.929 94.1541Z" fill="#AEAEB2"/>
<rect x="660.5" y="0.5" width="311" height="145" rx="23.5" fill="white"/>
<rect x="660.5" y="0.5" width="311" height="145" rx="23.5" stroke="#EDEDF0"/>
<path d="M780.616 54.5455V72H777.429L769.835 61.0142H769.707V72H766.017V54.5455H769.256L776.79 65.5227H776.943V54.5455H780.616ZM789.512 72.2557C788.188 72.2557 787.043 71.9744 786.077 71.4119C785.117 70.8437 784.376 70.054 783.853 69.0426C783.33 68.0256 783.069 66.8466 783.069 65.5057C783.069 64.1534 783.33 62.9716 783.853 61.9602C784.376 60.9432 785.117 60.1534 786.077 59.5909C787.043 59.0227 788.188 58.7386 789.512 58.7386C790.836 58.7386 791.978 59.0227 792.938 59.5909C793.904 60.1534 794.648 60.9432 795.171 61.9602C795.694 62.9716 795.955 64.1534 795.955 65.5057C795.955 66.8466 795.694 68.0256 795.171 69.0426C794.648 70.054 793.904 70.8437 792.938 71.4119C791.978 71.9744 790.836 72.2557 789.512 72.2557ZM789.529 69.4432C790.131 69.4432 790.634 69.2727 791.038 68.9318C791.441 68.5852 791.745 68.1136 791.95 67.517C792.16 66.9205 792.265 66.2415 792.265 65.4801C792.265 64.7188 792.16 64.0398 791.95 63.4432C791.745 62.8466 791.441 62.375 791.038 62.0284C790.634 61.6818 790.131 61.5085 789.529 61.5085C788.921 61.5085 788.41 61.6818 787.995 62.0284C787.586 62.375 787.276 62.8466 787.066 63.4432C786.862 64.0398 786.759 64.7188 786.759 65.4801C786.759 66.2415 786.862 66.9205 787.066 67.517C787.276 68.1136 787.586 68.5852 787.995 68.9318C788.41 69.2727 788.921 69.4432 789.529 69.4432ZM807.501 54.5455V72H803.871V54.5455H807.501ZM810.41 72V58.9091H814.04V72H810.41ZM812.234 57.2216C811.694 57.2216 811.231 57.0426 810.844 56.6847C810.464 56.321 810.273 55.8864 810.273 55.3807C810.273 54.8807 810.464 54.4517 810.844 54.0938C811.231 53.7301 811.694 53.5483 812.234 53.5483C812.773 53.5483 813.234 53.7301 813.614 54.0938C814.001 54.4517 814.194 54.8807 814.194 55.3807C814.194 55.8864 814.001 56.321 813.614 56.6847C813.234 57.0426 812.773 57.2216 812.234 57.2216ZM816.949 72V58.9091H820.409V61.2188H820.562C820.835 60.4517 821.29 59.8466 821.926 59.4034C822.562 58.9602 823.324 58.7386 824.21 58.7386C825.108 58.7386 825.872 58.9631 826.503 59.4119C827.134 59.8551 827.554 60.4574 827.764 61.2188H827.901C828.168 60.4688 828.651 59.8693 829.349 59.4205C830.054 58.9659 830.886 58.7386 831.847 58.7386C833.068 58.7386 834.06 59.1278 834.821 59.9062C835.588 60.679 835.972 61.7756 835.972 63.196V72H832.349V63.9119C832.349 63.1847 832.156 62.6392 831.77 62.2756C831.384 61.9119 830.901 61.7301 830.321 61.7301C829.662 61.7301 829.148 61.9403 828.778 62.3608C828.409 62.7756 828.224 63.3239 828.224 64.0057V72H824.705V63.8352C824.705 63.1932 824.52 62.6818 824.151 62.3011C823.787 61.9205 823.307 61.7301 822.71 61.7301C822.307 61.7301 821.943 61.8324 821.619 62.0369C821.301 62.2358 821.048 62.517 820.861 62.8807C820.673 63.2386 820.58 63.6591 820.58 64.142V72H816.949ZM838.839 72V58.9091H842.47V72H838.839ZM840.663 57.2216C840.124 57.2216 839.661 57.0426 839.274 56.6847C838.893 56.321 838.703 55.8864 838.703 55.3807C838.703 54.8807 838.893 54.4517 839.274 54.0938C839.661 53.7301 840.124 53.5483 840.663 53.5483C841.203 53.5483 841.663 53.7301 842.044 54.0938C842.43 54.4517 842.624 54.8807 842.624 55.3807C842.624 55.8864 842.43 56.321 842.044 56.6847C841.663 57.0426 841.203 57.2216 840.663 57.2216ZM852.342 58.9091V61.6364H844.458V58.9091H852.342ZM846.248 55.7727H849.879V67.9773C849.879 68.3125 849.93 68.5739 850.032 68.7614C850.134 68.9432 850.276 69.071 850.458 69.1449C850.646 69.2187 850.862 69.2557 851.106 69.2557C851.276 69.2557 851.447 69.2415 851.617 69.2131C851.788 69.179 851.918 69.1534 852.009 69.1364L852.58 71.8381C852.398 71.8949 852.143 71.9602 851.813 72.0341C851.484 72.1136 851.083 72.1619 850.612 72.179C849.737 72.2131 848.969 72.0966 848.31 71.8295C847.657 71.5625 847.148 71.1477 846.785 70.5852C846.421 70.0227 846.242 69.3125 846.248 68.4545V55.7727ZM865.435 62.642L862.111 62.8466C862.054 62.5625 861.932 62.3068 861.744 62.0795C861.557 61.8466 861.31 61.6619 861.003 61.5256C860.702 61.3835 860.341 61.3125 859.92 61.3125C859.358 61.3125 858.884 61.4318 858.497 61.6705C858.111 61.9034 857.918 62.2159 857.918 62.608C857.918 62.9205 858.043 63.1847 858.293 63.4006C858.543 63.6165 858.972 63.7898 859.58 63.9205L861.949 64.3977C863.222 64.6591 864.17 65.0795 864.795 65.6591C865.42 66.2386 865.733 67 865.733 67.9432C865.733 68.8011 865.48 69.554 864.974 70.2017C864.474 70.8494 863.787 71.3551 862.912 71.7188C862.043 72.0767 861.04 72.2557 859.903 72.2557C858.17 72.2557 856.79 71.8949 855.761 71.1733C854.739 70.446 854.139 69.4574 853.963 68.2074L857.534 68.0199C857.642 68.5483 857.903 68.9517 858.318 69.2301C858.733 69.5028 859.264 69.6392 859.912 69.6392C860.548 69.6392 861.06 69.517 861.446 69.2727C861.838 69.0227 862.037 68.7017 862.043 68.3097C862.037 67.9801 861.898 67.7102 861.625 67.5C861.352 67.2841 860.932 67.1193 860.364 67.0057L858.097 66.554C856.818 66.2983 855.866 65.8551 855.241 65.2244C854.622 64.5937 854.312 63.7898 854.312 62.8125C854.312 61.9716 854.54 61.2472 854.994 60.6392C855.455 60.0312 856.099 59.5625 856.929 59.233C857.764 58.9034 858.741 58.7386 859.861 58.7386C861.514 58.7386 862.815 59.0881 863.764 59.7869C864.719 60.4858 865.276 61.4375 865.435 62.642Z" fill="#1E1E1F"/>
<path d="M752.837 83.8182V94H751.425L746.249 86.5327H746.155V94H744.619V83.8182H746.04L751.221 91.2955H751.315V83.8182H752.837ZM758.315 94.1541C757.599 94.1541 756.974 93.9901 756.441 93.6619C755.907 93.3338 755.493 92.8748 755.198 92.2848C754.903 91.6948 754.755 91.0054 754.755 90.2166C754.755 89.4245 754.903 88.7318 755.198 88.1385C755.493 87.5452 755.907 87.0845 756.441 86.7564C756.974 86.4283 757.599 86.2642 758.315 86.2642C759.031 86.2642 759.656 86.4283 760.189 86.7564C760.723 87.0845 761.137 87.5452 761.432 88.1385C761.727 88.7318 761.875 89.4245 761.875 90.2166C761.875 91.0054 761.727 91.6948 761.432 92.2848C761.137 92.8748 760.723 93.3338 760.189 93.6619C759.656 93.9901 759.031 94.1541 758.315 94.1541ZM758.32 92.9062C758.784 92.9062 759.168 92.7836 759.473 92.5384C759.778 92.2931 760.004 91.9666 760.149 91.5589C760.299 91.1513 760.373 90.7022 760.373 90.2116C760.373 89.7244 760.299 89.277 760.149 88.8693C760.004 88.4583 759.778 88.1286 759.473 87.88C759.168 87.6314 758.784 87.5071 758.32 87.5071C757.853 87.5071 757.465 87.6314 757.157 87.88C756.852 88.1286 756.625 88.4583 756.475 88.8693C756.33 89.277 756.257 89.7244 756.257 90.2116C756.257 90.7022 756.33 91.1513 756.475 91.5589C756.625 91.9666 756.852 92.2931 757.157 92.5384C757.465 92.7836 757.853 92.9062 758.32 92.9062ZM767.638 94V83.8182H771.267C772.056 83.8182 772.711 83.9541 773.231 84.2259C773.755 84.4976 774.146 84.8738 774.405 85.3544C774.663 85.8317 774.792 86.3835 774.792 87.0099C774.792 87.633 774.661 88.1816 774.4 88.6555C774.141 89.1262 773.75 89.4924 773.226 89.7543C772.706 90.0161 772.051 90.147 771.263 90.147H768.513V88.8246H771.123C771.62 88.8246 772.025 88.7533 772.336 88.6108C772.651 88.4683 772.882 88.2611 773.027 87.9893C773.173 87.7176 773.246 87.3911 773.246 87.0099C773.246 86.6255 773.172 86.2924 773.022 86.0107C772.877 85.7289 772.646 85.5135 772.331 85.3643C772.02 85.2119 771.611 85.1357 771.103 85.1357H769.174V94H767.638ZM772.664 89.4062L775.18 94H773.43L770.964 89.4062H772.664ZM776.802 94V83.8182H780.431C781.223 83.8182 781.879 83.9624 782.4 84.2507C782.92 84.5391 783.309 84.9335 783.568 85.4339C783.827 85.9311 783.956 86.4912 783.956 87.1143C783.956 87.7408 783.825 88.3042 783.563 88.8047C783.304 89.3018 782.913 89.6963 782.39 89.9879C781.869 90.2763 781.215 90.4205 780.426 90.4205H777.93V89.1179H780.287C780.787 89.1179 781.193 89.0317 781.505 88.8594C781.816 88.6837 782.045 88.4451 782.191 88.1435C782.337 87.8419 782.41 87.4988 782.41 87.1143C782.41 86.7299 782.337 86.3885 782.191 86.0902C782.045 85.7919 781.815 85.5582 781.5 85.3892C781.188 85.2202 780.777 85.1357 780.267 85.1357H778.338V94H776.802ZM791.45 86.4929C791.397 86.0223 791.178 85.6577 790.794 85.3991C790.409 85.1373 789.925 85.0064 789.342 85.0064C788.924 85.0064 788.563 85.0727 788.258 85.2053C787.953 85.3345 787.716 85.5135 787.547 85.7422C787.382 85.9676 787.299 86.2244 787.299 86.5128C787.299 86.7547 787.355 86.9635 787.468 87.1392C787.584 87.3149 787.735 87.4624 787.92 87.5817C788.109 87.6977 788.311 87.7955 788.527 87.875C788.742 87.9512 788.949 88.0142 789.148 88.0639L790.142 88.3224C790.467 88.402 790.8 88.5097 791.142 88.6456C791.483 88.7815 791.8 88.9605 792.091 89.1825C792.383 89.4046 792.618 89.6797 792.797 90.0078C792.98 90.3359 793.071 90.7287 793.071 91.1861C793.071 91.7628 792.922 92.2749 792.623 92.7223C792.328 93.1697 791.899 93.5227 791.336 93.7812C790.776 94.0398 790.098 94.169 789.302 94.169C788.54 94.169 787.88 94.0481 787.324 93.8061C786.767 93.5642 786.331 93.2211 786.016 92.777C785.701 92.3295 785.527 91.7992 785.494 91.1861H787.035C787.065 91.554 787.184 91.8606 787.393 92.1058C787.605 92.3478 787.875 92.5284 788.204 92.6477C788.535 92.7637 788.898 92.8217 789.292 92.8217C789.727 92.8217 790.113 92.7538 790.451 92.6179C790.792 92.4787 791.061 92.2865 791.256 92.0412C791.452 91.7926 791.549 91.5026 791.549 91.1712C791.549 90.8696 791.463 90.6226 791.291 90.4304C791.122 90.2382 790.892 90.0791 790.6 89.9531C790.312 89.8272 789.985 89.7161 789.62 89.62L788.417 89.2919C787.602 89.0698 786.956 88.7434 786.478 88.3125C786.004 87.8816 785.767 87.3116 785.767 86.6023C785.767 86.0156 785.927 85.5036 786.245 85.0661C786.563 84.6286 786.994 84.2888 787.537 84.0469C788.081 83.8016 788.694 83.679 789.377 83.679C790.066 83.679 790.674 83.8 791.201 84.0419C791.732 84.2839 792.149 84.617 792.454 85.0412C792.759 85.4621 792.918 85.946 792.932 86.4929H791.45ZM800.995 94.169C800.511 94.169 800.073 94.0795 799.682 93.9006C799.291 93.7183 798.981 93.4548 798.752 93.1101C798.527 92.7654 798.414 92.3428 798.414 91.8423C798.414 91.4115 798.497 91.0568 798.663 90.7784C798.829 90.5 799.052 90.2796 799.334 90.1172C799.616 89.9548 799.931 89.8321 800.279 89.7493C800.627 89.6664 800.981 89.6035 801.343 89.5604C801.8 89.5073 802.171 89.4643 802.456 89.4311C802.741 89.3946 802.948 89.3366 803.078 89.2571C803.207 89.1776 803.272 89.0483 803.272 88.8693V88.8345C803.272 88.4003 803.149 88.0639 802.904 87.8253C802.662 87.5866 802.3 87.4673 801.82 87.4673C801.319 87.4673 800.925 87.5784 800.637 87.8004C800.352 88.0192 800.154 88.2628 800.045 88.5312L798.648 88.2131C798.814 87.7491 799.056 87.3745 799.374 87.0895C799.695 86.8011 800.065 86.5923 800.482 86.4631C800.9 86.3305 801.339 86.2642 801.8 86.2642C802.105 86.2642 802.428 86.3007 802.769 86.3736C803.114 86.4432 803.436 86.5724 803.734 86.7614C804.036 86.9503 804.282 87.2204 804.475 87.5717C804.667 87.9197 804.763 88.3722 804.763 88.929V94H803.311V92.956H803.252C803.156 93.1482 803.011 93.3371 802.819 93.5227C802.627 93.7083 802.38 93.8625 802.078 93.9851C801.777 94.1077 801.415 94.169 800.995 94.169ZM801.318 92.9759C801.729 92.9759 802.08 92.8946 802.372 92.7322C802.667 92.5698 802.89 92.3577 803.043 92.0959C803.199 91.8307 803.277 91.5473 803.277 91.2457V90.2614C803.223 90.3144 803.121 90.3641 802.968 90.4105C802.819 90.4536 802.648 90.4917 802.456 90.5249C802.264 90.5547 802.077 90.5829 801.894 90.6094C801.712 90.6326 801.56 90.6525 801.437 90.669C801.149 90.7055 800.885 90.7668 800.647 90.853C800.411 90.9392 800.222 91.0634 800.08 91.2259C799.941 91.3849 799.871 91.5971 799.871 91.8622C799.871 92.2301 800.007 92.5085 800.279 92.6974C800.55 92.883 800.897 92.9759 801.318 92.9759ZM808.369 89.4659V94H806.883V86.3636H808.31V87.6065H808.404C808.58 87.2022 808.855 86.8774 809.23 86.6321C809.607 86.3868 810.083 86.2642 810.656 86.2642C811.177 86.2642 811.632 86.3736 812.024 86.5923C812.415 86.8078 812.718 87.1293 812.933 87.5568C813.149 87.9844 813.257 88.513 813.257 89.1428V94H811.77V89.3217C811.77 88.7682 811.626 88.3357 811.338 88.0241C811.049 87.7093 810.653 87.5518 810.149 87.5518C809.805 87.5518 809.498 87.6264 809.23 87.7756C808.964 87.9247 808.754 88.1435 808.598 88.4318C808.446 88.7169 808.369 89.0616 808.369 89.4659ZM818.249 94.1491C817.632 94.1491 817.082 93.9917 816.598 93.6768C816.118 93.3587 815.74 92.9062 815.465 92.3196C815.193 91.7296 815.057 91.022 815.057 90.1967C815.057 89.3714 815.195 88.6655 815.47 88.0788C815.748 87.4922 816.129 87.0431 816.613 86.7315C817.097 86.42 817.646 86.2642 818.259 86.2642C818.733 86.2642 819.114 86.3438 819.402 86.5028C819.694 86.6586 819.919 86.8409 820.078 87.0497C820.241 87.2585 820.367 87.4425 820.456 87.6016H820.546V83.8182H822.032V94H820.58V92.8118H820.456C820.367 92.9742 820.237 93.1598 820.068 93.3686C819.903 93.5774 819.674 93.7597 819.382 93.9155C819.091 94.0713 818.713 94.1491 818.249 94.1491ZM818.577 92.8814C819.004 92.8814 819.366 92.7687 819.661 92.5433C819.959 92.3146 820.184 91.9981 820.337 91.5938C820.493 91.1894 820.571 90.7187 820.571 90.1818C820.571 89.6515 820.494 89.1875 820.342 88.7898C820.189 88.392 819.966 88.0821 819.671 87.8601C819.376 87.638 819.011 87.527 818.577 87.527C818.129 87.527 817.757 87.643 817.458 87.875C817.16 88.107 816.935 88.4235 816.782 88.8246C816.633 89.2256 816.558 89.678 816.558 90.1818C816.558 90.6922 816.635 91.1513 816.787 91.5589C816.94 91.9666 817.165 92.2898 817.463 92.5284C817.765 92.7637 818.136 92.8814 818.577 92.8814ZM836.715 87.1293H835.164C835.104 86.7978 834.993 86.5062 834.831 86.2543C834.668 86.0024 834.469 85.7886 834.234 85.6129C833.999 85.4373 833.735 85.3047 833.444 85.2152C833.155 85.1257 832.849 85.081 832.524 85.081C831.937 85.081 831.412 85.2285 830.948 85.5234C830.487 85.8184 830.123 86.2509 829.854 86.821C829.589 87.3911 829.456 88.0871 829.456 88.9091C829.456 89.7377 829.589 90.437 829.854 91.0071C830.123 91.5772 830.489 92.008 830.953 92.2997C831.417 92.5914 831.939 92.7372 832.519 92.7372C832.84 92.7372 833.145 92.6941 833.434 92.608C833.725 92.5185 833.989 92.3875 834.224 92.2152C834.459 92.0429 834.658 91.8324 834.821 91.5838C834.986 91.3319 835.101 91.0436 835.164 90.7188L836.715 90.7237C836.632 91.2242 836.471 91.6849 836.233 92.1058C835.997 92.5234 835.694 92.8847 835.323 93.1896C834.955 93.4912 834.534 93.7249 834.06 93.8906C833.586 94.0563 833.069 94.1392 832.509 94.1392C831.627 94.1392 830.842 93.9304 830.152 93.5128C829.463 93.0919 828.919 92.4903 828.522 91.7081C828.127 90.9259 827.93 89.9929 827.93 88.9091C827.93 87.822 828.129 86.889 828.527 86.1101C828.924 85.3279 829.468 84.728 830.157 84.3104C830.847 83.8894 831.631 83.679 832.509 83.679C833.049 83.679 833.553 83.7569 834.02 83.9126C834.491 84.0651 834.914 84.2905 835.288 84.5888C835.663 84.8838 835.972 85.245 836.218 85.6726C836.463 86.0968 836.629 86.5824 836.715 87.1293ZM845.241 83.8182H846.782V90.5149C846.782 91.2275 846.615 91.8589 846.28 92.4091C845.945 92.956 845.474 93.3868 844.868 93.7017C844.261 94.0133 843.55 94.169 842.735 94.169C841.923 94.169 841.214 94.0133 840.607 93.7017C840.001 93.3868 839.53 92.956 839.195 92.4091C838.861 91.8589 838.693 91.2275 838.693 90.5149V83.8182H840.229V90.3906C840.229 90.8513 840.33 91.2607 840.533 91.6186C840.738 91.9766 841.028 92.2583 841.403 92.4638C841.777 92.666 842.221 92.767 842.735 92.767C843.252 92.767 843.698 92.666 844.072 92.4638C844.45 92.2583 844.739 91.9766 844.937 91.6186C845.14 91.2607 845.241 90.8513 845.241 90.3906V83.8182ZM854.368 83.8182V94H852.881V83.8182H854.368ZM856.507 94V86.3636H857.994V94H856.507ZM857.258 85.1854C857 85.1854 856.778 85.0992 856.592 84.9268C856.41 84.7512 856.319 84.5424 856.319 84.3004C856.319 84.0552 856.41 83.8464 856.592 83.674C856.778 83.4983 857 83.4105 857.258 83.4105C857.517 83.4105 857.737 83.4983 857.919 83.674C858.105 83.8464 858.198 84.0552 858.198 84.3004C858.198 84.5424 858.105 84.7512 857.919 84.9268C857.737 85.0992 857.517 85.1854 857.258 85.1854ZM860.134 94V86.3636H861.561V87.6065H861.655C861.814 87.1856 862.074 86.8575 862.436 86.6222C862.797 86.3835 863.229 86.2642 863.733 86.2642C864.244 86.2642 864.671 86.3835 865.016 86.6222C865.364 86.8608 865.621 87.1889 865.787 87.6065H865.866C866.048 87.1989 866.338 86.8741 866.736 86.6321C867.134 86.3868 867.608 86.2642 868.158 86.2642C868.851 86.2642 869.416 86.4813 869.853 86.9155C870.294 87.3497 870.515 88.0043 870.515 88.8793V94H869.028V89.0185C869.028 88.5014 868.887 88.1269 868.605 87.8949C868.324 87.6629 867.987 87.5469 867.596 87.5469C867.112 87.5469 866.736 87.696 866.468 87.9943C866.199 88.2893 866.065 88.6688 866.065 89.1328V94H864.583V88.924C864.583 88.5097 864.454 88.1766 864.196 87.9247C863.937 87.6728 863.601 87.5469 863.186 87.5469C862.905 87.5469 862.644 87.6214 862.406 87.7706C862.171 87.9164 861.98 88.1203 861.834 88.3821C861.692 88.6439 861.62 88.9472 861.62 89.2919V94H860.134ZM872.647 94V86.3636H874.133V94H872.647ZM873.398 85.1854C873.139 85.1854 872.917 85.0992 872.731 84.9268C872.549 84.7512 872.458 84.5424 872.458 84.3004C872.458 84.0552 872.549 83.8464 872.731 83.674C872.917 83.4983 873.139 83.4105 873.398 83.4105C873.656 83.4105 873.877 83.4983 874.059 83.674C874.244 83.8464 874.337 84.0552 874.337 84.3004C874.337 84.5424 874.244 84.7512 874.059 84.9268C873.877 85.0992 873.656 85.1854 873.398 85.1854ZM879.838 86.3636V87.5568H875.667V86.3636H879.838ZM876.785 84.5341H878.272V91.7578C878.272 92.0462 878.315 92.2633 878.401 92.4091C878.487 92.5516 878.598 92.6494 878.734 92.7024C878.873 92.7521 879.024 92.777 879.187 92.777C879.306 92.777 879.41 92.7687 879.5 92.7521C879.589 92.7356 879.659 92.7223 879.709 92.7124L879.977 93.9403C879.891 93.9735 879.768 94.0066 879.609 94.0398C879.45 94.0762 879.251 94.0961 879.013 94.0994C878.621 94.1061 878.257 94.0365 877.919 93.8906C877.581 93.7448 877.307 93.5194 877.098 93.2145C876.89 92.9096 876.785 92.5268 876.785 92.0661V84.5341ZM887.221 88.228L885.874 88.4666C885.818 88.2943 885.728 88.1302 885.606 87.9744C885.486 87.8187 885.324 87.6911 885.118 87.5916C884.913 87.4922 884.656 87.4425 884.348 87.4425C883.927 87.4425 883.576 87.5369 883.294 87.7259C883.012 87.9115 882.871 88.1518 882.871 88.4467C882.871 88.7019 882.966 88.9074 883.155 89.0632C883.344 89.219 883.649 89.3466 884.069 89.446L885.283 89.7244C885.985 89.8868 886.509 90.1371 886.854 90.4751C887.198 90.8132 887.371 91.2524 887.371 91.7926C887.371 92.25 887.238 92.6577 886.973 93.0156C886.711 93.3703 886.345 93.6487 885.874 93.8509C885.407 94.053 884.865 94.1541 884.248 94.1541C883.393 94.1541 882.696 93.9718 882.155 93.6072C881.615 93.2393 881.284 92.7173 881.161 92.0412L882.598 91.8224C882.687 92.197 882.871 92.4804 883.15 92.6726C883.428 92.8615 883.791 92.956 884.238 92.956C884.726 92.956 885.115 92.8549 885.407 92.6527C885.698 92.4472 885.844 92.197 885.844 91.902C885.844 91.6634 885.755 91.4628 885.576 91.3004C885.4 91.138 885.13 91.0154 884.765 90.9325L883.473 90.6491C882.76 90.4867 882.233 90.2282 881.892 89.8736C881.554 89.5189 881.385 89.0698 881.385 88.5263C881.385 88.0755 881.511 87.6811 881.763 87.343C882.015 87.005 882.363 86.7415 882.807 86.5526C883.251 86.3603 883.76 86.2642 884.333 86.2642C885.158 86.2642 885.808 86.4432 886.282 86.8011C886.756 87.1558 887.069 87.6314 887.221 88.228Z" fill="#AEAEB2"/>
<rect x="328.5" y="0.5" width="315" height="145" rx="23.5" fill="white"/>
<rect x="328.5" y="0.5" width="315" height="145" rx="23.5" stroke="#EDEDF0"/>
<path d="M445.517 72V54.5455H452.403C453.727 54.5455 454.855 54.7983 455.787 55.304C456.719 55.804 457.429 56.5 457.918 57.392C458.412 58.2784 458.659 59.3011 458.659 60.4602C458.659 61.6193 458.409 62.642 457.909 63.5284C457.409 64.4148 456.685 65.1051 455.736 65.5994C454.793 66.0937 453.651 66.3409 452.31 66.3409H447.92V63.3835H451.713C452.423 63.3835 453.009 63.2614 453.469 63.017C453.935 62.767 454.281 62.4233 454.509 61.9858C454.741 61.5426 454.858 61.0341 454.858 60.4602C454.858 59.8807 454.741 59.375 454.509 58.9432C454.281 58.5057 453.935 58.1676 453.469 57.929C453.003 57.6847 452.412 57.5625 451.696 57.5625H449.207V72H445.517ZM460.988 72V58.9091H464.508V61.1932H464.644C464.883 60.3807 465.283 59.767 465.846 59.3523C466.408 58.9318 467.056 58.7216 467.789 58.7216C467.971 58.7216 468.167 58.733 468.377 58.7557C468.587 58.7784 468.772 58.8097 468.931 58.8494V62.071C468.761 62.0199 468.525 61.9744 468.224 61.9347C467.923 61.8949 467.647 61.875 467.397 61.875C466.863 61.875 466.386 61.9915 465.965 62.2244C465.55 62.4517 465.221 62.7699 464.977 63.179C464.738 63.5881 464.619 64.0597 464.619 64.5938V72H460.988ZM470.808 72V58.9091H474.439V72H470.808ZM472.632 57.2216C472.092 57.2216 471.629 57.0426 471.243 56.6847C470.862 56.321 470.672 55.8864 470.672 55.3807C470.672 54.8807 470.862 54.4517 471.243 54.0938C471.629 53.7301 472.092 53.5483 472.632 53.5483C473.172 53.5483 473.632 53.7301 474.013 54.0938C474.399 54.4517 474.592 54.8807 474.592 55.3807C474.592 55.8864 474.399 56.321 474.013 56.6847C473.632 57.0426 473.172 57.2216 472.632 57.2216ZM489.552 58.9091L484.975 72H480.884L476.308 58.9091H480.143L482.862 68.2756H482.998L485.708 58.9091H489.552ZM494.791 72.2472C493.956 72.2472 493.212 72.1023 492.558 71.8125C491.905 71.517 491.388 71.0824 491.007 70.5085C490.632 69.929 490.445 69.2074 490.445 68.3438C490.445 67.6165 490.578 67.0057 490.845 66.5114C491.112 66.017 491.476 65.6193 491.936 65.3182C492.396 65.017 492.919 64.7898 493.504 64.6364C494.095 64.483 494.714 64.375 495.362 64.3125C496.124 64.233 496.737 64.1591 497.203 64.0909C497.669 64.017 498.007 63.9091 498.217 63.767C498.428 63.625 498.533 63.4148 498.533 63.1364V63.0852C498.533 62.5455 498.362 62.1278 498.021 61.8324C497.686 61.5369 497.209 61.3892 496.589 61.3892C495.936 61.3892 495.416 61.5341 495.03 61.8239C494.643 62.108 494.388 62.4659 494.263 62.8977L490.905 62.625C491.075 61.8295 491.411 61.142 491.911 60.5625C492.411 59.9773 493.055 59.5284 493.845 59.2159C494.641 58.8977 495.561 58.7386 496.607 58.7386C497.334 58.7386 498.03 58.8239 498.695 58.9943C499.365 59.1648 499.959 59.429 500.476 59.7869C500.999 60.1449 501.411 60.6051 501.712 61.1676C502.013 61.7244 502.163 62.392 502.163 63.1705V72H498.72V70.1847H498.618C498.408 70.5938 498.126 70.9545 497.774 71.267C497.422 71.5739 496.999 71.8153 496.504 71.9915C496.01 72.1619 495.439 72.2472 494.791 72.2472ZM495.831 69.7415C496.365 69.7415 496.837 69.6364 497.246 69.4261C497.655 69.2102 497.976 68.9205 498.209 68.5568C498.442 68.1932 498.558 67.7812 498.558 67.321V65.9318C498.445 66.0057 498.288 66.0739 498.089 66.1364C497.896 66.1932 497.678 66.2472 497.433 66.2983C497.189 66.3437 496.945 66.3864 496.7 66.4261C496.456 66.4602 496.234 66.4915 496.036 66.5199C495.609 66.5824 495.237 66.6818 494.919 66.8182C494.601 66.9545 494.354 67.1392 494.178 67.3722C494.001 67.5994 493.913 67.8835 493.913 68.2244C493.913 68.7188 494.092 69.0966 494.45 69.358C494.814 69.6136 495.274 69.7415 495.831 69.7415ZM511.943 58.9091V61.6364H504.06V58.9091H511.943ZM505.849 55.7727H509.48V67.9773C509.48 68.3125 509.531 68.5739 509.634 68.7614C509.736 68.9432 509.878 69.071 510.06 69.1449C510.247 69.2187 510.463 69.2557 510.707 69.2557C510.878 69.2557 511.048 69.2415 511.219 69.2131C511.389 69.179 511.52 69.1534 511.611 69.1364L512.182 71.8381C512 71.8949 511.744 71.9602 511.415 72.0341C511.085 72.1136 510.685 72.1619 510.213 72.179C509.338 72.2131 508.571 72.0966 507.912 71.8295C507.259 71.5625 506.75 71.1477 506.386 70.5852C506.023 70.0227 505.844 69.3125 505.849 68.4545V55.7727ZM520.134 72.2557C518.787 72.2557 517.628 71.983 516.656 71.4375C515.69 70.8864 514.946 70.108 514.423 69.1023C513.901 68.0909 513.639 66.8949 513.639 65.5142C513.639 64.1676 513.901 62.9858 514.423 61.9688C514.946 60.9517 515.682 60.1591 516.631 59.5909C517.585 59.0227 518.705 58.7386 519.989 58.7386C520.852 58.7386 521.656 58.8778 522.401 59.1562C523.151 59.429 523.804 59.8409 524.361 60.392C524.923 60.9432 525.361 61.6364 525.673 62.4716C525.986 63.3011 526.142 64.2727 526.142 65.3864V66.3835H515.088V64.1335H522.724C522.724 63.6108 522.611 63.1477 522.384 62.7443C522.156 62.3409 521.841 62.0256 521.438 61.7983C521.04 61.5653 520.577 61.4489 520.048 61.4489C519.497 61.4489 519.009 61.5767 518.582 61.8324C518.162 62.0824 517.832 62.4205 517.594 62.8466C517.355 63.267 517.233 63.7358 517.227 64.2528V66.392C517.227 67.0398 517.347 67.5994 517.585 68.071C517.83 68.5426 518.173 68.9062 518.616 69.1619C519.06 69.4176 519.585 69.5455 520.193 69.5455C520.597 69.5455 520.966 69.4886 521.301 69.375C521.636 69.2614 521.923 69.0909 522.162 68.8636C522.401 68.6364 522.582 68.358 522.707 68.0284L526.065 68.25C525.895 69.0568 525.545 69.7614 525.017 70.3636C524.494 70.9602 523.818 71.4261 522.989 71.7614C522.165 72.0909 521.213 72.2557 520.134 72.2557Z" fill="#1E1E1F"/>
<path d="M470.172 86.4929C470.119 86.0223 469.9 85.6577 469.516 85.3991C469.131 85.1373 468.647 85.0064 468.064 85.0064C467.646 85.0064 467.285 85.0727 466.98 85.2053C466.675 85.3345 466.438 85.5135 466.269 85.7422C466.103 85.9676 466.021 86.2244 466.021 86.5128C466.021 86.7547 466.077 86.9635 466.19 87.1392C466.306 87.3149 466.456 87.4624 466.642 87.5817C466.831 87.6977 467.033 87.7955 467.249 87.875C467.464 87.9512 467.671 88.0142 467.87 88.0639L468.864 88.3224C469.189 88.402 469.522 88.5097 469.864 88.6456C470.205 88.7815 470.522 88.9605 470.813 89.1825C471.105 89.4046 471.34 89.6797 471.519 90.0078C471.701 90.3359 471.793 90.7287 471.793 91.1861C471.793 91.7628 471.643 92.2749 471.345 92.7223C471.05 93.1697 470.621 93.5227 470.058 93.7812C469.497 94.0398 468.82 94.169 468.024 94.169C467.262 94.169 466.602 94.0481 466.045 93.8061C465.489 93.5642 465.053 93.2211 464.738 92.777C464.423 92.3295 464.249 91.7992 464.216 91.1861H465.757C465.787 91.554 465.906 91.8606 466.115 92.1058C466.327 92.3478 466.597 92.5284 466.925 92.6477C467.257 92.7637 467.62 92.8217 468.014 92.8217C468.448 92.8217 468.835 92.7538 469.173 92.6179C469.514 92.4787 469.782 92.2865 469.978 92.0412C470.174 91.7926 470.271 91.5026 470.271 91.1712C470.271 90.8696 470.185 90.6226 470.013 90.4304C469.844 90.2382 469.613 90.0791 469.322 89.9531C469.033 89.8272 468.707 89.7161 468.342 89.62L467.139 89.2919C466.324 89.0698 465.678 88.7434 465.2 88.3125C464.726 87.8816 464.489 87.3116 464.489 86.6023C464.489 86.0156 464.648 85.5036 464.967 85.0661C465.285 84.6286 465.716 84.2888 466.259 84.0469C466.803 83.8016 467.416 83.679 468.099 83.679C468.788 83.679 469.396 83.8 469.923 84.0419C470.454 84.2839 470.871 84.617 471.176 85.0412C471.481 85.4621 471.64 85.946 471.653 86.4929H470.172ZM476.94 94.1541C476.188 94.1541 475.54 93.9934 474.996 93.6719C474.456 93.3471 474.038 92.8913 473.744 92.3047C473.452 91.7147 473.306 91.0237 473.306 90.2315C473.306 89.4493 473.452 88.7599 473.744 88.1634C474.038 87.5668 474.449 87.1011 474.976 86.7663C475.507 86.4316 476.127 86.2642 476.836 86.2642C477.267 86.2642 477.684 86.3355 478.089 86.478C478.493 86.6205 478.856 86.8442 479.177 87.1491C479.499 87.4541 479.753 87.8501 479.938 88.3374C480.124 88.8213 480.217 89.4096 480.217 90.1023V90.6293H474.146V89.5156H478.76C478.76 89.1245 478.68 88.7782 478.521 88.4766C478.362 88.1716 478.138 87.9313 477.85 87.7557C477.565 87.58 477.23 87.4922 476.846 87.4922C476.428 87.4922 476.064 87.5949 475.752 87.8004C475.444 88.0026 475.205 88.2678 475.036 88.5959C474.87 88.9207 474.788 89.2737 474.788 89.6548V90.5249C474.788 91.0353 474.877 91.4695 475.056 91.8274C475.238 92.1854 475.492 92.4588 475.817 92.6477C476.141 92.8333 476.521 92.9261 476.955 92.9261C477.237 92.9261 477.494 92.8864 477.726 92.8068C477.958 92.724 478.158 92.6013 478.327 92.4389C478.496 92.2765 478.626 92.076 478.715 91.8374L480.122 92.0909C480.009 92.5052 479.807 92.8681 479.516 93.1797C479.227 93.4879 478.864 93.7282 478.427 93.9006C477.993 94.0696 477.497 94.1541 476.94 94.1541ZM482.006 94V86.3636H483.443V87.5767H483.522C483.661 87.1657 483.907 86.8426 484.258 86.6072C484.613 86.3686 485.014 86.2493 485.461 86.2493C485.554 86.2493 485.663 86.2526 485.789 86.2592C485.918 86.2659 486.02 86.2741 486.093 86.2841V87.706C486.033 87.6894 485.927 87.6712 485.774 87.6513C485.622 87.6281 485.469 87.6165 485.317 87.6165C484.966 87.6165 484.652 87.6911 484.377 87.8402C484.106 87.986 483.89 88.1899 483.731 88.4517C483.572 88.7102 483.492 89.0052 483.492 89.3366V94H482.006ZM494.284 86.3636L491.515 94H489.924L487.15 86.3636H488.746L490.68 92.2401H490.759L492.688 86.3636H494.284ZM498.852 94.1541C498.1 94.1541 497.452 93.9934 496.909 93.6719C496.368 93.3471 495.951 92.8913 495.656 92.3047C495.364 91.7147 495.218 91.0237 495.218 90.2315C495.218 89.4493 495.364 88.7599 495.656 88.1634C495.951 87.5668 496.362 87.1011 496.889 86.7663C497.419 86.4316 498.039 86.2642 498.748 86.2642C499.179 86.2642 499.597 86.3355 500.001 86.478C500.405 86.6205 500.768 86.8442 501.09 87.1491C501.411 87.4541 501.665 87.8501 501.85 88.3374C502.036 88.8213 502.129 89.4096 502.129 90.1023V90.6293H496.058V89.5156H500.672C500.672 89.1245 500.592 88.7782 500.433 88.4766C500.274 88.1716 500.051 87.9313 499.762 87.7557C499.477 87.58 499.142 87.4922 498.758 87.4922C498.34 87.4922 497.976 87.5949 497.664 87.8004C497.356 88.0026 497.117 88.2678 496.948 88.5959C496.783 88.9207 496.7 89.2737 496.7 89.6548V90.5249C496.7 91.0353 496.789 91.4695 496.968 91.8274C497.15 92.1854 497.404 92.4588 497.729 92.6477C498.054 92.8333 498.433 92.9261 498.867 92.9261C499.149 92.9261 499.406 92.8864 499.638 92.8068C499.87 92.724 500.07 92.6013 500.24 92.4389C500.409 92.2765 500.538 92.076 500.627 91.8374L502.034 92.0909C501.922 92.5052 501.719 92.8681 501.428 93.1797C501.139 93.4879 500.776 93.7282 500.339 93.9006C499.905 94.0696 499.409 94.1541 498.852 94.1541ZM503.918 94V86.3636H505.355V87.5767H505.434C505.574 87.1657 505.819 86.8426 506.17 86.6072C506.525 86.3686 506.926 86.2493 507.373 86.2493C507.466 86.2493 507.575 86.2526 507.701 86.2592C507.831 86.2659 507.932 86.2741 508.005 86.2841V87.706C507.945 87.6894 507.839 87.6712 507.687 87.6513C507.534 87.6281 507.382 87.6165 507.229 87.6165C506.878 87.6165 506.565 87.6911 506.289 87.8402C506.018 87.986 505.802 88.1899 505.643 88.4517C505.484 88.7102 505.405 89.0052 505.405 89.3366V94H503.918Z" fill="#AEAEB2"/>
</g>
<defs>
<clipPath id="clip0_308_2786">
<rect width="972" height="146" fill="white"/>
</clipPath>
</defs>
</svg>
