<svg width="151" height="36" viewBox="0 0 151 36" fill="none" xmlns="http://www.w3.org/2000/svg">
<path d="M1.59509 18V5.4H5.87909C7.34309 5.4 8.54909 5.664 9.49709 6.192C10.4571 6.708 11.1651 7.44 11.6211 8.388C12.0891 9.324 12.3231 10.428 12.3231 11.7C12.3231 12.972 12.0891 14.082 11.6211 15.03C11.1651 15.966 10.4571 16.698 9.49709 17.226C8.54909 17.742 7.34309 18 5.87909 18H1.59509ZM4.02509 15.912H5.75309C6.78509 15.912 7.59509 15.744 8.18309 15.408C8.78309 15.072 9.20909 14.592 9.46109 13.968C9.71309 13.332 9.83909 12.576 9.83909 11.7C9.83909 10.812 9.71309 10.056 9.46109 9.432C9.20909 8.796 8.78309 8.31 8.18309 7.974C7.59509 7.638 6.78509 7.47 5.75309 7.47H4.02509V15.912ZM18.6944 18.216C17.7824 18.216 16.9724 18.024 16.2644 17.64C15.5684 17.244 15.0224 16.698 14.6264 16.002C14.2424 15.306 14.0504 14.496 14.0504 13.572C14.0504 12.636 14.2424 11.808 14.6264 11.088C15.0104 10.368 15.5504 9.804 16.2464 9.396C16.9544 8.976 17.7704 8.766 18.6944 8.766C19.5944 8.766 20.3804 8.964 21.0524 9.36C21.7244 9.744 22.2464 10.272 22.6184 10.944C23.0024 11.616 23.1944 12.378 23.1944 13.23C23.1944 13.35 23.1944 13.482 23.1944 13.626C23.1944 13.77 23.1824 13.926 23.1584 14.094H15.7784V12.6H20.7284C20.7044 12.036 20.5004 11.586 20.1164 11.25C19.7444 10.914 19.2764 10.746 18.7124 10.746C18.2924 10.746 17.9084 10.842 17.5604 11.034C17.2124 11.214 16.9364 11.496 16.7324 11.88C16.5404 12.252 16.4444 12.726 16.4444 13.302V13.824C16.4444 14.316 16.5344 14.742 16.7144 15.102C16.9064 15.462 17.1704 15.744 17.5064 15.948C17.8544 16.14 18.2444 16.236 18.6764 16.236C19.1204 16.236 19.4864 16.14 19.7744 15.948C20.0744 15.756 20.3024 15.504 20.4584 15.192H22.9424C22.7744 15.756 22.4864 16.266 22.0784 16.722C21.6824 17.178 21.1964 17.544 20.6204 17.82C20.0564 18.084 19.4144 18.216 18.6944 18.216ZM29.2165 18.216C28.3885 18.216 27.6445 18.012 26.9845 17.604C26.3365 17.196 25.8205 16.638 25.4365 15.93C25.0645 15.21 24.8785 14.4 24.8785 13.5C24.8785 12.588 25.0645 11.778 25.4365 11.07C25.8205 10.35 26.3425 9.786 27.0025 9.378C27.6745 8.97 28.4245 8.766 29.2525 8.766C29.9125 8.766 30.4885 8.892 30.9805 9.144C31.4725 9.384 31.8685 9.72 32.1685 10.152V5.04H34.5985V18H32.4385L32.1685 16.758C31.9765 17.01 31.7485 17.25 31.4845 17.478C31.2205 17.706 30.9025 17.886 30.5305 18.018C30.1585 18.15 29.7205 18.216 29.2165 18.216ZM29.7925 16.092C30.2725 16.092 30.6925 15.984 31.0525 15.768C31.4245 15.54 31.7125 15.234 31.9165 14.85C32.1205 14.454 32.2225 14.004 32.2225 13.5C32.2225 12.984 32.1205 12.534 31.9165 12.15C31.7125 11.754 31.4245 11.448 31.0525 11.232C30.6805 11.004 30.2545 10.89 29.7745 10.89C29.3185 10.89 28.9045 11.004 28.5325 11.232C28.1605 11.448 27.8665 11.754 27.6505 12.15C27.4465 12.534 27.3445 12.978 27.3445 13.482C27.3445 13.986 27.4465 14.436 27.6505 14.832C27.8665 15.228 28.1605 15.54 28.5325 15.768C28.9045 15.984 29.3245 16.092 29.7925 16.092ZM37.0154 18V8.982H39.4454V18H37.0154ZM38.2394 7.722C37.7954 7.722 37.4354 7.596 37.1594 7.344C36.8834 7.08 36.7454 6.75 36.7454 6.354C36.7454 5.958 36.8834 5.634 37.1594 5.382C37.4354 5.118 37.7954 4.986 38.2394 4.986C38.6834 4.986 39.0434 5.118 39.3194 5.382C39.6074 5.634 39.7514 5.958 39.7514 6.354C39.7514 6.75 39.6074 7.08 39.3194 7.344C39.0434 7.596 38.6834 7.722 38.2394 7.722ZM46.2753 18.216C45.3633 18.216 44.5533 18.018 43.8453 17.622C43.1373 17.214 42.5853 16.656 42.1893 15.948C41.7933 15.24 41.5953 14.43 41.5953 13.518C41.5953 12.582 41.7933 11.76 42.1893 11.052C42.5853 10.344 43.1373 9.786 43.8453 9.378C44.5533 8.97 45.3633 8.766 46.2753 8.766C47.4393 8.766 48.4113 9.072 49.1913 9.684C49.9833 10.284 50.4873 11.118 50.7033 12.186H48.1293C48.0213 11.766 47.7993 11.442 47.4633 11.214C47.1273 10.974 46.7253 10.854 46.2573 10.854C45.8373 10.854 45.4593 10.962 45.1233 11.178C44.7993 11.382 44.5413 11.682 44.3493 12.078C44.1573 12.474 44.0613 12.948 44.0613 13.5C44.0613 13.908 44.1153 14.274 44.2233 14.598C44.3433 14.922 44.4993 15.204 44.6913 15.444C44.8833 15.672 45.1113 15.846 45.3753 15.966C45.6513 16.086 45.9453 16.146 46.2573 16.146C46.5693 16.146 46.8513 16.098 47.1033 16.002C47.3553 15.894 47.5713 15.738 47.7513 15.534C47.9313 15.33 48.0573 15.084 48.1293 14.796H50.7033C50.4873 15.84 49.9833 16.674 49.1913 17.298C48.3993 17.91 47.4273 18.216 46.2753 18.216ZM55.8593 18.216C55.1033 18.216 54.4793 18.096 53.9873 17.856C53.4953 17.604 53.1293 17.274 52.8893 16.866C52.6493 16.446 52.5293 15.99 52.5293 15.498C52.5293 14.946 52.6673 14.46 52.9433 14.04C53.2313 13.62 53.6633 13.296 54.2393 13.068C54.8153 12.828 55.5353 12.708 56.3993 12.708H58.6493C58.6493 12.264 58.5893 11.898 58.4693 11.61C58.3493 11.322 58.1573 11.106 57.8933 10.962C57.6413 10.818 57.3113 10.746 56.9033 10.746C56.4473 10.746 56.0573 10.848 55.7333 11.052C55.4093 11.256 55.2113 11.562 55.1393 11.97H52.7633C52.8353 11.31 53.0513 10.746 53.4113 10.278C53.7833 9.798 54.2693 9.426 54.8693 9.162C55.4813 8.898 56.1653 8.766 56.9213 8.766C57.7733 8.766 58.5113 8.91 59.1353 9.198C59.7593 9.486 60.2393 9.9 60.5753 10.44C60.9113 10.98 61.0793 11.646 61.0793 12.438V18H59.0273L58.7573 16.614C58.6253 16.854 58.4693 17.07 58.2893 17.262C58.1093 17.454 57.8993 17.622 57.6593 17.766C57.4193 17.91 57.1493 18.018 56.8493 18.09C56.5493 18.174 56.2193 18.216 55.8593 18.216ZM56.4353 16.344C56.7473 16.344 57.0233 16.29 57.2633 16.182C57.5153 16.062 57.7313 15.906 57.9113 15.714C58.0913 15.51 58.2293 15.282 58.3253 15.03C58.4333 14.766 58.5053 14.49 58.5413 14.202V14.184H56.6873C56.3153 14.184 56.0093 14.232 55.7693 14.328C55.5413 14.424 55.3673 14.556 55.2473 14.724C55.1393 14.88 55.0853 15.066 55.0853 15.282C55.0853 15.51 55.1393 15.702 55.2473 15.858C55.3673 16.014 55.5293 16.134 55.7333 16.218C55.9373 16.302 56.1713 16.344 56.4353 16.344ZM67.2912 18C66.6552 18 66.0972 17.904 65.6172 17.712C65.1492 17.508 64.7832 17.178 64.5192 16.722C64.2552 16.254 64.1232 15.618 64.1232 14.814V11.016H62.5752V8.982H64.1232L64.3932 6.534H66.5532V8.982H68.9292V11.016H66.5532V14.85C66.5532 15.258 66.6432 15.54 66.8232 15.696C67.0032 15.852 67.3092 15.93 67.7412 15.93H68.8932V18H67.2912ZM75.085 18.216C74.173 18.216 73.363 18.024 72.655 17.64C71.959 17.244 71.413 16.698 71.017 16.002C70.633 15.306 70.441 14.496 70.441 13.572C70.441 12.636 70.633 11.808 71.017 11.088C71.401 10.368 71.941 9.804 72.637 9.396C73.345 8.976 74.161 8.766 75.085 8.766C75.985 8.766 76.771 8.964 77.443 9.36C78.115 9.744 78.637 10.272 79.009 10.944C79.393 11.616 79.585 12.378 79.585 13.23C79.585 13.35 79.585 13.482 79.585 13.626C79.585 13.77 79.573 13.926 79.549 14.094H72.169V12.6H77.119C77.095 12.036 76.891 11.586 76.507 11.25C76.135 10.914 75.667 10.746 75.103 10.746C74.683 10.746 74.299 10.842 73.951 11.034C73.603 11.214 73.327 11.496 73.123 11.88C72.931 12.252 72.835 12.726 72.835 13.302V13.824C72.835 14.316 72.925 14.742 73.105 15.102C73.297 15.462 73.561 15.744 73.897 15.948C74.245 16.14 74.635 16.236 75.067 16.236C75.511 16.236 75.877 16.14 76.165 15.948C76.465 15.756 76.693 15.504 76.849 15.192H79.333C79.165 15.756 78.877 16.266 78.469 16.722C78.073 17.178 77.587 17.544 77.011 17.82C76.447 18.084 75.805 18.216 75.085 18.216ZM85.6071 18.216C84.7791 18.216 84.0351 18.012 83.3751 17.604C82.7271 17.196 82.2111 16.638 81.8271 15.93C81.4551 15.21 81.2691 14.4 81.2691 13.5C81.2691 12.588 81.4551 11.778 81.8271 11.07C82.2111 10.35 82.7331 9.786 83.3931 9.378C84.0651 8.97 84.8151 8.766 85.6431 8.766C86.3031 8.766 86.8791 8.892 87.3711 9.144C87.8631 9.384 88.2591 9.72 88.5591 10.152V5.04H90.9891V18H88.8291L88.5591 16.758C88.3671 17.01 88.1391 17.25 87.8751 17.478C87.6111 17.706 87.2931 17.886 86.9211 18.018C86.5491 18.15 86.1111 18.216 85.6071 18.216ZM86.1831 16.092C86.6631 16.092 87.0831 15.984 87.4431 15.768C87.8151 15.54 88.1031 15.234 88.3071 14.85C88.5111 14.454 88.6131 14.004 88.6131 13.5C88.6131 12.984 88.5111 12.534 88.3071 12.15C88.1031 11.754 87.8151 11.448 87.4431 11.232C87.0711 11.004 86.6451 10.89 86.1651 10.89C85.7091 10.89 85.2951 11.004 84.9231 11.232C84.5511 11.448 84.2571 11.754 84.0411 12.15C83.8371 12.534 83.7351 12.978 83.7351 13.482C83.7351 13.986 83.8371 14.436 84.0411 14.832C84.2571 15.228 84.5511 15.54 84.9231 15.768C85.2951 15.984 85.7151 16.092 86.1831 16.092ZM97.5884 18V8.982H99.7124L99.8924 10.476C100.18 9.96 100.576 9.546 101.08 9.234C101.596 8.922 102.214 8.766 102.934 8.766C103.678 8.766 104.308 8.928 104.824 9.252C105.34 9.564 105.73 10.026 105.994 10.638C106.27 11.238 106.408 11.976 106.408 12.852V18H103.996V13.086C103.996 12.354 103.84 11.796 103.528 11.412C103.228 11.016 102.76 10.818 102.124 10.818C101.716 10.818 101.35 10.914 101.026 11.106C100.714 11.298 100.468 11.574 100.288 11.934C100.108 12.294 100.018 12.732 100.018 13.248V18H97.5884ZM112.947 18.216C112.083 18.216 111.303 18.018 110.607 17.622C109.923 17.214 109.377 16.656 108.969 15.948C108.573 15.24 108.375 14.424 108.375 13.5C108.375 12.564 108.573 11.742 108.969 11.034C109.377 10.326 109.929 9.774 110.625 9.378C111.321 8.97 112.101 8.766 112.965 8.766C113.829 8.766 114.609 8.97 115.305 9.378C116.001 9.774 116.547 10.326 116.943 11.034C117.351 11.742 117.555 12.564 117.555 13.5C117.555 14.424 117.351 15.24 116.943 15.948C116.535 16.656 115.983 17.214 115.287 17.622C114.603 18.018 113.823 18.216 112.947 18.216ZM112.947 16.11C113.343 16.11 113.697 16.014 114.009 15.822C114.333 15.63 114.591 15.342 114.783 14.958C114.975 14.562 115.071 14.076 115.071 13.5C115.071 12.912 114.975 12.426 114.783 12.042C114.603 11.658 114.351 11.37 114.027 11.178C113.715 10.974 113.361 10.872 112.965 10.872C112.581 10.872 112.227 10.974 111.903 11.178C111.579 11.37 111.321 11.658 111.129 12.042C110.937 12.426 110.841 12.912 110.841 13.5C110.841 14.076 110.937 14.562 111.129 14.958C111.321 15.342 111.573 15.63 111.885 15.822C112.209 16.014 112.563 16.11 112.947 16.11ZM123.681 18.216C122.853 18.216 122.109 18.012 121.449 17.604C120.801 17.196 120.285 16.638 119.901 15.93C119.529 15.21 119.343 14.4 119.343 13.5C119.343 12.588 119.529 11.778 119.901 11.07C120.285 10.35 120.807 9.786 121.467 9.378C122.139 8.97 122.889 8.766 123.717 8.766C124.377 8.766 124.953 8.892 125.445 9.144C125.937 9.384 126.333 9.72 126.633 10.152V5.04H129.063V18H126.903L126.633 16.758C126.441 17.01 126.213 17.25 125.949 17.478C125.685 17.706 125.367 17.886 124.995 18.018C124.623 18.15 124.185 18.216 123.681 18.216ZM124.257 16.092C124.737 16.092 125.157 15.984 125.517 15.768C125.889 15.54 126.177 15.234 126.381 14.85C126.585 14.454 126.687 14.004 126.687 13.5C126.687 12.984 126.585 12.534 126.381 12.15C126.177 11.754 125.889 11.448 125.517 11.232C125.145 11.004 124.719 10.89 124.239 10.89C123.783 10.89 123.369 11.004 122.997 11.232C122.625 11.448 122.331 11.754 122.115 12.15C121.911 12.534 121.809 12.978 121.809 13.482C121.809 13.986 121.911 14.436 122.115 14.832C122.331 15.228 122.625 15.54 122.997 15.768C123.369 15.984 123.789 16.092 124.257 16.092ZM135.782 18.216C134.87 18.216 134.06 18.024 133.352 17.64C132.656 17.244 132.11 16.698 131.714 16.002C131.33 15.306 131.138 14.496 131.138 13.572C131.138 12.636 131.33 11.808 131.714 11.088C132.098 10.368 132.638 9.804 133.334 9.396C134.042 8.976 134.858 8.766 135.782 8.766C136.682 8.766 137.468 8.964 138.14 9.36C138.812 9.744 139.334 10.272 139.706 10.944C140.09 11.616 140.282 12.378 140.282 13.23C140.282 13.35 140.282 13.482 140.282 13.626C140.282 13.77 140.27 13.926 140.246 14.094H132.866V12.6H137.816C137.792 12.036 137.588 11.586 137.204 11.25C136.832 10.914 136.364 10.746 135.8 10.746C135.38 10.746 134.996 10.842 134.648 11.034C134.3 11.214 134.024 11.496 133.82 11.88C133.628 12.252 133.532 12.726 133.532 13.302V13.824C133.532 14.316 133.622 14.742 133.802 15.102C133.994 15.462 134.258 15.744 134.594 15.948C134.942 16.14 135.332 16.236 135.764 16.236C136.208 16.236 136.574 16.14 136.862 15.948C137.162 15.756 137.39 15.504 137.546 15.192H140.03C139.862 15.756 139.574 16.266 139.166 16.722C138.77 17.178 138.284 17.544 137.708 17.82C137.144 18.084 136.502 18.216 135.782 18.216ZM145.962 18.216C145.146 18.216 144.432 18.084 143.82 17.82C143.208 17.556 142.722 17.196 142.362 16.74C142.014 16.272 141.81 15.738 141.75 15.138H144.18C144.24 15.366 144.342 15.576 144.486 15.768C144.63 15.948 144.822 16.092 145.062 16.2C145.314 16.308 145.602 16.362 145.926 16.362C146.25 16.362 146.514 16.32 146.718 16.236C146.922 16.14 147.072 16.02 147.168 15.876C147.276 15.72 147.33 15.558 147.33 15.39C147.33 15.138 147.252 14.946 147.096 14.814C146.952 14.682 146.742 14.574 146.466 14.49C146.19 14.406 145.854 14.322 145.458 14.238C145.05 14.142 144.642 14.034 144.234 13.914C143.826 13.794 143.454 13.638 143.118 13.446C142.794 13.254 142.53 13.014 142.326 12.726C142.134 12.426 142.038 12.054 142.038 11.61C142.038 11.07 142.182 10.59 142.47 10.17C142.758 9.738 143.178 9.396 143.73 9.144C144.282 8.892 144.942 8.766 145.71 8.766C146.802 8.766 147.666 9.018 148.302 9.522C148.938 10.014 149.316 10.686 149.436 11.538H147.15C147.078 11.262 146.916 11.046 146.664 10.89C146.424 10.722 146.1 10.638 145.692 10.638C145.272 10.638 144.948 10.716 144.72 10.872C144.504 11.028 144.396 11.226 144.396 11.466C144.396 11.634 144.468 11.784 144.612 11.916C144.768 12.048 144.984 12.162 145.26 12.258C145.536 12.342 145.866 12.426 146.25 12.51C146.934 12.654 147.534 12.816 148.05 12.996C148.578 13.176 148.992 13.44 149.292 13.788C149.604 14.124 149.76 14.61 149.76 15.246C149.772 15.822 149.622 16.338 149.31 16.794C148.998 17.238 148.554 17.586 147.978 17.838C147.414 18.09 146.742 18.216 145.962 18.216Z" fill="#2772F5"/>
<line x1="2" y1="34" x2="149" y2="34" stroke="#2772F5" stroke-width="4" stroke-linecap="round"/>
</svg>
