<svg width="971" height="146" viewBox="0 0 971 146" fill="none" xmlns="http://www.w3.org/2000/svg">
<rect x="0.5" y="0.5" width="312" height="145" rx="23.5" fill="white"/>
<rect x="0.5" y="0.5" width="312" height="145" rx="23.5" stroke="#EDEDF0"/>
<path d="M25.1186 42V31.8182H28.7479C29.54 31.8182 30.1963 31.9624 30.7166 32.2507C31.237 32.5391 31.6264 32.9335 31.8849 33.4339C32.1435 33.9311 32.2727 34.4912 32.2727 35.1143C32.2727 35.7408 32.1418 36.3042 31.88 36.8047C31.6214 37.3018 31.2304 37.6963 30.7067 37.9879C30.1863 38.2763 29.5317 38.4205 28.7429 38.4205H26.2472V37.1179H28.6037C29.1042 37.1179 29.5102 37.0317 29.8217 36.8594C30.1333 36.6837 30.362 36.4451 30.5078 36.1435C30.6536 35.8419 30.7266 35.4988 30.7266 35.1143C30.7266 34.7299 30.6536 34.3885 30.5078 34.0902C30.362 33.7919 30.1316 33.5582 29.8168 33.3892C29.5052 33.2202 29.0942 33.1357 28.5838 33.1357H26.6548V42H25.1186ZM35.5809 31.8182V42H34.0944V31.8182H35.5809ZM39.943 42.169C39.4591 42.169 39.0216 42.0795 38.6305 41.9006C38.2394 41.7183 37.9295 41.4548 37.7008 41.1101C37.4754 40.7654 37.3627 40.3428 37.3627 39.8423C37.3627 39.4115 37.4456 39.0568 37.6113 38.7784C37.777 38.5 38.0008 38.2796 38.2825 38.1172C38.5642 37.9548 38.8791 37.8321 39.2271 37.7493C39.5751 37.6664 39.9297 37.6035 40.291 37.5604C40.7484 37.5073 41.1196 37.4643 41.4046 37.4311C41.6897 37.3946 41.8968 37.3366 42.0261 37.2571C42.1554 37.1776 42.22 37.0483 42.22 36.8693V36.8345C42.22 36.4003 42.0974 36.0639 41.8521 35.8253C41.6101 35.5866 41.2489 35.4673 40.7683 35.4673C40.2678 35.4673 39.8734 35.5784 39.585 35.8004C39.3 36.0192 39.1028 36.2628 38.9934 36.5312L37.5964 36.2131C37.7621 35.7491 38.0041 35.3745 38.3223 35.0895C38.6438 34.8011 39.0133 34.5923 39.4309 34.4631C39.8485 34.3305 40.2877 34.2642 40.7484 34.2642C41.0533 34.2642 41.3765 34.3007 41.7179 34.3736C42.0626 34.4432 42.384 34.5724 42.6823 34.7614C42.984 34.9503 43.2309 35.2204 43.4231 35.5717C43.6153 35.9197 43.7115 36.3722 43.7115 36.929V42H42.2598V40.956H42.2001C42.104 41.1482 41.9598 41.3371 41.7676 41.5227C41.5753 41.7083 41.3284 41.8625 41.0268 41.9851C40.7252 42.1077 40.3639 42.169 39.943 42.169ZM40.2662 40.9759C40.6771 40.9759 41.0285 40.8946 41.3201 40.7322C41.6151 40.5698 41.8388 40.3577 41.9913 40.0959C42.1471 39.8307 42.225 39.5473 42.225 39.2457V38.2614C42.1719 38.3144 42.0692 38.3641 41.9167 38.4105C41.7676 38.4536 41.5969 38.4917 41.4046 38.5249C41.2124 38.5547 41.0251 38.5829 40.8429 38.6094C40.6606 38.6326 40.5081 38.6525 40.3855 38.669C40.0971 38.7055 39.8336 38.7668 39.595 38.853C39.3597 38.9392 39.1707 39.0634 39.0282 39.2259C38.889 39.3849 38.8194 39.5971 38.8194 39.8622C38.8194 40.2301 38.9553 40.5085 39.2271 40.6974C39.4989 40.883 39.8452 40.9759 40.2662 40.9759ZM47.3179 37.4659V42H45.8314V34.3636H47.2582V35.6065H47.3527C47.5284 35.2022 47.8035 34.8774 48.178 34.6321C48.5558 34.3868 49.0314 34.2642 49.6048 34.2642C50.1252 34.2642 50.5809 34.3736 50.972 34.5923C51.3631 34.8078 51.6664 35.1293 51.8818 35.5568C52.0973 35.9844 52.205 36.513 52.205 37.1428V42H50.7185V37.3217C50.7185 36.7682 50.5743 36.3357 50.2859 36.0241C49.9976 35.7093 49.6015 35.5518 49.0977 35.5518C48.753 35.5518 48.4465 35.6264 48.178 35.7756C47.9128 35.9247 47.7024 36.1435 47.5466 36.4318C47.3941 36.7169 47.3179 37.0616 47.3179 37.4659Z" fill="#AEAEB2"/>
<path d="M25.517 72V54.5455H37.2784V57.5881H29.2074V61.7472H36.6733V64.7898H29.2074V68.9574H37.3125V72H25.517ZM43.7749 64.4318V72H40.1442V58.9091H43.6044V61.2188H43.7578C44.0476 60.4574 44.5334 59.8551 45.2152 59.4119C45.897 58.9631 46.7237 58.7386 47.6953 58.7386C48.6044 58.7386 49.397 58.9375 50.0732 59.3352C50.7493 59.733 51.2749 60.3011 51.6499 61.0398C52.0249 61.7727 52.2124 62.6477 52.2124 63.6648V72H48.5817V64.3125C48.5874 63.5114 48.3828 62.8864 47.968 62.4375C47.5533 61.983 46.9822 61.7557 46.255 61.7557C45.7663 61.7557 45.3345 61.8608 44.9595 62.071C44.5902 62.2812 44.3004 62.5881 44.0902 62.9915C43.8857 63.3892 43.7805 63.8693 43.7749 64.4318ZM62.0369 58.9091V61.6364H54.1534V58.9091H62.0369ZM55.9432 55.7727H59.5739V67.9773C59.5739 68.3125 59.625 68.5739 59.7273 68.7614C59.8295 68.9432 59.9716 69.071 60.1534 69.1449C60.3409 69.2187 60.5568 69.2557 60.8011 69.2557C60.9716 69.2557 61.142 69.2415 61.3125 69.2131C61.483 69.179 61.6136 69.1534 61.7045 69.1364L62.2756 71.8381C62.0938 71.8949 61.8381 71.9602 61.5085 72.0341C61.179 72.1136 60.7784 72.1619 60.3068 72.179C59.4318 72.2131 58.6648 72.0966 58.0057 71.8295C57.3523 71.5625 56.8438 71.1477 56.4801 70.5852C56.1165 70.0227 55.9375 69.3125 55.9432 68.4545V55.7727ZM70.2273 72.2557C68.8807 72.2557 67.7216 71.983 66.75 71.4375C65.7841 70.8864 65.0398 70.108 64.517 69.1023C63.9943 68.0909 63.733 66.8949 63.733 65.5142C63.733 64.1676 63.9943 62.9858 64.517 61.9688C65.0398 60.9517 65.7756 60.1591 66.7244 59.5909C67.679 59.0227 68.7983 58.7386 70.0824 58.7386C70.946 58.7386 71.75 58.8778 72.4943 59.1562C73.2443 59.429 73.8977 59.8409 74.4545 60.392C75.017 60.9432 75.4545 61.6364 75.767 62.4716C76.0795 63.3011 76.2358 64.2727 76.2358 65.3864V66.3835H65.1818V64.1335H72.8182C72.8182 63.6108 72.7045 63.1477 72.4773 62.7443C72.25 62.3409 71.9347 62.0256 71.5312 61.7983C71.1335 61.5653 70.6705 61.4489 70.142 61.4489C69.5909 61.4489 69.1023 61.5767 68.6761 61.8324C68.2557 62.0824 67.9261 62.4205 67.6875 62.8466C67.4489 63.267 67.3267 63.7358 67.321 64.2528V66.392C67.321 67.0398 67.4403 67.5994 67.679 68.071C67.9233 68.5426 68.267 68.9062 68.7102 69.1619C69.1534 69.4176 69.679 69.5455 70.2869 69.5455C70.6903 69.5455 71.0597 69.4886 71.3949 69.375C71.7301 69.2614 72.017 69.0909 72.2557 68.8636C72.4943 68.6364 72.6761 68.358 72.8011 68.0284L76.1591 68.25C75.9886 69.0568 75.6392 69.7614 75.1108 70.3636C74.5881 70.9602 73.9119 71.4261 73.0824 71.7614C72.2585 72.0909 71.3068 72.2557 70.2273 72.2557ZM78.6051 72V58.9091H82.125V61.1932H82.2614C82.5 60.3807 82.9006 59.767 83.4631 59.3523C84.0256 58.9318 84.6733 58.7216 85.4062 58.7216C85.5881 58.7216 85.7841 58.733 85.9943 58.7557C86.2045 58.7784 86.3892 58.8097 86.5483 58.8494V62.071C86.3778 62.0199 86.142 61.9744 85.8409 61.9347C85.5398 61.8949 85.2642 61.875 85.0142 61.875C84.4801 61.875 84.0028 61.9915 83.5824 62.2244C83.1676 62.4517 82.8381 62.7699 82.5938 63.179C82.3551 63.5881 82.2358 64.0597 82.2358 64.5938V72H78.6051ZM88.4254 76.9091V58.9091H92.005V61.108H92.1669C92.326 60.7557 92.5561 60.3977 92.8572 60.0341C93.1641 59.6648 93.5618 59.358 94.0504 59.1136C94.5447 58.8636 95.1584 58.7386 95.8913 58.7386C96.8459 58.7386 97.7266 58.9886 98.5334 59.4886C99.3402 59.983 99.9851 60.7301 100.468 61.7301C100.951 62.7244 101.192 63.9716 101.192 65.4716C101.192 66.9318 100.957 68.1648 100.485 69.1705C100.019 70.1705 99.3828 70.929 98.576 71.446C97.7749 71.9574 96.8771 72.2131 95.8828 72.2131C95.1783 72.2131 94.5788 72.0966 94.0845 71.8636C93.5959 71.6307 93.1953 71.3381 92.8828 70.9858C92.5703 70.6278 92.3317 70.267 92.1669 69.9034H92.0561V76.9091H88.4254ZM91.9794 65.4545C91.9794 66.233 92.0874 66.9119 92.3033 67.4915C92.5192 68.071 92.8317 68.5227 93.2408 68.8466C93.6499 69.1648 94.147 69.3239 94.7322 69.3239C95.3232 69.3239 95.8232 69.1619 96.2322 68.8381C96.6413 68.5085 96.951 68.054 97.1612 67.4744C97.3771 66.8892 97.4851 66.2159 97.4851 65.4545C97.4851 64.6989 97.38 64.0341 97.1697 63.4602C96.9595 62.8864 96.6499 62.4375 96.2408 62.1136C95.8317 61.7898 95.3288 61.6278 94.7322 61.6278C94.1413 61.6278 93.6413 61.7841 93.2322 62.0966C92.8288 62.4091 92.5192 62.8523 92.3033 63.4261C92.0874 64 91.9794 64.6761 91.9794 65.4545ZM103.613 72V58.9091H107.133V61.1932H107.269C107.508 60.3807 107.908 59.767 108.471 59.3523C109.033 58.9318 109.681 58.7216 110.414 58.7216C110.596 58.7216 110.792 58.733 111.002 58.7557C111.212 58.7784 111.397 58.8097 111.556 58.8494V62.071C111.386 62.0199 111.15 61.9744 110.849 61.9347C110.548 61.8949 110.272 61.875 110.022 61.875C109.488 61.875 109.011 61.9915 108.59 62.2244C108.175 62.4517 107.846 62.7699 107.602 63.179C107.363 63.5881 107.244 64.0597 107.244 64.5938V72H103.613ZM113.433 72V58.9091H117.064V72H113.433ZM115.257 57.2216C114.717 57.2216 114.254 57.0426 113.868 56.6847C113.487 56.321 113.297 55.8864 113.297 55.3807C113.297 54.8807 113.487 54.4517 113.868 54.0938C114.254 53.7301 114.717 53.5483 115.257 53.5483C115.797 53.5483 116.257 53.7301 116.638 54.0938C117.024 54.4517 117.217 54.8807 117.217 55.3807C117.217 55.8864 117.024 56.321 116.638 56.6847C116.257 57.0426 115.797 57.2216 115.257 57.2216ZM130.864 62.642L127.54 62.8466C127.484 62.5625 127.362 62.3068 127.174 62.0795C126.987 61.8466 126.739 61.6619 126.433 61.5256C126.131 61.3835 125.771 61.3125 125.35 61.3125C124.788 61.3125 124.313 61.4318 123.927 61.6705C123.54 61.9034 123.347 62.2159 123.347 62.608C123.347 62.9205 123.472 63.1847 123.722 63.4006C123.972 63.6165 124.401 63.7898 125.009 63.9205L127.379 64.3977C128.651 64.6591 129.6 65.0795 130.225 65.6591C130.85 66.2386 131.163 67 131.163 67.9432C131.163 68.8011 130.91 69.554 130.404 70.2017C129.904 70.8494 129.217 71.3551 128.342 71.7188C127.472 72.0767 126.469 72.2557 125.333 72.2557C123.6 72.2557 122.219 71.8949 121.191 71.1733C120.168 70.446 119.569 69.4574 119.393 68.2074L122.964 68.0199C123.072 68.5483 123.333 68.9517 123.748 69.2301C124.163 69.5028 124.694 69.6392 125.342 69.6392C125.978 69.6392 126.489 69.517 126.876 69.2727C127.268 69.0227 127.467 68.7017 127.472 68.3097C127.467 67.9801 127.327 67.7102 127.055 67.5C126.782 67.2841 126.362 67.1193 125.793 67.0057L123.526 66.554C122.248 66.2983 121.296 65.8551 120.671 65.2244C120.052 64.5937 119.742 63.7898 119.742 62.8125C119.742 61.9716 119.969 61.2472 120.424 60.6392C120.884 60.0312 121.529 59.5625 122.359 59.233C123.194 58.9034 124.171 58.7386 125.29 58.7386C126.944 58.7386 128.245 59.0881 129.194 59.7869C130.148 60.4858 130.705 61.4375 130.864 62.642ZM139.415 72.2557C138.068 72.2557 136.909 71.983 135.938 71.4375C134.972 70.8864 134.227 70.108 133.705 69.1023C133.182 68.0909 132.92 66.8949 132.92 65.5142C132.92 64.1676 133.182 62.9858 133.705 61.9688C134.227 60.9517 134.963 60.1591 135.912 59.5909C136.866 59.0227 137.986 58.7386 139.27 58.7386C140.134 58.7386 140.938 58.8778 141.682 59.1562C142.432 59.429 143.085 59.8409 143.642 60.392C144.205 60.9432 144.642 61.6364 144.955 62.4716C145.267 63.3011 145.423 64.2727 145.423 65.3864V66.3835H134.369V64.1335H142.006C142.006 63.6108 141.892 63.1477 141.665 62.7443C141.438 62.3409 141.122 62.0256 140.719 61.7983C140.321 61.5653 139.858 61.4489 139.33 61.4489C138.778 61.4489 138.29 61.5767 137.864 61.8324C137.443 62.0824 137.114 62.4205 136.875 62.8466C136.636 63.267 136.514 63.7358 136.509 64.2528V66.392C136.509 67.0398 136.628 67.5994 136.866 68.071C137.111 68.5426 137.455 68.9062 137.898 69.1619C138.341 69.4176 138.866 69.5455 139.474 69.5455C139.878 69.5455 140.247 69.4886 140.582 69.375C140.918 69.2614 141.205 69.0909 141.443 68.8636C141.682 68.6364 141.864 68.358 141.989 68.0284L145.347 68.25C145.176 69.0568 144.827 69.7614 144.298 70.3636C143.776 70.9602 143.099 71.4261 142.27 71.7614C141.446 72.0909 140.494 72.2557 139.415 72.2557Z" fill="#1E1E1F"/>
<rect x="24" y="95" width="82" height="24" rx="12" fill="#EDEEF0"/>
<path d="M36.536 111.144C35.72 111.144 35.016 110.964 34.424 110.604C33.832 110.236 33.376 109.728 33.056 109.08C32.736 108.424 32.576 107.664 32.576 106.8C32.576 105.944 32.736 105.188 33.056 104.532C33.376 103.876 33.832 103.368 34.424 103.008C35.016 102.64 35.72 102.456 36.536 102.456C37.512 102.456 38.304 102.692 38.912 103.164C39.52 103.636 39.908 104.3 40.076 105.156H38.768C38.64 104.66 38.392 104.264 38.024 103.968C37.656 103.672 37.156 103.524 36.524 103.524C35.972 103.524 35.488 103.656 35.072 103.92C34.664 104.184 34.348 104.56 34.124 105.048C33.908 105.536 33.8 106.12 33.8 106.8C33.8 107.48 33.908 108.068 34.124 108.564C34.348 109.052 34.664 109.428 35.072 109.692C35.488 109.948 35.972 110.076 36.524 110.076C37.156 110.076 37.656 109.936 38.024 109.656C38.392 109.368 38.64 108.98 38.768 108.492H40.076C39.908 109.324 39.52 109.976 38.912 110.448C38.304 110.912 37.512 111.144 36.536 111.144ZM43.8404 111.144C43.3684 111.144 42.9604 111.052 42.6164 110.868C42.2724 110.684 42.0044 110.404 41.8124 110.028C41.6284 109.644 41.5364 109.168 41.5364 108.6V104.844H42.7364V108.468C42.7364 109.02 42.8604 109.436 43.1084 109.716C43.3564 109.988 43.7084 110.124 44.1644 110.124C44.4764 110.124 44.7524 110.052 44.9924 109.908C45.2404 109.764 45.4364 109.556 45.5804 109.284C45.7324 109.004 45.8084 108.66 45.8084 108.252V104.844H47.0084V111H45.9284L45.8564 109.992C45.6724 110.352 45.4044 110.636 45.0524 110.844C44.7084 111.044 44.3044 111.144 43.8404 111.144ZM51.1228 111.144C50.5788 111.144 50.1148 111.06 49.7308 110.892C49.3468 110.716 49.0468 110.476 48.8308 110.172C48.6228 109.86 48.4988 109.504 48.4588 109.104H49.6708C49.7108 109.296 49.7868 109.472 49.8988 109.632C50.0108 109.792 50.1668 109.924 50.3668 110.028C50.5748 110.124 50.8268 110.172 51.1228 110.172C51.3788 110.172 51.5948 110.136 51.7708 110.064C51.9468 109.984 52.0748 109.876 52.1548 109.74C52.2428 109.604 52.2868 109.456 52.2868 109.296C52.2868 109.064 52.2308 108.888 52.1188 108.768C52.0148 108.64 51.8548 108.544 51.6388 108.48C51.4308 108.408 51.1748 108.348 50.8708 108.3C50.5668 108.244 50.2788 108.176 50.0068 108.096C49.7428 108.008 49.5108 107.896 49.3108 107.76C49.1108 107.624 48.9548 107.456 48.8428 107.256C48.7308 107.048 48.6748 106.8 48.6748 106.512C48.6748 106.16 48.7668 105.848 48.9508 105.576C49.1348 105.304 49.3988 105.092 49.7428 104.94C50.0868 104.78 50.4988 104.7 50.9788 104.7C51.6588 104.7 52.2028 104.86 52.6108 105.18C53.0188 105.5 53.2588 105.948 53.3308 106.524H52.1668C52.1268 106.26 52.0028 106.056 51.7948 105.912C51.5868 105.76 51.3108 105.684 50.9668 105.684C50.6068 105.684 50.3308 105.752 50.1388 105.888C49.9548 106.024 49.8628 106.204 49.8628 106.428C49.8628 106.58 49.9108 106.72 50.0068 106.848C50.1028 106.968 50.2548 107.068 50.4628 107.148C50.6708 107.228 50.9348 107.296 51.2548 107.352C51.7108 107.432 52.1068 107.532 52.4428 107.652C52.7788 107.772 53.0388 107.952 53.2228 108.192C53.4148 108.432 53.5108 108.772 53.5108 109.212C53.5108 109.604 53.4108 109.948 53.2108 110.244C53.0188 110.532 52.7428 110.756 52.3828 110.916C52.0308 111.068 51.6108 111.144 51.1228 111.144ZM57.3408 111C56.9568 111 56.6248 110.94 56.3448 110.82C56.0648 110.7 55.8488 110.5 55.6968 110.22C55.5448 109.94 55.4688 109.56 55.4688 109.08V105.864H54.4128V104.844H55.4688L55.6248 103.284H56.6688V104.844H58.3968V105.864H56.6688V109.092C56.6688 109.436 56.7408 109.672 56.8848 109.8C57.0288 109.92 57.2768 109.98 57.6288 109.98H58.3608V111H57.3408ZM62.4703 111.144C61.8943 111.144 61.3783 111.012 60.9223 110.748C60.4743 110.476 60.1223 110.1 59.8663 109.62C59.6103 109.132 59.4823 108.568 59.4823 107.928C59.4823 107.28 59.6103 106.716 59.8663 106.236C60.1303 105.748 60.4863 105.372 60.9343 105.108C61.3903 104.836 61.9063 104.7 62.4823 104.7C63.0663 104.7 63.5823 104.836 64.0303 105.108C64.4863 105.372 64.8423 105.748 65.0983 106.236C65.3543 106.716 65.4823 107.28 65.4823 107.928C65.4823 108.568 65.3503 109.132 65.0863 109.62C64.8303 110.1 64.4743 110.476 64.0183 110.748C63.5703 111.012 63.0543 111.144 62.4703 111.144ZM62.4703 110.112C62.7983 110.112 63.0983 110.032 63.3703 109.872C63.6423 109.704 63.8583 109.46 64.0183 109.14C64.1783 108.812 64.2583 108.408 64.2583 107.928C64.2583 107.44 64.1783 107.036 64.0183 106.716C63.8663 106.388 63.6543 106.144 63.3823 105.984C63.1183 105.816 62.8223 105.732 62.4943 105.732C62.1663 105.732 61.8663 105.816 61.5943 105.984C61.3223 106.144 61.1063 106.388 60.9463 106.716C60.7863 107.036 60.7063 107.44 60.7063 107.928C60.7063 108.408 60.7863 108.812 60.9463 109.14C61.1063 109.46 61.3183 109.704 61.5823 109.872C61.8543 110.032 62.1503 110.112 62.4703 110.112ZM67.0257 111V104.844H68.1057L68.1777 105.696C68.3697 105.384 68.6257 105.14 68.9457 104.964C69.2737 104.788 69.6297 104.7 70.0137 104.7C70.3177 104.7 70.5937 104.744 70.8417 104.832C71.0897 104.912 71.3057 105.036 71.4897 105.204C71.6817 105.364 71.8337 105.572 71.9457 105.828C72.1617 105.468 72.4497 105.192 72.8097 105C73.1697 104.8 73.5537 104.7 73.9617 104.7C74.4417 104.7 74.8537 104.796 75.1977 104.988C75.5417 105.18 75.8057 105.468 75.9897 105.852C76.1737 106.228 76.2657 106.7 76.2657 107.268V111H75.0777V107.388C75.0777 106.836 74.9617 106.424 74.7297 106.152C74.4977 105.872 74.1697 105.732 73.7457 105.732C73.4657 105.732 73.2097 105.804 72.9777 105.948C72.7537 106.092 72.5737 106.308 72.4377 106.596C72.3097 106.876 72.2457 107.216 72.2457 107.616V111H71.0457V107.388C71.0457 106.836 70.9297 106.424 70.6977 106.152C70.4737 105.872 70.1497 105.732 69.7257 105.732C69.4457 105.732 69.1897 105.804 68.9577 105.948C68.7337 106.092 68.5537 106.308 68.4177 106.596C68.2897 106.876 68.2257 107.216 68.2257 107.616V111H67.0257ZM84.8955 111.144C84.0795 111.144 83.3755 110.964 82.7835 110.604C82.1915 110.236 81.7355 109.728 81.4155 109.08C81.0955 108.424 80.9355 107.664 80.9355 106.8C80.9355 105.944 81.0955 105.188 81.4155 104.532C81.7355 103.876 82.1915 103.368 82.7835 103.008C83.3755 102.64 84.0795 102.456 84.8955 102.456C85.8715 102.456 86.6635 102.692 87.2715 103.164C87.8795 103.636 88.2675 104.3 88.4355 105.156H87.1275C86.9995 104.66 86.7515 104.264 86.3835 103.968C86.0155 103.672 85.5155 103.524 84.8835 103.524C84.3315 103.524 83.8475 103.656 83.4315 103.92C83.0235 104.184 82.7075 104.56 82.4835 105.048C82.2675 105.536 82.1595 106.12 82.1595 106.8C82.1595 107.48 82.2675 108.068 82.4835 108.564C82.7075 109.052 83.0235 109.428 83.4315 109.692C83.8475 109.948 84.3315 110.076 84.8835 110.076C85.5155 110.076 86.0155 109.936 86.3835 109.656C86.7515 109.368 86.9995 108.98 87.1275 108.492H88.4355C88.2675 109.324 87.8795 109.976 87.2715 110.448C86.6635 110.912 85.8715 111.144 84.8955 111.144ZM93.1 111.144C92.508 111.144 91.972 111.028 91.492 110.796C91.012 110.556 90.628 110.196 90.34 109.716C90.06 109.228 89.92 108.608 89.92 107.856V102.6H91.12V107.868C91.12 108.372 91.204 108.788 91.372 109.116C91.54 109.436 91.772 109.676 92.068 109.836C92.372 109.988 92.724 110.064 93.124 110.064C93.532 110.064 93.88 109.988 94.168 109.836C94.464 109.676 94.692 109.436 94.852 109.116C95.02 108.788 95.104 108.372 95.104 107.868V102.6H96.304V107.856C96.304 108.608 96.16 109.228 95.872 109.716C95.584 110.196 95.196 110.556 94.708 110.796C94.228 111.028 93.692 111.144 93.1 111.144Z" fill="#1E1E1F"/>
<rect x="113" y="95" width="87" height="24" rx="12" fill="#EDEEF0"/>
<path d="M125.536 111.144C124.72 111.144 124.016 110.964 123.424 110.604C122.832 110.236 122.376 109.728 122.056 109.08C121.736 108.424 121.576 107.664 121.576 106.8C121.576 105.944 121.736 105.188 122.056 104.532C122.376 103.876 122.832 103.368 123.424 103.008C124.016 102.64 124.72 102.456 125.536 102.456C126.512 102.456 127.304 102.692 127.912 103.164C128.52 103.636 128.908 104.3 129.076 105.156H127.768C127.64 104.66 127.392 104.264 127.024 103.968C126.656 103.672 126.156 103.524 125.524 103.524C124.972 103.524 124.488 103.656 124.072 103.92C123.664 104.184 123.348 104.56 123.124 105.048C122.908 105.536 122.8 106.12 122.8 106.8C122.8 107.48 122.908 108.068 123.124 108.564C123.348 109.052 123.664 109.428 124.072 109.692C124.488 109.948 124.972 110.076 125.524 110.076C126.156 110.076 126.656 109.936 127.024 109.656C127.392 109.368 127.64 108.98 127.768 108.492H129.076C128.908 109.324 128.52 109.976 127.912 110.448C127.304 110.912 126.512 111.144 125.536 111.144ZM132.84 111.144C132.368 111.144 131.96 111.052 131.616 110.868C131.272 110.684 131.004 110.404 130.812 110.028C130.628 109.644 130.536 109.168 130.536 108.6V104.844H131.736V108.468C131.736 109.02 131.86 109.436 132.108 109.716C132.356 109.988 132.708 110.124 133.164 110.124C133.476 110.124 133.752 110.052 133.992 109.908C134.24 109.764 134.436 109.556 134.58 109.284C134.732 109.004 134.808 108.66 134.808 108.252V104.844H136.008V111H134.928L134.856 109.992C134.672 110.352 134.404 110.636 134.052 110.844C133.708 111.044 133.304 111.144 132.84 111.144ZM140.123 111.144C139.579 111.144 139.115 111.06 138.731 110.892C138.347 110.716 138.047 110.476 137.831 110.172C137.623 109.86 137.499 109.504 137.459 109.104H138.671C138.711 109.296 138.787 109.472 138.899 109.632C139.011 109.792 139.167 109.924 139.367 110.028C139.575 110.124 139.827 110.172 140.123 110.172C140.379 110.172 140.595 110.136 140.771 110.064C140.947 109.984 141.075 109.876 141.155 109.74C141.243 109.604 141.287 109.456 141.287 109.296C141.287 109.064 141.231 108.888 141.119 108.768C141.015 108.64 140.855 108.544 140.639 108.48C140.431 108.408 140.175 108.348 139.871 108.3C139.567 108.244 139.279 108.176 139.007 108.096C138.743 108.008 138.511 107.896 138.311 107.76C138.111 107.624 137.955 107.456 137.843 107.256C137.731 107.048 137.675 106.8 137.675 106.512C137.675 106.16 137.767 105.848 137.951 105.576C138.135 105.304 138.399 105.092 138.743 104.94C139.087 104.78 139.499 104.7 139.979 104.7C140.659 104.7 141.203 104.86 141.611 105.18C142.019 105.5 142.259 105.948 142.331 106.524H141.167C141.127 106.26 141.003 106.056 140.795 105.912C140.587 105.76 140.311 105.684 139.967 105.684C139.607 105.684 139.331 105.752 139.139 105.888C138.955 106.024 138.863 106.204 138.863 106.428C138.863 106.58 138.911 106.72 139.007 106.848C139.103 106.968 139.255 107.068 139.463 107.148C139.671 107.228 139.935 107.296 140.255 107.352C140.711 107.432 141.107 107.532 141.443 107.652C141.779 107.772 142.039 107.952 142.223 108.192C142.415 108.432 142.511 108.772 142.511 109.212C142.511 109.604 142.411 109.948 142.211 110.244C142.019 110.532 141.743 110.756 141.383 110.916C141.031 111.068 140.611 111.144 140.123 111.144ZM146.341 111C145.957 111 145.625 110.94 145.345 110.82C145.065 110.7 144.849 110.5 144.697 110.22C144.545 109.94 144.469 109.56 144.469 109.08V105.864H143.413V104.844H144.469L144.625 103.284H145.669V104.844H147.397V105.864H145.669V109.092C145.669 109.436 145.741 109.672 145.885 109.8C146.029 109.92 146.277 109.98 146.629 109.98H147.361V111H146.341ZM151.47 111.144C150.894 111.144 150.378 111.012 149.922 110.748C149.474 110.476 149.122 110.1 148.866 109.62C148.61 109.132 148.482 108.568 148.482 107.928C148.482 107.28 148.61 106.716 148.866 106.236C149.13 105.748 149.486 105.372 149.934 105.108C150.39 104.836 150.906 104.7 151.482 104.7C152.066 104.7 152.582 104.836 153.03 105.108C153.486 105.372 153.842 105.748 154.098 106.236C154.354 106.716 154.482 107.28 154.482 107.928C154.482 108.568 154.35 109.132 154.086 109.62C153.83 110.1 153.474 110.476 153.018 110.748C152.57 111.012 152.054 111.144 151.47 111.144ZM151.47 110.112C151.798 110.112 152.098 110.032 152.37 109.872C152.642 109.704 152.858 109.46 153.018 109.14C153.178 108.812 153.258 108.408 153.258 107.928C153.258 107.44 153.178 107.036 153.018 106.716C152.866 106.388 152.654 106.144 152.382 105.984C152.118 105.816 151.822 105.732 151.494 105.732C151.166 105.732 150.866 105.816 150.594 105.984C150.322 106.144 150.106 106.388 149.946 106.716C149.786 107.036 149.706 107.44 149.706 107.928C149.706 108.408 149.786 108.812 149.946 109.14C150.106 109.46 150.318 109.704 150.582 109.872C150.854 110.032 151.15 110.112 151.47 110.112ZM156.026 111V104.844H157.106L157.178 105.696C157.37 105.384 157.626 105.14 157.946 104.964C158.274 104.788 158.63 104.7 159.014 104.7C159.318 104.7 159.594 104.744 159.842 104.832C160.09 104.912 160.306 105.036 160.49 105.204C160.682 105.364 160.834 105.572 160.946 105.828C161.162 105.468 161.45 105.192 161.81 105C162.17 104.8 162.554 104.7 162.962 104.7C163.442 104.7 163.854 104.796 164.198 104.988C164.542 105.18 164.806 105.468 164.99 105.852C165.174 106.228 165.266 106.7 165.266 107.268V111H164.078V107.388C164.078 106.836 163.962 106.424 163.73 106.152C163.498 105.872 163.17 105.732 162.746 105.732C162.466 105.732 162.21 105.804 161.978 105.948C161.754 106.092 161.574 106.308 161.438 106.596C161.31 106.876 161.246 107.216 161.246 107.616V111H160.046V107.388C160.046 106.836 159.93 106.424 159.698 106.152C159.474 105.872 159.15 105.732 158.726 105.732C158.446 105.732 158.19 105.804 157.958 105.948C157.734 106.092 157.554 106.308 157.418 106.596C157.29 106.876 157.226 107.216 157.226 107.616V111H156.026ZM170.248 111V102.6H173.092C173.756 102.6 174.3 102.712 174.724 102.936C175.148 103.16 175.46 103.46 175.66 103.836C175.868 104.204 175.972 104.624 175.972 105.096C175.972 105.544 175.868 105.96 175.66 106.344C175.46 106.72 175.144 107.024 174.712 107.256C174.28 107.48 173.728 107.592 173.056 107.592H171.448V111H170.248ZM174.664 111L172.852 107.268H174.172L176.056 111H174.664ZM171.448 106.68H173.02C173.612 106.68 174.044 106.536 174.316 106.248C174.596 105.952 174.736 105.576 174.736 105.12C174.736 104.656 174.6 104.288 174.328 104.016C174.056 103.744 173.616 103.608 173.008 103.608H171.448V106.68ZM177.668 111V102.6H180.524C181.196 102.6 181.748 102.712 182.18 102.936C182.62 103.16 182.944 103.464 183.152 103.848C183.36 104.224 183.464 104.656 183.464 105.144C183.464 105.608 183.36 106.032 183.152 106.416C182.944 106.8 182.624 107.108 182.192 107.34C181.76 107.564 181.204 107.676 180.524 107.676H178.868V111H177.668ZM178.868 106.68H180.476C181.116 106.68 181.568 106.54 181.832 106.26C182.104 105.98 182.24 105.608 182.24 105.144C182.24 104.656 182.104 104.276 181.832 104.004C181.568 103.732 181.116 103.596 180.476 103.596H178.868V106.68ZM187.65 111.144C187.042 111.144 186.506 111.036 186.042 110.82C185.578 110.596 185.218 110.284 184.962 109.884C184.706 109.484 184.574 109.016 184.566 108.48H185.838C185.838 108.784 185.906 109.064 186.042 109.32C186.186 109.568 186.39 109.768 186.654 109.92C186.926 110.064 187.258 110.136 187.65 110.136C187.986 110.136 188.274 110.08 188.514 109.968C188.762 109.856 188.95 109.704 189.078 109.512C189.206 109.312 189.27 109.084 189.27 108.828C189.27 108.54 189.206 108.304 189.078 108.12C188.95 107.928 188.77 107.768 188.538 107.64C188.314 107.512 188.054 107.4 187.758 107.304C187.47 107.208 187.158 107.104 186.822 106.992C186.142 106.768 185.638 106.484 185.31 106.14C184.99 105.796 184.83 105.348 184.83 104.796C184.83 104.324 184.938 103.916 185.154 103.572C185.378 103.22 185.694 102.948 186.102 102.756C186.51 102.556 186.986 102.456 187.53 102.456C188.082 102.456 188.558 102.556 188.958 102.756C189.366 102.956 189.686 103.232 189.918 103.584C190.15 103.936 190.27 104.348 190.278 104.82H189.006C189.006 104.604 188.946 104.392 188.826 104.184C188.714 103.976 188.546 103.808 188.322 103.68C188.106 103.544 187.834 103.476 187.506 103.476C187.226 103.468 186.978 103.512 186.762 103.608C186.546 103.704 186.378 103.844 186.258 104.028C186.138 104.212 186.078 104.432 186.078 104.688C186.078 104.944 186.134 105.152 186.246 105.312C186.358 105.464 186.514 105.596 186.714 105.708C186.922 105.82 187.166 105.924 187.446 106.02C187.726 106.108 188.034 106.208 188.37 106.32C188.778 106.456 189.146 106.624 189.474 106.824C189.802 107.016 190.058 107.268 190.242 107.58C190.434 107.884 190.53 108.276 190.53 108.756C190.53 109.172 190.422 109.56 190.206 109.92C189.99 110.28 189.67 110.576 189.246 110.808C188.822 111.032 188.29 111.144 187.65 111.144Z" fill="#1E1E1F"/>
<path d="M213.423 101.818H215.267V108.47C215.267 109.199 215.095 109.841 214.75 110.394C214.409 110.948 213.928 111.38 213.308 111.692C212.688 112 211.964 112.154 211.136 112.154C210.304 112.154 209.578 112 208.958 111.692C208.338 111.38 207.858 110.948 207.516 110.394C207.175 109.841 207.004 109.199 207.004 108.47V101.818H208.849V108.316C208.849 108.74 208.942 109.118 209.127 109.45C209.316 109.781 209.581 110.041 209.923 110.23C210.264 110.416 210.668 110.509 211.136 110.509C211.603 110.509 212.007 110.416 212.349 110.23C212.693 110.041 212.959 109.781 213.144 109.45C213.33 109.118 213.423 108.74 213.423 108.316V101.818ZM219.132 107.526V112H217.332V104.364H219.052V105.661H219.142C219.318 105.234 219.598 104.894 219.982 104.642C220.37 104.39 220.849 104.264 221.419 104.264C221.946 104.264 222.405 104.377 222.796 104.602C223.19 104.828 223.495 105.154 223.711 105.582C223.93 106.009 224.037 106.528 224.034 107.138V112H222.234V107.416C222.234 106.906 222.102 106.506 221.837 106.218C221.575 105.93 221.212 105.786 220.748 105.786C220.433 105.786 220.153 105.855 219.908 105.994C219.666 106.13 219.475 106.327 219.336 106.586C219.2 106.844 219.132 107.158 219.132 107.526ZM229.817 104.364V105.756H225.427V104.364H229.817ZM226.511 102.534H228.31V109.703C228.31 109.945 228.347 110.131 228.42 110.26C228.496 110.386 228.595 110.472 228.718 110.518C228.841 110.565 228.977 110.588 229.126 110.588C229.238 110.588 229.341 110.58 229.434 110.563C229.53 110.547 229.603 110.532 229.653 110.518L229.956 111.925C229.86 111.959 229.722 111.995 229.543 112.035C229.368 112.075 229.152 112.098 228.897 112.104C228.446 112.118 228.04 112.05 227.679 111.901C227.318 111.748 227.031 111.513 226.819 111.195C226.61 110.876 226.507 110.479 226.511 110.001V102.534ZM231.462 112V104.364H233.262V112H231.462ZM232.367 103.28C232.082 103.28 231.836 103.185 231.631 102.996C231.425 102.804 231.323 102.574 231.323 102.305C231.323 102.034 231.425 101.803 231.631 101.614C231.836 101.422 232.082 101.326 232.367 101.326C232.655 101.326 232.9 101.422 233.103 101.614C233.308 101.803 233.411 102.034 233.411 102.305C233.411 102.574 233.308 102.804 233.103 102.996C232.9 103.185 232.655 103.28 232.367 103.28ZM237.052 101.818V112H235.252V101.818H237.052ZM251.102 101.818V112H249.461L244.664 105.065H244.579V112H242.735V101.818H244.385L249.178 108.759H249.268V101.818H251.102ZM256.503 112.149C255.758 112.149 255.111 111.985 254.564 111.657C254.017 111.329 253.593 110.87 253.292 110.28C252.993 109.69 252.844 109 252.844 108.212C252.844 107.423 252.993 106.732 253.292 106.138C253.593 105.545 254.017 105.085 254.564 104.756C255.111 104.428 255.758 104.264 256.503 104.264C257.249 104.264 257.895 104.428 258.442 104.756C258.989 105.085 259.412 105.545 259.71 106.138C260.012 106.732 260.162 107.423 260.162 108.212C260.162 109 260.012 109.69 259.71 110.28C259.412 110.87 258.989 111.329 258.442 111.657C257.895 111.985 257.249 112.149 256.503 112.149ZM256.513 110.707C256.918 110.707 257.256 110.596 257.527 110.374C257.799 110.149 258.001 109.847 258.134 109.469C258.27 109.092 258.338 108.671 258.338 108.207C258.338 107.739 258.27 107.317 258.134 106.939C258.001 106.558 257.799 106.254 257.527 106.029C257.256 105.804 256.918 105.691 256.513 105.691C256.099 105.691 255.754 105.804 255.479 106.029C255.207 106.254 255.003 106.558 254.868 106.939C254.735 107.317 254.669 107.739 254.669 108.207C254.669 108.671 254.735 109.092 254.868 109.469C255.003 109.847 255.207 110.149 255.479 110.374C255.754 110.596 256.099 110.707 256.513 110.707ZM268.391 104.364L265.672 112H263.683L260.964 104.364H262.883L264.638 110.036H264.717L266.477 104.364H268.391ZM277.511 101.818V112H275.666V103.613H275.607L273.225 105.134V103.444L275.756 101.818H277.511ZM283.999 112.194C283.181 112.194 282.478 111.987 281.891 111.572C281.308 111.155 280.859 110.553 280.544 109.768C280.233 108.979 280.077 108.029 280.077 106.919C280.08 105.809 280.238 104.864 280.549 104.085C280.864 103.303 281.313 102.706 281.896 102.295C282.483 101.884 283.184 101.679 283.999 101.679C284.815 101.679 285.516 101.884 286.102 102.295C286.689 102.706 287.138 103.303 287.45 104.085C287.764 104.867 287.922 105.812 287.922 106.919C287.922 108.033 287.764 108.984 287.45 109.773C287.138 110.558 286.689 111.158 286.102 111.572C285.519 111.987 284.818 112.194 283.999 112.194ZM283.999 110.638C284.636 110.638 285.138 110.325 285.506 109.698C285.877 109.068 286.063 108.142 286.063 106.919C286.063 106.11 285.978 105.431 285.809 104.881C285.64 104.33 285.401 103.916 285.093 103.638C284.785 103.356 284.42 103.215 283.999 103.215C283.366 103.215 282.866 103.53 282.498 104.16C282.13 104.786 281.944 105.706 281.941 106.919C281.938 107.731 282.019 108.414 282.185 108.967C282.354 109.521 282.592 109.938 282.901 110.22C283.209 110.499 283.575 110.638 283.999 110.638Z" fill="#0B57D0"/>
<rect x="329.5" y="0.5" width="312" height="145" rx="23.5" fill="white"/>
<rect x="329.5" y="0.5" width="312" height="145" rx="23.5" stroke="#EDEDF0"/>
<path d="M362.575 32.1293H361.024C360.964 31.7978 360.853 31.5062 360.691 31.2543C360.529 31.0024 360.33 30.7886 360.094 30.6129C359.859 30.4373 359.596 30.3047 359.304 30.2152C359.016 30.1257 358.709 30.081 358.384 30.081C357.798 30.081 357.272 30.2285 356.808 30.5234C356.348 30.8184 355.983 31.2509 355.714 31.821C355.449 32.3911 355.317 33.0871 355.317 33.9091C355.317 34.7377 355.449 35.437 355.714 36.0071C355.983 36.5772 356.349 37.008 356.813 37.2997C357.277 37.5914 357.799 37.7372 358.379 37.7372C358.701 37.7372 359.006 37.6941 359.294 37.608C359.586 37.5185 359.849 37.3875 360.085 37.2152C360.32 37.0429 360.519 36.8324 360.681 36.5838C360.847 36.3319 360.961 36.0436 361.024 35.7188L362.575 35.7237C362.492 36.2242 362.332 36.6849 362.093 37.1058C361.858 37.5234 361.554 37.8847 361.183 38.1896C360.815 38.4912 360.394 38.7249 359.92 38.8906C359.446 39.0563 358.929 39.1392 358.369 39.1392C357.488 39.1392 356.702 38.9304 356.013 38.5128C355.323 38.0919 354.78 37.4903 354.382 36.7081C353.988 35.9259 353.79 34.9929 353.79 33.9091C353.79 32.822 353.989 31.889 354.387 31.1101C354.785 30.3279 355.328 29.728 356.018 29.3104C356.707 28.8894 357.491 28.679 358.369 28.679C358.91 28.679 359.413 28.7569 359.881 28.9126C360.351 29.0651 360.774 29.2905 361.148 29.5888C361.523 29.8838 361.833 30.245 362.078 30.6726C362.323 31.0968 362.489 31.5824 362.575 32.1293ZM371.101 28.8182H372.642V35.5149C372.642 36.2275 372.475 36.8589 372.14 37.4091C371.805 37.956 371.335 38.3868 370.728 38.7017C370.122 39.0133 369.411 39.169 368.595 39.169C367.783 39.169 367.074 39.0133 366.468 38.7017C365.861 38.3868 365.39 37.956 365.056 37.4091C364.721 36.8589 364.554 36.2275 364.554 35.5149V28.8182H366.09V35.3906C366.09 35.8513 366.191 36.2607 366.393 36.6186C366.599 36.9766 366.889 37.2583 367.263 37.4638C367.638 37.666 368.082 37.767 368.595 37.767C369.112 37.767 369.558 37.666 369.933 37.4638C370.311 37.2583 370.599 36.9766 370.798 36.6186C371 36.2607 371.101 35.8513 371.101 35.3906V28.8182ZM378.861 39V28.8182H380.347V32.6016H380.437C380.523 32.4425 380.647 32.2585 380.81 32.0497C380.972 31.8409 381.198 31.6586 381.486 31.5028C381.774 31.3438 382.155 31.2642 382.629 31.2642C383.246 31.2642 383.796 31.42 384.28 31.7315C384.764 32.0431 385.143 32.4922 385.418 33.0788C385.697 33.6655 385.836 34.3714 385.836 35.1967C385.836 36.022 385.698 36.7296 385.423 37.3196C385.148 37.9062 384.77 38.3587 384.29 38.6768C383.809 38.9917 383.261 39.1491 382.644 39.1491C382.18 39.1491 381.801 39.0713 381.506 38.9155C381.214 38.7597 380.985 38.5774 380.82 38.3686C380.654 38.1598 380.526 37.9742 380.437 37.8118H380.313V39H378.861ZM380.318 35.1818C380.318 35.7187 380.395 36.1894 380.551 36.5938C380.707 36.9981 380.932 37.3146 381.227 37.5433C381.522 37.7687 381.884 37.8814 382.311 37.8814C382.755 37.8814 383.126 37.7637 383.425 37.5284C383.723 37.2898 383.948 36.9666 384.101 36.5589C384.257 36.1513 384.335 35.6922 384.335 35.1818C384.335 34.678 384.258 34.2256 384.106 33.8246C383.957 33.4235 383.731 33.107 383.43 32.875C383.131 32.643 382.759 32.527 382.311 32.527C381.88 32.527 381.516 32.638 381.217 32.8601C380.922 33.0821 380.699 33.392 380.546 33.7898C380.394 34.1875 380.318 34.6515 380.318 35.1818ZM389.868 39.169C389.384 39.169 388.946 39.0795 388.555 38.9006C388.164 38.7183 387.854 38.4548 387.625 38.1101C387.4 37.7654 387.287 37.3428 387.287 36.8423C387.287 36.4115 387.37 36.0568 387.536 35.7784C387.702 35.5 387.925 35.2796 388.207 35.1172C388.489 34.9548 388.804 34.8321 389.152 34.7493C389.5 34.6664 389.854 34.6035 390.216 34.5604C390.673 34.5073 391.044 34.4643 391.329 34.4311C391.614 34.3946 391.821 34.3366 391.951 34.2571C392.08 34.1776 392.145 34.0483 392.145 33.8693V33.8345C392.145 33.4003 392.022 33.0639 391.777 32.8253C391.535 32.5866 391.173 32.4673 390.693 32.4673C390.192 32.4673 389.798 32.5784 389.51 32.8004C389.225 33.0192 389.027 33.2628 388.918 33.5312L387.521 33.2131C387.687 32.7491 387.929 32.3745 388.247 32.0895C388.568 31.8011 388.938 31.5923 389.355 31.4631C389.773 31.3305 390.212 31.2642 390.673 31.2642C390.978 31.2642 391.301 31.3007 391.642 31.3736C391.987 31.4432 392.309 31.5724 392.607 31.7614C392.908 31.9503 393.155 32.2204 393.348 32.5717C393.54 32.9197 393.636 33.3722 393.636 33.929V39H392.184V37.956H392.125C392.029 38.1482 391.884 38.3371 391.692 38.5227C391.5 38.7083 391.253 38.8625 390.951 38.9851C390.65 39.1077 390.288 39.169 389.868 39.169ZM390.191 37.9759C390.602 37.9759 390.953 37.8946 391.245 37.7322C391.54 37.5698 391.763 37.3577 391.916 37.0959C392.072 36.8307 392.149 36.5473 392.149 36.2457V35.2614C392.096 35.3144 391.994 35.3641 391.841 35.4105C391.692 35.4536 391.521 35.4917 391.329 35.5249C391.137 35.5547 390.95 35.5829 390.767 35.6094C390.585 35.6326 390.433 35.6525 390.31 35.669C390.022 35.7055 389.758 35.7668 389.52 35.853C389.284 35.9392 389.095 36.0634 388.953 36.2259C388.814 36.3849 388.744 36.5971 388.744 36.8622C388.744 37.2301 388.88 37.5085 389.152 37.6974C389.423 37.883 389.77 37.9759 390.191 37.9759ZM397.242 28.8182V39H395.756V28.8182H397.242ZM401.605 39.169C401.121 39.169 400.683 39.0795 400.292 38.9006C399.901 38.7183 399.591 38.4548 399.362 38.1101C399.137 37.7654 399.024 37.3428 399.024 36.8423C399.024 36.4115 399.107 36.0568 399.273 35.7784C399.439 35.5 399.662 35.2796 399.944 35.1172C400.226 34.9548 400.541 34.8321 400.889 34.7493C401.237 34.6664 401.591 34.6035 401.953 34.5604C402.41 34.5073 402.781 34.4643 403.066 34.4311C403.351 34.3946 403.558 34.3366 403.688 34.2571C403.817 34.1776 403.882 34.0483 403.882 33.8693V33.8345C403.882 33.4003 403.759 33.0639 403.514 32.8253C403.272 32.5866 402.91 32.4673 402.43 32.4673C401.929 32.4673 401.535 32.5784 401.247 32.8004C400.962 33.0192 400.764 33.2628 400.655 33.5312L399.258 33.2131C399.424 32.7491 399.666 32.3745 399.984 32.0895C400.305 31.8011 400.675 31.5923 401.092 31.4631C401.51 31.3305 401.949 31.2642 402.41 31.2642C402.715 31.2642 403.038 31.3007 403.379 31.3736C403.724 31.4432 404.046 31.5724 404.344 31.7614C404.646 31.9503 404.892 32.2204 405.085 32.5717C405.277 32.9197 405.373 33.3722 405.373 33.929V39H403.921V37.956H403.862C403.766 38.1482 403.621 38.3371 403.429 38.5227C403.237 38.7083 402.99 38.8625 402.688 38.9851C402.387 39.1077 402.025 39.169 401.605 39.169ZM401.928 37.9759C402.339 37.9759 402.69 37.8946 402.982 37.7322C403.277 37.5698 403.5 37.3577 403.653 37.0959C403.809 36.8307 403.887 36.5473 403.887 36.2457V35.2614C403.833 35.3144 403.731 35.3641 403.578 35.4105C403.429 35.4536 403.258 35.4917 403.066 35.5249C402.874 35.5547 402.687 35.5829 402.504 35.6094C402.322 35.6326 402.17 35.6525 402.047 35.669C401.759 35.7055 401.495 35.7668 401.257 35.853C401.021 35.9392 400.832 36.0634 400.69 36.2259C400.551 36.3849 400.481 36.5971 400.481 36.8622C400.481 37.2301 400.617 37.5085 400.889 37.6974C401.16 37.883 401.507 37.9759 401.928 37.9759ZM408.979 34.4659V39H407.493V31.3636H408.92V32.6065H409.014C409.19 32.2022 409.465 31.8774 409.84 31.6321C410.217 31.3868 410.693 31.2642 411.266 31.2642C411.787 31.2642 412.242 31.3736 412.634 31.5923C413.025 31.8078 413.328 32.1293 413.543 32.5568C413.759 32.9844 413.867 33.513 413.867 34.1428V39H412.38V34.3217C412.38 33.7682 412.236 33.3357 411.948 33.0241C411.659 32.7093 411.263 32.5518 410.759 32.5518C410.415 32.5518 410.108 32.6264 409.84 32.7756C409.574 32.9247 409.364 33.1435 409.208 33.4318C409.056 33.7169 408.979 34.0616 408.979 34.4659ZM419.217 39.1541C418.478 39.1541 417.841 38.9867 417.308 38.652C416.777 38.3139 416.37 37.8482 416.085 37.255C415.8 36.6617 415.657 35.9822 415.657 35.2166C415.657 34.4411 415.803 33.7566 416.095 33.1634C416.386 32.5668 416.797 32.1011 417.328 31.7663C417.858 31.4316 418.483 31.2642 419.202 31.2642C419.782 31.2642 420.299 31.3719 420.753 31.5874C421.207 31.7995 421.573 32.0978 421.852 32.4822C422.133 32.8667 422.301 33.3158 422.354 33.8295H420.907C420.828 33.4716 420.645 33.1634 420.36 32.9048C420.079 32.6463 419.701 32.517 419.227 32.517C418.812 32.517 418.449 32.6264 418.138 32.8452C417.83 33.0606 417.589 33.3688 417.417 33.7699C417.245 34.1676 417.159 34.6383 417.159 35.1818C417.159 35.7386 417.243 36.2192 417.412 36.6236C417.581 37.0279 417.82 37.3411 418.128 37.5632C418.44 37.7853 418.806 37.8963 419.227 37.8963C419.508 37.8963 419.764 37.8449 419.992 37.7422C420.224 37.6361 420.418 37.4853 420.574 37.2898C420.733 37.0942 420.844 36.8589 420.907 36.5838H422.354C422.301 37.0777 422.14 37.5185 421.872 37.9062C421.603 38.294 421.244 38.599 420.793 38.821C420.345 39.0431 419.82 39.1541 419.217 39.1541ZM427.375 39.1541C426.622 39.1541 425.974 38.9934 425.431 38.6719C424.891 38.3471 424.473 37.8913 424.178 37.3047C423.886 36.7147 423.74 36.0237 423.74 35.2315C423.74 34.4493 423.886 33.7599 424.178 33.1634C424.473 32.5668 424.884 32.1011 425.411 31.7663C425.941 31.4316 426.561 31.2642 427.27 31.2642C427.701 31.2642 428.119 31.3355 428.523 31.478C428.927 31.6205 429.29 31.8442 429.612 32.1491C429.933 32.4541 430.187 32.8501 430.373 33.3374C430.558 33.8213 430.651 34.4096 430.651 35.1023V35.6293H424.581V34.5156H429.194C429.194 34.1245 429.115 33.7782 428.956 33.4766C428.797 33.1716 428.573 32.9313 428.285 32.7557C427.999 32.58 427.665 32.4922 427.28 32.4922C426.863 32.4922 426.498 32.5949 426.186 32.8004C425.878 33.0026 425.64 33.2678 425.471 33.5959C425.305 33.9207 425.222 34.2737 425.222 34.6548V35.5249C425.222 36.0353 425.311 36.4695 425.49 36.8274C425.673 37.1854 425.926 37.4588 426.251 37.6477C426.576 37.8333 426.955 37.9261 427.39 37.9261C427.671 37.9261 427.928 37.8864 428.16 37.8068C428.392 37.724 428.593 37.6013 428.762 37.4389C428.931 37.2765 429.06 37.076 429.15 36.8374L430.557 37.0909C430.444 37.5052 430.242 37.8681 429.95 38.1797C429.662 38.4879 429.299 38.7282 428.861 38.9006C428.427 39.0696 427.932 39.1541 427.375 39.1541Z" fill="#AEAEB2"/>
<path d="M369.662 57.4347H366.474C366.384 56.9119 366.216 56.4489 365.972 56.0455C365.727 55.6364 365.423 55.2898 365.06 55.0057C364.696 54.7216 364.281 54.5085 363.815 54.3665C363.355 54.2188 362.858 54.1449 362.324 54.1449C361.375 54.1449 360.534 54.3835 359.801 54.8608C359.068 55.3324 358.494 56.0256 358.08 56.9403C357.665 57.8494 357.457 58.9602 357.457 60.2727C357.457 61.608 357.665 62.733 358.08 63.6477C358.5 64.5568 359.074 65.2443 359.801 65.7102C360.534 66.1705 361.372 66.4006 362.315 66.4006C362.838 66.4006 363.327 66.3324 363.781 66.196C364.241 66.054 364.653 65.8466 365.017 65.5739C365.386 65.3011 365.696 64.9659 365.946 64.5682C366.202 64.1705 366.378 63.7159 366.474 63.2045L369.662 63.2216C369.543 64.0511 369.284 64.8295 368.886 65.5568C368.494 66.2841 367.98 66.9261 367.344 67.483C366.707 68.0341 365.963 68.4659 365.111 68.7784C364.259 69.0852 363.313 69.2386 362.273 69.2386C360.739 69.2386 359.369 68.8835 358.165 68.1733C356.96 67.4631 356.011 66.4375 355.318 65.0966C354.625 63.7557 354.278 62.1477 354.278 60.2727C354.278 58.392 354.628 56.7841 355.327 55.4489C356.026 54.108 356.977 53.0824 358.182 52.3722C359.386 51.6619 360.75 51.3068 362.273 51.3068C363.244 51.3068 364.148 51.4432 364.983 51.7159C365.818 51.9886 366.563 52.3892 367.216 52.9176C367.869 53.4403 368.406 54.0824 368.827 54.8438C369.253 55.5994 369.531 56.4631 369.662 57.4347ZM380.765 63.4943V55.9091H383.85V69H380.859V66.6733H380.722C380.427 67.4062 379.941 68.0057 379.265 68.4716C378.594 68.9375 377.768 69.1705 376.785 69.1705C375.927 69.1705 375.168 68.9801 374.509 68.5994C373.856 68.2131 373.344 67.6534 372.975 66.9205C372.606 66.1818 372.421 65.2898 372.421 64.2443V55.9091H375.506V63.767C375.506 64.5966 375.734 65.2557 376.188 65.7443C376.643 66.233 377.239 66.4773 377.978 66.4773C378.433 66.4773 378.873 66.3665 379.299 66.1449C379.725 65.9233 380.075 65.5938 380.347 65.1562C380.626 64.7131 380.765 64.1591 380.765 63.4943ZM397.369 59.3693L394.557 59.6761C394.477 59.392 394.338 59.125 394.139 58.875C393.946 58.625 393.685 58.4233 393.355 58.2699C393.026 58.1165 392.622 58.0398 392.145 58.0398C391.503 58.0398 390.963 58.179 390.526 58.4574C390.094 58.7358 389.881 59.0966 389.886 59.5398C389.881 59.9205 390.02 60.2301 390.304 60.4688C390.594 60.7074 391.071 60.9034 391.736 61.0568L393.969 61.5341C395.207 61.8011 396.128 62.2244 396.73 62.804C397.338 63.3835 397.645 64.142 397.651 65.0795C397.645 65.9034 397.403 66.6307 396.926 67.2614C396.455 67.8864 395.798 68.375 394.957 68.7273C394.116 69.0795 393.151 69.2557 392.06 69.2557C390.457 69.2557 389.168 68.9205 388.19 68.25C387.213 67.5739 386.631 66.6335 386.443 65.429L389.452 65.1392C389.588 65.7301 389.878 66.1761 390.321 66.4773C390.764 66.7784 391.341 66.929 392.051 66.929C392.784 66.929 393.372 66.7784 393.815 66.4773C394.264 66.1761 394.489 65.804 394.489 65.3608C394.489 64.9858 394.344 64.6761 394.054 64.4318C393.77 64.1875 393.327 64 392.724 63.8693L390.491 63.4006C389.236 63.1392 388.307 62.6989 387.705 62.0795C387.102 61.4545 386.804 60.6648 386.81 59.7102C386.804 58.9034 387.023 58.2045 387.466 57.6136C387.915 57.017 388.537 56.5568 389.332 56.233C390.134 55.9034 391.057 55.7386 392.102 55.7386C393.636 55.7386 394.844 56.0653 395.724 56.7188C396.611 57.3722 397.159 58.2557 397.369 59.3693ZM406.732 55.9091V58.2955H399.206V55.9091H406.732ZM401.064 52.7727H404.149V65.0625C404.149 65.4773 404.212 65.7955 404.337 66.017C404.467 66.233 404.638 66.3807 404.848 66.4602C405.058 66.5398 405.291 66.5795 405.547 66.5795C405.74 66.5795 405.916 66.5653 406.075 66.5369C406.24 66.5085 406.365 66.483 406.45 66.4602L406.97 68.8722C406.805 68.929 406.57 68.9915 406.263 69.0597C405.962 69.1278 405.592 69.1676 405.155 69.179C404.382 69.2017 403.686 69.0852 403.067 68.8295C402.447 68.5682 401.956 68.1648 401.592 67.6193C401.234 67.0739 401.058 66.392 401.064 65.5739V52.7727ZM414.881 69.2557C413.603 69.2557 412.495 68.9744 411.558 68.4119C410.62 67.8494 409.893 67.0625 409.376 66.0511C408.864 65.0398 408.609 63.858 408.609 62.5057C408.609 61.1534 408.864 59.9687 409.376 58.9517C409.893 57.9347 410.62 57.1449 411.558 56.5824C412.495 56.0199 413.603 55.7386 414.881 55.7386C416.16 55.7386 417.268 56.0199 418.205 56.5824C419.143 57.1449 419.867 57.9347 420.379 58.9517C420.896 59.9687 421.154 61.1534 421.154 62.5057C421.154 63.858 420.896 65.0398 420.379 66.0511C419.867 67.0625 419.143 67.8494 418.205 68.4119C417.268 68.9744 416.16 69.2557 414.881 69.2557ZM414.898 66.7841C415.592 66.7841 416.171 66.5937 416.637 66.2131C417.103 65.8267 417.45 65.3097 417.677 64.6619C417.91 64.0142 418.026 63.2926 418.026 62.4972C418.026 61.696 417.91 60.9716 417.677 60.3239C417.45 59.6705 417.103 59.1506 416.637 58.7642C416.171 58.3778 415.592 58.1847 414.898 58.1847C414.188 58.1847 413.597 58.3778 413.126 58.7642C412.66 59.1506 412.31 59.6705 412.077 60.3239C411.85 60.9716 411.737 61.696 411.737 62.4972C411.737 63.2926 411.85 64.0142 412.077 64.6619C412.31 65.3097 412.66 65.8267 413.126 66.2131C413.597 66.5937 414.188 66.7841 414.898 66.7841ZM423.773 69V55.9091H426.722V58.1335H426.875C427.148 57.3835 427.599 56.7983 428.23 56.3778C428.861 55.9517 429.614 55.7386 430.489 55.7386C431.375 55.7386 432.122 55.9545 432.73 56.3864C433.344 56.8125 433.776 57.3949 434.026 58.1335H434.162C434.452 57.4062 434.94 56.8267 435.628 56.3949C436.321 55.9574 437.142 55.7386 438.091 55.7386C439.295 55.7386 440.278 56.1193 441.04 56.8807C441.801 57.642 442.182 58.7528 442.182 60.2131V69H439.088V60.6903C439.088 59.8778 438.872 59.2841 438.44 58.9091C438.009 58.5284 437.48 58.3381 436.855 58.3381C436.111 58.3381 435.528 58.571 435.108 59.0369C434.693 59.4972 434.486 60.0966 434.486 60.8352V69H431.46V60.5625C431.46 59.8864 431.256 59.3466 430.847 58.9432C430.443 58.5398 429.915 58.3381 429.261 58.3381C428.818 58.3381 428.415 58.4517 428.051 58.679C427.688 58.9006 427.398 59.2159 427.182 59.625C426.966 60.0284 426.858 60.5 426.858 61.0398V69H423.773Z" fill="#1E1E1F"/>
<rect x="548" y="24" width="70" height="36" rx="12" fill="#EBF3FF"/>
<path d="M563.304 47V38.348H560.406V37.2H567.616V38.348H564.704V47H563.304ZM570.926 47.168C570.263 47.168 569.666 47.014 569.134 46.706C568.611 46.398 568.196 45.9687 567.888 45.418C567.589 44.858 567.44 44.214 567.44 43.486C567.44 42.7393 567.594 42.0907 567.902 41.54C568.21 40.98 568.63 40.546 569.162 40.238C569.694 39.93 570.291 39.776 570.954 39.776C571.626 39.776 572.223 39.93 572.746 40.238C573.269 40.546 573.679 40.9753 573.978 41.526C574.286 42.0767 574.44 42.7253 574.44 43.472C574.44 44.2187 574.286 44.8673 573.978 45.418C573.679 45.9687 573.264 46.398 572.732 46.706C572.2 47.014 571.598 47.168 570.926 47.168ZM570.926 45.964C571.309 45.964 571.654 45.8707 571.962 45.684C572.279 45.4973 572.531 45.222 572.718 44.858C572.914 44.4847 573.012 44.0227 573.012 43.472C573.012 42.9213 572.919 42.464 572.732 42.1C572.545 41.7267 572.293 41.4467 571.976 41.26C571.668 41.0733 571.327 40.98 570.954 40.98C570.581 40.98 570.235 41.0733 569.918 41.26C569.601 41.4467 569.344 41.7267 569.148 42.1C568.961 42.464 568.868 42.9213 568.868 43.472C568.868 44.0227 568.961 44.4847 569.148 44.858C569.344 45.222 569.596 45.4973 569.904 45.684C570.221 45.8707 570.562 45.964 570.926 45.964ZM576.087 50.08V39.944H577.347L577.487 41.036C577.636 40.8213 577.823 40.6207 578.047 40.434C578.271 40.238 578.537 40.0793 578.845 39.958C579.162 39.8367 579.531 39.776 579.951 39.776C580.623 39.776 581.211 39.9393 581.715 40.266C582.228 40.5927 582.625 41.036 582.905 41.596C583.194 42.1467 583.339 42.7767 583.339 43.486C583.339 44.1953 583.194 44.83 582.905 45.39C582.615 45.9407 582.214 46.3747 581.701 46.692C581.197 47.0093 580.609 47.168 579.937 47.168C579.386 47.168 578.901 47.0607 578.481 46.846C578.061 46.622 577.729 46.314 577.487 45.922V50.08H576.087ZM579.713 45.95C580.142 45.95 580.52 45.8473 580.847 45.642C581.183 45.4367 581.444 45.1473 581.631 44.774C581.827 44.4007 581.925 43.9667 581.925 43.472C581.925 42.9773 581.827 42.548 581.631 42.184C581.444 41.8107 581.183 41.5213 580.847 41.316C580.52 41.1013 580.142 40.994 579.713 40.994C579.274 40.994 578.887 41.1013 578.551 41.316C578.224 41.5213 577.967 41.8107 577.781 42.184C577.594 42.548 577.501 42.9773 577.501 43.472C577.501 43.9667 577.594 44.4007 577.781 44.774C577.967 45.1473 578.224 45.4367 578.551 45.642C578.887 45.8473 579.274 45.95 579.713 45.95ZM592.238 47.168C591.547 47.168 590.922 47.0327 590.362 46.762C589.802 46.482 589.354 46.062 589.018 45.502C588.691 44.9327 588.528 44.2093 588.528 43.332V37.2H589.928V43.346C589.928 43.934 590.026 44.4193 590.222 44.802C590.418 45.1753 590.688 45.4553 591.034 45.642C591.388 45.8193 591.799 45.908 592.266 45.908C592.742 45.908 593.152 45.8193 593.498 45.642C593.843 45.4553 594.109 45.1753 594.296 44.802C594.492 44.4193 594.59 43.934 594.59 43.346V37.2H595.99V43.332C595.99 44.2093 595.822 44.9327 595.486 45.502C595.15 46.062 594.697 46.482 594.128 46.762C593.558 47.0327 592.928 47.168 592.238 47.168ZM597.866 50.08V39.944H599.126L599.266 41.036C599.415 40.8213 599.602 40.6207 599.826 40.434C600.05 40.238 600.316 40.0793 600.624 39.958C600.941 39.8367 601.31 39.776 601.73 39.776C602.402 39.776 602.99 39.9393 603.494 40.266C604.007 40.5927 604.404 41.036 604.684 41.596C604.973 42.1467 605.118 42.7767 605.118 43.486C605.118 44.1953 604.973 44.83 604.684 45.39C604.395 45.9407 603.993 46.3747 603.48 46.692C602.976 47.0093 602.388 47.168 601.716 47.168C601.165 47.168 600.68 47.0607 600.26 46.846C599.84 46.622 599.509 46.314 599.266 45.922V50.08H597.866ZM601.492 45.95C601.921 45.95 602.299 45.8473 602.626 45.642C602.962 45.4367 603.223 45.1473 603.41 44.774C603.606 44.4007 603.704 43.9667 603.704 43.472C603.704 42.9773 603.606 42.548 603.41 42.184C603.223 41.8107 602.962 41.5213 602.626 41.316C602.299 41.1013 601.921 40.994 601.492 40.994C601.053 40.994 600.666 41.1013 600.33 41.316C600.003 41.5213 599.747 41.8107 599.56 42.184C599.373 42.548 599.28 42.9773 599.28 43.472C599.28 43.9667 599.373 44.4007 599.56 44.774C599.747 45.1473 600.003 45.4367 600.33 45.642C600.666 45.8473 601.053 45.95 601.492 45.95Z" fill="#0B57D0"/>
<path d="M356.878 105.145C356.205 105.142 355.629 104.964 355.152 104.612C354.675 104.26 354.31 103.747 354.057 103.074C353.804 102.401 353.678 101.589 353.678 100.641C353.678 99.6946 353.804 98.8864 354.057 98.2159C354.313 97.5455 354.679 97.0341 355.156 96.6818C355.636 96.3295 356.21 96.1534 356.878 96.1534C357.545 96.1534 358.118 96.331 358.595 96.6861C359.072 97.0384 359.438 97.5497 359.69 98.2202C359.946 98.8878 360.074 99.6946 360.074 100.641C360.074 101.592 359.947 102.405 359.695 103.078C359.442 103.749 359.077 104.261 358.599 104.616C358.122 104.969 357.548 105.145 356.878 105.145ZM356.878 104.007C357.469 104.007 357.93 103.719 358.263 103.142C358.598 102.565 358.766 101.732 358.766 100.641C358.766 99.9162 358.689 99.304 358.536 98.804C358.385 98.3011 358.168 97.9205 357.884 97.6619C357.602 97.4006 357.267 97.2699 356.878 97.2699C356.29 97.2699 355.828 97.5597 355.493 98.1392C355.158 98.7187 354.989 99.5526 354.986 100.641C354.986 101.368 355.061 101.983 355.212 102.486C355.365 102.986 355.582 103.365 355.864 103.624C356.145 103.879 356.483 104.007 356.878 104.007Z" fill="#2772F5"/>
<path d="M493.207 99.1108H491.878C491.827 98.8267 491.732 98.5767 491.592 98.3608C491.453 98.1449 491.283 97.9616 491.081 97.8111C490.879 97.6605 490.653 97.5469 490.403 97.4702C490.156 97.3935 489.893 97.3551 489.615 97.3551C489.112 97.3551 488.662 97.4815 488.264 97.7344C487.869 97.9872 487.557 98.358 487.327 98.8466C487.099 99.3352 486.986 99.9318 486.986 100.636C486.986 101.347 487.099 101.946 487.327 102.435C487.557 102.923 487.871 103.293 488.268 103.543C488.666 103.793 489.114 103.918 489.611 103.918C489.886 103.918 490.148 103.881 490.395 103.807C490.645 103.73 490.871 103.618 491.072 103.47C491.274 103.322 491.445 103.142 491.584 102.929C491.726 102.713 491.824 102.466 491.878 102.188L493.207 102.192C493.136 102.621 492.999 103.016 492.794 103.376C492.592 103.734 492.332 104.044 492.014 104.305C491.699 104.564 491.338 104.764 490.932 104.906C490.526 105.048 490.082 105.119 489.602 105.119C488.847 105.119 488.173 104.94 487.582 104.582C486.991 104.222 486.526 103.706 486.185 103.036C485.847 102.365 485.678 101.565 485.678 100.636C485.678 99.7045 485.848 98.9048 486.189 98.2372C486.53 97.5668 486.996 97.0526 487.587 96.6946C488.178 96.3338 488.849 96.1534 489.602 96.1534C490.065 96.1534 490.497 96.2202 490.898 96.3537C491.301 96.4844 491.663 96.6776 491.984 96.9332C492.305 97.1861 492.571 97.4957 492.781 97.8622C492.991 98.2259 493.134 98.642 493.207 99.1108ZM498.947 102.286V98.4545H500.225V105H498.973V103.866H498.904C498.754 104.216 498.512 104.507 498.18 104.74C497.85 104.97 497.44 105.085 496.948 105.085C496.528 105.085 496.156 104.993 495.832 104.808C495.511 104.621 495.258 104.344 495.073 103.977C494.892 103.611 494.801 103.158 494.801 102.618V98.4545H496.075V102.464C496.075 102.911 496.198 103.266 496.446 103.53C496.693 103.794 497.014 103.926 497.409 103.926C497.647 103.926 497.885 103.866 498.12 103.747C498.359 103.628 498.556 103.447 498.713 103.206C498.872 102.964 498.95 102.658 498.947 102.286ZM506.962 100.053L505.807 100.257C505.759 100.109 505.682 99.9687 505.577 99.8352C505.475 99.7017 505.336 99.5923 505.16 99.5071C504.984 99.4219 504.763 99.3793 504.499 99.3793C504.138 99.3793 503.837 99.4602 503.596 99.6222C503.354 99.7812 503.234 99.9872 503.234 100.24C503.234 100.459 503.315 100.635 503.477 100.768C503.638 100.902 503.9 101.011 504.261 101.097L505.3 101.335C505.903 101.474 506.352 101.689 506.647 101.979C506.942 102.268 507.09 102.645 507.09 103.108C507.09 103.5 506.977 103.849 506.749 104.156C506.525 104.46 506.211 104.699 505.807 104.872C505.407 105.045 504.942 105.132 504.414 105.132C503.681 105.132 503.083 104.976 502.62 104.663C502.157 104.348 501.873 103.901 501.768 103.321L502.999 103.134C503.076 103.455 503.234 103.697 503.472 103.862C503.711 104.024 504.022 104.105 504.405 104.105C504.823 104.105 505.157 104.018 505.407 103.845C505.657 103.669 505.782 103.455 505.782 103.202C505.782 102.997 505.705 102.825 505.552 102.686C505.401 102.547 505.17 102.442 504.857 102.371L503.749 102.128C503.138 101.989 502.687 101.767 502.394 101.463C502.104 101.159 501.959 100.774 501.959 100.308C501.959 99.9219 502.067 99.5838 502.283 99.294C502.499 99.0043 502.798 98.7784 503.178 98.6165C503.559 98.4517 503.995 98.3693 504.486 98.3693C505.194 98.3693 505.751 98.5227 506.157 98.8295C506.563 99.1335 506.832 99.5412 506.962 100.053ZM511.666 98.4545V99.4773H508.091V98.4545H511.666ZM509.05 96.8864H510.324V103.078C510.324 103.325 510.361 103.511 510.435 103.636C510.509 103.759 510.604 103.842 510.72 103.888C510.84 103.93 510.969 103.952 511.108 103.952C511.21 103.952 511.3 103.945 511.377 103.93C511.453 103.916 511.513 103.905 511.556 103.896L511.786 104.949C511.712 104.977 511.607 105.006 511.47 105.034C511.334 105.065 511.164 105.082 510.959 105.085C510.624 105.091 510.311 105.031 510.022 104.906C509.732 104.781 509.497 104.588 509.318 104.327C509.139 104.065 509.05 103.737 509.05 103.342V96.8864ZM515.883 105.132C515.269 105.132 514.734 104.991 514.276 104.71C513.819 104.429 513.464 104.036 513.211 103.53C512.958 103.024 512.832 102.433 512.832 101.757C512.832 101.078 512.958 100.484 513.211 99.9759C513.464 99.4673 513.819 99.0724 514.276 98.7912C514.734 98.5099 515.269 98.3693 515.883 98.3693C516.496 98.3693 517.032 98.5099 517.489 98.7912C517.947 99.0724 518.302 99.4673 518.555 99.9759C518.807 100.484 518.934 101.078 518.934 101.757C518.934 102.433 518.807 103.024 518.555 103.53C518.302 104.036 517.947 104.429 517.489 104.71C517.032 104.991 516.496 105.132 515.883 105.132ZM515.887 104.062C516.285 104.062 516.614 103.957 516.876 103.747C517.137 103.537 517.33 103.257 517.455 102.908C517.583 102.558 517.647 102.173 517.647 101.753C517.647 101.335 517.583 100.952 517.455 100.602C517.33 100.25 517.137 99.9673 516.876 99.7543C516.614 99.5412 516.285 99.4347 515.887 99.4347C515.486 99.4347 515.154 99.5412 514.89 99.7543C514.628 99.9673 514.434 100.25 514.306 100.602C514.181 100.952 514.118 101.335 514.118 101.753C514.118 102.173 514.181 102.558 514.306 102.908C514.434 103.257 514.628 103.537 514.89 103.747C515.154 103.957 515.486 104.062 515.887 104.062ZM520.476 105V98.4545H521.699V99.5199H521.78C521.916 99.1591 522.139 98.8778 522.449 98.6761C522.759 98.4716 523.129 98.3693 523.561 98.3693C523.999 98.3693 524.365 98.4716 524.661 98.6761C524.959 98.8807 525.179 99.1619 525.321 99.5199H525.389C525.546 99.1705 525.794 98.892 526.135 98.6847C526.476 98.4744 526.882 98.3693 527.354 98.3693C527.948 98.3693 528.432 98.5554 528.807 98.9276C529.185 99.2997 529.374 99.8608 529.374 100.611V105H528.1V100.73C528.1 100.287 527.979 99.9659 527.737 99.767C527.496 99.5682 527.208 99.4688 526.872 99.4688C526.458 99.4688 526.135 99.5966 525.905 99.8523C525.675 100.105 525.56 100.43 525.56 100.828V105H524.29V100.649C524.29 100.294 524.179 100.009 523.958 99.7926C523.736 99.5767 523.448 99.4688 523.093 99.4688C522.851 99.4688 522.628 99.5327 522.424 99.6605C522.222 99.7855 522.058 99.9602 521.933 100.185C521.811 100.409 521.75 100.669 521.75 100.964V105H520.476Z" fill="#85B4FF"/>
<rect x="353" y="114" width="178" height="8" rx="4" fill="#D6E6FF"/>
<rect x="353" y="114" width="112.633" height="8" rx="4" fill="#2772F5"/>
<path d="M564.044 112.744C563.813 114.919 562.581 116.957 560.541 118.134C557.154 120.09 552.821 118.929 550.865 115.541L550.657 115.18M549.955 111.256C550.187 109.081 551.419 107.043 553.458 105.865C556.846 103.909 561.178 105.07 563.134 108.458L563.343 108.819M549.911 117.055L550.521 114.778L552.798 115.388M561.202 108.611L563.479 109.221L564.089 106.945M557 108.25V112L559.083 113.25" stroke="#2772F5" stroke-width="1.6" stroke-linecap="round" stroke-linejoin="round"/>
<path d="M580.371 106.818V117H578.731L573.933 110.065H573.849V117H572.004V106.818H573.655L578.447 113.759H578.537V106.818H580.371ZM585.773 117.149C585.027 117.149 584.381 116.985 583.834 116.657C583.287 116.329 582.863 115.87 582.561 115.28C582.263 114.69 582.114 114 582.114 113.212C582.114 112.423 582.263 111.732 582.561 111.138C582.863 110.545 583.287 110.085 583.834 109.756C584.381 109.428 585.027 109.264 585.773 109.264C586.518 109.264 587.165 109.428 587.712 109.756C588.258 110.085 588.681 110.545 588.979 111.138C589.281 111.732 589.432 112.423 589.432 113.212C589.432 114 589.281 114.69 588.979 115.28C588.681 115.87 588.258 116.329 587.712 116.657C587.165 116.985 586.518 117.149 585.773 117.149ZM585.783 115.707C586.187 115.707 586.525 115.596 586.797 115.374C587.069 115.149 587.271 114.847 587.403 114.469C587.539 114.092 587.607 113.671 587.607 113.207C587.607 112.739 587.539 112.317 587.403 111.939C587.271 111.558 587.069 111.254 586.797 111.029C586.525 110.804 586.187 110.691 585.783 110.691C585.368 110.691 585.024 110.804 584.748 111.029C584.477 111.254 584.273 111.558 584.137 111.939C584.004 112.317 583.938 112.739 583.938 113.207C583.938 113.671 584.004 114.092 584.137 114.469C584.273 114.847 584.477 115.149 584.748 115.374C585.024 115.596 585.368 115.707 585.783 115.707ZM597.661 109.364L594.941 117H592.952L590.233 109.364H592.152L593.907 115.036H593.986L595.746 109.364H597.661ZM606.78 106.818V117H604.936V108.613H604.876L602.494 110.134V108.444L605.025 106.818H606.78ZM613.269 117.194C612.45 117.194 611.747 116.987 611.161 116.572C610.577 116.155 610.128 115.553 609.813 114.768C609.502 113.979 609.346 113.029 609.346 111.919C609.349 110.809 609.507 109.864 609.818 109.085C610.133 108.303 610.582 107.706 611.166 107.295C611.752 106.884 612.453 106.679 613.269 106.679C614.084 106.679 614.785 106.884 615.372 107.295C615.958 107.706 616.407 108.303 616.719 109.085C617.034 109.867 617.191 110.812 617.191 111.919C617.191 113.033 617.034 113.984 616.719 114.773C616.407 115.558 615.958 116.158 615.372 116.572C614.788 116.987 614.087 117.194 613.269 117.194ZM613.269 115.638C613.905 115.638 614.407 115.325 614.775 114.698C615.146 114.068 615.332 113.142 615.332 111.919C615.332 111.11 615.247 110.431 615.078 109.881C614.909 109.33 614.671 108.916 614.362 108.638C614.054 108.356 613.69 108.215 613.269 108.215C612.636 108.215 612.135 108.53 611.767 109.16C611.399 109.786 611.214 110.706 611.21 111.919C611.207 112.731 611.288 113.414 611.454 113.967C611.623 114.521 611.862 114.938 612.17 115.22C612.478 115.499 612.844 115.638 613.269 115.638Z" fill="#0B57D0"/>
<rect x="658.5" y="0.5" width="312" height="145" rx="23.5" fill="white"/>
<rect x="658.5" y="0.5" width="312" height="145" rx="23.5" stroke="#EDEDF0"/>
<path d="M683.119 39V28.8182H686.748C687.537 28.8182 688.191 28.9541 688.712 29.2259C689.235 29.4976 689.626 29.8738 689.885 30.3544C690.143 30.8317 690.273 31.3835 690.273 32.0099C690.273 32.633 690.142 33.1816 689.88 33.6555C689.621 34.1262 689.23 34.4924 688.707 34.7543C688.186 35.0161 687.532 35.147 686.743 35.147H683.994V33.8246H686.604C687.101 33.8246 687.505 33.7533 687.817 33.6108C688.132 33.4683 688.362 33.2611 688.508 32.9893C688.654 32.7176 688.727 32.3911 688.727 32.0099C688.727 31.6255 688.652 31.2924 688.503 31.0107C688.357 30.7289 688.127 30.5135 687.812 30.3643C687.5 30.2119 687.091 30.1357 686.584 30.1357H684.655V39H683.119ZM688.145 34.4062L690.661 39H688.911L686.445 34.4062H688.145ZM694.385 39.169C693.901 39.169 693.464 39.0795 693.073 38.9006C692.681 38.7183 692.372 38.4548 692.143 38.1101C691.917 37.7654 691.805 37.3428 691.805 36.8423C691.805 36.4115 691.888 36.0568 692.053 35.7784C692.219 35.5 692.443 35.2796 692.725 35.1172C693.006 34.9548 693.321 34.8321 693.669 34.7493C694.017 34.6664 694.372 34.6035 694.733 34.5604C695.19 34.5073 695.562 34.4643 695.847 34.4311C696.132 34.3946 696.339 34.3366 696.468 34.2571C696.597 34.1776 696.662 34.0483 696.662 33.8693V33.8345C696.662 33.4003 696.539 33.0639 696.294 32.8253C696.052 32.5866 695.691 32.4673 695.21 32.4673C694.71 32.4673 694.315 32.5784 694.027 32.8004C693.742 33.0192 693.545 33.2628 693.435 33.5312L692.038 33.2131C692.204 32.7491 692.446 32.3745 692.764 32.0895C693.086 31.8011 693.455 31.5923 693.873 31.4631C694.291 31.3305 694.73 31.2642 695.19 31.2642C695.495 31.2642 695.819 31.3007 696.16 31.3736C696.505 31.4432 696.826 31.5724 697.124 31.7614C697.426 31.9503 697.673 32.2204 697.865 32.5717C698.057 32.9197 698.153 33.3722 698.153 33.929V39H696.702V37.956H696.642C696.546 38.1482 696.402 38.3371 696.21 38.5227C696.017 38.7083 695.77 38.8625 695.469 38.9851C695.167 39.1077 694.806 39.169 694.385 39.169ZM694.708 37.9759C695.119 37.9759 695.47 37.8946 695.762 37.7322C696.057 37.5698 696.281 37.3577 696.433 37.0959C696.589 36.8307 696.667 36.5473 696.667 36.2457V35.2614C696.614 35.3144 696.511 35.3641 696.359 35.4105C696.21 35.4536 696.039 35.4917 695.847 35.5249C695.654 35.5547 695.467 35.5829 695.285 35.6094C695.103 35.6326 694.95 35.6525 694.828 35.669C694.539 35.7055 694.276 35.7668 694.037 35.853C693.802 35.9392 693.613 36.0634 693.47 36.2259C693.331 36.3849 693.261 36.5971 693.261 36.8622C693.261 37.2301 693.397 37.5085 693.669 37.6974C693.941 37.883 694.287 37.9759 694.708 37.9759ZM703.838 31.3636V32.5568H699.667V31.3636H703.838ZM700.786 29.5341H702.272V36.7578C702.272 37.0462 702.315 37.2633 702.401 37.4091C702.487 37.5516 702.598 37.6494 702.734 37.7024C702.874 37.7521 703.024 37.777 703.187 37.777C703.306 37.777 703.411 37.7687 703.5 37.7521C703.589 37.7356 703.659 37.7223 703.709 37.7124L703.977 38.9403C703.891 38.9735 703.768 39.0066 703.609 39.0398C703.45 39.0762 703.251 39.0961 703.013 39.0994C702.622 39.1061 702.257 39.0365 701.919 38.8906C701.581 38.7448 701.308 38.5194 701.099 38.2145C700.89 37.9096 700.786 37.5268 700.786 37.0661V29.5341ZM708.832 39.1541C708.079 39.1541 707.431 38.9934 706.888 38.6719C706.347 38.3471 705.93 37.8913 705.635 37.3047C705.343 36.7147 705.197 36.0237 705.197 35.2315C705.197 34.4493 705.343 33.7599 705.635 33.1634C705.93 32.5668 706.341 32.1011 706.868 31.7663C707.398 31.4316 708.018 31.2642 708.727 31.2642C709.158 31.2642 709.576 31.3355 709.98 31.478C710.384 31.6205 710.747 31.8442 711.069 32.1491C711.39 32.4541 711.644 32.8501 711.829 33.3374C712.015 33.8213 712.108 34.4096 712.108 35.1023V35.6293H706.038V34.5156H710.651C710.651 34.1245 710.572 33.7782 710.413 33.4766C710.253 33.1716 710.03 32.9313 709.741 32.7557C709.456 32.58 709.122 32.4922 708.737 32.4922C708.32 32.4922 707.955 32.5949 707.643 32.8004C707.335 33.0026 707.096 33.2678 706.927 33.5959C706.762 33.9207 706.679 34.2737 706.679 34.6548V35.5249C706.679 36.0353 706.768 36.4695 706.947 36.8274C707.13 37.1854 707.383 37.4588 707.708 37.6477C708.033 37.8333 708.412 37.9261 708.846 37.9261C709.128 37.9261 709.385 37.8864 709.617 37.8068C709.849 37.724 710.05 37.6013 710.219 37.4389C710.388 37.2765 710.517 37.076 710.606 36.8374L712.013 37.0909C711.901 37.5052 711.699 37.8681 711.407 38.1797C711.119 38.4879 710.756 38.7282 710.318 38.9006C709.884 39.0696 709.388 39.1541 708.832 39.1541ZM719.229 28.8182V39H717.742V28.8182H719.229ZM721.369 39V31.3636H722.855V39H721.369ZM722.119 30.1854C721.861 30.1854 721.639 30.0992 721.453 29.9268C721.271 29.7512 721.18 29.5424 721.18 29.3004C721.18 29.0552 721.271 28.8464 721.453 28.674C721.639 28.4983 721.861 28.4105 722.119 28.4105C722.378 28.4105 722.598 28.4983 722.781 28.674C722.966 28.8464 723.059 29.0552 723.059 29.3004C723.059 29.5424 722.966 29.7512 722.781 29.9268C722.598 30.0992 722.378 30.1854 722.119 30.1854ZM724.995 39V31.3636H726.422V32.6065H726.516C726.675 32.1856 726.935 31.8575 727.297 31.6222C727.658 31.3835 728.091 31.2642 728.594 31.2642C729.105 31.2642 729.532 31.3835 729.877 31.6222C730.225 31.8608 730.482 32.1889 730.648 32.6065H730.727C730.909 32.1989 731.199 31.8741 731.597 31.6321C731.995 31.3868 732.469 31.2642 733.019 31.2642C733.712 31.2642 734.277 31.4813 734.714 31.9155C735.155 32.3497 735.376 33.0043 735.376 33.8793V39H733.889V34.0185C733.889 33.5014 733.748 33.1269 733.467 32.8949C733.185 32.6629 732.848 32.5469 732.457 32.5469C731.973 32.5469 731.597 32.696 731.329 32.9943C731.06 33.2893 730.926 33.6688 730.926 34.1328V39H729.444V33.924C729.444 33.5097 729.315 33.1766 729.057 32.9247C728.798 32.6728 728.462 32.5469 728.047 32.5469C727.766 32.5469 727.506 32.6214 727.267 32.7706C727.032 32.9164 726.841 33.1203 726.695 33.3821C726.553 33.6439 726.481 33.9472 726.481 34.2919V39H724.995ZM737.508 39V31.3636H738.994V39H737.508ZM738.259 30.1854C738 30.1854 737.778 30.0992 737.592 29.9268C737.41 29.7512 737.319 29.5424 737.319 29.3004C737.319 29.0552 737.41 28.8464 737.592 28.674C737.778 28.4983 738 28.4105 738.259 28.4105C738.517 28.4105 738.738 28.4983 738.92 28.674C739.105 28.8464 739.198 29.0552 739.198 29.3004C739.198 29.5424 739.105 29.7512 738.92 29.9268C738.738 30.0992 738.517 30.1854 738.259 30.1854ZM744.699 31.3636V32.5568H740.528V31.3636H744.699ZM741.646 29.5341H743.133V36.7578C743.133 37.0462 743.176 37.2633 743.262 37.4091C743.348 37.5516 743.459 37.6494 743.595 37.7024C743.734 37.7521 743.885 37.777 744.048 37.777C744.167 37.777 744.271 37.7687 744.361 37.7521C744.45 37.7356 744.52 37.7223 744.57 37.7124L744.838 38.9403C744.752 38.9735 744.629 39.0066 744.47 39.0398C744.311 39.0762 744.112 39.0961 743.874 39.0994C743.483 39.1061 743.118 39.0365 742.78 38.8906C742.442 38.7448 742.168 38.5194 741.96 38.2145C741.751 37.9096 741.646 37.5268 741.646 37.0661V29.5341Z" fill="#AEAEB2"/>
<path d="M698.662 57.4347H695.474C695.384 56.9119 695.216 56.4489 694.972 56.0455C694.727 55.6364 694.423 55.2898 694.06 55.0057C693.696 54.7216 693.281 54.5085 692.815 54.3665C692.355 54.2188 691.858 54.1449 691.324 54.1449C690.375 54.1449 689.534 54.3835 688.801 54.8608C688.068 55.3324 687.494 56.0256 687.08 56.9403C686.665 57.8494 686.457 58.9602 686.457 60.2727C686.457 61.608 686.665 62.733 687.08 63.6477C687.5 64.5568 688.074 65.2443 688.801 65.7102C689.534 66.1705 690.372 66.4006 691.315 66.4006C691.838 66.4006 692.327 66.3324 692.781 66.196C693.241 66.054 693.653 65.8466 694.017 65.5739C694.386 65.3011 694.696 64.9659 694.946 64.5682C695.202 64.1705 695.378 63.7159 695.474 63.2045L698.662 63.2216C698.543 64.0511 698.284 64.8295 697.886 65.5568C697.494 66.2841 696.98 66.9261 696.344 67.483C695.707 68.0341 694.963 68.4659 694.111 68.7784C693.259 69.0852 692.313 69.2386 691.273 69.2386C689.739 69.2386 688.369 68.8835 687.165 68.1733C685.96 67.4631 685.011 66.4375 684.318 65.0966C683.625 63.7557 683.278 62.1477 683.278 60.2727C683.278 58.392 683.628 56.7841 684.327 55.4489C685.026 54.108 685.977 53.0824 687.182 52.3722C688.386 51.6619 689.75 51.3068 691.273 51.3068C692.244 51.3068 693.148 51.4432 693.983 51.7159C694.818 51.9886 695.563 52.3892 696.216 52.9176C696.869 53.4403 697.406 54.0824 697.827 54.8438C698.253 55.5994 698.531 56.4631 698.662 57.4347ZM709.765 63.4943V55.9091H712.85V69H709.859V66.6733H709.722C709.427 67.4062 708.941 68.0057 708.265 68.4716C707.594 68.9375 706.768 69.1705 705.785 69.1705C704.927 69.1705 704.168 68.9801 703.509 68.5994C702.856 68.2131 702.344 67.6534 701.975 66.9205C701.606 66.1818 701.421 65.2898 701.421 64.2443V55.9091H704.506V63.767C704.506 64.5966 704.734 65.2557 705.188 65.7443C705.643 66.233 706.239 66.4773 706.978 66.4773C707.433 66.4773 707.873 66.3665 708.299 66.1449C708.725 65.9233 709.075 65.5938 709.347 65.1562C709.626 64.7131 709.765 64.1591 709.765 63.4943ZM726.369 59.3693L723.557 59.6761C723.477 59.392 723.338 59.125 723.139 58.875C722.946 58.625 722.685 58.4233 722.355 58.2699C722.026 58.1165 721.622 58.0398 721.145 58.0398C720.503 58.0398 719.963 58.179 719.526 58.4574C719.094 58.7358 718.881 59.0966 718.886 59.5398C718.881 59.9205 719.02 60.2301 719.304 60.4688C719.594 60.7074 720.071 60.9034 720.736 61.0568L722.969 61.5341C724.207 61.8011 725.128 62.2244 725.73 62.804C726.338 63.3835 726.645 64.142 726.651 65.0795C726.645 65.9034 726.403 66.6307 725.926 67.2614C725.455 67.8864 724.798 68.375 723.957 68.7273C723.116 69.0795 722.151 69.2557 721.06 69.2557C719.457 69.2557 718.168 68.9205 717.19 68.25C716.213 67.5739 715.631 66.6335 715.443 65.429L718.452 65.1392C718.588 65.7301 718.878 66.1761 719.321 66.4773C719.764 66.7784 720.341 66.929 721.051 66.929C721.784 66.929 722.372 66.7784 722.815 66.4773C723.264 66.1761 723.489 65.804 723.489 65.3608C723.489 64.9858 723.344 64.6761 723.054 64.4318C722.77 64.1875 722.327 64 721.724 63.8693L719.491 63.4006C718.236 63.1392 717.307 62.6989 716.705 62.0795C716.102 61.4545 715.804 60.6648 715.81 59.7102C715.804 58.9034 716.023 58.2045 716.466 57.6136C716.915 57.017 717.537 56.5568 718.332 56.233C719.134 55.9034 720.057 55.7386 721.102 55.7386C722.636 55.7386 723.844 56.0653 724.724 56.7188C725.611 57.3722 726.159 58.2557 726.369 59.3693ZM735.732 55.9091V58.2955H728.206V55.9091H735.732ZM730.064 52.7727H733.149V65.0625C733.149 65.4773 733.212 65.7955 733.337 66.017C733.467 66.233 733.638 66.3807 733.848 66.4602C734.058 66.5398 734.291 66.5795 734.547 66.5795C734.74 66.5795 734.916 66.5653 735.075 66.5369C735.24 66.5085 735.365 66.483 735.45 66.4602L735.97 68.8722C735.805 68.929 735.57 68.9915 735.263 69.0597C734.962 69.1278 734.592 69.1676 734.155 69.179C733.382 69.2017 732.686 69.0852 732.067 68.8295C731.447 68.5682 730.956 68.1648 730.592 67.6193C730.234 67.0739 730.058 66.392 730.064 65.5739V52.7727ZM743.881 69.2557C742.603 69.2557 741.495 68.9744 740.558 68.4119C739.62 67.8494 738.893 67.0625 738.376 66.0511C737.864 65.0398 737.609 63.858 737.609 62.5057C737.609 61.1534 737.864 59.9687 738.376 58.9517C738.893 57.9347 739.62 57.1449 740.558 56.5824C741.495 56.0199 742.603 55.7386 743.881 55.7386C745.16 55.7386 746.268 56.0199 747.205 56.5824C748.143 57.1449 748.867 57.9347 749.379 58.9517C749.896 59.9687 750.154 61.1534 750.154 62.5057C750.154 63.858 749.896 65.0398 749.379 66.0511C748.867 67.0625 748.143 67.8494 747.205 68.4119C746.268 68.9744 745.16 69.2557 743.881 69.2557ZM743.898 66.7841C744.592 66.7841 745.171 66.5937 745.637 66.2131C746.103 65.8267 746.45 65.3097 746.677 64.6619C746.91 64.0142 747.026 63.2926 747.026 62.4972C747.026 61.696 746.91 60.9716 746.677 60.3239C746.45 59.6705 746.103 59.1506 745.637 58.7642C745.171 58.3778 744.592 58.1847 743.898 58.1847C743.188 58.1847 742.597 58.3778 742.126 58.7642C741.66 59.1506 741.31 59.6705 741.077 60.3239C740.85 60.9716 740.737 61.696 740.737 62.4972C740.737 63.2926 740.85 64.0142 741.077 64.6619C741.31 65.3097 741.66 65.8267 742.126 66.2131C742.597 66.5937 743.188 66.7841 743.898 66.7841ZM752.773 69V55.9091H755.722V58.1335H755.875C756.148 57.3835 756.599 56.7983 757.23 56.3778C757.861 55.9517 758.614 55.7386 759.489 55.7386C760.375 55.7386 761.122 55.9545 761.73 56.3864C762.344 56.8125 762.776 57.3949 763.026 58.1335H763.162C763.452 57.4062 763.94 56.8267 764.628 56.3949C765.321 55.9574 766.142 55.7386 767.091 55.7386C768.295 55.7386 769.278 56.1193 770.04 56.8807C770.801 57.642 771.182 58.7528 771.182 60.2131V69H768.088V60.6903C768.088 59.8778 767.872 59.2841 767.44 58.9091C767.009 58.5284 766.48 58.3381 765.855 58.3381C765.111 58.3381 764.528 58.571 764.108 59.0369C763.693 59.4972 763.486 60.0966 763.486 60.8352V69H760.46V60.5625C760.46 59.8864 760.256 59.3466 759.847 58.9432C759.443 58.5398 758.915 58.3381 758.261 58.3381C757.818 58.3381 757.415 58.4517 757.051 58.679C756.688 58.9006 756.398 59.2159 756.182 59.625C755.966 60.0284 755.858 60.5 755.858 61.0398V69H752.773Z" fill="#1E1E1F"/>
<rect x="871" y="24" width="76" height="36" rx="12" fill="#EBF3FF"/>
<path d="M888.32 47.168C887.359 47.168 886.528 46.958 885.828 46.538C885.137 46.1087 884.601 45.516 884.218 44.76C883.845 43.9947 883.658 43.108 883.658 42.1C883.658 41.1013 883.845 40.2193 884.218 39.454C884.601 38.6887 885.137 38.096 885.828 37.676C886.528 37.2467 887.359 37.032 888.32 37.032C889.468 37.032 890.397 37.3073 891.106 37.858C891.825 38.4087 892.282 39.1833 892.478 40.182H890.938C890.798 39.6033 890.509 39.1413 890.07 38.796C889.641 38.4507 889.057 38.278 888.32 38.278C887.657 38.278 887.083 38.432 886.598 38.74C886.113 39.048 885.739 39.4867 885.478 40.056C885.217 40.6253 885.086 41.3067 885.086 42.1C885.086 42.8933 885.217 43.5793 885.478 44.158C885.739 44.7273 886.113 45.166 886.598 45.474C887.083 45.7727 887.657 45.922 888.32 45.922C889.057 45.922 889.641 45.7587 890.07 45.432C890.509 45.096 890.798 44.6433 890.938 44.074H892.478C892.282 45.0447 891.825 45.8053 891.106 46.356C890.397 46.8973 889.468 47.168 888.32 47.168ZM894.083 47V36.92H895.483V41.092C895.716 40.6813 896.038 40.3593 896.449 40.126C896.869 39.8927 897.331 39.776 897.835 39.776C898.395 39.776 898.876 39.8927 899.277 40.126C899.678 40.35 899.986 40.6907 900.201 41.148C900.416 41.596 900.523 42.1607 900.523 42.842V47H899.137V42.982C899.137 42.3287 898.997 41.834 898.717 41.498C898.437 41.1527 898.022 40.98 897.471 40.98C897.098 40.98 896.762 41.0687 896.463 41.246C896.164 41.4233 895.926 41.6847 895.749 42.03C895.572 42.366 895.483 42.7767 895.483 43.262V47H894.083ZM904.651 47.168C904.073 47.168 903.592 47.07 903.209 46.874C902.827 46.678 902.542 46.4167 902.355 46.09C902.169 45.754 902.075 45.3947 902.075 45.012C902.075 44.5453 902.197 44.1487 902.439 43.822C902.682 43.486 903.027 43.2293 903.475 43.052C903.923 42.8747 904.46 42.786 905.085 42.786H906.919C906.919 42.3753 906.859 42.0347 906.737 41.764C906.616 41.4933 906.434 41.2927 906.191 41.162C905.958 41.022 905.659 40.952 905.295 40.952C904.875 40.952 904.516 41.0547 904.217 41.26C903.919 41.456 903.732 41.75 903.657 42.142H902.257C902.313 41.6473 902.481 41.2273 902.761 40.882C903.051 40.5273 903.419 40.2567 903.867 40.07C904.315 39.874 904.791 39.776 905.295 39.776C905.958 39.776 906.513 39.8927 906.961 40.126C907.409 40.3593 907.745 40.6907 907.969 41.12C908.203 41.54 908.319 42.044 908.319 42.632V47H907.101L906.989 45.81C906.887 45.9967 906.765 46.174 906.625 46.342C906.485 46.51 906.317 46.6547 906.121 46.776C905.935 46.8973 905.715 46.9907 905.463 47.056C905.221 47.1307 904.95 47.168 904.651 47.168ZM904.917 46.034C905.216 46.034 905.487 45.9733 905.729 45.852C905.972 45.7307 906.177 45.5673 906.345 45.362C906.523 45.1473 906.653 44.9093 906.737 44.648C906.831 44.3773 906.882 44.102 906.891 43.822V43.78H905.225C904.824 43.78 904.497 43.8313 904.245 43.934C904.003 44.0273 903.825 44.158 903.713 44.326C903.601 44.494 903.545 44.69 903.545 44.914C903.545 45.1473 903.597 45.348 903.699 45.516C903.811 45.6747 903.97 45.8007 904.175 45.894C904.381 45.9873 904.628 46.034 904.917 46.034ZM910.106 47V39.944H911.366L911.45 41.148C911.674 40.728 911.992 40.3967 912.402 40.154C912.813 39.902 913.284 39.776 913.816 39.776C914.376 39.776 914.857 39.888 915.258 40.112C915.66 40.336 915.972 40.6767 916.196 41.134C916.42 41.582 916.532 42.1467 916.532 42.828V47H915.132V42.968C915.132 42.3147 914.988 41.82 914.698 41.484C914.409 41.148 913.989 40.98 913.438 40.98C913.074 40.98 912.748 41.0687 912.458 41.246C912.169 41.414 911.936 41.666 911.758 42.002C911.59 42.338 911.506 42.7487 911.506 43.234V47H910.106ZM921.893 50.248C921.436 50.248 921.006 50.192 920.605 50.08C920.204 49.968 919.84 49.7953 919.513 49.562C919.186 49.338 918.916 49.058 918.701 48.722C918.486 48.3953 918.342 48.0127 918.267 47.574H919.667C919.751 47.8633 919.891 48.1153 920.087 48.33C920.292 48.554 920.544 48.7267 920.843 48.848C921.151 48.9693 921.492 49.03 921.865 49.03C922.285 49.03 922.663 48.9413 922.999 48.764C923.335 48.596 923.601 48.33 923.797 47.966C923.993 47.6113 924.091 47.1633 924.091 46.622V45.67C923.942 45.9127 923.75 46.1413 923.517 46.356C923.284 46.5707 922.999 46.7433 922.663 46.874C922.336 47.0047 921.958 47.07 921.529 47.07C920.866 47.07 920.274 46.9113 919.751 46.594C919.238 46.2767 918.827 45.8427 918.519 45.292C918.211 44.7413 918.057 44.116 918.057 43.416C918.057 42.7067 918.211 42.0813 918.519 41.54C918.827 40.9893 919.242 40.56 919.765 40.252C920.297 39.9347 920.885 39.776 921.529 39.776C921.921 39.776 922.28 39.8367 922.607 39.958C922.934 40.07 923.223 40.2287 923.475 40.434C923.727 40.63 923.932 40.8493 924.091 41.092L924.217 39.944H925.491V46.58C925.491 47.1773 925.398 47.7 925.211 48.148C925.034 48.6053 924.782 48.988 924.455 49.296C924.138 49.604 923.76 49.8373 923.321 49.996C922.882 50.164 922.406 50.248 921.893 50.248ZM921.767 45.852C922.215 45.852 922.612 45.7493 922.957 45.544C923.302 45.3293 923.568 45.04 923.755 44.676C923.951 44.312 924.049 43.892 924.049 43.416C924.049 42.9307 923.951 42.5107 923.755 42.156C923.568 41.792 923.302 41.5073 922.957 41.302C922.612 41.0967 922.215 40.994 921.767 40.994C921.328 40.994 920.936 41.0967 920.591 41.302C920.246 41.5073 919.975 41.792 919.779 42.156C919.583 42.5107 919.485 42.9307 919.485 43.416C919.485 43.892 919.583 44.312 919.779 44.676C919.975 45.04 920.246 45.3293 920.591 45.544C920.936 45.7493 921.328 45.852 921.767 45.852ZM930.593 47.168C929.921 47.168 929.324 47.014 928.801 46.706C928.279 46.398 927.868 45.9687 927.569 45.418C927.28 44.8673 927.135 44.228 927.135 43.5C927.135 42.7533 927.28 42.1047 927.569 41.554C927.868 40.994 928.279 40.56 928.801 40.252C929.324 39.9347 929.931 39.776 930.621 39.776C931.312 39.776 931.905 39.93 932.399 40.238C932.894 40.546 933.277 40.9567 933.547 41.47C933.818 41.974 933.953 42.534 933.953 43.15C933.953 43.2433 933.949 43.346 933.939 43.458C933.939 43.5607 933.935 43.6773 933.925 43.808H928.157V42.814H932.553C932.525 42.226 932.329 41.7687 931.965 41.442C931.601 41.106 931.149 40.938 930.607 40.938C930.225 40.938 929.875 41.0267 929.557 41.204C929.24 41.372 928.983 41.624 928.787 41.96C928.601 42.2867 928.507 42.702 928.507 43.206V43.598C928.507 44.1207 928.601 44.564 928.787 44.928C928.983 45.2827 929.24 45.5533 929.557 45.74C929.875 45.9173 930.22 46.006 930.593 46.006C931.041 46.006 931.41 45.908 931.699 45.712C931.989 45.516 932.203 45.25 932.343 44.914H933.743C933.622 45.3433 933.417 45.7307 933.127 46.076C932.838 46.412 932.479 46.678 932.049 46.874C931.629 47.07 931.144 47.168 930.593 47.168Z" fill="#0B57D0"/>
<line x1="682" y1="105.5" x2="942" y2="105.5" stroke="#C2DAFF" stroke-dasharray="2 2"/>
<path d="M682 109C682 106.791 683.791 105 686 105C688.209 105 690 106.791 690 109V118C690 120.209 688.209 122 686 122C683.791 122 682 120.209 682 118V109Z" fill="url(#paint0_linear_295_2315)"/>
<path d="M694 102C694 99.7909 695.791 98 698 98C700.209 98 702 99.7909 702 102V118C702 120.209 700.209 122 698 122C695.791 122 694 120.209 694 118V102Z" fill="url(#paint1_linear_295_2315)"/>
<path d="M706 102C706 99.7909 707.791 98 710 98C712.209 98 714 99.7909 714 102V118C714 120.209 712.209 122 710 122C707.791 122 706 120.209 706 118V102Z" fill="url(#paint2_linear_295_2315)"/>
<path d="M718 109C718 106.791 719.791 105 722 105C724.209 105 726 106.791 726 109V118C726 120.209 724.209 122 722 122C719.791 122 718 120.209 718 118V109Z" fill="url(#paint3_linear_295_2315)"/>
<path d="M730 109C730 106.791 731.791 105 734 105C736.209 105 738 106.791 738 109V118C738 120.209 736.209 122 734 122C731.791 122 730 120.209 730 118V109Z" fill="url(#paint4_linear_295_2315)"/>
<path d="M742 105C742 102.791 743.791 101 746 101C748.209 101 750 102.791 750 105V118C750 120.209 748.209 122 746 122C743.791 122 742 120.209 742 118V105Z" fill="url(#paint5_linear_295_2315)"/>
<path d="M754 96C754 93.7909 755.791 92 758 92C760.209 92 762 93.7909 762 96V118C762 120.209 760.209 122 758 122C755.791 122 754 120.209 754 118V96Z" fill="url(#paint6_linear_295_2315)"/>
<path d="M766 98C766 95.7909 767.791 94 770 94C772.209 94 774 95.7909 774 98V118C774 120.209 772.209 122 770 122C767.791 122 766 120.209 766 118V98Z" fill="url(#paint7_linear_295_2315)"/>
<path d="M778 105C778 102.791 779.791 101 782 101C784.209 101 786 102.791 786 105V118C786 120.209 784.209 122 782 122C779.791 122 778 120.209 778 118V105Z" fill="url(#paint8_linear_295_2315)"/>
<path d="M790 109C790 106.791 791.791 105 794 105C796.209 105 798 106.791 798 109V118C798 120.209 796.209 122 794 122C791.791 122 790 120.209 790 118V109Z" fill="url(#paint9_linear_295_2315)"/>
<path d="M802 109C802 106.791 803.791 105 806 105C808.209 105 810 106.791 810 109V118C810 120.209 808.209 122 806 122C803.791 122 802 120.209 802 118V109Z" fill="url(#paint10_linear_295_2315)"/>
<path d="M814 105C814 102.791 815.791 101 818 101C820.209 101 822 102.791 822 105V118C822 120.209 820.209 122 818 122C815.791 122 814 120.209 814 118V105Z" fill="url(#paint11_linear_295_2315)"/>
<path d="M826 98C826 95.7909 827.791 94 830 94C832.209 94 834 95.7909 834 98V118C834 120.209 832.209 122 830 122C827.791 122 826 120.209 826 118V98Z" fill="url(#paint12_linear_295_2315)"/>
<path d="M838 105C838 102.791 839.791 101 842 101C844.209 101 846 102.791 846 105V118C846 120.209 844.209 122 842 122C839.791 122 838 120.209 838 118V105Z" fill="url(#paint13_linear_295_2315)"/>
<path d="M850 102C850 99.7909 851.791 98 854 98C856.209 98 858 99.7909 858 102V118C858 120.209 856.209 122 854 122C851.791 122 850 120.209 850 118V102Z" fill="url(#paint14_linear_295_2315)"/>
<path d="M862 109C862 106.791 863.791 105 866 105C868.209 105 870 106.791 870 109V118C870 120.209 868.209 122 866 122C863.791 122 862 120.209 862 118V109Z" fill="url(#paint15_linear_295_2315)"/>
<path d="M874 108C874 105.791 875.791 104 878 104C880.209 104 882 105.791 882 108V118C882 120.209 880.209 122 878 122C875.791 122 874 120.209 874 118V108Z" fill="url(#paint16_linear_295_2315)"/>
<path d="M886 109C886 106.791 887.791 105 890 105C892.209 105 894 106.791 894 109V118C894 120.209 892.209 122 890 122C887.791 122 886 120.209 886 118V109Z" fill="url(#paint17_linear_295_2315)"/>
<path d="M898 105C898 102.791 899.791 101 902 101C904.209 101 906 102.791 906 105V118C906 120.209 904.209 122 902 122C899.791 122 898 120.209 898 118V105Z" fill="url(#paint18_linear_295_2315)"/>
<path d="M910 98C910 95.7909 911.791 94 914 94C916.209 94 918 95.7909 918 98V118C918 120.209 916.209 122 914 122C911.791 122 910 120.209 910 118V98Z" fill="url(#paint19_linear_295_2315)"/>
<path d="M922 98C922 95.7909 923.791 94 926 94C928.209 94 930 95.7909 930 98V118C930 120.209 928.209 122 926 122C923.791 122 922 120.209 922 118V98Z" fill="url(#paint20_linear_295_2315)"/>
<path d="M934 109C934 106.791 935.791 105 938 105C940.209 105 942 106.791 942 109V118C942 120.209 940.209 122 938 122C935.791 122 934 120.209 934 118V109Z" fill="url(#paint21_linear_295_2315)"/>
<defs>
<linearGradient id="paint0_linear_295_2315" x1="812" y1="88.5" x2="812" y2="122" gradientUnits="userSpaceOnUse">
<stop offset="0.489483" stop-color="#FF6753"/>
<stop offset="0.489583" stop-color="#2772F5"/>
</linearGradient>
<linearGradient id="paint1_linear_295_2315" x1="812" y1="88.5" x2="812" y2="122" gradientUnits="userSpaceOnUse">
<stop offset="0.489483" stop-color="#FF6753"/>
<stop offset="0.489583" stop-color="#2772F5"/>
</linearGradient>
<linearGradient id="paint2_linear_295_2315" x1="812" y1="88.5" x2="812" y2="122" gradientUnits="userSpaceOnUse">
<stop offset="0.489483" stop-color="#FF6753"/>
<stop offset="0.489583" stop-color="#2772F5"/>
</linearGradient>
<linearGradient id="paint3_linear_295_2315" x1="812" y1="88.5" x2="812" y2="122" gradientUnits="userSpaceOnUse">
<stop offset="0.489483" stop-color="#FF6753"/>
<stop offset="0.489583" stop-color="#2772F5"/>
</linearGradient>
<linearGradient id="paint4_linear_295_2315" x1="812" y1="88.5" x2="812" y2="122" gradientUnits="userSpaceOnUse">
<stop offset="0.489483" stop-color="#FF6753"/>
<stop offset="0.489583" stop-color="#2772F5"/>
</linearGradient>
<linearGradient id="paint5_linear_295_2315" x1="812" y1="88.5" x2="812" y2="122" gradientUnits="userSpaceOnUse">
<stop offset="0.489483" stop-color="#FF6753"/>
<stop offset="0.489583" stop-color="#2772F5"/>
</linearGradient>
<linearGradient id="paint6_linear_295_2315" x1="812" y1="88.5" x2="812" y2="122" gradientUnits="userSpaceOnUse">
<stop offset="0.489483" stop-color="#FF6753"/>
<stop offset="0.489583" stop-color="#2772F5"/>
</linearGradient>
<linearGradient id="paint7_linear_295_2315" x1="812" y1="88.5" x2="812" y2="122" gradientUnits="userSpaceOnUse">
<stop offset="0.489483" stop-color="#FF6753"/>
<stop offset="0.489583" stop-color="#2772F5"/>
</linearGradient>
<linearGradient id="paint8_linear_295_2315" x1="812" y1="88.5" x2="812" y2="122" gradientUnits="userSpaceOnUse">
<stop offset="0.489483" stop-color="#FF6753"/>
<stop offset="0.489583" stop-color="#2772F5"/>
</linearGradient>
<linearGradient id="paint9_linear_295_2315" x1="812" y1="88.5" x2="812" y2="122" gradientUnits="userSpaceOnUse">
<stop offset="0.489483" stop-color="#FF6753"/>
<stop offset="0.489583" stop-color="#2772F5"/>
</linearGradient>
<linearGradient id="paint10_linear_295_2315" x1="812" y1="88.5" x2="812" y2="122" gradientUnits="userSpaceOnUse">
<stop offset="0.489483" stop-color="#FF6753"/>
<stop offset="0.489583" stop-color="#2772F5"/>
</linearGradient>
<linearGradient id="paint11_linear_295_2315" x1="812" y1="88.5" x2="812" y2="122" gradientUnits="userSpaceOnUse">
<stop offset="0.489483" stop-color="#FF6753"/>
<stop offset="0.489583" stop-color="#2772F5"/>
</linearGradient>
<linearGradient id="paint12_linear_295_2315" x1="812" y1="88.5" x2="812" y2="122" gradientUnits="userSpaceOnUse">
<stop offset="0.489483" stop-color="#FF6753"/>
<stop offset="0.489583" stop-color="#2772F5"/>
</linearGradient>
<linearGradient id="paint13_linear_295_2315" x1="812" y1="88.5" x2="812" y2="122" gradientUnits="userSpaceOnUse">
<stop offset="0.489483" stop-color="#FF6753"/>
<stop offset="0.489583" stop-color="#2772F5"/>
</linearGradient>
<linearGradient id="paint14_linear_295_2315" x1="812" y1="88.5" x2="812" y2="122" gradientUnits="userSpaceOnUse">
<stop offset="0.489483" stop-color="#FF6753"/>
<stop offset="0.489583" stop-color="#2772F5"/>
</linearGradient>
<linearGradient id="paint15_linear_295_2315" x1="812" y1="88.5" x2="812" y2="122" gradientUnits="userSpaceOnUse">
<stop offset="0.489483" stop-color="#FF6753"/>
<stop offset="0.489583" stop-color="#2772F5"/>
</linearGradient>
<linearGradient id="paint16_linear_295_2315" x1="812" y1="88.5" x2="812" y2="122" gradientUnits="userSpaceOnUse">
<stop offset="0.489483" stop-color="#FF6753"/>
<stop offset="0.489583" stop-color="#2772F5"/>
</linearGradient>
<linearGradient id="paint17_linear_295_2315" x1="812" y1="88.5" x2="812" y2="122" gradientUnits="userSpaceOnUse">
<stop offset="0.489483" stop-color="#FF6753"/>
<stop offset="0.489583" stop-color="#2772F5"/>
</linearGradient>
<linearGradient id="paint18_linear_295_2315" x1="812" y1="88.5" x2="812" y2="122" gradientUnits="userSpaceOnUse">
<stop offset="0.489483" stop-color="#FF6753"/>
<stop offset="0.489583" stop-color="#2772F5"/>
</linearGradient>
<linearGradient id="paint19_linear_295_2315" x1="812" y1="88.5" x2="812" y2="122" gradientUnits="userSpaceOnUse">
<stop offset="0.489483" stop-color="#FF6753"/>
<stop offset="0.489583" stop-color="#2772F5"/>
</linearGradient>
<linearGradient id="paint20_linear_295_2315" x1="812" y1="88.5" x2="812" y2="122" gradientUnits="userSpaceOnUse">
<stop offset="0.489483" stop-color="#FF6753"/>
<stop offset="0.489583" stop-color="#2772F5"/>
</linearGradient>
<linearGradient id="paint21_linear_295_2315" x1="812" y1="88.5" x2="812" y2="122" gradientUnits="userSpaceOnUse">
<stop offset="0.489483" stop-color="#FF6753"/>
<stop offset="0.489583" stop-color="#2772F5"/>
</linearGradient>
</defs>
</svg>
