<svg width="972" height="146" viewBox="0 0 972 146" fill="none" xmlns="http://www.w3.org/2000/svg">
<rect x="0.5" y="0.5" width="311" height="145" rx="23.5" fill="white"/>
<rect x="0.5" y="0.5" width="311" height="145" rx="23.5" stroke="#EDEDF0"/>
<path d="M25.1186 39V28.8182H28.7479C29.54 28.8182 30.1963 28.9624 30.7166 29.2507C31.237 29.5391 31.6264 29.9335 31.8849 30.4339C32.1435 30.9311 32.2727 31.4912 32.2727 32.1143C32.2727 32.7408 32.1418 33.3042 31.88 33.8047C31.6214 34.3018 31.2304 34.6963 30.7067 34.9879C30.1863 35.2763 29.5317 35.4205 28.7429 35.4205H26.2472V34.1179H28.6037C29.1042 34.1179 29.5102 34.0317 29.8217 33.8594C30.1333 33.6837 30.362 33.4451 30.5078 33.1435C30.6536 32.8419 30.7266 32.4988 30.7266 32.1143C30.7266 31.7299 30.6536 31.3885 30.5078 31.0902C30.362 30.7919 30.1316 30.5582 29.8168 30.3892C29.5052 30.2202 29.0942 30.1357 28.5838 30.1357H26.6548V39H25.1186ZM35.5809 28.8182V39H34.0944V28.8182H35.5809ZM39.943 39.169C39.4591 39.169 39.0216 39.0795 38.6305 38.9006C38.2394 38.7183 37.9295 38.4548 37.7008 38.1101C37.4754 37.7654 37.3627 37.3428 37.3627 36.8423C37.3627 36.4115 37.4456 36.0568 37.6113 35.7784C37.777 35.5 38.0008 35.2796 38.2825 35.1172C38.5642 34.9548 38.8791 34.8321 39.2271 34.7493C39.5751 34.6664 39.9297 34.6035 40.291 34.5604C40.7484 34.5073 41.1196 34.4643 41.4046 34.4311C41.6897 34.3946 41.8968 34.3366 42.0261 34.2571C42.1554 34.1776 42.22 34.0483 42.22 33.8693V33.8345C42.22 33.4003 42.0974 33.0639 41.8521 32.8253C41.6101 32.5866 41.2489 32.4673 40.7683 32.4673C40.2678 32.4673 39.8734 32.5784 39.585 32.8004C39.3 33.0192 39.1028 33.2628 38.9934 33.5312L37.5964 33.2131C37.7621 32.7491 38.0041 32.3745 38.3223 32.0895C38.6438 31.8011 39.0133 31.5923 39.4309 31.4631C39.8485 31.3305 40.2877 31.2642 40.7484 31.2642C41.0533 31.2642 41.3765 31.3007 41.7179 31.3736C42.0626 31.4432 42.384 31.5724 42.6823 31.7614C42.984 31.9503 43.2309 32.2204 43.4231 32.5717C43.6153 32.9197 43.7115 33.3722 43.7115 33.929V39H42.2598V37.956H42.2001C42.104 38.1482 41.9598 38.3371 41.7676 38.5227C41.5753 38.7083 41.3284 38.8625 41.0268 38.9851C40.7252 39.1077 40.3639 39.169 39.943 39.169ZM40.2662 37.9759C40.6771 37.9759 41.0285 37.8946 41.3201 37.7322C41.6151 37.5698 41.8388 37.3577 41.9913 37.0959C42.1471 36.8307 42.225 36.5473 42.225 36.2457V35.2614C42.1719 35.3144 42.0692 35.3641 41.9167 35.4105C41.7676 35.4536 41.5969 35.4917 41.4046 35.5249C41.2124 35.5547 41.0251 35.5829 40.8429 35.6094C40.6606 35.6326 40.5081 35.6525 40.3855 35.669C40.0971 35.7055 39.8336 35.7668 39.595 35.853C39.3597 35.9392 39.1707 36.0634 39.0282 36.2259C38.889 36.3849 38.8194 36.5971 38.8194 36.8622C38.8194 37.2301 38.9553 37.5085 39.2271 37.6974C39.4989 37.883 39.8452 37.9759 40.2662 37.9759ZM47.3179 34.4659V39H45.8314V31.3636H47.2582V32.6065H47.3527C47.5284 32.2022 47.8035 31.8774 48.178 31.6321C48.5558 31.3868 49.0314 31.2642 49.6048 31.2642C50.1252 31.2642 50.5809 31.3736 50.972 31.5923C51.3631 31.8078 51.6664 32.1293 51.8818 32.5568C52.0973 32.9844 52.205 33.513 52.205 34.1428V39H50.7185V34.3217C50.7185 33.7682 50.5743 33.3357 50.2859 33.0241C49.9976 32.7093 49.6015 32.5518 49.0977 32.5518C48.753 32.5518 48.4465 32.6264 48.178 32.7756C47.9128 32.9247 47.7024 33.1435 47.5466 33.4318C47.3941 33.7169 47.3179 34.0616 47.3179 34.4659Z" fill="#AEAEB2"/>
<path d="M25.517 69V51.5455H37.0739V54.5881H29.2074V58.7472H36.3068V61.7898H29.2074V69H25.517ZM39.277 69V55.9091H42.7969V58.1932H42.9332C43.1719 57.3807 43.5724 56.767 44.1349 56.3523C44.6974 55.9318 45.3452 55.7216 46.0781 55.7216C46.2599 55.7216 46.456 55.733 46.6662 55.7557C46.8764 55.7784 47.0611 55.8097 47.2202 55.8494V59.071C47.0497 59.0199 46.8139 58.9744 46.5128 58.9347C46.2116 58.8949 45.9361 58.875 45.6861 58.875C45.152 58.875 44.6747 58.9915 44.2543 59.2244C43.8395 59.4517 43.5099 59.7699 43.2656 60.179C43.027 60.5881 42.9077 61.0597 42.9077 61.5938V69H39.277ZM54.4538 69.2557C53.1072 69.2557 51.9482 68.983 50.9766 68.4375C50.0107 67.8864 49.2663 67.108 48.7436 66.1023C48.2209 65.0909 47.9595 63.8949 47.9595 62.5142C47.9595 61.1676 48.2209 59.9858 48.7436 58.9688C49.2663 57.9517 50.0021 57.1591 50.951 56.5909C51.9055 56.0227 53.0249 55.7386 54.3089 55.7386C55.1726 55.7386 55.9766 55.8778 56.7209 56.1562C57.4709 56.429 58.1243 56.8409 58.6811 57.392C59.2436 57.9432 59.6811 58.6364 59.9936 59.4716C60.3061 60.3011 60.4624 61.2727 60.4624 62.3864V63.3835H49.4084V61.1335H57.0447C57.0447 60.6108 56.9311 60.1477 56.7038 59.7443C56.4766 59.3409 56.1612 59.0256 55.7578 58.7983C55.3601 58.5653 54.897 58.4489 54.3686 58.4489C53.8175 58.4489 53.3288 58.5767 52.9027 58.8324C52.4822 59.0824 52.1527 59.4205 51.9141 59.8466C51.6754 60.267 51.5533 60.7358 51.5476 61.2528V63.392C51.5476 64.0398 51.6669 64.5994 51.9055 65.071C52.1499 65.5426 52.4936 65.9062 52.9368 66.1619C53.38 66.4176 53.9055 66.5455 54.5135 66.5455C54.9169 66.5455 55.2862 66.4886 55.6214 66.375C55.9567 66.2614 56.2436 66.0909 56.4822 65.8636C56.7209 65.6364 56.9027 65.358 57.0277 65.0284L60.3857 65.25C60.2152 66.0568 59.8658 66.7614 59.3374 67.3636C58.8146 67.9602 58.1385 68.4261 57.3089 68.7614C56.4851 69.0909 55.5334 69.2557 54.4538 69.2557ZM68.7976 69.2557C67.451 69.2557 66.2919 68.983 65.3203 68.4375C64.3544 67.8864 63.6101 67.108 63.0874 66.1023C62.5646 65.0909 62.3033 63.8949 62.3033 62.5142C62.3033 61.1676 62.5646 59.9858 63.0874 58.9688C63.6101 57.9517 64.3459 57.1591 65.2947 56.5909C66.2493 56.0227 67.3686 55.7386 68.6527 55.7386C69.5163 55.7386 70.3203 55.8778 71.0646 56.1562C71.8146 56.429 72.468 56.8409 73.0249 57.392C73.5874 57.9432 74.0249 58.6364 74.3374 59.4716C74.6499 60.3011 74.8061 61.2727 74.8061 62.3864V63.3835H63.7521V61.1335H71.3885C71.3885 60.6108 71.2749 60.1477 71.0476 59.7443C70.8203 59.3409 70.505 59.0256 70.1016 58.7983C69.7038 58.5653 69.2408 58.4489 68.7124 58.4489C68.1612 58.4489 67.6726 58.5767 67.2464 58.8324C66.826 59.0824 66.4964 59.4205 66.2578 59.8466C66.0192 60.267 65.897 60.7358 65.8913 61.2528V63.392C65.8913 64.0398 66.0107 64.5994 66.2493 65.071C66.4936 65.5426 66.8374 65.9062 67.2805 66.1619C67.7237 66.4176 68.2493 66.5455 68.8572 66.5455C69.2607 66.5455 69.63 66.4886 69.9652 66.375C70.3004 66.2614 70.5874 66.0909 70.826 65.8636C71.0646 65.6364 71.2464 65.358 71.3714 65.0284L74.7294 65.25C74.5589 66.0568 74.2095 66.7614 73.6811 67.3636C73.1584 67.9602 72.4822 68.4261 71.6527 68.7614C70.8288 69.0909 69.8771 69.2557 68.7976 69.2557Z" fill="#1E1E1F"/>
<rect x="206" y="24" width="82" height="36" rx="12" fill="#EBF3FF"/>
<path d="M222.634 47.168C221.943 47.168 221.318 47.0327 220.758 46.762C220.198 46.482 219.75 46.062 219.414 45.502C219.087 44.9327 218.924 44.2093 218.924 43.332V37.2H220.324V43.346C220.324 43.934 220.422 44.4193 220.618 44.802C220.814 45.1753 221.085 45.4553 221.43 45.642C221.785 45.8193 222.195 45.908 222.662 45.908C223.138 45.908 223.549 45.8193 223.894 45.642C224.239 45.4553 224.505 45.1753 224.692 44.802C224.888 44.4193 224.986 43.934 224.986 43.346V37.2H226.386V43.332C226.386 44.2093 226.218 44.9327 225.882 45.502C225.546 46.062 225.093 46.482 224.524 46.762C223.955 47.0327 223.325 47.168 222.634 47.168ZM228.263 50.08V39.944H229.523L229.663 41.036C229.812 40.8213 229.999 40.6207 230.223 40.434C230.447 40.238 230.713 40.0793 231.021 39.958C231.338 39.8367 231.707 39.776 232.127 39.776C232.799 39.776 233.387 39.9393 233.891 40.266C234.404 40.5927 234.801 41.036 235.081 41.596C235.37 42.1467 235.515 42.7767 235.515 43.486C235.515 44.1953 235.37 44.83 235.081 45.39C234.791 45.9407 234.39 46.3747 233.877 46.692C233.373 47.0093 232.785 47.168 232.113 47.168C231.562 47.168 231.077 47.0607 230.657 46.846C230.237 46.622 229.905 46.314 229.663 45.922V50.08H228.263ZM231.889 45.95C232.318 45.95 232.696 45.8473 233.023 45.642C233.359 45.4367 233.62 45.1473 233.807 44.774C234.003 44.4007 234.101 43.9667 234.101 43.472C234.101 42.9773 234.003 42.548 233.807 42.184C233.62 41.8107 233.359 41.5213 233.023 41.316C232.696 41.1013 232.318 40.994 231.889 40.994C231.45 40.994 231.063 41.1013 230.727 41.316C230.4 41.5213 230.143 41.8107 229.957 42.184C229.77 42.548 229.677 42.9773 229.677 43.472C229.677 43.9667 229.77 44.4007 229.957 44.774C230.143 45.1473 230.4 45.4367 230.727 45.642C231.063 45.8473 231.45 45.95 231.889 45.95ZM240.719 50.248C240.262 50.248 239.833 50.192 239.431 50.08C239.03 49.968 238.666 49.7953 238.339 49.562C238.013 49.338 237.742 49.058 237.527 48.722C237.313 48.3953 237.168 48.0127 237.093 47.574H238.493C238.577 47.8633 238.717 48.1153 238.913 48.33C239.119 48.554 239.371 48.7267 239.669 48.848C239.977 48.9693 240.318 49.03 240.691 49.03C241.111 49.03 241.489 48.9413 241.825 48.764C242.161 48.596 242.427 48.33 242.623 47.966C242.819 47.6113 242.917 47.1633 242.917 46.622V45.67C242.768 45.9127 242.577 46.1413 242.343 46.356C242.11 46.5707 241.825 46.7433 241.489 46.874C241.163 47.0047 240.785 47.07 240.355 47.07C239.693 47.07 239.1 46.9113 238.577 46.594C238.064 46.2767 237.653 45.8427 237.345 45.292C237.037 44.7413 236.883 44.116 236.883 43.416C236.883 42.7067 237.037 42.0813 237.345 41.54C237.653 40.9893 238.069 40.56 238.591 40.252C239.123 39.9347 239.711 39.776 240.355 39.776C240.747 39.776 241.107 39.8367 241.433 39.958C241.76 40.07 242.049 40.2287 242.301 40.434C242.553 40.63 242.759 40.8493 242.917 41.092L243.043 39.944H244.317V46.58C244.317 47.1773 244.224 47.7 244.037 48.148C243.86 48.6053 243.608 48.988 243.281 49.296C242.964 49.604 242.586 49.8373 242.147 49.996C241.709 50.164 241.233 50.248 240.719 50.248ZM240.593 45.852C241.041 45.852 241.438 45.7493 241.783 45.544C242.129 45.3293 242.395 45.04 242.581 44.676C242.777 44.312 242.875 43.892 242.875 43.416C242.875 42.9307 242.777 42.5107 242.581 42.156C242.395 41.792 242.129 41.5073 241.783 41.302C241.438 41.0967 241.041 40.994 240.593 40.994C240.155 40.994 239.763 41.0967 239.417 41.302C239.072 41.5073 238.801 41.792 238.605 42.156C238.409 42.5107 238.311 42.9307 238.311 43.416C238.311 43.892 238.409 44.312 238.605 44.676C238.801 45.04 239.072 45.3293 239.417 45.544C239.763 45.7493 240.155 45.852 240.593 45.852ZM246.227 47V39.944H247.487L247.613 41.274C247.772 40.9567 247.977 40.6907 248.229 40.476C248.481 40.252 248.775 40.0793 249.111 39.958C249.457 39.8367 249.849 39.776 250.287 39.776V41.26H249.783C249.494 41.26 249.219 41.2973 248.957 41.372C248.696 41.4373 248.463 41.554 248.257 41.722C248.061 41.89 247.907 42.1187 247.795 42.408C247.683 42.6973 247.627 43.0567 247.627 43.486V47H246.227ZM253.911 47.168C253.332 47.168 252.852 47.07 252.469 46.874C252.086 46.678 251.802 46.4167 251.615 46.09C251.428 45.754 251.335 45.3947 251.335 45.012C251.335 44.5453 251.456 44.1487 251.699 43.822C251.942 43.486 252.287 43.2293 252.735 43.052C253.183 42.8747 253.72 42.786 254.345 42.786H256.179C256.179 42.3753 256.118 42.0347 255.997 41.764C255.876 41.4933 255.694 41.2927 255.451 41.162C255.218 41.022 254.919 40.952 254.555 40.952C254.135 40.952 253.776 41.0547 253.477 41.26C253.178 41.456 252.992 41.75 252.917 42.142H251.517C251.573 41.6473 251.741 41.2273 252.021 40.882C252.31 40.5273 252.679 40.2567 253.127 40.07C253.575 39.874 254.051 39.776 254.555 39.776C255.218 39.776 255.773 39.8927 256.221 40.126C256.669 40.3593 257.005 40.6907 257.229 41.12C257.462 41.54 257.579 42.044 257.579 42.632V47H256.361L256.249 45.81C256.146 45.9967 256.025 46.174 255.885 46.342C255.745 46.51 255.577 46.6547 255.381 46.776C255.194 46.8973 254.975 46.9907 254.723 47.056C254.48 47.1307 254.21 47.168 253.911 47.168ZM254.177 46.034C254.476 46.034 254.746 45.9733 254.989 45.852C255.232 45.7307 255.437 45.5673 255.605 45.362C255.782 45.1473 255.913 44.9093 255.997 44.648C256.09 44.3773 256.142 44.102 256.151 43.822V43.78H254.485C254.084 43.78 253.757 43.8313 253.505 43.934C253.262 44.0273 253.085 44.158 252.973 44.326C252.861 44.494 252.805 44.69 252.805 44.914C252.805 45.1473 252.856 45.348 252.959 45.516C253.071 45.6747 253.23 45.8007 253.435 45.894C253.64 45.9873 253.888 46.034 254.177 46.034ZM262.502 47.168C261.83 47.168 261.237 47.0093 260.724 46.692C260.211 46.3653 259.809 45.9267 259.52 45.376C259.24 44.816 259.1 44.1813 259.1 43.472C259.1 42.7533 259.24 42.1187 259.52 41.568C259.809 41.0173 260.211 40.5833 260.724 40.266C261.247 39.9393 261.844 39.776 262.516 39.776C263.067 39.776 263.552 39.888 263.972 40.112C264.392 40.3267 264.719 40.6347 264.952 41.036V36.92H266.352V47H265.092L264.952 45.908C264.812 46.1227 264.63 46.328 264.406 46.524C264.182 46.7107 263.911 46.8647 263.594 46.986C263.277 47.1073 262.913 47.168 262.502 47.168ZM262.726 45.95C263.165 45.95 263.552 45.8473 263.888 45.642C264.224 45.4367 264.481 45.1473 264.658 44.774C264.845 44.4007 264.938 43.9667 264.938 43.472C264.938 42.9773 264.845 42.548 264.658 42.184C264.481 41.8107 264.224 41.5213 263.888 41.316C263.552 41.1013 263.165 40.994 262.726 40.994C262.306 40.994 261.928 41.1013 261.592 41.316C261.256 41.5213 260.995 41.8107 260.808 42.184C260.621 42.548 260.528 42.9773 260.528 43.472C260.528 43.9667 260.621 44.4007 260.808 44.774C260.995 45.1473 261.256 45.4367 261.592 45.642C261.928 45.8473 262.306 45.95 262.726 45.95ZM271.458 47.168C270.786 47.168 270.189 47.014 269.666 46.706C269.144 46.398 268.733 45.9687 268.434 45.418C268.145 44.8673 268 44.228 268 43.5C268 42.7533 268.145 42.1047 268.434 41.554C268.733 40.994 269.144 40.56 269.666 40.252C270.189 39.9347 270.796 39.776 271.486 39.776C272.177 39.776 272.77 39.93 273.264 40.238C273.759 40.546 274.142 40.9567 274.412 41.47C274.683 41.974 274.818 42.534 274.818 43.15C274.818 43.2433 274.814 43.346 274.804 43.458C274.804 43.5607 274.8 43.6773 274.79 43.808H269.022V42.814H273.418C273.39 42.226 273.194 41.7687 272.83 41.442C272.466 41.106 272.014 40.938 271.472 40.938C271.09 40.938 270.74 41.0267 270.422 41.204C270.105 41.372 269.848 41.624 269.652 41.96C269.466 42.2867 269.372 42.702 269.372 43.206V43.598C269.372 44.1207 269.466 44.564 269.652 44.928C269.848 45.2827 270.105 45.5533 270.422 45.74C270.74 45.9173 271.085 46.006 271.458 46.006C271.906 46.006 272.275 45.908 272.564 45.712C272.854 45.516 273.068 45.25 273.208 44.914H274.608C274.487 45.3433 274.282 45.7307 273.992 46.076C273.703 46.412 273.344 46.678 272.914 46.874C272.494 47.07 272.009 47.168 271.458 47.168Z" fill="#0B57D0"/>
<rect x="24" y="92" width="85" height="24" rx="12" fill="#EDEEF0"/>
<path d="M35.756 108.144C35.172 108.144 34.668 108.04 34.244 107.832C33.82 107.624 33.488 107.344 33.248 106.992C33.008 106.632 32.86 106.224 32.804 105.768H33.98C34.06 106.16 34.252 106.484 34.556 106.74C34.868 106.996 35.272 107.124 35.768 107.124C36.128 107.124 36.436 107.04 36.692 106.872C36.956 106.696 37.156 106.46 37.292 106.164C37.436 105.868 37.508 105.54 37.508 105.18C37.508 104.804 37.436 104.476 37.292 104.196C37.156 103.908 36.96 103.688 36.704 103.536C36.448 103.376 36.148 103.296 35.804 103.296C35.388 103.296 35.032 103.384 34.736 103.56C34.448 103.736 34.232 103.956 34.088 104.22H32.924L33.596 99.6H38.144V100.644H34.508L34.088 103.02C34.28 102.804 34.536 102.632 34.856 102.504C35.184 102.368 35.556 102.3 35.972 102.3C36.396 102.3 36.772 102.376 37.1 102.528C37.436 102.672 37.72 102.876 37.952 103.14C38.184 103.404 38.36 103.708 38.48 104.052C38.608 104.396 38.672 104.764 38.672 105.156C38.672 105.572 38.604 105.964 38.468 106.332C38.332 106.692 38.136 107.008 37.88 107.28C37.632 107.552 37.328 107.764 36.968 107.916C36.608 108.068 36.204 108.144 35.756 108.144ZM43.5594 108.144C42.8314 108.144 42.2034 107.964 41.6754 107.604C41.1554 107.236 40.7554 106.728 40.4754 106.08C40.1954 105.424 40.0554 104.664 40.0554 103.8C40.0554 102.936 40.1954 102.18 40.4754 101.532C40.7554 100.876 41.1554 100.368 41.6754 100.008C42.2034 99.64 42.8314 99.456 43.5594 99.456C44.2954 99.456 44.9194 99.64 45.4314 100.008C45.9514 100.368 46.3514 100.876 46.6314 101.532C46.9194 102.18 47.0634 102.936 47.0634 103.8C47.0634 104.664 46.9194 105.424 46.6314 106.08C46.3514 106.728 45.9514 107.236 45.4314 107.604C44.9194 107.964 44.2954 108.144 43.5594 108.144ZM43.5594 107.076C43.9994 107.076 44.3874 106.944 44.7234 106.68C45.0674 106.416 45.3354 106.04 45.5274 105.552C45.7274 105.064 45.8274 104.48 45.8274 103.8C45.8274 103.112 45.7274 102.528 45.5274 102.048C45.3354 101.56 45.0674 101.188 44.7234 100.932C44.3874 100.668 43.9994 100.536 43.5594 100.536C43.1194 100.536 42.7274 100.668 42.3834 100.932C42.0394 101.188 41.7674 101.56 41.5674 102.048C41.3754 102.528 41.2794 103.112 41.2794 103.8C41.2794 104.48 41.3754 105.064 41.5674 105.552C41.7674 106.04 42.0394 106.416 42.3834 106.68C42.7274 106.944 43.1194 107.076 43.5594 107.076ZM48.6319 108V99.6H49.8319V103.248L53.1919 99.6H54.6919L51.5839 102.936L54.7519 108H53.2879L50.7199 103.872L49.8319 104.82V108H48.6319ZM62.9262 108.144C62.1102 108.144 61.4062 107.964 60.8142 107.604C60.2222 107.236 59.7662 106.728 59.4462 106.08C59.1262 105.424 58.9662 104.664 58.9662 103.8C58.9662 102.944 59.1262 102.188 59.4462 101.532C59.7662 100.876 60.2222 100.368 60.8142 100.008C61.4062 99.64 62.1102 99.456 62.9262 99.456C63.9022 99.456 64.6942 99.692 65.3022 100.164C65.9102 100.636 66.2982 101.3 66.4662 102.156H65.1582C65.0302 101.66 64.7822 101.264 64.4142 100.968C64.0462 100.672 63.5462 100.524 62.9142 100.524C62.3622 100.524 61.8782 100.656 61.4622 100.92C61.0542 101.184 60.7382 101.56 60.5142 102.048C60.2982 102.536 60.1902 103.12 60.1902 103.8C60.1902 104.48 60.2982 105.068 60.5142 105.564C60.7382 106.052 61.0542 106.428 61.4622 106.692C61.8782 106.948 62.3622 107.076 62.9142 107.076C63.5462 107.076 64.0462 106.936 64.4142 106.656C64.7822 106.368 65.0302 105.98 65.1582 105.492H66.4662C66.2982 106.324 65.9102 106.976 65.3022 107.448C64.6942 107.912 63.9022 108.144 62.9262 108.144ZM71.1306 108.144C70.5386 108.144 70.0026 108.028 69.5226 107.796C69.0426 107.556 68.6586 107.196 68.3706 106.716C68.0906 106.228 67.9506 105.608 67.9506 104.856V99.6H69.1506V104.868C69.1506 105.372 69.2346 105.788 69.4026 106.116C69.5706 106.436 69.8026 106.676 70.0986 106.836C70.4026 106.988 70.7546 107.064 71.1546 107.064C71.5626 107.064 71.9106 106.988 72.1986 106.836C72.4946 106.676 72.7226 106.436 72.8826 106.116C73.0506 105.788 73.1346 105.372 73.1346 104.868V99.6H74.3346V104.856C74.3346 105.608 74.1906 106.228 73.9026 106.716C73.6146 107.196 73.2266 107.556 72.7386 107.796C72.2586 108.028 71.7226 108.144 71.1306 108.144ZM75.2081 109.212L78.2201 98.772H79.3961L76.3841 109.212H75.2081ZM82.7494 108.144C82.1894 108.144 81.6894 108.004 81.2494 107.724C80.8174 107.444 80.4814 107.064 80.2414 106.584C80.0014 106.096 79.8814 105.544 79.8814 104.928C79.8814 104.304 80.0014 103.752 80.2414 103.272C80.4894 102.784 80.8294 102.4 81.2614 102.12C81.7014 101.84 82.2094 101.7 82.7854 101.7C83.2574 101.7 83.6694 101.796 84.0214 101.988C84.3734 102.172 84.6494 102.432 84.8494 102.768V99.36H86.0494V108H84.9814L84.8614 107.052C84.7334 107.244 84.5734 107.424 84.3814 107.592C84.1974 107.752 83.9694 107.884 83.6974 107.988C83.4254 108.092 83.1094 108.144 82.7494 108.144ZM82.9654 107.1C83.3414 107.1 83.6694 107.012 83.9494 106.836C84.2374 106.652 84.4574 106.4 84.6094 106.08C84.7614 105.752 84.8374 105.368 84.8374 104.928C84.8374 104.488 84.7614 104.104 84.6094 103.776C84.4574 103.448 84.2374 103.196 83.9494 103.02C83.6694 102.836 83.3414 102.744 82.9654 102.744C82.6054 102.744 82.2854 102.836 82.0054 103.02C81.7254 103.196 81.5054 103.448 81.3454 103.776C81.1854 104.104 81.1054 104.488 81.1054 104.928C81.1054 105.36 81.1854 105.74 81.3454 106.068C81.5054 106.396 81.7254 106.652 82.0054 106.836C82.2854 107.012 82.6054 107.1 82.9654 107.1ZM89.8152 108.144C89.3272 108.144 88.9192 108.06 88.5912 107.892C88.2712 107.716 88.0312 107.484 87.8712 107.196C87.7112 106.908 87.6312 106.596 87.6312 106.26C87.6312 105.86 87.7312 105.516 87.9312 105.228C88.1392 104.94 88.4352 104.72 88.8192 104.568C89.2032 104.416 89.6632 104.34 90.1992 104.34H91.7592C91.7592 103.972 91.7112 103.668 91.6152 103.428C91.5192 103.188 91.3672 103.008 91.1592 102.888C90.9592 102.768 90.6992 102.708 90.3792 102.708C90.0272 102.708 89.7272 102.792 89.4792 102.96C89.2312 103.128 89.0752 103.376 89.0112 103.704H87.8112C87.8592 103.28 88.0032 102.92 88.2432 102.624C88.4832 102.328 88.7872 102.1 89.1552 101.94C89.5312 101.78 89.9392 101.7 90.3792 101.7C90.9472 101.7 91.4192 101.8 91.7952 102C92.1792 102.2 92.4672 102.484 92.6592 102.852C92.8592 103.212 92.9592 103.644 92.9592 104.148V108H91.9032L91.8072 106.968C91.7272 107.136 91.6232 107.292 91.4952 107.436C91.3752 107.572 91.2312 107.696 91.0632 107.808C90.9032 107.912 90.7192 107.992 90.5112 108.048C90.3032 108.112 90.0712 108.144 89.8152 108.144ZM90.0432 107.172C90.2912 107.172 90.5192 107.12 90.7272 107.016C90.9352 106.904 91.1112 106.76 91.2552 106.584C91.4072 106.4 91.5232 106.196 91.6032 105.972C91.6832 105.74 91.7272 105.496 91.7352 105.24V105.18H90.3192C89.9752 105.18 89.6992 105.224 89.4912 105.312C89.2832 105.4 89.1312 105.52 89.0352 105.672C88.9392 105.816 88.8912 105.984 88.8912 106.176C88.8912 106.376 88.9352 106.552 89.0232 106.704C89.1112 106.848 89.2432 106.964 89.4192 107.052C89.5952 107.132 89.8032 107.172 90.0432 107.172ZM95.1905 110.64L96.6305 107.328H96.2825L93.9065 101.844H95.2025L97.0865 106.332L98.9945 101.844H100.243L96.4385 110.64H95.1905Z" fill="#1E1E1F"/>
<rect x="116" y="92" width="49" height="24" rx="12" fill="#EDEEF0"/>
<path d="M127.756 108.144C127.172 108.144 126.668 108.04 126.244 107.832C125.82 107.624 125.488 107.344 125.248 106.992C125.008 106.632 124.86 106.224 124.804 105.768H125.98C126.06 106.16 126.252 106.484 126.556 106.74C126.868 106.996 127.272 107.124 127.768 107.124C128.128 107.124 128.436 107.04 128.692 106.872C128.956 106.696 129.156 106.46 129.292 106.164C129.436 105.868 129.508 105.54 129.508 105.18C129.508 104.804 129.436 104.476 129.292 104.196C129.156 103.908 128.96 103.688 128.704 103.536C128.448 103.376 128.148 103.296 127.804 103.296C127.388 103.296 127.032 103.384 126.736 103.56C126.448 103.736 126.232 103.956 126.088 104.22H124.924L125.596 99.6H130.144V100.644H126.508L126.088 103.02C126.28 102.804 126.536 102.632 126.856 102.504C127.184 102.368 127.556 102.3 127.972 102.3C128.396 102.3 128.772 102.376 129.1 102.528C129.436 102.672 129.72 102.876 129.952 103.14C130.184 103.404 130.36 103.708 130.48 104.052C130.608 104.396 130.672 104.764 130.672 105.156C130.672 105.572 130.604 105.964 130.468 106.332C130.332 106.692 130.136 107.008 129.88 107.28C129.632 107.552 129.328 107.764 128.968 107.916C128.608 108.068 128.204 108.144 127.756 108.144ZM135.581 108V99.6H138.425C139.089 99.6 139.633 99.712 140.057 99.936C140.481 100.16 140.793 100.46 140.993 100.836C141.201 101.204 141.305 101.624 141.305 102.096C141.305 102.544 141.201 102.96 140.993 103.344C140.793 103.72 140.477 104.024 140.045 104.256C139.613 104.48 139.061 104.592 138.389 104.592H136.781V108H135.581ZM139.997 108L138.185 104.268H139.505L141.389 108H139.997ZM136.781 103.68H138.353C138.945 103.68 139.377 103.536 139.649 103.248C139.929 102.952 140.069 102.576 140.069 102.12C140.069 101.656 139.933 101.288 139.661 101.016C139.389 100.744 138.949 100.608 138.341 100.608H136.781V103.68ZM143.002 108V99.6H145.858C146.53 99.6 147.082 99.712 147.514 99.936C147.954 100.16 148.278 100.464 148.486 100.848C148.694 101.224 148.798 101.656 148.798 102.144C148.798 102.608 148.694 103.032 148.486 103.416C148.278 103.8 147.958 104.108 147.526 104.34C147.094 104.564 146.538 104.676 145.858 104.676H144.202V108H143.002ZM144.202 103.68H145.81C146.45 103.68 146.902 103.54 147.166 103.26C147.438 102.98 147.574 102.608 147.574 102.144C147.574 101.656 147.438 101.276 147.166 101.004C146.902 100.732 146.45 100.596 145.81 100.596H144.202V103.68ZM152.983 108.144C152.375 108.144 151.839 108.036 151.375 107.82C150.911 107.596 150.551 107.284 150.295 106.884C150.039 106.484 149.907 106.016 149.899 105.48H151.171C151.171 105.784 151.239 106.064 151.375 106.32C151.519 106.568 151.723 106.768 151.987 106.92C152.259 107.064 152.591 107.136 152.983 107.136C153.319 107.136 153.607 107.08 153.847 106.968C154.095 106.856 154.283 106.704 154.411 106.512C154.539 106.312 154.603 106.084 154.603 105.828C154.603 105.54 154.539 105.304 154.411 105.12C154.283 104.928 154.103 104.768 153.871 104.64C153.647 104.512 153.387 104.4 153.091 104.304C152.803 104.208 152.491 104.104 152.155 103.992C151.475 103.768 150.971 103.484 150.643 103.14C150.323 102.796 150.163 102.348 150.163 101.796C150.163 101.324 150.271 100.916 150.487 100.572C150.711 100.22 151.027 99.948 151.435 99.756C151.843 99.556 152.319 99.456 152.863 99.456C153.415 99.456 153.891 99.556 154.291 99.756C154.699 99.956 155.019 100.232 155.251 100.584C155.483 100.936 155.603 101.348 155.611 101.82H154.339C154.339 101.604 154.279 101.392 154.159 101.184C154.047 100.976 153.879 100.808 153.655 100.68C153.439 100.544 153.167 100.476 152.839 100.476C152.559 100.468 152.311 100.512 152.095 100.608C151.879 100.704 151.711 100.844 151.591 101.028C151.471 101.212 151.411 101.432 151.411 101.688C151.411 101.944 151.467 102.152 151.579 102.312C151.691 102.464 151.847 102.596 152.047 102.708C152.255 102.82 152.499 102.924 152.779 103.02C153.059 103.108 153.367 103.208 153.703 103.32C154.111 103.456 154.479 103.624 154.807 103.824C155.135 104.016 155.391 104.268 155.575 104.58C155.767 104.884 155.863 105.276 155.863 105.756C155.863 106.172 155.755 106.56 155.539 106.92C155.323 107.28 155.003 107.576 154.579 107.808C154.155 108.032 153.623 108.144 152.983 108.144Z" fill="#1E1E1F"/>
<rect x="328.5" y="0.5" width="315" height="145" rx="23.5" fill="white"/>
<rect x="328.5" y="0.5" width="315" height="145" rx="23.5" stroke="#EDEDF0"/>
<path d="M361.575 32.1293H360.024C359.964 31.7978 359.853 31.5062 359.691 31.2543C359.529 31.0024 359.33 30.7886 359.094 30.6129C358.859 30.4373 358.596 30.3047 358.304 30.2152C358.016 30.1257 357.709 30.081 357.384 30.081C356.798 30.081 356.272 30.2285 355.808 30.5234C355.348 30.8184 354.983 31.2509 354.714 31.821C354.449 32.3911 354.317 33.0871 354.317 33.9091C354.317 34.7377 354.449 35.437 354.714 36.0071C354.983 36.5772 355.349 37.008 355.813 37.2997C356.277 37.5914 356.799 37.7372 357.379 37.7372C357.701 37.7372 358.006 37.6941 358.294 37.608C358.586 37.5185 358.849 37.3875 359.085 37.2152C359.32 37.0429 359.519 36.8324 359.681 36.5838C359.847 36.3319 359.961 36.0436 360.024 35.7188L361.575 35.7237C361.492 36.2242 361.332 36.6849 361.093 37.1058C360.858 37.5234 360.554 37.8847 360.183 38.1896C359.815 38.4912 359.394 38.7249 358.92 38.8906C358.446 39.0563 357.929 39.1392 357.369 39.1392C356.488 39.1392 355.702 38.9304 355.013 38.5128C354.323 38.0919 353.78 37.4903 353.382 36.7081C352.988 35.9259 352.79 34.9929 352.79 33.9091C352.79 32.822 352.989 31.889 353.387 31.1101C353.785 30.3279 354.328 29.728 355.018 29.3104C355.707 28.8894 356.491 28.679 357.369 28.679C357.91 28.679 358.413 28.7569 358.881 28.9126C359.351 29.0651 359.774 29.2905 360.148 29.5888C360.523 29.8838 360.833 30.245 361.078 30.6726C361.323 31.0968 361.489 31.5824 361.575 32.1293ZM370.101 28.8182H371.642V35.5149C371.642 36.2275 371.475 36.8589 371.14 37.4091C370.805 37.956 370.335 38.3868 369.728 38.7017C369.122 39.0133 368.411 39.169 367.595 39.169C366.783 39.169 366.074 39.0133 365.468 38.7017C364.861 38.3868 364.39 37.956 364.056 37.4091C363.721 36.8589 363.554 36.2275 363.554 35.5149V28.8182H365.09V35.3906C365.09 35.8513 365.191 36.2607 365.393 36.6186C365.599 36.9766 365.889 37.2583 366.263 37.4638C366.638 37.666 367.082 37.767 367.595 37.767C368.112 37.767 368.558 37.666 368.933 37.4638C369.311 37.2583 369.599 36.9766 369.798 36.6186C370 36.2607 370.101 35.8513 370.101 35.3906V28.8182ZM377.861 39V28.8182H379.347V32.6016H379.437C379.523 32.4425 379.647 32.2585 379.81 32.0497C379.972 31.8409 380.198 31.6586 380.486 31.5028C380.774 31.3438 381.155 31.2642 381.629 31.2642C382.246 31.2642 382.796 31.42 383.28 31.7315C383.764 32.0431 384.143 32.4922 384.418 33.0788C384.697 33.6655 384.836 34.3714 384.836 35.1967C384.836 36.022 384.698 36.7296 384.423 37.3196C384.148 37.9062 383.77 38.3587 383.29 38.6768C382.809 38.9917 382.261 39.1491 381.644 39.1491C381.18 39.1491 380.801 39.0713 380.506 38.9155C380.214 38.7597 379.985 38.5774 379.82 38.3686C379.654 38.1598 379.526 37.9742 379.437 37.8118H379.313V39H377.861ZM379.318 35.1818C379.318 35.7187 379.395 36.1894 379.551 36.5938C379.707 36.9981 379.932 37.3146 380.227 37.5433C380.522 37.7687 380.884 37.8814 381.311 37.8814C381.755 37.8814 382.126 37.7637 382.425 37.5284C382.723 37.2898 382.948 36.9666 383.101 36.5589C383.257 36.1513 383.335 35.6922 383.335 35.1818C383.335 34.678 383.258 34.2256 383.106 33.8246C382.957 33.4235 382.731 33.107 382.43 32.875C382.131 32.643 381.759 32.527 381.311 32.527C380.88 32.527 380.516 32.638 380.217 32.8601C379.922 33.0821 379.699 33.392 379.546 33.7898C379.394 34.1875 379.318 34.6515 379.318 35.1818ZM388.868 39.169C388.384 39.169 387.946 39.0795 387.555 38.9006C387.164 38.7183 386.854 38.4548 386.625 38.1101C386.4 37.7654 386.287 37.3428 386.287 36.8423C386.287 36.4115 386.37 36.0568 386.536 35.7784C386.702 35.5 386.925 35.2796 387.207 35.1172C387.489 34.9548 387.804 34.8321 388.152 34.7493C388.5 34.6664 388.854 34.6035 389.216 34.5604C389.673 34.5073 390.044 34.4643 390.329 34.4311C390.614 34.3946 390.821 34.3366 390.951 34.2571C391.08 34.1776 391.145 34.0483 391.145 33.8693V33.8345C391.145 33.4003 391.022 33.0639 390.777 32.8253C390.535 32.5866 390.173 32.4673 389.693 32.4673C389.192 32.4673 388.798 32.5784 388.51 32.8004C388.225 33.0192 388.027 33.2628 387.918 33.5312L386.521 33.2131C386.687 32.7491 386.929 32.3745 387.247 32.0895C387.568 31.8011 387.938 31.5923 388.355 31.4631C388.773 31.3305 389.212 31.2642 389.673 31.2642C389.978 31.2642 390.301 31.3007 390.642 31.3736C390.987 31.4432 391.309 31.5724 391.607 31.7614C391.908 31.9503 392.155 32.2204 392.348 32.5717C392.54 32.9197 392.636 33.3722 392.636 33.929V39H391.184V37.956H391.125C391.029 38.1482 390.884 38.3371 390.692 38.5227C390.5 38.7083 390.253 38.8625 389.951 38.9851C389.65 39.1077 389.288 39.169 388.868 39.169ZM389.191 37.9759C389.602 37.9759 389.953 37.8946 390.245 37.7322C390.54 37.5698 390.763 37.3577 390.916 37.0959C391.072 36.8307 391.149 36.5473 391.149 36.2457V35.2614C391.096 35.3144 390.994 35.3641 390.841 35.4105C390.692 35.4536 390.521 35.4917 390.329 35.5249C390.137 35.5547 389.95 35.5829 389.767 35.6094C389.585 35.6326 389.433 35.6525 389.31 35.669C389.022 35.7055 388.758 35.7668 388.52 35.853C388.284 35.9392 388.095 36.0634 387.953 36.2259C387.814 36.3849 387.744 36.5971 387.744 36.8622C387.744 37.2301 387.88 37.5085 388.152 37.6974C388.423 37.883 388.77 37.9759 389.191 37.9759ZM396.242 28.8182V39H394.756V28.8182H396.242ZM400.605 39.169C400.121 39.169 399.683 39.0795 399.292 38.9006C398.901 38.7183 398.591 38.4548 398.362 38.1101C398.137 37.7654 398.024 37.3428 398.024 36.8423C398.024 36.4115 398.107 36.0568 398.273 35.7784C398.439 35.5 398.662 35.2796 398.944 35.1172C399.226 34.9548 399.541 34.8321 399.889 34.7493C400.237 34.6664 400.591 34.6035 400.953 34.5604C401.41 34.5073 401.781 34.4643 402.066 34.4311C402.351 34.3946 402.558 34.3366 402.688 34.2571C402.817 34.1776 402.882 34.0483 402.882 33.8693V33.8345C402.882 33.4003 402.759 33.0639 402.514 32.8253C402.272 32.5866 401.91 32.4673 401.43 32.4673C400.929 32.4673 400.535 32.5784 400.247 32.8004C399.962 33.0192 399.764 33.2628 399.655 33.5312L398.258 33.2131C398.424 32.7491 398.666 32.3745 398.984 32.0895C399.305 31.8011 399.675 31.5923 400.092 31.4631C400.51 31.3305 400.949 31.2642 401.41 31.2642C401.715 31.2642 402.038 31.3007 402.379 31.3736C402.724 31.4432 403.046 31.5724 403.344 31.7614C403.646 31.9503 403.892 32.2204 404.085 32.5717C404.277 32.9197 404.373 33.3722 404.373 33.929V39H402.921V37.956H402.862C402.766 38.1482 402.621 38.3371 402.429 38.5227C402.237 38.7083 401.99 38.8625 401.688 38.9851C401.387 39.1077 401.025 39.169 400.605 39.169ZM400.928 37.9759C401.339 37.9759 401.69 37.8946 401.982 37.7322C402.277 37.5698 402.5 37.3577 402.653 37.0959C402.809 36.8307 402.887 36.5473 402.887 36.2457V35.2614C402.833 35.3144 402.731 35.3641 402.578 35.4105C402.429 35.4536 402.258 35.4917 402.066 35.5249C401.874 35.5547 401.687 35.5829 401.504 35.6094C401.322 35.6326 401.17 35.6525 401.047 35.669C400.759 35.7055 400.495 35.7668 400.257 35.853C400.021 35.9392 399.832 36.0634 399.69 36.2259C399.551 36.3849 399.481 36.5971 399.481 36.8622C399.481 37.2301 399.617 37.5085 399.889 37.6974C400.16 37.883 400.507 37.9759 400.928 37.9759ZM407.979 34.4659V39H406.493V31.3636H407.92V32.6065H408.014C408.19 32.2022 408.465 31.8774 408.84 31.6321C409.217 31.3868 409.693 31.2642 410.266 31.2642C410.787 31.2642 411.242 31.3736 411.634 31.5923C412.025 31.8078 412.328 32.1293 412.543 32.5568C412.759 32.9844 412.867 33.513 412.867 34.1428V39H411.38V34.3217C411.38 33.7682 411.236 33.3357 410.948 33.0241C410.659 32.7093 410.263 32.5518 409.759 32.5518C409.415 32.5518 409.108 32.6264 408.84 32.7756C408.574 32.9247 408.364 33.1435 408.208 33.4318C408.056 33.7169 407.979 34.0616 407.979 34.4659ZM418.217 39.1541C417.478 39.1541 416.841 38.9867 416.308 38.652C415.777 38.3139 415.37 37.8482 415.085 37.255C414.8 36.6617 414.657 35.9822 414.657 35.2166C414.657 34.4411 414.803 33.7566 415.095 33.1634C415.386 32.5668 415.797 32.1011 416.328 31.7663C416.858 31.4316 417.483 31.2642 418.202 31.2642C418.782 31.2642 419.299 31.3719 419.753 31.5874C420.207 31.7995 420.573 32.0978 420.852 32.4822C421.133 32.8667 421.301 33.3158 421.354 33.8295H419.907C419.828 33.4716 419.645 33.1634 419.36 32.9048C419.079 32.6463 418.701 32.517 418.227 32.517C417.812 32.517 417.449 32.6264 417.138 32.8452C416.83 33.0606 416.589 33.3688 416.417 33.7699C416.245 34.1676 416.159 34.6383 416.159 35.1818C416.159 35.7386 416.243 36.2192 416.412 36.6236C416.581 37.0279 416.82 37.3411 417.128 37.5632C417.44 37.7853 417.806 37.8963 418.227 37.8963C418.508 37.8963 418.764 37.8449 418.992 37.7422C419.224 37.6361 419.418 37.4853 419.574 37.2898C419.733 37.0942 419.844 36.8589 419.907 36.5838H421.354C421.301 37.0777 421.14 37.5185 420.872 37.9062C420.603 38.294 420.244 38.599 419.793 38.821C419.345 39.0431 418.82 39.1541 418.217 39.1541ZM426.375 39.1541C425.622 39.1541 424.974 38.9934 424.431 38.6719C423.891 38.3471 423.473 37.8913 423.178 37.3047C422.886 36.7147 422.74 36.0237 422.74 35.2315C422.74 34.4493 422.886 33.7599 423.178 33.1634C423.473 32.5668 423.884 32.1011 424.411 31.7663C424.941 31.4316 425.561 31.2642 426.27 31.2642C426.701 31.2642 427.119 31.3355 427.523 31.478C427.927 31.6205 428.29 31.8442 428.612 32.1491C428.933 32.4541 429.187 32.8501 429.373 33.3374C429.558 33.8213 429.651 34.4096 429.651 35.1023V35.6293H423.581V34.5156H428.194C428.194 34.1245 428.115 33.7782 427.956 33.4766C427.797 33.1716 427.573 32.9313 427.285 32.7557C426.999 32.58 426.665 32.4922 426.28 32.4922C425.863 32.4922 425.498 32.5949 425.186 32.8004C424.878 33.0026 424.64 33.2678 424.471 33.5959C424.305 33.9207 424.222 34.2737 424.222 34.6548V35.5249C424.222 36.0353 424.311 36.4695 424.49 36.8274C424.673 37.1854 424.926 37.4588 425.251 37.6477C425.576 37.8333 425.955 37.9261 426.39 37.9261C426.671 37.9261 426.928 37.8864 427.16 37.8068C427.392 37.724 427.593 37.6013 427.762 37.4389C427.931 37.2765 428.06 37.076 428.15 36.8374L429.557 37.0909C429.444 37.5052 429.242 37.8681 428.95 38.1797C428.662 38.4879 428.299 38.7282 427.861 38.9006C427.427 39.0696 426.932 39.1541 426.375 39.1541Z" fill="#AEAEB2"/>
<path d="M353.236 65.7614V63.2472L360.642 51.5455H362.739V55.125H361.46L356.474 63.0256V63.1619H366.812V65.7614H353.236ZM361.562 69V64.9943L361.597 63.8693V51.5455H364.58V69H361.562ZM369.536 69V66.7159L375.595 60.7756C376.175 60.1903 376.658 59.6705 377.044 59.2159C377.43 58.7614 377.72 58.321 377.913 57.8949C378.107 57.4687 378.203 57.0142 378.203 56.5312C378.203 55.9801 378.078 55.5085 377.828 55.1165C377.578 54.7188 377.234 54.4119 376.797 54.196C376.359 53.9801 375.862 53.8722 375.305 53.8722C374.732 53.8722 374.229 53.9915 373.797 54.2301C373.365 54.4631 373.03 54.7955 372.791 55.2273C372.558 55.6591 372.442 56.1733 372.442 56.7699H369.433C369.433 55.6619 369.686 54.6989 370.192 53.8807C370.697 53.0625 371.393 52.429 372.28 51.9801C373.172 51.5312 374.195 51.3068 375.348 51.3068C376.518 51.3068 377.547 51.5256 378.433 51.9631C379.32 52.4006 380.007 53 380.496 53.7614C380.99 54.5227 381.237 55.392 381.237 56.3693C381.237 57.0227 381.112 57.6648 380.862 58.2955C380.612 58.9261 380.172 59.625 379.541 60.392C378.916 61.1591 378.038 62.0881 376.908 63.179L373.899 66.2386V66.358H381.501V69H369.536ZM390.395 69V66.7159L396.455 60.7756C397.034 60.1903 397.517 59.6705 397.903 59.2159C398.29 58.7614 398.58 58.321 398.773 57.8949C398.966 57.4687 399.062 57.0142 399.062 56.5312C399.062 55.9801 398.938 55.5085 398.688 55.1165C398.438 54.7188 398.094 54.4119 397.656 54.196C397.219 53.9801 396.722 53.8722 396.165 53.8722C395.591 53.8722 395.088 53.9915 394.656 54.2301C394.224 54.4631 393.889 54.7955 393.651 55.2273C393.418 55.6591 393.301 56.1733 393.301 56.7699H390.293C390.293 55.6619 390.545 54.6989 391.051 53.8807C391.557 53.0625 392.253 52.429 393.139 51.9801C394.031 51.5312 395.054 51.3068 396.207 51.3068C397.378 51.3068 398.406 51.5256 399.293 51.9631C400.179 52.4006 400.866 53 401.355 53.7614C401.849 54.5227 402.097 55.392 402.097 56.3693C402.097 57.0227 401.972 57.6648 401.722 58.2955C401.472 58.9261 401.031 59.625 400.401 60.392C399.776 61.1591 398.898 62.0881 397.767 63.179L394.759 66.2386V66.358H402.361V69H390.395ZM411.565 69.2386C410.338 69.2386 409.247 69.0284 408.293 68.608C407.344 68.1875 406.594 67.6023 406.043 66.8523C405.491 66.1023 405.199 65.2358 405.165 64.2528H408.369C408.398 64.7244 408.554 65.1364 408.838 65.4886C409.122 65.8352 409.5 66.1051 409.972 66.2983C410.443 66.4915 410.972 66.5881 411.557 66.5881C412.182 66.5881 412.736 66.4801 413.219 66.2642C413.702 66.0426 414.08 65.7358 414.352 65.3438C414.625 64.9517 414.759 64.5 414.753 63.9886C414.759 63.4602 414.622 62.9943 414.344 62.5909C414.065 62.1875 413.662 61.8722 413.134 61.6449C412.611 61.4176 411.98 61.304 411.241 61.304H409.699V58.8665H411.241C411.849 58.8665 412.381 58.7614 412.835 58.5511C413.295 58.3409 413.656 58.0455 413.918 57.6648C414.179 57.2784 414.307 56.8324 414.301 56.3267C414.307 55.8324 414.196 55.4034 413.969 55.0398C413.747 54.6705 413.432 54.3835 413.023 54.179C412.619 53.9744 412.145 53.8722 411.599 53.8722C411.065 53.8722 410.571 53.9687 410.116 54.1619C409.662 54.3551 409.295 54.6307 409.017 54.9886C408.739 55.3409 408.591 55.7614 408.574 56.25H405.531C405.554 55.2727 405.835 54.4148 406.375 53.6761C406.92 52.9318 407.648 52.3523 408.557 51.9375C409.466 51.517 410.486 51.3068 411.616 51.3068C412.781 51.3068 413.793 51.5256 414.651 51.9631C415.514 52.3949 416.182 52.9773 416.653 53.7102C417.125 54.4432 417.361 55.2528 417.361 56.1392C417.366 57.1222 417.077 57.946 416.491 58.6108C415.912 59.2756 415.151 59.7102 414.207 59.9148V60.0511C415.435 60.2216 416.375 60.6761 417.028 61.4148C417.688 62.1477 418.014 63.0597 418.009 64.1506C418.009 65.1278 417.73 66.0028 417.173 66.7756C416.622 67.5426 415.861 68.1449 414.889 68.5824C413.923 69.0199 412.815 69.2386 411.565 69.2386ZM427.002 69.2386C425.866 69.2386 424.849 69.0256 423.951 68.5994C423.053 68.1676 422.34 67.5767 421.812 66.8267C421.289 66.0767 421.011 65.2187 420.977 64.2528H424.045C424.102 64.9687 424.411 65.554 424.974 66.0085C425.536 66.4574 426.212 66.6818 427.002 66.6818C427.621 66.6818 428.173 66.5398 428.656 66.2557C429.138 65.9716 429.519 65.5767 429.798 65.071C430.076 64.5653 430.212 63.9886 430.207 63.3409C430.212 62.6818 430.073 62.0966 429.789 61.5852C429.505 61.0739 429.116 60.6733 428.621 60.3835C428.127 60.0881 427.559 59.9403 426.917 59.9403C426.394 59.9347 425.88 60.0312 425.374 60.2301C424.869 60.429 424.468 60.6903 424.173 61.0142L421.317 60.5455L422.229 51.5455H432.354V54.1875H424.846L424.343 58.8153H424.445C424.769 58.4347 425.227 58.1193 425.817 57.8693C426.408 57.6136 427.056 57.4858 427.761 57.4858C428.817 57.4858 429.761 57.7358 430.59 58.2358C431.42 58.7301 432.073 59.4119 432.55 60.2812C433.028 61.1506 433.266 62.1449 433.266 63.2642C433.266 64.4176 432.999 65.446 432.465 66.3494C431.937 67.2472 431.201 67.9545 430.258 68.4716C429.32 68.983 428.235 69.2386 427.002 69.2386Z" fill="#1E1E1F"/>
<path d="M355.878 105.145C355.205 105.142 354.629 104.964 354.152 104.612C353.675 104.26 353.31 103.747 353.057 103.074C352.804 102.401 352.678 101.589 352.678 100.641C352.678 99.6946 352.804 98.8864 353.057 98.2159C353.313 97.5455 353.679 97.0341 354.156 96.6818C354.636 96.3295 355.21 96.1534 355.878 96.1534C356.545 96.1534 357.118 96.331 357.595 96.6861C358.072 97.0384 358.438 97.5497 358.69 98.2202C358.946 98.8878 359.074 99.6946 359.074 100.641C359.074 101.592 358.947 102.405 358.695 103.078C358.442 103.749 358.077 104.261 357.599 104.616C357.122 104.969 356.548 105.145 355.878 105.145ZM355.878 104.007C356.469 104.007 356.93 103.719 357.263 103.142C357.598 102.565 357.766 101.732 357.766 100.641C357.766 99.9162 357.689 99.304 357.536 98.804C357.385 98.3011 357.168 97.9205 356.884 97.6619C356.602 97.4006 356.267 97.2699 355.878 97.2699C355.29 97.2699 354.828 97.5597 354.493 98.1392C354.158 98.7187 353.989 99.5526 353.986 100.641C353.986 101.368 354.061 101.983 354.212 102.486C354.365 102.986 354.582 103.365 354.864 103.624C355.145 103.879 355.483 104.007 355.878 104.007Z" fill="#2772F5"/>
<path d="M541.72 105.119C541.186 105.119 540.706 105.017 540.28 104.812C539.857 104.605 539.518 104.321 539.266 103.96C539.013 103.599 538.878 103.188 538.861 102.724H540.139C540.17 103.099 540.337 103.408 540.638 103.649C540.939 103.891 541.3 104.011 541.72 104.011C542.055 104.011 542.352 103.935 542.611 103.781C542.872 103.625 543.077 103.411 543.224 103.138C543.375 102.865 543.45 102.554 543.45 102.205C543.45 101.849 543.374 101.533 543.22 101.254C543.067 100.976 542.855 100.757 542.585 100.598C542.318 100.439 542.011 100.358 541.665 100.355C541.401 100.355 541.135 100.401 540.868 100.491C540.601 100.582 540.385 100.702 540.22 100.849L539.014 100.67L539.504 96.2727H544.303V97.402H540.599L540.322 99.8438H540.374C540.544 99.679 540.77 99.5412 541.051 99.4304C541.335 99.3196 541.639 99.2642 541.963 99.2642C542.494 99.2642 542.967 99.3906 543.382 99.6435C543.8 99.8963 544.128 100.241 544.366 100.679C544.608 101.114 544.727 101.614 544.724 102.179C544.727 102.744 544.599 103.249 544.341 103.692C544.085 104.135 543.73 104.484 543.276 104.74C542.824 104.993 542.305 105.119 541.72 105.119ZM549.439 105.145C548.766 105.142 548.191 104.964 547.713 104.612C547.236 104.26 546.871 103.747 546.618 103.074C546.365 102.401 546.239 101.589 546.239 100.641C546.239 99.6946 546.365 98.8864 546.618 98.2159C546.874 97.5455 547.24 97.0341 547.718 96.6818C548.198 96.3295 548.772 96.1534 549.439 96.1534C550.107 96.1534 550.679 96.331 551.157 96.6861C551.634 97.0384 551.999 97.5497 552.252 98.2202C552.507 98.8878 552.635 99.6946 552.635 100.641C552.635 101.592 552.509 102.405 552.256 103.078C552.003 103.749 551.638 104.261 551.161 104.616C550.684 104.969 550.11 105.145 549.439 105.145ZM549.439 104.007C550.03 104.007 550.492 103.719 550.824 103.142C551.159 102.565 551.327 101.732 551.327 100.641C551.327 99.9162 551.25 99.304 551.097 98.804C550.946 98.3011 550.729 97.9205 550.445 97.6619C550.164 97.4006 549.828 97.2699 549.439 97.2699C548.851 97.2699 548.39 97.5597 548.054 98.1392C547.719 98.7187 547.55 99.5526 547.547 100.641C547.547 101.368 547.622 101.983 547.773 102.486C547.926 102.986 548.144 103.365 548.425 103.624C548.706 103.879 549.044 104.007 549.439 104.007ZM554.386 105V96.2727H555.703V100.44H555.81L559.47 96.2727H561.128L557.608 100.202L561.141 105H559.555L556.734 101.101L555.703 102.286V105H554.386Z" fill="#85B4FF"/>
<rect x="352" y="114" width="210" height="8" rx="4" fill="#D6E6FF"/>
<rect x="352" y="114" width="144.548" height="8" rx="4" fill="#2772F5"/>
<path d="M595.044 112.744C594.813 114.919 593.581 116.957 591.541 118.134C588.154 120.09 583.821 118.929 581.865 115.541L581.657 115.18M580.955 111.256C581.187 109.081 582.419 107.043 584.458 105.865C587.846 103.909 592.178 105.07 594.134 108.458L594.343 108.819M580.911 117.055L581.521 114.778L583.798 115.388M592.202 108.611L594.479 109.221L595.089 106.945M588 108.25V112L590.083 113.25" stroke="#2772F5" stroke-width="1.6" stroke-linecap="round" stroke-linejoin="round"/>
<path d="M606.524 117.139C605.785 117.139 605.129 117.015 604.555 116.766C603.985 116.518 603.538 116.178 603.213 115.747C602.892 115.313 602.732 114.821 602.736 114.271C602.732 113.843 602.825 113.45 603.014 113.092C603.203 112.734 603.458 112.436 603.78 112.197C604.105 111.955 604.466 111.801 604.864 111.735V111.665C604.34 111.549 603.916 111.283 603.591 110.865C603.269 110.444 603.11 109.959 603.114 109.408C603.11 108.885 603.256 108.417 603.551 108.006C603.846 107.595 604.25 107.272 604.764 107.037C605.278 106.798 605.865 106.679 606.524 106.679C607.177 106.679 607.759 106.798 608.269 107.037C608.783 107.272 609.187 107.595 609.482 108.006C609.781 108.417 609.93 108.885 609.93 109.408C609.93 109.959 609.766 110.444 609.438 110.865C609.113 111.283 608.693 111.549 608.18 111.665V111.735C608.577 111.801 608.935 111.955 609.254 112.197C609.575 112.436 609.83 112.734 610.019 113.092C610.211 113.45 610.308 113.843 610.308 114.271C610.308 114.821 610.145 115.313 609.82 115.747C609.496 116.178 609.048 116.518 608.478 116.766C607.911 117.015 607.26 117.139 606.524 117.139ZM606.524 115.717C606.905 115.717 607.237 115.653 607.518 115.523C607.8 115.391 608.019 115.205 608.175 114.967C608.33 114.728 608.41 114.453 608.413 114.141C608.41 113.817 608.326 113.53 608.16 113.281C607.997 113.029 607.774 112.832 607.489 112.69C607.207 112.547 606.885 112.476 606.524 112.476C606.16 112.476 605.835 112.547 605.55 112.69C605.265 112.832 605.039 113.029 604.874 113.281C604.711 113.53 604.632 113.817 604.635 114.141C604.632 114.453 604.708 114.728 604.864 114.967C605.019 115.202 605.238 115.386 605.52 115.518C605.805 115.651 606.14 115.717 606.524 115.717ZM606.524 111.079C606.836 111.079 607.111 111.016 607.349 110.89C607.591 110.764 607.782 110.588 607.921 110.363C608.06 110.138 608.132 109.877 608.135 109.582C608.132 109.291 608.062 109.036 607.926 108.817C607.79 108.595 607.601 108.424 607.359 108.305C607.117 108.182 606.839 108.121 606.524 108.121C606.203 108.121 605.919 108.182 605.674 108.305C605.432 108.424 605.243 108.595 605.107 108.817C604.975 109.036 604.91 109.291 604.913 109.582C604.91 109.877 604.976 110.138 605.112 110.363C605.251 110.585 605.442 110.761 605.684 110.89C605.929 111.016 606.209 111.079 606.524 111.079ZM613.902 112.526V117H612.102V106.818H613.862V110.661H613.951C614.13 110.23 614.407 109.891 614.782 109.642C615.159 109.39 615.64 109.264 616.223 109.264C616.754 109.264 617.216 109.375 617.61 109.597C618.005 109.819 618.31 110.144 618.525 110.572C618.744 110.999 618.853 111.521 618.853 112.138V117H617.054V112.416C617.054 111.902 616.921 111.503 616.656 111.218C616.394 110.93 616.026 110.786 615.552 110.786C615.234 110.786 614.949 110.855 614.697 110.994C614.448 111.13 614.253 111.327 614.11 111.586C613.971 111.844 613.902 112.158 613.902 112.526Z" fill="#0B57D0"/>
<rect x="660.5" y="0.5" width="311" height="145" rx="23.5" fill="white"/>
<rect x="660.5" y="0.5" width="311" height="145" rx="23.5" stroke="#EDEDF0"/>
<path d="M685.119 39V28.8182H688.748C689.537 28.8182 690.191 28.9541 690.712 29.2259C691.235 29.4976 691.626 29.8738 691.885 30.3544C692.143 30.8317 692.273 31.3835 692.273 32.0099C692.273 32.633 692.142 33.1816 691.88 33.6555C691.621 34.1262 691.23 34.4924 690.707 34.7543C690.186 35.0161 689.532 35.147 688.743 35.147H685.994V33.8246H688.604C689.101 33.8246 689.505 33.7533 689.817 33.6108C690.132 33.4683 690.362 33.2611 690.508 32.9893C690.654 32.7176 690.727 32.3911 690.727 32.0099C690.727 31.6255 690.652 31.2924 690.503 31.0107C690.357 30.7289 690.127 30.5135 689.812 30.3643C689.5 30.2119 689.091 30.1357 688.584 30.1357H686.655V39H685.119ZM690.145 34.4062L692.661 39H690.911L688.445 34.4062H690.145ZM696.385 39.169C695.901 39.169 695.464 39.0795 695.073 38.9006C694.681 38.7183 694.372 38.4548 694.143 38.1101C693.917 37.7654 693.805 37.3428 693.805 36.8423C693.805 36.4115 693.888 36.0568 694.053 35.7784C694.219 35.5 694.443 35.2796 694.725 35.1172C695.006 34.9548 695.321 34.8321 695.669 34.7493C696.017 34.6664 696.372 34.6035 696.733 34.5604C697.19 34.5073 697.562 34.4643 697.847 34.4311C698.132 34.3946 698.339 34.3366 698.468 34.2571C698.597 34.1776 698.662 34.0483 698.662 33.8693V33.8345C698.662 33.4003 698.539 33.0639 698.294 32.8253C698.052 32.5866 697.691 32.4673 697.21 32.4673C696.71 32.4673 696.315 32.5784 696.027 32.8004C695.742 33.0192 695.545 33.2628 695.435 33.5312L694.038 33.2131C694.204 32.7491 694.446 32.3745 694.764 32.0895C695.086 31.8011 695.455 31.5923 695.873 31.4631C696.291 31.3305 696.73 31.2642 697.19 31.2642C697.495 31.2642 697.819 31.3007 698.16 31.3736C698.505 31.4432 698.826 31.5724 699.124 31.7614C699.426 31.9503 699.673 32.2204 699.865 32.5717C700.057 32.9197 700.153 33.3722 700.153 33.929V39H698.702V37.956H698.642C698.546 38.1482 698.402 38.3371 698.21 38.5227C698.017 38.7083 697.77 38.8625 697.469 38.9851C697.167 39.1077 696.806 39.169 696.385 39.169ZM696.708 37.9759C697.119 37.9759 697.47 37.8946 697.762 37.7322C698.057 37.5698 698.281 37.3577 698.433 37.0959C698.589 36.8307 698.667 36.5473 698.667 36.2457V35.2614C698.614 35.3144 698.511 35.3641 698.359 35.4105C698.21 35.4536 698.039 35.4917 697.847 35.5249C697.654 35.5547 697.467 35.5829 697.285 35.6094C697.103 35.6326 696.95 35.6525 696.828 35.669C696.539 35.7055 696.276 35.7668 696.037 35.853C695.802 35.9392 695.613 36.0634 695.47 36.2259C695.331 36.3849 695.261 36.5971 695.261 36.8622C695.261 37.2301 695.397 37.5085 695.669 37.6974C695.941 37.883 696.287 37.9759 696.708 37.9759ZM705.838 31.3636V32.5568H701.667V31.3636H705.838ZM702.786 29.5341H704.272V36.7578C704.272 37.0462 704.315 37.2633 704.401 37.4091C704.487 37.5516 704.598 37.6494 704.734 37.7024C704.874 37.7521 705.024 37.777 705.187 37.777C705.306 37.777 705.411 37.7687 705.5 37.7521C705.589 37.7356 705.659 37.7223 705.709 37.7124L705.977 38.9403C705.891 38.9735 705.768 39.0066 705.609 39.0398C705.45 39.0762 705.251 39.0961 705.013 39.0994C704.622 39.1061 704.257 39.0365 703.919 38.8906C703.581 38.7448 703.308 38.5194 703.099 38.2145C702.89 37.9096 702.786 37.5268 702.786 37.0661V29.5341ZM710.832 39.1541C710.079 39.1541 709.431 38.9934 708.888 38.6719C708.347 38.3471 707.93 37.8913 707.635 37.3047C707.343 36.7147 707.197 36.0237 707.197 35.2315C707.197 34.4493 707.343 33.7599 707.635 33.1634C707.93 32.5668 708.341 32.1011 708.868 31.7663C709.398 31.4316 710.018 31.2642 710.727 31.2642C711.158 31.2642 711.576 31.3355 711.98 31.478C712.384 31.6205 712.747 31.8442 713.069 32.1491C713.39 32.4541 713.644 32.8501 713.829 33.3374C714.015 33.8213 714.108 34.4096 714.108 35.1023V35.6293H708.038V34.5156H712.651C712.651 34.1245 712.572 33.7782 712.413 33.4766C712.253 33.1716 712.03 32.9313 711.741 32.7557C711.456 32.58 711.122 32.4922 710.737 32.4922C710.32 32.4922 709.955 32.5949 709.643 32.8004C709.335 33.0026 709.096 33.2678 708.927 33.5959C708.762 33.9207 708.679 34.2737 708.679 34.6548V35.5249C708.679 36.0353 708.768 36.4695 708.947 36.8274C709.13 37.1854 709.383 37.4588 709.708 37.6477C710.033 37.8333 710.412 37.9261 710.846 37.9261C711.128 37.9261 711.385 37.8864 711.617 37.8068C711.849 37.724 712.05 37.6013 712.219 37.4389C712.388 37.2765 712.517 37.076 712.606 36.8374L714.013 37.0909C713.901 37.5052 713.699 37.8681 713.407 38.1797C713.119 38.4879 712.756 38.7282 712.318 38.9006C711.884 39.0696 711.388 39.1541 710.832 39.1541ZM721.229 28.8182V39H719.742V28.8182H721.229ZM723.369 39V31.3636H724.855V39H723.369ZM724.119 30.1854C723.861 30.1854 723.639 30.0992 723.453 29.9268C723.271 29.7512 723.18 29.5424 723.18 29.3004C723.18 29.0552 723.271 28.8464 723.453 28.674C723.639 28.4983 723.861 28.4105 724.119 28.4105C724.378 28.4105 724.598 28.4983 724.781 28.674C724.966 28.8464 725.059 29.0552 725.059 29.3004C725.059 29.5424 724.966 29.7512 724.781 29.9268C724.598 30.0992 724.378 30.1854 724.119 30.1854ZM726.995 39V31.3636H728.422V32.6065H728.516C728.675 32.1856 728.935 31.8575 729.297 31.6222C729.658 31.3835 730.091 31.2642 730.594 31.2642C731.105 31.2642 731.532 31.3835 731.877 31.6222C732.225 31.8608 732.482 32.1889 732.648 32.6065H732.727C732.909 32.1989 733.199 31.8741 733.597 31.6321C733.995 31.3868 734.469 31.2642 735.019 31.2642C735.712 31.2642 736.277 31.4813 736.714 31.9155C737.155 32.3497 737.376 33.0043 737.376 33.8793V39H735.889V34.0185C735.889 33.5014 735.748 33.1269 735.467 32.8949C735.185 32.6629 734.848 32.5469 734.457 32.5469C733.973 32.5469 733.597 32.696 733.329 32.9943C733.06 33.2893 732.926 33.6688 732.926 34.1328V39H731.444V33.924C731.444 33.5097 731.315 33.1766 731.057 32.9247C730.798 32.6728 730.462 32.5469 730.047 32.5469C729.766 32.5469 729.506 32.6214 729.267 32.7706C729.032 32.9164 728.841 33.1203 728.695 33.3821C728.553 33.6439 728.481 33.9472 728.481 34.2919V39H726.995ZM739.508 39V31.3636H740.994V39H739.508ZM740.259 30.1854C740 30.1854 739.778 30.0992 739.592 29.9268C739.41 29.7512 739.319 29.5424 739.319 29.3004C739.319 29.0552 739.41 28.8464 739.592 28.674C739.778 28.4983 740 28.4105 740.259 28.4105C740.517 28.4105 740.738 28.4983 740.92 28.674C741.105 28.8464 741.198 29.0552 741.198 29.3004C741.198 29.5424 741.105 29.7512 740.92 29.9268C740.738 30.0992 740.517 30.1854 740.259 30.1854ZM746.699 31.3636V32.5568H742.528V31.3636H746.699ZM743.646 29.5341H745.133V36.7578C745.133 37.0462 745.176 37.2633 745.262 37.4091C745.348 37.5516 745.459 37.6494 745.595 37.7024C745.734 37.7521 745.885 37.777 746.048 37.777C746.167 37.777 746.271 37.7687 746.361 37.7521C746.45 37.7356 746.52 37.7223 746.57 37.7124L746.838 38.9403C746.752 38.9735 746.629 39.0066 746.47 39.0398C746.311 39.0762 746.112 39.0961 745.874 39.0994C745.483 39.1061 745.118 39.0365 744.78 38.8906C744.442 38.7448 744.168 38.5194 743.96 38.2145C743.751 37.9096 743.646 37.5268 743.646 37.0661V29.5341Z" fill="#AEAEB2"/>
<path d="M691.619 69.2386C690.483 69.2386 689.466 69.0256 688.568 68.5994C687.67 68.1676 686.957 67.5767 686.429 66.8267C685.906 66.0767 685.628 65.2187 685.594 64.2528H688.662C688.719 64.9687 689.028 65.554 689.591 66.0085C690.153 66.4574 690.83 66.6818 691.619 66.6818C692.239 66.6818 692.79 66.5398 693.273 66.2557C693.756 65.9716 694.136 65.5767 694.415 65.071C694.693 64.5653 694.83 63.9886 694.824 63.3409C694.83 62.6818 694.69 62.0966 694.406 61.5852C694.122 61.0739 693.733 60.6733 693.239 60.3835C692.744 60.0881 692.176 59.9403 691.534 59.9403C691.011 59.9347 690.497 60.0312 689.991 60.2301C689.486 60.429 689.085 60.6903 688.79 61.0142L685.935 60.5455L686.847 51.5455H696.972V54.1875H689.463L688.96 58.8153H689.062C689.386 58.4347 689.844 58.1193 690.435 57.8693C691.026 57.6136 691.673 57.4858 692.378 57.4858C693.435 57.4858 694.378 57.7358 695.207 58.2358C696.037 58.7301 696.69 59.4119 697.168 60.2812C697.645 61.1506 697.884 62.1449 697.884 63.2642C697.884 64.4176 697.616 65.446 697.082 66.3494C696.554 67.2472 695.818 67.9545 694.875 68.4716C693.938 68.983 692.852 69.2386 691.619 69.2386ZM706.288 69V57.3636H710.652C711.546 57.3636 712.296 57.5189 712.902 57.8295C713.512 58.1402 713.972 58.5758 714.283 59.1364C714.597 59.6932 714.754 60.3428 714.754 61.0852C714.754 61.8314 714.595 62.4792 714.277 63.0284C713.963 63.5739 713.499 63.9962 712.885 64.2955C712.271 64.5909 711.518 64.7386 710.624 64.7386H707.516V62.9886H710.339C710.862 62.9886 711.29 62.9167 711.624 62.7727C711.957 62.625 712.203 62.411 712.362 62.1307C712.525 61.8466 712.607 61.4981 712.607 61.0852C712.607 60.6723 712.525 60.3201 712.362 60.0284C712.199 59.733 711.951 59.5095 711.618 59.358C711.285 59.2027 710.855 59.125 710.328 59.125H708.396V69H706.288ZM712.3 63.7273L715.18 69H712.828L709.999 63.7273H712.3ZM716.695 69V57.3636H721.058C721.952 57.3636 722.702 57.5303 723.308 57.8636C723.918 58.197 724.378 58.6553 724.689 59.2386C725.003 59.8182 725.161 60.4773 725.161 61.2159C725.161 61.9621 725.003 62.625 724.689 63.2045C724.375 63.7841 723.911 64.2405 723.297 64.5739C722.683 64.9034 721.928 65.0682 721.03 65.0682H718.138V63.3352H720.746C721.268 63.3352 721.696 63.2443 722.03 63.0625C722.363 62.8807 722.609 62.6307 722.768 62.3125C722.931 61.9943 723.013 61.6288 723.013 61.2159C723.013 60.803 722.931 60.4394 722.768 60.125C722.609 59.8106 722.361 59.5663 722.024 59.392C721.691 59.214 721.261 59.125 720.734 59.125H718.803V69H716.695ZM733.315 60.5625C733.262 60.0663 733.039 59.6799 732.645 59.4034C732.255 59.1269 731.747 58.9886 731.122 58.9886C730.683 58.9886 730.306 59.0549 729.991 59.1875C729.677 59.3201 729.437 59.5 729.27 59.7273C729.103 59.9545 729.018 60.214 729.014 60.5057C729.014 60.7481 729.069 60.9583 729.179 61.1364C729.293 61.3144 729.446 61.4659 729.639 61.5909C729.832 61.7121 730.046 61.8144 730.281 61.8977C730.516 61.9811 730.753 62.0511 730.991 62.108L732.082 62.3807C732.522 62.483 732.944 62.6212 733.349 62.7955C733.759 62.9697 734.124 63.1894 734.446 63.4545C734.772 63.7197 735.029 64.0398 735.219 64.4148C735.408 64.7898 735.503 65.2292 735.503 65.733C735.503 66.4148 735.329 67.0152 734.98 67.5341C734.632 68.0492 734.128 68.4527 733.469 68.7443C732.813 69.0322 732.02 69.1761 731.088 69.1761C730.183 69.1761 729.397 69.036 728.73 68.7557C728.067 68.4754 727.548 68.0663 727.173 67.5284C726.802 66.9905 726.601 66.3352 726.571 65.5625H728.645C728.675 65.9678 728.8 66.3049 729.02 66.5739C729.24 66.8428 729.526 67.0436 729.878 67.1761C730.234 67.3087 730.632 67.375 731.071 67.375C731.529 67.375 731.931 67.3068 732.276 67.1705C732.624 67.0303 732.897 66.8371 733.094 66.5909C733.291 66.3409 733.391 66.0492 733.395 65.7159C733.391 65.4129 733.302 65.1629 733.128 64.9659C732.954 64.7652 732.709 64.5985 732.395 64.4659C732.084 64.3295 731.721 64.2083 731.304 64.1023L729.98 63.7614C729.022 63.5152 728.264 63.142 727.707 62.642C727.154 62.1383 726.878 61.4697 726.878 60.6364C726.878 59.9508 727.063 59.3504 727.435 58.8352C727.81 58.3201 728.319 57.9205 728.963 57.6364C729.607 57.3485 730.336 57.2045 731.151 57.2045C731.976 57.2045 732.7 57.3485 733.321 57.6364C733.946 57.9205 734.437 58.3163 734.793 58.8239C735.149 59.3277 735.332 59.9072 735.344 60.5625H733.315Z" fill="#1E1E1F"/>
<line x1="684" y1="105.5" x2="944" y2="105.5" stroke="#C2DAFF" stroke-dasharray="2 2"/>
<path d="M684 109C684 106.791 685.791 105 688 105C690.209 105 692 106.791 692 109V118C692 120.209 690.209 122 688 122C685.791 122 684 120.209 684 118V109Z" fill="url(#paint0_linear_295_2182)"/>
<path d="M696 102C696 99.7909 697.791 98 700 98C702.209 98 704 99.7909 704 102V118C704 120.209 702.209 122 700 122C697.791 122 696 120.209 696 118V102Z" fill="url(#paint1_linear_295_2182)"/>
<path d="M708 102C708 99.7909 709.791 98 712 98C714.209 98 716 99.7909 716 102V118C716 120.209 714.209 122 712 122C709.791 122 708 120.209 708 118V102Z" fill="url(#paint2_linear_295_2182)"/>
<path d="M720 109C720 106.791 721.791 105 724 105C726.209 105 728 106.791 728 109V118C728 120.209 726.209 122 724 122C721.791 122 720 120.209 720 118V109Z" fill="url(#paint3_linear_295_2182)"/>
<path d="M732 109C732 106.791 733.791 105 736 105C738.209 105 740 106.791 740 109V118C740 120.209 738.209 122 736 122C733.791 122 732 120.209 732 118V109Z" fill="url(#paint4_linear_295_2182)"/>
<path d="M744 105C744 102.791 745.791 101 748 101C750.209 101 752 102.791 752 105V118C752 120.209 750.209 122 748 122C745.791 122 744 120.209 744 118V105Z" fill="url(#paint5_linear_295_2182)"/>
<path d="M756 96C756 93.7909 757.791 92 760 92C762.209 92 764 93.7909 764 96V118C764 120.209 762.209 122 760 122C757.791 122 756 120.209 756 118V96Z" fill="url(#paint6_linear_295_2182)"/>
<path d="M768 98C768 95.7909 769.791 94 772 94C774.209 94 776 95.7909 776 98V118C776 120.209 774.209 122 772 122C769.791 122 768 120.209 768 118V98Z" fill="url(#paint7_linear_295_2182)"/>
<path d="M780 105C780 102.791 781.791 101 784 101C786.209 101 788 102.791 788 105V118C788 120.209 786.209 122 784 122C781.791 122 780 120.209 780 118V105Z" fill="url(#paint8_linear_295_2182)"/>
<path d="M792 109C792 106.791 793.791 105 796 105C798.209 105 800 106.791 800 109V118C800 120.209 798.209 122 796 122C793.791 122 792 120.209 792 118V109Z" fill="url(#paint9_linear_295_2182)"/>
<path d="M804 109C804 106.791 805.791 105 808 105C810.209 105 812 106.791 812 109V118C812 120.209 810.209 122 808 122C805.791 122 804 120.209 804 118V109Z" fill="url(#paint10_linear_295_2182)"/>
<path d="M816 105C816 102.791 817.791 101 820 101C822.209 101 824 102.791 824 105V118C824 120.209 822.209 122 820 122C817.791 122 816 120.209 816 118V105Z" fill="url(#paint11_linear_295_2182)"/>
<path d="M828 98C828 95.7909 829.791 94 832 94C834.209 94 836 95.7909 836 98V118C836 120.209 834.209 122 832 122C829.791 122 828 120.209 828 118V98Z" fill="url(#paint12_linear_295_2182)"/>
<path d="M840 105C840 102.791 841.791 101 844 101C846.209 101 848 102.791 848 105V118C848 120.209 846.209 122 844 122C841.791 122 840 120.209 840 118V105Z" fill="url(#paint13_linear_295_2182)"/>
<path d="M852 102C852 99.7909 853.791 98 856 98C858.209 98 860 99.7909 860 102V118C860 120.209 858.209 122 856 122C853.791 122 852 120.209 852 118V102Z" fill="url(#paint14_linear_295_2182)"/>
<path d="M864 109C864 106.791 865.791 105 868 105C870.209 105 872 106.791 872 109V118C872 120.209 870.209 122 868 122C865.791 122 864 120.209 864 118V109Z" fill="url(#paint15_linear_295_2182)"/>
<path d="M876 108C876 105.791 877.791 104 880 104C882.209 104 884 105.791 884 108V118C884 120.209 882.209 122 880 122C877.791 122 876 120.209 876 118V108Z" fill="url(#paint16_linear_295_2182)"/>
<path d="M888 109C888 106.791 889.791 105 892 105C894.209 105 896 106.791 896 109V118C896 120.209 894.209 122 892 122C889.791 122 888 120.209 888 118V109Z" fill="url(#paint17_linear_295_2182)"/>
<path d="M900 105C900 102.791 901.791 101 904 101C906.209 101 908 102.791 908 105V118C908 120.209 906.209 122 904 122C901.791 122 900 120.209 900 118V105Z" fill="url(#paint18_linear_295_2182)"/>
<path d="M912 98C912 95.7909 913.791 94 916 94C918.209 94 920 95.7909 920 98V118C920 120.209 918.209 122 916 122C913.791 122 912 120.209 912 118V98Z" fill="url(#paint19_linear_295_2182)"/>
<path d="M924 98C924 95.7909 925.791 94 928 94C930.209 94 932 95.7909 932 98V118C932 120.209 930.209 122 928 122C925.791 122 924 120.209 924 118V98Z" fill="url(#paint20_linear_295_2182)"/>
<path d="M936 109C936 106.791 937.791 105 940 105C942.209 105 944 106.791 944 109V118C944 120.209 942.209 122 940 122C937.791 122 936 120.209 936 118V109Z" fill="url(#paint21_linear_295_2182)"/>
<defs>
<linearGradient id="paint0_linear_295_2182" x1="814" y1="88.5" x2="814" y2="122" gradientUnits="userSpaceOnUse">
<stop offset="0.489483" stop-color="#FF6753"/>
<stop offset="0.489583" stop-color="#2772F5"/>
</linearGradient>
<linearGradient id="paint1_linear_295_2182" x1="814" y1="88.5" x2="814" y2="122" gradientUnits="userSpaceOnUse">
<stop offset="0.489483" stop-color="#FF6753"/>
<stop offset="0.489583" stop-color="#2772F5"/>
</linearGradient>
<linearGradient id="paint2_linear_295_2182" x1="814" y1="88.5" x2="814" y2="122" gradientUnits="userSpaceOnUse">
<stop offset="0.489483" stop-color="#FF6753"/>
<stop offset="0.489583" stop-color="#2772F5"/>
</linearGradient>
<linearGradient id="paint3_linear_295_2182" x1="814" y1="88.5" x2="814" y2="122" gradientUnits="userSpaceOnUse">
<stop offset="0.489483" stop-color="#FF6753"/>
<stop offset="0.489583" stop-color="#2772F5"/>
</linearGradient>
<linearGradient id="paint4_linear_295_2182" x1="814" y1="88.5" x2="814" y2="122" gradientUnits="userSpaceOnUse">
<stop offset="0.489483" stop-color="#FF6753"/>
<stop offset="0.489583" stop-color="#2772F5"/>
</linearGradient>
<linearGradient id="paint5_linear_295_2182" x1="814" y1="88.5" x2="814" y2="122" gradientUnits="userSpaceOnUse">
<stop offset="0.489483" stop-color="#FF6753"/>
<stop offset="0.489583" stop-color="#2772F5"/>
</linearGradient>
<linearGradient id="paint6_linear_295_2182" x1="814" y1="88.5" x2="814" y2="122" gradientUnits="userSpaceOnUse">
<stop offset="0.489483" stop-color="#FF6753"/>
<stop offset="0.489583" stop-color="#2772F5"/>
</linearGradient>
<linearGradient id="paint7_linear_295_2182" x1="814" y1="88.5" x2="814" y2="122" gradientUnits="userSpaceOnUse">
<stop offset="0.489483" stop-color="#FF6753"/>
<stop offset="0.489583" stop-color="#2772F5"/>
</linearGradient>
<linearGradient id="paint8_linear_295_2182" x1="814" y1="88.5" x2="814" y2="122" gradientUnits="userSpaceOnUse">
<stop offset="0.489483" stop-color="#FF6753"/>
<stop offset="0.489583" stop-color="#2772F5"/>
</linearGradient>
<linearGradient id="paint9_linear_295_2182" x1="814" y1="88.5" x2="814" y2="122" gradientUnits="userSpaceOnUse">
<stop offset="0.489483" stop-color="#FF6753"/>
<stop offset="0.489583" stop-color="#2772F5"/>
</linearGradient>
<linearGradient id="paint10_linear_295_2182" x1="814" y1="88.5" x2="814" y2="122" gradientUnits="userSpaceOnUse">
<stop offset="0.489483" stop-color="#FF6753"/>
<stop offset="0.489583" stop-color="#2772F5"/>
</linearGradient>
<linearGradient id="paint11_linear_295_2182" x1="814" y1="88.5" x2="814" y2="122" gradientUnits="userSpaceOnUse">
<stop offset="0.489483" stop-color="#FF6753"/>
<stop offset="0.489583" stop-color="#2772F5"/>
</linearGradient>
<linearGradient id="paint12_linear_295_2182" x1="814" y1="88.5" x2="814" y2="122" gradientUnits="userSpaceOnUse">
<stop offset="0.489483" stop-color="#FF6753"/>
<stop offset="0.489583" stop-color="#2772F5"/>
</linearGradient>
<linearGradient id="paint13_linear_295_2182" x1="814" y1="88.5" x2="814" y2="122" gradientUnits="userSpaceOnUse">
<stop offset="0.489483" stop-color="#FF6753"/>
<stop offset="0.489583" stop-color="#2772F5"/>
</linearGradient>
<linearGradient id="paint14_linear_295_2182" x1="814" y1="88.5" x2="814" y2="122" gradientUnits="userSpaceOnUse">
<stop offset="0.489483" stop-color="#FF6753"/>
<stop offset="0.489583" stop-color="#2772F5"/>
</linearGradient>
<linearGradient id="paint15_linear_295_2182" x1="814" y1="88.5" x2="814" y2="122" gradientUnits="userSpaceOnUse">
<stop offset="0.489483" stop-color="#FF6753"/>
<stop offset="0.489583" stop-color="#2772F5"/>
</linearGradient>
<linearGradient id="paint16_linear_295_2182" x1="814" y1="88.5" x2="814" y2="122" gradientUnits="userSpaceOnUse">
<stop offset="0.489483" stop-color="#FF6753"/>
<stop offset="0.489583" stop-color="#2772F5"/>
</linearGradient>
<linearGradient id="paint17_linear_295_2182" x1="814" y1="88.5" x2="814" y2="122" gradientUnits="userSpaceOnUse">
<stop offset="0.489483" stop-color="#FF6753"/>
<stop offset="0.489583" stop-color="#2772F5"/>
</linearGradient>
<linearGradient id="paint18_linear_295_2182" x1="814" y1="88.5" x2="814" y2="122" gradientUnits="userSpaceOnUse">
<stop offset="0.489483" stop-color="#FF6753"/>
<stop offset="0.489583" stop-color="#2772F5"/>
</linearGradient>
<linearGradient id="paint19_linear_295_2182" x1="814" y1="88.5" x2="814" y2="122" gradientUnits="userSpaceOnUse">
<stop offset="0.489483" stop-color="#FF6753"/>
<stop offset="0.489583" stop-color="#2772F5"/>
</linearGradient>
<linearGradient id="paint20_linear_295_2182" x1="814" y1="88.5" x2="814" y2="122" gradientUnits="userSpaceOnUse">
<stop offset="0.489483" stop-color="#FF6753"/>
<stop offset="0.489583" stop-color="#2772F5"/>
</linearGradient>
<linearGradient id="paint21_linear_295_2182" x1="814" y1="88.5" x2="814" y2="122" gradientUnits="userSpaceOnUse">
<stop offset="0.489483" stop-color="#FF6753"/>
<stop offset="0.489583" stop-color="#2772F5"/>
</linearGradient>
</defs>
</svg>
