<svg width="163" height="50" viewBox="0 0 163 50" fill="none" xmlns="http://www.w3.org/2000/svg">
<rect x="1.5" y="1.5" width="160" height="47" rx="17.5" fill="#2772F5"/>
<rect x="1.5" y="1.5" width="160" height="47" rx="17.5" stroke="#C2DAFF" stroke-width="3"/>
<path d="M27.0007 20.332V29.6654M22.334 24.9987H31.6673" stroke="white" stroke-width="2" stroke-linecap="round" stroke-linejoin="round"/>
<path d="M49 30.192C47.9547 30.192 47.0373 29.952 46.248 29.472C45.4587 28.992 44.8453 28.32 44.408 27.456C43.9707 26.592 43.752 25.584 43.752 24.432C43.752 23.2907 43.9707 22.2827 44.408 21.408C44.856 20.5333 45.4907 19.8507 46.312 19.36C47.144 18.8587 48.1253 18.608 49.256 18.608C50.5253 18.608 51.5867 18.9173 52.44 19.536C53.2933 20.144 53.8373 20.992 54.072 22.08H52.264C52.104 21.4613 51.7627 20.976 51.24 20.624C50.728 20.2613 50.0613 20.08 49.24 20.08C48.4507 20.08 47.7627 20.256 47.176 20.608C46.6 20.96 46.1573 21.4613 45.848 22.112C45.5387 22.7627 45.384 23.536 45.384 24.432C45.384 25.3387 45.5387 26.1173 45.848 26.768C46.1573 27.4187 46.5893 27.9147 47.144 28.256C47.7093 28.5973 48.3653 28.768 49.112 28.768C50.232 28.768 51.08 28.4427 51.656 27.792C52.232 27.1413 52.568 26.272 52.664 25.184H49.576V23.952H54.28V30H52.808L52.68 28.288C52.424 28.704 52.1253 29.056 51.784 29.344C51.4533 29.6213 51.0587 29.8347 50.6 29.984C50.152 30.1227 49.6187 30.192 49 30.192ZM59.9708 30.192C59.1921 30.192 58.5041 30.0213 57.9068 29.68C57.3094 29.328 56.8401 28.8373 56.4988 28.208C56.1681 27.5787 56.0028 26.8427 56.0028 26C56.0028 25.1573 56.1681 24.4213 56.4988 23.792C56.8401 23.1627 57.3094 22.672 57.9068 22.32C58.5041 21.9573 59.1974 21.776 59.9868 21.776C60.7761 21.776 61.4534 21.952 62.0188 22.304C62.5841 22.6453 63.0214 23.1093 63.3308 23.696C63.6401 24.272 63.7948 24.912 63.7948 25.616C63.7948 25.7227 63.7948 25.84 63.7948 25.968C63.7948 26.0853 63.7841 26.2133 63.7628 26.352H57.1708V25.232H62.1948C62.1628 24.5707 61.9388 24.0533 61.5228 23.68C61.1068 23.296 60.5894 23.104 59.9708 23.104C59.5441 23.104 59.1441 23.2 58.7708 23.392C58.4081 23.584 58.1148 23.872 57.8908 24.256C57.6774 24.6293 57.5707 25.104 57.5707 25.68V26.128C57.5707 26.7253 57.6774 27.2267 57.8908 27.632C58.1148 28.0373 58.4081 28.3467 58.7708 28.56C59.1334 28.7627 59.5281 28.864 59.9548 28.864C60.4668 28.864 60.8881 28.752 61.2188 28.528C61.5601 28.2933 61.8108 27.984 61.9708 27.6H63.5708C63.4214 28.1013 63.1814 28.5493 62.8508 28.944C62.5308 29.328 62.1254 29.632 61.6348 29.856C61.1548 30.08 60.6001 30.192 59.9708 30.192ZM68.6656 30C68.1643 30 67.7216 29.92 67.3376 29.76C66.9643 29.6 66.6763 29.3333 66.4736 28.96C66.2816 28.5867 66.1856 28.08 66.1856 27.44V23.312H64.7936V21.968H66.1856L66.3776 19.952H67.7856V21.968H70.0576V23.312H67.7856V27.456C67.7856 27.9147 67.8763 28.2293 68.0576 28.4C68.2496 28.56 68.5803 28.64 69.0496 28.64H69.9776V30H68.6656ZM79.5801 30.192C78.8015 30.192 78.1135 30.0213 77.5161 29.68C76.9188 29.328 76.4495 28.8373 76.1081 28.208C75.7775 27.5787 75.6121 26.8427 75.6121 26C75.6121 25.1573 75.7775 24.4213 76.1081 23.792C76.4495 23.1627 76.9188 22.672 77.5161 22.32C78.1135 21.9573 78.8068 21.776 79.5961 21.776C80.3855 21.776 81.0628 21.952 81.6281 22.304C82.1935 22.6453 82.6308 23.1093 82.9401 23.696C83.2495 24.272 83.4041 24.912 83.4041 25.616C83.4041 25.7227 83.4041 25.84 83.4041 25.968C83.4041 26.0853 83.3935 26.2133 83.3721 26.352H76.7801V25.232H81.8041C81.7721 24.5707 81.5481 24.0533 81.1321 23.68C80.7161 23.296 80.1988 23.104 79.5801 23.104C79.1535 23.104 78.7535 23.2 78.3801 23.392C78.0175 23.584 77.7241 23.872 77.5001 24.256C77.2868 24.6293 77.1801 25.104 77.1801 25.68V26.128C77.1801 26.7253 77.2868 27.2267 77.5001 27.632C77.7241 28.0373 78.0175 28.3467 78.3801 28.56C78.7428 28.7627 79.1375 28.864 79.5641 28.864C80.0761 28.864 80.4975 28.752 80.8281 28.528C81.1695 28.2933 81.4201 27.984 81.5801 27.6H83.1801C83.0308 28.1013 82.7908 28.5493 82.4601 28.944C82.1401 29.328 81.7348 29.632 81.2441 29.856C80.7641 30.08 80.2095 30.192 79.5801 30.192ZM85.1818 30V21.968H86.6218L86.7178 23.344C86.9738 22.864 87.3364 22.4853 87.8058 22.208C88.2751 21.92 88.8191 21.776 89.4378 21.776C90.0671 21.776 90.6111 21.904 91.0698 22.16C91.5284 22.416 91.8858 22.8053 92.1418 23.328C92.3978 23.84 92.5258 24.4853 92.5258 25.264V30H90.9258V25.424C90.9258 24.6773 90.7604 24.112 90.4298 23.728C90.0991 23.3333 89.6244 23.136 89.0058 23.136C88.5791 23.136 88.1951 23.2373 87.8538 23.44C87.5231 23.6427 87.2618 23.936 87.0698 24.32C86.8778 24.704 86.7818 25.1787 86.7818 25.744V30H85.1818ZM98.1564 30.192C97.3884 30.192 96.711 30.0107 96.1244 29.648C95.5377 29.2747 95.079 28.7733 94.7484 28.144C94.4284 27.504 94.2684 26.7787 94.2684 25.968C94.2684 25.1573 94.4284 24.4373 94.7484 23.808C95.079 23.1787 95.5377 22.6827 96.1244 22.32C96.7217 21.9573 97.4097 21.776 98.1884 21.776C98.8177 21.776 99.3724 21.904 99.8524 22.16C100.332 22.4053 100.706 22.752 100.972 23.2V18.48H102.572V30H101.132L100.972 28.752C100.802 28.9973 100.588 29.232 100.332 29.456C100.076 29.6693 99.767 29.8453 99.4044 29.984C99.0524 30.1227 98.6364 30.192 98.1564 30.192ZM98.4284 28.8C98.919 28.8 99.3564 28.6827 99.7404 28.448C100.124 28.2133 100.423 27.888 100.636 27.472C100.85 27.0453 100.956 26.5493 100.956 25.984C100.956 25.4187 100.85 24.928 100.636 24.512C100.423 24.0853 100.124 23.7547 99.7404 23.52C99.3564 23.2853 98.9137 23.168 98.4124 23.168C97.9324 23.168 97.5004 23.2853 97.1164 23.52C96.7324 23.7547 96.4337 24.0853 96.2204 24.512C96.007 24.928 95.9004 25.4187 95.9004 25.984C95.9004 26.5387 96.007 27.0293 96.2204 27.456C96.4337 27.8827 96.7324 28.2133 97.1164 28.448C97.5004 28.6827 97.9377 28.8 98.4284 28.8ZM104.744 33.52V21.968H106.184L106.344 23.216C106.515 22.96 106.728 22.7253 106.984 22.512C107.24 22.288 107.544 22.112 107.896 21.984C108.259 21.8453 108.68 21.776 109.16 21.776C109.928 21.776 110.6 21.9627 111.176 22.336C111.763 22.6987 112.222 23.2 112.552 23.84C112.883 24.4693 113.048 25.1893 113.048 26C113.048 26.8107 112.883 27.5307 112.552 28.16C112.222 28.7893 111.763 29.2853 111.176 29.648C110.59 30.0107 109.912 30.192 109.144 30.192C108.515 30.192 107.96 30.0693 107.48 29.824C107 29.568 106.622 29.216 106.344 28.768V33.52H104.744ZM108.888 28.8C109.379 28.8 109.816 28.6827 110.2 28.448C110.584 28.2133 110.883 27.888 111.096 27.472C111.31 27.0453 111.416 26.5493 111.416 25.984C111.416 25.4293 111.31 24.9387 111.096 24.512C110.883 24.0853 110.584 23.7547 110.2 23.52C109.816 23.2853 109.379 23.168 108.888 23.168C108.387 23.168 107.944 23.2853 107.56 23.52C107.176 23.7547 106.878 24.0853 106.664 24.512C106.462 24.928 106.36 25.4187 106.36 25.984C106.36 26.5493 106.462 27.0453 106.664 27.472C106.878 27.888 107.176 28.2133 107.56 28.448C107.944 28.6827 108.387 28.8 108.888 28.8ZM118.596 30.192C117.839 30.192 117.156 30.0213 116.548 29.68C115.951 29.328 115.476 28.8373 115.124 28.208C114.783 27.568 114.612 26.8267 114.612 25.984C114.612 25.1413 114.788 24.4053 115.14 23.776C115.492 23.136 115.972 22.6453 116.58 22.304C117.188 21.952 117.865 21.776 118.612 21.776C119.38 21.776 120.063 21.952 120.66 22.304C121.268 22.6453 121.743 23.1307 122.084 23.76C122.436 24.3893 122.612 25.1307 122.612 25.984C122.612 26.8267 122.436 27.568 122.084 28.208C121.732 28.8373 121.252 29.328 120.644 29.68C120.047 30.0213 119.364 30.192 118.596 30.192ZM118.596 28.816C119.033 28.816 119.428 28.7147 119.78 28.512C120.143 28.2987 120.431 27.9787 120.644 27.552C120.868 27.1253 120.98 26.6027 120.98 25.984C120.98 25.3547 120.873 24.832 120.66 24.416C120.447 23.9893 120.159 23.6747 119.796 23.472C119.444 23.2587 119.055 23.152 118.628 23.152C118.212 23.152 117.817 23.2587 117.444 23.472C117.081 23.6747 116.788 23.9893 116.564 24.416C116.351 24.832 116.244 25.3547 116.244 25.984C116.244 26.6027 116.351 27.1253 116.564 27.552C116.788 27.9787 117.076 28.2987 117.428 28.512C117.791 28.7147 118.18 28.816 118.596 28.816ZM124.591 30V21.968H126.191V30H124.591ZM125.391 20.432C125.092 20.432 124.841 20.336 124.639 20.144C124.447 19.952 124.351 19.7067 124.351 19.408C124.351 19.12 124.447 18.8853 124.639 18.704C124.841 18.512 125.092 18.416 125.391 18.416C125.7 18.416 125.956 18.512 126.159 18.704C126.361 18.8853 126.463 19.12 126.463 19.408C126.463 19.7067 126.361 19.952 126.159 20.144C125.956 20.336 125.7 20.432 125.391 20.432ZM128.479 30V21.968H129.919L130.015 23.344C130.271 22.864 130.633 22.4853 131.103 22.208C131.572 21.92 132.116 21.776 132.735 21.776C133.364 21.776 133.908 21.904 134.367 22.16C134.825 22.416 135.183 22.8053 135.439 23.328C135.695 23.84 135.823 24.4853 135.823 25.264V30H134.223V25.424C134.223 24.6773 134.057 24.112 133.727 23.728C133.396 23.3333 132.921 23.136 132.303 23.136C131.876 23.136 131.492 23.2373 131.151 23.44C130.82 23.6427 130.559 23.936 130.367 24.32C130.175 24.704 130.079 25.1787 130.079 25.744V30H128.479ZM141.181 30C140.68 30 140.237 29.92 139.853 29.76C139.48 29.6 139.192 29.3333 138.989 28.96C138.797 28.5867 138.701 28.08 138.701 27.44V23.312H137.309V21.968H138.701L138.893 19.952H140.301V21.968H142.573V23.312H140.301V27.456C140.301 27.9147 140.392 28.2293 140.573 28.4C140.765 28.56 141.096 28.64 141.565 28.64H142.493V30H141.181Z" fill="white"/>
</svg>
