<svg width="972" height="148" viewBox="0 0 972 148" fill="none" xmlns="http://www.w3.org/2000/svg">
<rect x="0.5" y="0.5" width="311" height="145" rx="23.5" fill="white"/>
<rect x="0.5" y="0.5" width="311" height="145" rx="23.5" stroke="#EDEDF0"/>
<path d="M25.1186 42V31.8182H28.7479C29.54 31.8182 30.1963 31.9624 30.7166 32.2507C31.237 32.5391 31.6264 32.9335 31.8849 33.4339C32.1435 33.9311 32.2727 34.4912 32.2727 35.1143C32.2727 35.7408 32.1418 36.3042 31.88 36.8047C31.6214 37.3018 31.2304 37.6963 30.7067 37.9879C30.1863 38.2763 29.5317 38.4205 28.7429 38.4205H26.2472V37.1179H28.6037C29.1042 37.1179 29.5102 37.0317 29.8217 36.8594C30.1333 36.6837 30.362 36.4451 30.5078 36.1435C30.6536 35.8419 30.7266 35.4988 30.7266 35.1143C30.7266 34.7299 30.6536 34.3885 30.5078 34.0902C30.362 33.7919 30.1316 33.5582 29.8168 33.3892C29.5052 33.2202 29.0942 33.1357 28.5838 33.1357H26.6548V42H25.1186ZM35.5809 31.8182V42H34.0944V31.8182H35.5809ZM39.943 42.169C39.4591 42.169 39.0216 42.0795 38.6305 41.9006C38.2394 41.7183 37.9295 41.4548 37.7008 41.1101C37.4754 40.7654 37.3627 40.3428 37.3627 39.8423C37.3627 39.4115 37.4456 39.0568 37.6113 38.7784C37.777 38.5 38.0008 38.2796 38.2825 38.1172C38.5642 37.9548 38.8791 37.8321 39.2271 37.7493C39.5751 37.6664 39.9297 37.6035 40.291 37.5604C40.7484 37.5073 41.1196 37.4643 41.4046 37.4311C41.6897 37.3946 41.8968 37.3366 42.0261 37.2571C42.1554 37.1776 42.22 37.0483 42.22 36.8693V36.8345C42.22 36.4003 42.0974 36.0639 41.8521 35.8253C41.6101 35.5866 41.2489 35.4673 40.7683 35.4673C40.2678 35.4673 39.8734 35.5784 39.585 35.8004C39.3 36.0192 39.1028 36.2628 38.9934 36.5312L37.5964 36.2131C37.7621 35.7491 38.0041 35.3745 38.3223 35.0895C38.6438 34.8011 39.0133 34.5923 39.4309 34.4631C39.8485 34.3305 40.2877 34.2642 40.7484 34.2642C41.0533 34.2642 41.3765 34.3007 41.7179 34.3736C42.0626 34.4432 42.384 34.5724 42.6823 34.7614C42.984 34.9503 43.2309 35.2204 43.4231 35.5717C43.6153 35.9197 43.7115 36.3722 43.7115 36.929V42H42.2598V40.956H42.2001C42.104 41.1482 41.9598 41.3371 41.7676 41.5227C41.5753 41.7083 41.3284 41.8625 41.0268 41.9851C40.7252 42.1077 40.3639 42.169 39.943 42.169ZM40.2662 40.9759C40.6771 40.9759 41.0285 40.8946 41.3201 40.7322C41.6151 40.5698 41.8388 40.3577 41.9913 40.0959C42.1471 39.8307 42.225 39.5473 42.225 39.2457V38.2614C42.1719 38.3144 42.0692 38.3641 41.9167 38.4105C41.7676 38.4536 41.5969 38.4917 41.4046 38.5249C41.2124 38.5547 41.0251 38.5829 40.8429 38.6094C40.6606 38.6326 40.5081 38.6525 40.3855 38.669C40.0971 38.7055 39.8336 38.7668 39.595 38.853C39.3597 38.9392 39.1707 39.0634 39.0282 39.2259C38.889 39.3849 38.8194 39.5971 38.8194 39.8622C38.8194 40.2301 38.9553 40.5085 39.2271 40.6974C39.4989 40.883 39.8452 40.9759 40.2662 40.9759ZM47.3179 37.4659V42H45.8314V34.3636H47.2582V35.6065H47.3527C47.5284 35.2022 47.8035 34.8774 48.178 34.6321C48.5558 34.3868 49.0314 34.2642 49.6048 34.2642C50.1252 34.2642 50.5809 34.3736 50.972 34.5923C51.3631 34.8078 51.6664 35.1293 51.8818 35.5568C52.0973 35.9844 52.205 36.513 52.205 37.1428V42H50.7185V37.3217C50.7185 36.7682 50.5743 36.3357 50.2859 36.0241C49.9976 35.7093 49.6015 35.5518 49.0977 35.5518C48.753 35.5518 48.4465 35.6264 48.178 35.7756C47.9128 35.9247 47.7024 36.1435 47.5466 36.4318C47.3941 36.7169 47.3179 37.0616 47.3179 37.4659Z" fill="#AEAEB2"/>
<path d="M37.0909 60.1875C36.9716 59.7727 36.804 59.4062 36.5881 59.0881C36.3722 58.7642 36.108 58.4915 35.7955 58.2699C35.4886 58.0426 35.1364 57.8693 34.7386 57.75C34.3466 57.6307 33.9119 57.571 33.4347 57.571C32.5426 57.571 31.7585 57.7926 31.0824 58.2358C30.4119 58.679 29.8892 59.3239 29.5142 60.1705C29.1392 61.0114 28.9517 62.0398 28.9517 63.2557C28.9517 64.4716 29.1364 65.5057 29.5057 66.358C29.875 67.2102 30.3977 67.8608 31.0739 68.3097C31.75 68.7528 32.5483 68.9744 33.4688 68.9744C34.304 68.9744 35.017 68.8267 35.608 68.5312C36.2045 68.2301 36.6591 67.8068 36.9716 67.2614C37.2898 66.7159 37.4489 66.071 37.4489 65.3267L38.1989 65.4375H33.6989V62.6591H41.0028V64.858C41.0028 66.392 40.679 67.7102 40.0312 68.8125C39.3835 69.9091 38.4915 70.7557 37.3551 71.3523C36.2188 71.9432 34.9176 72.2386 33.4517 72.2386C31.8153 72.2386 30.3778 71.8778 29.1392 71.1562C27.9006 70.429 26.9347 69.3977 26.2415 68.0625C25.554 66.7216 25.2102 65.1307 25.2102 63.2898C25.2102 61.875 25.4148 60.6136 25.8239 59.5057C26.2386 58.392 26.8182 57.4489 27.5625 56.6761C28.3068 55.9034 29.1733 55.3153 30.1619 54.9119C31.1506 54.5085 32.2216 54.3068 33.375 54.3068C34.3636 54.3068 35.2841 54.4517 36.1364 54.7415C36.9886 55.0256 37.7443 55.429 38.4034 55.9517C39.0682 56.4744 39.6108 57.0966 40.0312 57.8182C40.4517 58.5341 40.7216 59.3239 40.8409 60.1875H37.0909ZM43.7067 72V58.9091H47.2266V61.1932H47.3629C47.6016 60.3807 48.0021 59.767 48.5646 59.3523C49.1271 58.9318 49.7749 58.7216 50.5078 58.7216C50.6896 58.7216 50.8857 58.733 51.0959 58.7557C51.3061 58.7784 51.4908 58.8097 51.6499 58.8494V62.071C51.4794 62.0199 51.2436 61.9744 50.9425 61.9347C50.6413 61.8949 50.3658 61.875 50.1158 61.875C49.5817 61.875 49.1044 61.9915 48.6839 62.2244C48.2692 62.4517 47.9396 62.7699 47.6953 63.179C47.4567 63.5881 47.3374 64.0597 47.3374 64.5938V72H43.7067ZM58.8324 72.2557C57.5085 72.2557 56.3636 71.9744 55.3977 71.4119C54.4375 70.8437 53.696 70.054 53.1733 69.0426C52.6506 68.0256 52.3892 66.8466 52.3892 65.5057C52.3892 64.1534 52.6506 62.9716 53.1733 61.9602C53.696 60.9432 54.4375 60.1534 55.3977 59.5909C56.3636 59.0227 57.5085 58.7386 58.8324 58.7386C60.1562 58.7386 61.2983 59.0227 62.2585 59.5909C63.2244 60.1534 63.9688 60.9432 64.4915 61.9602C65.0142 62.9716 65.2756 64.1534 65.2756 65.5057C65.2756 66.8466 65.0142 68.0256 64.4915 69.0426C63.9688 70.054 63.2244 70.8437 62.2585 71.4119C61.2983 71.9744 60.1562 72.2557 58.8324 72.2557ZM58.8494 69.4432C59.4517 69.4432 59.9545 69.2727 60.358 68.9318C60.7614 68.5852 61.0653 68.1136 61.2699 67.517C61.4801 66.9205 61.5852 66.2415 61.5852 65.4801C61.5852 64.7188 61.4801 64.0398 61.2699 63.4432C61.0653 62.8466 60.7614 62.375 60.358 62.0284C59.9545 61.6818 59.4517 61.5085 58.8494 61.5085C58.2415 61.5085 57.7301 61.6818 57.3153 62.0284C56.9063 62.375 56.5966 62.8466 56.3864 63.4432C56.1818 64.0398 56.0795 64.7188 56.0795 65.4801C56.0795 66.2415 56.1818 66.9205 56.3864 67.517C56.5966 68.1136 56.9063 68.5852 57.3153 68.9318C57.7301 69.2727 58.2415 69.4432 58.8494 69.4432ZM69.8906 72L66.3281 58.9091H70.0014L72.0298 67.7045H72.1491L74.2628 58.9091H77.8679L80.0156 67.6534H80.1264L82.1207 58.9091H85.7855L82.2315 72H78.3878L76.1378 63.767H75.9759L73.7259 72H69.8906ZM94.6854 58.9091V61.6364H86.8018V58.9091H94.6854ZM88.5916 55.7727H92.2223V67.9773C92.2223 68.3125 92.2734 68.5739 92.3757 68.7614C92.478 68.9432 92.62 69.071 92.8018 69.1449C92.9893 69.2187 93.2053 69.2557 93.4496 69.2557C93.62 69.2557 93.7905 69.2415 93.9609 69.2131C94.1314 69.179 94.2621 69.1534 94.353 69.1364L94.924 71.8381C94.7422 71.8949 94.4865 71.9602 94.157 72.0341C93.8274 72.1136 93.4268 72.1619 92.9553 72.179C92.0803 72.2131 91.3132 72.0966 90.6541 71.8295C90.0007 71.5625 89.4922 71.1477 89.1286 70.5852C88.7649 70.0227 88.5859 69.3125 88.5916 68.4545V55.7727ZM100.962 64.4318V72H97.3317V54.5455H100.86V61.2188H101.013C101.309 60.446 101.786 59.8409 102.445 59.4034C103.104 58.9602 103.931 58.7386 104.925 58.7386C105.835 58.7386 106.627 58.9375 107.303 59.3352C107.985 59.7273 108.513 60.2926 108.888 61.0312C109.269 61.7642 109.457 62.642 109.451 63.6648V72H105.82V64.3125C105.826 63.5057 105.621 62.8778 105.207 62.429C104.798 61.9801 104.224 61.7557 103.485 61.7557C102.991 61.7557 102.553 61.8608 102.173 62.071C101.798 62.2812 101.502 62.5881 101.286 62.9915C101.076 63.3892 100.968 63.8693 100.962 64.4318Z" fill="#1E1E1F"/>
<rect x="24" y="95" width="67" height="24" rx="12" fill="#EDEEF0"/>
<path d="M33.98 111V103.956L32.408 104.412V103.476L34.424 102.6H35.204V111H33.98ZM40.2898 111.144C39.5618 111.144 38.9338 110.964 38.4058 110.604C37.8858 110.236 37.4858 109.728 37.2058 109.08C36.9258 108.424 36.7858 107.664 36.7858 106.8C36.7858 105.936 36.9258 105.18 37.2058 104.532C37.4858 103.876 37.8858 103.368 38.4058 103.008C38.9338 102.64 39.5618 102.456 40.2898 102.456C41.0258 102.456 41.6498 102.64 42.1618 103.008C42.6818 103.368 43.0818 103.876 43.3618 104.532C43.6498 105.18 43.7938 105.936 43.7938 106.8C43.7938 107.664 43.6498 108.424 43.3618 109.08C43.0818 109.728 42.6818 110.236 42.1618 110.604C41.6498 110.964 41.0258 111.144 40.2898 111.144ZM40.2898 110.076C40.7298 110.076 41.1178 109.944 41.4538 109.68C41.7978 109.416 42.0658 109.04 42.2578 108.552C42.4578 108.064 42.5578 107.48 42.5578 106.8C42.5578 106.112 42.4578 105.528 42.2578 105.048C42.0658 104.56 41.7978 104.188 41.4538 103.932C41.1178 103.668 40.7298 103.536 40.2898 103.536C39.8498 103.536 39.4578 103.668 39.1138 103.932C38.7698 104.188 38.4978 104.56 38.2978 105.048C38.1058 105.528 38.0098 106.112 38.0098 106.8C38.0098 107.48 38.1058 108.064 38.2978 108.552C38.4978 109.04 38.7698 109.416 39.1138 109.68C39.4578 109.944 39.8498 110.076 40.2898 110.076ZM48.2304 111.144C47.6464 111.144 47.1424 111.04 46.7184 110.832C46.2944 110.624 45.9624 110.344 45.7224 109.992C45.4824 109.632 45.3344 109.224 45.2784 108.768H46.4544C46.5344 109.16 46.7264 109.484 47.0304 109.74C47.3424 109.996 47.7464 110.124 48.2424 110.124C48.6024 110.124 48.9104 110.04 49.1664 109.872C49.4304 109.696 49.6304 109.46 49.7664 109.164C49.9104 108.868 49.9824 108.54 49.9824 108.18C49.9824 107.804 49.9104 107.476 49.7664 107.196C49.6304 106.908 49.4344 106.688 49.1784 106.536C48.9224 106.376 48.6224 106.296 48.2784 106.296C47.8624 106.296 47.5064 106.384 47.2104 106.56C46.9224 106.736 46.7064 106.956 46.5624 107.22H45.3984L46.0704 102.6H50.6184V103.644H46.9824L46.5624 106.02C46.7544 105.804 47.0104 105.632 47.3304 105.504C47.6584 105.368 48.0304 105.3 48.4464 105.3C48.8704 105.3 49.2464 105.376 49.5744 105.528C49.9104 105.672 50.1944 105.876 50.4264 106.14C50.6584 106.404 50.8344 106.708 50.9544 107.052C51.0824 107.396 51.1464 107.764 51.1464 108.156C51.1464 108.572 51.0784 108.964 50.9424 109.332C50.8064 109.692 50.6104 110.008 50.3544 110.28C50.1064 110.552 49.8024 110.764 49.4424 110.916C49.0824 111.068 48.6784 111.144 48.2304 111.144ZM52.8418 111V102.6H54.2578L57.0538 108.288L59.8378 102.6H61.2538V111H60.0538V104.712L57.5098 109.848H56.5858L54.0418 104.736V111H52.8418ZM70.0188 111.144C69.2028 111.144 68.4988 110.964 67.9068 110.604C67.3148 110.236 66.8588 109.728 66.5388 109.08C66.2188 108.424 66.0588 107.664 66.0588 106.8C66.0588 105.944 66.2188 105.188 66.5388 104.532C66.8588 103.876 67.3148 103.368 67.9068 103.008C68.4988 102.64 69.2028 102.456 70.0188 102.456C70.9948 102.456 71.7868 102.692 72.3948 103.164C73.0028 103.636 73.3908 104.3 73.5588 105.156H72.2508C72.1228 104.66 71.8748 104.264 71.5068 103.968C71.1388 103.672 70.6388 103.524 70.0068 103.524C69.4548 103.524 68.9708 103.656 68.5548 103.92C68.1468 104.184 67.8308 104.56 67.6068 105.048C67.3908 105.536 67.2828 106.12 67.2828 106.8C67.2828 107.48 67.3908 108.068 67.6068 108.564C67.8308 109.052 68.1468 109.428 68.5548 109.692C68.9708 109.948 69.4548 110.076 70.0068 110.076C70.6388 110.076 71.1388 109.936 71.5068 109.656C71.8748 109.368 72.1228 108.98 72.2508 108.492H73.5588C73.3908 109.324 73.0028 109.976 72.3948 110.448C71.7868 110.912 70.9948 111.144 70.0188 111.144ZM78.2233 111.144C77.6313 111.144 77.0953 111.028 76.6153 110.796C76.1353 110.556 75.7513 110.196 75.4633 109.716C75.1833 109.228 75.0433 108.608 75.0433 107.856V102.6H76.2433V107.868C76.2433 108.372 76.3273 108.788 76.4953 109.116C76.6633 109.436 76.8953 109.676 77.1913 109.836C77.4953 109.988 77.8473 110.064 78.2473 110.064C78.6553 110.064 79.0033 109.988 79.2913 109.836C79.5873 109.676 79.8153 109.436 79.9753 109.116C80.1433 108.788 80.2273 108.372 80.2273 107.868V102.6H81.4273V107.856C81.4273 108.608 81.2833 109.228 80.9953 109.716C80.7073 110.196 80.3193 110.556 79.8313 110.796C79.3513 111.028 78.8153 111.144 78.2233 111.144Z" fill="#1E1E1F"/>
<rect x="98" y="95" width="61" height="24" rx="12" fill="#EDEEF0"/>
<path d="M107.98 111V103.956L106.408 104.412V103.476L108.424 102.6H109.204V111H107.98ZM113.966 111.144C113.382 111.144 112.878 111.04 112.454 110.832C112.03 110.624 111.698 110.344 111.458 109.992C111.218 109.632 111.07 109.224 111.014 108.768H112.19C112.27 109.16 112.462 109.484 112.766 109.74C113.078 109.996 113.482 110.124 113.978 110.124C114.338 110.124 114.646 110.04 114.902 109.872C115.166 109.696 115.366 109.46 115.502 109.164C115.646 108.868 115.718 108.54 115.718 108.18C115.718 107.804 115.646 107.476 115.502 107.196C115.366 106.908 115.17 106.688 114.914 106.536C114.658 106.376 114.358 106.296 114.014 106.296C113.598 106.296 113.242 106.384 112.946 106.56C112.658 106.736 112.442 106.956 112.298 107.22H111.134L111.806 102.6H116.354V103.644H112.718L112.298 106.02C112.49 105.804 112.746 105.632 113.066 105.504C113.394 105.368 113.766 105.3 114.182 105.3C114.606 105.3 114.982 105.376 115.31 105.528C115.646 105.672 115.93 105.876 116.162 106.14C116.394 106.404 116.57 106.708 116.69 107.052C116.818 107.396 116.882 107.764 116.882 108.156C116.882 108.572 116.814 108.964 116.678 109.332C116.542 109.692 116.346 110.008 116.09 110.28C115.842 110.552 115.538 110.764 115.178 110.916C114.818 111.068 114.414 111.144 113.966 111.144ZM121.769 111.144C121.041 111.144 120.413 110.964 119.885 110.604C119.365 110.236 118.965 109.728 118.685 109.08C118.405 108.424 118.265 107.664 118.265 106.8C118.265 105.936 118.405 105.18 118.685 104.532C118.965 103.876 119.365 103.368 119.885 103.008C120.413 102.64 121.041 102.456 121.769 102.456C122.505 102.456 123.129 102.64 123.641 103.008C124.161 103.368 124.561 103.876 124.841 104.532C125.129 105.18 125.273 105.936 125.273 106.8C125.273 107.664 125.129 108.424 124.841 109.08C124.561 109.728 124.161 110.236 123.641 110.604C123.129 110.964 122.505 111.144 121.769 111.144ZM121.769 110.076C122.209 110.076 122.597 109.944 122.933 109.68C123.277 109.416 123.545 109.04 123.737 108.552C123.937 108.064 124.037 107.48 124.037 106.8C124.037 106.112 123.937 105.528 123.737 105.048C123.545 104.56 123.277 104.188 122.933 103.932C122.597 103.668 122.209 103.536 121.769 103.536C121.329 103.536 120.937 103.668 120.593 103.932C120.249 104.188 119.977 104.56 119.777 105.048C119.585 105.528 119.489 106.112 119.489 106.8C119.489 107.48 119.585 108.064 119.777 108.552C119.977 109.04 120.249 109.416 120.593 109.68C120.937 109.944 121.329 110.076 121.769 110.076ZM130.055 111V102.6H132.899C133.563 102.6 134.107 102.712 134.531 102.936C134.955 103.16 135.267 103.46 135.467 103.836C135.675 104.204 135.779 104.624 135.779 105.096C135.779 105.544 135.675 105.96 135.467 106.344C135.267 106.72 134.951 107.024 134.519 107.256C134.087 107.48 133.535 107.592 132.863 107.592H131.255V111H130.055ZM134.471 111L132.659 107.268H133.979L135.863 111H134.471ZM131.255 106.68H132.827C133.419 106.68 133.851 106.536 134.123 106.248C134.403 105.952 134.543 105.576 134.543 105.12C134.543 104.656 134.407 104.288 134.135 104.016C133.863 103.744 133.423 103.608 132.815 103.608H131.255V106.68ZM137.476 111V102.6H140.332C141.004 102.6 141.556 102.712 141.988 102.936C142.428 103.16 142.752 103.464 142.96 103.848C143.168 104.224 143.272 104.656 143.272 105.144C143.272 105.608 143.168 106.032 142.96 106.416C142.752 106.8 142.432 107.108 142 107.34C141.568 107.564 141.012 107.676 140.332 107.676H138.676V111H137.476ZM138.676 106.68H140.284C140.924 106.68 141.376 106.54 141.64 106.26C141.912 105.98 142.048 105.608 142.048 105.144C142.048 104.656 141.912 104.276 141.64 104.004C141.376 103.732 140.924 103.596 140.284 103.596H138.676V106.68ZM147.458 111.144C146.85 111.144 146.314 111.036 145.85 110.82C145.386 110.596 145.026 110.284 144.77 109.884C144.514 109.484 144.382 109.016 144.374 108.48H145.646C145.646 108.784 145.714 109.064 145.85 109.32C145.994 109.568 146.198 109.768 146.462 109.92C146.734 110.064 147.066 110.136 147.458 110.136C147.794 110.136 148.082 110.08 148.322 109.968C148.57 109.856 148.758 109.704 148.886 109.512C149.014 109.312 149.078 109.084 149.078 108.828C149.078 108.54 149.014 108.304 148.886 108.12C148.758 107.928 148.578 107.768 148.346 107.64C148.122 107.512 147.862 107.4 147.566 107.304C147.278 107.208 146.966 107.104 146.63 106.992C145.95 106.768 145.446 106.484 145.118 106.14C144.798 105.796 144.638 105.348 144.638 104.796C144.638 104.324 144.746 103.916 144.962 103.572C145.186 103.22 145.502 102.948 145.91 102.756C146.318 102.556 146.794 102.456 147.338 102.456C147.89 102.456 148.366 102.556 148.766 102.756C149.174 102.956 149.494 103.232 149.726 103.584C149.958 103.936 150.078 104.348 150.086 104.82H148.814C148.814 104.604 148.754 104.392 148.634 104.184C148.522 103.976 148.354 103.808 148.13 103.68C147.914 103.544 147.642 103.476 147.314 103.476C147.034 103.468 146.786 103.512 146.57 103.608C146.354 103.704 146.186 103.844 146.066 104.028C145.946 104.212 145.886 104.432 145.886 104.688C145.886 104.944 145.942 105.152 146.054 105.312C146.166 105.464 146.322 105.596 146.522 105.708C146.73 105.82 146.974 105.924 147.254 106.02C147.534 106.108 147.842 106.208 148.178 106.32C148.586 106.456 148.954 106.624 149.282 106.824C149.61 107.016 149.866 107.268 150.05 107.58C150.242 107.884 150.338 108.276 150.338 108.756C150.338 109.172 150.23 109.56 150.014 109.92C149.798 110.28 149.478 110.576 149.054 110.808C148.63 111.032 148.098 111.144 147.458 111.144Z" fill="#1E1E1F"/>
<path d="M212.423 101.818H214.267V108.47C214.267 109.199 214.095 109.841 213.75 110.394C213.409 110.948 212.928 111.38 212.308 111.692C211.688 112 210.964 112.154 210.136 112.154C209.304 112.154 208.578 112 207.958 111.692C207.338 111.38 206.858 110.948 206.516 110.394C206.175 109.841 206.004 109.199 206.004 108.47V101.818H207.849V108.316C207.849 108.74 207.942 109.118 208.127 109.45C208.316 109.781 208.581 110.041 208.923 110.23C209.264 110.416 209.668 110.509 210.136 110.509C210.603 110.509 211.007 110.416 211.349 110.23C211.693 110.041 211.959 109.781 212.144 109.45C212.33 109.118 212.423 108.74 212.423 108.316V101.818ZM218.132 107.526V112H216.332V104.364H218.052V105.661H218.142C218.318 105.234 218.598 104.894 218.982 104.642C219.37 104.39 219.849 104.264 220.419 104.264C220.946 104.264 221.405 104.377 221.796 104.602C222.19 104.828 222.495 105.154 222.711 105.582C222.93 106.009 223.037 106.528 223.034 107.138V112H221.234V107.416C221.234 106.906 221.102 106.506 220.837 106.218C220.575 105.93 220.212 105.786 219.748 105.786C219.433 105.786 219.153 105.855 218.908 105.994C218.666 106.13 218.475 106.327 218.336 106.586C218.2 106.844 218.132 107.158 218.132 107.526ZM228.817 104.364V105.756H224.427V104.364H228.817ZM225.511 102.534H227.31V109.703C227.31 109.945 227.347 110.131 227.42 110.26C227.496 110.386 227.595 110.472 227.718 110.518C227.841 110.565 227.977 110.588 228.126 110.588C228.238 110.588 228.341 110.58 228.434 110.563C228.53 110.547 228.603 110.532 228.653 110.518L228.956 111.925C228.86 111.959 228.722 111.995 228.543 112.035C228.368 112.075 228.152 112.098 227.897 112.104C227.446 112.118 227.04 112.05 226.679 111.901C226.318 111.748 226.031 111.513 225.819 111.195C225.61 110.876 225.507 110.479 225.511 110.001V102.534ZM230.462 112V104.364H232.262V112H230.462ZM231.367 103.28C231.082 103.28 230.836 103.185 230.631 102.996C230.425 102.804 230.323 102.574 230.323 102.305C230.323 102.034 230.425 101.803 230.631 101.614C230.836 101.422 231.082 101.326 231.367 101.326C231.655 101.326 231.9 101.422 232.103 101.614C232.308 101.803 232.411 102.034 232.411 102.305C232.411 102.574 232.308 102.804 232.103 102.996C231.9 103.185 231.655 103.28 231.367 103.28ZM236.052 101.818V112H234.252V101.818H236.052ZM250.102 101.818V112H248.461L243.664 105.065H243.579V112H241.735V101.818H243.385L248.178 108.759H248.268V101.818H250.102ZM255.503 112.149C254.758 112.149 254.111 111.985 253.564 111.657C253.017 111.329 252.593 110.87 252.292 110.28C251.993 109.69 251.844 109 251.844 108.212C251.844 107.423 251.993 106.732 252.292 106.138C252.593 105.545 253.017 105.085 253.564 104.756C254.111 104.428 254.758 104.264 255.503 104.264C256.249 104.264 256.895 104.428 257.442 104.756C257.989 105.085 258.412 105.545 258.71 106.138C259.012 106.732 259.162 107.423 259.162 108.212C259.162 109 259.012 109.69 258.71 110.28C258.412 110.87 257.989 111.329 257.442 111.657C256.895 111.985 256.249 112.149 255.503 112.149ZM255.513 110.707C255.918 110.707 256.256 110.596 256.527 110.374C256.799 110.149 257.001 109.847 257.134 109.469C257.27 109.092 257.338 108.671 257.338 108.207C257.338 107.739 257.27 107.317 257.134 106.939C257.001 106.558 256.799 106.254 256.527 106.029C256.256 105.804 255.918 105.691 255.513 105.691C255.099 105.691 254.754 105.804 254.479 106.029C254.207 106.254 254.003 106.558 253.868 106.939C253.735 107.317 253.669 107.739 253.669 108.207C253.669 108.671 253.735 109.092 253.868 109.469C254.003 109.847 254.207 110.149 254.479 110.374C254.754 110.596 255.099 110.707 255.513 110.707ZM267.391 104.364L264.672 112H262.683L259.964 104.364H261.883L263.638 110.036H263.717L265.477 104.364H267.391ZM276.511 101.818V112H274.666V103.613H274.607L272.225 105.134V103.444L274.756 101.818H276.511ZM282.999 112.194C282.181 112.194 281.478 111.987 280.891 111.572C280.308 111.155 279.859 110.553 279.544 109.768C279.233 108.979 279.077 108.029 279.077 106.919C279.08 105.809 279.238 104.864 279.549 104.085C279.864 103.303 280.313 102.706 280.896 102.295C281.483 101.884 282.184 101.679 282.999 101.679C283.815 101.679 284.516 101.884 285.102 102.295C285.689 102.706 286.138 103.303 286.45 104.085C286.764 104.867 286.922 105.812 286.922 106.919C286.922 108.033 286.764 108.984 286.45 109.773C286.138 110.558 285.689 111.158 285.102 111.572C284.519 111.987 283.818 112.194 282.999 112.194ZM282.999 110.638C283.636 110.638 284.138 110.325 284.506 109.698C284.877 109.068 285.063 108.142 285.063 106.919C285.063 106.11 284.978 105.431 284.809 104.881C284.64 104.33 284.401 103.916 284.093 103.638C283.785 103.356 283.42 103.215 282.999 103.215C282.366 103.215 281.866 103.53 281.498 104.16C281.13 104.786 280.944 105.706 280.941 106.919C280.938 107.731 281.019 108.414 281.185 108.967C281.354 109.521 281.592 109.938 281.901 110.22C282.209 110.499 282.575 110.638 282.999 110.638Z" fill="#0B57D0"/>
<rect x="328.5" y="0.5" width="315" height="145" rx="23.5" fill="white"/>
<rect x="328.5" y="0.5" width="315" height="145" rx="23.5" stroke="#EDEDF0"/>
<path d="M361.575 32.1293H360.024C359.964 31.7978 359.853 31.5062 359.691 31.2543C359.529 31.0024 359.33 30.7886 359.094 30.6129C358.859 30.4373 358.596 30.3047 358.304 30.2152C358.016 30.1257 357.709 30.081 357.384 30.081C356.798 30.081 356.272 30.2285 355.808 30.5234C355.348 30.8184 354.983 31.2509 354.714 31.821C354.449 32.3911 354.317 33.0871 354.317 33.9091C354.317 34.7377 354.449 35.437 354.714 36.0071C354.983 36.5772 355.349 37.008 355.813 37.2997C356.277 37.5914 356.799 37.7372 357.379 37.7372C357.701 37.7372 358.006 37.6941 358.294 37.608C358.586 37.5185 358.849 37.3875 359.085 37.2152C359.32 37.0429 359.519 36.8324 359.681 36.5838C359.847 36.3319 359.961 36.0436 360.024 35.7188L361.575 35.7237C361.492 36.2242 361.332 36.6849 361.093 37.1058C360.858 37.5234 360.554 37.8847 360.183 38.1896C359.815 38.4912 359.394 38.7249 358.92 38.8906C358.446 39.0563 357.929 39.1392 357.369 39.1392C356.488 39.1392 355.702 38.9304 355.013 38.5128C354.323 38.0919 353.78 37.4903 353.382 36.7081C352.988 35.9259 352.79 34.9929 352.79 33.9091C352.79 32.822 352.989 31.889 353.387 31.1101C353.785 30.3279 354.328 29.728 355.018 29.3104C355.707 28.8894 356.491 28.679 357.369 28.679C357.91 28.679 358.413 28.7569 358.881 28.9126C359.351 29.0651 359.774 29.2905 360.148 29.5888C360.523 29.8838 360.833 30.245 361.078 30.6726C361.323 31.0968 361.489 31.5824 361.575 32.1293ZM370.101 28.8182H371.642V35.5149C371.642 36.2275 371.475 36.8589 371.14 37.4091C370.805 37.956 370.335 38.3868 369.728 38.7017C369.122 39.0133 368.411 39.169 367.595 39.169C366.783 39.169 366.074 39.0133 365.468 38.7017C364.861 38.3868 364.39 37.956 364.056 37.4091C363.721 36.8589 363.554 36.2275 363.554 35.5149V28.8182H365.09V35.3906C365.09 35.8513 365.191 36.2607 365.393 36.6186C365.599 36.9766 365.889 37.2583 366.263 37.4638C366.638 37.666 367.082 37.767 367.595 37.767C368.112 37.767 368.558 37.666 368.933 37.4638C369.311 37.2583 369.599 36.9766 369.798 36.6186C370 36.2607 370.101 35.8513 370.101 35.3906V28.8182ZM377.861 39V28.8182H379.347V32.6016H379.437C379.523 32.4425 379.647 32.2585 379.81 32.0497C379.972 31.8409 380.198 31.6586 380.486 31.5028C380.774 31.3438 381.155 31.2642 381.629 31.2642C382.246 31.2642 382.796 31.42 383.28 31.7315C383.764 32.0431 384.143 32.4922 384.418 33.0788C384.697 33.6655 384.836 34.3714 384.836 35.1967C384.836 36.022 384.698 36.7296 384.423 37.3196C384.148 37.9062 383.77 38.3587 383.29 38.6768C382.809 38.9917 382.261 39.1491 381.644 39.1491C381.18 39.1491 380.801 39.0713 380.506 38.9155C380.214 38.7597 379.985 38.5774 379.82 38.3686C379.654 38.1598 379.526 37.9742 379.437 37.8118H379.313V39H377.861ZM379.318 35.1818C379.318 35.7187 379.395 36.1894 379.551 36.5938C379.707 36.9981 379.932 37.3146 380.227 37.5433C380.522 37.7687 380.884 37.8814 381.311 37.8814C381.755 37.8814 382.126 37.7637 382.425 37.5284C382.723 37.2898 382.948 36.9666 383.101 36.5589C383.257 36.1513 383.335 35.6922 383.335 35.1818C383.335 34.678 383.258 34.2256 383.106 33.8246C382.957 33.4235 382.731 33.107 382.43 32.875C382.131 32.643 381.759 32.527 381.311 32.527C380.88 32.527 380.516 32.638 380.217 32.8601C379.922 33.0821 379.699 33.392 379.546 33.7898C379.394 34.1875 379.318 34.6515 379.318 35.1818ZM388.868 39.169C388.384 39.169 387.946 39.0795 387.555 38.9006C387.164 38.7183 386.854 38.4548 386.625 38.1101C386.4 37.7654 386.287 37.3428 386.287 36.8423C386.287 36.4115 386.37 36.0568 386.536 35.7784C386.702 35.5 386.925 35.2796 387.207 35.1172C387.489 34.9548 387.804 34.8321 388.152 34.7493C388.5 34.6664 388.854 34.6035 389.216 34.5604C389.673 34.5073 390.044 34.4643 390.329 34.4311C390.614 34.3946 390.821 34.3366 390.951 34.2571C391.08 34.1776 391.145 34.0483 391.145 33.8693V33.8345C391.145 33.4003 391.022 33.0639 390.777 32.8253C390.535 32.5866 390.173 32.4673 389.693 32.4673C389.192 32.4673 388.798 32.5784 388.51 32.8004C388.225 33.0192 388.027 33.2628 387.918 33.5312L386.521 33.2131C386.687 32.7491 386.929 32.3745 387.247 32.0895C387.568 31.8011 387.938 31.5923 388.355 31.4631C388.773 31.3305 389.212 31.2642 389.673 31.2642C389.978 31.2642 390.301 31.3007 390.642 31.3736C390.987 31.4432 391.309 31.5724 391.607 31.7614C391.908 31.9503 392.155 32.2204 392.348 32.5717C392.54 32.9197 392.636 33.3722 392.636 33.929V39H391.184V37.956H391.125C391.029 38.1482 390.884 38.3371 390.692 38.5227C390.5 38.7083 390.253 38.8625 389.951 38.9851C389.65 39.1077 389.288 39.169 388.868 39.169ZM389.191 37.9759C389.602 37.9759 389.953 37.8946 390.245 37.7322C390.54 37.5698 390.763 37.3577 390.916 37.0959C391.072 36.8307 391.149 36.5473 391.149 36.2457V35.2614C391.096 35.3144 390.994 35.3641 390.841 35.4105C390.692 35.4536 390.521 35.4917 390.329 35.5249C390.137 35.5547 389.95 35.5829 389.767 35.6094C389.585 35.6326 389.433 35.6525 389.31 35.669C389.022 35.7055 388.758 35.7668 388.52 35.853C388.284 35.9392 388.095 36.0634 387.953 36.2259C387.814 36.3849 387.744 36.5971 387.744 36.8622C387.744 37.2301 387.88 37.5085 388.152 37.6974C388.423 37.883 388.77 37.9759 389.191 37.9759ZM396.242 28.8182V39H394.756V28.8182H396.242ZM400.605 39.169C400.121 39.169 399.683 39.0795 399.292 38.9006C398.901 38.7183 398.591 38.4548 398.362 38.1101C398.137 37.7654 398.024 37.3428 398.024 36.8423C398.024 36.4115 398.107 36.0568 398.273 35.7784C398.439 35.5 398.662 35.2796 398.944 35.1172C399.226 34.9548 399.541 34.8321 399.889 34.7493C400.237 34.6664 400.591 34.6035 400.953 34.5604C401.41 34.5073 401.781 34.4643 402.066 34.4311C402.351 34.3946 402.558 34.3366 402.688 34.2571C402.817 34.1776 402.882 34.0483 402.882 33.8693V33.8345C402.882 33.4003 402.759 33.0639 402.514 32.8253C402.272 32.5866 401.91 32.4673 401.43 32.4673C400.929 32.4673 400.535 32.5784 400.247 32.8004C399.962 33.0192 399.764 33.2628 399.655 33.5312L398.258 33.2131C398.424 32.7491 398.666 32.3745 398.984 32.0895C399.305 31.8011 399.675 31.5923 400.092 31.4631C400.51 31.3305 400.949 31.2642 401.41 31.2642C401.715 31.2642 402.038 31.3007 402.379 31.3736C402.724 31.4432 403.046 31.5724 403.344 31.7614C403.646 31.9503 403.892 32.2204 404.085 32.5717C404.277 32.9197 404.373 33.3722 404.373 33.929V39H402.921V37.956H402.862C402.766 38.1482 402.621 38.3371 402.429 38.5227C402.237 38.7083 401.99 38.8625 401.688 38.9851C401.387 39.1077 401.025 39.169 400.605 39.169ZM400.928 37.9759C401.339 37.9759 401.69 37.8946 401.982 37.7322C402.277 37.5698 402.5 37.3577 402.653 37.0959C402.809 36.8307 402.887 36.5473 402.887 36.2457V35.2614C402.833 35.3144 402.731 35.3641 402.578 35.4105C402.429 35.4536 402.258 35.4917 402.066 35.5249C401.874 35.5547 401.687 35.5829 401.504 35.6094C401.322 35.6326 401.17 35.6525 401.047 35.669C400.759 35.7055 400.495 35.7668 400.257 35.853C400.021 35.9392 399.832 36.0634 399.69 36.2259C399.551 36.3849 399.481 36.5971 399.481 36.8622C399.481 37.2301 399.617 37.5085 399.889 37.6974C400.16 37.883 400.507 37.9759 400.928 37.9759ZM407.979 34.4659V39H406.493V31.3636H407.92V32.6065H408.014C408.19 32.2022 408.465 31.8774 408.84 31.6321C409.217 31.3868 409.693 31.2642 410.266 31.2642C410.787 31.2642 411.242 31.3736 411.634 31.5923C412.025 31.8078 412.328 32.1293 412.543 32.5568C412.759 32.9844 412.867 33.513 412.867 34.1428V39H411.38V34.3217C411.38 33.7682 411.236 33.3357 410.948 33.0241C410.659 32.7093 410.263 32.5518 409.759 32.5518C409.415 32.5518 409.108 32.6264 408.84 32.7756C408.574 32.9247 408.364 33.1435 408.208 33.4318C408.056 33.7169 407.979 34.0616 407.979 34.4659ZM418.217 39.1541C417.478 39.1541 416.841 38.9867 416.308 38.652C415.777 38.3139 415.37 37.8482 415.085 37.255C414.8 36.6617 414.657 35.9822 414.657 35.2166C414.657 34.4411 414.803 33.7566 415.095 33.1634C415.386 32.5668 415.797 32.1011 416.328 31.7663C416.858 31.4316 417.483 31.2642 418.202 31.2642C418.782 31.2642 419.299 31.3719 419.753 31.5874C420.207 31.7995 420.573 32.0978 420.852 32.4822C421.133 32.8667 421.301 33.3158 421.354 33.8295H419.907C419.828 33.4716 419.645 33.1634 419.36 32.9048C419.079 32.6463 418.701 32.517 418.227 32.517C417.812 32.517 417.449 32.6264 417.138 32.8452C416.83 33.0606 416.589 33.3688 416.417 33.7699C416.245 34.1676 416.159 34.6383 416.159 35.1818C416.159 35.7386 416.243 36.2192 416.412 36.6236C416.581 37.0279 416.82 37.3411 417.128 37.5632C417.44 37.7853 417.806 37.8963 418.227 37.8963C418.508 37.8963 418.764 37.8449 418.992 37.7422C419.224 37.6361 419.418 37.4853 419.574 37.2898C419.733 37.0942 419.844 36.8589 419.907 36.5838H421.354C421.301 37.0777 421.14 37.5185 420.872 37.9062C420.603 38.294 420.244 38.599 419.793 38.821C419.345 39.0431 418.82 39.1541 418.217 39.1541ZM426.375 39.1541C425.622 39.1541 424.974 38.9934 424.431 38.6719C423.891 38.3471 423.473 37.8913 423.178 37.3047C422.886 36.7147 422.74 36.0237 422.74 35.2315C422.74 34.4493 422.886 33.7599 423.178 33.1634C423.473 32.5668 423.884 32.1011 424.411 31.7663C424.941 31.4316 425.561 31.2642 426.27 31.2642C426.701 31.2642 427.119 31.3355 427.523 31.478C427.927 31.6205 428.29 31.8442 428.612 32.1491C428.933 32.4541 429.187 32.8501 429.373 33.3374C429.558 33.8213 429.651 34.4096 429.651 35.1023V35.6293H423.581V34.5156H428.194C428.194 34.1245 428.115 33.7782 427.956 33.4766C427.797 33.1716 427.573 32.9313 427.285 32.7557C426.999 32.58 426.665 32.4922 426.28 32.4922C425.863 32.4922 425.498 32.5949 425.186 32.8004C424.878 33.0026 424.64 33.2678 424.471 33.5959C424.305 33.9207 424.222 34.2737 424.222 34.6548V35.5249C424.222 36.0353 424.311 36.4695 424.49 36.8274C424.673 37.1854 424.926 37.4588 425.251 37.6477C425.576 37.8333 425.955 37.9261 426.39 37.9261C426.671 37.9261 426.928 37.8864 427.16 37.8068C427.392 37.724 427.593 37.6013 427.762 37.4389C427.931 37.2765 428.06 37.076 428.15 36.8374L429.557 37.0909C429.444 37.5052 429.242 37.8681 428.95 38.1797C428.662 38.4879 428.299 38.7282 427.861 38.9006C427.427 39.0696 426.932 39.1541 426.375 39.1541Z" fill="#AEAEB2"/>
<path d="M360.651 51.5455V69H357.489V54.6222H357.386L353.304 57.2301V54.3324L357.642 51.5455H360.651ZM371.534 69.3324C370.131 69.3324 368.926 68.9773 367.92 68.267C366.92 67.5511 366.151 66.5199 365.611 65.1733C365.077 63.821 364.81 62.1932 364.81 60.2898C364.815 58.3864 365.085 56.767 365.619 55.4318C366.159 54.0909 366.929 53.0682 367.929 52.3636C368.935 51.6591 370.136 51.3068 371.534 51.3068C372.932 51.3068 374.134 51.6591 375.139 52.3636C376.145 53.0682 376.915 54.0909 377.449 55.4318C377.989 56.7727 378.259 58.392 378.259 60.2898C378.259 62.1989 377.989 63.8295 377.449 65.1818C376.915 66.5284 376.145 67.5568 375.139 68.267C374.139 68.9773 372.938 69.3324 371.534 69.3324ZM371.534 66.6648C372.625 66.6648 373.486 66.1278 374.116 65.054C374.753 63.9744 375.071 62.3864 375.071 60.2898C375.071 58.9034 374.926 57.7386 374.636 56.7955C374.347 55.8523 373.938 55.142 373.409 54.6648C372.881 54.1818 372.256 53.9403 371.534 53.9403C370.449 53.9403 369.591 54.4801 368.96 55.5597C368.33 56.6335 368.011 58.2102 368.006 60.2898C368 61.6818 368.139 62.8523 368.423 63.8011C368.713 64.75 369.122 65.4659 369.651 65.9489C370.179 66.4261 370.807 66.6648 371.534 66.6648ZM387.542 69.3324C386.138 69.3324 384.934 68.9773 383.928 68.267C382.928 67.5511 382.158 66.5199 381.619 65.1733C381.085 63.821 380.817 62.1932 380.817 60.2898C380.823 58.3864 381.093 56.767 381.627 55.4318C382.167 54.0909 382.937 53.0682 383.937 52.3636C384.942 51.6591 386.144 51.3068 387.542 51.3068C388.94 51.3068 390.141 51.6591 391.147 52.3636C392.153 53.0682 392.923 54.0909 393.457 55.4318C393.996 56.7727 394.266 58.392 394.266 60.2898C394.266 62.1989 393.996 63.8295 393.457 65.1818C392.923 66.5284 392.153 67.5568 391.147 68.267C390.147 68.9773 388.945 69.3324 387.542 69.3324ZM387.542 66.6648C388.633 66.6648 389.494 66.1278 390.124 65.054C390.761 63.9744 391.079 62.3864 391.079 60.2898C391.079 58.9034 390.934 57.7386 390.644 56.7955C390.354 55.8523 389.945 55.142 389.417 54.6648C388.888 54.1818 388.263 53.9403 387.542 53.9403C386.457 53.9403 385.599 54.4801 384.968 55.5597C384.337 56.6335 384.019 58.2102 384.013 60.2898C384.008 61.6818 384.147 62.8523 384.431 63.8011C384.721 64.75 385.13 65.4659 385.658 65.9489C386.187 66.4261 386.815 66.6648 387.542 66.6648ZM403.051 69V66.7159L409.111 60.7756C409.69 60.1903 410.173 59.6705 410.56 59.2159C410.946 58.7614 411.236 58.321 411.429 57.8949C411.622 57.4687 411.719 57.0142 411.719 56.5312C411.719 55.9801 411.594 55.5085 411.344 55.1165C411.094 54.7188 410.75 54.4119 410.312 54.196C409.875 53.9801 409.378 53.8722 408.821 53.8722C408.247 53.8722 407.744 53.9915 407.312 54.2301C406.881 54.4631 406.545 54.7955 406.307 55.2273C406.074 55.6591 405.957 56.1733 405.957 56.7699H402.949C402.949 55.6619 403.202 54.6989 403.707 53.8807C404.213 53.0625 404.909 52.429 405.795 51.9801C406.688 51.5312 407.71 51.3068 408.864 51.3068C410.034 51.3068 411.063 51.5256 411.949 51.9631C412.835 52.4006 413.523 53 414.011 53.7614C414.506 54.5227 414.753 55.392 414.753 56.3693C414.753 57.0227 414.628 57.6648 414.378 58.2955C414.128 58.9261 413.688 59.625 413.057 60.392C412.432 61.1591 411.554 62.0881 410.423 63.179L407.415 66.2386V66.358H415.017V69H403.051ZM417.957 69V66.7159L424.017 60.7756C424.597 60.1903 425.08 59.6705 425.466 59.2159C425.852 58.7614 426.142 58.321 426.335 57.8949C426.528 57.4687 426.625 57.0142 426.625 56.5312C426.625 55.9801 426.5 55.5085 426.25 55.1165C426 54.7188 425.656 54.4119 425.219 54.196C424.781 53.9801 424.284 53.8722 423.727 53.8722C423.153 53.8722 422.651 53.9915 422.219 54.2301C421.787 54.4631 421.452 54.7955 421.213 55.2273C420.98 55.6591 420.864 56.1733 420.864 56.7699H417.855C417.855 55.6619 418.108 54.6989 418.614 53.8807C419.119 53.0625 419.815 52.429 420.702 51.9801C421.594 51.5312 422.616 51.3068 423.77 51.3068C424.94 51.3068 425.969 51.5256 426.855 51.9631C427.741 52.4006 428.429 53 428.918 53.7614C429.412 54.5227 429.659 55.392 429.659 56.3693C429.659 57.0227 429.534 57.6648 429.284 58.2955C429.034 58.9261 428.594 59.625 427.963 60.392C427.338 61.1591 426.46 62.0881 425.33 63.179L422.321 66.2386V66.358H429.923V69H417.957ZM439.315 69.3324C437.912 69.3324 436.707 68.9773 435.702 68.267C434.702 67.5511 433.932 66.5199 433.392 65.1733C432.858 63.821 432.591 62.1932 432.591 60.2898C432.597 58.3864 432.866 56.767 433.401 55.4318C433.94 54.0909 434.71 53.0682 435.71 52.3636C436.716 51.6591 437.918 51.3068 439.315 51.3068C440.713 51.3068 441.915 51.6591 442.92 52.3636C443.926 53.0682 444.696 54.0909 445.23 55.4318C445.77 56.7727 446.04 58.392 446.04 60.2898C446.04 62.1989 445.77 63.8295 445.23 65.1818C444.696 66.5284 443.926 67.5568 442.92 68.267C441.92 68.9773 440.719 69.3324 439.315 69.3324ZM439.315 66.6648C440.406 66.6648 441.267 66.1278 441.898 65.054C442.534 63.9744 442.852 62.3864 442.852 60.2898C442.852 58.9034 442.707 57.7386 442.418 56.7955C442.128 55.8523 441.719 55.142 441.19 54.6648C440.662 54.1818 440.037 53.9403 439.315 53.9403C438.23 53.9403 437.372 54.4801 436.741 55.5597C436.111 56.6335 435.793 58.2102 435.787 60.2898C435.781 61.6818 435.92 62.8523 436.205 63.8011C436.494 64.75 436.903 65.4659 437.432 65.9489C437.96 66.4261 438.588 66.6648 439.315 66.6648ZM461.029 69.2386C459.762 69.2386 458.637 69.0256 457.654 68.5994C456.677 68.1733 455.91 67.5909 455.353 66.8523C454.802 66.108 454.529 65.2642 454.535 64.321C454.529 63.5881 454.688 62.9148 455.012 62.3011C455.336 61.6875 455.773 61.1761 456.325 60.767C456.881 60.3523 457.501 60.0881 458.183 59.9744V59.8551C457.285 59.6562 456.558 59.1989 456.001 58.483C455.45 57.7614 455.177 56.929 455.183 55.9858C455.177 55.0881 455.427 54.2869 455.933 53.5824C456.438 52.8778 457.131 52.3239 458.012 51.9205C458.893 51.5114 459.898 51.3068 461.029 51.3068C462.148 51.3068 463.146 51.5114 464.021 51.9205C464.901 52.3239 465.594 52.8778 466.1 53.5824C466.612 54.2869 466.867 55.0881 466.867 55.9858C466.867 56.929 466.586 57.7614 466.023 58.483C465.467 59.1989 464.748 59.6562 463.867 59.8551V59.9744C464.549 60.0881 465.163 60.3523 465.708 60.767C466.259 61.1761 466.697 61.6875 467.021 62.3011C467.35 62.9148 467.515 63.5881 467.515 64.321C467.515 65.2642 467.237 66.108 466.68 66.8523C466.123 67.5909 465.356 68.1733 464.379 68.5994C463.407 69.0256 462.29 69.2386 461.029 69.2386ZM461.029 66.8011C461.683 66.8011 462.251 66.6903 462.734 66.4688C463.217 66.2415 463.592 65.9233 463.859 65.5142C464.126 65.1051 464.262 64.6335 464.268 64.0994C464.262 63.5426 464.117 63.0511 463.833 62.625C463.555 62.1932 463.171 61.8551 462.683 61.6108C462.2 61.3665 461.648 61.2443 461.029 61.2443C460.404 61.2443 459.847 61.3665 459.359 61.6108C458.87 61.8551 458.484 62.1932 458.2 62.625C457.921 63.0511 457.785 63.5426 457.79 64.0994C457.785 64.6335 457.915 65.1051 458.183 65.5142C458.45 65.9176 458.825 66.233 459.308 66.4602C459.796 66.6875 460.37 66.8011 461.029 66.8011ZM461.029 58.8494C461.563 58.8494 462.035 58.7415 462.444 58.5256C462.859 58.3097 463.185 58.0085 463.424 57.6222C463.663 57.2358 463.785 56.7898 463.79 56.2841C463.785 55.7841 463.665 55.3466 463.433 54.9716C463.2 54.5909 462.876 54.2983 462.461 54.0938C462.046 53.8835 461.569 53.7784 461.029 53.7784C460.478 53.7784 459.992 53.8835 459.572 54.0938C459.157 54.2983 458.833 54.5909 458.6 54.9716C458.373 55.3466 458.262 55.7841 458.268 56.2841C458.262 56.7898 458.376 57.2358 458.609 57.6222C458.847 58.0028 459.174 58.304 459.589 58.5256C460.009 58.7415 460.489 58.8494 461.029 58.8494ZM470.001 65.7614V63.2472L477.408 51.5455H479.504V55.125H478.226L473.24 63.0256V63.1619H483.578V65.7614H470.001ZM478.328 69V64.9943L478.362 63.8693V51.5455H481.345V69H478.328ZM492.369 69.2386C491.233 69.2386 490.216 69.0256 489.318 68.5994C488.42 68.1676 487.707 67.5767 487.179 66.8267C486.656 66.0767 486.378 65.2187 486.344 64.2528H489.412C489.469 64.9687 489.778 65.554 490.341 66.0085C490.903 66.4574 491.58 66.6818 492.369 66.6818C492.989 66.6818 493.54 66.5398 494.023 66.2557C494.506 65.9716 494.886 65.5767 495.165 65.071C495.443 64.5653 495.58 63.9886 495.574 63.3409C495.58 62.6818 495.44 62.0966 495.156 61.5852C494.872 61.0739 494.483 60.6733 493.989 60.3835C493.494 60.0881 492.926 59.9403 492.284 59.9403C491.761 59.9347 491.247 60.0312 490.741 60.2301C490.236 60.429 489.835 60.6903 489.54 61.0142L486.685 60.5455L487.597 51.5455H497.722V54.1875H490.213L489.71 58.8153H489.812C490.136 58.4347 490.594 58.1193 491.185 57.8693C491.776 57.6136 492.423 57.4858 493.128 57.4858C494.185 57.4858 495.128 57.7358 495.957 58.2358C496.787 58.7301 497.44 59.4119 497.918 60.2812C498.395 61.1506 498.634 62.1449 498.634 63.2642C498.634 64.4176 498.366 65.446 497.832 66.3494C497.304 67.2472 496.568 67.9545 495.625 68.4716C494.688 68.983 493.602 69.2386 492.369 69.2386Z" fill="#1E1E1F"/>
<rect x="550" y="24" width="70" height="36" rx="12" fill="#EBF3FF"/>
<path d="M565.304 47V38.348H562.406V37.2H569.616V38.348H566.704V47H565.304ZM572.926 47.168C572.263 47.168 571.666 47.014 571.134 46.706C570.611 46.398 570.196 45.9687 569.888 45.418C569.589 44.858 569.44 44.214 569.44 43.486C569.44 42.7393 569.594 42.0907 569.902 41.54C570.21 40.98 570.63 40.546 571.162 40.238C571.694 39.93 572.291 39.776 572.954 39.776C573.626 39.776 574.223 39.93 574.746 40.238C575.269 40.546 575.679 40.9753 575.978 41.526C576.286 42.0767 576.44 42.7253 576.44 43.472C576.44 44.2187 576.286 44.8673 575.978 45.418C575.679 45.9687 575.264 46.398 574.732 46.706C574.2 47.014 573.598 47.168 572.926 47.168ZM572.926 45.964C573.309 45.964 573.654 45.8707 573.962 45.684C574.279 45.4973 574.531 45.222 574.718 44.858C574.914 44.4847 575.012 44.0227 575.012 43.472C575.012 42.9213 574.919 42.464 574.732 42.1C574.545 41.7267 574.293 41.4467 573.976 41.26C573.668 41.0733 573.327 40.98 572.954 40.98C572.581 40.98 572.235 41.0733 571.918 41.26C571.601 41.4467 571.344 41.7267 571.148 42.1C570.961 42.464 570.868 42.9213 570.868 43.472C570.868 44.0227 570.961 44.4847 571.148 44.858C571.344 45.222 571.596 45.4973 571.904 45.684C572.221 45.8707 572.562 45.964 572.926 45.964ZM578.087 50.08V39.944H579.347L579.487 41.036C579.636 40.8213 579.823 40.6207 580.047 40.434C580.271 40.238 580.537 40.0793 580.845 39.958C581.162 39.8367 581.531 39.776 581.951 39.776C582.623 39.776 583.211 39.9393 583.715 40.266C584.228 40.5927 584.625 41.036 584.905 41.596C585.194 42.1467 585.339 42.7767 585.339 43.486C585.339 44.1953 585.194 44.83 584.905 45.39C584.615 45.9407 584.214 46.3747 583.701 46.692C583.197 47.0093 582.609 47.168 581.937 47.168C581.386 47.168 580.901 47.0607 580.481 46.846C580.061 46.622 579.729 46.314 579.487 45.922V50.08H578.087ZM581.713 45.95C582.142 45.95 582.52 45.8473 582.847 45.642C583.183 45.4367 583.444 45.1473 583.631 44.774C583.827 44.4007 583.925 43.9667 583.925 43.472C583.925 42.9773 583.827 42.548 583.631 42.184C583.444 41.8107 583.183 41.5213 582.847 41.316C582.52 41.1013 582.142 40.994 581.713 40.994C581.274 40.994 580.887 41.1013 580.551 41.316C580.224 41.5213 579.967 41.8107 579.781 42.184C579.594 42.548 579.501 42.9773 579.501 43.472C579.501 43.9667 579.594 44.4007 579.781 44.774C579.967 45.1473 580.224 45.4367 580.551 45.642C580.887 45.8473 581.274 45.95 581.713 45.95ZM594.238 47.168C593.547 47.168 592.922 47.0327 592.362 46.762C591.802 46.482 591.354 46.062 591.018 45.502C590.691 44.9327 590.528 44.2093 590.528 43.332V37.2H591.928V43.346C591.928 43.934 592.026 44.4193 592.222 44.802C592.418 45.1753 592.688 45.4553 593.034 45.642C593.388 45.8193 593.799 45.908 594.266 45.908C594.742 45.908 595.152 45.8193 595.498 45.642C595.843 45.4553 596.109 45.1753 596.296 44.802C596.492 44.4193 596.59 43.934 596.59 43.346V37.2H597.99V43.332C597.99 44.2093 597.822 44.9327 597.486 45.502C597.15 46.062 596.697 46.482 596.128 46.762C595.558 47.0327 594.928 47.168 594.238 47.168ZM599.866 50.08V39.944H601.126L601.266 41.036C601.415 40.8213 601.602 40.6207 601.826 40.434C602.05 40.238 602.316 40.0793 602.624 39.958C602.941 39.8367 603.31 39.776 603.73 39.776C604.402 39.776 604.99 39.9393 605.494 40.266C606.007 40.5927 606.404 41.036 606.684 41.596C606.973 42.1467 607.118 42.7767 607.118 43.486C607.118 44.1953 606.973 44.83 606.684 45.39C606.395 45.9407 605.993 46.3747 605.48 46.692C604.976 47.0093 604.388 47.168 603.716 47.168C603.165 47.168 602.68 47.0607 602.26 46.846C601.84 46.622 601.509 46.314 601.266 45.922V50.08H599.866ZM603.492 45.95C603.921 45.95 604.299 45.8473 604.626 45.642C604.962 45.4367 605.223 45.1473 605.41 44.774C605.606 44.4007 605.704 43.9667 605.704 43.472C605.704 42.9773 605.606 42.548 605.41 42.184C605.223 41.8107 604.962 41.5213 604.626 41.316C604.299 41.1013 603.921 40.994 603.492 40.994C603.053 40.994 602.666 41.1013 602.33 41.316C602.003 41.5213 601.747 41.8107 601.56 42.184C601.373 42.548 601.28 42.9773 601.28 43.472C601.28 43.9667 601.373 44.4007 601.56 44.774C601.747 45.1473 602.003 45.4367 602.33 45.642C602.666 45.8473 603.053 45.95 603.492 45.95Z" fill="#0B57D0"/>
<path d="M356.151 96.2727V105H354.83V97.5938H354.778L352.69 98.9574V97.696L354.868 96.2727H356.151ZM361.67 105.145C360.996 105.142 360.421 104.964 359.944 104.612C359.467 104.26 359.102 103.747 358.849 103.074C358.596 102.401 358.469 101.589 358.469 100.641C358.469 99.6946 358.596 98.8864 358.849 98.2159C359.104 97.5455 359.471 97.0341 359.948 96.6818C360.428 96.3295 361.002 96.1534 361.67 96.1534C362.337 96.1534 362.91 96.331 363.387 96.6861C363.864 97.0384 364.229 97.5497 364.482 98.2202C364.738 98.8878 364.866 99.6946 364.866 100.641C364.866 101.592 364.739 102.405 364.486 103.078C364.234 103.749 363.869 104.261 363.391 104.616C362.914 104.969 362.34 105.145 361.67 105.145ZM361.67 104.007C362.261 104.007 362.722 103.719 363.055 103.142C363.39 102.565 363.557 101.732 363.557 100.641C363.557 99.9162 363.481 99.304 363.327 98.804C363.177 98.3011 362.959 97.9205 362.675 97.6619C362.394 97.4006 362.059 97.2699 361.67 97.2699C361.082 97.2699 360.62 97.5597 360.285 98.1392C359.95 98.7187 359.781 99.5526 359.778 100.641C359.778 101.368 359.853 101.983 360.004 102.486C360.157 102.986 360.374 103.365 360.656 103.624C360.937 103.879 361.275 104.007 361.67 104.007ZM369.536 105.145C368.863 105.142 368.287 104.964 367.81 104.612C367.333 104.26 366.968 103.747 366.715 103.074C366.462 102.401 366.336 101.589 366.336 100.641C366.336 99.6946 366.462 98.8864 366.715 98.2159C366.97 97.5455 367.337 97.0341 367.814 96.6818C368.294 96.3295 368.868 96.1534 369.536 96.1534C370.203 96.1534 370.776 96.331 371.253 96.6861C371.73 97.0384 372.095 97.5497 372.348 98.2202C372.604 98.8878 372.732 99.6946 372.732 100.641C372.732 101.592 372.605 102.405 372.353 103.078C372.1 103.749 371.735 104.261 371.257 104.616C370.78 104.969 370.206 105.145 369.536 105.145ZM369.536 104.007C370.127 104.007 370.588 103.719 370.921 103.142C371.256 102.565 371.424 101.732 371.424 100.641C371.424 99.9162 371.347 99.304 371.193 98.804C371.043 98.3011 370.826 97.9205 370.541 97.6619C370.26 97.4006 369.925 97.2699 369.536 97.2699C368.948 97.2699 368.486 97.5597 368.151 98.1392C367.816 98.7187 367.647 99.5526 367.644 100.641C367.644 101.368 367.719 101.983 367.87 102.486C368.023 102.986 368.24 103.365 368.522 103.624C368.803 103.879 369.141 104.007 369.536 104.007ZM374.483 96.2727H376.081L378.859 103.057H378.962L381.74 96.2727H383.338V105H382.085V98.6847H382.004L379.43 104.987H378.391L375.817 98.6804H375.736V105H374.483V96.2727ZM388.594 95.8636L385.781 106.312H384.644L387.456 95.8636H388.594ZM393.09 96.2727V105H391.769V97.5938H391.718L389.63 98.9574V97.696L391.808 96.2727H393.09ZM398.61 105.145C397.936 105.142 397.361 104.964 396.884 104.612C396.406 104.26 396.041 103.747 395.789 103.074C395.536 102.401 395.409 101.589 395.409 100.641C395.409 99.6946 395.536 98.8864 395.789 98.2159C396.044 97.5455 396.411 97.0341 396.888 96.6818C397.368 96.3295 397.942 96.1534 398.61 96.1534C399.277 96.1534 399.85 96.331 400.327 96.6861C400.804 97.0384 401.169 97.5497 401.422 98.2202C401.678 98.8878 401.806 99.6946 401.806 100.641C401.806 101.592 401.679 102.405 401.426 103.078C401.173 103.749 400.808 104.261 400.331 104.616C399.854 104.969 399.28 105.145 398.61 105.145ZM398.61 104.007C399.2 104.007 399.662 103.719 399.995 103.142C400.33 102.565 400.497 101.732 400.497 100.641C400.497 99.9162 400.421 99.304 400.267 98.804C400.117 98.3011 399.899 97.9205 399.615 97.6619C399.334 97.4006 398.999 97.2699 398.61 97.2699C398.021 97.2699 397.56 97.5597 397.225 98.1392C396.889 98.7187 396.72 99.5526 396.718 100.641C396.718 101.368 396.793 101.983 396.943 102.486C397.097 102.986 397.314 103.365 397.595 103.624C397.877 103.879 398.215 104.007 398.61 104.007ZM406.318 105.119C405.784 105.119 405.304 105.017 404.878 104.812C404.454 104.605 404.116 104.321 403.863 103.96C403.611 103.599 403.476 103.188 403.459 102.724H404.737C404.768 103.099 404.934 103.408 405.236 103.649C405.537 103.891 405.898 104.011 406.318 104.011C406.653 104.011 406.95 103.935 407.209 103.781C407.47 103.625 407.675 103.411 407.822 103.138C407.973 102.865 408.048 102.554 408.048 102.205C408.048 101.849 407.971 101.533 407.818 101.254C407.665 100.976 407.453 100.757 407.183 100.598C406.916 100.439 406.609 100.358 406.263 100.355C405.998 100.355 405.733 100.401 405.466 100.491C405.199 100.582 404.983 100.702 404.818 100.849L403.612 100.67L404.102 96.2727H408.9V97.402H405.197L404.92 99.8438H404.971C405.142 99.679 405.368 99.5412 405.649 99.4304C405.933 99.3196 406.237 99.2642 406.561 99.2642C407.092 99.2642 407.565 99.3906 407.98 99.6435C408.398 99.8963 408.726 100.241 408.964 100.679C409.206 101.114 409.325 101.614 409.322 102.179C409.325 102.744 409.197 103.249 408.939 103.692C408.683 104.135 408.328 104.484 407.873 104.74C407.422 104.993 406.903 105.119 406.318 105.119ZM411.118 96.2727H412.716L415.494 103.057H415.597L418.375 96.2727H419.973V105H418.72V98.6847H418.639L416.065 104.987H415.026L412.452 98.6804H412.371V105H411.118V96.2727Z" fill="#85B4FF"/>
<path d="M505.151 96.2727V105H503.83V97.5938H503.778L501.69 98.9574V97.696L503.868 96.2727H505.151ZM510.67 105.145C509.996 105.142 509.421 104.964 508.944 104.612C508.467 104.26 508.102 103.747 507.849 103.074C507.596 102.401 507.469 101.589 507.469 100.641C507.469 99.6946 507.596 98.8864 507.849 98.2159C508.104 97.5455 508.471 97.0341 508.948 96.6818C509.428 96.3295 510.002 96.1534 510.67 96.1534C511.337 96.1534 511.91 96.331 512.387 96.6861C512.864 97.0384 513.229 97.5497 513.482 98.2202C513.738 98.8878 513.866 99.6946 513.866 100.641C513.866 101.592 513.739 102.405 513.486 103.078C513.234 103.749 512.869 104.261 512.391 104.616C511.914 104.969 511.34 105.145 510.67 105.145ZM510.67 104.007C511.261 104.007 511.722 103.719 512.055 103.142C512.39 102.565 512.557 101.732 512.557 100.641C512.557 99.9162 512.481 99.304 512.327 98.804C512.177 98.3011 511.959 97.9205 511.675 97.6619C511.394 97.4006 511.059 97.2699 510.67 97.2699C510.082 97.2699 509.62 97.5597 509.285 98.1392C508.95 98.7187 508.781 99.5526 508.778 100.641C508.778 101.368 508.853 101.983 509.004 102.486C509.157 102.986 509.374 103.365 509.656 103.624C509.937 103.879 510.275 104.007 510.67 104.007ZM518.378 105.119C517.844 105.119 517.364 105.017 516.938 104.812C516.515 104.605 516.176 104.321 515.924 103.96C515.671 103.599 515.536 103.188 515.519 102.724H516.797C516.828 103.099 516.995 103.408 517.296 103.649C517.597 103.891 517.958 104.011 518.378 104.011C518.713 104.011 519.01 103.935 519.269 103.781C519.53 103.625 519.735 103.411 519.882 103.138C520.033 102.865 520.108 102.554 520.108 102.205C520.108 101.849 520.032 101.533 519.878 101.254C519.725 100.976 519.513 100.757 519.243 100.598C518.976 100.439 518.669 100.358 518.323 100.355C518.059 100.355 517.793 100.401 517.526 100.491C517.259 100.582 517.043 100.702 516.878 100.849L515.672 100.67L516.162 96.2727H520.961V97.402H517.257L516.98 99.8438H517.032C517.202 99.679 517.428 99.5412 517.709 99.4304C517.993 99.3196 518.297 99.2642 518.621 99.2642C519.152 99.2642 519.625 99.3906 520.04 99.6435C520.458 99.8963 520.786 100.241 521.024 100.679C521.266 101.114 521.385 101.614 521.382 102.179C521.385 102.744 521.257 103.249 520.999 103.692C520.743 104.135 520.388 104.484 519.934 104.74C519.482 104.993 518.963 105.119 518.378 105.119ZM523.178 96.2727H524.776L527.555 103.057H527.657L530.435 96.2727H532.033V105H530.78V98.6847H530.699L528.126 104.987H527.086L524.512 98.6804H524.431V105H523.178V96.2727Z" fill="white"/>
<rect x="352" y="114" width="181" height="8" rx="4" fill="#D6E6FF"/>
<rect x="352" y="114" width="161" height="8" rx="4" fill="#2772F5"/>
<path d="M566.044 112.744C565.813 114.919 564.58 116.957 562.541 118.134C559.153 120.09 554.821 118.929 552.865 115.541L552.657 115.18M551.955 111.256C552.187 109.081 553.419 107.043 555.458 105.865C558.846 103.909 563.178 105.07 565.134 108.458L565.342 108.819M551.911 117.055L552.521 114.778L554.798 115.388M563.202 108.611L565.478 109.221L566.089 106.945M559 108.25V112L561.083 113.25" stroke="#2772F5" stroke-width="1.6" stroke-linecap="round" stroke-linejoin="round"/>
<path d="M582.371 106.818V117H580.731L575.933 110.065H575.849V117H574.004V106.818H575.655L580.447 113.759H580.537V106.818H582.371ZM587.773 117.149C587.027 117.149 586.381 116.985 585.834 116.657C585.287 116.329 584.863 115.87 584.561 115.28C584.263 114.69 584.114 114 584.114 113.212C584.114 112.423 584.263 111.732 584.561 111.138C584.863 110.545 585.287 110.085 585.834 109.756C586.381 109.428 587.027 109.264 587.773 109.264C588.518 109.264 589.165 109.428 589.712 109.756C590.258 110.085 590.681 110.545 590.979 111.138C591.281 111.732 591.432 112.423 591.432 113.212C591.432 114 591.281 114.69 590.979 115.28C590.681 115.87 590.258 116.329 589.712 116.657C589.165 116.985 588.518 117.149 587.773 117.149ZM587.783 115.707C588.187 115.707 588.525 115.596 588.797 115.374C589.069 115.149 589.271 114.847 589.403 114.469C589.539 114.092 589.607 113.671 589.607 113.207C589.607 112.739 589.539 112.317 589.403 111.939C589.271 111.558 589.069 111.254 588.797 111.029C588.525 110.804 588.187 110.691 587.783 110.691C587.368 110.691 587.024 110.804 586.748 111.029C586.477 111.254 586.273 111.558 586.137 111.939C586.004 112.317 585.938 112.739 585.938 113.207C585.938 113.671 586.004 114.092 586.137 114.469C586.273 114.847 586.477 115.149 586.748 115.374C587.024 115.596 587.368 115.707 587.783 115.707ZM599.661 109.364L596.941 117H594.952L592.233 109.364H594.152L595.907 115.036H595.986L597.746 109.364H599.661ZM608.78 106.818V117H606.936V108.613H606.876L604.494 110.134V108.444L607.025 106.818H608.78ZM615.269 117.194C614.45 117.194 613.747 116.987 613.161 116.572C612.577 116.155 612.128 115.553 611.813 114.768C611.502 113.979 611.346 113.029 611.346 111.919C611.349 110.809 611.507 109.864 611.818 109.085C612.133 108.303 612.582 107.706 613.166 107.295C613.752 106.884 614.453 106.679 615.269 106.679C616.084 106.679 616.785 106.884 617.372 107.295C617.958 107.706 618.407 108.303 618.719 109.085C619.034 109.867 619.191 110.812 619.191 111.919C619.191 113.033 619.034 113.984 618.719 114.773C618.407 115.558 617.958 116.158 617.372 116.572C616.788 116.987 616.087 117.194 615.269 117.194ZM615.269 115.638C615.905 115.638 616.407 115.325 616.775 114.698C617.146 114.068 617.332 113.142 617.332 111.919C617.332 111.11 617.247 110.431 617.078 109.881C616.909 109.33 616.671 108.916 616.362 108.638C616.054 108.356 615.69 108.215 615.269 108.215C614.636 108.215 614.135 108.53 613.767 109.16C613.399 109.786 613.214 110.706 613.21 111.919C613.207 112.731 613.288 113.414 613.454 113.967C613.623 114.521 613.862 114.938 614.17 115.22C614.478 115.499 614.844 115.638 615.269 115.638Z" fill="#0B57D0"/>
<rect x="660.5" y="0.5" width="311" height="147" rx="23.5" fill="white"/>
<rect x="660.5" y="0.5" width="311" height="147" rx="23.5" stroke="#EDEDF0"/>
<path d="M685.119 39V28.8182H688.748C689.537 28.8182 690.191 28.9541 690.712 29.2259C691.235 29.4976 691.626 29.8738 691.885 30.3544C692.143 30.8317 692.273 31.3835 692.273 32.0099C692.273 32.633 692.142 33.1816 691.88 33.6555C691.621 34.1262 691.23 34.4924 690.707 34.7543C690.186 35.0161 689.532 35.147 688.743 35.147H685.994V33.8246H688.604C689.101 33.8246 689.505 33.7533 689.817 33.6108C690.132 33.4683 690.362 33.2611 690.508 32.9893C690.654 32.7176 690.727 32.3911 690.727 32.0099C690.727 31.6255 690.652 31.2924 690.503 31.0107C690.357 30.7289 690.127 30.5135 689.812 30.3643C689.5 30.2119 689.091 30.1357 688.584 30.1357H686.655V39H685.119ZM690.145 34.4062L692.661 39H690.911L688.445 34.4062H690.145ZM696.385 39.169C695.901 39.169 695.464 39.0795 695.073 38.9006C694.681 38.7183 694.372 38.4548 694.143 38.1101C693.917 37.7654 693.805 37.3428 693.805 36.8423C693.805 36.4115 693.888 36.0568 694.053 35.7784C694.219 35.5 694.443 35.2796 694.725 35.1172C695.006 34.9548 695.321 34.8321 695.669 34.7493C696.017 34.6664 696.372 34.6035 696.733 34.5604C697.19 34.5073 697.562 34.4643 697.847 34.4311C698.132 34.3946 698.339 34.3366 698.468 34.2571C698.597 34.1776 698.662 34.0483 698.662 33.8693V33.8345C698.662 33.4003 698.539 33.0639 698.294 32.8253C698.052 32.5866 697.691 32.4673 697.21 32.4673C696.71 32.4673 696.315 32.5784 696.027 32.8004C695.742 33.0192 695.545 33.2628 695.435 33.5312L694.038 33.2131C694.204 32.7491 694.446 32.3745 694.764 32.0895C695.086 31.8011 695.455 31.5923 695.873 31.4631C696.291 31.3305 696.73 31.2642 697.19 31.2642C697.495 31.2642 697.819 31.3007 698.16 31.3736C698.505 31.4432 698.826 31.5724 699.124 31.7614C699.426 31.9503 699.673 32.2204 699.865 32.5717C700.057 32.9197 700.153 33.3722 700.153 33.929V39H698.702V37.956H698.642C698.546 38.1482 698.402 38.3371 698.21 38.5227C698.017 38.7083 697.77 38.8625 697.469 38.9851C697.167 39.1077 696.806 39.169 696.385 39.169ZM696.708 37.9759C697.119 37.9759 697.47 37.8946 697.762 37.7322C698.057 37.5698 698.281 37.3577 698.433 37.0959C698.589 36.8307 698.667 36.5473 698.667 36.2457V35.2614C698.614 35.3144 698.511 35.3641 698.359 35.4105C698.21 35.4536 698.039 35.4917 697.847 35.5249C697.654 35.5547 697.467 35.5829 697.285 35.6094C697.103 35.6326 696.95 35.6525 696.828 35.669C696.539 35.7055 696.276 35.7668 696.037 35.853C695.802 35.9392 695.613 36.0634 695.47 36.2259C695.331 36.3849 695.261 36.5971 695.261 36.8622C695.261 37.2301 695.397 37.5085 695.669 37.6974C695.941 37.883 696.287 37.9759 696.708 37.9759ZM705.838 31.3636V32.5568H701.667V31.3636H705.838ZM702.786 29.5341H704.272V36.7578C704.272 37.0462 704.315 37.2633 704.401 37.4091C704.487 37.5516 704.598 37.6494 704.734 37.7024C704.874 37.7521 705.024 37.777 705.187 37.777C705.306 37.777 705.411 37.7687 705.5 37.7521C705.589 37.7356 705.659 37.7223 705.709 37.7124L705.977 38.9403C705.891 38.9735 705.768 39.0066 705.609 39.0398C705.45 39.0762 705.251 39.0961 705.013 39.0994C704.622 39.1061 704.257 39.0365 703.919 38.8906C703.581 38.7448 703.308 38.5194 703.099 38.2145C702.89 37.9096 702.786 37.5268 702.786 37.0661V29.5341ZM710.832 39.1541C710.079 39.1541 709.431 38.9934 708.888 38.6719C708.347 38.3471 707.93 37.8913 707.635 37.3047C707.343 36.7147 707.197 36.0237 707.197 35.2315C707.197 34.4493 707.343 33.7599 707.635 33.1634C707.93 32.5668 708.341 32.1011 708.868 31.7663C709.398 31.4316 710.018 31.2642 710.727 31.2642C711.158 31.2642 711.576 31.3355 711.98 31.478C712.384 31.6205 712.747 31.8442 713.069 32.1491C713.39 32.4541 713.644 32.8501 713.829 33.3374C714.015 33.8213 714.108 34.4096 714.108 35.1023V35.6293H708.038V34.5156H712.651C712.651 34.1245 712.572 33.7782 712.413 33.4766C712.253 33.1716 712.03 32.9313 711.741 32.7557C711.456 32.58 711.122 32.4922 710.737 32.4922C710.32 32.4922 709.955 32.5949 709.643 32.8004C709.335 33.0026 709.096 33.2678 708.927 33.5959C708.762 33.9207 708.679 34.2737 708.679 34.6548V35.5249C708.679 36.0353 708.768 36.4695 708.947 36.8274C709.13 37.1854 709.383 37.4588 709.708 37.6477C710.033 37.8333 710.412 37.9261 710.846 37.9261C711.128 37.9261 711.385 37.8864 711.617 37.8068C711.849 37.724 712.05 37.6013 712.219 37.4389C712.388 37.2765 712.517 37.076 712.606 36.8374L714.013 37.0909C713.901 37.5052 713.699 37.8681 713.407 38.1797C713.119 38.4879 712.756 38.7282 712.318 38.9006C711.884 39.0696 711.388 39.1541 710.832 39.1541ZM721.229 28.8182V39H719.742V28.8182H721.229ZM723.369 39V31.3636H724.855V39H723.369ZM724.119 30.1854C723.861 30.1854 723.639 30.0992 723.453 29.9268C723.271 29.7512 723.18 29.5424 723.18 29.3004C723.18 29.0552 723.271 28.8464 723.453 28.674C723.639 28.4983 723.861 28.4105 724.119 28.4105C724.378 28.4105 724.598 28.4983 724.781 28.674C724.966 28.8464 725.059 29.0552 725.059 29.3004C725.059 29.5424 724.966 29.7512 724.781 29.9268C724.598 30.0992 724.378 30.1854 724.119 30.1854ZM726.995 39V31.3636H728.422V32.6065H728.516C728.675 32.1856 728.935 31.8575 729.297 31.6222C729.658 31.3835 730.091 31.2642 730.594 31.2642C731.105 31.2642 731.532 31.3835 731.877 31.6222C732.225 31.8608 732.482 32.1889 732.648 32.6065H732.727C732.909 32.1989 733.199 31.8741 733.597 31.6321C733.995 31.3868 734.469 31.2642 735.019 31.2642C735.712 31.2642 736.277 31.4813 736.714 31.9155C737.155 32.3497 737.376 33.0043 737.376 33.8793V39H735.889V34.0185C735.889 33.5014 735.748 33.1269 735.467 32.8949C735.185 32.6629 734.848 32.5469 734.457 32.5469C733.973 32.5469 733.597 32.696 733.329 32.9943C733.06 33.2893 732.926 33.6688 732.926 34.1328V39H731.444V33.924C731.444 33.5097 731.315 33.1766 731.057 32.9247C730.798 32.6728 730.462 32.5469 730.047 32.5469C729.766 32.5469 729.506 32.6214 729.267 32.7706C729.032 32.9164 728.841 33.1203 728.695 33.3821C728.553 33.6439 728.481 33.9472 728.481 34.2919V39H726.995ZM739.508 39V31.3636H740.994V39H739.508ZM740.259 30.1854C740 30.1854 739.778 30.0992 739.592 29.9268C739.41 29.7512 739.319 29.5424 739.319 29.3004C739.319 29.0552 739.41 28.8464 739.592 28.674C739.778 28.4983 740 28.4105 740.259 28.4105C740.517 28.4105 740.738 28.4983 740.92 28.674C741.105 28.8464 741.198 29.0552 741.198 29.3004C741.198 29.5424 741.105 29.7512 740.92 29.9268C740.738 30.0992 740.517 30.1854 740.259 30.1854ZM746.699 31.3636V32.5568H742.528V31.3636H746.699ZM743.646 29.5341H745.133V36.7578C745.133 37.0462 745.176 37.2633 745.262 37.4091C745.348 37.5516 745.459 37.6494 745.595 37.7024C745.734 37.7521 745.885 37.777 746.048 37.777C746.167 37.777 746.271 37.7687 746.361 37.7521C746.45 37.7356 746.52 37.7223 746.57 37.7124L746.838 38.9403C746.752 38.9735 746.629 39.0066 746.47 39.0398C746.311 39.0762 746.112 39.0961 745.874 39.0994C745.483 39.1061 745.118 39.0365 744.78 38.8906C744.442 38.7448 744.168 38.5194 743.96 38.2145C743.751 37.9096 743.646 37.5268 743.646 37.0661V29.5341Z" fill="#AEAEB2"/>
<path d="M692.651 51.5455V69H689.489V54.6222H689.386L685.304 57.2301V54.3324L689.642 51.5455H692.651ZM703.151 69.2386C702.014 69.2386 700.997 69.0256 700.099 68.5994C699.202 68.1676 698.489 67.5767 697.96 66.8267C697.438 66.0767 697.159 65.2187 697.125 64.2528H700.193C700.25 64.9687 700.56 65.554 701.122 66.0085C701.685 66.4574 702.361 66.6818 703.151 66.6818C703.77 66.6818 704.321 66.5398 704.804 66.2557C705.287 65.9716 705.668 65.5767 705.946 65.071C706.224 64.5653 706.361 63.9886 706.355 63.3409C706.361 62.6818 706.222 62.0966 705.938 61.5852C705.653 61.0739 705.264 60.6733 704.77 60.3835C704.276 60.0881 703.707 59.9403 703.065 59.9403C702.543 59.9347 702.028 60.0312 701.523 60.2301C701.017 60.429 700.616 60.6903 700.321 61.0142L697.466 60.5455L698.378 51.5455H708.503V54.1875H700.994L700.491 58.8153H700.594C700.918 58.4347 701.375 58.1193 701.966 57.8693C702.557 57.6136 703.205 57.4858 703.909 57.4858C704.966 57.4858 705.909 57.7358 706.739 58.2358C707.568 58.7301 708.222 59.4119 708.699 60.2812C709.176 61.1506 709.415 62.1449 709.415 63.2642C709.415 64.4176 709.148 65.446 708.614 66.3494C708.085 67.2472 707.349 67.9545 706.406 68.4716C705.469 68.983 704.384 69.2386 703.151 69.2386ZM718.722 69.3324C717.318 69.3324 716.114 68.9773 715.108 68.267C714.108 67.5511 713.338 66.5199 712.798 65.1733C712.264 63.821 711.997 62.1932 711.997 60.2898C712.003 58.3864 712.273 56.767 712.807 55.4318C713.347 54.0909 714.116 53.0682 715.116 52.3636C716.122 51.6591 717.324 51.3068 718.722 51.3068C720.119 51.3068 721.321 51.6591 722.327 52.3636C723.332 53.0682 724.102 54.0909 724.636 55.4318C725.176 56.7727 725.446 58.392 725.446 60.2898C725.446 62.1989 725.176 63.8295 724.636 65.1818C724.102 66.5284 723.332 67.5568 722.327 68.267C721.327 68.9773 720.125 69.3324 718.722 69.3324ZM718.722 66.6648C719.813 66.6648 720.673 66.1278 721.304 65.054C721.94 63.9744 722.259 62.3864 722.259 60.2898C722.259 58.9034 722.114 57.7386 721.824 56.7955C721.534 55.8523 721.125 55.142 720.597 54.6648C720.068 54.1818 719.443 53.9403 718.722 53.9403C717.636 53.9403 716.778 54.4801 716.148 55.5597C715.517 56.6335 715.199 58.2102 715.193 60.2898C715.188 61.6818 715.327 62.8523 715.611 63.8011C715.901 64.75 716.31 65.4659 716.838 65.9489C717.366 66.4261 717.994 66.6648 718.722 66.6648ZM733.827 69V57.3636H738.191C739.085 57.3636 739.835 57.5189 740.441 57.8295C741.051 58.1402 741.511 58.5758 741.822 59.1364C742.136 59.6932 742.293 60.3428 742.293 61.0852C742.293 61.8314 742.134 62.4792 741.816 63.0284C741.502 63.5739 741.038 63.9962 740.424 64.2955C739.81 64.5909 739.057 64.7386 738.163 64.7386H735.055V62.9886H737.879C738.401 62.9886 738.829 62.9167 739.163 62.7727C739.496 62.625 739.742 62.411 739.901 62.1307C740.064 61.8466 740.146 61.4981 740.146 61.0852C740.146 60.6723 740.064 60.3201 739.901 60.0284C739.738 59.733 739.49 59.5095 739.157 59.358C738.824 59.2027 738.394 59.125 737.867 59.125H735.935V69H733.827ZM739.839 63.7273L742.719 69H740.367L737.538 63.7273H739.839ZM744.234 69V57.3636H748.597C749.491 57.3636 750.241 57.5303 750.847 57.8636C751.457 58.197 751.917 58.6553 752.228 59.2386C752.542 59.8182 752.7 60.4773 752.7 61.2159C752.7 61.9621 752.542 62.625 752.228 63.2045C751.914 63.7841 751.45 64.2405 750.836 64.5739C750.222 64.9034 749.467 65.0682 748.569 65.0682H745.677V63.3352H748.285C748.808 63.3352 749.236 63.2443 749.569 63.0625C749.902 62.8807 750.148 62.6307 750.308 62.3125C750.47 61.9943 750.552 61.6288 750.552 61.2159C750.552 60.803 750.47 60.4394 750.308 60.125C750.148 59.8106 749.9 59.5663 749.563 59.392C749.23 59.214 748.8 59.125 748.273 59.125H746.342V69H744.234ZM760.854 60.5625C760.801 60.0663 760.578 59.6799 760.184 59.4034C759.794 59.1269 759.286 58.9886 758.661 58.9886C758.222 58.9886 757.845 59.0549 757.531 59.1875C757.216 59.3201 756.976 59.5 756.809 59.7273C756.642 59.9545 756.557 60.214 756.553 60.5057C756.553 60.7481 756.608 60.9583 756.718 61.1364C756.832 61.3144 756.985 61.4659 757.178 61.5909C757.371 61.7121 757.585 61.8144 757.82 61.8977C758.055 61.9811 758.292 62.0511 758.531 62.108L759.621 62.3807C760.061 62.483 760.483 62.6212 760.888 62.7955C761.298 62.9697 761.663 63.1894 761.985 63.4545C762.311 63.7197 762.568 64.0398 762.758 64.4148C762.947 64.7898 763.042 65.2292 763.042 65.733C763.042 66.4148 762.868 67.0152 762.519 67.5341C762.171 68.0492 761.667 68.4527 761.008 68.7443C760.353 69.0322 759.559 69.1761 758.627 69.1761C757.722 69.1761 756.936 69.036 756.269 68.7557C755.606 68.4754 755.087 68.0663 754.712 67.5284C754.341 66.9905 754.14 66.3352 754.11 65.5625H756.184C756.214 65.9678 756.339 66.3049 756.559 66.5739C756.779 66.8428 757.065 67.0436 757.417 67.1761C757.773 67.3087 758.171 67.375 758.61 67.375C759.068 67.375 759.47 67.3068 759.815 67.1705C760.163 67.0303 760.436 66.8371 760.633 66.5909C760.83 66.3409 760.93 66.0492 760.934 65.7159C760.93 65.4129 760.841 65.1629 760.667 64.9659C760.493 64.7652 760.248 64.5985 759.934 64.4659C759.623 64.3295 759.26 64.2083 758.843 64.1023L757.519 63.7614C756.561 63.5152 755.803 63.142 755.246 62.642C754.693 62.1383 754.417 61.4697 754.417 60.6364C754.417 59.9508 754.603 59.3504 754.974 58.8352C755.349 58.3201 755.858 57.9205 756.502 57.6364C757.146 57.3485 757.875 57.2045 758.69 57.2045C759.515 57.2045 760.239 57.3485 760.86 57.6364C761.485 57.9205 761.976 58.3163 762.332 58.8239C762.688 59.3277 762.871 59.9072 762.883 60.5625H760.854Z" fill="#1E1E1F"/>
<rect x="684" y="92" width="8" height="32" rx="4" fill="#2772F5"/>
<g clip-path="url(#clip0_980_12044)">
<rect x="696" y="92" width="8" height="32" rx="4" fill="#C2DAFF"/>
<rect x="696" y="92" width="8" height="32" rx="4" fill="#2772F5"/>
</g>
<rect x="708" y="92" width="8" height="32" rx="4" fill="#2772F5"/>
<rect x="720" y="92" width="8" height="32" rx="4" fill="#2772F5"/>
<rect x="732" y="92" width="8" height="32" rx="4" fill="#2772F5"/>
<rect x="744" y="92" width="8" height="32" rx="4" fill="#2772F5"/>
<rect x="756" y="92" width="8" height="32" rx="4" fill="#2772F5"/>
<rect x="768" y="92" width="8" height="32" rx="4" fill="#2772F5"/>
<rect x="780" y="92" width="8" height="32" rx="4" fill="#2772F5"/>
<rect x="792" y="92" width="8" height="32" rx="4" fill="#2772F5"/>
<rect x="804" y="92" width="8" height="32" rx="4" fill="#2772F5"/>
<rect x="816" y="92" width="8" height="32" rx="4" fill="#2772F5"/>
<rect x="828" y="92" width="8" height="32" rx="4" fill="#2772F5"/>
<rect x="840" y="92" width="8" height="32" rx="4" fill="#2772F5"/>
<rect x="852" y="92" width="8" height="32" rx="4" fill="#2772F5"/>
<rect x="864" y="92" width="8" height="32" rx="4" fill="#2772F5"/>
<rect x="876" y="92" width="8" height="32" rx="4" fill="#2772F5"/>
<rect x="888" y="92" width="8" height="32" rx="4" fill="#2772F5"/>
<rect x="900" y="92" width="8" height="32" rx="4" fill="#2772F5"/>
<rect x="912" y="92" width="8" height="32" rx="4" fill="#2772F5"/>
<rect x="924" y="92" width="8" height="32" rx="4" fill="#2772F5"/>
<rect x="936" y="92" width="8" height="32" rx="4" fill="#2772F5"/>
<defs>
<clipPath id="clip0_980_12044">
<rect x="696" y="92" width="8" height="32" rx="4" fill="white"/>
</clipPath>
</defs>
</svg>
