<svg width="972" height="148" viewBox="0 0 972 148" fill="none" xmlns="http://www.w3.org/2000/svg">
<rect x="0.5" y="0.5" width="311" height="145" rx="23.5" fill="white"/>
<rect x="0.5" y="0.5" width="311" height="145" rx="23.5" stroke="#EDEDF0"/>
<path d="M25.1186 42V31.8182H28.7479C29.54 31.8182 30.1963 31.9624 30.7166 32.2507C31.237 32.5391 31.6264 32.9335 31.8849 33.4339C32.1435 33.9311 32.2727 34.4912 32.2727 35.1143C32.2727 35.7408 32.1418 36.3042 31.88 36.8047C31.6214 37.3018 31.2304 37.6963 30.7067 37.9879C30.1863 38.2763 29.5317 38.4205 28.7429 38.4205H26.2472V37.1179H28.6037C29.1042 37.1179 29.5102 37.0317 29.8217 36.8594C30.1333 36.6837 30.362 36.4451 30.5078 36.1435C30.6536 35.8419 30.7266 35.4988 30.7266 35.1143C30.7266 34.7299 30.6536 34.3885 30.5078 34.0902C30.362 33.7919 30.1316 33.5582 29.8168 33.3892C29.5052 33.2202 29.0942 33.1357 28.5838 33.1357H26.6548V42H25.1186ZM35.5809 31.8182V42H34.0944V31.8182H35.5809ZM39.943 42.169C39.4591 42.169 39.0216 42.0795 38.6305 41.9006C38.2394 41.7183 37.9295 41.4548 37.7008 41.1101C37.4754 40.7654 37.3627 40.3428 37.3627 39.8423C37.3627 39.4115 37.4456 39.0568 37.6113 38.7784C37.777 38.5 38.0008 38.2796 38.2825 38.1172C38.5642 37.9548 38.8791 37.8321 39.2271 37.7493C39.5751 37.6664 39.9297 37.6035 40.291 37.5604C40.7484 37.5073 41.1196 37.4643 41.4046 37.4311C41.6897 37.3946 41.8968 37.3366 42.0261 37.2571C42.1554 37.1776 42.22 37.0483 42.22 36.8693V36.8345C42.22 36.4003 42.0974 36.0639 41.8521 35.8253C41.6101 35.5866 41.2489 35.4673 40.7683 35.4673C40.2678 35.4673 39.8734 35.5784 39.585 35.8004C39.3 36.0192 39.1028 36.2628 38.9934 36.5312L37.5964 36.2131C37.7621 35.7491 38.0041 35.3745 38.3223 35.0895C38.6438 34.8011 39.0133 34.5923 39.4309 34.4631C39.8485 34.3305 40.2877 34.2642 40.7484 34.2642C41.0533 34.2642 41.3765 34.3007 41.7179 34.3736C42.0626 34.4432 42.384 34.5724 42.6823 34.7614C42.984 34.9503 43.2309 35.2204 43.4231 35.5717C43.6153 35.9197 43.7115 36.3722 43.7115 36.929V42H42.2598V40.956H42.2001C42.104 41.1482 41.9598 41.3371 41.7676 41.5227C41.5753 41.7083 41.3284 41.8625 41.0268 41.9851C40.7252 42.1077 40.3639 42.169 39.943 42.169ZM40.2662 40.9759C40.6771 40.9759 41.0285 40.8946 41.3201 40.7322C41.6151 40.5698 41.8388 40.3577 41.9913 40.0959C42.1471 39.8307 42.225 39.5473 42.225 39.2457V38.2614C42.1719 38.3144 42.0692 38.3641 41.9167 38.4105C41.7676 38.4536 41.5969 38.4917 41.4046 38.5249C41.2124 38.5547 41.0251 38.5829 40.8429 38.6094C40.6606 38.6326 40.5081 38.6525 40.3855 38.669C40.0971 38.7055 39.8336 38.7668 39.595 38.853C39.3597 38.9392 39.1707 39.0634 39.0282 39.2259C38.889 39.3849 38.8194 39.5971 38.8194 39.8622C38.8194 40.2301 38.9553 40.5085 39.2271 40.6974C39.4989 40.883 39.8452 40.9759 40.2662 40.9759ZM47.3179 37.4659V42H45.8314V34.3636H47.2582V35.6065H47.3527C47.5284 35.2022 47.8035 34.8774 48.178 34.6321C48.5558 34.3868 49.0314 34.2642 49.6048 34.2642C50.1252 34.2642 50.5809 34.3736 50.972 34.5923C51.3631 34.8078 51.6664 35.1293 51.8818 35.5568C52.0973 35.9844 52.205 36.513 52.205 37.1428V42H50.7185V37.3217C50.7185 36.7682 50.5743 36.3357 50.2859 36.0241C49.9976 35.7093 49.6015 35.5518 49.0977 35.5518C48.753 35.5518 48.4465 35.6264 48.178 35.7756C47.9128 35.9247 47.7024 36.1435 47.5466 36.4318C47.3941 36.7169 47.3179 37.0616 47.3179 37.4659Z" fill="#AEAEB2"/>
<path d="M25.517 72V54.5455H32.4034C33.7273 54.5455 34.8551 54.7983 35.7869 55.304C36.7188 55.804 37.429 56.5 37.9176 57.392C38.4119 58.2784 38.6591 59.3011 38.6591 60.4602C38.6591 61.6193 38.4091 62.642 37.9091 63.5284C37.4091 64.4148 36.6847 65.1051 35.7358 65.5994C34.7926 66.0937 33.6506 66.3409 32.3097 66.3409H27.9205V63.3835H31.7131C32.4233 63.3835 33.0085 63.2614 33.4688 63.017C33.9347 62.767 34.2813 62.4233 34.5085 61.9858C34.7415 61.5426 34.858 61.0341 34.858 60.4602C34.858 59.8807 34.7415 59.375 34.5085 58.9432C34.2813 58.5057 33.9347 58.1676 33.4688 57.929C33.0028 57.6847 32.4119 57.5625 31.696 57.5625H29.2074V72H25.517ZM40.9879 72V58.9091H44.5078V61.1932H44.6442C44.8828 60.3807 45.2834 59.767 45.8459 59.3523C46.4084 58.9318 47.0561 58.7216 47.7891 58.7216C47.9709 58.7216 48.1669 58.733 48.3771 58.7557C48.5874 58.7784 48.772 58.8097 48.9311 58.8494V62.071C48.7607 62.0199 48.5249 61.9744 48.2237 61.9347C47.9226 61.8949 47.647 61.875 47.397 61.875C46.8629 61.875 46.3857 61.9915 45.9652 62.2244C45.5504 62.4517 45.2209 62.7699 44.9766 63.179C44.7379 63.5881 44.6186 64.0597 44.6186 64.5938V72H40.9879ZM56.1648 72.2557C54.8182 72.2557 53.6591 71.983 52.6875 71.4375C51.7216 70.8864 50.9773 70.108 50.4545 69.1023C49.9318 68.0909 49.6705 66.8949 49.6705 65.5142C49.6705 64.1676 49.9318 62.9858 50.4545 61.9688C50.9773 60.9517 51.7131 60.1591 52.6619 59.5909C53.6165 59.0227 54.7358 58.7386 56.0199 58.7386C56.8835 58.7386 57.6875 58.8778 58.4318 59.1562C59.1818 59.429 59.8352 59.8409 60.392 60.392C60.9545 60.9432 61.392 61.6364 61.7045 62.4716C62.017 63.3011 62.1733 64.2727 62.1733 65.3864V66.3835H51.1193V64.1335H58.7557C58.7557 63.6108 58.642 63.1477 58.4148 62.7443C58.1875 62.3409 57.8722 62.0256 57.4688 61.7983C57.071 61.5653 56.608 61.4489 56.0795 61.4489C55.5284 61.4489 55.0398 61.5767 54.6136 61.8324C54.1932 62.0824 53.8636 62.4205 53.625 62.8466C53.3864 63.267 53.2642 63.7358 53.2585 64.2528V66.392C53.2585 67.0398 53.3778 67.5994 53.6165 68.071C53.8608 68.5426 54.2045 68.9062 54.6477 69.1619C55.0909 69.4176 55.6165 69.5455 56.2244 69.5455C56.6278 69.5455 56.9972 69.4886 57.3324 69.375C57.6676 69.2614 57.9545 69.0909 58.1932 68.8636C58.4318 68.6364 58.6136 68.358 58.7386 68.0284L62.0966 68.25C61.9261 69.0568 61.5767 69.7614 61.0483 70.3636C60.5256 70.9602 59.8494 71.4261 59.0199 71.7614C58.196 72.0909 57.2443 72.2557 56.1648 72.2557ZM64.5426 72V58.9091H68.0028V61.2188H68.1562C68.429 60.4517 68.8835 59.8466 69.5199 59.4034C70.1562 58.9602 70.9176 58.7386 71.804 58.7386C72.7017 58.7386 73.4659 58.9631 74.0966 59.4119C74.7273 59.8551 75.1477 60.4574 75.358 61.2188H75.4943C75.7614 60.4688 76.2443 59.8693 76.9432 59.4205C77.6477 58.9659 78.4801 58.7386 79.4403 58.7386C80.6619 58.7386 81.6534 59.1278 82.4148 59.9062C83.1818 60.679 83.5653 61.7756 83.5653 63.196V72H79.9432V63.9119C79.9432 63.1847 79.75 62.6392 79.3636 62.2756C78.9773 61.9119 78.4943 61.7301 77.9148 61.7301C77.2557 61.7301 76.7415 61.9403 76.3722 62.3608C76.0028 62.7756 75.8182 63.3239 75.8182 64.0057V72H72.2983V63.8352C72.2983 63.1932 72.1136 62.6818 71.7443 62.3011C71.3807 61.9205 70.9006 61.7301 70.304 61.7301C69.9006 61.7301 69.5369 61.8324 69.2131 62.0369C68.8949 62.2358 68.642 62.517 68.4545 62.8807C68.267 63.2386 68.1733 63.6591 68.1733 64.142V72H64.5426ZM86.4332 72V58.9091H90.0639V72H86.4332ZM88.2571 57.2216C87.7173 57.2216 87.2543 57.0426 86.8679 56.6847C86.4872 56.321 86.2969 55.8864 86.2969 55.3807C86.2969 54.8807 86.4872 54.4517 86.8679 54.0938C87.2543 53.7301 87.7173 53.5483 88.2571 53.5483C88.7969 53.5483 89.2571 53.7301 89.6378 54.0938C90.0241 54.4517 90.2173 54.8807 90.2173 55.3807C90.2173 55.8864 90.0241 56.321 89.6378 56.6847C89.2571 57.0426 88.7969 57.2216 88.2571 57.2216ZM101.367 66.4261V58.9091H104.998V72H101.512V69.6222H101.376C101.08 70.3892 100.589 71.0057 99.9013 71.4716C99.2195 71.9375 98.3871 72.1705 97.4041 72.1705C96.5291 72.1705 95.7592 71.9716 95.0945 71.5739C94.4297 71.1761 93.9098 70.6108 93.5348 69.8778C93.1655 69.1449 92.978 68.267 92.9723 67.2443V58.9091H96.603V66.5966C96.6087 67.3693 96.8161 67.9801 97.2251 68.429C97.6342 68.8778 98.1825 69.1023 98.87 69.1023C99.3075 69.1023 99.7166 69.0028 100.097 68.804C100.478 68.5994 100.785 68.2983 101.018 67.9006C101.256 67.5028 101.373 67.0114 101.367 66.4261ZM107.902 72V58.9091H111.362V61.2188H111.516C111.788 60.4517 112.243 59.8466 112.879 59.4034C113.516 58.9602 114.277 58.7386 115.163 58.7386C116.061 58.7386 116.825 58.9631 117.456 59.4119C118.087 59.8551 118.507 60.4574 118.717 61.2188H118.854C119.121 60.4688 119.604 59.8693 120.303 59.4205C121.007 58.9659 121.839 58.7386 122.8 58.7386C124.021 58.7386 125.013 59.1278 125.774 59.9062C126.541 60.679 126.925 61.7756 126.925 63.196V72H123.303V63.9119C123.303 63.1847 123.109 62.6392 122.723 62.2756C122.337 61.9119 121.854 61.7301 121.274 61.7301C120.615 61.7301 120.101 61.9403 119.732 62.3608C119.362 62.7756 119.178 63.3239 119.178 64.0057V72H115.658V63.8352C115.658 63.1932 115.473 62.6818 115.104 62.3011C114.74 61.9205 114.26 61.7301 113.663 61.7301C113.26 61.7301 112.896 61.8324 112.572 62.0369C112.254 62.2358 112.001 62.517 111.814 62.8807C111.626 63.2386 111.533 63.6591 111.533 64.142V72H107.902Z" fill="#1E1E1F"/>
<rect x="24" y="95" width="71" height="24" rx="12" fill="#EDEEF0"/>
<path d="M35.636 111.144C35.092 111.144 34.624 111.04 34.232 110.832C33.848 110.616 33.544 110.336 33.32 109.992C33.104 109.64 32.968 109.26 32.912 108.852H34.028C34.108 109.26 34.288 109.576 34.568 109.8C34.856 110.016 35.216 110.124 35.648 110.124C36.048 110.124 36.396 110.008 36.692 109.776C36.996 109.536 37.236 109.176 37.412 108.696C37.596 108.208 37.704 107.596 37.736 106.86C37.736 106.828 37.736 106.796 37.736 106.764C37.736 106.732 37.736 106.7 37.736 106.668C37.616 106.908 37.444 107.128 37.22 107.328C37.004 107.528 36.744 107.688 36.44 107.808C36.136 107.928 35.804 107.988 35.444 107.988C34.98 107.988 34.54 107.88 34.124 107.664C33.716 107.44 33.384 107.124 33.128 106.716C32.88 106.308 32.756 105.832 32.756 105.288C32.756 104.8 32.872 104.34 33.104 103.908C33.344 103.476 33.676 103.128 34.1 102.864C34.532 102.592 35.04 102.456 35.624 102.456C36.232 102.456 36.744 102.572 37.16 102.804C37.584 103.028 37.92 103.332 38.168 103.716C38.424 104.1 38.608 104.532 38.72 105.012C38.832 105.492 38.888 105.984 38.888 106.488C38.888 107.408 38.76 108.22 38.504 108.924C38.248 109.62 37.876 110.164 37.388 110.556C36.908 110.948 36.324 111.144 35.636 111.144ZM35.708 106.968C36.044 106.968 36.348 106.892 36.62 106.74C36.892 106.588 37.104 106.38 37.256 106.116C37.416 105.852 37.496 105.556 37.496 105.228C37.496 104.884 37.416 104.584 37.256 104.328C37.104 104.064 36.892 103.86 36.62 103.716C36.348 103.572 36.04 103.5 35.696 103.5C35.368 103.5 35.068 103.576 34.796 103.728C34.532 103.872 34.324 104.076 34.172 104.34C34.02 104.596 33.944 104.896 33.944 105.24C33.944 105.584 34.02 105.888 34.172 106.152C34.324 106.408 34.532 106.608 34.796 106.752C35.068 106.896 35.372 106.968 35.708 106.968ZM43.7469 111.144C43.0189 111.144 42.3909 110.964 41.8629 110.604C41.3429 110.236 40.9429 109.728 40.6629 109.08C40.3829 108.424 40.2429 107.664 40.2429 106.8C40.2429 105.936 40.3829 105.18 40.6629 104.532C40.9429 103.876 41.3429 103.368 41.8629 103.008C42.3909 102.64 43.0189 102.456 43.7469 102.456C44.4829 102.456 45.1069 102.64 45.6189 103.008C46.1389 103.368 46.5389 103.876 46.8189 104.532C47.1069 105.18 47.2509 105.936 47.2509 106.8C47.2509 107.664 47.1069 108.424 46.8189 109.08C46.5389 109.728 46.1389 110.236 45.6189 110.604C45.1069 110.964 44.4829 111.144 43.7469 111.144ZM43.7469 110.076C44.1869 110.076 44.5749 109.944 44.9109 109.68C45.2549 109.416 45.5229 109.04 45.7149 108.552C45.9149 108.064 46.0149 107.48 46.0149 106.8C46.0149 106.112 45.9149 105.528 45.7149 105.048C45.5229 104.56 45.2549 104.188 44.9109 103.932C44.5749 103.668 44.1869 103.536 43.7469 103.536C43.3069 103.536 42.9149 103.668 42.5709 103.932C42.2269 104.188 41.9549 104.56 41.7549 105.048C41.5629 105.528 41.4669 106.112 41.4669 106.8C41.4669 107.48 41.5629 108.064 41.7549 108.552C41.9549 109.04 42.2269 109.416 42.5709 109.68C42.9149 109.944 43.3069 110.076 43.7469 110.076ZM52.0114 111.144C51.2834 111.144 50.6554 110.964 50.1274 110.604C49.6074 110.236 49.2074 109.728 48.9274 109.08C48.6474 108.424 48.5074 107.664 48.5074 106.8C48.5074 105.936 48.6474 105.18 48.9274 104.532C49.2074 103.876 49.6074 103.368 50.1274 103.008C50.6554 102.64 51.2834 102.456 52.0114 102.456C52.7474 102.456 53.3714 102.64 53.8834 103.008C54.4034 103.368 54.8034 103.876 55.0834 104.532C55.3714 105.18 55.5154 105.936 55.5154 106.8C55.5154 107.664 55.3714 108.424 55.0834 109.08C54.8034 109.728 54.4034 110.236 53.8834 110.604C53.3714 110.964 52.7474 111.144 52.0114 111.144ZM52.0114 110.076C52.4514 110.076 52.8394 109.944 53.1754 109.68C53.5194 109.416 53.7874 109.04 53.9794 108.552C54.1794 108.064 54.2794 107.48 54.2794 106.8C54.2794 106.112 54.1794 105.528 53.9794 105.048C53.7874 104.56 53.5194 104.188 53.1754 103.932C52.8394 103.668 52.4514 103.536 52.0114 103.536C51.5714 103.536 51.1794 103.668 50.8354 103.932C50.4914 104.188 50.2194 104.56 50.0194 105.048C49.8274 105.528 49.7314 106.112 49.7314 106.8C49.7314 107.48 49.8274 108.064 50.0194 108.552C50.2194 109.04 50.4914 109.416 50.8354 109.68C51.1794 109.944 51.5714 110.076 52.0114 110.076ZM57.0839 111V102.6H58.4999L61.2959 108.288L64.0799 102.6H65.4959V111H64.2959V104.712L61.7519 109.848H60.8279L58.2839 104.736V111H57.0839ZM74.261 111.144C73.445 111.144 72.741 110.964 72.149 110.604C71.557 110.236 71.101 109.728 70.781 109.08C70.461 108.424 70.301 107.664 70.301 106.8C70.301 105.944 70.461 105.188 70.781 104.532C71.101 103.876 71.557 103.368 72.149 103.008C72.741 102.64 73.445 102.456 74.261 102.456C75.237 102.456 76.029 102.692 76.637 103.164C77.245 103.636 77.633 104.3 77.801 105.156H76.493C76.365 104.66 76.117 104.264 75.749 103.968C75.381 103.672 74.881 103.524 74.249 103.524C73.697 103.524 73.213 103.656 72.797 103.92C72.389 104.184 72.073 104.56 71.849 105.048C71.633 105.536 71.525 106.12 71.525 106.8C71.525 107.48 71.633 108.068 71.849 108.564C72.073 109.052 72.389 109.428 72.797 109.692C73.213 109.948 73.697 110.076 74.249 110.076C74.881 110.076 75.381 109.936 75.749 109.656C76.117 109.368 76.365 108.98 76.493 108.492H77.801C77.633 109.324 77.245 109.976 76.637 110.448C76.029 110.912 75.237 111.144 74.261 111.144ZM82.4654 111.144C81.8734 111.144 81.3374 111.028 80.8574 110.796C80.3774 110.556 79.9934 110.196 79.7054 109.716C79.4254 109.228 79.2854 108.608 79.2854 107.856V102.6H80.4854V107.868C80.4854 108.372 80.5694 108.788 80.7374 109.116C80.9054 109.436 81.1374 109.676 81.4334 109.836C81.7374 109.988 82.0894 110.064 82.4894 110.064C82.8974 110.064 83.2454 109.988 83.5334 109.836C83.8294 109.676 84.0574 109.436 84.2174 109.116C84.3854 108.788 84.4694 108.372 84.4694 107.868V102.6H85.6694V107.856C85.6694 108.608 85.5254 109.228 85.2374 109.716C84.9494 110.196 84.5614 110.556 84.0734 110.796C83.5934 111.028 83.0574 111.144 82.4654 111.144Z" fill="#1E1E1F"/>
<rect x="102" y="95" width="64" height="24" rx="12" fill="#EDEEF0"/>
<path d="M111.644 111L114.776 103.632H110.348V102.6H116.012V103.476L112.904 111H111.644ZM120.516 111.144C119.788 111.144 119.16 110.964 118.632 110.604C118.112 110.236 117.712 109.728 117.432 109.08C117.152 108.424 117.012 107.664 117.012 106.8C117.012 105.936 117.152 105.18 117.432 104.532C117.712 103.876 118.112 103.368 118.632 103.008C119.16 102.64 119.788 102.456 120.516 102.456C121.252 102.456 121.876 102.64 122.388 103.008C122.908 103.368 123.308 103.876 123.588 104.532C123.876 105.18 124.02 105.936 124.02 106.8C124.02 107.664 123.876 108.424 123.588 109.08C123.308 109.728 122.908 110.236 122.388 110.604C121.876 110.964 121.252 111.144 120.516 111.144ZM120.516 110.076C120.956 110.076 121.344 109.944 121.68 109.68C122.024 109.416 122.292 109.04 122.484 108.552C122.684 108.064 122.784 107.48 122.784 106.8C122.784 106.112 122.684 105.528 122.484 105.048C122.292 104.56 122.024 104.188 121.68 103.932C121.344 103.668 120.956 103.536 120.516 103.536C120.076 103.536 119.684 103.668 119.34 103.932C118.996 104.188 118.724 104.56 118.524 105.048C118.332 105.528 118.236 106.112 118.236 106.8C118.236 107.48 118.332 108.064 118.524 108.552C118.724 109.04 118.996 109.416 119.34 109.68C119.684 109.944 120.076 110.076 120.516 110.076ZM128.781 111.144C128.053 111.144 127.425 110.964 126.897 110.604C126.377 110.236 125.977 109.728 125.697 109.08C125.417 108.424 125.277 107.664 125.277 106.8C125.277 105.936 125.417 105.18 125.697 104.532C125.977 103.876 126.377 103.368 126.897 103.008C127.425 102.64 128.053 102.456 128.781 102.456C129.517 102.456 130.141 102.64 130.653 103.008C131.173 103.368 131.573 103.876 131.853 104.532C132.141 105.18 132.285 105.936 132.285 106.8C132.285 107.664 132.141 108.424 131.853 109.08C131.573 109.728 131.173 110.236 130.653 110.604C130.141 110.964 129.517 111.144 128.781 111.144ZM128.781 110.076C129.221 110.076 129.609 109.944 129.945 109.68C130.289 109.416 130.557 109.04 130.749 108.552C130.949 108.064 131.049 107.48 131.049 106.8C131.049 106.112 130.949 105.528 130.749 105.048C130.557 104.56 130.289 104.188 129.945 103.932C129.609 103.668 129.221 103.536 128.781 103.536C128.341 103.536 127.949 103.668 127.605 103.932C127.261 104.188 126.989 104.56 126.789 105.048C126.597 105.528 126.501 106.112 126.501 106.8C126.501 107.48 126.597 108.064 126.789 108.552C126.989 109.04 127.261 109.416 127.605 109.68C127.949 109.944 128.341 110.076 128.781 110.076ZM137.067 111V102.6H139.911C140.575 102.6 141.119 102.712 141.543 102.936C141.967 103.16 142.279 103.46 142.479 103.836C142.687 104.204 142.791 104.624 142.791 105.096C142.791 105.544 142.687 105.96 142.479 106.344C142.279 106.72 141.963 107.024 141.531 107.256C141.099 107.48 140.547 107.592 139.875 107.592H138.267V111H137.067ZM141.483 111L139.671 107.268H140.991L142.875 111H141.483ZM138.267 106.68H139.839C140.431 106.68 140.863 106.536 141.135 106.248C141.415 105.952 141.555 105.576 141.555 105.12C141.555 104.656 141.419 104.288 141.147 104.016C140.875 103.744 140.435 103.608 139.827 103.608H138.267V106.68ZM144.488 111V102.6H147.344C148.016 102.6 148.568 102.712 149 102.936C149.44 103.16 149.764 103.464 149.972 103.848C150.18 104.224 150.284 104.656 150.284 105.144C150.284 105.608 150.18 106.032 149.972 106.416C149.764 106.8 149.444 107.108 149.012 107.34C148.58 107.564 148.024 107.676 147.344 107.676H145.688V111H144.488ZM145.688 106.68H147.296C147.936 106.68 148.388 106.54 148.652 106.26C148.924 105.98 149.06 105.608 149.06 105.144C149.06 104.656 148.924 104.276 148.652 104.004C148.388 103.732 147.936 103.596 147.296 103.596H145.688V106.68ZM154.469 111.144C153.861 111.144 153.325 111.036 152.861 110.82C152.397 110.596 152.037 110.284 151.781 109.884C151.525 109.484 151.393 109.016 151.385 108.48H152.657C152.657 108.784 152.725 109.064 152.861 109.32C153.005 109.568 153.209 109.768 153.473 109.92C153.745 110.064 154.077 110.136 154.469 110.136C154.805 110.136 155.093 110.08 155.333 109.968C155.581 109.856 155.769 109.704 155.897 109.512C156.025 109.312 156.089 109.084 156.089 108.828C156.089 108.54 156.025 108.304 155.897 108.12C155.769 107.928 155.589 107.768 155.357 107.64C155.133 107.512 154.873 107.4 154.577 107.304C154.289 107.208 153.977 107.104 153.641 106.992C152.961 106.768 152.457 106.484 152.129 106.14C151.809 105.796 151.649 105.348 151.649 104.796C151.649 104.324 151.757 103.916 151.973 103.572C152.197 103.22 152.513 102.948 152.921 102.756C153.329 102.556 153.805 102.456 154.349 102.456C154.901 102.456 155.377 102.556 155.777 102.756C156.185 102.956 156.505 103.232 156.737 103.584C156.969 103.936 157.089 104.348 157.097 104.82H155.825C155.825 104.604 155.765 104.392 155.645 104.184C155.533 103.976 155.365 103.808 155.141 103.68C154.925 103.544 154.653 103.476 154.325 103.476C154.045 103.468 153.797 103.512 153.581 103.608C153.365 103.704 153.197 103.844 153.077 104.028C152.957 104.212 152.897 104.432 152.897 104.688C152.897 104.944 152.953 105.152 153.065 105.312C153.177 105.464 153.333 105.596 153.533 105.708C153.741 105.82 153.985 105.924 154.265 106.02C154.545 106.108 154.853 106.208 155.189 106.32C155.597 106.456 155.965 106.624 156.293 106.824C156.621 107.016 156.877 107.268 157.061 107.58C157.253 107.884 157.349 108.276 157.349 108.756C157.349 109.172 157.241 109.56 157.025 109.92C156.809 110.28 156.489 110.576 156.065 110.808C155.641 111.032 155.109 111.144 154.469 111.144Z" fill="#1E1E1F"/>
<path d="M212.423 101.818H214.267V108.47C214.267 109.199 214.095 109.841 213.75 110.394C213.409 110.948 212.928 111.38 212.308 111.692C211.688 112 210.964 112.154 210.136 112.154C209.304 112.154 208.578 112 207.958 111.692C207.338 111.38 206.858 110.948 206.516 110.394C206.175 109.841 206.004 109.199 206.004 108.47V101.818H207.849V108.316C207.849 108.74 207.942 109.118 208.127 109.45C208.316 109.781 208.581 110.041 208.923 110.23C209.264 110.416 209.668 110.509 210.136 110.509C210.603 110.509 211.007 110.416 211.349 110.23C211.693 110.041 211.959 109.781 212.144 109.45C212.33 109.118 212.423 108.74 212.423 108.316V101.818ZM218.132 107.526V112H216.332V104.364H218.052V105.661H218.142C218.318 105.234 218.598 104.894 218.982 104.642C219.37 104.39 219.849 104.264 220.419 104.264C220.946 104.264 221.405 104.377 221.796 104.602C222.19 104.828 222.495 105.154 222.711 105.582C222.93 106.009 223.037 106.528 223.034 107.138V112H221.234V107.416C221.234 106.906 221.102 106.506 220.837 106.218C220.575 105.93 220.212 105.786 219.748 105.786C219.433 105.786 219.153 105.855 218.908 105.994C218.666 106.13 218.475 106.327 218.336 106.586C218.2 106.844 218.132 107.158 218.132 107.526ZM228.817 104.364V105.756H224.427V104.364H228.817ZM225.511 102.534H227.31V109.703C227.31 109.945 227.347 110.131 227.42 110.26C227.496 110.386 227.595 110.472 227.718 110.518C227.841 110.565 227.977 110.588 228.126 110.588C228.238 110.588 228.341 110.58 228.434 110.563C228.53 110.547 228.603 110.532 228.653 110.518L228.956 111.925C228.86 111.959 228.722 111.995 228.543 112.035C228.368 112.075 228.152 112.098 227.897 112.104C227.446 112.118 227.04 112.05 226.679 111.901C226.318 111.748 226.031 111.513 225.819 111.195C225.61 110.876 225.507 110.479 225.511 110.001V102.534ZM230.462 112V104.364H232.262V112H230.462ZM231.367 103.28C231.082 103.28 230.836 103.185 230.631 102.996C230.425 102.804 230.323 102.574 230.323 102.305C230.323 102.034 230.425 101.803 230.631 101.614C230.836 101.422 231.082 101.326 231.367 101.326C231.655 101.326 231.9 101.422 232.103 101.614C232.308 101.803 232.411 102.034 232.411 102.305C232.411 102.574 232.308 102.804 232.103 102.996C231.9 103.185 231.655 103.28 231.367 103.28ZM236.052 101.818V112H234.252V101.818H236.052ZM250.102 101.818V112H248.461L243.664 105.065H243.579V112H241.735V101.818H243.385L248.178 108.759H248.268V101.818H250.102ZM255.503 112.149C254.758 112.149 254.111 111.985 253.564 111.657C253.017 111.329 252.593 110.87 252.292 110.28C251.993 109.69 251.844 109 251.844 108.212C251.844 107.423 251.993 106.732 252.292 106.138C252.593 105.545 253.017 105.085 253.564 104.756C254.111 104.428 254.758 104.264 255.503 104.264C256.249 104.264 256.895 104.428 257.442 104.756C257.989 105.085 258.412 105.545 258.71 106.138C259.012 106.732 259.162 107.423 259.162 108.212C259.162 109 259.012 109.69 258.71 110.28C258.412 110.87 257.989 111.329 257.442 111.657C256.895 111.985 256.249 112.149 255.503 112.149ZM255.513 110.707C255.918 110.707 256.256 110.596 256.527 110.374C256.799 110.149 257.001 109.847 257.134 109.469C257.27 109.092 257.338 108.671 257.338 108.207C257.338 107.739 257.27 107.317 257.134 106.939C257.001 106.558 256.799 106.254 256.527 106.029C256.256 105.804 255.918 105.691 255.513 105.691C255.099 105.691 254.754 105.804 254.479 106.029C254.207 106.254 254.003 106.558 253.868 106.939C253.735 107.317 253.669 107.739 253.669 108.207C253.669 108.671 253.735 109.092 253.868 109.469C254.003 109.847 254.207 110.149 254.479 110.374C254.754 110.596 255.099 110.707 255.513 110.707ZM267.391 104.364L264.672 112H262.683L259.964 104.364H261.883L263.638 110.036H263.717L265.477 104.364H267.391ZM276.511 101.818V112H274.666V103.613H274.607L272.225 105.134V103.444L274.756 101.818H276.511ZM282.999 112.194C282.181 112.194 281.478 111.987 280.891 111.572C280.308 111.155 279.859 110.553 279.544 109.768C279.233 108.979 279.077 108.029 279.077 106.919C279.08 105.809 279.238 104.864 279.549 104.085C279.864 103.303 280.313 102.706 280.896 102.295C281.483 101.884 282.184 101.679 282.999 101.679C283.815 101.679 284.516 101.884 285.102 102.295C285.689 102.706 286.138 103.303 286.45 104.085C286.764 104.867 286.922 105.812 286.922 106.919C286.922 108.033 286.764 108.984 286.45 109.773C286.138 110.558 285.689 111.158 285.102 111.572C284.519 111.987 283.818 112.194 282.999 112.194ZM282.999 110.638C283.636 110.638 284.138 110.325 284.506 109.698C284.877 109.068 285.063 108.142 285.063 106.919C285.063 106.11 284.978 105.431 284.809 104.881C284.64 104.33 284.401 103.916 284.093 103.638C283.785 103.356 283.42 103.215 282.999 103.215C282.366 103.215 281.866 103.53 281.498 104.16C281.13 104.786 280.944 105.706 280.941 106.919C280.938 107.731 281.019 108.414 281.185 108.967C281.354 109.521 281.592 109.938 281.901 110.22C282.209 110.499 282.575 110.638 282.999 110.638Z" fill="#0B57D0"/>
<rect x="328.5" y="0.5" width="315" height="145" rx="23.5" fill="white"/>
<rect x="328.5" y="0.5" width="315" height="145" rx="23.5" stroke="#EDEDF0"/>
<path d="M361.575 32.1293H360.024C359.964 31.7978 359.853 31.5062 359.691 31.2543C359.529 31.0024 359.33 30.7886 359.094 30.6129C358.859 30.4373 358.596 30.3047 358.304 30.2152C358.016 30.1257 357.709 30.081 357.384 30.081C356.798 30.081 356.272 30.2285 355.808 30.5234C355.348 30.8184 354.983 31.2509 354.714 31.821C354.449 32.3911 354.317 33.0871 354.317 33.9091C354.317 34.7377 354.449 35.437 354.714 36.0071C354.983 36.5772 355.349 37.008 355.813 37.2997C356.277 37.5914 356.799 37.7372 357.379 37.7372C357.701 37.7372 358.006 37.6941 358.294 37.608C358.586 37.5185 358.849 37.3875 359.085 37.2152C359.32 37.0429 359.519 36.8324 359.681 36.5838C359.847 36.3319 359.961 36.0436 360.024 35.7188L361.575 35.7237C361.492 36.2242 361.332 36.6849 361.093 37.1058C360.858 37.5234 360.554 37.8847 360.183 38.1896C359.815 38.4912 359.394 38.7249 358.92 38.8906C358.446 39.0563 357.929 39.1392 357.369 39.1392C356.488 39.1392 355.702 38.9304 355.013 38.5128C354.323 38.0919 353.78 37.4903 353.382 36.7081C352.988 35.9259 352.79 34.9929 352.79 33.9091C352.79 32.822 352.989 31.889 353.387 31.1101C353.785 30.3279 354.328 29.728 355.018 29.3104C355.707 28.8894 356.491 28.679 357.369 28.679C357.91 28.679 358.413 28.7569 358.881 28.9126C359.351 29.0651 359.774 29.2905 360.148 29.5888C360.523 29.8838 360.833 30.245 361.078 30.6726C361.323 31.0968 361.489 31.5824 361.575 32.1293ZM370.101 28.8182H371.642V35.5149C371.642 36.2275 371.475 36.8589 371.14 37.4091C370.805 37.956 370.335 38.3868 369.728 38.7017C369.122 39.0133 368.411 39.169 367.595 39.169C366.783 39.169 366.074 39.0133 365.468 38.7017C364.861 38.3868 364.39 37.956 364.056 37.4091C363.721 36.8589 363.554 36.2275 363.554 35.5149V28.8182H365.09V35.3906C365.09 35.8513 365.191 36.2607 365.393 36.6186C365.599 36.9766 365.889 37.2583 366.263 37.4638C366.638 37.666 367.082 37.767 367.595 37.767C368.112 37.767 368.558 37.666 368.933 37.4638C369.311 37.2583 369.599 36.9766 369.798 36.6186C370 36.2607 370.101 35.8513 370.101 35.3906V28.8182ZM377.861 39V28.8182H379.347V32.6016H379.437C379.523 32.4425 379.647 32.2585 379.81 32.0497C379.972 31.8409 380.198 31.6586 380.486 31.5028C380.774 31.3438 381.155 31.2642 381.629 31.2642C382.246 31.2642 382.796 31.42 383.28 31.7315C383.764 32.0431 384.143 32.4922 384.418 33.0788C384.697 33.6655 384.836 34.3714 384.836 35.1967C384.836 36.022 384.698 36.7296 384.423 37.3196C384.148 37.9062 383.77 38.3587 383.29 38.6768C382.809 38.9917 382.261 39.1491 381.644 39.1491C381.18 39.1491 380.801 39.0713 380.506 38.9155C380.214 38.7597 379.985 38.5774 379.82 38.3686C379.654 38.1598 379.526 37.9742 379.437 37.8118H379.313V39H377.861ZM379.318 35.1818C379.318 35.7187 379.395 36.1894 379.551 36.5938C379.707 36.9981 379.932 37.3146 380.227 37.5433C380.522 37.7687 380.884 37.8814 381.311 37.8814C381.755 37.8814 382.126 37.7637 382.425 37.5284C382.723 37.2898 382.948 36.9666 383.101 36.5589C383.257 36.1513 383.335 35.6922 383.335 35.1818C383.335 34.678 383.258 34.2256 383.106 33.8246C382.957 33.4235 382.731 33.107 382.43 32.875C382.131 32.643 381.759 32.527 381.311 32.527C380.88 32.527 380.516 32.638 380.217 32.8601C379.922 33.0821 379.699 33.392 379.546 33.7898C379.394 34.1875 379.318 34.6515 379.318 35.1818ZM388.868 39.169C388.384 39.169 387.946 39.0795 387.555 38.9006C387.164 38.7183 386.854 38.4548 386.625 38.1101C386.4 37.7654 386.287 37.3428 386.287 36.8423C386.287 36.4115 386.37 36.0568 386.536 35.7784C386.702 35.5 386.925 35.2796 387.207 35.1172C387.489 34.9548 387.804 34.8321 388.152 34.7493C388.5 34.6664 388.854 34.6035 389.216 34.5604C389.673 34.5073 390.044 34.4643 390.329 34.4311C390.614 34.3946 390.821 34.3366 390.951 34.2571C391.08 34.1776 391.145 34.0483 391.145 33.8693V33.8345C391.145 33.4003 391.022 33.0639 390.777 32.8253C390.535 32.5866 390.173 32.4673 389.693 32.4673C389.192 32.4673 388.798 32.5784 388.51 32.8004C388.225 33.0192 388.027 33.2628 387.918 33.5312L386.521 33.2131C386.687 32.7491 386.929 32.3745 387.247 32.0895C387.568 31.8011 387.938 31.5923 388.355 31.4631C388.773 31.3305 389.212 31.2642 389.673 31.2642C389.978 31.2642 390.301 31.3007 390.642 31.3736C390.987 31.4432 391.309 31.5724 391.607 31.7614C391.908 31.9503 392.155 32.2204 392.348 32.5717C392.54 32.9197 392.636 33.3722 392.636 33.929V39H391.184V37.956H391.125C391.029 38.1482 390.884 38.3371 390.692 38.5227C390.5 38.7083 390.253 38.8625 389.951 38.9851C389.65 39.1077 389.288 39.169 388.868 39.169ZM389.191 37.9759C389.602 37.9759 389.953 37.8946 390.245 37.7322C390.54 37.5698 390.763 37.3577 390.916 37.0959C391.072 36.8307 391.149 36.5473 391.149 36.2457V35.2614C391.096 35.3144 390.994 35.3641 390.841 35.4105C390.692 35.4536 390.521 35.4917 390.329 35.5249C390.137 35.5547 389.95 35.5829 389.767 35.6094C389.585 35.6326 389.433 35.6525 389.31 35.669C389.022 35.7055 388.758 35.7668 388.52 35.853C388.284 35.9392 388.095 36.0634 387.953 36.2259C387.814 36.3849 387.744 36.5971 387.744 36.8622C387.744 37.2301 387.88 37.5085 388.152 37.6974C388.423 37.883 388.77 37.9759 389.191 37.9759ZM396.242 28.8182V39H394.756V28.8182H396.242ZM400.605 39.169C400.121 39.169 399.683 39.0795 399.292 38.9006C398.901 38.7183 398.591 38.4548 398.362 38.1101C398.137 37.7654 398.024 37.3428 398.024 36.8423C398.024 36.4115 398.107 36.0568 398.273 35.7784C398.439 35.5 398.662 35.2796 398.944 35.1172C399.226 34.9548 399.541 34.8321 399.889 34.7493C400.237 34.6664 400.591 34.6035 400.953 34.5604C401.41 34.5073 401.781 34.4643 402.066 34.4311C402.351 34.3946 402.558 34.3366 402.688 34.2571C402.817 34.1776 402.882 34.0483 402.882 33.8693V33.8345C402.882 33.4003 402.759 33.0639 402.514 32.8253C402.272 32.5866 401.91 32.4673 401.43 32.4673C400.929 32.4673 400.535 32.5784 400.247 32.8004C399.962 33.0192 399.764 33.2628 399.655 33.5312L398.258 33.2131C398.424 32.7491 398.666 32.3745 398.984 32.0895C399.305 31.8011 399.675 31.5923 400.092 31.4631C400.51 31.3305 400.949 31.2642 401.41 31.2642C401.715 31.2642 402.038 31.3007 402.379 31.3736C402.724 31.4432 403.046 31.5724 403.344 31.7614C403.646 31.9503 403.892 32.2204 404.085 32.5717C404.277 32.9197 404.373 33.3722 404.373 33.929V39H402.921V37.956H402.862C402.766 38.1482 402.621 38.3371 402.429 38.5227C402.237 38.7083 401.99 38.8625 401.688 38.9851C401.387 39.1077 401.025 39.169 400.605 39.169ZM400.928 37.9759C401.339 37.9759 401.69 37.8946 401.982 37.7322C402.277 37.5698 402.5 37.3577 402.653 37.0959C402.809 36.8307 402.887 36.5473 402.887 36.2457V35.2614C402.833 35.3144 402.731 35.3641 402.578 35.4105C402.429 35.4536 402.258 35.4917 402.066 35.5249C401.874 35.5547 401.687 35.5829 401.504 35.6094C401.322 35.6326 401.17 35.6525 401.047 35.669C400.759 35.7055 400.495 35.7668 400.257 35.853C400.021 35.9392 399.832 36.0634 399.69 36.2259C399.551 36.3849 399.481 36.5971 399.481 36.8622C399.481 37.2301 399.617 37.5085 399.889 37.6974C400.16 37.883 400.507 37.9759 400.928 37.9759ZM407.979 34.4659V39H406.493V31.3636H407.92V32.6065H408.014C408.19 32.2022 408.465 31.8774 408.84 31.6321C409.217 31.3868 409.693 31.2642 410.266 31.2642C410.787 31.2642 411.242 31.3736 411.634 31.5923C412.025 31.8078 412.328 32.1293 412.543 32.5568C412.759 32.9844 412.867 33.513 412.867 34.1428V39H411.38V34.3217C411.38 33.7682 411.236 33.3357 410.948 33.0241C410.659 32.7093 410.263 32.5518 409.759 32.5518C409.415 32.5518 409.108 32.6264 408.84 32.7756C408.574 32.9247 408.364 33.1435 408.208 33.4318C408.056 33.7169 407.979 34.0616 407.979 34.4659ZM418.217 39.1541C417.478 39.1541 416.841 38.9867 416.308 38.652C415.777 38.3139 415.37 37.8482 415.085 37.255C414.8 36.6617 414.657 35.9822 414.657 35.2166C414.657 34.4411 414.803 33.7566 415.095 33.1634C415.386 32.5668 415.797 32.1011 416.328 31.7663C416.858 31.4316 417.483 31.2642 418.202 31.2642C418.782 31.2642 419.299 31.3719 419.753 31.5874C420.207 31.7995 420.573 32.0978 420.852 32.4822C421.133 32.8667 421.301 33.3158 421.354 33.8295H419.907C419.828 33.4716 419.645 33.1634 419.36 32.9048C419.079 32.6463 418.701 32.517 418.227 32.517C417.812 32.517 417.449 32.6264 417.138 32.8452C416.83 33.0606 416.589 33.3688 416.417 33.7699C416.245 34.1676 416.159 34.6383 416.159 35.1818C416.159 35.7386 416.243 36.2192 416.412 36.6236C416.581 37.0279 416.82 37.3411 417.128 37.5632C417.44 37.7853 417.806 37.8963 418.227 37.8963C418.508 37.8963 418.764 37.8449 418.992 37.7422C419.224 37.6361 419.418 37.4853 419.574 37.2898C419.733 37.0942 419.844 36.8589 419.907 36.5838H421.354C421.301 37.0777 421.14 37.5185 420.872 37.9062C420.603 38.294 420.244 38.599 419.793 38.821C419.345 39.0431 418.82 39.1541 418.217 39.1541ZM426.375 39.1541C425.622 39.1541 424.974 38.9934 424.431 38.6719C423.891 38.3471 423.473 37.8913 423.178 37.3047C422.886 36.7147 422.74 36.0237 422.74 35.2315C422.74 34.4493 422.886 33.7599 423.178 33.1634C423.473 32.5668 423.884 32.1011 424.411 31.7663C424.941 31.4316 425.561 31.2642 426.27 31.2642C426.701 31.2642 427.119 31.3355 427.523 31.478C427.927 31.6205 428.29 31.8442 428.612 32.1491C428.933 32.4541 429.187 32.8501 429.373 33.3374C429.558 33.8213 429.651 34.4096 429.651 35.1023V35.6293H423.581V34.5156H428.194C428.194 34.1245 428.115 33.7782 427.956 33.4766C427.797 33.1716 427.573 32.9313 427.285 32.7557C426.999 32.58 426.665 32.4922 426.28 32.4922C425.863 32.4922 425.498 32.5949 425.186 32.8004C424.878 33.0026 424.64 33.2678 424.471 33.5959C424.305 33.9207 424.222 34.2737 424.222 34.6548V35.5249C424.222 36.0353 424.311 36.4695 424.49 36.8274C424.673 37.1854 424.926 37.4588 425.251 37.6477C425.576 37.8333 425.955 37.9261 426.39 37.9261C426.671 37.9261 426.928 37.8864 427.16 37.8068C427.392 37.724 427.593 37.6013 427.762 37.4389C427.931 37.2765 428.06 37.076 428.15 36.8374L429.557 37.0909C429.444 37.5052 429.242 37.8681 428.95 38.1797C428.662 38.4879 428.299 38.7282 427.861 38.9006C427.427 39.0696 426.932 39.1541 426.375 39.1541Z" fill="#AEAEB2"/>
<path d="M359.611 51.3068C360.446 51.3125 361.259 51.4602 362.048 51.75C362.844 52.0341 363.56 52.5 364.196 53.1477C364.832 53.7898 365.338 54.6506 365.713 55.7301C366.088 56.8097 366.276 58.1449 366.276 59.7358C366.281 61.2358 366.122 62.5767 365.798 63.7585C365.48 64.9347 365.023 65.929 364.426 66.7415C363.83 67.554 363.111 68.1733 362.27 68.5994C361.429 69.0256 360.483 69.2386 359.432 69.2386C358.33 69.2386 357.352 69.0227 356.5 68.5909C355.653 68.1591 354.969 67.5682 354.446 66.8182C353.923 66.0682 353.602 65.2102 353.483 64.2443H356.594C356.753 64.9375 357.077 65.4886 357.565 65.8977C358.06 66.3011 358.682 66.5028 359.432 66.5028C360.642 66.5028 361.574 65.9773 362.227 64.9261C362.881 63.875 363.207 62.4148 363.207 60.5455H363.088C362.81 61.0455 362.449 61.4773 362.006 61.8409C361.563 62.1989 361.06 62.4744 360.497 62.6676C359.94 62.8608 359.349 62.9574 358.724 62.9574C357.702 62.9574 356.781 62.7131 355.963 62.2244C355.151 61.7358 354.506 61.0653 354.028 60.2131C353.557 59.3608 353.318 58.3864 353.312 57.2898C353.312 56.1534 353.574 55.1335 354.097 54.2301C354.625 53.321 355.361 52.6051 356.304 52.0824C357.247 51.554 358.349 51.2955 359.611 51.3068ZM359.619 53.8636C359.006 53.8636 358.452 54.0142 357.957 54.3153C357.469 54.6108 357.082 55.0142 356.798 55.5256C356.52 56.0312 356.381 56.5966 356.381 57.2216C356.386 57.8409 356.526 58.4034 356.798 58.9091C357.077 59.4148 357.455 59.8153 357.932 60.1108C358.415 60.4062 358.966 60.554 359.585 60.554C360.045 60.554 360.474 60.4659 360.872 60.2898C361.27 60.1136 361.616 59.8693 361.912 59.5568C362.213 59.2386 362.446 58.8778 362.611 58.4744C362.781 58.071 362.864 57.6449 362.858 57.196C362.858 56.5994 362.716 56.0483 362.432 55.5426C362.153 55.0369 361.77 54.6307 361.281 54.3239C360.798 54.017 360.244 53.8636 359.619 53.8636ZM375.565 69.3324C374.162 69.3324 372.957 68.9773 371.952 68.267C370.952 67.5511 370.182 66.5199 369.642 65.1733C369.108 63.821 368.841 62.1932 368.841 60.2898C368.847 58.3864 369.116 56.767 369.651 55.4318C370.19 54.0909 370.96 53.0682 371.96 52.3636C372.966 51.6591 374.168 51.3068 375.565 51.3068C376.963 51.3068 378.165 51.6591 379.17 52.3636C380.176 53.0682 380.946 54.0909 381.48 55.4318C382.02 56.7727 382.29 58.392 382.29 60.2898C382.29 62.1989 382.02 63.8295 381.48 65.1818C380.946 66.5284 380.176 67.5568 379.17 68.267C378.17 68.9773 376.969 69.3324 375.565 69.3324ZM375.565 66.6648C376.656 66.6648 377.517 66.1278 378.148 65.054C378.784 63.9744 379.102 62.3864 379.102 60.2898C379.102 58.9034 378.957 57.7386 378.668 56.7955C378.378 55.8523 377.969 55.142 377.44 54.6648C376.912 54.1818 376.287 53.9403 375.565 53.9403C374.48 53.9403 373.622 54.4801 372.991 55.5597C372.361 56.6335 372.043 58.2102 372.037 60.2898C372.031 61.6818 372.17 62.8523 372.455 63.8011C372.744 64.75 373.153 65.4659 373.682 65.9489C374.21 66.4261 374.838 66.6648 375.565 66.6648ZM391.573 69.3324C390.17 69.3324 388.965 68.9773 387.96 68.267C386.96 67.5511 386.19 66.5199 385.65 65.1733C385.116 63.821 384.849 62.1932 384.849 60.2898C384.854 58.3864 385.124 56.767 385.658 55.4318C386.198 54.0909 386.968 53.0682 387.968 52.3636C388.974 51.6591 390.175 51.3068 391.573 51.3068C392.971 51.3068 394.173 51.6591 395.178 52.3636C396.184 53.0682 396.954 54.0909 397.488 55.4318C398.028 56.7727 398.298 58.392 398.298 60.2898C398.298 62.1989 398.028 63.8295 397.488 65.1818C396.954 66.5284 396.184 67.5568 395.178 68.267C394.178 68.9773 392.977 69.3324 391.573 69.3324ZM391.573 66.6648C392.664 66.6648 393.525 66.1278 394.156 65.054C394.792 63.9744 395.11 62.3864 395.11 60.2898C395.11 58.9034 394.965 57.7386 394.675 56.7955C394.386 55.8523 393.977 55.142 393.448 54.6648C392.92 54.1818 392.295 53.9403 391.573 53.9403C390.488 53.9403 389.63 54.4801 388.999 55.5597C388.369 56.6335 388.05 58.2102 388.045 60.2898C388.039 61.6818 388.178 62.8523 388.462 63.8011C388.752 64.75 389.161 65.4659 389.69 65.9489C390.218 66.4261 390.846 66.6648 391.573 66.6648ZM413.534 69.3324C412.131 69.3324 410.926 68.9773 409.92 68.267C408.92 67.5511 408.151 66.5199 407.611 65.1733C407.077 63.821 406.81 62.1932 406.81 60.2898C406.815 58.3864 407.085 56.767 407.619 55.4318C408.159 54.0909 408.929 53.0682 409.929 52.3636C410.935 51.6591 412.136 51.3068 413.534 51.3068C414.932 51.3068 416.134 51.6591 417.139 52.3636C418.145 53.0682 418.915 54.0909 419.449 55.4318C419.989 56.7727 420.259 58.392 420.259 60.2898C420.259 62.1989 419.989 63.8295 419.449 65.1818C418.915 66.5284 418.145 67.5568 417.139 68.267C416.139 68.9773 414.938 69.3324 413.534 69.3324ZM413.534 66.6648C414.625 66.6648 415.486 66.1278 416.116 65.054C416.753 63.9744 417.071 62.3864 417.071 60.2898C417.071 58.9034 416.926 57.7386 416.636 56.7955C416.347 55.8523 415.938 55.142 415.409 54.6648C414.881 54.1818 414.256 53.9403 413.534 53.9403C412.449 53.9403 411.591 54.4801 410.96 55.5597C410.33 56.6335 410.011 58.2102 410.006 60.2898C410 61.6818 410.139 62.8523 410.423 63.8011C410.713 64.75 411.122 65.4659 411.651 65.9489C412.179 66.4261 412.807 66.6648 413.534 66.6648ZM429.542 69.3324C428.138 69.3324 426.934 68.9773 425.928 68.267C424.928 67.5511 424.158 66.5199 423.619 65.1733C423.085 63.821 422.817 62.1932 422.817 60.2898C422.823 58.3864 423.093 56.767 423.627 55.4318C424.167 54.0909 424.937 53.0682 425.937 52.3636C426.942 51.6591 428.144 51.3068 429.542 51.3068C430.94 51.3068 432.141 51.6591 433.147 52.3636C434.153 53.0682 434.923 54.0909 435.457 55.4318C435.996 56.7727 436.266 58.392 436.266 60.2898C436.266 62.1989 435.996 63.8295 435.457 65.1818C434.923 66.5284 434.153 67.5568 433.147 68.267C432.147 68.9773 430.945 69.3324 429.542 69.3324ZM429.542 66.6648C430.633 66.6648 431.494 66.1278 432.124 65.054C432.761 63.9744 433.079 62.3864 433.079 60.2898C433.079 58.9034 432.934 57.7386 432.644 56.7955C432.354 55.8523 431.945 55.142 431.417 54.6648C430.888 54.1818 430.263 53.9403 429.542 53.9403C428.457 53.9403 427.599 54.4801 426.968 55.5597C426.337 56.6335 426.019 58.2102 426.013 60.2898C426.008 61.6818 426.147 62.8523 426.431 63.8011C426.721 64.75 427.13 65.4659 427.658 65.9489C428.187 66.4261 428.815 66.6648 429.542 66.6648ZM445.55 69.3324C444.146 69.3324 442.942 68.9773 441.936 68.267C440.936 67.5511 440.166 66.5199 439.626 65.1733C439.092 63.821 438.825 62.1932 438.825 60.2898C438.831 58.3864 439.101 56.767 439.635 55.4318C440.175 54.0909 440.945 53.0682 441.945 52.3636C442.95 51.6591 444.152 51.3068 445.55 51.3068C446.947 51.3068 448.149 51.6591 449.155 52.3636C450.161 53.0682 450.93 54.0909 451.464 55.4318C452.004 56.7727 452.274 58.392 452.274 60.2898C452.274 62.1989 452.004 63.8295 451.464 65.1818C450.93 66.5284 450.161 67.5568 449.155 68.267C448.155 68.9773 446.953 69.3324 445.55 69.3324ZM445.55 66.6648C446.641 66.6648 447.501 66.1278 448.132 65.054C448.768 63.9744 449.087 62.3864 449.087 60.2898C449.087 58.9034 448.942 57.7386 448.652 56.7955C448.362 55.8523 447.953 55.142 447.425 54.6648C446.896 54.1818 446.271 53.9403 445.55 53.9403C444.464 53.9403 443.607 54.4801 442.976 55.5597C442.345 56.6335 442.027 58.2102 442.021 60.2898C442.016 61.6818 442.155 62.8523 442.439 63.8011C442.729 64.75 443.138 65.4659 443.666 65.9489C444.195 66.4261 444.822 66.6648 445.55 66.6648ZM467.511 69.3324C466.107 69.3324 464.903 68.9773 463.897 68.267C462.897 67.5511 462.127 66.5199 461.587 65.1733C461.053 63.821 460.786 62.1932 460.786 60.2898C460.792 58.3864 461.062 56.767 461.596 55.4318C462.136 54.0909 462.906 53.0682 463.906 52.3636C464.911 51.6591 466.113 51.3068 467.511 51.3068C468.908 51.3068 470.11 51.6591 471.116 52.3636C472.121 53.0682 472.891 54.0909 473.425 55.4318C473.965 56.7727 474.235 58.392 474.235 60.2898C474.235 62.1989 473.965 63.8295 473.425 65.1818C472.891 66.5284 472.121 67.5568 471.116 68.267C470.116 68.9773 468.914 69.3324 467.511 69.3324ZM467.511 66.6648C468.602 66.6648 469.462 66.1278 470.093 65.054C470.729 63.9744 471.048 62.3864 471.048 60.2898C471.048 58.9034 470.903 57.7386 470.613 56.7955C470.323 55.8523 469.914 55.142 469.386 54.6648C468.857 54.1818 468.232 53.9403 467.511 53.9403C466.425 53.9403 465.567 54.4801 464.937 55.5597C464.306 56.6335 463.988 58.2102 463.982 60.2898C463.977 61.6818 464.116 62.8523 464.4 63.8011C464.69 64.75 465.099 65.4659 465.627 65.9489C466.156 66.4261 466.783 66.6648 467.511 66.6648ZM483.518 69.3324C482.115 69.3324 480.911 68.9773 479.905 68.267C478.905 67.5511 478.135 66.5199 477.595 65.1733C477.061 63.821 476.794 62.1932 476.794 60.2898C476.8 58.3864 477.07 56.767 477.604 55.4318C478.143 54.0909 478.913 53.0682 479.913 52.3636C480.919 51.6591 482.121 51.3068 483.518 51.3068C484.916 51.3068 486.118 51.6591 487.124 52.3636C488.129 53.0682 488.899 54.0909 489.433 55.4318C489.973 56.7727 490.243 58.392 490.243 60.2898C490.243 62.1989 489.973 63.8295 489.433 65.1818C488.899 66.5284 488.129 67.5568 487.124 68.267C486.124 68.9773 484.922 69.3324 483.518 69.3324ZM483.518 66.6648C484.609 66.6648 485.47 66.1278 486.101 65.054C486.737 63.9744 487.055 62.3864 487.055 60.2898C487.055 58.9034 486.911 57.7386 486.621 56.7955C486.331 55.8523 485.922 55.142 485.393 54.6648C484.865 54.1818 484.24 53.9403 483.518 53.9403C482.433 53.9403 481.575 54.4801 480.945 55.5597C480.314 56.6335 479.996 58.2102 479.99 60.2898C479.984 61.6818 480.124 62.8523 480.408 63.8011C480.697 64.75 481.107 65.4659 481.635 65.9489C482.163 66.4261 482.791 66.6648 483.518 66.6648ZM499.526 69.3324C498.123 69.3324 496.918 68.9773 495.913 68.267C494.913 67.5511 494.143 66.5199 493.603 65.1733C493.069 63.821 492.802 62.1932 492.802 60.2898C492.808 58.3864 493.077 56.767 493.612 55.4318C494.151 54.0909 494.921 53.0682 495.921 52.3636C496.927 51.6591 498.129 51.3068 499.526 51.3068C500.924 51.3068 502.126 51.6591 503.131 52.3636C504.137 53.0682 504.907 54.0909 505.441 55.4318C505.981 56.7727 506.251 58.392 506.251 60.2898C506.251 62.1989 505.981 63.8295 505.441 65.1818C504.907 66.5284 504.137 67.5568 503.131 68.267C502.131 68.9773 500.93 69.3324 499.526 69.3324ZM499.526 66.6648C500.617 66.6648 501.478 66.1278 502.109 65.054C502.745 63.9744 503.063 62.3864 503.063 60.2898C503.063 58.9034 502.918 57.7386 502.629 56.7955C502.339 55.8523 501.93 55.142 501.401 54.6648C500.873 54.1818 500.248 53.9403 499.526 53.9403C498.441 53.9403 497.583 54.4801 496.952 55.5597C496.322 56.6335 496.004 58.2102 495.998 60.2898C495.992 61.6818 496.131 62.8523 496.415 63.8011C496.705 64.75 497.114 65.4659 497.643 65.9489C498.171 66.4261 498.799 66.6648 499.526 66.6648Z" fill="#1E1E1F"/>
<rect x="550" y="24" width="70" height="36" rx="12" fill="#EBF3FF"/>
<path d="M565.304 47V38.348H562.406V37.2H569.616V38.348H566.704V47H565.304ZM572.926 47.168C572.263 47.168 571.666 47.014 571.134 46.706C570.611 46.398 570.196 45.9687 569.888 45.418C569.589 44.858 569.44 44.214 569.44 43.486C569.44 42.7393 569.594 42.0907 569.902 41.54C570.21 40.98 570.63 40.546 571.162 40.238C571.694 39.93 572.291 39.776 572.954 39.776C573.626 39.776 574.223 39.93 574.746 40.238C575.269 40.546 575.679 40.9753 575.978 41.526C576.286 42.0767 576.44 42.7253 576.44 43.472C576.44 44.2187 576.286 44.8673 575.978 45.418C575.679 45.9687 575.264 46.398 574.732 46.706C574.2 47.014 573.598 47.168 572.926 47.168ZM572.926 45.964C573.309 45.964 573.654 45.8707 573.962 45.684C574.279 45.4973 574.531 45.222 574.718 44.858C574.914 44.4847 575.012 44.0227 575.012 43.472C575.012 42.9213 574.919 42.464 574.732 42.1C574.545 41.7267 574.293 41.4467 573.976 41.26C573.668 41.0733 573.327 40.98 572.954 40.98C572.581 40.98 572.235 41.0733 571.918 41.26C571.601 41.4467 571.344 41.7267 571.148 42.1C570.961 42.464 570.868 42.9213 570.868 43.472C570.868 44.0227 570.961 44.4847 571.148 44.858C571.344 45.222 571.596 45.4973 571.904 45.684C572.221 45.8707 572.562 45.964 572.926 45.964ZM578.087 50.08V39.944H579.347L579.487 41.036C579.636 40.8213 579.823 40.6207 580.047 40.434C580.271 40.238 580.537 40.0793 580.845 39.958C581.162 39.8367 581.531 39.776 581.951 39.776C582.623 39.776 583.211 39.9393 583.715 40.266C584.228 40.5927 584.625 41.036 584.905 41.596C585.194 42.1467 585.339 42.7767 585.339 43.486C585.339 44.1953 585.194 44.83 584.905 45.39C584.615 45.9407 584.214 46.3747 583.701 46.692C583.197 47.0093 582.609 47.168 581.937 47.168C581.386 47.168 580.901 47.0607 580.481 46.846C580.061 46.622 579.729 46.314 579.487 45.922V50.08H578.087ZM581.713 45.95C582.142 45.95 582.52 45.8473 582.847 45.642C583.183 45.4367 583.444 45.1473 583.631 44.774C583.827 44.4007 583.925 43.9667 583.925 43.472C583.925 42.9773 583.827 42.548 583.631 42.184C583.444 41.8107 583.183 41.5213 582.847 41.316C582.52 41.1013 582.142 40.994 581.713 40.994C581.274 40.994 580.887 41.1013 580.551 41.316C580.224 41.5213 579.967 41.8107 579.781 42.184C579.594 42.548 579.501 42.9773 579.501 43.472C579.501 43.9667 579.594 44.4007 579.781 44.774C579.967 45.1473 580.224 45.4367 580.551 45.642C580.887 45.8473 581.274 45.95 581.713 45.95ZM594.238 47.168C593.547 47.168 592.922 47.0327 592.362 46.762C591.802 46.482 591.354 46.062 591.018 45.502C590.691 44.9327 590.528 44.2093 590.528 43.332V37.2H591.928V43.346C591.928 43.934 592.026 44.4193 592.222 44.802C592.418 45.1753 592.688 45.4553 593.034 45.642C593.388 45.8193 593.799 45.908 594.266 45.908C594.742 45.908 595.152 45.8193 595.498 45.642C595.843 45.4553 596.109 45.1753 596.296 44.802C596.492 44.4193 596.59 43.934 596.59 43.346V37.2H597.99V43.332C597.99 44.2093 597.822 44.9327 597.486 45.502C597.15 46.062 596.697 46.482 596.128 46.762C595.558 47.0327 594.928 47.168 594.238 47.168ZM599.866 50.08V39.944H601.126L601.266 41.036C601.415 40.8213 601.602 40.6207 601.826 40.434C602.05 40.238 602.316 40.0793 602.624 39.958C602.941 39.8367 603.31 39.776 603.73 39.776C604.402 39.776 604.99 39.9393 605.494 40.266C606.007 40.5927 606.404 41.036 606.684 41.596C606.973 42.1467 607.118 42.7767 607.118 43.486C607.118 44.1953 606.973 44.83 606.684 45.39C606.395 45.9407 605.993 46.3747 605.48 46.692C604.976 47.0093 604.388 47.168 603.716 47.168C603.165 47.168 602.68 47.0607 602.26 46.846C601.84 46.622 601.509 46.314 601.266 45.922V50.08H599.866ZM603.492 45.95C603.921 45.95 604.299 45.8473 604.626 45.642C604.962 45.4367 605.223 45.1473 605.41 44.774C605.606 44.4007 605.704 43.9667 605.704 43.472C605.704 42.9773 605.606 42.548 605.41 42.184C605.223 41.8107 604.962 41.5213 604.626 41.316C604.299 41.1013 603.921 40.994 603.492 40.994C603.053 40.994 602.666 41.1013 602.33 41.316C602.003 41.5213 601.747 41.8107 601.56 42.184C601.373 42.548 601.28 42.9773 601.28 43.472C601.28 43.9667 601.373 44.4007 601.56 44.774C601.747 45.1473 602.003 45.4367 602.33 45.642C602.666 45.8473 603.053 45.95 603.492 45.95Z" fill="#0B57D0"/>
<path d="M355.741 96.1534C356.131 96.1562 356.514 96.2273 356.892 96.3665C357.27 96.5057 357.611 96.733 357.915 97.0483C358.222 97.3636 358.466 97.7898 358.648 98.3267C358.832 98.8608 358.926 99.5256 358.929 100.321C358.929 101.085 358.852 101.766 358.699 102.362C358.545 102.956 358.325 103.457 358.038 103.866C357.754 104.276 357.409 104.587 357.003 104.8C356.597 105.013 356.139 105.119 355.631 105.119C355.111 105.119 354.649 105.017 354.246 104.812C353.842 104.608 353.514 104.325 353.261 103.964C353.009 103.601 352.851 103.183 352.788 102.712H354.088C354.173 103.087 354.347 103.391 354.608 103.624C354.872 103.854 355.213 103.969 355.631 103.969C356.27 103.969 356.768 103.69 357.126 103.134C357.484 102.574 357.665 101.793 357.668 100.79H357.599C357.452 101.034 357.267 101.244 357.045 101.42C356.827 101.597 356.581 101.733 356.308 101.83C356.036 101.926 355.744 101.974 355.435 101.974C354.932 101.974 354.474 101.851 354.062 101.604C353.651 101.357 353.322 101.017 353.078 100.585C352.834 100.153 352.712 99.6605 352.712 99.1065C352.712 98.5554 352.837 98.0554 353.087 97.6065C353.339 97.1577 353.692 96.8026 354.143 96.5412C354.598 96.277 355.131 96.1477 355.741 96.1534ZM355.746 97.2614C355.413 97.2614 355.114 97.3437 354.847 97.5085C354.582 97.6705 354.374 97.8906 354.22 98.169C354.067 98.4446 353.99 98.7514 353.99 99.0895C353.99 99.4276 354.064 99.7344 354.212 100.01C354.362 100.283 354.567 100.5 354.825 100.662C355.087 100.821 355.385 100.901 355.72 100.901C355.97 100.901 356.203 100.852 356.419 100.756C356.635 100.659 356.824 100.526 356.986 100.355C357.148 100.182 357.274 99.9858 357.365 99.767C357.456 99.5483 357.501 99.3182 357.501 99.0767C357.501 98.7557 357.425 98.4574 357.271 98.1818C357.121 97.9062 356.913 97.6847 356.649 97.517C356.385 97.3466 356.084 97.2614 355.746 97.2614ZM363.627 105.145C362.953 105.142 362.378 104.964 361.901 104.612C361.424 104.26 361.059 103.747 360.806 103.074C360.553 102.401 360.426 101.589 360.426 100.641C360.426 99.6946 360.553 98.8864 360.806 98.2159C361.061 97.5455 361.428 97.0341 361.905 96.6818C362.385 96.3295 362.959 96.1534 363.627 96.1534C364.294 96.1534 364.867 96.331 365.344 96.6861C365.821 97.0384 366.186 97.5497 366.439 98.2202C366.695 98.8878 366.823 99.6946 366.823 100.641C366.823 101.592 366.696 102.405 366.444 103.078C366.191 103.749 365.826 104.261 365.348 104.616C364.871 104.969 364.297 105.145 363.627 105.145ZM363.627 104.007C364.218 104.007 364.679 103.719 365.012 103.142C365.347 102.565 365.515 101.732 365.515 100.641C365.515 99.9162 365.438 99.304 365.284 98.804C365.134 98.3011 364.917 97.9205 364.632 97.6619C364.351 97.4006 364.016 97.2699 363.627 97.2699C363.039 97.2699 362.577 97.5597 362.242 98.1392C361.907 98.7187 361.738 99.5526 361.735 100.641C361.735 101.368 361.81 101.983 361.961 102.486C362.114 102.986 362.331 103.365 362.613 103.624C362.894 103.879 363.232 104.007 363.627 104.007ZM371.493 105.145C370.82 105.142 370.244 104.964 369.767 104.612C369.29 104.26 368.925 103.747 368.672 103.074C368.419 102.401 368.293 101.589 368.293 100.641C368.293 99.6946 368.419 98.8864 368.672 98.2159C368.927 97.5455 369.294 97.0341 369.771 96.6818C370.251 96.3295 370.825 96.1534 371.493 96.1534C372.16 96.1534 372.733 96.331 373.21 96.6861C373.687 97.0384 374.053 97.5497 374.305 98.2202C374.561 98.8878 374.689 99.6946 374.689 100.641C374.689 101.592 374.562 102.405 374.31 103.078C374.057 103.749 373.692 104.261 373.214 104.616C372.737 104.969 372.163 105.145 371.493 105.145ZM371.493 104.007C372.084 104.007 372.545 103.719 372.878 103.142C373.213 102.565 373.381 101.732 373.381 100.641C373.381 99.9162 373.304 99.304 373.151 98.804C373 98.3011 372.783 97.9205 372.499 97.6619C372.217 97.4006 371.882 97.2699 371.493 97.2699C370.905 97.2699 370.443 97.5597 370.108 98.1392C369.773 98.7187 369.604 99.5526 369.601 100.641C369.601 101.368 369.676 101.983 369.827 102.486C369.98 102.986 370.197 103.365 370.479 103.624C370.76 103.879 371.098 104.007 371.493 104.007ZM376.44 96.2727H378.038L380.816 103.057H380.919L383.697 96.2727H385.295V105H384.042V98.6847H383.961L381.387 104.987H380.348L377.774 98.6804H377.693V105H376.44V96.2727ZM390.551 95.8636L387.739 106.312H386.601L389.413 95.8636H390.551ZM394.638 96.1534C395.028 96.1562 395.411 96.2273 395.789 96.3665C396.167 96.5057 396.508 96.733 396.812 97.0483C397.118 97.3636 397.363 97.7898 397.545 98.3267C397.729 98.8608 397.823 99.5256 397.826 100.321C397.826 101.085 397.749 101.766 397.596 102.362C397.442 102.956 397.222 103.457 396.935 103.866C396.651 104.276 396.306 104.587 395.9 104.8C395.493 105.013 395.036 105.119 394.528 105.119C394.008 105.119 393.546 105.017 393.143 104.812C392.739 104.608 392.411 104.325 392.158 103.964C391.905 103.601 391.748 103.183 391.685 102.712H392.985C393.07 103.087 393.243 103.391 393.505 103.624C393.769 103.854 394.11 103.969 394.528 103.969C395.167 103.969 395.665 103.69 396.023 103.134C396.381 102.574 396.562 101.793 396.564 100.79H396.496C396.349 101.034 396.164 101.244 395.942 101.42C395.724 101.597 395.478 101.733 395.205 101.83C394.932 101.926 394.641 101.974 394.332 101.974C393.829 101.974 393.371 101.851 392.959 101.604C392.547 101.357 392.219 101.017 391.975 100.585C391.731 100.153 391.609 99.6605 391.609 99.1065C391.609 98.5554 391.734 98.0554 391.984 97.6065C392.236 97.1577 392.589 96.8026 393.04 96.5412C393.495 96.277 394.028 96.1477 394.638 96.1534ZM394.643 97.2614C394.31 97.2614 394.011 97.3437 393.743 97.5085C393.479 97.6705 393.27 97.8906 393.117 98.169C392.964 98.4446 392.887 98.7514 392.887 99.0895C392.887 99.4276 392.961 99.7344 393.109 100.01C393.259 100.283 393.464 100.5 393.722 100.662C393.984 100.821 394.282 100.901 394.617 100.901C394.867 100.901 395.1 100.852 395.316 100.756C395.532 100.659 395.721 100.526 395.883 100.355C396.045 100.182 396.171 99.9858 396.262 99.767C396.353 99.5483 396.398 99.3182 396.398 99.0767C396.398 98.7557 396.322 98.4574 396.168 98.1818C396.018 97.9062 395.81 97.6847 395.546 97.517C395.282 97.3466 394.981 97.2614 394.643 97.2614ZM402.524 105.145C401.85 105.142 401.275 104.964 400.798 104.612C400.32 104.26 399.955 103.747 399.703 103.074C399.45 102.401 399.323 101.589 399.323 100.641C399.323 99.6946 399.45 98.8864 399.703 98.2159C399.958 97.5455 400.325 97.0341 400.802 96.6818C401.282 96.3295 401.856 96.1534 402.524 96.1534C403.191 96.1534 403.764 96.331 404.241 96.6861C404.718 97.0384 405.083 97.5497 405.336 98.2202C405.592 98.8878 405.72 99.6946 405.72 100.641C405.72 101.592 405.593 102.405 405.34 103.078C405.088 103.749 404.722 104.261 404.245 104.616C403.768 104.969 403.194 105.145 402.524 105.145ZM402.524 104.007C403.115 104.007 403.576 103.719 403.909 103.142C404.244 102.565 404.411 101.732 404.411 100.641C404.411 99.9162 404.335 99.304 404.181 98.804C404.031 98.3011 403.813 97.9205 403.529 97.6619C403.248 97.4006 402.913 97.2699 402.524 97.2699C401.936 97.2699 401.474 97.5597 401.139 98.1392C400.803 98.7187 400.634 99.5526 400.632 100.641C400.632 101.368 400.707 101.983 400.857 102.486C401.011 102.986 401.228 103.365 401.509 103.624C401.791 103.879 402.129 104.007 402.524 104.007ZM410.39 105.145C409.716 105.142 409.141 104.964 408.664 104.612C408.187 104.26 407.822 103.747 407.569 103.074C407.316 102.401 407.189 101.589 407.189 100.641C407.189 99.6946 407.316 98.8864 407.569 98.2159C407.824 97.5455 408.191 97.0341 408.668 96.6818C409.148 96.3295 409.722 96.1534 410.39 96.1534C411.057 96.1534 411.63 96.331 412.107 96.6861C412.584 97.0384 412.949 97.5497 413.202 98.2202C413.458 98.8878 413.586 99.6946 413.586 100.641C413.586 101.592 413.459 102.405 413.206 103.078C412.954 103.749 412.589 104.261 412.111 104.616C411.634 104.969 411.06 105.145 410.39 105.145ZM410.39 104.007C410.981 104.007 411.442 103.719 411.775 103.142C412.11 102.565 412.278 101.732 412.278 100.641C412.278 99.9162 412.201 99.304 412.047 98.804C411.897 98.3011 411.679 97.9205 411.395 97.6619C411.114 97.4006 410.779 97.2699 410.39 97.2699C409.802 97.2699 409.34 97.5597 409.005 98.1392C408.67 98.7187 408.501 99.5526 408.498 100.641C408.498 101.368 408.573 101.983 408.724 102.486C408.877 102.986 409.094 103.365 409.376 103.624C409.657 103.879 409.995 104.007 410.39 104.007ZM415.337 96.2727H416.935L419.713 103.057H419.815L422.594 96.2727H424.192V105H422.939V98.6847H422.858L420.284 104.987H419.244L416.671 98.6804H416.59V105H415.337V96.2727Z" fill="#85B4FF"/>
<path d="M459.656 103.295V102.23L463.428 96.2727H464.267V97.8409H463.734L461.037 102.111V102.179H466.206V103.295H459.656ZM463.794 105V102.972L463.803 102.486V96.2727H465.051V105H463.794ZM470.849 105.145C470.176 105.142 469.601 104.964 469.124 104.612C468.646 104.26 468.281 103.747 468.028 103.074C467.776 102.401 467.649 101.589 467.649 100.641C467.649 99.6946 467.776 98.8864 468.028 98.2159C468.284 97.5455 468.651 97.0341 469.128 96.6818C469.608 96.3295 470.182 96.1534 470.849 96.1534C471.517 96.1534 472.089 96.331 472.567 96.6861C473.044 97.0384 473.409 97.5497 473.662 98.2202C473.918 98.8878 474.045 99.6946 474.045 100.641C474.045 101.592 473.919 102.405 473.666 103.078C473.413 103.749 473.048 104.261 472.571 104.616C472.094 104.969 471.52 105.145 470.849 105.145ZM470.849 104.007C471.44 104.007 471.902 103.719 472.234 103.142C472.57 102.565 472.737 101.732 472.737 100.641C472.737 99.9162 472.66 99.304 472.507 98.804C472.357 98.3011 472.139 97.9205 471.855 97.6619C471.574 97.4006 471.239 97.2699 470.849 97.2699C470.261 97.2699 469.8 97.5597 469.464 98.1392C469.129 98.7187 468.96 99.5526 468.957 100.641C468.957 101.368 469.033 101.983 469.183 102.486C469.337 102.986 469.554 103.365 469.835 103.624C470.116 103.879 470.455 104.007 470.849 104.007ZM478.715 105.145C478.042 105.142 477.467 104.964 476.99 104.612C476.512 104.26 476.147 103.747 475.894 103.074C475.642 102.401 475.515 101.589 475.515 100.641C475.515 99.6946 475.642 98.8864 475.894 98.2159C476.15 97.5455 476.517 97.0341 476.994 96.6818C477.474 96.3295 478.048 96.1534 478.715 96.1534C479.383 96.1534 479.956 96.331 480.433 96.6861C480.91 97.0384 481.275 97.5497 481.528 98.2202C481.784 98.8878 481.912 99.6946 481.912 100.641C481.912 101.592 481.785 102.405 481.532 103.078C481.279 103.749 480.914 104.261 480.437 104.616C479.96 104.969 479.386 105.145 478.715 105.145ZM478.715 104.007C479.306 104.007 479.768 103.719 480.1 103.142C480.436 102.565 480.603 101.732 480.603 100.641C480.603 99.9162 480.527 99.304 480.373 98.804C480.223 98.3011 480.005 97.9205 479.721 97.6619C479.44 97.4006 479.105 97.2699 478.715 97.2699C478.127 97.2699 477.666 97.5597 477.331 98.1392C476.995 98.7187 476.826 99.5526 476.823 100.641C476.823 101.368 476.899 101.983 477.049 102.486C477.203 102.986 477.42 103.365 477.701 103.624C477.983 103.879 478.321 104.007 478.715 104.007ZM483.663 96.2727H485.261L488.039 103.057H488.141L490.92 96.2727H492.518V105H491.265V98.6847H491.184L488.61 104.987H487.57L484.996 98.6804H484.915V105H483.663V96.2727ZM497.774 95.8636L494.961 106.312H493.823L496.636 95.8636H497.774ZM498.776 103.295V102.23L502.547 96.2727H503.387V97.8409H502.854L500.156 102.111V102.179H505.325V103.295H498.776ZM502.914 105V102.972L502.922 102.486V96.2727H504.171V105H502.914ZM509.969 105.145C509.296 105.142 508.72 104.964 508.243 104.612C507.766 104.26 507.401 103.747 507.148 103.074C506.895 102.401 506.769 101.589 506.769 100.641C506.769 99.6946 506.895 98.8864 507.148 98.2159C507.404 97.5455 507.77 97.0341 508.247 96.6818C508.727 96.3295 509.301 96.1534 509.969 96.1534C510.637 96.1534 511.209 96.331 511.686 96.6861C512.164 97.0384 512.529 97.5497 512.781 98.2202C513.037 98.8878 513.165 99.6946 513.165 100.641C513.165 101.592 513.039 102.405 512.786 103.078C512.533 103.749 512.168 104.261 511.691 104.616C511.213 104.969 510.639 105.145 509.969 105.145ZM509.969 104.007C510.56 104.007 511.021 103.719 511.354 103.142C511.689 102.565 511.857 101.732 511.857 100.641C511.857 99.9162 511.78 99.304 511.627 98.804C511.476 98.3011 511.259 97.9205 510.975 97.6619C510.693 97.4006 510.358 97.2699 509.969 97.2699C509.381 97.2699 508.919 97.5597 508.584 98.1392C508.249 98.7187 508.08 99.5526 508.077 100.641C508.077 101.368 508.152 101.983 508.303 102.486C508.456 102.986 508.673 103.365 508.955 103.624C509.236 103.879 509.574 104.007 509.969 104.007ZM517.835 105.145C517.162 105.142 516.586 104.964 516.109 104.612C515.632 104.26 515.267 103.747 515.014 103.074C514.761 102.401 514.635 101.589 514.635 100.641C514.635 99.6946 514.761 98.8864 515.014 98.2159C515.27 97.5455 515.636 97.0341 516.113 96.6818C516.594 96.3295 517.167 96.1534 517.835 96.1534C518.503 96.1534 519.075 96.331 519.552 96.6861C520.03 97.0384 520.395 97.5497 520.648 98.2202C520.903 98.8878 521.031 99.6946 521.031 100.641C521.031 101.592 520.905 102.405 520.652 103.078C520.399 103.749 520.034 104.261 519.557 104.616C519.079 104.969 518.505 105.145 517.835 105.145ZM517.835 104.007C518.426 104.007 518.888 103.719 519.22 103.142C519.555 102.565 519.723 101.732 519.723 100.641C519.723 99.9162 519.646 99.304 519.493 98.804C519.342 98.3011 519.125 97.9205 518.841 97.6619C518.559 97.4006 518.224 97.2699 517.835 97.2699C517.247 97.2699 516.785 97.5597 516.45 98.1392C516.115 98.7187 515.946 99.5526 515.943 100.641C515.943 101.368 516.018 101.983 516.169 102.486C516.322 102.986 516.54 103.365 516.821 103.624C517.102 103.879 517.44 104.007 517.835 104.007ZM522.782 96.2727H524.38L527.159 103.057H527.261L530.039 96.2727H531.637V105H530.384V98.6847H530.303L527.73 104.987H526.69L524.116 98.6804H524.035V105H522.782V96.2727Z" fill="white"/>
<g clip-path="url(#clip0_987_12114)">
<rect x="352" y="114" width="181" height="8" rx="4" fill="#D6E6FF"/>
<rect x="352" y="114" width="181" height="8" rx="4" fill="#2772F5"/>
</g>
<path d="M566.044 112.744C565.813 114.919 564.58 116.957 562.541 118.134C559.153 120.09 554.821 118.929 552.865 115.541L552.657 115.18M551.955 111.256C552.187 109.081 553.419 107.043 555.458 105.865C558.846 103.909 563.178 105.07 565.134 108.458L565.342 108.819M551.911 117.055L552.521 114.778L554.798 115.388M563.202 108.611L565.478 109.221L566.089 106.945M559 108.25V112L561.083 113.25" stroke="#2772F5" stroke-width="1.6" stroke-linecap="round" stroke-linejoin="round"/>
<path d="M582.371 106.818V117H580.731L575.933 110.065H575.849V117H574.004V106.818H575.655L580.447 113.759H580.537V106.818H582.371ZM587.773 117.149C587.027 117.149 586.381 116.985 585.834 116.657C585.287 116.329 584.863 115.87 584.561 115.28C584.263 114.69 584.114 114 584.114 113.212C584.114 112.423 584.263 111.732 584.561 111.138C584.863 110.545 585.287 110.085 585.834 109.756C586.381 109.428 587.027 109.264 587.773 109.264C588.518 109.264 589.165 109.428 589.712 109.756C590.258 110.085 590.681 110.545 590.979 111.138C591.281 111.732 591.432 112.423 591.432 113.212C591.432 114 591.281 114.69 590.979 115.28C590.681 115.87 590.258 116.329 589.712 116.657C589.165 116.985 588.518 117.149 587.773 117.149ZM587.783 115.707C588.187 115.707 588.525 115.596 588.797 115.374C589.069 115.149 589.271 114.847 589.403 114.469C589.539 114.092 589.607 113.671 589.607 113.207C589.607 112.739 589.539 112.317 589.403 111.939C589.271 111.558 589.069 111.254 588.797 111.029C588.525 110.804 588.187 110.691 587.783 110.691C587.368 110.691 587.024 110.804 586.748 111.029C586.477 111.254 586.273 111.558 586.137 111.939C586.004 112.317 585.938 112.739 585.938 113.207C585.938 113.671 586.004 114.092 586.137 114.469C586.273 114.847 586.477 115.149 586.748 115.374C587.024 115.596 587.368 115.707 587.783 115.707ZM599.661 109.364L596.941 117H594.952L592.233 109.364H594.152L595.907 115.036H595.986L597.746 109.364H599.661ZM608.78 106.818V117H606.936V108.613H606.876L604.494 110.134V108.444L607.025 106.818H608.78ZM615.269 117.194C614.45 117.194 613.747 116.987 613.161 116.572C612.577 116.155 612.128 115.553 611.813 114.768C611.502 113.979 611.346 113.029 611.346 111.919C611.349 110.809 611.507 109.864 611.818 109.085C612.133 108.303 612.582 107.706 613.166 107.295C613.752 106.884 614.453 106.679 615.269 106.679C616.084 106.679 616.785 106.884 617.372 107.295C617.958 107.706 618.407 108.303 618.719 109.085C619.034 109.867 619.191 110.812 619.191 111.919C619.191 113.033 619.034 113.984 618.719 114.773C618.407 115.558 617.958 116.158 617.372 116.572C616.788 116.987 616.087 117.194 615.269 117.194ZM615.269 115.638C615.905 115.638 616.407 115.325 616.775 114.698C617.146 114.068 617.332 113.142 617.332 111.919C617.332 111.11 617.247 110.431 617.078 109.881C616.909 109.33 616.671 108.916 616.362 108.638C616.054 108.356 615.69 108.215 615.269 108.215C614.636 108.215 614.135 108.53 613.767 109.16C613.399 109.786 613.214 110.706 613.21 111.919C613.207 112.731 613.288 113.414 613.454 113.967C613.623 114.521 613.862 114.938 614.17 115.22C614.478 115.499 614.844 115.638 615.269 115.638Z" fill="#0B57D0"/>
<rect x="660.5" y="0.5" width="311" height="147" rx="23.5" fill="white"/>
<rect x="660.5" y="0.5" width="311" height="147" rx="23.5" stroke="#EDEDF0"/>
<path d="M685.119 39V28.8182H688.748C689.537 28.8182 690.191 28.9541 690.712 29.2259C691.235 29.4976 691.626 29.8738 691.885 30.3544C692.143 30.8317 692.273 31.3835 692.273 32.0099C692.273 32.633 692.142 33.1816 691.88 33.6555C691.621 34.1262 691.23 34.4924 690.707 34.7543C690.186 35.0161 689.532 35.147 688.743 35.147H685.994V33.8246H688.604C689.101 33.8246 689.505 33.7533 689.817 33.6108C690.132 33.4683 690.362 33.2611 690.508 32.9893C690.654 32.7176 690.727 32.3911 690.727 32.0099C690.727 31.6255 690.652 31.2924 690.503 31.0107C690.357 30.7289 690.127 30.5135 689.812 30.3643C689.5 30.2119 689.091 30.1357 688.584 30.1357H686.655V39H685.119ZM690.145 34.4062L692.661 39H690.911L688.445 34.4062H690.145ZM696.385 39.169C695.901 39.169 695.464 39.0795 695.073 38.9006C694.681 38.7183 694.372 38.4548 694.143 38.1101C693.917 37.7654 693.805 37.3428 693.805 36.8423C693.805 36.4115 693.888 36.0568 694.053 35.7784C694.219 35.5 694.443 35.2796 694.725 35.1172C695.006 34.9548 695.321 34.8321 695.669 34.7493C696.017 34.6664 696.372 34.6035 696.733 34.5604C697.19 34.5073 697.562 34.4643 697.847 34.4311C698.132 34.3946 698.339 34.3366 698.468 34.2571C698.597 34.1776 698.662 34.0483 698.662 33.8693V33.8345C698.662 33.4003 698.539 33.0639 698.294 32.8253C698.052 32.5866 697.691 32.4673 697.21 32.4673C696.71 32.4673 696.315 32.5784 696.027 32.8004C695.742 33.0192 695.545 33.2628 695.435 33.5312L694.038 33.2131C694.204 32.7491 694.446 32.3745 694.764 32.0895C695.086 31.8011 695.455 31.5923 695.873 31.4631C696.291 31.3305 696.73 31.2642 697.19 31.2642C697.495 31.2642 697.819 31.3007 698.16 31.3736C698.505 31.4432 698.826 31.5724 699.124 31.7614C699.426 31.9503 699.673 32.2204 699.865 32.5717C700.057 32.9197 700.153 33.3722 700.153 33.929V39H698.702V37.956H698.642C698.546 38.1482 698.402 38.3371 698.21 38.5227C698.017 38.7083 697.77 38.8625 697.469 38.9851C697.167 39.1077 696.806 39.169 696.385 39.169ZM696.708 37.9759C697.119 37.9759 697.47 37.8946 697.762 37.7322C698.057 37.5698 698.281 37.3577 698.433 37.0959C698.589 36.8307 698.667 36.5473 698.667 36.2457V35.2614C698.614 35.3144 698.511 35.3641 698.359 35.4105C698.21 35.4536 698.039 35.4917 697.847 35.5249C697.654 35.5547 697.467 35.5829 697.285 35.6094C697.103 35.6326 696.95 35.6525 696.828 35.669C696.539 35.7055 696.276 35.7668 696.037 35.853C695.802 35.9392 695.613 36.0634 695.47 36.2259C695.331 36.3849 695.261 36.5971 695.261 36.8622C695.261 37.2301 695.397 37.5085 695.669 37.6974C695.941 37.883 696.287 37.9759 696.708 37.9759ZM705.838 31.3636V32.5568H701.667V31.3636H705.838ZM702.786 29.5341H704.272V36.7578C704.272 37.0462 704.315 37.2633 704.401 37.4091C704.487 37.5516 704.598 37.6494 704.734 37.7024C704.874 37.7521 705.024 37.777 705.187 37.777C705.306 37.777 705.411 37.7687 705.5 37.7521C705.589 37.7356 705.659 37.7223 705.709 37.7124L705.977 38.9403C705.891 38.9735 705.768 39.0066 705.609 39.0398C705.45 39.0762 705.251 39.0961 705.013 39.0994C704.622 39.1061 704.257 39.0365 703.919 38.8906C703.581 38.7448 703.308 38.5194 703.099 38.2145C702.89 37.9096 702.786 37.5268 702.786 37.0661V29.5341ZM710.832 39.1541C710.079 39.1541 709.431 38.9934 708.888 38.6719C708.347 38.3471 707.93 37.8913 707.635 37.3047C707.343 36.7147 707.197 36.0237 707.197 35.2315C707.197 34.4493 707.343 33.7599 707.635 33.1634C707.93 32.5668 708.341 32.1011 708.868 31.7663C709.398 31.4316 710.018 31.2642 710.727 31.2642C711.158 31.2642 711.576 31.3355 711.98 31.478C712.384 31.6205 712.747 31.8442 713.069 32.1491C713.39 32.4541 713.644 32.8501 713.829 33.3374C714.015 33.8213 714.108 34.4096 714.108 35.1023V35.6293H708.038V34.5156H712.651C712.651 34.1245 712.572 33.7782 712.413 33.4766C712.253 33.1716 712.03 32.9313 711.741 32.7557C711.456 32.58 711.122 32.4922 710.737 32.4922C710.32 32.4922 709.955 32.5949 709.643 32.8004C709.335 33.0026 709.096 33.2678 708.927 33.5959C708.762 33.9207 708.679 34.2737 708.679 34.6548V35.5249C708.679 36.0353 708.768 36.4695 708.947 36.8274C709.13 37.1854 709.383 37.4588 709.708 37.6477C710.033 37.8333 710.412 37.9261 710.846 37.9261C711.128 37.9261 711.385 37.8864 711.617 37.8068C711.849 37.724 712.05 37.6013 712.219 37.4389C712.388 37.2765 712.517 37.076 712.606 36.8374L714.013 37.0909C713.901 37.5052 713.699 37.8681 713.407 38.1797C713.119 38.4879 712.756 38.7282 712.318 38.9006C711.884 39.0696 711.388 39.1541 710.832 39.1541ZM721.229 28.8182V39H719.742V28.8182H721.229ZM723.369 39V31.3636H724.855V39H723.369ZM724.119 30.1854C723.861 30.1854 723.639 30.0992 723.453 29.9268C723.271 29.7512 723.18 29.5424 723.18 29.3004C723.18 29.0552 723.271 28.8464 723.453 28.674C723.639 28.4983 723.861 28.4105 724.119 28.4105C724.378 28.4105 724.598 28.4983 724.781 28.674C724.966 28.8464 725.059 29.0552 725.059 29.3004C725.059 29.5424 724.966 29.7512 724.781 29.9268C724.598 30.0992 724.378 30.1854 724.119 30.1854ZM726.995 39V31.3636H728.422V32.6065H728.516C728.675 32.1856 728.935 31.8575 729.297 31.6222C729.658 31.3835 730.091 31.2642 730.594 31.2642C731.105 31.2642 731.532 31.3835 731.877 31.6222C732.225 31.8608 732.482 32.1889 732.648 32.6065H732.727C732.909 32.1989 733.199 31.8741 733.597 31.6321C733.995 31.3868 734.469 31.2642 735.019 31.2642C735.712 31.2642 736.277 31.4813 736.714 31.9155C737.155 32.3497 737.376 33.0043 737.376 33.8793V39H735.889V34.0185C735.889 33.5014 735.748 33.1269 735.467 32.8949C735.185 32.6629 734.848 32.5469 734.457 32.5469C733.973 32.5469 733.597 32.696 733.329 32.9943C733.06 33.2893 732.926 33.6688 732.926 34.1328V39H731.444V33.924C731.444 33.5097 731.315 33.1766 731.057 32.9247C730.798 32.6728 730.462 32.5469 730.047 32.5469C729.766 32.5469 729.506 32.6214 729.267 32.7706C729.032 32.9164 728.841 33.1203 728.695 33.3821C728.553 33.6439 728.481 33.9472 728.481 34.2919V39H726.995ZM739.508 39V31.3636H740.994V39H739.508ZM740.259 30.1854C740 30.1854 739.778 30.0992 739.592 29.9268C739.41 29.7512 739.319 29.5424 739.319 29.3004C739.319 29.0552 739.41 28.8464 739.592 28.674C739.778 28.4983 740 28.4105 740.259 28.4105C740.517 28.4105 740.738 28.4983 740.92 28.674C741.105 28.8464 741.198 29.0552 741.198 29.3004C741.198 29.5424 741.105 29.7512 740.92 29.9268C740.738 30.0992 740.517 30.1854 740.259 30.1854ZM746.699 31.3636V32.5568H742.528V31.3636H746.699ZM743.646 29.5341H745.133V36.7578C745.133 37.0462 745.176 37.2633 745.262 37.4091C745.348 37.5516 745.459 37.6494 745.595 37.7024C745.734 37.7521 745.885 37.777 746.048 37.777C746.167 37.777 746.271 37.7687 746.361 37.7521C746.45 37.7356 746.52 37.7223 746.57 37.7124L746.838 38.9403C746.752 38.9735 746.629 39.0066 746.47 39.0398C746.311 39.0762 746.112 39.0961 745.874 39.0994C745.483 39.1061 745.118 39.0365 744.78 38.8906C744.442 38.7448 744.168 38.5194 743.96 38.2145C743.751 37.9096 743.646 37.5268 743.646 37.0661V29.5341Z" fill="#AEAEB2"/>
<path d="M686.19 69L693.614 54.3068V54.1875H684.997V51.5455H696.886V54.2472L689.472 69H686.19ZM705.714 69.3324C704.31 69.3324 703.106 68.9773 702.1 68.267C701.1 67.5511 700.33 66.5199 699.79 65.1733C699.256 63.821 698.989 62.1932 698.989 60.2898C698.995 58.3864 699.265 56.767 699.799 55.4318C700.339 54.0909 701.109 53.0682 702.109 52.3636C703.114 51.6591 704.316 51.3068 705.714 51.3068C707.112 51.3068 708.313 51.6591 709.319 52.3636C710.325 53.0682 711.094 54.0909 711.629 55.4318C712.168 56.7727 712.438 58.392 712.438 60.2898C712.438 62.1989 712.168 63.8295 711.629 65.1818C711.094 66.5284 710.325 67.5568 709.319 68.267C708.319 68.9773 707.117 69.3324 705.714 69.3324ZM705.714 66.6648C706.805 66.6648 707.665 66.1278 708.296 65.054C708.933 63.9744 709.251 62.3864 709.251 60.2898C709.251 58.9034 709.106 57.7386 708.816 56.7955C708.526 55.8523 708.117 55.142 707.589 54.6648C707.06 54.1818 706.435 53.9403 705.714 53.9403C704.629 53.9403 703.771 54.4801 703.14 55.5597C702.509 56.6335 702.191 58.2102 702.185 60.2898C702.18 61.6818 702.319 62.8523 702.603 63.8011C702.893 64.75 703.302 65.4659 703.83 65.9489C704.359 66.4261 704.987 66.6648 705.714 66.6648ZM721.722 69.3324C720.318 69.3324 719.114 68.9773 718.108 68.267C717.108 67.5511 716.338 66.5199 715.798 65.1733C715.264 63.821 714.997 62.1932 714.997 60.2898C715.003 58.3864 715.273 56.767 715.807 55.4318C716.347 54.0909 717.116 53.0682 718.116 52.3636C719.122 51.6591 720.324 51.3068 721.722 51.3068C723.119 51.3068 724.321 51.6591 725.327 52.3636C726.332 53.0682 727.102 54.0909 727.636 55.4318C728.176 56.7727 728.446 58.392 728.446 60.2898C728.446 62.1989 728.176 63.8295 727.636 65.1818C727.102 66.5284 726.332 67.5568 725.327 68.267C724.327 68.9773 723.125 69.3324 721.722 69.3324ZM721.722 66.6648C722.813 66.6648 723.673 66.1278 724.304 65.054C724.94 63.9744 725.259 62.3864 725.259 60.2898C725.259 58.9034 725.114 57.7386 724.824 56.7955C724.534 55.8523 724.125 55.142 723.597 54.6648C723.068 54.1818 722.443 53.9403 721.722 53.9403C720.636 53.9403 719.778 54.4801 719.148 55.5597C718.517 56.6335 718.199 58.2102 718.193 60.2898C718.188 61.6818 718.327 62.8523 718.611 63.8011C718.901 64.75 719.31 65.4659 719.838 65.9489C720.366 66.4261 720.994 66.6648 721.722 66.6648ZM736.827 69V57.3636H741.191C742.085 57.3636 742.835 57.5189 743.441 57.8295C744.051 58.1402 744.511 58.5758 744.822 59.1364C745.136 59.6932 745.293 60.3428 745.293 61.0852C745.293 61.8314 745.134 62.4792 744.816 63.0284C744.502 63.5739 744.038 63.9962 743.424 64.2955C742.81 64.5909 742.057 64.7386 741.163 64.7386H738.055V62.9886H740.879C741.401 62.9886 741.829 62.9167 742.163 62.7727C742.496 62.625 742.742 62.411 742.901 62.1307C743.064 61.8466 743.146 61.4981 743.146 61.0852C743.146 60.6723 743.064 60.3201 742.901 60.0284C742.738 59.733 742.49 59.5095 742.157 59.358C741.824 59.2027 741.394 59.125 740.867 59.125H738.935V69H736.827ZM742.839 63.7273L745.719 69H743.367L740.538 63.7273H742.839ZM747.234 69V57.3636H751.597C752.491 57.3636 753.241 57.5303 753.847 57.8636C754.457 58.197 754.917 58.6553 755.228 59.2386C755.542 59.8182 755.7 60.4773 755.7 61.2159C755.7 61.9621 755.542 62.625 755.228 63.2045C754.914 63.7841 754.45 64.2405 753.836 64.5739C753.222 64.9034 752.467 65.0682 751.569 65.0682H748.677V63.3352H751.285C751.808 63.3352 752.236 63.2443 752.569 63.0625C752.902 62.8807 753.148 62.6307 753.308 62.3125C753.47 61.9943 753.552 61.6288 753.552 61.2159C753.552 60.803 753.47 60.4394 753.308 60.125C753.148 59.8106 752.9 59.5663 752.563 59.392C752.23 59.214 751.8 59.125 751.273 59.125H749.342V69H747.234ZM763.854 60.5625C763.801 60.0663 763.578 59.6799 763.184 59.4034C762.794 59.1269 762.286 58.9886 761.661 58.9886C761.222 58.9886 760.845 59.0549 760.531 59.1875C760.216 59.3201 759.976 59.5 759.809 59.7273C759.642 59.9545 759.557 60.214 759.553 60.5057C759.553 60.7481 759.608 60.9583 759.718 61.1364C759.832 61.3144 759.985 61.4659 760.178 61.5909C760.371 61.7121 760.585 61.8144 760.82 61.8977C761.055 61.9811 761.292 62.0511 761.531 62.108L762.621 62.3807C763.061 62.483 763.483 62.6212 763.888 62.7955C764.298 62.9697 764.663 63.1894 764.985 63.4545C765.311 63.7197 765.568 64.0398 765.758 64.4148C765.947 64.7898 766.042 65.2292 766.042 65.733C766.042 66.4148 765.868 67.0152 765.519 67.5341C765.171 68.0492 764.667 68.4527 764.008 68.7443C763.353 69.0322 762.559 69.1761 761.627 69.1761C760.722 69.1761 759.936 69.036 759.269 68.7557C758.606 68.4754 758.087 68.0663 757.712 67.5284C757.341 66.9905 757.14 66.3352 757.11 65.5625H759.184C759.214 65.9678 759.339 66.3049 759.559 66.5739C759.779 66.8428 760.065 67.0436 760.417 67.1761C760.773 67.3087 761.171 67.375 761.61 67.375C762.068 67.375 762.47 67.3068 762.815 67.1705C763.163 67.0303 763.436 66.8371 763.633 66.5909C763.83 66.3409 763.93 66.0492 763.934 65.7159C763.93 65.4129 763.841 65.1629 763.667 64.9659C763.493 64.7652 763.248 64.5985 762.934 64.4659C762.623 64.3295 762.26 64.2083 761.843 64.1023L760.519 63.7614C759.561 63.5152 758.803 63.142 758.246 62.642C757.693 62.1383 757.417 61.4697 757.417 60.6364C757.417 59.9508 757.603 59.3504 757.974 58.8352C758.349 58.3201 758.858 57.9205 759.502 57.6364C760.146 57.3485 760.875 57.2045 761.69 57.2045C762.515 57.2045 763.239 57.3485 763.86 57.6364C764.485 57.9205 764.976 58.3163 765.332 58.8239C765.688 59.3277 765.871 59.9072 765.883 60.5625H763.854Z" fill="#1E1E1F"/>
<rect x="684" y="92" width="8" height="32" rx="4" fill="#2772F5"/>
<g clip-path="url(#clip1_987_12114)">
<rect x="696" y="92" width="8" height="32" rx="4" fill="#C2DAFF"/>
<rect x="696" y="92" width="8" height="32" rx="4" fill="#2772F5"/>
</g>
<rect x="708" y="92" width="8" height="32" rx="4" fill="#2772F5"/>
<rect x="720" y="92" width="8" height="32" rx="4" fill="#2772F5"/>
<rect x="732" y="92" width="8" height="32" rx="4" fill="#2772F5"/>
<rect x="744" y="92" width="8" height="32" rx="4" fill="#2772F5"/>
<rect x="756" y="92" width="8" height="32" rx="4" fill="#2772F5"/>
<rect x="768" y="92" width="8" height="32" rx="4" fill="#2772F5"/>
<rect x="780" y="92" width="8" height="32" rx="4" fill="#2772F5"/>
<rect x="792" y="92" width="8" height="32" rx="4" fill="#2772F5"/>
<rect x="804" y="92" width="8" height="32" rx="4" fill="#2772F5"/>
<rect x="816" y="92" width="8" height="32" rx="4" fill="#2772F5"/>
<rect x="828" y="92" width="8" height="32" rx="4" fill="#2772F5"/>
<rect x="840" y="92" width="8" height="32" rx="4" fill="#2772F5"/>
<rect x="852" y="92" width="8" height="32" rx="4" fill="#2772F5"/>
<rect x="864" y="92" width="8" height="32" rx="4" fill="#2772F5"/>
<rect x="876" y="92" width="8" height="32" rx="4" fill="#2772F5"/>
<rect x="888" y="92" width="8" height="32" rx="4" fill="#2772F5"/>
<rect x="900" y="92" width="8" height="32" rx="4" fill="#2772F5"/>
<rect x="912" y="92" width="8" height="32" rx="4" fill="#2772F5"/>
<rect x="924" y="92" width="8" height="32" rx="4" fill="#2772F5"/>
<rect x="936" y="92" width="8" height="32" rx="4" fill="#2772F5"/>
<defs>
<clipPath id="clip0_987_12114">
<rect x="352" y="114" width="181" height="8" rx="4" fill="white"/>
</clipPath>
<clipPath id="clip1_987_12114">
<rect x="696" y="92" width="8" height="32" rx="4" fill="white"/>
</clipPath>
</defs>
</svg>
