<svg width="972" height="148" viewBox="0 0 972 148" fill="none" xmlns="http://www.w3.org/2000/svg">
<rect x="0.5" y="0.5" width="311" height="145" rx="23.5" fill="white"/>
<rect x="0.5" y="0.5" width="311" height="145" rx="23.5" stroke="#EDEDF0"/>
<path d="M25.1186 42V31.8182H28.7479C29.54 31.8182 30.1963 31.9624 30.7166 32.2507C31.237 32.5391 31.6264 32.9335 31.8849 33.4339C32.1435 33.9311 32.2727 34.4912 32.2727 35.1143C32.2727 35.7408 32.1418 36.3042 31.88 36.8047C31.6214 37.3018 31.2304 37.6963 30.7067 37.9879C30.1863 38.2763 29.5317 38.4205 28.7429 38.4205H26.2472V37.1179H28.6037C29.1042 37.1179 29.5102 37.0317 29.8217 36.8594C30.1333 36.6837 30.362 36.4451 30.5078 36.1435C30.6536 35.8419 30.7266 35.4988 30.7266 35.1143C30.7266 34.7299 30.6536 34.3885 30.5078 34.0902C30.362 33.7919 30.1316 33.5582 29.8168 33.3892C29.5052 33.2202 29.0942 33.1357 28.5838 33.1357H26.6548V42H25.1186ZM35.5809 31.8182V42H34.0944V31.8182H35.5809ZM39.943 42.169C39.4591 42.169 39.0216 42.0795 38.6305 41.9006C38.2394 41.7183 37.9295 41.4548 37.7008 41.1101C37.4754 40.7654 37.3627 40.3428 37.3627 39.8423C37.3627 39.4115 37.4456 39.0568 37.6113 38.7784C37.777 38.5 38.0008 38.2796 38.2825 38.1172C38.5642 37.9548 38.8791 37.8321 39.2271 37.7493C39.5751 37.6664 39.9297 37.6035 40.291 37.5604C40.7484 37.5073 41.1196 37.4643 41.4046 37.4311C41.6897 37.3946 41.8968 37.3366 42.0261 37.2571C42.1554 37.1776 42.22 37.0483 42.22 36.8693V36.8345C42.22 36.4003 42.0974 36.0639 41.8521 35.8253C41.6101 35.5866 41.2489 35.4673 40.7683 35.4673C40.2678 35.4673 39.8734 35.5784 39.585 35.8004C39.3 36.0192 39.1028 36.2628 38.9934 36.5312L37.5964 36.2131C37.7621 35.7491 38.0041 35.3745 38.3223 35.0895C38.6438 34.8011 39.0133 34.5923 39.4309 34.4631C39.8485 34.3305 40.2877 34.2642 40.7484 34.2642C41.0533 34.2642 41.3765 34.3007 41.7179 34.3736C42.0626 34.4432 42.384 34.5724 42.6823 34.7614C42.984 34.9503 43.2309 35.2204 43.4231 35.5717C43.6153 35.9197 43.7115 36.3722 43.7115 36.929V42H42.2598V40.956H42.2001C42.104 41.1482 41.9598 41.3371 41.7676 41.5227C41.5753 41.7083 41.3284 41.8625 41.0268 41.9851C40.7252 42.1077 40.3639 42.169 39.943 42.169ZM40.2662 40.9759C40.6771 40.9759 41.0285 40.8946 41.3201 40.7322C41.6151 40.5698 41.8388 40.3577 41.9913 40.0959C42.1471 39.8307 42.225 39.5473 42.225 39.2457V38.2614C42.1719 38.3144 42.0692 38.3641 41.9167 38.4105C41.7676 38.4536 41.5969 38.4917 41.4046 38.5249C41.2124 38.5547 41.0251 38.5829 40.8429 38.6094C40.6606 38.6326 40.5081 38.6525 40.3855 38.669C40.0971 38.7055 39.8336 38.7668 39.595 38.853C39.3597 38.9392 39.1707 39.0634 39.0282 39.2259C38.889 39.3849 38.8194 39.5971 38.8194 39.8622C38.8194 40.2301 38.9553 40.5085 39.2271 40.6974C39.4989 40.883 39.8452 40.9759 40.2662 40.9759ZM47.3179 37.4659V42H45.8314V34.3636H47.2582V35.6065H47.3527C47.5284 35.2022 47.8035 34.8774 48.178 34.6321C48.5558 34.3868 49.0314 34.2642 49.6048 34.2642C50.1252 34.2642 50.5809 34.3736 50.972 34.5923C51.3631 34.8078 51.6664 35.1293 51.8818 35.5568C52.0973 35.9844 52.205 36.513 52.205 37.1428V42H50.7185V37.3217C50.7185 36.7682 50.5743 36.3357 50.2859 36.0241C49.9976 35.7093 49.6015 35.5518 49.0977 35.5518C48.753 35.5518 48.4465 35.6264 48.178 35.7756C47.9128 35.9247 47.7024 36.1435 47.5466 36.4318C47.3941 36.7169 47.3179 37.0616 47.3179 37.4659Z" fill="#AEAEB2"/>
<path d="M34.9858 59.5653C34.9176 58.8778 34.625 58.3437 34.108 57.9631C33.5909 57.5824 32.8892 57.392 32.0028 57.392C31.4006 57.392 30.892 57.4773 30.4773 57.6477C30.0625 57.8125 29.7443 58.0426 29.5227 58.3381C29.3068 58.6335 29.1989 58.9688 29.1989 59.3438C29.1875 59.6562 29.2528 59.929 29.3949 60.1619C29.5426 60.3949 29.7443 60.5966 30 60.767C30.2557 60.9318 30.5511 61.0767 30.8864 61.2017C31.2216 61.321 31.5795 61.4233 31.9602 61.5085L33.5284 61.8835C34.2898 62.054 34.9886 62.2812 35.625 62.5653C36.2614 62.8494 36.8125 63.1989 37.2784 63.6136C37.7443 64.0284 38.1051 64.517 38.3608 65.0795C38.6222 65.642 38.7557 66.2869 38.7614 67.0142C38.7557 68.0824 38.483 69.0085 37.9432 69.7926C37.4091 70.571 36.6364 71.1761 35.625 71.608C34.6193 72.0341 33.4063 72.2472 31.9858 72.2472C30.5767 72.2472 29.3494 72.0312 28.304 71.5994C27.2642 71.1676 26.4517 70.5284 25.8665 69.6818C25.2869 68.8295 24.983 67.7756 24.9545 66.5199H28.5256C28.5653 67.1051 28.733 67.5937 29.0284 67.9858C29.3295 68.3722 29.7301 68.6648 30.2301 68.8636C30.7358 69.0568 31.3068 69.1534 31.9432 69.1534C32.5682 69.1534 33.1108 69.0625 33.571 68.8807C34.0369 68.6989 34.3977 68.446 34.6534 68.1222C34.9091 67.7983 35.0369 67.4261 35.0369 67.0057C35.0369 66.6136 34.9205 66.2841 34.6875 66.017C34.4602 65.75 34.125 65.5227 33.6818 65.3352C33.2443 65.1477 32.7074 64.9773 32.071 64.8239L30.1705 64.3466C28.6989 63.9886 27.5369 63.429 26.6847 62.6676C25.8324 61.9062 25.4091 60.8807 25.4148 59.5909C25.4091 58.5341 25.6903 57.6108 26.2585 56.821C26.8324 56.0312 27.6193 55.4148 28.6193 54.9716C29.6193 54.5284 30.7557 54.3068 32.0284 54.3068C33.3239 54.3068 34.4545 54.5284 35.4205 54.9716C36.392 55.4148 37.1477 56.0312 37.6875 56.821C38.2273 57.6108 38.5057 58.5256 38.5227 59.5653H34.9858ZM47.0902 72.2557C45.7493 72.2557 44.5959 71.9716 43.63 71.4034C42.6697 70.8295 41.9311 70.0341 41.4141 69.017C40.9027 68 40.647 66.8295 40.647 65.5057C40.647 64.1648 40.9055 62.9886 41.4226 61.9773C41.9453 60.9602 42.6868 60.1676 43.647 59.5994C44.6072 59.0256 45.7493 58.7386 47.0732 58.7386C48.2152 58.7386 49.2152 58.946 50.0732 59.3608C50.9311 59.7756 51.6101 60.358 52.1101 61.108C52.6101 61.858 52.8857 62.7386 52.9368 63.75H49.5107C49.4141 63.0966 49.1584 62.571 48.7436 62.1733C48.3345 61.7699 47.7976 61.5682 47.1328 61.5682C46.5703 61.5682 46.0788 61.7216 45.6584 62.0284C45.2436 62.3295 44.9197 62.7699 44.6868 63.3494C44.4538 63.929 44.3374 64.6307 44.3374 65.4545C44.3374 66.2898 44.451 67 44.6783 67.5852C44.9112 68.1705 45.2379 68.6165 45.6584 68.9233C46.0788 69.2301 46.5703 69.3835 47.1328 69.3835C47.5476 69.3835 47.9197 69.2983 48.2493 69.1278C48.5845 68.9574 48.8601 68.7102 49.076 68.3864C49.2976 68.0568 49.4425 67.6619 49.5107 67.2017H52.9368C52.88 68.2017 52.6072 69.0824 52.1186 69.8438C51.6357 70.5994 50.968 71.1903 50.1158 71.6165C49.2635 72.0426 48.255 72.2557 47.0902 72.2557ZM58.9943 72.2472C58.1591 72.2472 57.4148 72.1023 56.7614 71.8125C56.108 71.517 55.5909 71.0824 55.2102 70.5085C54.8352 69.929 54.6477 69.2074 54.6477 68.3438C54.6477 67.6165 54.7813 67.0057 55.0483 66.5114C55.3153 66.017 55.679 65.6193 56.1392 65.3182C56.5994 65.017 57.1222 64.7898 57.7074 64.6364C58.2983 64.483 58.9176 64.375 59.5653 64.3125C60.3267 64.233 60.9403 64.1591 61.4062 64.0909C61.8722 64.017 62.2102 63.9091 62.4205 63.767C62.6307 63.625 62.7358 63.4148 62.7358 63.1364V63.0852C62.7358 62.5455 62.5653 62.1278 62.2244 61.8324C61.8892 61.5369 61.4119 61.3892 60.7926 61.3892C60.1392 61.3892 59.6193 61.5341 59.233 61.8239C58.8466 62.108 58.5909 62.4659 58.4659 62.8977L55.108 62.625C55.2784 61.8295 55.6136 61.142 56.1136 60.5625C56.6136 59.9773 57.2585 59.5284 58.0483 59.2159C58.8438 58.8977 59.7642 58.7386 60.8097 58.7386C61.5369 58.7386 62.233 58.8239 62.8977 58.9943C63.5682 59.1648 64.1619 59.429 64.679 59.7869C65.2017 60.1449 65.6136 60.6051 65.9148 61.1676C66.2159 61.7244 66.3665 62.392 66.3665 63.1705V72H62.9233V70.1847H62.821C62.6108 70.5938 62.3295 70.9545 61.9773 71.267C61.625 71.5739 61.2017 71.8153 60.7074 71.9915C60.2131 72.1619 59.642 72.2472 58.9943 72.2472ZM60.0341 69.7415C60.5682 69.7415 61.0398 69.6364 61.4489 69.4261C61.858 69.2102 62.179 68.9205 62.4119 68.5568C62.6449 68.1932 62.7614 67.7812 62.7614 67.321V65.9318C62.6477 66.0057 62.4915 66.0739 62.2926 66.1364C62.0994 66.1932 61.8807 66.2472 61.6364 66.2983C61.392 66.3437 61.1477 66.3864 60.9034 66.4261C60.6591 66.4602 60.4375 66.4915 60.2386 66.5199C59.8125 66.5824 59.4403 66.6818 59.1222 66.8182C58.804 66.9545 58.5568 67.1392 58.3807 67.3722C58.2045 67.5994 58.1165 67.8835 58.1165 68.2244C58.1165 68.7188 58.2955 69.0966 58.6534 69.358C59.017 69.6136 59.4773 69.7415 60.0341 69.7415ZM72.8139 54.5455V72H69.1832V54.5455H72.8139ZM81.6882 72.2557C80.3416 72.2557 79.1825 71.983 78.2109 71.4375C77.245 70.8864 76.5007 70.108 75.978 69.1023C75.4553 68.0909 75.1939 66.8949 75.1939 65.5142C75.1939 64.1676 75.4553 62.9858 75.978 61.9688C76.5007 60.9517 77.2365 60.1591 78.1854 59.5909C79.1399 59.0227 80.2592 58.7386 81.5433 58.7386C82.407 58.7386 83.2109 58.8778 83.9553 59.1562C84.7053 59.429 85.3587 59.8409 85.9155 60.392C86.478 60.9432 86.9155 61.6364 87.228 62.4716C87.5405 63.3011 87.6967 64.2727 87.6967 65.3864V66.3835H76.6428V64.1335H84.2791C84.2791 63.6108 84.1655 63.1477 83.9382 62.7443C83.7109 62.3409 83.3956 62.0256 82.9922 61.7983C82.5945 61.5653 82.1314 61.4489 81.603 61.4489C81.0518 61.4489 80.5632 61.5767 80.1371 61.8324C79.7166 62.0824 79.3871 62.4205 79.1484 62.8466C78.9098 63.267 78.7876 63.7358 78.782 64.2528V66.392C78.782 67.0398 78.9013 67.5994 79.1399 68.071C79.3842 68.5426 79.728 68.9062 80.1712 69.1619C80.6143 69.4176 81.1399 69.5455 81.7479 69.5455C82.1513 69.5455 82.5206 69.4886 82.8558 69.375C83.1911 69.2614 83.478 69.0909 83.7166 68.8636C83.9553 68.6364 84.1371 68.358 84.2621 68.0284L87.62 68.25C87.4496 69.0568 87.1001 69.7614 86.5717 70.3636C86.049 70.9602 85.3729 71.4261 84.5433 71.7614C83.7195 72.0909 82.7678 72.2557 81.6882 72.2557Z" fill="#1E1E1F"/>
<rect x="24" y="95" width="71" height="24" rx="12" fill="#EDEEF0"/>
<path d="M36.716 111V109.284H32.492V108.348L36.524 102.6H37.904V108.24H39.104V109.284H37.904V111H36.716ZM33.8 108.24H36.776V103.92L33.8 108.24ZM43.6883 111.144C42.9603 111.144 42.3323 110.964 41.8043 110.604C41.2843 110.236 40.8843 109.728 40.6043 109.08C40.3243 108.424 40.1843 107.664 40.1843 106.8C40.1843 105.936 40.3243 105.18 40.6043 104.532C40.8843 103.876 41.2843 103.368 41.8043 103.008C42.3323 102.64 42.9603 102.456 43.6883 102.456C44.4243 102.456 45.0483 102.64 45.5603 103.008C46.0803 103.368 46.4803 103.876 46.7603 104.532C47.0483 105.18 47.1923 105.936 47.1923 106.8C47.1923 107.664 47.0483 108.424 46.7603 109.08C46.4803 109.728 46.0803 110.236 45.5603 110.604C45.0483 110.964 44.4243 111.144 43.6883 111.144ZM43.6883 110.076C44.1283 110.076 44.5163 109.944 44.8523 109.68C45.1963 109.416 45.4643 109.04 45.6563 108.552C45.8563 108.064 45.9563 107.48 45.9563 106.8C45.9563 106.112 45.8563 105.528 45.6563 105.048C45.4643 104.56 45.1963 104.188 44.8523 103.932C44.5163 103.668 44.1283 103.536 43.6883 103.536C43.2483 103.536 42.8563 103.668 42.5123 103.932C42.1683 104.188 41.8963 104.56 41.6963 105.048C41.5043 105.528 41.4083 106.112 41.4083 106.8C41.4083 107.48 41.5043 108.064 41.6963 108.552C41.8963 109.04 42.1683 109.416 42.5123 109.68C42.8563 109.944 43.2483 110.076 43.6883 110.076ZM51.9528 111.144C51.2248 111.144 50.5968 110.964 50.0688 110.604C49.5488 110.236 49.1488 109.728 48.8688 109.08C48.5888 108.424 48.4488 107.664 48.4488 106.8C48.4488 105.936 48.5888 105.18 48.8688 104.532C49.1488 103.876 49.5488 103.368 50.0688 103.008C50.5968 102.64 51.2248 102.456 51.9528 102.456C52.6888 102.456 53.3128 102.64 53.8248 103.008C54.3448 103.368 54.7448 103.876 55.0248 104.532C55.3128 105.18 55.4568 105.936 55.4568 106.8C55.4568 107.664 55.3128 108.424 55.0248 109.08C54.7448 109.728 54.3448 110.236 53.8248 110.604C53.3128 110.964 52.6888 111.144 51.9528 111.144ZM51.9528 110.076C52.3928 110.076 52.7808 109.944 53.1168 109.68C53.4608 109.416 53.7288 109.04 53.9208 108.552C54.1208 108.064 54.2208 107.48 54.2208 106.8C54.2208 106.112 54.1208 105.528 53.9208 105.048C53.7288 104.56 53.4608 104.188 53.1168 103.932C52.7808 103.668 52.3928 103.536 51.9528 103.536C51.5128 103.536 51.1208 103.668 50.7768 103.932C50.4328 104.188 50.1608 104.56 49.9608 105.048C49.7688 105.528 49.6728 106.112 49.6728 106.8C49.6728 107.48 49.7688 108.064 49.9608 108.552C50.1608 109.04 50.4328 109.416 50.7768 109.68C51.1208 109.944 51.5128 110.076 51.9528 110.076ZM57.0253 111V102.6H58.4413L61.2373 108.288L64.0213 102.6H65.4373V111H64.2373V104.712L61.6933 109.848H60.7693L58.2253 104.736V111H57.0253ZM74.2024 111.144C73.3864 111.144 72.6824 110.964 72.0904 110.604C71.4984 110.236 71.0424 109.728 70.7224 109.08C70.4024 108.424 70.2424 107.664 70.2424 106.8C70.2424 105.944 70.4024 105.188 70.7224 104.532C71.0424 103.876 71.4984 103.368 72.0904 103.008C72.6824 102.64 73.3864 102.456 74.2024 102.456C75.1784 102.456 75.9704 102.692 76.5784 103.164C77.1864 103.636 77.5744 104.3 77.7424 105.156H76.4344C76.3064 104.66 76.0584 104.264 75.6904 103.968C75.3224 103.672 74.8224 103.524 74.1904 103.524C73.6384 103.524 73.1544 103.656 72.7384 103.92C72.3304 104.184 72.0144 104.56 71.7904 105.048C71.5744 105.536 71.4664 106.12 71.4664 106.8C71.4664 107.48 71.5744 108.068 71.7904 108.564C72.0144 109.052 72.3304 109.428 72.7384 109.692C73.1544 109.948 73.6384 110.076 74.1904 110.076C74.8224 110.076 75.3224 109.936 75.6904 109.656C76.0584 109.368 76.3064 108.98 76.4344 108.492H77.7424C77.5744 109.324 77.1864 109.976 76.5784 110.448C75.9704 110.912 75.1784 111.144 74.2024 111.144ZM82.4068 111.144C81.8148 111.144 81.2788 111.028 80.7988 110.796C80.3188 110.556 79.9348 110.196 79.6468 109.716C79.3668 109.228 79.2268 108.608 79.2268 107.856V102.6H80.4268V107.868C80.4268 108.372 80.5108 108.788 80.6788 109.116C80.8468 109.436 81.0788 109.676 81.3748 109.836C81.6788 109.988 82.0308 110.064 82.4308 110.064C82.8388 110.064 83.1868 109.988 83.4748 109.836C83.7708 109.676 83.9988 109.436 84.1588 109.116C84.3268 108.788 84.4108 108.372 84.4108 107.868V102.6H85.6108V107.856C85.6108 108.608 85.4668 109.228 85.1788 109.716C84.8908 110.196 84.5028 110.556 84.0148 110.796C83.5348 111.028 82.9988 111.144 82.4068 111.144Z" fill="#1E1E1F"/>
<rect x="102" y="95" width="66" height="24" rx="12" fill="#EDEEF0"/>
<path d="M114.716 111V109.284H110.492V108.348L114.524 102.6H115.904V108.24H117.104V109.284H115.904V111H114.716ZM111.8 108.24H114.776V103.92L111.8 108.24ZM121.688 111.144C120.96 111.144 120.332 110.964 119.804 110.604C119.284 110.236 118.884 109.728 118.604 109.08C118.324 108.424 118.184 107.664 118.184 106.8C118.184 105.936 118.324 105.18 118.604 104.532C118.884 103.876 119.284 103.368 119.804 103.008C120.332 102.64 120.96 102.456 121.688 102.456C122.424 102.456 123.048 102.64 123.56 103.008C124.08 103.368 124.48 103.876 124.76 104.532C125.048 105.18 125.192 105.936 125.192 106.8C125.192 107.664 125.048 108.424 124.76 109.08C124.48 109.728 124.08 110.236 123.56 110.604C123.048 110.964 122.424 111.144 121.688 111.144ZM121.688 110.076C122.128 110.076 122.516 109.944 122.852 109.68C123.196 109.416 123.464 109.04 123.656 108.552C123.856 108.064 123.956 107.48 123.956 106.8C123.956 106.112 123.856 105.528 123.656 105.048C123.464 104.56 123.196 104.188 122.852 103.932C122.516 103.668 122.128 103.536 121.688 103.536C121.248 103.536 120.856 103.668 120.512 103.932C120.168 104.188 119.896 104.56 119.696 105.048C119.504 105.528 119.408 106.112 119.408 106.8C119.408 107.48 119.504 108.064 119.696 108.552C119.896 109.04 120.168 109.416 120.512 109.68C120.856 109.944 121.248 110.076 121.688 110.076ZM129.953 111.144C129.225 111.144 128.597 110.964 128.069 110.604C127.549 110.236 127.149 109.728 126.869 109.08C126.589 108.424 126.449 107.664 126.449 106.8C126.449 105.936 126.589 105.18 126.869 104.532C127.149 103.876 127.549 103.368 128.069 103.008C128.597 102.64 129.225 102.456 129.953 102.456C130.689 102.456 131.313 102.64 131.825 103.008C132.345 103.368 132.745 103.876 133.025 104.532C133.313 105.18 133.457 105.936 133.457 106.8C133.457 107.664 133.313 108.424 133.025 109.08C132.745 109.728 132.345 110.236 131.825 110.604C131.313 110.964 130.689 111.144 129.953 111.144ZM129.953 110.076C130.393 110.076 130.781 109.944 131.117 109.68C131.461 109.416 131.729 109.04 131.921 108.552C132.121 108.064 132.221 107.48 132.221 106.8C132.221 106.112 132.121 105.528 131.921 105.048C131.729 104.56 131.461 104.188 131.117 103.932C130.781 103.668 130.393 103.536 129.953 103.536C129.513 103.536 129.121 103.668 128.777 103.932C128.433 104.188 128.161 104.56 127.961 105.048C127.769 105.528 127.673 106.112 127.673 106.8C127.673 107.48 127.769 108.064 127.961 108.552C128.161 109.04 128.433 109.416 128.777 109.68C129.121 109.944 129.513 110.076 129.953 110.076ZM138.239 111V102.6H141.083C141.747 102.6 142.291 102.712 142.715 102.936C143.139 103.16 143.451 103.46 143.651 103.836C143.859 104.204 143.963 104.624 143.963 105.096C143.963 105.544 143.859 105.96 143.651 106.344C143.451 106.72 143.135 107.024 142.703 107.256C142.271 107.48 141.719 107.592 141.047 107.592H139.439V111H138.239ZM142.655 111L140.843 107.268H142.163L144.047 111H142.655ZM139.439 106.68H141.011C141.603 106.68 142.035 106.536 142.307 106.248C142.587 105.952 142.727 105.576 142.727 105.12C142.727 104.656 142.591 104.288 142.319 104.016C142.047 103.744 141.607 103.608 140.999 103.608H139.439V106.68ZM145.66 111V102.6H148.516C149.188 102.6 149.74 102.712 150.172 102.936C150.612 103.16 150.936 103.464 151.144 103.848C151.352 104.224 151.456 104.656 151.456 105.144C151.456 105.608 151.352 106.032 151.144 106.416C150.936 106.8 150.616 107.108 150.184 107.34C149.752 107.564 149.196 107.676 148.516 107.676H146.86V111H145.66ZM146.86 106.68H148.468C149.108 106.68 149.56 106.54 149.824 106.26C150.096 105.98 150.232 105.608 150.232 105.144C150.232 104.656 150.096 104.276 149.824 104.004C149.56 103.732 149.108 103.596 148.468 103.596H146.86V106.68ZM155.641 111.144C155.033 111.144 154.497 111.036 154.033 110.82C153.569 110.596 153.209 110.284 152.953 109.884C152.697 109.484 152.565 109.016 152.557 108.48H153.829C153.829 108.784 153.897 109.064 154.033 109.32C154.177 109.568 154.381 109.768 154.645 109.92C154.917 110.064 155.249 110.136 155.641 110.136C155.977 110.136 156.265 110.08 156.505 109.968C156.753 109.856 156.941 109.704 157.069 109.512C157.197 109.312 157.261 109.084 157.261 108.828C157.261 108.54 157.197 108.304 157.069 108.12C156.941 107.928 156.761 107.768 156.529 107.64C156.305 107.512 156.045 107.4 155.749 107.304C155.461 107.208 155.149 107.104 154.813 106.992C154.133 106.768 153.629 106.484 153.301 106.14C152.981 105.796 152.821 105.348 152.821 104.796C152.821 104.324 152.929 103.916 153.145 103.572C153.369 103.22 153.685 102.948 154.093 102.756C154.501 102.556 154.977 102.456 155.521 102.456C156.073 102.456 156.549 102.556 156.949 102.756C157.357 102.956 157.677 103.232 157.909 103.584C158.141 103.936 158.261 104.348 158.269 104.82H156.997C156.997 104.604 156.937 104.392 156.817 104.184C156.705 103.976 156.537 103.808 156.313 103.68C156.097 103.544 155.825 103.476 155.497 103.476C155.217 103.468 154.969 103.512 154.753 103.608C154.537 103.704 154.369 103.844 154.249 104.028C154.129 104.212 154.069 104.432 154.069 104.688C154.069 104.944 154.125 105.152 154.237 105.312C154.349 105.464 154.505 105.596 154.705 105.708C154.913 105.82 155.157 105.924 155.437 106.02C155.717 106.108 156.025 106.208 156.361 106.32C156.769 106.456 157.137 106.624 157.465 106.824C157.793 107.016 158.049 107.268 158.233 107.58C158.425 107.884 158.521 108.276 158.521 108.756C158.521 109.172 158.413 109.56 158.197 109.92C157.981 110.28 157.661 110.576 157.237 110.808C156.813 111.032 156.281 111.144 155.641 111.144Z" fill="#1E1E1F"/>
<path d="M212.423 101.818H214.267V108.47C214.267 109.199 214.095 109.841 213.75 110.394C213.409 110.948 212.928 111.38 212.308 111.692C211.688 112 210.964 112.154 210.136 112.154C209.304 112.154 208.578 112 207.958 111.692C207.338 111.38 206.858 110.948 206.516 110.394C206.175 109.841 206.004 109.199 206.004 108.47V101.818H207.849V108.316C207.849 108.74 207.942 109.118 208.127 109.45C208.316 109.781 208.581 110.041 208.923 110.23C209.264 110.416 209.668 110.509 210.136 110.509C210.603 110.509 211.007 110.416 211.349 110.23C211.693 110.041 211.959 109.781 212.144 109.45C212.33 109.118 212.423 108.74 212.423 108.316V101.818ZM218.132 107.526V112H216.332V104.364H218.052V105.661H218.142C218.318 105.234 218.598 104.894 218.982 104.642C219.37 104.39 219.849 104.264 220.419 104.264C220.946 104.264 221.405 104.377 221.796 104.602C222.19 104.828 222.495 105.154 222.711 105.582C222.93 106.009 223.037 106.528 223.034 107.138V112H221.234V107.416C221.234 106.906 221.102 106.506 220.837 106.218C220.575 105.93 220.212 105.786 219.748 105.786C219.433 105.786 219.153 105.855 218.908 105.994C218.666 106.13 218.475 106.327 218.336 106.586C218.2 106.844 218.132 107.158 218.132 107.526ZM228.817 104.364V105.756H224.427V104.364H228.817ZM225.511 102.534H227.31V109.703C227.31 109.945 227.347 110.131 227.42 110.26C227.496 110.386 227.595 110.472 227.718 110.518C227.841 110.565 227.977 110.588 228.126 110.588C228.238 110.588 228.341 110.58 228.434 110.563C228.53 110.547 228.603 110.532 228.653 110.518L228.956 111.925C228.86 111.959 228.722 111.995 228.543 112.035C228.368 112.075 228.152 112.098 227.897 112.104C227.446 112.118 227.04 112.05 226.679 111.901C226.318 111.748 226.031 111.513 225.819 111.195C225.61 110.876 225.507 110.479 225.511 110.001V102.534ZM230.462 112V104.364H232.262V112H230.462ZM231.367 103.28C231.082 103.28 230.836 103.185 230.631 102.996C230.425 102.804 230.323 102.574 230.323 102.305C230.323 102.034 230.425 101.803 230.631 101.614C230.836 101.422 231.082 101.326 231.367 101.326C231.655 101.326 231.9 101.422 232.103 101.614C232.308 101.803 232.411 102.034 232.411 102.305C232.411 102.574 232.308 102.804 232.103 102.996C231.9 103.185 231.655 103.28 231.367 103.28ZM236.052 101.818V112H234.252V101.818H236.052ZM250.102 101.818V112H248.461L243.664 105.065H243.579V112H241.735V101.818H243.385L248.178 108.759H248.268V101.818H250.102ZM255.503 112.149C254.758 112.149 254.111 111.985 253.564 111.657C253.017 111.329 252.593 110.87 252.292 110.28C251.993 109.69 251.844 109 251.844 108.212C251.844 107.423 251.993 106.732 252.292 106.138C252.593 105.545 253.017 105.085 253.564 104.756C254.111 104.428 254.758 104.264 255.503 104.264C256.249 104.264 256.895 104.428 257.442 104.756C257.989 105.085 258.412 105.545 258.71 106.138C259.012 106.732 259.162 107.423 259.162 108.212C259.162 109 259.012 109.69 258.71 110.28C258.412 110.87 257.989 111.329 257.442 111.657C256.895 111.985 256.249 112.149 255.503 112.149ZM255.513 110.707C255.918 110.707 256.256 110.596 256.527 110.374C256.799 110.149 257.001 109.847 257.134 109.469C257.27 109.092 257.338 108.671 257.338 108.207C257.338 107.739 257.27 107.317 257.134 106.939C257.001 106.558 256.799 106.254 256.527 106.029C256.256 105.804 255.918 105.691 255.513 105.691C255.099 105.691 254.754 105.804 254.479 106.029C254.207 106.254 254.003 106.558 253.868 106.939C253.735 107.317 253.669 107.739 253.669 108.207C253.669 108.671 253.735 109.092 253.868 109.469C254.003 109.847 254.207 110.149 254.479 110.374C254.754 110.596 255.099 110.707 255.513 110.707ZM267.391 104.364L264.672 112H262.683L259.964 104.364H261.883L263.638 110.036H263.717L265.477 104.364H267.391ZM276.511 101.818V112H274.666V103.613H274.607L272.225 105.134V103.444L274.756 101.818H276.511ZM282.999 112.194C282.181 112.194 281.478 111.987 280.891 111.572C280.308 111.155 279.859 110.553 279.544 109.768C279.233 108.979 279.077 108.029 279.077 106.919C279.08 105.809 279.238 104.864 279.549 104.085C279.864 103.303 280.313 102.706 280.896 102.295C281.483 101.884 282.184 101.679 282.999 101.679C283.815 101.679 284.516 101.884 285.102 102.295C285.689 102.706 286.138 103.303 286.45 104.085C286.764 104.867 286.922 105.812 286.922 106.919C286.922 108.033 286.764 108.984 286.45 109.773C286.138 110.558 285.689 111.158 285.102 111.572C284.519 111.987 283.818 112.194 282.999 112.194ZM282.999 110.638C283.636 110.638 284.138 110.325 284.506 109.698C284.877 109.068 285.063 108.142 285.063 106.919C285.063 106.11 284.978 105.431 284.809 104.881C284.64 104.33 284.401 103.916 284.093 103.638C283.785 103.356 283.42 103.215 282.999 103.215C282.366 103.215 281.866 103.53 281.498 104.16C281.13 104.786 280.944 105.706 280.941 106.919C280.938 107.731 281.019 108.414 281.185 108.967C281.354 109.521 281.592 109.938 281.901 110.22C282.209 110.499 282.575 110.638 282.999 110.638Z" fill="#0B57D0"/>
<rect x="328.5" y="0.5" width="315" height="145" rx="23.5" fill="white"/>
<rect x="328.5" y="0.5" width="315" height="145" rx="23.5" stroke="#EDEDF0"/>
<path d="M361.575 32.1293H360.024C359.964 31.7978 359.853 31.5062 359.691 31.2543C359.529 31.0024 359.33 30.7886 359.094 30.6129C358.859 30.4373 358.596 30.3047 358.304 30.2152C358.016 30.1257 357.709 30.081 357.384 30.081C356.798 30.081 356.272 30.2285 355.808 30.5234C355.348 30.8184 354.983 31.2509 354.714 31.821C354.449 32.3911 354.317 33.0871 354.317 33.9091C354.317 34.7377 354.449 35.437 354.714 36.0071C354.983 36.5772 355.349 37.008 355.813 37.2997C356.277 37.5914 356.799 37.7372 357.379 37.7372C357.701 37.7372 358.006 37.6941 358.294 37.608C358.586 37.5185 358.849 37.3875 359.085 37.2152C359.32 37.0429 359.519 36.8324 359.681 36.5838C359.847 36.3319 359.961 36.0436 360.024 35.7188L361.575 35.7237C361.492 36.2242 361.332 36.6849 361.093 37.1058C360.858 37.5234 360.554 37.8847 360.183 38.1896C359.815 38.4912 359.394 38.7249 358.92 38.8906C358.446 39.0563 357.929 39.1392 357.369 39.1392C356.488 39.1392 355.702 38.9304 355.013 38.5128C354.323 38.0919 353.78 37.4903 353.382 36.7081C352.988 35.9259 352.79 34.9929 352.79 33.9091C352.79 32.822 352.989 31.889 353.387 31.1101C353.785 30.3279 354.328 29.728 355.018 29.3104C355.707 28.8894 356.491 28.679 357.369 28.679C357.91 28.679 358.413 28.7569 358.881 28.9126C359.351 29.0651 359.774 29.2905 360.148 29.5888C360.523 29.8838 360.833 30.245 361.078 30.6726C361.323 31.0968 361.489 31.5824 361.575 32.1293ZM370.101 28.8182H371.642V35.5149C371.642 36.2275 371.475 36.8589 371.14 37.4091C370.805 37.956 370.335 38.3868 369.728 38.7017C369.122 39.0133 368.411 39.169 367.595 39.169C366.783 39.169 366.074 39.0133 365.468 38.7017C364.861 38.3868 364.39 37.956 364.056 37.4091C363.721 36.8589 363.554 36.2275 363.554 35.5149V28.8182H365.09V35.3906C365.09 35.8513 365.191 36.2607 365.393 36.6186C365.599 36.9766 365.889 37.2583 366.263 37.4638C366.638 37.666 367.082 37.767 367.595 37.767C368.112 37.767 368.558 37.666 368.933 37.4638C369.311 37.2583 369.599 36.9766 369.798 36.6186C370 36.2607 370.101 35.8513 370.101 35.3906V28.8182ZM377.861 39V28.8182H379.347V32.6016H379.437C379.523 32.4425 379.647 32.2585 379.81 32.0497C379.972 31.8409 380.198 31.6586 380.486 31.5028C380.774 31.3438 381.155 31.2642 381.629 31.2642C382.246 31.2642 382.796 31.42 383.28 31.7315C383.764 32.0431 384.143 32.4922 384.418 33.0788C384.697 33.6655 384.836 34.3714 384.836 35.1967C384.836 36.022 384.698 36.7296 384.423 37.3196C384.148 37.9062 383.77 38.3587 383.29 38.6768C382.809 38.9917 382.261 39.1491 381.644 39.1491C381.18 39.1491 380.801 39.0713 380.506 38.9155C380.214 38.7597 379.985 38.5774 379.82 38.3686C379.654 38.1598 379.526 37.9742 379.437 37.8118H379.313V39H377.861ZM379.318 35.1818C379.318 35.7187 379.395 36.1894 379.551 36.5938C379.707 36.9981 379.932 37.3146 380.227 37.5433C380.522 37.7687 380.884 37.8814 381.311 37.8814C381.755 37.8814 382.126 37.7637 382.425 37.5284C382.723 37.2898 382.948 36.9666 383.101 36.5589C383.257 36.1513 383.335 35.6922 383.335 35.1818C383.335 34.678 383.258 34.2256 383.106 33.8246C382.957 33.4235 382.731 33.107 382.43 32.875C382.131 32.643 381.759 32.527 381.311 32.527C380.88 32.527 380.516 32.638 380.217 32.8601C379.922 33.0821 379.699 33.392 379.546 33.7898C379.394 34.1875 379.318 34.6515 379.318 35.1818ZM388.868 39.169C388.384 39.169 387.946 39.0795 387.555 38.9006C387.164 38.7183 386.854 38.4548 386.625 38.1101C386.4 37.7654 386.287 37.3428 386.287 36.8423C386.287 36.4115 386.37 36.0568 386.536 35.7784C386.702 35.5 386.925 35.2796 387.207 35.1172C387.489 34.9548 387.804 34.8321 388.152 34.7493C388.5 34.6664 388.854 34.6035 389.216 34.5604C389.673 34.5073 390.044 34.4643 390.329 34.4311C390.614 34.3946 390.821 34.3366 390.951 34.2571C391.08 34.1776 391.145 34.0483 391.145 33.8693V33.8345C391.145 33.4003 391.022 33.0639 390.777 32.8253C390.535 32.5866 390.173 32.4673 389.693 32.4673C389.192 32.4673 388.798 32.5784 388.51 32.8004C388.225 33.0192 388.027 33.2628 387.918 33.5312L386.521 33.2131C386.687 32.7491 386.929 32.3745 387.247 32.0895C387.568 31.8011 387.938 31.5923 388.355 31.4631C388.773 31.3305 389.212 31.2642 389.673 31.2642C389.978 31.2642 390.301 31.3007 390.642 31.3736C390.987 31.4432 391.309 31.5724 391.607 31.7614C391.908 31.9503 392.155 32.2204 392.348 32.5717C392.54 32.9197 392.636 33.3722 392.636 33.929V39H391.184V37.956H391.125C391.029 38.1482 390.884 38.3371 390.692 38.5227C390.5 38.7083 390.253 38.8625 389.951 38.9851C389.65 39.1077 389.288 39.169 388.868 39.169ZM389.191 37.9759C389.602 37.9759 389.953 37.8946 390.245 37.7322C390.54 37.5698 390.763 37.3577 390.916 37.0959C391.072 36.8307 391.149 36.5473 391.149 36.2457V35.2614C391.096 35.3144 390.994 35.3641 390.841 35.4105C390.692 35.4536 390.521 35.4917 390.329 35.5249C390.137 35.5547 389.95 35.5829 389.767 35.6094C389.585 35.6326 389.433 35.6525 389.31 35.669C389.022 35.7055 388.758 35.7668 388.52 35.853C388.284 35.9392 388.095 36.0634 387.953 36.2259C387.814 36.3849 387.744 36.5971 387.744 36.8622C387.744 37.2301 387.88 37.5085 388.152 37.6974C388.423 37.883 388.77 37.9759 389.191 37.9759ZM396.242 28.8182V39H394.756V28.8182H396.242ZM400.605 39.169C400.121 39.169 399.683 39.0795 399.292 38.9006C398.901 38.7183 398.591 38.4548 398.362 38.1101C398.137 37.7654 398.024 37.3428 398.024 36.8423C398.024 36.4115 398.107 36.0568 398.273 35.7784C398.439 35.5 398.662 35.2796 398.944 35.1172C399.226 34.9548 399.541 34.8321 399.889 34.7493C400.237 34.6664 400.591 34.6035 400.953 34.5604C401.41 34.5073 401.781 34.4643 402.066 34.4311C402.351 34.3946 402.558 34.3366 402.688 34.2571C402.817 34.1776 402.882 34.0483 402.882 33.8693V33.8345C402.882 33.4003 402.759 33.0639 402.514 32.8253C402.272 32.5866 401.91 32.4673 401.43 32.4673C400.929 32.4673 400.535 32.5784 400.247 32.8004C399.962 33.0192 399.764 33.2628 399.655 33.5312L398.258 33.2131C398.424 32.7491 398.666 32.3745 398.984 32.0895C399.305 31.8011 399.675 31.5923 400.092 31.4631C400.51 31.3305 400.949 31.2642 401.41 31.2642C401.715 31.2642 402.038 31.3007 402.379 31.3736C402.724 31.4432 403.046 31.5724 403.344 31.7614C403.646 31.9503 403.892 32.2204 404.085 32.5717C404.277 32.9197 404.373 33.3722 404.373 33.929V39H402.921V37.956H402.862C402.766 38.1482 402.621 38.3371 402.429 38.5227C402.237 38.7083 401.99 38.8625 401.688 38.9851C401.387 39.1077 401.025 39.169 400.605 39.169ZM400.928 37.9759C401.339 37.9759 401.69 37.8946 401.982 37.7322C402.277 37.5698 402.5 37.3577 402.653 37.0959C402.809 36.8307 402.887 36.5473 402.887 36.2457V35.2614C402.833 35.3144 402.731 35.3641 402.578 35.4105C402.429 35.4536 402.258 35.4917 402.066 35.5249C401.874 35.5547 401.687 35.5829 401.504 35.6094C401.322 35.6326 401.17 35.6525 401.047 35.669C400.759 35.7055 400.495 35.7668 400.257 35.853C400.021 35.9392 399.832 36.0634 399.69 36.2259C399.551 36.3849 399.481 36.5971 399.481 36.8622C399.481 37.2301 399.617 37.5085 399.889 37.6974C400.16 37.883 400.507 37.9759 400.928 37.9759ZM407.979 34.4659V39H406.493V31.3636H407.92V32.6065H408.014C408.19 32.2022 408.465 31.8774 408.84 31.6321C409.217 31.3868 409.693 31.2642 410.266 31.2642C410.787 31.2642 411.242 31.3736 411.634 31.5923C412.025 31.8078 412.328 32.1293 412.543 32.5568C412.759 32.9844 412.867 33.513 412.867 34.1428V39H411.38V34.3217C411.38 33.7682 411.236 33.3357 410.948 33.0241C410.659 32.7093 410.263 32.5518 409.759 32.5518C409.415 32.5518 409.108 32.6264 408.84 32.7756C408.574 32.9247 408.364 33.1435 408.208 33.4318C408.056 33.7169 407.979 34.0616 407.979 34.4659ZM418.217 39.1541C417.478 39.1541 416.841 38.9867 416.308 38.652C415.777 38.3139 415.37 37.8482 415.085 37.255C414.8 36.6617 414.657 35.9822 414.657 35.2166C414.657 34.4411 414.803 33.7566 415.095 33.1634C415.386 32.5668 415.797 32.1011 416.328 31.7663C416.858 31.4316 417.483 31.2642 418.202 31.2642C418.782 31.2642 419.299 31.3719 419.753 31.5874C420.207 31.7995 420.573 32.0978 420.852 32.4822C421.133 32.8667 421.301 33.3158 421.354 33.8295H419.907C419.828 33.4716 419.645 33.1634 419.36 32.9048C419.079 32.6463 418.701 32.517 418.227 32.517C417.812 32.517 417.449 32.6264 417.138 32.8452C416.83 33.0606 416.589 33.3688 416.417 33.7699C416.245 34.1676 416.159 34.6383 416.159 35.1818C416.159 35.7386 416.243 36.2192 416.412 36.6236C416.581 37.0279 416.82 37.3411 417.128 37.5632C417.44 37.7853 417.806 37.8963 418.227 37.8963C418.508 37.8963 418.764 37.8449 418.992 37.7422C419.224 37.6361 419.418 37.4853 419.574 37.2898C419.733 37.0942 419.844 36.8589 419.907 36.5838H421.354C421.301 37.0777 421.14 37.5185 420.872 37.9062C420.603 38.294 420.244 38.599 419.793 38.821C419.345 39.0431 418.82 39.1541 418.217 39.1541ZM426.375 39.1541C425.622 39.1541 424.974 38.9934 424.431 38.6719C423.891 38.3471 423.473 37.8913 423.178 37.3047C422.886 36.7147 422.74 36.0237 422.74 35.2315C422.74 34.4493 422.886 33.7599 423.178 33.1634C423.473 32.5668 423.884 32.1011 424.411 31.7663C424.941 31.4316 425.561 31.2642 426.27 31.2642C426.701 31.2642 427.119 31.3355 427.523 31.478C427.927 31.6205 428.29 31.8442 428.612 32.1491C428.933 32.4541 429.187 32.8501 429.373 33.3374C429.558 33.8213 429.651 34.4096 429.651 35.1023V35.6293H423.581V34.5156H428.194C428.194 34.1245 428.115 33.7782 427.956 33.4766C427.797 33.1716 427.573 32.9313 427.285 32.7557C426.999 32.58 426.665 32.4922 426.28 32.4922C425.863 32.4922 425.498 32.5949 425.186 32.8004C424.878 33.0026 424.64 33.2678 424.471 33.5959C424.305 33.9207 424.222 34.2737 424.222 34.6548V35.5249C424.222 36.0353 424.311 36.4695 424.49 36.8274C424.673 37.1854 424.926 37.4588 425.251 37.6477C425.576 37.8333 425.955 37.9261 426.39 37.9261C426.671 37.9261 426.928 37.8864 427.16 37.8068C427.392 37.724 427.593 37.6013 427.762 37.4389C427.931 37.2765 428.06 37.076 428.15 36.8374L429.557 37.0909C429.444 37.5052 429.242 37.8681 428.95 38.1797C428.662 38.4879 428.299 38.7282 427.861 38.9006C427.427 39.0696 426.932 39.1541 426.375 39.1541Z" fill="#AEAEB2"/>
<path d="M353.236 65.7614V63.2472L360.642 51.5455H362.739V55.125H361.46L356.474 63.0256V63.1619H366.812V65.7614H353.236ZM361.562 69V64.9943L361.597 63.8693V51.5455H364.58V69H361.562ZM375.987 69.3324C374.584 69.3324 373.379 68.9773 372.374 68.267C371.374 67.5511 370.604 66.5199 370.064 65.1733C369.53 63.821 369.263 62.1932 369.263 60.2898C369.268 58.3864 369.538 56.767 370.072 55.4318C370.612 54.0909 371.382 53.0682 372.382 52.3636C373.388 51.6591 374.589 51.3068 375.987 51.3068C377.385 51.3068 378.587 51.6591 379.592 52.3636C380.598 53.0682 381.368 54.0909 381.902 55.4318C382.442 56.7727 382.712 58.392 382.712 60.2898C382.712 62.1989 382.442 63.8295 381.902 65.1818C381.368 66.5284 380.598 67.5568 379.592 68.267C378.592 68.9773 377.391 69.3324 375.987 69.3324ZM375.987 66.6648C377.078 66.6648 377.939 66.1278 378.57 65.054C379.206 63.9744 379.524 62.3864 379.524 60.2898C379.524 58.9034 379.379 57.7386 379.089 56.7955C378.8 55.8523 378.391 55.142 377.862 54.6648C377.334 54.1818 376.709 53.9403 375.987 53.9403C374.902 53.9403 374.044 54.4801 373.413 55.5597C372.783 56.6335 372.464 58.2102 372.459 60.2898C372.453 61.6818 372.592 62.8523 372.876 63.8011C373.166 64.75 373.575 65.4659 374.104 65.9489C374.632 66.4261 375.26 66.6648 375.987 66.6648ZM391.995 69.3324C390.592 69.3324 389.387 68.9773 388.381 68.267C387.381 67.5511 386.612 66.5199 386.072 65.1733C385.538 63.821 385.271 62.1932 385.271 60.2898C385.276 58.3864 385.546 56.767 386.08 55.4318C386.62 54.0909 387.39 53.0682 388.39 52.3636C389.396 51.6591 390.597 51.3068 391.995 51.3068C393.393 51.3068 394.594 51.6591 395.6 52.3636C396.606 53.0682 397.376 54.0909 397.91 55.4318C398.45 56.7727 398.719 58.392 398.719 60.2898C398.719 62.1989 398.45 63.8295 397.91 65.1818C397.376 66.5284 396.606 67.5568 395.6 68.267C394.6 68.9773 393.398 69.3324 391.995 69.3324ZM391.995 66.6648C393.086 66.6648 393.947 66.1278 394.577 65.054C395.214 63.9744 395.532 62.3864 395.532 60.2898C395.532 58.9034 395.387 57.7386 395.097 56.7955C394.808 55.8523 394.398 55.142 393.87 54.6648C393.342 54.1818 392.717 53.9403 391.995 53.9403C390.91 53.9403 390.052 54.4801 389.421 55.5597C388.79 56.6335 388.472 58.2102 388.467 60.2898C388.461 61.6818 388.6 62.8523 388.884 63.8011C389.174 64.75 389.583 65.4659 390.112 65.9489C390.64 66.4261 391.268 66.6648 391.995 66.6648ZM413.956 69.3324C412.553 69.3324 411.348 68.9773 410.342 68.267C409.342 67.5511 408.572 66.5199 408.033 65.1733C407.499 63.821 407.232 62.1932 407.232 60.2898C407.237 58.3864 407.507 56.767 408.041 55.4318C408.581 54.0909 409.351 53.0682 410.351 52.3636C411.357 51.6591 412.558 51.3068 413.956 51.3068C415.354 51.3068 416.555 51.6591 417.561 52.3636C418.567 53.0682 419.337 54.0909 419.871 55.4318C420.411 56.7727 420.68 58.392 420.68 60.2898C420.68 62.1989 420.411 63.8295 419.871 65.1818C419.337 66.5284 418.567 67.5568 417.561 68.267C416.561 68.9773 415.359 69.3324 413.956 69.3324ZM413.956 66.6648C415.047 66.6648 415.908 66.1278 416.538 65.054C417.175 63.9744 417.493 62.3864 417.493 60.2898C417.493 58.9034 417.348 57.7386 417.058 56.7955C416.768 55.8523 416.359 55.142 415.831 54.6648C415.303 54.1818 414.678 53.9403 413.956 53.9403C412.871 53.9403 412.013 54.4801 411.382 55.5597C410.751 56.6335 410.433 58.2102 410.428 60.2898C410.422 61.6818 410.561 62.8523 410.845 63.8011C411.135 64.75 411.544 65.4659 412.072 65.9489C412.601 66.4261 413.229 66.6648 413.956 66.6648ZM429.964 69.3324C428.56 69.3324 427.356 68.9773 426.35 68.267C425.35 67.5511 424.58 66.5199 424.04 65.1733C423.506 63.821 423.239 62.1932 423.239 60.2898C423.245 58.3864 423.515 56.767 424.049 55.4318C424.589 54.0909 425.359 53.0682 426.359 52.3636C427.364 51.6591 428.566 51.3068 429.964 51.3068C431.362 51.3068 432.563 51.6591 433.569 52.3636C434.575 53.0682 435.344 54.0909 435.879 55.4318C436.418 56.7727 436.688 58.392 436.688 60.2898C436.688 62.1989 436.418 63.8295 435.879 65.1818C435.344 66.5284 434.575 67.5568 433.569 68.267C432.569 68.9773 431.367 69.3324 429.964 69.3324ZM429.964 66.6648C431.055 66.6648 431.915 66.1278 432.546 65.054C433.183 63.9744 433.501 62.3864 433.501 60.2898C433.501 58.9034 433.356 57.7386 433.066 56.7955C432.776 55.8523 432.367 55.142 431.839 54.6648C431.31 54.1818 430.685 53.9403 429.964 53.9403C428.879 53.9403 428.021 54.4801 427.39 55.5597C426.759 56.6335 426.441 58.2102 426.435 60.2898C426.43 61.6818 426.569 62.8523 426.853 63.8011C427.143 64.75 427.552 65.4659 428.08 65.9489C428.609 66.4261 429.237 66.6648 429.964 66.6648ZM445.972 69.3324C444.568 69.3324 443.364 68.9773 442.358 68.267C441.358 67.5511 440.588 66.5199 440.048 65.1733C439.514 63.821 439.247 62.1932 439.247 60.2898C439.253 58.3864 439.523 56.767 440.057 55.4318C440.597 54.0909 441.366 53.0682 442.366 52.3636C443.372 51.6591 444.574 51.3068 445.972 51.3068C447.369 51.3068 448.571 51.6591 449.577 52.3636C450.582 53.0682 451.352 54.0909 451.886 55.4318C452.426 56.7727 452.696 58.392 452.696 60.2898C452.696 62.1989 452.426 63.8295 451.886 65.1818C451.352 66.5284 450.582 67.5568 449.577 68.267C448.577 68.9773 447.375 69.3324 445.972 69.3324ZM445.972 66.6648C447.063 66.6648 447.923 66.1278 448.554 65.054C449.19 63.9744 449.509 62.3864 449.509 60.2898C449.509 58.9034 449.364 57.7386 449.074 56.7955C448.784 55.8523 448.375 55.142 447.847 54.6648C447.318 54.1818 446.693 53.9403 445.972 53.9403C444.886 53.9403 444.028 54.4801 443.398 55.5597C442.767 56.6335 442.449 58.2102 442.443 60.2898C442.438 61.6818 442.577 62.8523 442.861 63.8011C443.151 64.75 443.56 65.4659 444.088 65.9489C444.616 66.4261 445.244 66.6648 445.972 66.6648ZM467.933 69.3324C466.529 69.3324 465.325 68.9773 464.319 68.267C463.319 67.5511 462.549 66.5199 462.009 65.1733C461.475 63.821 461.208 62.1932 461.208 60.2898C461.214 58.3864 461.484 56.767 462.018 55.4318C462.558 54.0909 463.327 53.0682 464.327 52.3636C465.333 51.6591 466.535 51.3068 467.933 51.3068C469.33 51.3068 470.532 51.6591 471.538 52.3636C472.543 53.0682 473.313 54.0909 473.847 55.4318C474.387 56.7727 474.657 58.392 474.657 60.2898C474.657 62.1989 474.387 63.8295 473.847 65.1818C473.313 66.5284 472.543 67.5568 471.538 68.267C470.538 68.9773 469.336 69.3324 467.933 69.3324ZM467.933 66.6648C469.023 66.6648 469.884 66.1278 470.515 65.054C471.151 63.9744 471.469 62.3864 471.469 60.2898C471.469 58.9034 471.325 57.7386 471.035 56.7955C470.745 55.8523 470.336 55.142 469.808 54.6648C469.279 54.1818 468.654 53.9403 467.933 53.9403C466.847 53.9403 465.989 54.4801 465.359 55.5597C464.728 56.6335 464.41 58.2102 464.404 60.2898C464.398 61.6818 464.538 62.8523 464.822 63.8011C465.112 64.75 465.521 65.4659 466.049 65.9489C466.577 66.4261 467.205 66.6648 467.933 66.6648ZM483.94 69.3324C482.537 69.3324 481.332 68.9773 480.327 68.267C479.327 67.5511 478.557 66.5199 478.017 65.1733C477.483 63.821 477.216 62.1932 477.216 60.2898C477.222 58.3864 477.491 56.767 478.026 55.4318C478.565 54.0909 479.335 53.0682 480.335 52.3636C481.341 51.6591 482.543 51.3068 483.94 51.3068C485.338 51.3068 486.54 51.6591 487.545 52.3636C488.551 53.0682 489.321 54.0909 489.855 55.4318C490.395 56.7727 490.665 58.392 490.665 60.2898C490.665 62.1989 490.395 63.8295 489.855 65.1818C489.321 66.5284 488.551 67.5568 487.545 68.267C486.545 68.9773 485.344 69.3324 483.94 69.3324ZM483.94 66.6648C485.031 66.6648 485.892 66.1278 486.523 65.054C487.159 63.9744 487.477 62.3864 487.477 60.2898C487.477 58.9034 487.332 57.7386 487.043 56.7955C486.753 55.8523 486.344 55.142 485.815 54.6648C485.287 54.1818 484.662 53.9403 483.94 53.9403C482.855 53.9403 481.997 54.4801 481.366 55.5597C480.736 56.6335 480.418 58.2102 480.412 60.2898C480.406 61.6818 480.545 62.8523 480.83 63.8011C481.119 64.75 481.528 65.4659 482.057 65.9489C482.585 66.4261 483.213 66.6648 483.94 66.6648ZM499.948 69.3324C498.545 69.3324 497.34 68.9773 496.335 68.267C495.335 67.5511 494.565 66.5199 494.025 65.1733C493.491 63.821 493.224 62.1932 493.224 60.2898C493.229 58.3864 493.499 56.767 494.033 55.4318C494.573 54.0909 495.343 53.0682 496.343 52.3636C497.349 51.6591 498.55 51.3068 499.948 51.3068C501.346 51.3068 502.548 51.6591 503.553 52.3636C504.559 53.0682 505.329 54.0909 505.863 55.4318C506.403 56.7727 506.673 58.392 506.673 60.2898C506.673 62.1989 506.403 63.8295 505.863 65.1818C505.329 66.5284 504.559 67.5568 503.553 68.267C502.553 68.9773 501.352 69.3324 499.948 69.3324ZM499.948 66.6648C501.039 66.6648 501.9 66.1278 502.531 65.054C503.167 63.9744 503.485 62.3864 503.485 60.2898C503.485 58.9034 503.34 57.7386 503.05 56.7955C502.761 55.8523 502.352 55.142 501.823 54.6648C501.295 54.1818 500.67 53.9403 499.948 53.9403C498.863 53.9403 498.005 54.4801 497.374 55.5597C496.744 56.6335 496.425 58.2102 496.42 60.2898C496.414 61.6818 496.553 62.8523 496.837 63.8011C497.127 64.75 497.536 65.4659 498.065 65.9489C498.593 66.4261 499.221 66.6648 499.948 66.6648Z" fill="#1E1E1F"/>
<rect x="550" y="24" width="70" height="36" rx="12" fill="#EBF3FF"/>
<path d="M565.304 47V38.348H562.406V37.2H569.616V38.348H566.704V47H565.304ZM572.926 47.168C572.263 47.168 571.666 47.014 571.134 46.706C570.611 46.398 570.196 45.9687 569.888 45.418C569.589 44.858 569.44 44.214 569.44 43.486C569.44 42.7393 569.594 42.0907 569.902 41.54C570.21 40.98 570.63 40.546 571.162 40.238C571.694 39.93 572.291 39.776 572.954 39.776C573.626 39.776 574.223 39.93 574.746 40.238C575.269 40.546 575.679 40.9753 575.978 41.526C576.286 42.0767 576.44 42.7253 576.44 43.472C576.44 44.2187 576.286 44.8673 575.978 45.418C575.679 45.9687 575.264 46.398 574.732 46.706C574.2 47.014 573.598 47.168 572.926 47.168ZM572.926 45.964C573.309 45.964 573.654 45.8707 573.962 45.684C574.279 45.4973 574.531 45.222 574.718 44.858C574.914 44.4847 575.012 44.0227 575.012 43.472C575.012 42.9213 574.919 42.464 574.732 42.1C574.545 41.7267 574.293 41.4467 573.976 41.26C573.668 41.0733 573.327 40.98 572.954 40.98C572.581 40.98 572.235 41.0733 571.918 41.26C571.601 41.4467 571.344 41.7267 571.148 42.1C570.961 42.464 570.868 42.9213 570.868 43.472C570.868 44.0227 570.961 44.4847 571.148 44.858C571.344 45.222 571.596 45.4973 571.904 45.684C572.221 45.8707 572.562 45.964 572.926 45.964ZM578.087 50.08V39.944H579.347L579.487 41.036C579.636 40.8213 579.823 40.6207 580.047 40.434C580.271 40.238 580.537 40.0793 580.845 39.958C581.162 39.8367 581.531 39.776 581.951 39.776C582.623 39.776 583.211 39.9393 583.715 40.266C584.228 40.5927 584.625 41.036 584.905 41.596C585.194 42.1467 585.339 42.7767 585.339 43.486C585.339 44.1953 585.194 44.83 584.905 45.39C584.615 45.9407 584.214 46.3747 583.701 46.692C583.197 47.0093 582.609 47.168 581.937 47.168C581.386 47.168 580.901 47.0607 580.481 46.846C580.061 46.622 579.729 46.314 579.487 45.922V50.08H578.087ZM581.713 45.95C582.142 45.95 582.52 45.8473 582.847 45.642C583.183 45.4367 583.444 45.1473 583.631 44.774C583.827 44.4007 583.925 43.9667 583.925 43.472C583.925 42.9773 583.827 42.548 583.631 42.184C583.444 41.8107 583.183 41.5213 582.847 41.316C582.52 41.1013 582.142 40.994 581.713 40.994C581.274 40.994 580.887 41.1013 580.551 41.316C580.224 41.5213 579.967 41.8107 579.781 42.184C579.594 42.548 579.501 42.9773 579.501 43.472C579.501 43.9667 579.594 44.4007 579.781 44.774C579.967 45.1473 580.224 45.4367 580.551 45.642C580.887 45.8473 581.274 45.95 581.713 45.95ZM594.238 47.168C593.547 47.168 592.922 47.0327 592.362 46.762C591.802 46.482 591.354 46.062 591.018 45.502C590.691 44.9327 590.528 44.2093 590.528 43.332V37.2H591.928V43.346C591.928 43.934 592.026 44.4193 592.222 44.802C592.418 45.1753 592.688 45.4553 593.034 45.642C593.388 45.8193 593.799 45.908 594.266 45.908C594.742 45.908 595.152 45.8193 595.498 45.642C595.843 45.4553 596.109 45.1753 596.296 44.802C596.492 44.4193 596.59 43.934 596.59 43.346V37.2H597.99V43.332C597.99 44.2093 597.822 44.9327 597.486 45.502C597.15 46.062 596.697 46.482 596.128 46.762C595.558 47.0327 594.928 47.168 594.238 47.168ZM599.866 50.08V39.944H601.126L601.266 41.036C601.415 40.8213 601.602 40.6207 601.826 40.434C602.05 40.238 602.316 40.0793 602.624 39.958C602.941 39.8367 603.31 39.776 603.73 39.776C604.402 39.776 604.99 39.9393 605.494 40.266C606.007 40.5927 606.404 41.036 606.684 41.596C606.973 42.1467 607.118 42.7767 607.118 43.486C607.118 44.1953 606.973 44.83 606.684 45.39C606.395 45.9407 605.993 46.3747 605.48 46.692C604.976 47.0093 604.388 47.168 603.716 47.168C603.165 47.168 602.68 47.0607 602.26 46.846C601.84 46.622 601.509 46.314 601.266 45.922V50.08H599.866ZM603.492 45.95C603.921 45.95 604.299 45.8473 604.626 45.642C604.962 45.4367 605.223 45.1473 605.41 44.774C605.606 44.4007 605.704 43.9667 605.704 43.472C605.704 42.9773 605.606 42.548 605.41 42.184C605.223 41.8107 604.962 41.5213 604.626 41.316C604.299 41.1013 603.921 40.994 603.492 40.994C603.053 40.994 602.666 41.1013 602.33 41.316C602.003 41.5213 601.747 41.8107 601.56 42.184C601.373 42.548 601.28 42.9773 601.28 43.472C601.28 43.9667 601.373 44.4007 601.56 44.774C601.747 45.1473 602.003 45.4367 602.33 45.642C602.666 45.8473 603.053 45.95 603.492 45.95Z" fill="#0B57D0"/>
<path d="M352.656 103.295V102.23L356.428 96.2727H357.267V97.8409H356.734L354.037 102.111V102.179H359.206V103.295H352.656ZM356.794 105V102.972L356.803 102.486V96.2727H358.051V105H356.794ZM363.849 105.145C363.176 105.142 362.601 104.964 362.124 104.612C361.646 104.26 361.281 103.747 361.028 103.074C360.776 102.401 360.649 101.589 360.649 100.641C360.649 99.6946 360.776 98.8864 361.028 98.2159C361.284 97.5455 361.651 97.0341 362.128 96.6818C362.608 96.3295 363.182 96.1534 363.849 96.1534C364.517 96.1534 365.089 96.331 365.567 96.6861C366.044 97.0384 366.409 97.5497 366.662 98.2202C366.918 98.8878 367.045 99.6946 367.045 100.641C367.045 101.592 366.919 102.405 366.666 103.078C366.413 103.749 366.048 104.261 365.571 104.616C365.094 104.969 364.52 105.145 363.849 105.145ZM363.849 104.007C364.44 104.007 364.902 103.719 365.234 103.142C365.57 102.565 365.737 101.732 365.737 100.641C365.737 99.9162 365.66 99.304 365.507 98.804C365.357 98.3011 365.139 97.9205 364.855 97.6619C364.574 97.4006 364.239 97.2699 363.849 97.2699C363.261 97.2699 362.8 97.5597 362.464 98.1392C362.129 98.7187 361.96 99.5526 361.957 100.641C361.957 101.368 362.033 101.983 362.183 102.486C362.337 102.986 362.554 103.365 362.835 103.624C363.116 103.879 363.455 104.007 363.849 104.007ZM371.715 105.145C371.042 105.142 370.467 104.964 369.99 104.612C369.512 104.26 369.147 103.747 368.894 103.074C368.642 102.401 368.515 101.589 368.515 100.641C368.515 99.6946 368.642 98.8864 368.894 98.2159C369.15 97.5455 369.517 97.0341 369.994 96.6818C370.474 96.3295 371.048 96.1534 371.715 96.1534C372.383 96.1534 372.956 96.331 373.433 96.6861C373.91 97.0384 374.275 97.5497 374.528 98.2202C374.784 98.8878 374.912 99.6946 374.912 100.641C374.912 101.592 374.785 102.405 374.532 103.078C374.279 103.749 373.914 104.261 373.437 104.616C372.96 104.969 372.386 105.145 371.715 105.145ZM371.715 104.007C372.306 104.007 372.768 103.719 373.1 103.142C373.436 102.565 373.603 101.732 373.603 100.641C373.603 99.9162 373.527 99.304 373.373 98.804C373.223 98.3011 373.005 97.9205 372.721 97.6619C372.44 97.4006 372.105 97.2699 371.715 97.2699C371.127 97.2699 370.666 97.5597 370.331 98.1392C369.995 98.7187 369.826 99.5526 369.823 100.641C369.823 101.368 369.899 101.983 370.049 102.486C370.203 102.986 370.42 103.365 370.701 103.624C370.983 103.879 371.321 104.007 371.715 104.007ZM376.663 96.2727H378.261L381.039 103.057H381.141L383.92 96.2727H385.518V105H384.265V98.6847H384.184L381.61 104.987H380.57L377.996 98.6804H377.915V105H376.663V96.2727ZM390.774 95.8636L387.961 106.312H386.823L389.636 95.8636H390.774ZM391.776 103.295V102.23L395.547 96.2727H396.387V97.8409H395.854L393.156 102.111V102.179H398.325V103.295H391.776ZM395.914 105V102.972L395.922 102.486V96.2727H397.171V105H395.914ZM402.969 105.145C402.296 105.142 401.72 104.964 401.243 104.612C400.766 104.26 400.401 103.747 400.148 103.074C399.895 102.401 399.769 101.589 399.769 100.641C399.769 99.6946 399.895 98.8864 400.148 98.2159C400.404 97.5455 400.77 97.0341 401.247 96.6818C401.727 96.3295 402.301 96.1534 402.969 96.1534C403.637 96.1534 404.209 96.331 404.686 96.6861C405.164 97.0384 405.529 97.5497 405.781 98.2202C406.037 98.8878 406.165 99.6946 406.165 100.641C406.165 101.592 406.039 102.405 405.786 103.078C405.533 103.749 405.168 104.261 404.691 104.616C404.213 104.969 403.639 105.145 402.969 105.145ZM402.969 104.007C403.56 104.007 404.021 103.719 404.354 103.142C404.689 102.565 404.857 101.732 404.857 100.641C404.857 99.9162 404.78 99.304 404.627 98.804C404.476 98.3011 404.259 97.9205 403.975 97.6619C403.693 97.4006 403.358 97.2699 402.969 97.2699C402.381 97.2699 401.919 97.5597 401.584 98.1392C401.249 98.7187 401.08 99.5526 401.077 100.641C401.077 101.368 401.152 101.983 401.303 102.486C401.456 102.986 401.673 103.365 401.955 103.624C402.236 103.879 402.574 104.007 402.969 104.007ZM410.835 105.145C410.162 105.142 409.586 104.964 409.109 104.612C408.632 104.26 408.267 103.747 408.014 103.074C407.761 102.401 407.635 101.589 407.635 100.641C407.635 99.6946 407.761 98.8864 408.014 98.2159C408.27 97.5455 408.636 97.0341 409.113 96.6818C409.594 96.3295 410.167 96.1534 410.835 96.1534C411.503 96.1534 412.075 96.331 412.552 96.6861C413.03 97.0384 413.395 97.5497 413.648 98.2202C413.903 98.8878 414.031 99.6946 414.031 100.641C414.031 101.592 413.905 102.405 413.652 103.078C413.399 103.749 413.034 104.261 412.557 104.616C412.079 104.969 411.505 105.145 410.835 105.145ZM410.835 104.007C411.426 104.007 411.888 103.719 412.22 103.142C412.555 102.565 412.723 101.732 412.723 100.641C412.723 99.9162 412.646 99.304 412.493 98.804C412.342 98.3011 412.125 97.9205 411.841 97.6619C411.559 97.4006 411.224 97.2699 410.835 97.2699C410.247 97.2699 409.785 97.5597 409.45 98.1392C409.115 98.7187 408.946 99.5526 408.943 100.641C408.943 101.368 409.018 101.983 409.169 102.486C409.322 102.986 409.54 103.365 409.821 103.624C410.102 103.879 410.44 104.007 410.835 104.007ZM415.782 96.2727H417.38L420.159 103.057H420.261L423.039 96.2727H424.637V105H423.384V98.6847H423.303L420.73 104.987H419.69L417.116 98.6804H417.035V105H415.782V96.2727Z" fill="#85B4FF"/>
<path d="M459.656 103.295V102.23L463.428 96.2727H464.267V97.8409H463.734L461.037 102.111V102.179H466.206V103.295H459.656ZM463.794 105V102.972L463.803 102.486V96.2727H465.051V105H463.794ZM470.849 105.145C470.176 105.142 469.601 104.964 469.124 104.612C468.646 104.26 468.281 103.747 468.028 103.074C467.776 102.401 467.649 101.589 467.649 100.641C467.649 99.6946 467.776 98.8864 468.028 98.2159C468.284 97.5455 468.651 97.0341 469.128 96.6818C469.608 96.3295 470.182 96.1534 470.849 96.1534C471.517 96.1534 472.089 96.331 472.567 96.6861C473.044 97.0384 473.409 97.5497 473.662 98.2202C473.918 98.8878 474.045 99.6946 474.045 100.641C474.045 101.592 473.919 102.405 473.666 103.078C473.413 103.749 473.048 104.261 472.571 104.616C472.094 104.969 471.52 105.145 470.849 105.145ZM470.849 104.007C471.44 104.007 471.902 103.719 472.234 103.142C472.57 102.565 472.737 101.732 472.737 100.641C472.737 99.9162 472.66 99.304 472.507 98.804C472.357 98.3011 472.139 97.9205 471.855 97.6619C471.574 97.4006 471.239 97.2699 470.849 97.2699C470.261 97.2699 469.8 97.5597 469.464 98.1392C469.129 98.7187 468.96 99.5526 468.957 100.641C468.957 101.368 469.033 101.983 469.183 102.486C469.337 102.986 469.554 103.365 469.835 103.624C470.116 103.879 470.455 104.007 470.849 104.007ZM478.715 105.145C478.042 105.142 477.467 104.964 476.99 104.612C476.512 104.26 476.147 103.747 475.894 103.074C475.642 102.401 475.515 101.589 475.515 100.641C475.515 99.6946 475.642 98.8864 475.894 98.2159C476.15 97.5455 476.517 97.0341 476.994 96.6818C477.474 96.3295 478.048 96.1534 478.715 96.1534C479.383 96.1534 479.956 96.331 480.433 96.6861C480.91 97.0384 481.275 97.5497 481.528 98.2202C481.784 98.8878 481.912 99.6946 481.912 100.641C481.912 101.592 481.785 102.405 481.532 103.078C481.279 103.749 480.914 104.261 480.437 104.616C479.96 104.969 479.386 105.145 478.715 105.145ZM478.715 104.007C479.306 104.007 479.768 103.719 480.1 103.142C480.436 102.565 480.603 101.732 480.603 100.641C480.603 99.9162 480.527 99.304 480.373 98.804C480.223 98.3011 480.005 97.9205 479.721 97.6619C479.44 97.4006 479.105 97.2699 478.715 97.2699C478.127 97.2699 477.666 97.5597 477.331 98.1392C476.995 98.7187 476.826 99.5526 476.823 100.641C476.823 101.368 476.899 101.983 477.049 102.486C477.203 102.986 477.42 103.365 477.701 103.624C477.983 103.879 478.321 104.007 478.715 104.007ZM483.663 96.2727H485.261L488.039 103.057H488.141L490.92 96.2727H492.518V105H491.265V98.6847H491.184L488.61 104.987H487.57L484.996 98.6804H484.915V105H483.663V96.2727ZM497.774 95.8636L494.961 106.312H493.823L496.636 95.8636H497.774ZM498.776 103.295V102.23L502.547 96.2727H503.387V97.8409H502.854L500.156 102.111V102.179H505.325V103.295H498.776ZM502.914 105V102.972L502.922 102.486V96.2727H504.171V105H502.914ZM509.969 105.145C509.296 105.142 508.72 104.964 508.243 104.612C507.766 104.26 507.401 103.747 507.148 103.074C506.895 102.401 506.769 101.589 506.769 100.641C506.769 99.6946 506.895 98.8864 507.148 98.2159C507.404 97.5455 507.77 97.0341 508.247 96.6818C508.727 96.3295 509.301 96.1534 509.969 96.1534C510.637 96.1534 511.209 96.331 511.686 96.6861C512.164 97.0384 512.529 97.5497 512.781 98.2202C513.037 98.8878 513.165 99.6946 513.165 100.641C513.165 101.592 513.039 102.405 512.786 103.078C512.533 103.749 512.168 104.261 511.691 104.616C511.213 104.969 510.639 105.145 509.969 105.145ZM509.969 104.007C510.56 104.007 511.021 103.719 511.354 103.142C511.689 102.565 511.857 101.732 511.857 100.641C511.857 99.9162 511.78 99.304 511.627 98.804C511.476 98.3011 511.259 97.9205 510.975 97.6619C510.693 97.4006 510.358 97.2699 509.969 97.2699C509.381 97.2699 508.919 97.5597 508.584 98.1392C508.249 98.7187 508.08 99.5526 508.077 100.641C508.077 101.368 508.152 101.983 508.303 102.486C508.456 102.986 508.673 103.365 508.955 103.624C509.236 103.879 509.574 104.007 509.969 104.007ZM517.835 105.145C517.162 105.142 516.586 104.964 516.109 104.612C515.632 104.26 515.267 103.747 515.014 103.074C514.761 102.401 514.635 101.589 514.635 100.641C514.635 99.6946 514.761 98.8864 515.014 98.2159C515.27 97.5455 515.636 97.0341 516.113 96.6818C516.594 96.3295 517.167 96.1534 517.835 96.1534C518.503 96.1534 519.075 96.331 519.552 96.6861C520.03 97.0384 520.395 97.5497 520.648 98.2202C520.903 98.8878 521.031 99.6946 521.031 100.641C521.031 101.592 520.905 102.405 520.652 103.078C520.399 103.749 520.034 104.261 519.557 104.616C519.079 104.969 518.505 105.145 517.835 105.145ZM517.835 104.007C518.426 104.007 518.888 103.719 519.22 103.142C519.555 102.565 519.723 101.732 519.723 100.641C519.723 99.9162 519.646 99.304 519.493 98.804C519.342 98.3011 519.125 97.9205 518.841 97.6619C518.559 97.4006 518.224 97.2699 517.835 97.2699C517.247 97.2699 516.785 97.5597 516.45 98.1392C516.115 98.7187 515.946 99.5526 515.943 100.641C515.943 101.368 516.018 101.983 516.169 102.486C516.322 102.986 516.54 103.365 516.821 103.624C517.102 103.879 517.44 104.007 517.835 104.007ZM522.782 96.2727H524.38L527.159 103.057H527.261L530.039 96.2727H531.637V105H530.384V98.6847H530.303L527.73 104.987H526.69L524.116 98.6804H524.035V105H522.782V96.2727Z" fill="white"/>
<g clip-path="url(#clip0_987_12050)">
<rect x="352" y="114" width="181" height="8" rx="4" fill="#D6E6FF"/>
<rect x="352" y="114" width="181" height="8" rx="4" fill="#2772F5"/>
</g>
<path d="M566.044 112.744C565.813 114.919 564.58 116.957 562.541 118.134C559.153 120.09 554.821 118.929 552.865 115.541L552.657 115.18M551.955 111.256C552.187 109.081 553.419 107.043 555.458 105.865C558.846 103.909 563.178 105.07 565.134 108.458L565.342 108.819M551.911 117.055L552.521 114.778L554.798 115.388M563.202 108.611L565.478 109.221L566.089 106.945M559 108.25V112L561.083 113.25" stroke="#2772F5" stroke-width="1.6" stroke-linecap="round" stroke-linejoin="round"/>
<path d="M582.371 106.818V117H580.731L575.933 110.065H575.849V117H574.004V106.818H575.655L580.447 113.759H580.537V106.818H582.371ZM587.773 117.149C587.027 117.149 586.381 116.985 585.834 116.657C585.287 116.329 584.863 115.87 584.561 115.28C584.263 114.69 584.114 114 584.114 113.212C584.114 112.423 584.263 111.732 584.561 111.138C584.863 110.545 585.287 110.085 585.834 109.756C586.381 109.428 587.027 109.264 587.773 109.264C588.518 109.264 589.165 109.428 589.712 109.756C590.258 110.085 590.681 110.545 590.979 111.138C591.281 111.732 591.432 112.423 591.432 113.212C591.432 114 591.281 114.69 590.979 115.28C590.681 115.87 590.258 116.329 589.712 116.657C589.165 116.985 588.518 117.149 587.773 117.149ZM587.783 115.707C588.187 115.707 588.525 115.596 588.797 115.374C589.069 115.149 589.271 114.847 589.403 114.469C589.539 114.092 589.607 113.671 589.607 113.207C589.607 112.739 589.539 112.317 589.403 111.939C589.271 111.558 589.069 111.254 588.797 111.029C588.525 110.804 588.187 110.691 587.783 110.691C587.368 110.691 587.024 110.804 586.748 111.029C586.477 111.254 586.273 111.558 586.137 111.939C586.004 112.317 585.938 112.739 585.938 113.207C585.938 113.671 586.004 114.092 586.137 114.469C586.273 114.847 586.477 115.149 586.748 115.374C587.024 115.596 587.368 115.707 587.783 115.707ZM599.661 109.364L596.941 117H594.952L592.233 109.364H594.152L595.907 115.036H595.986L597.746 109.364H599.661ZM608.78 106.818V117H606.936V108.613H606.876L604.494 110.134V108.444L607.025 106.818H608.78ZM615.269 117.194C614.45 117.194 613.747 116.987 613.161 116.572C612.577 116.155 612.128 115.553 611.813 114.768C611.502 113.979 611.346 113.029 611.346 111.919C611.349 110.809 611.507 109.864 611.818 109.085C612.133 108.303 612.582 107.706 613.166 107.295C613.752 106.884 614.453 106.679 615.269 106.679C616.084 106.679 616.785 106.884 617.372 107.295C617.958 107.706 618.407 108.303 618.719 109.085C619.034 109.867 619.191 110.812 619.191 111.919C619.191 113.033 619.034 113.984 618.719 114.773C618.407 115.558 617.958 116.158 617.372 116.572C616.788 116.987 616.087 117.194 615.269 117.194ZM615.269 115.638C615.905 115.638 616.407 115.325 616.775 114.698C617.146 114.068 617.332 113.142 617.332 111.919C617.332 111.11 617.247 110.431 617.078 109.881C616.909 109.33 616.671 108.916 616.362 108.638C616.054 108.356 615.69 108.215 615.269 108.215C614.636 108.215 614.135 108.53 613.767 109.16C613.399 109.786 613.214 110.706 613.21 111.919C613.207 112.731 613.288 113.414 613.454 113.967C613.623 114.521 613.862 114.938 614.17 115.22C614.478 115.499 614.844 115.638 615.269 115.638Z" fill="#0B57D0"/>
<rect x="660.5" y="0.5" width="311" height="147" rx="23.5" fill="white"/>
<rect x="660.5" y="0.5" width="311" height="147" rx="23.5" stroke="#EDEDF0"/>
<path d="M685.119 39V28.8182H688.748C689.537 28.8182 690.191 28.9541 690.712 29.2259C691.235 29.4976 691.626 29.8738 691.885 30.3544C692.143 30.8317 692.273 31.3835 692.273 32.0099C692.273 32.633 692.142 33.1816 691.88 33.6555C691.621 34.1262 691.23 34.4924 690.707 34.7543C690.186 35.0161 689.532 35.147 688.743 35.147H685.994V33.8246H688.604C689.101 33.8246 689.505 33.7533 689.817 33.6108C690.132 33.4683 690.362 33.2611 690.508 32.9893C690.654 32.7176 690.727 32.3911 690.727 32.0099C690.727 31.6255 690.652 31.2924 690.503 31.0107C690.357 30.7289 690.127 30.5135 689.812 30.3643C689.5 30.2119 689.091 30.1357 688.584 30.1357H686.655V39H685.119ZM690.145 34.4062L692.661 39H690.911L688.445 34.4062H690.145ZM696.385 39.169C695.901 39.169 695.464 39.0795 695.073 38.9006C694.681 38.7183 694.372 38.4548 694.143 38.1101C693.917 37.7654 693.805 37.3428 693.805 36.8423C693.805 36.4115 693.888 36.0568 694.053 35.7784C694.219 35.5 694.443 35.2796 694.725 35.1172C695.006 34.9548 695.321 34.8321 695.669 34.7493C696.017 34.6664 696.372 34.6035 696.733 34.5604C697.19 34.5073 697.562 34.4643 697.847 34.4311C698.132 34.3946 698.339 34.3366 698.468 34.2571C698.597 34.1776 698.662 34.0483 698.662 33.8693V33.8345C698.662 33.4003 698.539 33.0639 698.294 32.8253C698.052 32.5866 697.691 32.4673 697.21 32.4673C696.71 32.4673 696.315 32.5784 696.027 32.8004C695.742 33.0192 695.545 33.2628 695.435 33.5312L694.038 33.2131C694.204 32.7491 694.446 32.3745 694.764 32.0895C695.086 31.8011 695.455 31.5923 695.873 31.4631C696.291 31.3305 696.73 31.2642 697.19 31.2642C697.495 31.2642 697.819 31.3007 698.16 31.3736C698.505 31.4432 698.826 31.5724 699.124 31.7614C699.426 31.9503 699.673 32.2204 699.865 32.5717C700.057 32.9197 700.153 33.3722 700.153 33.929V39H698.702V37.956H698.642C698.546 38.1482 698.402 38.3371 698.21 38.5227C698.017 38.7083 697.77 38.8625 697.469 38.9851C697.167 39.1077 696.806 39.169 696.385 39.169ZM696.708 37.9759C697.119 37.9759 697.47 37.8946 697.762 37.7322C698.057 37.5698 698.281 37.3577 698.433 37.0959C698.589 36.8307 698.667 36.5473 698.667 36.2457V35.2614C698.614 35.3144 698.511 35.3641 698.359 35.4105C698.21 35.4536 698.039 35.4917 697.847 35.5249C697.654 35.5547 697.467 35.5829 697.285 35.6094C697.103 35.6326 696.95 35.6525 696.828 35.669C696.539 35.7055 696.276 35.7668 696.037 35.853C695.802 35.9392 695.613 36.0634 695.47 36.2259C695.331 36.3849 695.261 36.5971 695.261 36.8622C695.261 37.2301 695.397 37.5085 695.669 37.6974C695.941 37.883 696.287 37.9759 696.708 37.9759ZM705.838 31.3636V32.5568H701.667V31.3636H705.838ZM702.786 29.5341H704.272V36.7578C704.272 37.0462 704.315 37.2633 704.401 37.4091C704.487 37.5516 704.598 37.6494 704.734 37.7024C704.874 37.7521 705.024 37.777 705.187 37.777C705.306 37.777 705.411 37.7687 705.5 37.7521C705.589 37.7356 705.659 37.7223 705.709 37.7124L705.977 38.9403C705.891 38.9735 705.768 39.0066 705.609 39.0398C705.45 39.0762 705.251 39.0961 705.013 39.0994C704.622 39.1061 704.257 39.0365 703.919 38.8906C703.581 38.7448 703.308 38.5194 703.099 38.2145C702.89 37.9096 702.786 37.5268 702.786 37.0661V29.5341ZM710.832 39.1541C710.079 39.1541 709.431 38.9934 708.888 38.6719C708.347 38.3471 707.93 37.8913 707.635 37.3047C707.343 36.7147 707.197 36.0237 707.197 35.2315C707.197 34.4493 707.343 33.7599 707.635 33.1634C707.93 32.5668 708.341 32.1011 708.868 31.7663C709.398 31.4316 710.018 31.2642 710.727 31.2642C711.158 31.2642 711.576 31.3355 711.98 31.478C712.384 31.6205 712.747 31.8442 713.069 32.1491C713.39 32.4541 713.644 32.8501 713.829 33.3374C714.015 33.8213 714.108 34.4096 714.108 35.1023V35.6293H708.038V34.5156H712.651C712.651 34.1245 712.572 33.7782 712.413 33.4766C712.253 33.1716 712.03 32.9313 711.741 32.7557C711.456 32.58 711.122 32.4922 710.737 32.4922C710.32 32.4922 709.955 32.5949 709.643 32.8004C709.335 33.0026 709.096 33.2678 708.927 33.5959C708.762 33.9207 708.679 34.2737 708.679 34.6548V35.5249C708.679 36.0353 708.768 36.4695 708.947 36.8274C709.13 37.1854 709.383 37.4588 709.708 37.6477C710.033 37.8333 710.412 37.9261 710.846 37.9261C711.128 37.9261 711.385 37.8864 711.617 37.8068C711.849 37.724 712.05 37.6013 712.219 37.4389C712.388 37.2765 712.517 37.076 712.606 36.8374L714.013 37.0909C713.901 37.5052 713.699 37.8681 713.407 38.1797C713.119 38.4879 712.756 38.7282 712.318 38.9006C711.884 39.0696 711.388 39.1541 710.832 39.1541ZM721.229 28.8182V39H719.742V28.8182H721.229ZM723.369 39V31.3636H724.855V39H723.369ZM724.119 30.1854C723.861 30.1854 723.639 30.0992 723.453 29.9268C723.271 29.7512 723.18 29.5424 723.18 29.3004C723.18 29.0552 723.271 28.8464 723.453 28.674C723.639 28.4983 723.861 28.4105 724.119 28.4105C724.378 28.4105 724.598 28.4983 724.781 28.674C724.966 28.8464 725.059 29.0552 725.059 29.3004C725.059 29.5424 724.966 29.7512 724.781 29.9268C724.598 30.0992 724.378 30.1854 724.119 30.1854ZM726.995 39V31.3636H728.422V32.6065H728.516C728.675 32.1856 728.935 31.8575 729.297 31.6222C729.658 31.3835 730.091 31.2642 730.594 31.2642C731.105 31.2642 731.532 31.3835 731.877 31.6222C732.225 31.8608 732.482 32.1889 732.648 32.6065H732.727C732.909 32.1989 733.199 31.8741 733.597 31.6321C733.995 31.3868 734.469 31.2642 735.019 31.2642C735.712 31.2642 736.277 31.4813 736.714 31.9155C737.155 32.3497 737.376 33.0043 737.376 33.8793V39H735.889V34.0185C735.889 33.5014 735.748 33.1269 735.467 32.8949C735.185 32.6629 734.848 32.5469 734.457 32.5469C733.973 32.5469 733.597 32.696 733.329 32.9943C733.06 33.2893 732.926 33.6688 732.926 34.1328V39H731.444V33.924C731.444 33.5097 731.315 33.1766 731.057 32.9247C730.798 32.6728 730.462 32.5469 730.047 32.5469C729.766 32.5469 729.506 32.6214 729.267 32.7706C729.032 32.9164 728.841 33.1203 728.695 33.3821C728.553 33.6439 728.481 33.9472 728.481 34.2919V39H726.995ZM739.508 39V31.3636H740.994V39H739.508ZM740.259 30.1854C740 30.1854 739.778 30.0992 739.592 29.9268C739.41 29.7512 739.319 29.5424 739.319 29.3004C739.319 29.0552 739.41 28.8464 739.592 28.674C739.778 28.4983 740 28.4105 740.259 28.4105C740.517 28.4105 740.738 28.4983 740.92 28.674C741.105 28.8464 741.198 29.0552 741.198 29.3004C741.198 29.5424 741.105 29.7512 740.92 29.9268C740.738 30.0992 740.517 30.1854 740.259 30.1854ZM746.699 31.3636V32.5568H742.528V31.3636H746.699ZM743.646 29.5341H745.133V36.7578C745.133 37.0462 745.176 37.2633 745.262 37.4091C745.348 37.5516 745.459 37.6494 745.595 37.7024C745.734 37.7521 745.885 37.777 746.048 37.777C746.167 37.777 746.271 37.7687 746.361 37.7521C746.45 37.7356 746.52 37.7223 746.57 37.7124L746.838 38.9403C746.752 38.9735 746.629 39.0066 746.47 39.0398C746.311 39.0762 746.112 39.0961 745.874 39.0994C745.483 39.1061 745.118 39.0365 744.78 38.8906C744.442 38.7448 744.168 38.5194 743.96 38.2145C743.751 37.9096 743.646 37.5268 743.646 37.0661V29.5341Z" fill="#AEAEB2"/>
<path d="M685.236 65.7614V63.2472L692.642 51.5455H694.739V55.125H693.46L688.474 63.0256V63.1619H698.812V65.7614H685.236ZM693.562 69V64.9943L693.597 63.8693V51.5455H696.58V69H693.562ZM707.987 69.3324C706.584 69.3324 705.379 68.9773 704.374 68.267C703.374 67.5511 702.604 66.5199 702.064 65.1733C701.53 63.821 701.263 62.1932 701.263 60.2898C701.268 58.3864 701.538 56.767 702.072 55.4318C702.612 54.0909 703.382 53.0682 704.382 52.3636C705.388 51.6591 706.589 51.3068 707.987 51.3068C709.385 51.3068 710.587 51.6591 711.592 52.3636C712.598 53.0682 713.368 54.0909 713.902 55.4318C714.442 56.7727 714.712 58.392 714.712 60.2898C714.712 62.1989 714.442 63.8295 713.902 65.1818C713.368 66.5284 712.598 67.5568 711.592 68.267C710.592 68.9773 709.391 69.3324 707.987 69.3324ZM707.987 66.6648C709.078 66.6648 709.939 66.1278 710.57 65.054C711.206 63.9744 711.524 62.3864 711.524 60.2898C711.524 58.9034 711.379 57.7386 711.089 56.7955C710.8 55.8523 710.391 55.142 709.862 54.6648C709.334 54.1818 708.709 53.9403 707.987 53.9403C706.902 53.9403 706.044 54.4801 705.413 55.5597C704.783 56.6335 704.464 58.2102 704.459 60.2898C704.453 61.6818 704.592 62.8523 704.876 63.8011C705.166 64.75 705.575 65.4659 706.104 65.9489C706.632 66.4261 707.26 66.6648 707.987 66.6648ZM723.995 69.3324C722.592 69.3324 721.387 68.9773 720.381 68.267C719.381 67.5511 718.612 66.5199 718.072 65.1733C717.538 63.821 717.271 62.1932 717.271 60.2898C717.276 58.3864 717.546 56.767 718.08 55.4318C718.62 54.0909 719.39 53.0682 720.39 52.3636C721.396 51.6591 722.597 51.3068 723.995 51.3068C725.393 51.3068 726.594 51.6591 727.6 52.3636C728.606 53.0682 729.376 54.0909 729.91 55.4318C730.45 56.7727 730.719 58.392 730.719 60.2898C730.719 62.1989 730.45 63.8295 729.91 65.1818C729.376 66.5284 728.606 67.5568 727.6 68.267C726.6 68.9773 725.398 69.3324 723.995 69.3324ZM723.995 66.6648C725.086 66.6648 725.947 66.1278 726.577 65.054C727.214 63.9744 727.532 62.3864 727.532 60.2898C727.532 58.9034 727.387 57.7386 727.097 56.7955C726.808 55.8523 726.398 55.142 725.87 54.6648C725.342 54.1818 724.717 53.9403 723.995 53.9403C722.91 53.9403 722.052 54.4801 721.421 55.5597C720.79 56.6335 720.472 58.2102 720.467 60.2898C720.461 61.6818 720.6 62.8523 720.884 63.8011C721.174 64.75 721.583 65.4659 722.112 65.9489C722.64 66.4261 723.268 66.6648 723.995 66.6648ZM739.101 69V57.3636H743.464C744.358 57.3636 745.108 57.5189 745.714 57.8295C746.324 58.1402 746.785 58.5758 747.095 59.1364C747.41 59.6932 747.567 60.3428 747.567 61.0852C747.567 61.8314 747.408 62.4792 747.089 63.0284C746.775 63.5739 746.311 63.9962 745.697 64.2955C745.084 64.5909 744.33 64.7386 743.436 64.7386H740.328V62.9886H743.152C743.675 62.9886 744.103 62.9167 744.436 62.7727C744.769 62.625 745.016 62.411 745.175 62.1307C745.338 61.8466 745.419 61.4981 745.419 61.0852C745.419 60.6723 745.338 60.3201 745.175 60.0284C745.012 59.733 744.764 59.5095 744.43 59.358C744.097 59.2027 743.667 59.125 743.141 59.125H741.209V69H739.101ZM745.112 63.7273L747.993 69H745.641L742.811 63.7273H745.112ZM749.507 69V57.3636H753.871C754.765 57.3636 755.515 57.5303 756.121 57.8636C756.731 58.197 757.191 58.6553 757.501 59.2386C757.816 59.8182 757.973 60.4773 757.973 61.2159C757.973 61.9621 757.816 62.625 757.501 63.2045C757.187 63.7841 756.723 64.2405 756.109 64.5739C755.496 64.9034 754.74 65.0682 753.842 65.0682H750.95V63.3352H753.558C754.081 63.3352 754.509 63.2443 754.842 63.0625C755.176 62.8807 755.422 62.6307 755.581 62.3125C755.744 61.9943 755.825 61.6288 755.825 61.2159C755.825 60.803 755.744 60.4394 755.581 60.125C755.422 59.8106 755.174 59.5663 754.837 59.392C754.503 59.214 754.073 59.125 753.547 59.125H751.615V69H749.507ZM766.128 60.5625C766.075 60.0663 765.851 59.6799 765.457 59.4034C765.067 59.1269 764.56 58.9886 763.935 58.9886C763.495 58.9886 763.118 59.0549 762.804 59.1875C762.49 59.3201 762.249 59.5 762.082 59.7273C761.916 59.9545 761.83 60.214 761.827 60.5057C761.827 60.7481 761.882 60.9583 761.991 61.1364C762.105 61.3144 762.259 61.4659 762.452 61.5909C762.645 61.7121 762.859 61.8144 763.094 61.8977C763.329 61.9811 763.565 62.0511 763.804 62.108L764.895 62.3807C765.334 62.483 765.757 62.6212 766.162 62.7955C766.571 62.9697 766.937 63.1894 767.259 63.4545C767.584 63.7197 767.842 64.0398 768.031 64.4148C768.221 64.7898 768.315 65.2292 768.315 65.733C768.315 66.4148 768.141 67.0152 767.793 67.5341C767.444 68.0492 766.94 68.4527 766.281 68.7443C765.626 69.0322 764.832 69.1761 763.901 69.1761C762.995 69.1761 762.209 69.036 761.543 68.7557C760.88 68.4754 760.361 68.0663 759.986 67.5284C759.615 66.9905 759.414 66.3352 759.384 65.5625H761.457C761.488 65.9678 761.613 66.3049 761.832 66.5739C762.052 66.8428 762.338 67.0436 762.69 67.1761C763.046 67.3087 763.444 67.375 763.884 67.375C764.342 67.375 764.743 67.3068 765.088 67.1705C765.437 67.0303 765.709 66.8371 765.906 66.5909C766.103 66.3409 766.204 66.0492 766.207 65.7159C766.204 65.4129 766.115 65.1629 765.94 64.9659C765.766 64.7652 765.522 64.5985 765.207 64.4659C764.897 64.3295 764.533 64.2083 764.116 64.1023L762.793 63.7614C761.834 63.5152 761.077 63.142 760.52 62.642C759.967 62.1383 759.69 61.4697 759.69 60.6364C759.69 59.9508 759.876 59.3504 760.247 58.8352C760.622 58.3201 761.132 57.9205 761.776 57.6364C762.42 57.3485 763.149 57.2045 763.963 57.2045C764.789 57.2045 765.512 57.3485 766.134 57.6364C766.759 57.9205 767.249 58.3163 767.605 58.8239C767.961 59.3277 768.145 59.9072 768.156 60.5625H766.128Z" fill="#1E1E1F"/>
<rect x="684" y="92" width="8" height="32" rx="4" fill="#2772F5"/>
<g clip-path="url(#clip1_987_12050)">
<rect x="696" y="92" width="8" height="32" rx="4" fill="#C2DAFF"/>
<rect x="696" y="92" width="8" height="32" rx="4" fill="#2772F5"/>
</g>
<rect x="708" y="92" width="8" height="32" rx="4" fill="#2772F5"/>
<rect x="720" y="92" width="8" height="32" rx="4" fill="#2772F5"/>
<rect x="732" y="92" width="8" height="32" rx="4" fill="#2772F5"/>
<rect x="744" y="92" width="8" height="32" rx="4" fill="#2772F5"/>
<rect x="756" y="92" width="8" height="32" rx="4" fill="#2772F5"/>
<rect x="768" y="92" width="8" height="32" rx="4" fill="#2772F5"/>
<rect x="780" y="92" width="8" height="32" rx="4" fill="#2772F5"/>
<rect x="792" y="92" width="8" height="32" rx="4" fill="#2772F5"/>
<rect x="804" y="92" width="8" height="32" rx="4" fill="#2772F5"/>
<rect x="816" y="92" width="8" height="32" rx="4" fill="#2772F5"/>
<rect x="828" y="92" width="8" height="32" rx="4" fill="#2772F5"/>
<rect x="840" y="92" width="8" height="32" rx="4" fill="#2772F5"/>
<rect x="852" y="92" width="8" height="32" rx="4" fill="#2772F5"/>
<rect x="864" y="92" width="8" height="32" rx="4" fill="#2772F5"/>
<rect x="876" y="92" width="8" height="32" rx="4" fill="#2772F5"/>
<rect x="888" y="92" width="8" height="32" rx="4" fill="#2772F5"/>
<rect x="900" y="92" width="8" height="32" rx="4" fill="#2772F5"/>
<rect x="912" y="92" width="8" height="32" rx="4" fill="#2772F5"/>
<rect x="924" y="92" width="8" height="32" rx="4" fill="#2772F5"/>
<rect x="936" y="92" width="8" height="32" rx="4" fill="#2772F5"/>
<defs>
<clipPath id="clip0_987_12050">
<rect x="352" y="114" width="181" height="8" rx="4" fill="white"/>
</clipPath>
<clipPath id="clip1_987_12050">
<rect x="696" y="92" width="8" height="32" rx="4" fill="white"/>
</clipPath>
</defs>
</svg>
