<svg width="972" height="146" viewBox="0 0 972 146" fill="none" xmlns="http://www.w3.org/2000/svg">
<rect x="0.5" y="0.5" width="311" height="145" rx="23.5" fill="white"/>
<rect x="0.5" y="0.5" width="311" height="145" rx="23.5" stroke="#EDEDF0"/>
<path d="M25.1186 39V28.8182H28.7479C29.54 28.8182 30.1963 28.9624 30.7166 29.2507C31.237 29.5391 31.6264 29.9335 31.8849 30.4339C32.1435 30.9311 32.2727 31.4912 32.2727 32.1143C32.2727 32.7408 32.1418 33.3042 31.88 33.8047C31.6214 34.3018 31.2304 34.6963 30.7067 34.9879C30.1863 35.2763 29.5317 35.4205 28.7429 35.4205H26.2472V34.1179H28.6037C29.1042 34.1179 29.5102 34.0317 29.8217 33.8594C30.1333 33.6837 30.362 33.4451 30.5078 33.1435C30.6536 32.8419 30.7266 32.4988 30.7266 32.1143C30.7266 31.7299 30.6536 31.3885 30.5078 31.0902C30.362 30.7919 30.1316 30.5582 29.8168 30.3892C29.5052 30.2202 29.0942 30.1357 28.5838 30.1357H26.6548V39H25.1186ZM35.5809 28.8182V39H34.0944V28.8182H35.5809ZM39.943 39.169C39.4591 39.169 39.0216 39.0795 38.6305 38.9006C38.2394 38.7183 37.9295 38.4548 37.7008 38.1101C37.4754 37.7654 37.3627 37.3428 37.3627 36.8423C37.3627 36.4115 37.4456 36.0568 37.6113 35.7784C37.777 35.5 38.0008 35.2796 38.2825 35.1172C38.5642 34.9548 38.8791 34.8321 39.2271 34.7493C39.5751 34.6664 39.9297 34.6035 40.291 34.5604C40.7484 34.5073 41.1196 34.4643 41.4046 34.4311C41.6897 34.3946 41.8968 34.3366 42.0261 34.2571C42.1554 34.1776 42.22 34.0483 42.22 33.8693V33.8345C42.22 33.4003 42.0974 33.0639 41.8521 32.8253C41.6101 32.5866 41.2489 32.4673 40.7683 32.4673C40.2678 32.4673 39.8734 32.5784 39.585 32.8004C39.3 33.0192 39.1028 33.2628 38.9934 33.5312L37.5964 33.2131C37.7621 32.7491 38.0041 32.3745 38.3223 32.0895C38.6438 31.8011 39.0133 31.5923 39.4309 31.4631C39.8485 31.3305 40.2877 31.2642 40.7484 31.2642C41.0533 31.2642 41.3765 31.3007 41.7179 31.3736C42.0626 31.4432 42.384 31.5724 42.6823 31.7614C42.984 31.9503 43.2309 32.2204 43.4231 32.5717C43.6153 32.9197 43.7115 33.3722 43.7115 33.929V39H42.2598V37.956H42.2001C42.104 38.1482 41.9598 38.3371 41.7676 38.5227C41.5753 38.7083 41.3284 38.8625 41.0268 38.9851C40.7252 39.1077 40.3639 39.169 39.943 39.169ZM40.2662 37.9759C40.6771 37.9759 41.0285 37.8946 41.3201 37.7322C41.6151 37.5698 41.8388 37.3577 41.9913 37.0959C42.1471 36.8307 42.225 36.5473 42.225 36.2457V35.2614C42.1719 35.3144 42.0692 35.3641 41.9167 35.4105C41.7676 35.4536 41.5969 35.4917 41.4046 35.5249C41.2124 35.5547 41.0251 35.5829 40.8429 35.6094C40.6606 35.6326 40.5081 35.6525 40.3855 35.669C40.0971 35.7055 39.8336 35.7668 39.595 35.853C39.3597 35.9392 39.1707 36.0634 39.0282 36.2259C38.889 36.3849 38.8194 36.5971 38.8194 36.8622C38.8194 37.2301 38.9553 37.5085 39.2271 37.6974C39.4989 37.883 39.8452 37.9759 40.2662 37.9759ZM47.3179 34.4659V39H45.8314V31.3636H47.2582V32.6065H47.3527C47.5284 32.2022 47.8035 31.8774 48.178 31.6321C48.5558 31.3868 49.0314 31.2642 49.6048 31.2642C50.1252 31.2642 50.5809 31.3736 50.972 31.5923C51.3631 31.8078 51.6664 32.1293 51.8818 32.5568C52.0973 32.9844 52.205 33.513 52.205 34.1428V39H50.7185V34.3217C50.7185 33.7682 50.5743 33.3357 50.2859 33.0241C49.9976 32.7093 49.6015 32.5518 49.0977 32.5518C48.753 32.5518 48.4465 32.6264 48.178 32.7756C47.9128 32.9247 47.7024 33.1435 47.5466 33.4318C47.3941 33.7169 47.3179 34.0616 47.3179 34.4659Z" fill="#AEAEB2"/>
<path d="M34.9858 56.5653C34.9176 55.8778 34.625 55.3437 34.108 54.9631C33.5909 54.5824 32.8892 54.392 32.0028 54.392C31.4006 54.392 30.892 54.4773 30.4773 54.6477C30.0625 54.8125 29.7443 55.0426 29.5227 55.3381C29.3068 55.6335 29.1989 55.9688 29.1989 56.3438C29.1875 56.6562 29.2528 56.929 29.3949 57.1619C29.5426 57.3949 29.7443 57.5966 30 57.767C30.2557 57.9318 30.5511 58.0767 30.8864 58.2017C31.2216 58.321 31.5795 58.4233 31.9602 58.5085L33.5284 58.8835C34.2898 59.054 34.9886 59.2812 35.625 59.5653C36.2614 59.8494 36.8125 60.1989 37.2784 60.6136C37.7443 61.0284 38.1051 61.517 38.3608 62.0795C38.6222 62.642 38.7557 63.2869 38.7614 64.0142C38.7557 65.0824 38.483 66.0085 37.9432 66.7926C37.4091 67.571 36.6364 68.1761 35.625 68.608C34.6193 69.0341 33.4063 69.2472 31.9858 69.2472C30.5767 69.2472 29.3494 69.0312 28.304 68.5994C27.2642 68.1676 26.4517 67.5284 25.8665 66.6818C25.2869 65.8295 24.983 64.7756 24.9545 63.5199H28.5256C28.5653 64.1051 28.733 64.5937 29.0284 64.9858C29.3295 65.3722 29.7301 65.6648 30.2301 65.8636C30.7358 66.0568 31.3068 66.1534 31.9432 66.1534C32.5682 66.1534 33.1108 66.0625 33.571 65.8807C34.0369 65.6989 34.3977 65.446 34.6534 65.1222C34.9091 64.7983 35.0369 64.4261 35.0369 64.0057C35.0369 63.6136 34.9205 63.2841 34.6875 63.017C34.4602 62.75 34.125 62.5227 33.6818 62.3352C33.2443 62.1477 32.7074 61.9773 32.071 61.8239L30.1705 61.3466C28.6989 60.9886 27.5369 60.429 26.6847 59.6676C25.8324 58.9062 25.4091 57.8807 25.4148 56.5909C25.4091 55.5341 25.6903 54.6108 26.2585 53.821C26.8324 53.0312 27.6193 52.4148 28.6193 51.9716C29.6193 51.5284 30.7557 51.3068 32.0284 51.3068C33.3239 51.3068 34.4545 51.5284 35.4205 51.9716C36.392 52.4148 37.1477 53.0312 37.6875 53.821C38.2273 54.6108 38.5057 55.5256 38.5227 56.5653H34.9858ZM48.1385 55.9091V58.6364H40.255V55.9091H48.1385ZM42.0447 52.7727H45.6754V64.9773C45.6754 65.3125 45.7266 65.5739 45.8288 65.7614C45.9311 65.9432 46.0732 66.071 46.255 66.1449C46.4425 66.2187 46.6584 66.2557 46.9027 66.2557C47.0732 66.2557 47.2436 66.2415 47.4141 66.2131C47.5845 66.179 47.7152 66.1534 47.8061 66.1364L48.3771 68.8381C48.1953 68.8949 47.9396 68.9602 47.6101 69.0341C47.2805 69.1136 46.88 69.1619 46.4084 69.179C45.5334 69.2131 44.7663 69.0966 44.1072 68.8295C43.4538 68.5625 42.9453 68.1477 42.5817 67.5852C42.218 67.0227 42.0391 66.3125 42.0447 65.4545V52.7727ZM54.2365 69.2472C53.4013 69.2472 52.657 69.1023 52.0036 68.8125C51.3501 68.517 50.8331 68.0824 50.4524 67.5085C50.0774 66.929 49.8899 66.2074 49.8899 65.3438C49.8899 64.6165 50.0234 64.0057 50.2905 63.5114C50.5575 63.017 50.9212 62.6193 51.3814 62.3182C51.8416 62.017 52.3643 61.7898 52.9496 61.6364C53.5405 61.483 54.1598 61.375 54.8075 61.3125C55.5689 61.233 56.1825 61.1591 56.6484 61.0909C57.1143 61.017 57.4524 60.9091 57.6626 60.767C57.8729 60.625 57.978 60.4148 57.978 60.1364V60.0852C57.978 59.5455 57.8075 59.1278 57.4666 58.8324C57.1314 58.5369 56.6541 58.3892 56.0348 58.3892C55.3814 58.3892 54.8615 58.5341 54.4751 58.8239C54.0888 59.108 53.8331 59.4659 53.7081 59.8977L50.3501 59.625C50.5206 58.8295 50.8558 58.142 51.3558 57.5625C51.8558 56.9773 52.5007 56.5284 53.2905 56.2159C54.0859 55.8977 55.0064 55.7386 56.0518 55.7386C56.7791 55.7386 57.4751 55.8239 58.1399 55.9943C58.8104 56.1648 59.4041 56.429 59.9212 56.7869C60.4439 57.1449 60.8558 57.6051 61.157 58.1676C61.4581 58.7244 61.6087 59.392 61.6087 60.1705V69H58.1655V67.1847H58.0632C57.853 67.5938 57.5717 67.9545 57.2195 68.267C56.8672 68.5739 56.4439 68.8153 55.9496 68.9915C55.4553 69.1619 54.8842 69.2472 54.2365 69.2472ZM55.2763 66.7415C55.8104 66.7415 56.282 66.6364 56.6911 66.4261C57.1001 66.2102 57.4212 65.9205 57.6541 65.5568C57.8871 65.1932 58.0036 64.7812 58.0036 64.321V62.9318C57.8899 63.0057 57.7337 63.0739 57.5348 63.1364C57.3416 63.1932 57.1229 63.2472 56.8786 63.2983C56.6342 63.3437 56.3899 63.3864 56.1456 63.4261C55.9013 63.4602 55.6797 63.4915 55.4808 63.5199C55.0547 63.5824 54.6825 63.6818 54.3643 63.8182C54.0462 63.9545 53.799 64.1392 53.6229 64.3722C53.4467 64.5994 53.3587 64.8835 53.3587 65.2244C53.3587 65.7188 53.5376 66.0966 53.8956 66.358C54.2592 66.6136 54.7195 66.7415 55.2763 66.7415ZM64.4254 69V55.9091H67.9453V58.1932H68.0817C68.3203 57.3807 68.7209 56.767 69.2834 56.3523C69.8459 55.9318 70.4936 55.7216 71.2266 55.7216C71.4084 55.7216 71.6044 55.733 71.8146 55.7557C72.0249 55.7784 72.2095 55.8097 72.3686 55.8494V59.071C72.1982 59.0199 71.9624 58.9744 71.6612 58.9347C71.3601 58.8949 71.0845 58.875 70.8345 58.875C70.3004 58.875 69.8232 58.9915 69.4027 59.2244C68.9879 59.4517 68.6584 59.7699 68.4141 60.179C68.1754 60.5881 68.0561 61.0597 68.0561 61.5938V69H64.4254ZM81.8651 55.9091V58.6364H73.9815V55.9091H81.8651ZM75.7713 52.7727H79.402V64.9773C79.402 65.3125 79.4531 65.5739 79.5554 65.7614C79.6577 65.9432 79.7997 66.071 79.9815 66.1449C80.169 66.2187 80.3849 66.2557 80.6293 66.2557C80.7997 66.2557 80.9702 66.2415 81.1406 66.2131C81.3111 66.179 81.4418 66.1534 81.5327 66.1364L82.1037 68.8381C81.9219 68.8949 81.6662 68.9602 81.3366 69.0341C81.0071 69.1136 80.6065 69.1619 80.1349 69.179C79.2599 69.2131 78.4929 69.0966 77.8338 68.8295C77.1804 68.5625 76.6719 68.1477 76.3082 67.5852C75.9446 67.0227 75.7656 66.3125 75.7713 65.4545V52.7727ZM90.0554 69.2557C88.7088 69.2557 87.5497 68.983 86.5781 68.4375C85.6122 67.8864 84.8679 67.108 84.3452 66.1023C83.8224 65.0909 83.5611 63.8949 83.5611 62.5142C83.5611 61.1676 83.8224 59.9858 84.3452 58.9688C84.8679 57.9517 85.6037 57.1591 86.5526 56.5909C87.5071 56.0227 88.6264 55.7386 89.9105 55.7386C90.7741 55.7386 91.5781 55.8778 92.3224 56.1562C93.0724 56.429 93.7259 56.8409 94.2827 57.392C94.8452 57.9432 95.2827 58.6364 95.5952 59.4716C95.9077 60.3011 96.0639 61.2727 96.0639 62.3864V63.3835H85.0099V61.1335H92.6463C92.6463 60.6108 92.5327 60.1477 92.3054 59.7443C92.0781 59.3409 91.7628 59.0256 91.3594 58.7983C90.9616 58.5653 90.4986 58.4489 89.9702 58.4489C89.419 58.4489 88.9304 58.5767 88.5043 58.8324C88.0838 59.0824 87.7543 59.4205 87.5156 59.8466C87.277 60.267 87.1548 60.7358 87.1491 61.2528V63.392C87.1491 64.0398 87.2685 64.5994 87.5071 65.071C87.7514 65.5426 88.0952 65.9062 88.5384 66.1619C88.9815 66.4176 89.5071 66.5455 90.1151 66.5455C90.5185 66.5455 90.8878 66.4886 91.223 66.375C91.5582 66.2614 91.8452 66.0909 92.0838 65.8636C92.3224 65.6364 92.5043 65.358 92.6293 65.0284L95.9872 65.25C95.8168 66.0568 95.4673 66.7614 94.9389 67.3636C94.4162 67.9602 93.7401 68.4261 92.9105 68.7614C92.0866 69.0909 91.1349 69.2557 90.0554 69.2557ZM98.4332 69V55.9091H101.953V58.1932H102.089C102.328 57.3807 102.729 56.767 103.291 56.3523C103.854 55.9318 104.501 55.7216 105.234 55.7216C105.416 55.7216 105.612 55.733 105.822 55.7557C106.033 55.7784 106.217 55.8097 106.376 55.8494V59.071C106.206 59.0199 105.97 58.9744 105.669 58.9347C105.368 58.8949 105.092 58.875 104.842 58.875C104.308 58.875 103.831 58.9915 103.411 59.2244C102.996 59.4517 102.666 59.7699 102.422 60.179C102.183 60.5881 102.064 61.0597 102.064 61.5938V69H98.4332Z" fill="#1E1E1F"/>
<rect x="24" y="98" width="63" height="24" rx="12" fill="#EDEEF0"/>
<path d="M35.756 114.144C35.172 114.144 34.668 114.04 34.244 113.832C33.82 113.624 33.488 113.344 33.248 112.992C33.008 112.632 32.86 112.224 32.804 111.768H33.98C34.06 112.16 34.252 112.484 34.556 112.74C34.868 112.996 35.272 113.124 35.768 113.124C36.128 113.124 36.436 113.04 36.692 112.872C36.956 112.696 37.156 112.46 37.292 112.164C37.436 111.868 37.508 111.54 37.508 111.18C37.508 110.804 37.436 110.476 37.292 110.196C37.156 109.908 36.96 109.688 36.704 109.536C36.448 109.376 36.148 109.296 35.804 109.296C35.388 109.296 35.032 109.384 34.736 109.56C34.448 109.736 34.232 109.956 34.088 110.22H32.924L33.596 105.6H38.144V106.644H34.508L34.088 109.02C34.28 108.804 34.536 108.632 34.856 108.504C35.184 108.368 35.556 108.3 35.972 108.3C36.396 108.3 36.772 108.376 37.1 108.528C37.436 108.672 37.72 108.876 37.952 109.14C38.184 109.404 38.36 109.708 38.48 110.052C38.608 110.396 38.672 110.764 38.672 111.156C38.672 111.572 38.604 111.964 38.468 112.332C38.332 112.692 38.136 113.008 37.88 113.28C37.632 113.552 37.328 113.764 36.968 113.916C36.608 114.068 36.204 114.144 35.756 114.144ZM43.5594 114.144C42.8314 114.144 42.2034 113.964 41.6754 113.604C41.1554 113.236 40.7554 112.728 40.4754 112.08C40.1954 111.424 40.0554 110.664 40.0554 109.8C40.0554 108.936 40.1954 108.18 40.4754 107.532C40.7554 106.876 41.1554 106.368 41.6754 106.008C42.2034 105.64 42.8314 105.456 43.5594 105.456C44.2954 105.456 44.9194 105.64 45.4314 106.008C45.9514 106.368 46.3514 106.876 46.6314 107.532C46.9194 108.18 47.0634 108.936 47.0634 109.8C47.0634 110.664 46.9194 111.424 46.6314 112.08C46.3514 112.728 45.9514 113.236 45.4314 113.604C44.9194 113.964 44.2954 114.144 43.5594 114.144ZM43.5594 113.076C43.9994 113.076 44.3874 112.944 44.7234 112.68C45.0674 112.416 45.3354 112.04 45.5274 111.552C45.7274 111.064 45.8274 110.48 45.8274 109.8C45.8274 109.112 45.7274 108.528 45.5274 108.048C45.3354 107.56 45.0674 107.188 44.7234 106.932C44.3874 106.668 43.9994 106.536 43.5594 106.536C43.1194 106.536 42.7274 106.668 42.3834 106.932C42.0394 107.188 41.7674 107.56 41.5674 108.048C41.3754 108.528 41.2794 109.112 41.2794 109.8C41.2794 110.48 41.3754 111.064 41.5674 111.552C41.7674 112.04 42.0394 112.416 42.3834 112.68C42.7274 112.944 43.1194 113.076 43.5594 113.076ZM48.6319 114V105.6H50.0479L52.8439 111.288L55.6279 105.6H57.0439V114H55.8439V107.712L53.2999 112.848H52.3759L49.8319 107.736V114H48.6319ZM65.809 114.144C64.993 114.144 64.289 113.964 63.697 113.604C63.105 113.236 62.649 112.728 62.329 112.08C62.009 111.424 61.849 110.664 61.849 109.8C61.849 108.944 62.009 108.188 62.329 107.532C62.649 106.876 63.105 106.368 63.697 106.008C64.289 105.64 64.993 105.456 65.809 105.456C66.785 105.456 67.577 105.692 68.185 106.164C68.793 106.636 69.181 107.3 69.349 108.156H68.041C67.913 107.66 67.665 107.264 67.297 106.968C66.929 106.672 66.429 106.524 65.797 106.524C65.245 106.524 64.761 106.656 64.345 106.92C63.937 107.184 63.621 107.56 63.397 108.048C63.181 108.536 63.073 109.12 63.073 109.8C63.073 110.48 63.181 111.068 63.397 111.564C63.621 112.052 63.937 112.428 64.345 112.692C64.761 112.948 65.245 113.076 65.797 113.076C66.429 113.076 66.929 112.936 67.297 112.656C67.665 112.368 67.913 111.98 68.041 111.492H69.349C69.181 112.324 68.793 112.976 68.185 113.448C67.577 113.912 66.785 114.144 65.809 114.144ZM74.0134 114.144C73.4214 114.144 72.8854 114.028 72.4054 113.796C71.9254 113.556 71.5414 113.196 71.2534 112.716C70.9734 112.228 70.8334 111.608 70.8334 110.856V105.6H72.0334V110.868C72.0334 111.372 72.1174 111.788 72.2854 112.116C72.4534 112.436 72.6854 112.676 72.9814 112.836C73.2854 112.988 73.6374 113.064 74.0374 113.064C74.4454 113.064 74.7934 112.988 75.0814 112.836C75.3774 112.676 75.6054 112.436 75.7654 112.116C75.9334 111.788 76.0174 111.372 76.0174 110.868V105.6H77.2174V110.856C77.2174 111.608 77.0734 112.228 76.7854 112.716C76.4974 113.196 76.1094 113.556 75.6214 113.796C75.1414 114.028 74.6054 114.144 74.0134 114.144Z" fill="#1E1E1F"/>
<rect x="94" y="98" width="56" height="24" rx="12" fill="#EDEEF0"/>
<path d="M102.72 114V113.136C103.288 112.704 103.824 112.268 104.328 111.828C104.84 111.388 105.296 110.952 105.696 110.52C106.096 110.08 106.408 109.652 106.632 109.236C106.864 108.812 106.98 108.408 106.98 108.024C106.98 107.752 106.928 107.5 106.824 107.268C106.728 107.036 106.572 106.848 106.356 106.704C106.148 106.552 105.864 106.476 105.504 106.476C105.152 106.476 104.86 106.552 104.628 106.704C104.396 106.856 104.22 107.06 104.1 107.316C103.988 107.564 103.932 107.84 103.932 108.144H102.768C102.776 107.568 102.9 107.08 103.14 106.68C103.38 106.28 103.708 105.976 104.124 105.768C104.54 105.56 105.008 105.456 105.528 105.456C106.064 105.456 106.528 105.556 106.92 105.756C107.312 105.948 107.62 106.232 107.844 106.608C108.068 106.984 108.18 107.436 108.18 107.964C108.18 108.348 108.1 108.732 107.94 109.116C107.788 109.492 107.58 109.86 107.316 110.22C107.052 110.58 106.756 110.928 106.428 111.264C106.108 111.592 105.776 111.904 105.432 112.2C105.088 112.496 104.76 112.764 104.448 113.004H108.432V114H102.72ZM112.86 114.144C112.276 114.144 111.772 114.04 111.348 113.832C110.924 113.624 110.592 113.344 110.352 112.992C110.112 112.632 109.964 112.224 109.908 111.768H111.084C111.164 112.16 111.356 112.484 111.66 112.74C111.972 112.996 112.376 113.124 112.872 113.124C113.232 113.124 113.54 113.04 113.796 112.872C114.06 112.696 114.26 112.46 114.396 112.164C114.54 111.868 114.612 111.54 114.612 111.18C114.612 110.804 114.54 110.476 114.396 110.196C114.26 109.908 114.064 109.688 113.808 109.536C113.552 109.376 113.252 109.296 112.908 109.296C112.492 109.296 112.136 109.384 111.84 109.56C111.552 109.736 111.336 109.956 111.192 110.22H110.028L110.7 105.6H115.248V106.644H111.612L111.192 109.02C111.384 108.804 111.64 108.632 111.96 108.504C112.288 108.368 112.66 108.3 113.076 108.3C113.5 108.3 113.876 108.376 114.204 108.528C114.54 108.672 114.824 108.876 115.056 109.14C115.288 109.404 115.464 109.708 115.584 110.052C115.712 110.396 115.776 110.764 115.776 111.156C115.776 111.572 115.708 111.964 115.572 112.332C115.436 112.692 115.24 113.008 114.984 113.28C114.736 113.552 114.432 113.764 114.072 113.916C113.712 114.068 113.308 114.144 112.86 114.144ZM120.686 114V105.6H123.53C124.194 105.6 124.738 105.712 125.162 105.936C125.586 106.16 125.898 106.46 126.098 106.836C126.306 107.204 126.41 107.624 126.41 108.096C126.41 108.544 126.306 108.96 126.098 109.344C125.898 109.72 125.582 110.024 125.15 110.256C124.718 110.48 124.166 110.592 123.494 110.592H121.886V114H120.686ZM125.102 114L123.29 110.268H124.61L126.494 114H125.102ZM121.886 109.68H123.458C124.05 109.68 124.482 109.536 124.754 109.248C125.034 108.952 125.174 108.576 125.174 108.12C125.174 107.656 125.038 107.288 124.766 107.016C124.494 106.744 124.054 106.608 123.446 106.608H121.886V109.68ZM128.106 114V105.6H130.962C131.634 105.6 132.186 105.712 132.618 105.936C133.058 106.16 133.382 106.464 133.59 106.848C133.798 107.224 133.902 107.656 133.902 108.144C133.902 108.608 133.798 109.032 133.59 109.416C133.382 109.8 133.062 110.108 132.63 110.34C132.198 110.564 131.642 110.676 130.962 110.676H129.306V114H128.106ZM129.306 109.68H130.914C131.554 109.68 132.006 109.54 132.27 109.26C132.542 108.98 132.678 108.608 132.678 108.144C132.678 107.656 132.542 107.276 132.27 107.004C132.006 106.732 131.554 106.596 130.914 106.596H129.306V109.68ZM138.088 114.144C137.48 114.144 136.944 114.036 136.48 113.82C136.016 113.596 135.656 113.284 135.4 112.884C135.144 112.484 135.012 112.016 135.004 111.48H136.276C136.276 111.784 136.344 112.064 136.48 112.32C136.624 112.568 136.828 112.768 137.092 112.92C137.364 113.064 137.696 113.136 138.088 113.136C138.424 113.136 138.712 113.08 138.952 112.968C139.2 112.856 139.388 112.704 139.516 112.512C139.644 112.312 139.708 112.084 139.708 111.828C139.708 111.54 139.644 111.304 139.516 111.12C139.388 110.928 139.208 110.768 138.976 110.64C138.752 110.512 138.492 110.4 138.196 110.304C137.908 110.208 137.596 110.104 137.26 109.992C136.58 109.768 136.076 109.484 135.748 109.14C135.428 108.796 135.268 108.348 135.268 107.796C135.268 107.324 135.376 106.916 135.592 106.572C135.816 106.22 136.132 105.948 136.54 105.756C136.948 105.556 137.424 105.456 137.968 105.456C138.52 105.456 138.996 105.556 139.396 105.756C139.804 105.956 140.124 106.232 140.356 106.584C140.588 106.936 140.708 107.348 140.716 107.82H139.444C139.444 107.604 139.384 107.392 139.264 107.184C139.152 106.976 138.984 106.808 138.76 106.68C138.544 106.544 138.272 106.476 137.944 106.476C137.664 106.468 137.416 106.512 137.2 106.608C136.984 106.704 136.816 106.844 136.696 107.028C136.576 107.212 136.516 107.432 136.516 107.688C136.516 107.944 136.572 108.152 136.684 108.312C136.796 108.464 136.952 108.596 137.152 108.708C137.36 108.82 137.604 108.924 137.884 109.02C138.164 109.108 138.472 109.208 138.808 109.32C139.216 109.456 139.584 109.624 139.912 109.824C140.24 110.016 140.496 110.268 140.68 110.58C140.872 110.884 140.968 111.276 140.968 111.756C140.968 112.172 140.86 112.56 140.644 112.92C140.428 113.28 140.108 113.576 139.684 113.808C139.26 114.032 138.728 114.144 138.088 114.144Z" fill="#1E1E1F"/>
<path d="M212.423 104.818H214.267V111.47C214.267 112.199 214.095 112.841 213.75 113.394C213.409 113.948 212.928 114.38 212.308 114.692C211.688 115 210.964 115.154 210.136 115.154C209.304 115.154 208.578 115 207.958 114.692C207.338 114.38 206.858 113.948 206.516 113.394C206.175 112.841 206.004 112.199 206.004 111.47V104.818H207.849V111.316C207.849 111.74 207.942 112.118 208.127 112.45C208.316 112.781 208.581 113.041 208.923 113.23C209.264 113.416 209.668 113.509 210.136 113.509C210.603 113.509 211.007 113.416 211.349 113.23C211.693 113.041 211.959 112.781 212.144 112.45C212.33 112.118 212.423 111.74 212.423 111.316V104.818ZM218.132 110.526V115H216.332V107.364H218.052V108.661H218.142C218.318 108.234 218.598 107.894 218.982 107.642C219.37 107.39 219.849 107.264 220.419 107.264C220.946 107.264 221.405 107.377 221.796 107.602C222.19 107.828 222.495 108.154 222.711 108.582C222.93 109.009 223.037 109.528 223.034 110.138V115H221.234V110.416C221.234 109.906 221.102 109.506 220.837 109.218C220.575 108.93 220.212 108.786 219.748 108.786C219.433 108.786 219.153 108.855 218.908 108.994C218.666 109.13 218.475 109.327 218.336 109.586C218.2 109.844 218.132 110.158 218.132 110.526ZM228.817 107.364V108.756H224.427V107.364H228.817ZM225.511 105.534H227.31V112.703C227.31 112.945 227.347 113.131 227.42 113.26C227.496 113.386 227.595 113.472 227.718 113.518C227.841 113.565 227.977 113.588 228.126 113.588C228.238 113.588 228.341 113.58 228.434 113.563C228.53 113.547 228.603 113.532 228.653 113.518L228.956 114.925C228.86 114.959 228.722 114.995 228.543 115.035C228.368 115.075 228.152 115.098 227.897 115.104C227.446 115.118 227.04 115.05 226.679 114.901C226.318 114.748 226.031 114.513 225.819 114.195C225.61 113.876 225.507 113.479 225.511 113.001V105.534ZM230.462 115V107.364H232.262V115H230.462ZM231.367 106.28C231.082 106.28 230.836 106.185 230.631 105.996C230.425 105.804 230.323 105.574 230.323 105.305C230.323 105.034 230.425 104.803 230.631 104.614C230.836 104.422 231.082 104.326 231.367 104.326C231.655 104.326 231.9 104.422 232.103 104.614C232.308 104.803 232.411 105.034 232.411 105.305C232.411 105.574 232.308 105.804 232.103 105.996C231.9 106.185 231.655 106.28 231.367 106.28ZM236.052 104.818V115H234.252V104.818H236.052ZM250.102 104.818V115H248.461L243.664 108.065H243.579V115H241.735V104.818H243.385L248.178 111.759H248.268V104.818H250.102ZM255.503 115.149C254.758 115.149 254.111 114.985 253.564 114.657C253.017 114.329 252.593 113.87 252.292 113.28C251.993 112.69 251.844 112 251.844 111.212C251.844 110.423 251.993 109.732 252.292 109.138C252.593 108.545 253.017 108.085 253.564 107.756C254.111 107.428 254.758 107.264 255.503 107.264C256.249 107.264 256.895 107.428 257.442 107.756C257.989 108.085 258.412 108.545 258.71 109.138C259.012 109.732 259.162 110.423 259.162 111.212C259.162 112 259.012 112.69 258.71 113.28C258.412 113.87 257.989 114.329 257.442 114.657C256.895 114.985 256.249 115.149 255.503 115.149ZM255.513 113.707C255.918 113.707 256.256 113.596 256.527 113.374C256.799 113.149 257.001 112.847 257.134 112.469C257.27 112.092 257.338 111.671 257.338 111.207C257.338 110.739 257.27 110.317 257.134 109.939C257.001 109.558 256.799 109.254 256.527 109.029C256.256 108.804 255.918 108.691 255.513 108.691C255.099 108.691 254.754 108.804 254.479 109.029C254.207 109.254 254.003 109.558 253.868 109.939C253.735 110.317 253.669 110.739 253.669 111.207C253.669 111.671 253.735 112.092 253.868 112.469C254.003 112.847 254.207 113.149 254.479 113.374C254.754 113.596 255.099 113.707 255.513 113.707ZM267.391 107.364L264.672 115H262.683L259.964 107.364H261.883L263.638 113.036H263.717L265.477 107.364H267.391ZM276.511 104.818V115H274.666V106.613H274.607L272.225 108.134V106.444L274.756 104.818H276.511ZM282.999 115.194C282.181 115.194 281.478 114.987 280.891 114.572C280.308 114.155 279.859 113.553 279.544 112.768C279.233 111.979 279.077 111.029 279.077 109.919C279.08 108.809 279.238 107.864 279.549 107.085C279.864 106.303 280.313 105.706 280.896 105.295C281.483 104.884 282.184 104.679 282.999 104.679C283.815 104.679 284.516 104.884 285.102 105.295C285.689 105.706 286.138 106.303 286.45 107.085C286.764 107.867 286.922 108.812 286.922 109.919C286.922 111.033 286.764 111.984 286.45 112.773C286.138 113.558 285.689 114.158 285.102 114.572C284.519 114.987 283.818 115.194 282.999 115.194ZM282.999 113.638C283.636 113.638 284.138 113.325 284.506 112.698C284.877 112.068 285.063 111.142 285.063 109.919C285.063 109.11 284.978 108.431 284.809 107.881C284.64 107.33 284.401 106.916 284.093 106.638C283.785 106.356 283.42 106.215 282.999 106.215C282.366 106.215 281.866 106.53 281.498 107.16C281.13 107.786 280.944 108.706 280.941 109.919C280.938 110.731 281.019 111.414 281.185 111.967C281.354 112.521 281.592 112.938 281.901 113.22C282.209 113.499 282.575 113.638 282.999 113.638Z" fill="#0B57D0"/>
<rect x="328.5" y="0.5" width="315" height="145" rx="23.5" fill="white"/>
<rect x="328.5" y="0.5" width="315" height="145" rx="23.5" stroke="#EDEDF0"/>
<path d="M361.575 32.1293H360.024C359.964 31.7978 359.853 31.5062 359.691 31.2543C359.529 31.0024 359.33 30.7886 359.094 30.6129C358.859 30.4373 358.596 30.3047 358.304 30.2152C358.016 30.1257 357.709 30.081 357.384 30.081C356.798 30.081 356.272 30.2285 355.808 30.5234C355.348 30.8184 354.983 31.2509 354.714 31.821C354.449 32.3911 354.317 33.0871 354.317 33.9091C354.317 34.7377 354.449 35.437 354.714 36.0071C354.983 36.5772 355.349 37.008 355.813 37.2997C356.277 37.5914 356.799 37.7372 357.379 37.7372C357.701 37.7372 358.006 37.6941 358.294 37.608C358.586 37.5185 358.849 37.3875 359.085 37.2152C359.32 37.0429 359.519 36.8324 359.681 36.5838C359.847 36.3319 359.961 36.0436 360.024 35.7188L361.575 35.7237C361.492 36.2242 361.332 36.6849 361.093 37.1058C360.858 37.5234 360.554 37.8847 360.183 38.1896C359.815 38.4912 359.394 38.7249 358.92 38.8906C358.446 39.0563 357.929 39.1392 357.369 39.1392C356.488 39.1392 355.702 38.9304 355.013 38.5128C354.323 38.0919 353.78 37.4903 353.382 36.7081C352.988 35.9259 352.79 34.9929 352.79 33.9091C352.79 32.822 352.989 31.889 353.387 31.1101C353.785 30.3279 354.328 29.728 355.018 29.3104C355.707 28.8894 356.491 28.679 357.369 28.679C357.91 28.679 358.413 28.7569 358.881 28.9126C359.351 29.0651 359.774 29.2905 360.148 29.5888C360.523 29.8838 360.833 30.245 361.078 30.6726C361.323 31.0968 361.489 31.5824 361.575 32.1293ZM370.101 28.8182H371.642V35.5149C371.642 36.2275 371.475 36.8589 371.14 37.4091C370.805 37.956 370.335 38.3868 369.728 38.7017C369.122 39.0133 368.411 39.169 367.595 39.169C366.783 39.169 366.074 39.0133 365.468 38.7017C364.861 38.3868 364.39 37.956 364.056 37.4091C363.721 36.8589 363.554 36.2275 363.554 35.5149V28.8182H365.09V35.3906C365.09 35.8513 365.191 36.2607 365.393 36.6186C365.599 36.9766 365.889 37.2583 366.263 37.4638C366.638 37.666 367.082 37.767 367.595 37.767C368.112 37.767 368.558 37.666 368.933 37.4638C369.311 37.2583 369.599 36.9766 369.798 36.6186C370 36.2607 370.101 35.8513 370.101 35.3906V28.8182ZM377.861 39V28.8182H379.347V32.6016H379.437C379.523 32.4425 379.647 32.2585 379.81 32.0497C379.972 31.8409 380.198 31.6586 380.486 31.5028C380.774 31.3438 381.155 31.2642 381.629 31.2642C382.246 31.2642 382.796 31.42 383.28 31.7315C383.764 32.0431 384.143 32.4922 384.418 33.0788C384.697 33.6655 384.836 34.3714 384.836 35.1967C384.836 36.022 384.698 36.7296 384.423 37.3196C384.148 37.9062 383.77 38.3587 383.29 38.6768C382.809 38.9917 382.261 39.1491 381.644 39.1491C381.18 39.1491 380.801 39.0713 380.506 38.9155C380.214 38.7597 379.985 38.5774 379.82 38.3686C379.654 38.1598 379.526 37.9742 379.437 37.8118H379.313V39H377.861ZM379.318 35.1818C379.318 35.7187 379.395 36.1894 379.551 36.5938C379.707 36.9981 379.932 37.3146 380.227 37.5433C380.522 37.7687 380.884 37.8814 381.311 37.8814C381.755 37.8814 382.126 37.7637 382.425 37.5284C382.723 37.2898 382.948 36.9666 383.101 36.5589C383.257 36.1513 383.335 35.6922 383.335 35.1818C383.335 34.678 383.258 34.2256 383.106 33.8246C382.957 33.4235 382.731 33.107 382.43 32.875C382.131 32.643 381.759 32.527 381.311 32.527C380.88 32.527 380.516 32.638 380.217 32.8601C379.922 33.0821 379.699 33.392 379.546 33.7898C379.394 34.1875 379.318 34.6515 379.318 35.1818ZM388.868 39.169C388.384 39.169 387.946 39.0795 387.555 38.9006C387.164 38.7183 386.854 38.4548 386.625 38.1101C386.4 37.7654 386.287 37.3428 386.287 36.8423C386.287 36.4115 386.37 36.0568 386.536 35.7784C386.702 35.5 386.925 35.2796 387.207 35.1172C387.489 34.9548 387.804 34.8321 388.152 34.7493C388.5 34.6664 388.854 34.6035 389.216 34.5604C389.673 34.5073 390.044 34.4643 390.329 34.4311C390.614 34.3946 390.821 34.3366 390.951 34.2571C391.08 34.1776 391.145 34.0483 391.145 33.8693V33.8345C391.145 33.4003 391.022 33.0639 390.777 32.8253C390.535 32.5866 390.173 32.4673 389.693 32.4673C389.192 32.4673 388.798 32.5784 388.51 32.8004C388.225 33.0192 388.027 33.2628 387.918 33.5312L386.521 33.2131C386.687 32.7491 386.929 32.3745 387.247 32.0895C387.568 31.8011 387.938 31.5923 388.355 31.4631C388.773 31.3305 389.212 31.2642 389.673 31.2642C389.978 31.2642 390.301 31.3007 390.642 31.3736C390.987 31.4432 391.309 31.5724 391.607 31.7614C391.908 31.9503 392.155 32.2204 392.348 32.5717C392.54 32.9197 392.636 33.3722 392.636 33.929V39H391.184V37.956H391.125C391.029 38.1482 390.884 38.3371 390.692 38.5227C390.5 38.7083 390.253 38.8625 389.951 38.9851C389.65 39.1077 389.288 39.169 388.868 39.169ZM389.191 37.9759C389.602 37.9759 389.953 37.8946 390.245 37.7322C390.54 37.5698 390.763 37.3577 390.916 37.0959C391.072 36.8307 391.149 36.5473 391.149 36.2457V35.2614C391.096 35.3144 390.994 35.3641 390.841 35.4105C390.692 35.4536 390.521 35.4917 390.329 35.5249C390.137 35.5547 389.95 35.5829 389.767 35.6094C389.585 35.6326 389.433 35.6525 389.31 35.669C389.022 35.7055 388.758 35.7668 388.52 35.853C388.284 35.9392 388.095 36.0634 387.953 36.2259C387.814 36.3849 387.744 36.5971 387.744 36.8622C387.744 37.2301 387.88 37.5085 388.152 37.6974C388.423 37.883 388.77 37.9759 389.191 37.9759ZM396.242 28.8182V39H394.756V28.8182H396.242ZM400.605 39.169C400.121 39.169 399.683 39.0795 399.292 38.9006C398.901 38.7183 398.591 38.4548 398.362 38.1101C398.137 37.7654 398.024 37.3428 398.024 36.8423C398.024 36.4115 398.107 36.0568 398.273 35.7784C398.439 35.5 398.662 35.2796 398.944 35.1172C399.226 34.9548 399.541 34.8321 399.889 34.7493C400.237 34.6664 400.591 34.6035 400.953 34.5604C401.41 34.5073 401.781 34.4643 402.066 34.4311C402.351 34.3946 402.558 34.3366 402.688 34.2571C402.817 34.1776 402.882 34.0483 402.882 33.8693V33.8345C402.882 33.4003 402.759 33.0639 402.514 32.8253C402.272 32.5866 401.91 32.4673 401.43 32.4673C400.929 32.4673 400.535 32.5784 400.247 32.8004C399.962 33.0192 399.764 33.2628 399.655 33.5312L398.258 33.2131C398.424 32.7491 398.666 32.3745 398.984 32.0895C399.305 31.8011 399.675 31.5923 400.092 31.4631C400.51 31.3305 400.949 31.2642 401.41 31.2642C401.715 31.2642 402.038 31.3007 402.379 31.3736C402.724 31.4432 403.046 31.5724 403.344 31.7614C403.646 31.9503 403.892 32.2204 404.085 32.5717C404.277 32.9197 404.373 33.3722 404.373 33.929V39H402.921V37.956H402.862C402.766 38.1482 402.621 38.3371 402.429 38.5227C402.237 38.7083 401.99 38.8625 401.688 38.9851C401.387 39.1077 401.025 39.169 400.605 39.169ZM400.928 37.9759C401.339 37.9759 401.69 37.8946 401.982 37.7322C402.277 37.5698 402.5 37.3577 402.653 37.0959C402.809 36.8307 402.887 36.5473 402.887 36.2457V35.2614C402.833 35.3144 402.731 35.3641 402.578 35.4105C402.429 35.4536 402.258 35.4917 402.066 35.5249C401.874 35.5547 401.687 35.5829 401.504 35.6094C401.322 35.6326 401.17 35.6525 401.047 35.669C400.759 35.7055 400.495 35.7668 400.257 35.853C400.021 35.9392 399.832 36.0634 399.69 36.2259C399.551 36.3849 399.481 36.5971 399.481 36.8622C399.481 37.2301 399.617 37.5085 399.889 37.6974C400.16 37.883 400.507 37.9759 400.928 37.9759ZM407.979 34.4659V39H406.493V31.3636H407.92V32.6065H408.014C408.19 32.2022 408.465 31.8774 408.84 31.6321C409.217 31.3868 409.693 31.2642 410.266 31.2642C410.787 31.2642 411.242 31.3736 411.634 31.5923C412.025 31.8078 412.328 32.1293 412.543 32.5568C412.759 32.9844 412.867 33.513 412.867 34.1428V39H411.38V34.3217C411.38 33.7682 411.236 33.3357 410.948 33.0241C410.659 32.7093 410.263 32.5518 409.759 32.5518C409.415 32.5518 409.108 32.6264 408.84 32.7756C408.574 32.9247 408.364 33.1435 408.208 33.4318C408.056 33.7169 407.979 34.0616 407.979 34.4659ZM418.217 39.1541C417.478 39.1541 416.841 38.9867 416.308 38.652C415.777 38.3139 415.37 37.8482 415.085 37.255C414.8 36.6617 414.657 35.9822 414.657 35.2166C414.657 34.4411 414.803 33.7566 415.095 33.1634C415.386 32.5668 415.797 32.1011 416.328 31.7663C416.858 31.4316 417.483 31.2642 418.202 31.2642C418.782 31.2642 419.299 31.3719 419.753 31.5874C420.207 31.7995 420.573 32.0978 420.852 32.4822C421.133 32.8667 421.301 33.3158 421.354 33.8295H419.907C419.828 33.4716 419.645 33.1634 419.36 32.9048C419.079 32.6463 418.701 32.517 418.227 32.517C417.812 32.517 417.449 32.6264 417.138 32.8452C416.83 33.0606 416.589 33.3688 416.417 33.7699C416.245 34.1676 416.159 34.6383 416.159 35.1818C416.159 35.7386 416.243 36.2192 416.412 36.6236C416.581 37.0279 416.82 37.3411 417.128 37.5632C417.44 37.7853 417.806 37.8963 418.227 37.8963C418.508 37.8963 418.764 37.8449 418.992 37.7422C419.224 37.6361 419.418 37.4853 419.574 37.2898C419.733 37.0942 419.844 36.8589 419.907 36.5838H421.354C421.301 37.0777 421.14 37.5185 420.872 37.9062C420.603 38.294 420.244 38.599 419.793 38.821C419.345 39.0431 418.82 39.1541 418.217 39.1541ZM426.375 39.1541C425.622 39.1541 424.974 38.9934 424.431 38.6719C423.891 38.3471 423.473 37.8913 423.178 37.3047C422.886 36.7147 422.74 36.0237 422.74 35.2315C422.74 34.4493 422.886 33.7599 423.178 33.1634C423.473 32.5668 423.884 32.1011 424.411 31.7663C424.941 31.4316 425.561 31.2642 426.27 31.2642C426.701 31.2642 427.119 31.3355 427.523 31.478C427.927 31.6205 428.29 31.8442 428.612 32.1491C428.933 32.4541 429.187 32.8501 429.373 33.3374C429.558 33.8213 429.651 34.4096 429.651 35.1023V35.6293H423.581V34.5156H428.194C428.194 34.1245 428.115 33.7782 427.956 33.4766C427.797 33.1716 427.573 32.9313 427.285 32.7557C426.999 32.58 426.665 32.4922 426.28 32.4922C425.863 32.4922 425.498 32.5949 425.186 32.8004C424.878 33.0026 424.64 33.2678 424.471 33.5959C424.305 33.9207 424.222 34.2737 424.222 34.6548V35.5249C424.222 36.0353 424.311 36.4695 424.49 36.8274C424.673 37.1854 424.926 37.4588 425.251 37.6477C425.576 37.8333 425.955 37.9261 426.39 37.9261C426.671 37.9261 426.928 37.8864 427.16 37.8068C427.392 37.724 427.593 37.6013 427.762 37.4389C427.931 37.2765 428.06 37.076 428.15 36.8374L429.557 37.0909C429.444 37.5052 429.242 37.8681 428.95 38.1797C428.662 38.4879 428.299 38.7282 427.861 38.9006C427.427 39.0696 426.932 39.1541 426.375 39.1541Z" fill="#AEAEB2"/>
<path d="M359.815 69.2386C358.588 69.2386 357.497 69.0284 356.543 68.608C355.594 68.1875 354.844 67.6023 354.293 66.8523C353.741 66.1023 353.449 65.2358 353.415 64.2528H356.619C356.648 64.7244 356.804 65.1364 357.088 65.4886C357.372 65.8352 357.75 66.1051 358.222 66.2983C358.693 66.4915 359.222 66.5881 359.807 66.5881C360.432 66.5881 360.986 66.4801 361.469 66.2642C361.952 66.0426 362.33 65.7358 362.602 65.3438C362.875 64.9517 363.009 64.5 363.003 63.9886C363.009 63.4602 362.872 62.9943 362.594 62.5909C362.315 62.1875 361.912 61.8722 361.384 61.6449C360.861 61.4176 360.23 61.304 359.491 61.304H357.949V58.8665H359.491C360.099 58.8665 360.631 58.7614 361.085 58.5511C361.545 58.3409 361.906 58.0455 362.168 57.6648C362.429 57.2784 362.557 56.8324 362.551 56.3267C362.557 55.8324 362.446 55.4034 362.219 55.0398C361.997 54.6705 361.682 54.3835 361.273 54.179C360.869 53.9744 360.395 53.8722 359.849 53.8722C359.315 53.8722 358.821 53.9687 358.366 54.1619C357.912 54.3551 357.545 54.6307 357.267 54.9886C356.989 55.3409 356.841 55.7614 356.824 56.25H353.781C353.804 55.2727 354.085 54.4148 354.625 53.6761C355.17 52.9318 355.898 52.3523 356.807 51.9375C357.716 51.517 358.736 51.3068 359.866 51.3068C361.031 51.3068 362.043 51.5256 362.901 51.9631C363.764 52.3949 364.432 52.9773 364.903 53.7102C365.375 54.4432 365.611 55.2528 365.611 56.1392C365.616 57.1222 365.327 57.946 364.741 58.6108C364.162 59.2756 363.401 59.7102 362.457 59.9148V60.0511C363.685 60.2216 364.625 60.6761 365.278 61.4148C365.938 62.1477 366.264 63.0597 366.259 64.1506C366.259 65.1278 365.98 66.0028 365.423 66.7756C364.872 67.5426 364.111 68.1449 363.139 68.5824C362.173 69.0199 361.065 69.2386 359.815 69.2386ZM369.823 69L377.246 54.3068V54.1875H368.63V51.5455H380.519V54.2472L373.104 69H369.823ZM388.908 65.7614V63.2472L396.314 51.5455H398.411V55.125H397.132L392.146 63.0256V63.1619H402.484V65.7614H388.908ZM397.234 69V64.9943L397.268 63.8693V51.5455H400.251V69H397.234ZM411.599 69.2386C410.764 69.233 409.949 69.0881 409.153 68.804C408.358 68.5142 407.642 68.0455 407.006 67.3977C406.369 66.7443 405.864 65.8778 405.489 64.7983C405.114 63.7131 404.929 62.3693 404.935 60.767C404.935 59.2727 405.094 57.9403 405.412 56.7699C405.73 55.5994 406.188 54.6108 406.784 53.804C407.381 52.9915 408.099 52.3722 408.94 51.946C409.787 51.5199 410.733 51.3068 411.778 51.3068C412.875 51.3068 413.847 51.5227 414.693 51.9545C415.545 52.3864 416.233 52.9773 416.756 53.7273C417.278 54.4716 417.602 55.3125 417.727 56.25H414.616C414.457 55.5795 414.131 55.0455 413.636 54.6477C413.148 54.2443 412.528 54.0426 411.778 54.0426C410.568 54.0426 409.636 54.5682 408.983 55.6193C408.335 56.6705 408.009 58.1136 408.003 59.9489H408.122C408.401 59.4489 408.761 59.0199 409.205 58.6619C409.648 58.304 410.148 58.0284 410.705 57.8352C411.267 57.6364 411.861 57.5369 412.486 57.5369C413.509 57.5369 414.426 57.7812 415.239 58.2699C416.057 58.7585 416.705 59.4318 417.182 60.2898C417.659 61.142 417.895 62.1193 417.889 63.2216C417.895 64.3693 417.634 65.4006 417.105 66.3153C416.577 67.2244 415.841 67.9403 414.898 68.4631C413.955 68.9858 412.855 69.2443 411.599 69.2386ZM411.582 66.6818C412.202 66.6818 412.756 66.5312 413.244 66.2301C413.733 65.929 414.119 65.5227 414.403 65.0114C414.688 64.5 414.827 63.9261 414.821 63.2898C414.827 62.6648 414.69 62.0994 414.412 61.5938C414.139 61.0881 413.761 60.6875 413.278 60.392C412.795 60.0966 412.244 59.9489 411.625 59.9489C411.165 59.9489 410.736 60.0369 410.338 60.2131C409.94 60.3892 409.594 60.6335 409.298 60.946C409.003 61.2528 408.77 61.6108 408.599 62.0199C408.435 62.4233 408.349 62.8551 408.344 63.3153C408.349 63.9233 408.491 64.483 408.77 64.9943C409.048 65.5057 409.432 65.9148 409.92 66.2216C410.409 66.5284 410.963 66.6818 411.582 66.6818ZM426.838 69.2386C425.702 69.2386 424.685 69.0256 423.787 68.5994C422.889 68.1676 422.176 67.5767 421.648 66.8267C421.125 66.0767 420.847 65.2187 420.812 64.2528H423.881C423.938 64.9687 424.247 65.554 424.81 66.0085C425.372 66.4574 426.048 66.6818 426.838 66.6818C427.457 66.6818 428.009 66.5398 428.491 66.2557C428.974 65.9716 429.355 65.5767 429.634 65.071C429.912 64.5653 430.048 63.9886 430.043 63.3409C430.048 62.6818 429.909 62.0966 429.625 61.5852C429.341 61.0739 428.952 60.6733 428.457 60.3835C427.963 60.0881 427.395 59.9403 426.753 59.9403C426.23 59.9347 425.716 60.0312 425.21 60.2301C424.705 60.429 424.304 60.6903 424.009 61.0142L421.153 60.5455L422.065 51.5455H432.19V54.1875H424.682L424.179 58.8153H424.281C424.605 58.4347 425.063 58.1193 425.653 57.8693C426.244 57.6136 426.892 57.4858 427.597 57.4858C428.653 57.4858 429.597 57.7358 430.426 58.2358C431.256 58.7301 431.909 59.4119 432.386 60.2812C432.864 61.1506 433.102 62.1449 433.102 63.2642C433.102 64.4176 432.835 65.446 432.301 66.3494C431.773 67.2472 431.037 67.9545 430.094 68.4716C429.156 68.983 428.071 69.2386 426.838 69.2386ZM448.115 69.2386C446.848 69.2386 445.723 69.0256 444.74 68.5994C443.763 68.1733 442.996 67.5909 442.439 66.8523C441.888 66.108 441.615 65.2642 441.621 64.321C441.615 63.5881 441.774 62.9148 442.098 62.3011C442.422 61.6875 442.859 61.1761 443.411 60.767C443.967 60.3523 444.587 60.0881 445.268 59.9744V59.8551C444.371 59.6562 443.643 59.1989 443.087 58.483C442.536 57.7614 442.263 56.929 442.268 55.9858C442.263 55.0881 442.513 54.2869 443.018 53.5824C443.524 52.8778 444.217 52.3239 445.098 51.9205C445.979 51.5114 446.984 51.3068 448.115 51.3068C449.234 51.3068 450.232 51.5114 451.107 51.9205C451.987 52.3239 452.68 52.8778 453.186 53.5824C453.697 54.2869 453.953 55.0881 453.953 55.9858C453.953 56.929 453.672 57.7614 453.109 58.483C452.553 59.1989 451.834 59.6562 450.953 59.8551V59.9744C451.635 60.0881 452.249 60.3523 452.794 60.767C453.345 61.1761 453.783 61.6875 454.107 62.3011C454.436 62.9148 454.601 63.5881 454.601 64.321C454.601 65.2642 454.322 66.108 453.766 66.8523C453.209 67.5909 452.442 68.1733 451.464 68.5994C450.493 69.0256 449.376 69.2386 448.115 69.2386ZM448.115 66.8011C448.768 66.8011 449.337 66.6903 449.82 66.4688C450.303 66.2415 450.678 65.9233 450.945 65.5142C451.212 65.1051 451.348 64.6335 451.354 64.0994C451.348 63.5426 451.203 63.0511 450.919 62.625C450.641 62.1932 450.257 61.8551 449.768 61.6108C449.286 61.3665 448.734 61.2443 448.115 61.2443C447.49 61.2443 446.933 61.3665 446.445 61.6108C445.956 61.8551 445.57 62.1932 445.286 62.625C445.007 63.0511 444.871 63.5426 444.876 64.0994C444.871 64.6335 445.001 65.1051 445.268 65.5142C445.536 65.9176 445.911 66.233 446.393 66.4602C446.882 66.6875 447.456 66.8011 448.115 66.8011ZM448.115 58.8494C448.649 58.8494 449.121 58.7415 449.53 58.5256C449.945 58.3097 450.271 58.0085 450.51 57.6222C450.749 57.2358 450.871 56.7898 450.876 56.2841C450.871 55.7841 450.751 55.3466 450.518 54.9716C450.286 54.5909 449.962 54.2983 449.547 54.0938C449.132 53.8835 448.655 53.7784 448.115 53.7784C447.564 53.7784 447.078 53.8835 446.658 54.0938C446.243 54.2983 445.919 54.5909 445.686 54.9716C445.459 55.3466 445.348 55.7841 445.354 56.2841C445.348 56.7898 445.462 57.2358 445.695 57.6222C445.933 58.0028 446.26 58.304 446.675 58.5256C447.095 58.7415 447.575 58.8494 448.115 58.8494ZM463.462 51.3068C464.298 51.3125 465.11 51.4602 465.9 51.75C466.695 52.0341 467.411 52.5 468.048 53.1477C468.684 53.7898 469.19 54.6506 469.565 55.7301C469.94 56.8097 470.127 58.1449 470.127 59.7358C470.133 61.2358 469.974 62.5767 469.65 63.7585C469.332 64.9347 468.874 65.929 468.278 66.7415C467.681 67.554 466.962 68.1733 466.121 68.5994C465.281 69.0256 464.335 69.2386 463.283 69.2386C462.181 69.2386 461.204 69.0227 460.352 68.5909C459.505 68.1591 458.82 67.5682 458.298 66.8182C457.775 66.0682 457.454 65.2102 457.335 64.2443H460.445C460.604 64.9375 460.928 65.4886 461.417 65.8977C461.911 66.3011 462.533 66.5028 463.283 66.5028C464.494 66.5028 465.425 65.9773 466.079 64.9261C466.732 63.875 467.059 62.4148 467.059 60.5455H466.94C466.661 61.0455 466.3 61.4773 465.857 61.8409C465.414 62.1989 464.911 62.4744 464.349 62.6676C463.792 62.8608 463.201 62.9574 462.576 62.9574C461.553 62.9574 460.633 62.7131 459.815 62.2244C459.002 61.7358 458.357 61.0653 457.88 60.2131C457.408 59.3608 457.17 58.3864 457.164 57.2898C457.164 56.1534 457.425 55.1335 457.948 54.2301C458.477 53.321 459.212 52.6051 460.156 52.0824C461.099 51.554 462.201 51.2955 463.462 51.3068ZM463.471 53.8636C462.857 53.8636 462.303 54.0142 461.809 54.3153C461.32 54.6108 460.934 55.0142 460.65 55.5256C460.371 56.0312 460.232 56.5966 460.232 57.2216C460.238 57.8409 460.377 58.4034 460.65 58.9091C460.928 59.4148 461.306 59.8153 461.783 60.1108C462.266 60.4062 462.817 60.554 463.437 60.554C463.897 60.554 464.326 60.4659 464.724 60.2898C465.121 60.1136 465.468 59.8693 465.763 59.5568C466.065 59.2386 466.298 58.8778 466.462 58.4744C466.633 58.071 466.715 57.6449 466.71 57.196C466.71 56.5994 466.567 56.0483 466.283 55.5426C466.005 55.0369 465.621 54.6307 465.133 54.3239C464.65 54.017 464.096 53.8636 463.471 53.8636ZM479.229 69.2386C478.002 69.2386 476.911 69.0284 475.957 68.608C475.008 68.1875 474.258 67.6023 473.707 66.8523C473.156 66.1023 472.863 65.2358 472.829 64.2528H476.033C476.062 64.7244 476.218 65.1364 476.502 65.4886C476.786 65.8352 477.164 66.1051 477.636 66.2983C478.107 66.4915 478.636 66.5881 479.221 66.5881C479.846 66.5881 480.4 66.4801 480.883 66.2642C481.366 66.0426 481.744 65.7358 482.016 65.3438C482.289 64.9517 482.423 64.5 482.417 63.9886C482.423 63.4602 482.286 62.9943 482.008 62.5909C481.729 62.1875 481.326 61.8722 480.798 61.6449C480.275 61.4176 479.644 61.304 478.906 61.304H477.363V58.8665H478.906C479.513 58.8665 480.045 58.7614 480.499 58.5511C480.96 58.3409 481.32 58.0455 481.582 57.6648C481.843 57.2784 481.971 56.8324 481.965 56.3267C481.971 55.8324 481.86 55.4034 481.633 55.0398C481.411 54.6705 481.096 54.3835 480.687 54.179C480.283 53.9744 479.809 53.8722 479.263 53.8722C478.729 53.8722 478.235 53.9687 477.781 54.1619C477.326 54.3551 476.96 54.6307 476.681 54.9886C476.403 55.3409 476.255 55.7614 476.238 56.25H473.195C473.218 55.2727 473.499 54.4148 474.039 53.6761C474.585 52.9318 475.312 52.3523 476.221 51.9375C477.13 51.517 478.15 51.3068 479.281 51.3068C480.445 51.3068 481.457 51.5256 482.315 51.9631C483.178 52.3949 483.846 52.9773 484.317 53.7102C484.789 54.4432 485.025 55.2528 485.025 56.1392C485.031 57.1222 484.741 57.946 484.156 58.6108C483.576 59.2756 482.815 59.7102 481.871 59.9148V60.0511C483.099 60.2216 484.039 60.6761 484.692 61.4148C485.352 62.1477 485.678 63.0597 485.673 64.1506C485.673 65.1278 485.394 66.0028 484.837 66.7756C484.286 67.5426 483.525 68.1449 482.553 68.5824C481.587 69.0199 480.479 69.2386 479.229 69.2386Z" fill="#1E1E1F"/>
<rect x="550" y="24" width="70" height="36" rx="12" fill="#EBF3FF"/>
<path d="M565.304 47V38.348H562.406V37.2H569.616V38.348H566.704V47H565.304ZM572.926 47.168C572.263 47.168 571.666 47.014 571.134 46.706C570.611 46.398 570.196 45.9687 569.888 45.418C569.589 44.858 569.44 44.214 569.44 43.486C569.44 42.7393 569.594 42.0907 569.902 41.54C570.21 40.98 570.63 40.546 571.162 40.238C571.694 39.93 572.291 39.776 572.954 39.776C573.626 39.776 574.223 39.93 574.746 40.238C575.269 40.546 575.679 40.9753 575.978 41.526C576.286 42.0767 576.44 42.7253 576.44 43.472C576.44 44.2187 576.286 44.8673 575.978 45.418C575.679 45.9687 575.264 46.398 574.732 46.706C574.2 47.014 573.598 47.168 572.926 47.168ZM572.926 45.964C573.309 45.964 573.654 45.8707 573.962 45.684C574.279 45.4973 574.531 45.222 574.718 44.858C574.914 44.4847 575.012 44.0227 575.012 43.472C575.012 42.9213 574.919 42.464 574.732 42.1C574.545 41.7267 574.293 41.4467 573.976 41.26C573.668 41.0733 573.327 40.98 572.954 40.98C572.581 40.98 572.235 41.0733 571.918 41.26C571.601 41.4467 571.344 41.7267 571.148 42.1C570.961 42.464 570.868 42.9213 570.868 43.472C570.868 44.0227 570.961 44.4847 571.148 44.858C571.344 45.222 571.596 45.4973 571.904 45.684C572.221 45.8707 572.562 45.964 572.926 45.964ZM578.087 50.08V39.944H579.347L579.487 41.036C579.636 40.8213 579.823 40.6207 580.047 40.434C580.271 40.238 580.537 40.0793 580.845 39.958C581.162 39.8367 581.531 39.776 581.951 39.776C582.623 39.776 583.211 39.9393 583.715 40.266C584.228 40.5927 584.625 41.036 584.905 41.596C585.194 42.1467 585.339 42.7767 585.339 43.486C585.339 44.1953 585.194 44.83 584.905 45.39C584.615 45.9407 584.214 46.3747 583.701 46.692C583.197 47.0093 582.609 47.168 581.937 47.168C581.386 47.168 580.901 47.0607 580.481 46.846C580.061 46.622 579.729 46.314 579.487 45.922V50.08H578.087ZM581.713 45.95C582.142 45.95 582.52 45.8473 582.847 45.642C583.183 45.4367 583.444 45.1473 583.631 44.774C583.827 44.4007 583.925 43.9667 583.925 43.472C583.925 42.9773 583.827 42.548 583.631 42.184C583.444 41.8107 583.183 41.5213 582.847 41.316C582.52 41.1013 582.142 40.994 581.713 40.994C581.274 40.994 580.887 41.1013 580.551 41.316C580.224 41.5213 579.967 41.8107 579.781 42.184C579.594 42.548 579.501 42.9773 579.501 43.472C579.501 43.9667 579.594 44.4007 579.781 44.774C579.967 45.1473 580.224 45.4367 580.551 45.642C580.887 45.8473 581.274 45.95 581.713 45.95ZM594.238 47.168C593.547 47.168 592.922 47.0327 592.362 46.762C591.802 46.482 591.354 46.062 591.018 45.502C590.691 44.9327 590.528 44.2093 590.528 43.332V37.2H591.928V43.346C591.928 43.934 592.026 44.4193 592.222 44.802C592.418 45.1753 592.688 45.4553 593.034 45.642C593.388 45.8193 593.799 45.908 594.266 45.908C594.742 45.908 595.152 45.8193 595.498 45.642C595.843 45.4553 596.109 45.1753 596.296 44.802C596.492 44.4193 596.59 43.934 596.59 43.346V37.2H597.99V43.332C597.99 44.2093 597.822 44.9327 597.486 45.502C597.15 46.062 596.697 46.482 596.128 46.762C595.558 47.0327 594.928 47.168 594.238 47.168ZM599.866 50.08V39.944H601.126L601.266 41.036C601.415 40.8213 601.602 40.6207 601.826 40.434C602.05 40.238 602.316 40.0793 602.624 39.958C602.941 39.8367 603.31 39.776 603.73 39.776C604.402 39.776 604.99 39.9393 605.494 40.266C606.007 40.5927 606.404 41.036 606.684 41.596C606.973 42.1467 607.118 42.7767 607.118 43.486C607.118 44.1953 606.973 44.83 606.684 45.39C606.395 45.9407 605.993 46.3747 605.48 46.692C604.976 47.0093 604.388 47.168 603.716 47.168C603.165 47.168 602.68 47.0607 602.26 46.846C601.84 46.622 601.509 46.314 601.266 45.922V50.08H599.866ZM603.492 45.95C603.921 45.95 604.299 45.8473 604.626 45.642C604.962 45.4367 605.223 45.1473 605.41 44.774C605.606 44.4007 605.704 43.9667 605.704 43.472C605.704 42.9773 605.606 42.548 605.41 42.184C605.223 41.8107 604.962 41.5213 604.626 41.316C604.299 41.1013 603.921 40.994 603.492 40.994C603.053 40.994 602.666 41.1013 602.33 41.316C602.003 41.5213 601.747 41.8107 601.56 42.184C601.373 42.548 601.28 42.9773 601.28 43.472C601.28 43.9667 601.373 44.4007 601.56 44.774C601.747 45.1473 602.003 45.4367 602.33 45.642C602.666 45.8473 603.053 45.95 603.492 45.95Z" fill="#0B57D0"/>
<path d="M355.878 105.145C355.205 105.142 354.629 104.964 354.152 104.612C353.675 104.26 353.31 103.747 353.057 103.074C352.804 102.401 352.678 101.589 352.678 100.641C352.678 99.6946 352.804 98.8864 353.057 98.2159C353.313 97.5455 353.679 97.0341 354.156 96.6818C354.636 96.3295 355.21 96.1534 355.878 96.1534C356.545 96.1534 357.118 96.331 357.595 96.6861C358.072 97.0384 358.438 97.5497 358.69 98.2202C358.946 98.8878 359.074 99.6946 359.074 100.641C359.074 101.592 358.947 102.405 358.695 103.078C358.442 103.749 358.077 104.261 357.599 104.616C357.122 104.969 356.548 105.145 355.878 105.145ZM355.878 104.007C356.469 104.007 356.93 103.719 357.263 103.142C357.598 102.565 357.766 101.732 357.766 100.641C357.766 99.9162 357.689 99.304 357.536 98.804C357.385 98.3011 357.168 97.9205 356.884 97.6619C356.602 97.4006 356.267 97.2699 355.878 97.2699C355.29 97.2699 354.828 97.5597 354.493 98.1392C354.158 98.7187 353.989 99.5526 353.986 100.641C353.986 101.368 354.061 101.983 354.212 102.486C354.365 102.986 354.582 103.365 354.864 103.624C355.145 103.879 355.483 104.007 355.878 104.007Z" fill="#2772F5"/>
<path d="M509.72 105.119C509.186 105.119 508.706 105.017 508.28 104.812C507.857 104.605 507.518 104.321 507.266 103.96C507.013 103.599 506.878 103.188 506.861 102.724H508.139C508.17 103.099 508.337 103.408 508.638 103.649C508.939 103.891 509.3 104.011 509.72 104.011C510.055 104.011 510.352 103.935 510.611 103.781C510.872 103.625 511.077 103.411 511.224 103.138C511.375 102.865 511.45 102.554 511.45 102.205C511.45 101.849 511.374 101.533 511.22 101.254C511.067 100.976 510.855 100.757 510.585 100.598C510.318 100.439 510.011 100.358 509.665 100.355C509.401 100.355 509.135 100.401 508.868 100.491C508.601 100.582 508.385 100.702 508.22 100.849L507.014 100.67L507.504 96.2727H512.303V97.402H508.599L508.322 99.8438H508.374C508.544 99.679 508.77 99.5412 509.051 99.4304C509.335 99.3196 509.639 99.2642 509.963 99.2642C510.494 99.2642 510.967 99.3906 511.382 99.6435C511.8 99.8963 512.128 100.241 512.366 100.679C512.608 101.114 512.727 101.614 512.724 102.179C512.727 102.744 512.599 103.249 512.341 103.692C512.085 104.135 511.73 104.484 511.276 104.74C510.824 104.993 510.305 105.119 509.72 105.119ZM517.439 105.145C516.766 105.142 516.191 104.964 515.713 104.612C515.236 104.26 514.871 103.747 514.618 103.074C514.365 102.401 514.239 101.589 514.239 100.641C514.239 99.6946 514.365 98.8864 514.618 98.2159C514.874 97.5455 515.24 97.0341 515.718 96.6818C516.198 96.3295 516.772 96.1534 517.439 96.1534C518.107 96.1534 518.679 96.331 519.157 96.6861C519.634 97.0384 519.999 97.5497 520.252 98.2202C520.507 98.8878 520.635 99.6946 520.635 100.641C520.635 101.592 520.509 102.405 520.256 103.078C520.003 103.749 519.638 104.261 519.161 104.616C518.684 104.969 518.11 105.145 517.439 105.145ZM517.439 104.007C518.03 104.007 518.492 103.719 518.824 103.142C519.159 102.565 519.327 101.732 519.327 100.641C519.327 99.9162 519.25 99.304 519.097 98.804C518.946 98.3011 518.729 97.9205 518.445 97.6619C518.164 97.4006 517.828 97.2699 517.439 97.2699C516.851 97.2699 516.39 97.5597 516.054 98.1392C515.719 98.7187 515.55 99.5526 515.547 100.641C515.547 101.368 515.622 101.983 515.773 102.486C515.926 102.986 516.144 103.365 516.425 103.624C516.706 103.879 517.044 104.007 517.439 104.007ZM522.386 96.2727H523.984L526.763 103.057H526.865L529.643 96.2727H531.241V105H529.989V98.6847H529.908L527.334 104.987H526.294L523.72 98.6804H523.639V105H522.386V96.2727Z" fill="#85B4FF"/>
<rect x="352" y="114" width="181" height="8" rx="4" fill="#D6E6FF"/>
<rect x="352" y="114" width="114.531" height="8" rx="4" fill="#2772F5"/>
<path d="M566.044 112.744C565.813 114.919 564.581 116.957 562.541 118.134C559.154 120.09 554.821 118.929 552.865 115.541L552.657 115.18M551.955 111.256C552.187 109.081 553.419 107.043 555.458 105.865C558.846 103.909 563.178 105.07 565.134 108.458L565.343 108.819M551.911 117.055L552.521 114.778L554.798 115.388M563.202 108.611L565.479 109.221L566.089 106.945M559 108.25V112L561.083 113.25" stroke="#2772F5" stroke-width="1.6" stroke-linecap="round" stroke-linejoin="round"/>
<path d="M582.371 106.818V117H580.731L575.933 110.065H575.849V117H574.004V106.818H575.655L580.447 113.759H580.537V106.818H582.371ZM587.773 117.149C587.027 117.149 586.381 116.985 585.834 116.657C585.287 116.329 584.863 115.87 584.561 115.28C584.263 114.69 584.114 114 584.114 113.212C584.114 112.423 584.263 111.732 584.561 111.138C584.863 110.545 585.287 110.085 585.834 109.756C586.381 109.428 587.027 109.264 587.773 109.264C588.518 109.264 589.165 109.428 589.712 109.756C590.258 110.085 590.681 110.545 590.979 111.138C591.281 111.732 591.432 112.423 591.432 113.212C591.432 114 591.281 114.69 590.979 115.28C590.681 115.87 590.258 116.329 589.712 116.657C589.165 116.985 588.518 117.149 587.773 117.149ZM587.783 115.707C588.187 115.707 588.525 115.596 588.797 115.374C589.069 115.149 589.271 114.847 589.403 114.469C589.539 114.092 589.607 113.671 589.607 113.207C589.607 112.739 589.539 112.317 589.403 111.939C589.271 111.558 589.069 111.254 588.797 111.029C588.525 110.804 588.187 110.691 587.783 110.691C587.368 110.691 587.024 110.804 586.748 111.029C586.477 111.254 586.273 111.558 586.137 111.939C586.004 112.317 585.938 112.739 585.938 113.207C585.938 113.671 586.004 114.092 586.137 114.469C586.273 114.847 586.477 115.149 586.748 115.374C587.024 115.596 587.368 115.707 587.783 115.707ZM599.661 109.364L596.941 117H594.952L592.233 109.364H594.152L595.907 115.036H595.986L597.746 109.364H599.661ZM608.78 106.818V117H606.936V108.613H606.876L604.494 110.134V108.444L607.025 106.818H608.78ZM615.269 117.194C614.45 117.194 613.747 116.987 613.161 116.572C612.577 116.155 612.128 115.553 611.813 114.768C611.502 113.979 611.346 113.029 611.346 111.919C611.349 110.809 611.507 109.864 611.818 109.085C612.133 108.303 612.582 107.706 613.166 107.295C613.752 106.884 614.453 106.679 615.269 106.679C616.084 106.679 616.785 106.884 617.372 107.295C617.958 107.706 618.407 108.303 618.719 109.085C619.034 109.867 619.191 110.812 619.191 111.919C619.191 113.033 619.034 113.984 618.719 114.773C618.407 115.558 617.958 116.158 617.372 116.572C616.788 116.987 616.087 117.194 615.269 117.194ZM615.269 115.638C615.905 115.638 616.407 115.325 616.775 114.698C617.146 114.068 617.332 113.142 617.332 111.919C617.332 111.11 617.247 110.431 617.078 109.881C616.909 109.33 616.671 108.916 616.362 108.638C616.054 108.356 615.69 108.215 615.269 108.215C614.636 108.215 614.135 108.53 613.767 109.16C613.399 109.786 613.214 110.706 613.21 111.919C613.207 112.731 613.288 113.414 613.454 113.967C613.623 114.521 613.862 114.938 614.17 115.22C614.478 115.499 614.844 115.638 615.269 115.638Z" fill="#0B57D0"/>
<rect x="660.5" y="0.5" width="311" height="145" rx="23.5" fill="white"/>
<rect x="660.5" y="0.5" width="311" height="145" rx="23.5" stroke="#EDEDF0"/>
<path d="M685.119 39V28.8182H688.748C689.537 28.8182 690.191 28.9541 690.712 29.2259C691.235 29.4976 691.626 29.8738 691.885 30.3544C692.143 30.8317 692.273 31.3835 692.273 32.0099C692.273 32.633 692.142 33.1816 691.88 33.6555C691.621 34.1262 691.23 34.4924 690.707 34.7543C690.186 35.0161 689.532 35.147 688.743 35.147H685.994V33.8246H688.604C689.101 33.8246 689.505 33.7533 689.817 33.6108C690.132 33.4683 690.362 33.2611 690.508 32.9893C690.654 32.7176 690.727 32.3911 690.727 32.0099C690.727 31.6255 690.652 31.2924 690.503 31.0107C690.357 30.7289 690.127 30.5135 689.812 30.3643C689.5 30.2119 689.091 30.1357 688.584 30.1357H686.655V39H685.119ZM690.145 34.4062L692.661 39H690.911L688.445 34.4062H690.145ZM696.385 39.169C695.901 39.169 695.464 39.0795 695.073 38.9006C694.681 38.7183 694.372 38.4548 694.143 38.1101C693.917 37.7654 693.805 37.3428 693.805 36.8423C693.805 36.4115 693.888 36.0568 694.053 35.7784C694.219 35.5 694.443 35.2796 694.725 35.1172C695.006 34.9548 695.321 34.8321 695.669 34.7493C696.017 34.6664 696.372 34.6035 696.733 34.5604C697.19 34.5073 697.562 34.4643 697.847 34.4311C698.132 34.3946 698.339 34.3366 698.468 34.2571C698.597 34.1776 698.662 34.0483 698.662 33.8693V33.8345C698.662 33.4003 698.539 33.0639 698.294 32.8253C698.052 32.5866 697.691 32.4673 697.21 32.4673C696.71 32.4673 696.315 32.5784 696.027 32.8004C695.742 33.0192 695.545 33.2628 695.435 33.5312L694.038 33.2131C694.204 32.7491 694.446 32.3745 694.764 32.0895C695.086 31.8011 695.455 31.5923 695.873 31.4631C696.291 31.3305 696.73 31.2642 697.19 31.2642C697.495 31.2642 697.819 31.3007 698.16 31.3736C698.505 31.4432 698.826 31.5724 699.124 31.7614C699.426 31.9503 699.673 32.2204 699.865 32.5717C700.057 32.9197 700.153 33.3722 700.153 33.929V39H698.702V37.956H698.642C698.546 38.1482 698.402 38.3371 698.21 38.5227C698.017 38.7083 697.77 38.8625 697.469 38.9851C697.167 39.1077 696.806 39.169 696.385 39.169ZM696.708 37.9759C697.119 37.9759 697.47 37.8946 697.762 37.7322C698.057 37.5698 698.281 37.3577 698.433 37.0959C698.589 36.8307 698.667 36.5473 698.667 36.2457V35.2614C698.614 35.3144 698.511 35.3641 698.359 35.4105C698.21 35.4536 698.039 35.4917 697.847 35.5249C697.654 35.5547 697.467 35.5829 697.285 35.6094C697.103 35.6326 696.95 35.6525 696.828 35.669C696.539 35.7055 696.276 35.7668 696.037 35.853C695.802 35.9392 695.613 36.0634 695.47 36.2259C695.331 36.3849 695.261 36.5971 695.261 36.8622C695.261 37.2301 695.397 37.5085 695.669 37.6974C695.941 37.883 696.287 37.9759 696.708 37.9759ZM705.838 31.3636V32.5568H701.667V31.3636H705.838ZM702.786 29.5341H704.272V36.7578C704.272 37.0462 704.315 37.2633 704.401 37.4091C704.487 37.5516 704.598 37.6494 704.734 37.7024C704.874 37.7521 705.024 37.777 705.187 37.777C705.306 37.777 705.411 37.7687 705.5 37.7521C705.589 37.7356 705.659 37.7223 705.709 37.7124L705.977 38.9403C705.891 38.9735 705.768 39.0066 705.609 39.0398C705.45 39.0762 705.251 39.0961 705.013 39.0994C704.622 39.1061 704.257 39.0365 703.919 38.8906C703.581 38.7448 703.308 38.5194 703.099 38.2145C702.89 37.9096 702.786 37.5268 702.786 37.0661V29.5341ZM710.832 39.1541C710.079 39.1541 709.431 38.9934 708.888 38.6719C708.347 38.3471 707.93 37.8913 707.635 37.3047C707.343 36.7147 707.197 36.0237 707.197 35.2315C707.197 34.4493 707.343 33.7599 707.635 33.1634C707.93 32.5668 708.341 32.1011 708.868 31.7663C709.398 31.4316 710.018 31.2642 710.727 31.2642C711.158 31.2642 711.576 31.3355 711.98 31.478C712.384 31.6205 712.747 31.8442 713.069 32.1491C713.39 32.4541 713.644 32.8501 713.829 33.3374C714.015 33.8213 714.108 34.4096 714.108 35.1023V35.6293H708.038V34.5156H712.651C712.651 34.1245 712.572 33.7782 712.413 33.4766C712.253 33.1716 712.03 32.9313 711.741 32.7557C711.456 32.58 711.122 32.4922 710.737 32.4922C710.32 32.4922 709.955 32.5949 709.643 32.8004C709.335 33.0026 709.096 33.2678 708.927 33.5959C708.762 33.9207 708.679 34.2737 708.679 34.6548V35.5249C708.679 36.0353 708.768 36.4695 708.947 36.8274C709.13 37.1854 709.383 37.4588 709.708 37.6477C710.033 37.8333 710.412 37.9261 710.846 37.9261C711.128 37.9261 711.385 37.8864 711.617 37.8068C711.849 37.724 712.05 37.6013 712.219 37.4389C712.388 37.2765 712.517 37.076 712.606 36.8374L714.013 37.0909C713.901 37.5052 713.699 37.8681 713.407 38.1797C713.119 38.4879 712.756 38.7282 712.318 38.9006C711.884 39.0696 711.388 39.1541 710.832 39.1541ZM721.229 28.8182V39H719.742V28.8182H721.229ZM723.369 39V31.3636H724.855V39H723.369ZM724.119 30.1854C723.861 30.1854 723.639 30.0992 723.453 29.9268C723.271 29.7512 723.18 29.5424 723.18 29.3004C723.18 29.0552 723.271 28.8464 723.453 28.674C723.639 28.4983 723.861 28.4105 724.119 28.4105C724.378 28.4105 724.598 28.4983 724.781 28.674C724.966 28.8464 725.059 29.0552 725.059 29.3004C725.059 29.5424 724.966 29.7512 724.781 29.9268C724.598 30.0992 724.378 30.1854 724.119 30.1854ZM726.995 39V31.3636H728.422V32.6065H728.516C728.675 32.1856 728.935 31.8575 729.297 31.6222C729.658 31.3835 730.091 31.2642 730.594 31.2642C731.105 31.2642 731.532 31.3835 731.877 31.6222C732.225 31.8608 732.482 32.1889 732.648 32.6065H732.727C732.909 32.1989 733.199 31.8741 733.597 31.6321C733.995 31.3868 734.469 31.2642 735.019 31.2642C735.712 31.2642 736.277 31.4813 736.714 31.9155C737.155 32.3497 737.376 33.0043 737.376 33.8793V39H735.889V34.0185C735.889 33.5014 735.748 33.1269 735.467 32.8949C735.185 32.6629 734.848 32.5469 734.457 32.5469C733.973 32.5469 733.597 32.696 733.329 32.9943C733.06 33.2893 732.926 33.6688 732.926 34.1328V39H731.444V33.924C731.444 33.5097 731.315 33.1766 731.057 32.9247C730.798 32.6728 730.462 32.5469 730.047 32.5469C729.766 32.5469 729.506 32.6214 729.267 32.7706C729.032 32.9164 728.841 33.1203 728.695 33.3821C728.553 33.6439 728.481 33.9472 728.481 34.2919V39H726.995ZM739.508 39V31.3636H740.994V39H739.508ZM740.259 30.1854C740 30.1854 739.778 30.0992 739.592 29.9268C739.41 29.7512 739.319 29.5424 739.319 29.3004C739.319 29.0552 739.41 28.8464 739.592 28.674C739.778 28.4983 740 28.4105 740.259 28.4105C740.517 28.4105 740.738 28.4983 740.92 28.674C741.105 28.8464 741.198 29.0552 741.198 29.3004C741.198 29.5424 741.105 29.7512 740.92 29.9268C740.738 30.0992 740.517 30.1854 740.259 30.1854ZM746.699 31.3636V32.5568H742.528V31.3636H746.699ZM743.646 29.5341H745.133V36.7578C745.133 37.0462 745.176 37.2633 745.262 37.4091C745.348 37.5516 745.459 37.6494 745.595 37.7024C745.734 37.7521 745.885 37.777 746.048 37.777C746.167 37.777 746.271 37.7687 746.361 37.7521C746.45 37.7356 746.52 37.7223 746.57 37.7124L746.838 38.9403C746.752 38.9735 746.629 39.0066 746.47 39.0398C746.311 39.0762 746.112 39.0961 745.874 39.0994C745.483 39.1061 745.118 39.0365 744.78 38.8906C744.442 38.7448 744.168 38.5194 743.96 38.2145C743.751 37.9096 743.646 37.5268 743.646 37.0661V29.5341Z" fill="#AEAEB2"/>
<path d="M685.551 69V66.7159L691.611 60.7756C692.19 60.1903 692.673 59.6705 693.06 59.2159C693.446 58.7614 693.736 58.321 693.929 57.8949C694.122 57.4687 694.219 57.0142 694.219 56.5312C694.219 55.9801 694.094 55.5085 693.844 55.1165C693.594 54.7188 693.25 54.4119 692.812 54.196C692.375 53.9801 691.878 53.8722 691.321 53.8722C690.747 53.8722 690.244 53.9915 689.812 54.2301C689.381 54.4631 689.045 54.7955 688.807 55.2273C688.574 55.6591 688.457 56.1733 688.457 56.7699H685.449C685.449 55.6619 685.702 54.6989 686.207 53.8807C686.713 53.0625 687.409 52.429 688.295 51.9801C689.188 51.5312 690.21 51.3068 691.364 51.3068C692.534 51.3068 693.563 51.5256 694.449 51.9631C695.335 52.4006 696.023 53 696.511 53.7614C697.006 54.5227 697.253 55.392 697.253 56.3693C697.253 57.0227 697.128 57.6648 696.878 58.2955C696.628 58.9261 696.188 59.625 695.557 60.392C694.932 61.1591 694.054 62.0881 692.923 63.179L689.915 66.2386V66.358H697.517V69H685.551ZM706.526 69.2386C705.389 69.2386 704.372 69.0256 703.474 68.5994C702.577 68.1676 701.864 67.5767 701.335 66.8267C700.813 66.0767 700.534 65.2187 700.5 64.2528H703.568C703.625 64.9687 703.935 65.554 704.497 66.0085C705.06 66.4574 705.736 66.6818 706.526 66.6818C707.145 66.6818 707.696 66.5398 708.179 66.2557C708.662 65.9716 709.043 65.5767 709.321 65.071C709.599 64.5653 709.736 63.9886 709.73 63.3409C709.736 62.6818 709.597 62.0966 709.312 61.5852C709.028 61.0739 708.639 60.6733 708.145 60.3835C707.651 60.0881 707.082 59.9403 706.44 59.9403C705.918 59.9347 705.403 60.0312 704.898 60.2301C704.392 60.429 703.991 60.6903 703.696 61.0142L700.841 60.5455L701.753 51.5455H711.878V54.1875H704.369L703.866 58.8153H703.969C704.293 58.4347 704.75 58.1193 705.341 57.8693C705.932 57.6136 706.58 57.4858 707.284 57.4858C708.341 57.4858 709.284 57.7358 710.114 58.2358C710.943 58.7301 711.597 59.4119 712.074 60.2812C712.551 61.1506 712.79 62.1449 712.79 63.2642C712.79 64.4176 712.523 65.446 711.989 66.3494C711.46 67.2472 710.724 67.9545 709.781 68.4716C708.844 68.983 707.759 69.2386 706.526 69.2386ZM721.195 69V57.3636H725.558C726.452 57.3636 727.202 57.5189 727.808 57.8295C728.418 58.1402 728.878 58.5758 729.189 59.1364C729.503 59.6932 729.661 60.3428 729.661 61.0852C729.661 61.8314 729.501 62.4792 729.183 63.0284C728.869 63.5739 728.405 63.9962 727.791 64.2955C727.178 64.5909 726.424 64.7386 725.53 64.7386H722.422V62.9886H725.246C725.768 62.9886 726.196 62.9167 726.53 62.7727C726.863 62.625 727.109 62.411 727.268 62.1307C727.431 61.8466 727.513 61.4981 727.513 61.0852C727.513 60.6723 727.431 60.3201 727.268 60.0284C727.106 59.733 726.857 59.5095 726.524 59.358C726.191 59.2027 725.761 59.125 725.234 59.125H723.303V69H721.195ZM727.206 63.7273L730.087 69H727.734L724.905 63.7273H727.206ZM731.601 69V57.3636H735.964C736.858 57.3636 737.608 57.5303 738.214 57.8636C738.824 58.197 739.285 58.6553 739.595 59.2386C739.91 59.8182 740.067 60.4773 740.067 61.2159C740.067 61.9621 739.91 62.625 739.595 63.2045C739.281 63.7841 738.817 64.2405 738.203 64.5739C737.589 64.9034 736.834 65.0682 735.936 65.0682H733.044V63.3352H735.652C736.175 63.3352 736.603 63.2443 736.936 63.0625C737.269 62.8807 737.516 62.6307 737.675 62.3125C737.838 61.9943 737.919 61.6288 737.919 61.2159C737.919 60.803 737.838 60.4394 737.675 60.125C737.516 59.8106 737.268 59.5663 736.93 59.392C736.597 59.214 736.167 59.125 735.641 59.125H733.709V69H731.601ZM748.222 60.5625C748.169 60.0663 747.945 59.6799 747.551 59.4034C747.161 59.1269 746.653 58.9886 746.028 58.9886C745.589 58.9886 745.212 59.0549 744.898 59.1875C744.583 59.3201 744.343 59.5 744.176 59.7273C744.009 59.9545 743.924 60.214 743.92 60.5057C743.92 60.7481 743.975 60.9583 744.085 61.1364C744.199 61.3144 744.352 61.4659 744.545 61.5909C744.739 61.7121 744.953 61.8144 745.188 61.8977C745.422 61.9811 745.659 62.0511 745.898 62.108L746.989 62.3807C747.428 62.483 747.85 62.6212 748.256 62.7955C748.665 62.9697 749.03 63.1894 749.352 63.4545C749.678 63.7197 749.936 64.0398 750.125 64.4148C750.314 64.7898 750.409 65.2292 750.409 65.733C750.409 66.4148 750.235 67.0152 749.886 67.5341C749.538 68.0492 749.034 68.4527 748.375 68.7443C747.72 69.0322 746.926 69.1761 745.994 69.1761C745.089 69.1761 744.303 69.036 743.636 68.7557C742.973 68.4754 742.455 68.0663 742.08 67.5284C741.708 66.9905 741.508 66.3352 741.477 65.5625H743.551C743.581 65.9678 743.706 66.3049 743.926 66.5739C744.146 66.8428 744.432 67.0436 744.784 67.1761C745.14 67.3087 745.538 67.375 745.977 67.375C746.436 67.375 746.837 67.3068 747.182 67.1705C747.53 67.0303 747.803 66.8371 748 66.5909C748.197 66.3409 748.297 66.0492 748.301 65.7159C748.297 65.4129 748.208 65.1629 748.034 64.9659C747.86 64.7652 747.616 64.5985 747.301 64.4659C746.991 64.3295 746.627 64.2083 746.21 64.1023L744.886 63.7614C743.928 63.5152 743.17 63.142 742.614 62.642C742.061 62.1383 741.784 61.4697 741.784 60.6364C741.784 59.9508 741.97 59.3504 742.341 58.8352C742.716 58.3201 743.225 57.9205 743.869 57.6364C744.513 57.3485 745.242 57.2045 746.057 57.2045C746.883 57.2045 747.606 57.3485 748.227 57.6364C748.852 57.9205 749.343 58.3163 749.699 58.8239C750.055 59.3277 750.239 59.9072 750.25 60.5625H748.222Z" fill="#1E1E1F"/>
<line x1="684" y1="105.5" x2="944" y2="105.5" stroke="#C2DAFF" stroke-dasharray="2 2"/>
<path d="M684 109C684 106.791 685.791 105 688 105C690.209 105 692 106.791 692 109V118C692 120.209 690.209 122 688 122C685.791 122 684 120.209 684 118V109Z" fill="url(#paint0_linear_295_2224)"/>
<path d="M696 102C696 99.7909 697.791 98 700 98C702.209 98 704 99.7909 704 102V118C704 120.209 702.209 122 700 122C697.791 122 696 120.209 696 118V102Z" fill="url(#paint1_linear_295_2224)"/>
<path d="M708 102C708 99.7909 709.791 98 712 98C714.209 98 716 99.7909 716 102V118C716 120.209 714.209 122 712 122C709.791 122 708 120.209 708 118V102Z" fill="url(#paint2_linear_295_2224)"/>
<path d="M720 109C720 106.791 721.791 105 724 105C726.209 105 728 106.791 728 109V118C728 120.209 726.209 122 724 122C721.791 122 720 120.209 720 118V109Z" fill="url(#paint3_linear_295_2224)"/>
<path d="M732 109C732 106.791 733.791 105 736 105C738.209 105 740 106.791 740 109V118C740 120.209 738.209 122 736 122C733.791 122 732 120.209 732 118V109Z" fill="url(#paint4_linear_295_2224)"/>
<path d="M744 105C744 102.791 745.791 101 748 101C750.209 101 752 102.791 752 105V118C752 120.209 750.209 122 748 122C745.791 122 744 120.209 744 118V105Z" fill="url(#paint5_linear_295_2224)"/>
<path d="M756 96C756 93.7909 757.791 92 760 92C762.209 92 764 93.7909 764 96V118C764 120.209 762.209 122 760 122C757.791 122 756 120.209 756 118V96Z" fill="url(#paint6_linear_295_2224)"/>
<path d="M768 98C768 95.7909 769.791 94 772 94C774.209 94 776 95.7909 776 98V118C776 120.209 774.209 122 772 122C769.791 122 768 120.209 768 118V98Z" fill="url(#paint7_linear_295_2224)"/>
<path d="M780 105C780 102.791 781.791 101 784 101C786.209 101 788 102.791 788 105V118C788 120.209 786.209 122 784 122C781.791 122 780 120.209 780 118V105Z" fill="url(#paint8_linear_295_2224)"/>
<path d="M792 109C792 106.791 793.791 105 796 105C798.209 105 800 106.791 800 109V118C800 120.209 798.209 122 796 122C793.791 122 792 120.209 792 118V109Z" fill="url(#paint9_linear_295_2224)"/>
<path d="M804 109C804 106.791 805.791 105 808 105C810.209 105 812 106.791 812 109V118C812 120.209 810.209 122 808 122C805.791 122 804 120.209 804 118V109Z" fill="url(#paint10_linear_295_2224)"/>
<path d="M816 105C816 102.791 817.791 101 820 101C822.209 101 824 102.791 824 105V118C824 120.209 822.209 122 820 122C817.791 122 816 120.209 816 118V105Z" fill="url(#paint11_linear_295_2224)"/>
<path d="M828 98C828 95.7909 829.791 94 832 94C834.209 94 836 95.7909 836 98V118C836 120.209 834.209 122 832 122C829.791 122 828 120.209 828 118V98Z" fill="url(#paint12_linear_295_2224)"/>
<path d="M840 105C840 102.791 841.791 101 844 101C846.209 101 848 102.791 848 105V118C848 120.209 846.209 122 844 122C841.791 122 840 120.209 840 118V105Z" fill="url(#paint13_linear_295_2224)"/>
<path d="M852 102C852 99.7909 853.791 98 856 98C858.209 98 860 99.7909 860 102V118C860 120.209 858.209 122 856 122C853.791 122 852 120.209 852 118V102Z" fill="url(#paint14_linear_295_2224)"/>
<path d="M864 109C864 106.791 865.791 105 868 105C870.209 105 872 106.791 872 109V118C872 120.209 870.209 122 868 122C865.791 122 864 120.209 864 118V109Z" fill="url(#paint15_linear_295_2224)"/>
<path d="M876 108C876 105.791 877.791 104 880 104C882.209 104 884 105.791 884 108V118C884 120.209 882.209 122 880 122C877.791 122 876 120.209 876 118V108Z" fill="url(#paint16_linear_295_2224)"/>
<path d="M888 109C888 106.791 889.791 105 892 105C894.209 105 896 106.791 896 109V118C896 120.209 894.209 122 892 122C889.791 122 888 120.209 888 118V109Z" fill="url(#paint17_linear_295_2224)"/>
<path d="M900 105C900 102.791 901.791 101 904 101C906.209 101 908 102.791 908 105V118C908 120.209 906.209 122 904 122C901.791 122 900 120.209 900 118V105Z" fill="url(#paint18_linear_295_2224)"/>
<path d="M912 98C912 95.7909 913.791 94 916 94C918.209 94 920 95.7909 920 98V118C920 120.209 918.209 122 916 122C913.791 122 912 120.209 912 118V98Z" fill="url(#paint19_linear_295_2224)"/>
<path d="M924 98C924 95.7909 925.791 94 928 94C930.209 94 932 95.7909 932 98V118C932 120.209 930.209 122 928 122C925.791 122 924 120.209 924 118V98Z" fill="url(#paint20_linear_295_2224)"/>
<path d="M936 109C936 106.791 937.791 105 940 105C942.209 105 944 106.791 944 109V118C944 120.209 942.209 122 940 122C937.791 122 936 120.209 936 118V109Z" fill="url(#paint21_linear_295_2224)"/>
<defs>
<linearGradient id="paint0_linear_295_2224" x1="814" y1="88.5" x2="814" y2="122" gradientUnits="userSpaceOnUse">
<stop offset="0.489483" stop-color="#FF6753"/>
<stop offset="0.489583" stop-color="#2772F5"/>
</linearGradient>
<linearGradient id="paint1_linear_295_2224" x1="814" y1="88.5" x2="814" y2="122" gradientUnits="userSpaceOnUse">
<stop offset="0.489483" stop-color="#FF6753"/>
<stop offset="0.489583" stop-color="#2772F5"/>
</linearGradient>
<linearGradient id="paint2_linear_295_2224" x1="814" y1="88.5" x2="814" y2="122" gradientUnits="userSpaceOnUse">
<stop offset="0.489483" stop-color="#FF6753"/>
<stop offset="0.489583" stop-color="#2772F5"/>
</linearGradient>
<linearGradient id="paint3_linear_295_2224" x1="814" y1="88.5" x2="814" y2="122" gradientUnits="userSpaceOnUse">
<stop offset="0.489483" stop-color="#FF6753"/>
<stop offset="0.489583" stop-color="#2772F5"/>
</linearGradient>
<linearGradient id="paint4_linear_295_2224" x1="814" y1="88.5" x2="814" y2="122" gradientUnits="userSpaceOnUse">
<stop offset="0.489483" stop-color="#FF6753"/>
<stop offset="0.489583" stop-color="#2772F5"/>
</linearGradient>
<linearGradient id="paint5_linear_295_2224" x1="814" y1="88.5" x2="814" y2="122" gradientUnits="userSpaceOnUse">
<stop offset="0.489483" stop-color="#FF6753"/>
<stop offset="0.489583" stop-color="#2772F5"/>
</linearGradient>
<linearGradient id="paint6_linear_295_2224" x1="814" y1="88.5" x2="814" y2="122" gradientUnits="userSpaceOnUse">
<stop offset="0.489483" stop-color="#FF6753"/>
<stop offset="0.489583" stop-color="#2772F5"/>
</linearGradient>
<linearGradient id="paint7_linear_295_2224" x1="814" y1="88.5" x2="814" y2="122" gradientUnits="userSpaceOnUse">
<stop offset="0.489483" stop-color="#FF6753"/>
<stop offset="0.489583" stop-color="#2772F5"/>
</linearGradient>
<linearGradient id="paint8_linear_295_2224" x1="814" y1="88.5" x2="814" y2="122" gradientUnits="userSpaceOnUse">
<stop offset="0.489483" stop-color="#FF6753"/>
<stop offset="0.489583" stop-color="#2772F5"/>
</linearGradient>
<linearGradient id="paint9_linear_295_2224" x1="814" y1="88.5" x2="814" y2="122" gradientUnits="userSpaceOnUse">
<stop offset="0.489483" stop-color="#FF6753"/>
<stop offset="0.489583" stop-color="#2772F5"/>
</linearGradient>
<linearGradient id="paint10_linear_295_2224" x1="814" y1="88.5" x2="814" y2="122" gradientUnits="userSpaceOnUse">
<stop offset="0.489483" stop-color="#FF6753"/>
<stop offset="0.489583" stop-color="#2772F5"/>
</linearGradient>
<linearGradient id="paint11_linear_295_2224" x1="814" y1="88.5" x2="814" y2="122" gradientUnits="userSpaceOnUse">
<stop offset="0.489483" stop-color="#FF6753"/>
<stop offset="0.489583" stop-color="#2772F5"/>
</linearGradient>
<linearGradient id="paint12_linear_295_2224" x1="814" y1="88.5" x2="814" y2="122" gradientUnits="userSpaceOnUse">
<stop offset="0.489483" stop-color="#FF6753"/>
<stop offset="0.489583" stop-color="#2772F5"/>
</linearGradient>
<linearGradient id="paint13_linear_295_2224" x1="814" y1="88.5" x2="814" y2="122" gradientUnits="userSpaceOnUse">
<stop offset="0.489483" stop-color="#FF6753"/>
<stop offset="0.489583" stop-color="#2772F5"/>
</linearGradient>
<linearGradient id="paint14_linear_295_2224" x1="814" y1="88.5" x2="814" y2="122" gradientUnits="userSpaceOnUse">
<stop offset="0.489483" stop-color="#FF6753"/>
<stop offset="0.489583" stop-color="#2772F5"/>
</linearGradient>
<linearGradient id="paint15_linear_295_2224" x1="814" y1="88.5" x2="814" y2="122" gradientUnits="userSpaceOnUse">
<stop offset="0.489483" stop-color="#FF6753"/>
<stop offset="0.489583" stop-color="#2772F5"/>
</linearGradient>
<linearGradient id="paint16_linear_295_2224" x1="814" y1="88.5" x2="814" y2="122" gradientUnits="userSpaceOnUse">
<stop offset="0.489483" stop-color="#FF6753"/>
<stop offset="0.489583" stop-color="#2772F5"/>
</linearGradient>
<linearGradient id="paint17_linear_295_2224" x1="814" y1="88.5" x2="814" y2="122" gradientUnits="userSpaceOnUse">
<stop offset="0.489483" stop-color="#FF6753"/>
<stop offset="0.489583" stop-color="#2772F5"/>
</linearGradient>
<linearGradient id="paint18_linear_295_2224" x1="814" y1="88.5" x2="814" y2="122" gradientUnits="userSpaceOnUse">
<stop offset="0.489483" stop-color="#FF6753"/>
<stop offset="0.489583" stop-color="#2772F5"/>
</linearGradient>
<linearGradient id="paint19_linear_295_2224" x1="814" y1="88.5" x2="814" y2="122" gradientUnits="userSpaceOnUse">
<stop offset="0.489483" stop-color="#FF6753"/>
<stop offset="0.489583" stop-color="#2772F5"/>
</linearGradient>
<linearGradient id="paint20_linear_295_2224" x1="814" y1="88.5" x2="814" y2="122" gradientUnits="userSpaceOnUse">
<stop offset="0.489483" stop-color="#FF6753"/>
<stop offset="0.489583" stop-color="#2772F5"/>
</linearGradient>
<linearGradient id="paint21_linear_295_2224" x1="814" y1="88.5" x2="814" y2="122" gradientUnits="userSpaceOnUse">
<stop offset="0.489483" stop-color="#FF6753"/>
<stop offset="0.489583" stop-color="#2772F5"/>
</linearGradient>
</defs>
</svg>
