<svg width="187" height="187" viewBox="0 0 187 187" fill="none" xmlns="http://www.w3.org/2000/svg">
<g clip-path="url(#clip0_4165_1345)">
<path fill-rule="evenodd" clip-rule="evenodd" d="M0 93.4987C0 145.137 41.8602 186.997 93.4986 186.997C145.137 186.997 187 145.137 187 93.4987C187 41.8602 145.137 0 93.4986 0C41.8602 0 0 41.8602 0 93.4987Z" fill="#48A3FF"/>
<path fill-rule="evenodd" clip-rule="evenodd" d="M114.381 86.3835L114.379 86.3871C118.007 90.7765 120.175 96.3359 120.175 102.383C120.175 108.519 117.942 114.154 114.217 118.573L113.896 118.954L113.811 118.47C113.738 118.059 113.654 117.644 113.555 117.225C111.69 109.32 105.615 102.542 95.6165 97.053C88.8646 93.3569 84.9998 88.906 83.9851 83.8494C83.3298 80.5794 83.817 77.295 84.7586 74.4818C85.6998 71.6695 87.1 69.3133 88.2896 67.8947L92.1798 63.3046C92.8619 62.4998 94.1384 62.4998 94.8205 63.3046L114.381 86.3835ZM120.533 81.7983L94.4636 51.0374C93.966 50.4501 93.034 50.4501 92.5364 51.0374L66.4662 81.7969L66.382 81.9002C61.5846 87.6445 58.7137 94.9446 58.7137 102.891C58.7137 121.399 74.2878 136.403 93.5 136.403C112.712 136.403 128.286 121.399 128.286 102.891C128.286 94.9446 125.415 87.6445 120.618 81.9002L120.533 81.7983ZM72.704 86.2843L75.0368 83.5318L75.1073 84.0395C75.1631 84.442 75.2308 84.8465 75.3111 85.2526C76.8199 92.8912 82.2096 99.2604 91.2207 104.193C99.0536 108.495 103.614 113.442 104.928 118.867C105.476 121.131 105.574 123.358 105.337 125.306L105.322 125.427L105.209 125.48C101.674 127.146 97.6997 128.082 93.4991 128.082C78.7669 128.082 66.8233 116.576 66.8233 102.383C66.8233 96.2888 69.025 90.6894 72.704 86.2843Z" fill="white"/>
</g>
<rect x="1" y="1" width="185" height="185" rx="92.5" stroke="#1E1E1F" stroke-opacity="0.08" stroke-width="2"/>
<defs>
<clipPath id="clip0_4165_1345">
<rect width="187" height="187" rx="93.5" fill="white"/>
</clipPath>
</defs>
</svg>
